<?xml version="1.0" encoding="utf-8" standalone="no"?>
<!DOCTYPE svg PUBLIC "-//W3C//DTD SVG 1.1//EN"
  "http://www.w3.org/Graphics/SVG/1.1/DTD/svg11.dtd">
<!-- Created with matplotlib (https://matplotlib.org/) -->
<svg height="267.3955pt" version="1.1" viewBox="0 0 609.94 267.3955" width="609.94pt" xmlns="http://www.w3.org/2000/svg" xmlns:xlink="http://www.w3.org/1999/xlink">
 <metadata>
  <rdf:RDF xmlns:cc="http://creativecommons.org/ns#" xmlns:dc="http://purl.org/dc/elements/1.1/" xmlns:rdf="http://www.w3.org/1999/02/22-rdf-syntax-ns#">
   <cc:Work>
    <dc:type rdf:resource="http://purl.org/dc/dcmitype/StillImage"/>
    <dc:date>2020-09-27T19:16:34.964627</dc:date>
    <dc:format>image/svg+xml</dc:format>
    <dc:creator>
     <cc:Agent>
      <dc:title>Matplotlib v3.3.2, https://matplotlib.org/</dc:title>
     </cc:Agent>
    </dc:creator>
   </cc:Work>
  </rdf:RDF>
 </metadata>
 <defs>
  <style type="text/css">*{stroke-linecap:butt;stroke-linejoin:round;}</style>
 </defs>
 <g id="figure_1">
  <g id="patch_1">
   <path d="M 0 267.3955 
L 609.94 267.3955 
L 609.94 0 
L 0 0 
z
" style="fill:#ffffff;"/>
  </g>
  <g id="axes_1">
   <g id="patch_2">
    <path d="M 44.74 241.58175 
L 298.376364 241.58175 
L 298.376364 24.14175 
L 44.74 24.14175 
z
" style="fill:#e5e5e5;"/>
   </g>
   <g id="matplotlib.axis_1">
    <g id="xtick_1">
     <g id="line2d_1">
      <path clip-path="url(#p7b74f119c2)" d="M 56.245803 241.58175 
L 56.245803 24.14175 
" style="fill:none;stroke:#ffffff;stroke-linecap:square;stroke-width:0.8;"/>
     </g>
     <g id="line2d_2">
      <defs>
       <path d="M 0 0 
L 0 3.5 
" id="macde3f4368" style="stroke:#555555;stroke-width:0.8;"/>
      </defs>
      <g>
       <use style="fill:#555555;stroke:#555555;stroke-width:0.8;" x="56.245803" xlink:href="#macde3f4368" y="241.58175"/>
      </g>
     </g>
     <g id="text_1">
      <!-- 0 -->
      <g style="fill:#555555;" transform="translate(52.428303 257.699875)scale(0.12 -0.12)">
       <defs>
        <path d="M 31.78125 66.40625 
Q 24.171875 66.40625 20.328125 58.90625 
Q 16.5 51.421875 16.5 36.375 
Q 16.5 21.390625 20.328125 13.890625 
Q 24.171875 6.390625 31.78125 6.390625 
Q 39.453125 6.390625 43.28125 13.890625 
Q 47.125 21.390625 47.125 36.375 
Q 47.125 51.421875 43.28125 58.90625 
Q 39.453125 66.40625 31.78125 66.40625 
z
M 31.78125 74.21875 
Q 44.046875 74.21875 50.515625 64.515625 
Q 56.984375 54.828125 56.984375 36.375 
Q 56.984375 17.96875 50.515625 8.265625 
Q 44.046875 -1.421875 31.78125 -1.421875 
Q 19.53125 -1.421875 13.0625 8.265625 
Q 6.59375 17.96875 6.59375 36.375 
Q 6.59375 54.828125 13.0625 64.515625 
Q 19.53125 74.21875 31.78125 74.21875 
z
" id="DejaVuSans-48"/>
       </defs>
       <use xlink:href="#DejaVuSans-48"/>
      </g>
     </g>
    </g>
    <g id="xtick_2">
     <g id="line2d_3">
      <path clip-path="url(#p7b74f119c2)" d="M 114.046317 241.58175 
L 114.046317 24.14175 
" style="fill:none;stroke:#ffffff;stroke-linecap:square;stroke-width:0.8;"/>
     </g>
     <g id="line2d_4">
      <g>
       <use style="fill:#555555;stroke:#555555;stroke-width:0.8;" x="114.046317" xlink:href="#macde3f4368" y="241.58175"/>
      </g>
     </g>
     <g id="text_2">
      <!-- 50000 -->
      <g style="fill:#555555;" transform="translate(94.958817 257.699875)scale(0.12 -0.12)">
       <defs>
        <path d="M 10.796875 72.90625 
L 49.515625 72.90625 
L 49.515625 64.59375 
L 19.828125 64.59375 
L 19.828125 46.734375 
Q 21.96875 47.46875 24.109375 47.828125 
Q 26.265625 48.1875 28.421875 48.1875 
Q 40.625 48.1875 47.75 41.5 
Q 54.890625 34.8125 54.890625 23.390625 
Q 54.890625 11.625 47.5625 5.09375 
Q 40.234375 -1.421875 26.90625 -1.421875 
Q 22.3125 -1.421875 17.546875 -0.640625 
Q 12.796875 0.140625 7.71875 1.703125 
L 7.71875 11.625 
Q 12.109375 9.234375 16.796875 8.0625 
Q 21.484375 6.890625 26.703125 6.890625 
Q 35.15625 6.890625 40.078125 11.328125 
Q 45.015625 15.765625 45.015625 23.390625 
Q 45.015625 31 40.078125 35.4375 
Q 35.15625 39.890625 26.703125 39.890625 
Q 22.75 39.890625 18.8125 39.015625 
Q 14.890625 38.140625 10.796875 36.28125 
z
" id="DejaVuSans-53"/>
       </defs>
       <use xlink:href="#DejaVuSans-53"/>
       <use x="63.623047" xlink:href="#DejaVuSans-48"/>
       <use x="127.246094" xlink:href="#DejaVuSans-48"/>
       <use x="190.869141" xlink:href="#DejaVuSans-48"/>
       <use x="254.492188" xlink:href="#DejaVuSans-48"/>
      </g>
     </g>
    </g>
    <g id="xtick_3">
     <g id="line2d_5">
      <path clip-path="url(#p7b74f119c2)" d="M 171.84683 241.58175 
L 171.84683 24.14175 
" style="fill:none;stroke:#ffffff;stroke-linecap:square;stroke-width:0.8;"/>
     </g>
     <g id="line2d_6">
      <g>
       <use style="fill:#555555;stroke:#555555;stroke-width:0.8;" x="171.84683" xlink:href="#macde3f4368" y="241.58175"/>
      </g>
     </g>
     <g id="text_3">
      <!-- 100000 -->
      <g style="fill:#555555;" transform="translate(148.94183 257.699875)scale(0.12 -0.12)">
       <defs>
        <path d="M 12.40625 8.296875 
L 28.515625 8.296875 
L 28.515625 63.921875 
L 10.984375 60.40625 
L 10.984375 69.390625 
L 28.421875 72.90625 
L 38.28125 72.90625 
L 38.28125 8.296875 
L 54.390625 8.296875 
L 54.390625 0 
L 12.40625 0 
z
" id="DejaVuSans-49"/>
       </defs>
       <use xlink:href="#DejaVuSans-49"/>
       <use x="63.623047" xlink:href="#DejaVuSans-48"/>
       <use x="127.246094" xlink:href="#DejaVuSans-48"/>
       <use x="190.869141" xlink:href="#DejaVuSans-48"/>
       <use x="254.492188" xlink:href="#DejaVuSans-48"/>
       <use x="318.115234" xlink:href="#DejaVuSans-48"/>
      </g>
     </g>
    </g>
    <g id="xtick_4">
     <g id="line2d_7">
      <path clip-path="url(#p7b74f119c2)" d="M 229.647344 241.58175 
L 229.647344 24.14175 
" style="fill:none;stroke:#ffffff;stroke-linecap:square;stroke-width:0.8;"/>
     </g>
     <g id="line2d_8">
      <g>
       <use style="fill:#555555;stroke:#555555;stroke-width:0.8;" x="229.647344" xlink:href="#macde3f4368" y="241.58175"/>
      </g>
     </g>
     <g id="text_4">
      <!-- 150000 -->
      <g style="fill:#555555;" transform="translate(206.742344 257.699875)scale(0.12 -0.12)">
       <use xlink:href="#DejaVuSans-49"/>
       <use x="63.623047" xlink:href="#DejaVuSans-53"/>
       <use x="127.246094" xlink:href="#DejaVuSans-48"/>
       <use x="190.869141" xlink:href="#DejaVuSans-48"/>
       <use x="254.492188" xlink:href="#DejaVuSans-48"/>
       <use x="318.115234" xlink:href="#DejaVuSans-48"/>
      </g>
     </g>
    </g>
    <g id="xtick_5">
     <g id="line2d_9">
      <path clip-path="url(#p7b74f119c2)" d="M 287.447858 241.58175 
L 287.447858 24.14175 
" style="fill:none;stroke:#ffffff;stroke-linecap:square;stroke-width:0.8;"/>
     </g>
     <g id="line2d_10">
      <g>
       <use style="fill:#555555;stroke:#555555;stroke-width:0.8;" x="287.447858" xlink:href="#macde3f4368" y="241.58175"/>
      </g>
     </g>
     <g id="text_5">
      <!-- 200000 -->
      <g style="fill:#555555;" transform="translate(264.542858 257.699875)scale(0.12 -0.12)">
       <defs>
        <path d="M 19.1875 8.296875 
L 53.609375 8.296875 
L 53.609375 0 
L 7.328125 0 
L 7.328125 8.296875 
Q 12.9375 14.109375 22.625 23.890625 
Q 32.328125 33.6875 34.8125 36.53125 
Q 39.546875 41.84375 41.421875 45.53125 
Q 43.3125 49.21875 43.3125 52.78125 
Q 43.3125 58.59375 39.234375 62.25 
Q 35.15625 65.921875 28.609375 65.921875 
Q 23.96875 65.921875 18.8125 64.3125 
Q 13.671875 62.703125 7.8125 59.421875 
L 7.8125 69.390625 
Q 13.765625 71.78125 18.9375 73 
Q 24.125 74.21875 28.421875 74.21875 
Q 39.75 74.21875 46.484375 68.546875 
Q 53.21875 62.890625 53.21875 53.421875 
Q 53.21875 48.921875 51.53125 44.890625 
Q 49.859375 40.875 45.40625 35.40625 
Q 44.1875 33.984375 37.640625 27.21875 
Q 31.109375 20.453125 19.1875 8.296875 
z
" id="DejaVuSans-50"/>
       </defs>
       <use xlink:href="#DejaVuSans-50"/>
       <use x="63.623047" xlink:href="#DejaVuSans-48"/>
       <use x="127.246094" xlink:href="#DejaVuSans-48"/>
       <use x="190.869141" xlink:href="#DejaVuSans-48"/>
       <use x="254.492188" xlink:href="#DejaVuSans-48"/>
       <use x="318.115234" xlink:href="#DejaVuSans-48"/>
      </g>
     </g>
    </g>
   </g>
   <g id="matplotlib.axis_2">
    <g id="ytick_1">
     <g id="line2d_11">
      <path clip-path="url(#p7b74f119c2)" d="M 44.74 241.58175 
L 298.376364 241.58175 
" style="fill:none;stroke:#ffffff;stroke-linecap:square;stroke-width:0.8;"/>
     </g>
     <g id="line2d_12">
      <defs>
       <path d="M 0 0 
L -3.5 0 
" id="mb50199d58d" style="stroke:#555555;stroke-width:0.8;"/>
      </defs>
      <g>
       <use style="fill:#555555;stroke:#555555;stroke-width:0.8;" x="44.74" xlink:href="#mb50199d58d" y="241.58175"/>
      </g>
     </g>
     <g id="text_6">
      <!-- 0 -->
      <g style="fill:#555555;" transform="translate(30.105 246.140813)scale(0.12 -0.12)">
       <use xlink:href="#DejaVuSans-48"/>
      </g>
     </g>
    </g>
    <g id="ytick_2">
     <g id="line2d_13">
      <path clip-path="url(#p7b74f119c2)" d="M 44.74 206.152201 
L 298.376364 206.152201 
" style="fill:none;stroke:#ffffff;stroke-linecap:square;stroke-width:0.8;"/>
     </g>
     <g id="line2d_14">
      <g>
       <use style="fill:#555555;stroke:#555555;stroke-width:0.8;" x="44.74" xlink:href="#mb50199d58d" y="206.152201"/>
      </g>
     </g>
     <g id="text_7">
      <!-- 1000 -->
      <g style="fill:#555555;" transform="translate(7.2 210.711263)scale(0.12 -0.12)">
       <use xlink:href="#DejaVuSans-49"/>
       <use x="63.623047" xlink:href="#DejaVuSans-48"/>
       <use x="127.246094" xlink:href="#DejaVuSans-48"/>
       <use x="190.869141" xlink:href="#DejaVuSans-48"/>
      </g>
     </g>
    </g>
    <g id="ytick_3">
     <g id="line2d_15">
      <path clip-path="url(#p7b74f119c2)" d="M 44.74 170.722652 
L 298.376364 170.722652 
" style="fill:none;stroke:#ffffff;stroke-linecap:square;stroke-width:0.8;"/>
     </g>
     <g id="line2d_16">
      <g>
       <use style="fill:#555555;stroke:#555555;stroke-width:0.8;" x="44.74" xlink:href="#mb50199d58d" y="170.722652"/>
      </g>
     </g>
     <g id="text_8">
      <!-- 2000 -->
      <g style="fill:#555555;" transform="translate(7.2 175.281714)scale(0.12 -0.12)">
       <use xlink:href="#DejaVuSans-50"/>
       <use x="63.623047" xlink:href="#DejaVuSans-48"/>
       <use x="127.246094" xlink:href="#DejaVuSans-48"/>
       <use x="190.869141" xlink:href="#DejaVuSans-48"/>
      </g>
     </g>
    </g>
    <g id="ytick_4">
     <g id="line2d_17">
      <path clip-path="url(#p7b74f119c2)" d="M 44.74 135.293103 
L 298.376364 135.293103 
" style="fill:none;stroke:#ffffff;stroke-linecap:square;stroke-width:0.8;"/>
     </g>
     <g id="line2d_18">
      <g>
       <use style="fill:#555555;stroke:#555555;stroke-width:0.8;" x="44.74" xlink:href="#mb50199d58d" y="135.293103"/>
      </g>
     </g>
     <g id="text_9">
      <!-- 3000 -->
      <g style="fill:#555555;" transform="translate(7.2 139.852165)scale(0.12 -0.12)">
       <defs>
        <path d="M 40.578125 39.3125 
Q 47.65625 37.796875 51.625 33 
Q 55.609375 28.21875 55.609375 21.1875 
Q 55.609375 10.40625 48.1875 4.484375 
Q 40.765625 -1.421875 27.09375 -1.421875 
Q 22.515625 -1.421875 17.65625 -0.515625 
Q 12.796875 0.390625 7.625 2.203125 
L 7.625 11.71875 
Q 11.71875 9.328125 16.59375 8.109375 
Q 21.484375 6.890625 26.8125 6.890625 
Q 36.078125 6.890625 40.9375 10.546875 
Q 45.796875 14.203125 45.796875 21.1875 
Q 45.796875 27.640625 41.28125 31.265625 
Q 36.765625 34.90625 28.71875 34.90625 
L 20.21875 34.90625 
L 20.21875 43.015625 
L 29.109375 43.015625 
Q 36.375 43.015625 40.234375 45.921875 
Q 44.09375 48.828125 44.09375 54.296875 
Q 44.09375 59.90625 40.109375 62.90625 
Q 36.140625 65.921875 28.71875 65.921875 
Q 24.65625 65.921875 20.015625 65.03125 
Q 15.375 64.15625 9.8125 62.3125 
L 9.8125 71.09375 
Q 15.4375 72.65625 20.34375 73.4375 
Q 25.25 74.21875 29.59375 74.21875 
Q 40.828125 74.21875 47.359375 69.109375 
Q 53.90625 64.015625 53.90625 55.328125 
Q 53.90625 49.265625 50.4375 45.09375 
Q 46.96875 40.921875 40.578125 39.3125 
z
" id="DejaVuSans-51"/>
       </defs>
       <use xlink:href="#DejaVuSans-51"/>
       <use x="63.623047" xlink:href="#DejaVuSans-48"/>
       <use x="127.246094" xlink:href="#DejaVuSans-48"/>
       <use x="190.869141" xlink:href="#DejaVuSans-48"/>
      </g>
     </g>
    </g>
    <g id="ytick_5">
     <g id="line2d_19">
      <path clip-path="url(#p7b74f119c2)" d="M 44.74 99.863554 
L 298.376364 99.863554 
" style="fill:none;stroke:#ffffff;stroke-linecap:square;stroke-width:0.8;"/>
     </g>
     <g id="line2d_20">
      <g>
       <use style="fill:#555555;stroke:#555555;stroke-width:0.8;" x="44.74" xlink:href="#mb50199d58d" y="99.863554"/>
      </g>
     </g>
     <g id="text_10">
      <!-- 4000 -->
      <g style="fill:#555555;" transform="translate(7.2 104.422616)scale(0.12 -0.12)">
       <defs>
        <path d="M 37.796875 64.3125 
L 12.890625 25.390625 
L 37.796875 25.390625 
z
M 35.203125 72.90625 
L 47.609375 72.90625 
L 47.609375 25.390625 
L 58.015625 25.390625 
L 58.015625 17.1875 
L 47.609375 17.1875 
L 47.609375 0 
L 37.796875 0 
L 37.796875 17.1875 
L 4.890625 17.1875 
L 4.890625 26.703125 
z
" id="DejaVuSans-52"/>
       </defs>
       <use xlink:href="#DejaVuSans-52"/>
       <use x="63.623047" xlink:href="#DejaVuSans-48"/>
       <use x="127.246094" xlink:href="#DejaVuSans-48"/>
       <use x="190.869141" xlink:href="#DejaVuSans-48"/>
      </g>
     </g>
    </g>
    <g id="ytick_6">
     <g id="line2d_21">
      <path clip-path="url(#p7b74f119c2)" d="M 44.74 64.434005 
L 298.376364 64.434005 
" style="fill:none;stroke:#ffffff;stroke-linecap:square;stroke-width:0.8;"/>
     </g>
     <g id="line2d_22">
      <g>
       <use style="fill:#555555;stroke:#555555;stroke-width:0.8;" x="44.74" xlink:href="#mb50199d58d" y="64.434005"/>
      </g>
     </g>
     <g id="text_11">
      <!-- 5000 -->
      <g style="fill:#555555;" transform="translate(7.2 68.993067)scale(0.12 -0.12)">
       <use xlink:href="#DejaVuSans-53"/>
       <use x="63.623047" xlink:href="#DejaVuSans-48"/>
       <use x="127.246094" xlink:href="#DejaVuSans-48"/>
       <use x="190.869141" xlink:href="#DejaVuSans-48"/>
      </g>
     </g>
    </g>
    <g id="ytick_7">
     <g id="line2d_23">
      <path clip-path="url(#p7b74f119c2)" d="M 44.74 29.004456 
L 298.376364 29.004456 
" style="fill:none;stroke:#ffffff;stroke-linecap:square;stroke-width:0.8;"/>
     </g>
     <g id="line2d_24">
      <g>
       <use style="fill:#555555;stroke:#555555;stroke-width:0.8;" x="44.74" xlink:href="#mb50199d58d" y="29.004456"/>
      </g>
     </g>
     <g id="text_12">
      <!-- 6000 -->
      <g style="fill:#555555;" transform="translate(7.2 33.563518)scale(0.12 -0.12)">
       <defs>
        <path d="M 33.015625 40.375 
Q 26.375 40.375 22.484375 35.828125 
Q 18.609375 31.296875 18.609375 23.390625 
Q 18.609375 15.53125 22.484375 10.953125 
Q 26.375 6.390625 33.015625 6.390625 
Q 39.65625 6.390625 43.53125 10.953125 
Q 47.40625 15.53125 47.40625 23.390625 
Q 47.40625 31.296875 43.53125 35.828125 
Q 39.65625 40.375 33.015625 40.375 
z
M 52.59375 71.296875 
L 52.59375 62.3125 
Q 48.875 64.0625 45.09375 64.984375 
Q 41.3125 65.921875 37.59375 65.921875 
Q 27.828125 65.921875 22.671875 59.328125 
Q 17.53125 52.734375 16.796875 39.40625 
Q 19.671875 43.65625 24.015625 45.921875 
Q 28.375 48.1875 33.59375 48.1875 
Q 44.578125 48.1875 50.953125 41.515625 
Q 57.328125 34.859375 57.328125 23.390625 
Q 57.328125 12.15625 50.6875 5.359375 
Q 44.046875 -1.421875 33.015625 -1.421875 
Q 20.359375 -1.421875 13.671875 8.265625 
Q 6.984375 17.96875 6.984375 36.375 
Q 6.984375 53.65625 15.1875 63.9375 
Q 23.390625 74.21875 37.203125 74.21875 
Q 40.921875 74.21875 44.703125 73.484375 
Q 48.484375 72.75 52.59375 71.296875 
z
" id="DejaVuSans-54"/>
       </defs>
       <use xlink:href="#DejaVuSans-54"/>
       <use x="63.623047" xlink:href="#DejaVuSans-48"/>
       <use x="127.246094" xlink:href="#DejaVuSans-48"/>
       <use x="190.869141" xlink:href="#DejaVuSans-48"/>
      </g>
     </g>
    </g>
   </g>
   <g id="patch_3">
    <path clip-path="url(#p7b74f119c2)" d="M 56.268926 241.58175 
L 60.880496 241.58175 
L 60.880496 34.496036 
L 56.268926 34.496036 
z
" style="fill:#e24a33;"/>
   </g>
   <g id="patch_4">
    <path clip-path="url(#p7b74f119c2)" d="M 60.880496 241.58175 
L 65.492066 241.58175 
L 65.492066 214.513575 
L 60.880496 214.513575 
z
" style="fill:#e24a33;"/>
   </g>
   <g id="patch_5">
    <path clip-path="url(#p7b74f119c2)" d="M 65.492066 241.58175 
L 70.103636 241.58175 
L 70.103636 225.780171 
L 65.492066 225.780171 
z
" style="fill:#e24a33;"/>
   </g>
   <g id="patch_6">
    <path clip-path="url(#p7b74f119c2)" d="M 70.103636 241.58175 
L 74.715207 241.58175 
L 74.715207 230.811167 
L 70.103636 230.811167 
z
" style="fill:#e24a33;"/>
   </g>
   <g id="patch_7">
    <path clip-path="url(#p7b74f119c2)" d="M 74.715207 241.58175 
L 79.326777 241.58175 
L 79.326777 233.610101 
L 74.715207 233.610101 
z
" style="fill:#e24a33;"/>
   </g>
   <g id="patch_8">
    <path clip-path="url(#p7b74f119c2)" d="M 79.326777 241.58175 
L 83.938347 241.58175 
L 83.938347 234.956424 
L 79.326777 234.956424 
z
" style="fill:#e24a33;"/>
   </g>
   <g id="patch_9">
    <path clip-path="url(#p7b74f119c2)" d="M 83.938347 241.58175 
L 88.549917 241.58175 
L 88.549917 236.267318 
L 83.938347 236.267318 
z
" style="fill:#e24a33;"/>
   </g>
   <g id="patch_10">
    <path clip-path="url(#p7b74f119c2)" d="M 88.549917 241.58175 
L 93.161488 241.58175 
L 93.161488 237.188486 
L 88.549917 237.188486 
z
" style="fill:#e24a33;"/>
   </g>
   <g id="patch_11">
    <path clip-path="url(#p7b74f119c2)" d="M 93.161488 241.58175 
L 97.773058 241.58175 
L 97.773058 236.125599 
L 93.161488 236.125599 
z
" style="fill:#e24a33;"/>
   </g>
   <g id="patch_12">
    <path clip-path="url(#p7b74f119c2)" d="M 97.773058 241.58175 
L 102.384628 241.58175 
L 102.384628 237.365634 
L 97.773058 237.365634 
z
" style="fill:#e24a33;"/>
   </g>
   <g id="patch_13">
    <path clip-path="url(#p7b74f119c2)" d="M 102.384628 241.58175 
L 106.996198 241.58175 
L 106.996198 238.038795 
L 102.384628 238.038795 
z
" style="fill:#e24a33;"/>
   </g>
   <g id="patch_14">
    <path clip-path="url(#p7b74f119c2)" d="M 106.996198 241.58175 
L 111.607769 241.58175 
L 111.607769 238.46395 
L 106.996198 238.46395 
z
" style="fill:#e24a33;"/>
   </g>
   <g id="patch_15">
    <path clip-path="url(#p7b74f119c2)" d="M 111.607769 241.58175 
L 116.219339 241.58175 
L 116.219339 238.853675 
L 111.607769 238.853675 
z
" style="fill:#e24a33;"/>
   </g>
   <g id="patch_16">
    <path clip-path="url(#p7b74f119c2)" d="M 116.219339 241.58175 
L 120.830909 241.58175 
L 120.830909 238.924534 
L 116.219339 238.924534 
z
" style="fill:#e24a33;"/>
   </g>
   <g id="patch_17">
    <path clip-path="url(#p7b74f119c2)" d="M 120.830909 241.58175 
L 125.442479 241.58175 
L 125.442479 238.782816 
L 120.830909 238.782816 
z
" style="fill:#e24a33;"/>
   </g>
   <g id="patch_18">
    <path clip-path="url(#p7b74f119c2)" d="M 125.442479 241.58175 
L 130.05405 241.58175 
L 130.05405 238.924534 
L 125.442479 238.924534 
z
" style="fill:#e24a33;"/>
   </g>
   <g id="patch_19">
    <path clip-path="url(#p7b74f119c2)" d="M 130.05405 241.58175 
L 134.66562 241.58175 
L 134.66562 239.20797 
L 130.05405 239.20797 
z
" style="fill:#e24a33;"/>
   </g>
   <g id="patch_20">
    <path clip-path="url(#p7b74f119c2)" d="M 134.66562 241.58175 
L 139.27719 241.58175 
L 139.27719 239.916561 
L 134.66562 239.916561 
z
" style="fill:#e24a33;"/>
   </g>
   <g id="patch_21">
    <path clip-path="url(#p7b74f119c2)" d="M 139.27719 241.58175 
L 143.88876 241.58175 
L 143.88876 239.562266 
L 139.27719 239.562266 
z
" style="fill:#e24a33;"/>
   </g>
   <g id="patch_22">
    <path clip-path="url(#p7b74f119c2)" d="M 143.88876 241.58175 
L 148.500331 241.58175 
L 148.500331 239.491407 
L 143.88876 239.491407 
z
" style="fill:#e24a33;"/>
   </g>
   <g id="patch_23">
    <path clip-path="url(#p7b74f119c2)" d="M 148.500331 241.58175 
L 153.111901 241.58175 
L 153.111901 240.306286 
L 148.500331 240.306286 
z
" style="fill:#e24a33;"/>
   </g>
   <g id="patch_24">
    <path clip-path="url(#p7b74f119c2)" d="M 153.111901 241.58175 
L 157.723471 241.58175 
L 157.723471 239.562266 
L 153.111901 239.562266 
z
" style="fill:#e24a33;"/>
   </g>
   <g id="patch_25">
    <path clip-path="url(#p7b74f119c2)" d="M 157.723471 241.58175 
L 162.335041 241.58175 
L 162.335041 239.810273 
L 157.723471 239.810273 
z
" style="fill:#e24a33;"/>
   </g>
   <g id="patch_26">
    <path clip-path="url(#p7b74f119c2)" d="M 162.335041 241.58175 
L 166.946612 241.58175 
L 166.946612 240.518864 
L 162.335041 240.518864 
z
" style="fill:#e24a33;"/>
   </g>
   <g id="patch_27">
    <path clip-path="url(#p7b74f119c2)" d="M 166.946612 241.58175 
L 171.558182 241.58175 
L 171.558182 240.377145 
L 166.946612 240.377145 
z
" style="fill:#e24a33;"/>
   </g>
   <g id="patch_28">
    <path clip-path="url(#p7b74f119c2)" d="M 171.558182 241.58175 
L 176.169752 241.58175 
L 176.169752 240.341716 
L 171.558182 240.341716 
z
" style="fill:#e24a33;"/>
   </g>
   <g id="patch_29">
    <path clip-path="url(#p7b74f119c2)" d="M 176.169752 241.58175 
L 180.781322 241.58175 
L 180.781322 239.881132 
L 176.169752 239.881132 
z
" style="fill:#e24a33;"/>
   </g>
   <g id="patch_30">
    <path clip-path="url(#p7b74f119c2)" d="M 180.781322 241.58175 
L 185.392893 241.58175 
L 185.392893 239.951991 
L 180.781322 239.951991 
z
" style="fill:#e24a33;"/>
   </g>
   <g id="patch_31">
    <path clip-path="url(#p7b74f119c2)" d="M 185.392893 241.58175 
L 190.004463 241.58175 
L 190.004463 240.199998 
L 185.392893 240.199998 
z
" style="fill:#e24a33;"/>
   </g>
   <g id="patch_32">
    <path clip-path="url(#p7b74f119c2)" d="M 190.004463 241.58175 
L 194.616033 241.58175 
L 194.616033 240.058279 
L 190.004463 240.058279 
z
" style="fill:#e24a33;"/>
   </g>
   <g id="patch_33">
    <path clip-path="url(#p7b74f119c2)" d="M 194.616033 241.58175 
L 199.227603 241.58175 
L 199.227603 239.916561 
L 194.616033 239.916561 
z
" style="fill:#e24a33;"/>
   </g>
   <g id="patch_34">
    <path clip-path="url(#p7b74f119c2)" d="M 199.227603 241.58175 
L 203.839174 241.58175 
L 203.839174 240.164568 
L 199.227603 240.164568 
z
" style="fill:#e24a33;"/>
   </g>
   <g id="patch_35">
    <path clip-path="url(#p7b74f119c2)" d="M 203.839174 241.58175 
L 208.450744 241.58175 
L 208.450744 240.696011 
L 203.839174 240.696011 
z
" style="fill:#e24a33;"/>
   </g>
   <g id="patch_36">
    <path clip-path="url(#p7b74f119c2)" d="M 208.450744 241.58175 
L 213.062314 241.58175 
L 213.062314 240.377145 
L 208.450744 240.377145 
z
" style="fill:#e24a33;"/>
   </g>
   <g id="patch_37">
    <path clip-path="url(#p7b74f119c2)" d="M 213.062314 241.58175 
L 217.673884 241.58175 
L 217.673884 240.731441 
L 213.062314 240.731441 
z
" style="fill:#e24a33;"/>
   </g>
   <g id="patch_38">
    <path clip-path="url(#p7b74f119c2)" d="M 217.673884 241.58175 
L 222.285455 241.58175 
L 222.285455 240.235427 
L 217.673884 240.235427 
z
" style="fill:#e24a33;"/>
   </g>
   <g id="patch_39">
    <path clip-path="url(#p7b74f119c2)" d="M 222.285455 241.58175 
L 226.897025 241.58175 
L 226.897025 240.412575 
L 222.285455 240.412575 
z
" style="fill:#e24a33;"/>
   </g>
   <g id="patch_40">
    <path clip-path="url(#p7b74f119c2)" d="M 226.897025 241.58175 
L 231.508595 241.58175 
L 231.508595 240.377145 
L 226.897025 240.377145 
z
" style="fill:#e24a33;"/>
   </g>
   <g id="patch_41">
    <path clip-path="url(#p7b74f119c2)" d="M 231.508595 241.58175 
L 236.120165 241.58175 
L 236.120165 240.8023 
L 231.508595 240.8023 
z
" style="fill:#e24a33;"/>
   </g>
   <g id="patch_42">
    <path clip-path="url(#p7b74f119c2)" d="M 236.120165 241.58175 
L 240.731736 241.58175 
L 240.731736 240.8023 
L 236.120165 240.8023 
z
" style="fill:#e24a33;"/>
   </g>
   <g id="patch_43">
    <path clip-path="url(#p7b74f119c2)" d="M 240.731736 241.58175 
L 245.343306 241.58175 
L 245.343306 240.554293 
L 240.731736 240.554293 
z
" style="fill:#e24a33;"/>
   </g>
   <g id="patch_44">
    <path clip-path="url(#p7b74f119c2)" d="M 245.343306 241.58175 
L 249.954876 241.58175 
L 249.954876 240.731441 
L 245.343306 240.731441 
z
" style="fill:#e24a33;"/>
   </g>
   <g id="patch_45">
    <path clip-path="url(#p7b74f119c2)" d="M 249.954876 241.58175 
L 254.566446 241.58175 
L 254.566446 240.873159 
L 249.954876 240.873159 
z
" style="fill:#e24a33;"/>
   </g>
   <g id="patch_46">
    <path clip-path="url(#p7b74f119c2)" d="M 254.566446 241.58175 
L 259.178017 241.58175 
L 259.178017 240.8023 
L 254.566446 240.8023 
z
" style="fill:#e24a33;"/>
   </g>
   <g id="patch_47">
    <path clip-path="url(#p7b74f119c2)" d="M 259.178017 241.58175 
L 263.789587 241.58175 
L 263.789587 240.554293 
L 259.178017 240.554293 
z
" style="fill:#e24a33;"/>
   </g>
   <g id="patch_48">
    <path clip-path="url(#p7b74f119c2)" d="M 263.789587 241.58175 
L 268.401157 241.58175 
L 268.401157 240.944018 
L 263.789587 240.944018 
z
" style="fill:#e24a33;"/>
   </g>
   <g id="patch_49">
    <path clip-path="url(#p7b74f119c2)" d="M 268.401157 241.58175 
L 273.012727 241.58175 
L 273.012727 240.8023 
L 268.401157 240.8023 
z
" style="fill:#e24a33;"/>
   </g>
   <g id="patch_50">
    <path clip-path="url(#p7b74f119c2)" d="M 273.012727 241.58175 
L 277.624298 241.58175 
L 277.624298 241.192025 
L 273.012727 241.192025 
z
" style="fill:#e24a33;"/>
   </g>
   <g id="patch_51">
    <path clip-path="url(#p7b74f119c2)" d="M 277.624298 241.58175 
L 282.235868 241.58175 
L 282.235868 240.625152 
L 277.624298 240.625152 
z
" style="fill:#e24a33;"/>
   </g>
   <g id="patch_52">
    <path clip-path="url(#p7b74f119c2)" d="M 282.235868 241.58175 
L 286.847438 241.58175 
L 286.847438 240.908589 
L 282.235868 240.908589 
z
" style="fill:#e24a33;"/>
   </g>
   <g id="patch_53">
    <path d="M 44.74 241.58175 
L 44.74 24.14175 
" style="fill:none;stroke:#ffffff;stroke-linecap:square;stroke-linejoin:miter;"/>
   </g>
   <g id="patch_54">
    <path d="M 298.376364 241.58175 
L 298.376364 24.14175 
" style="fill:none;stroke:#ffffff;stroke-linecap:square;stroke-linejoin:miter;"/>
   </g>
   <g id="patch_55">
    <path d="M 44.74 241.58175 
L 298.376364 241.58175 
" style="fill:none;stroke:#ffffff;stroke-linecap:square;stroke-linejoin:miter;"/>
   </g>
   <g id="patch_56">
    <path d="M 44.74 24.14175 
L 298.376364 24.14175 
" style="fill:none;stroke:#ffffff;stroke-linecap:square;stroke-linejoin:miter;"/>
   </g>
   <g id="text_13">
    <!-- Reciprocal distribution (scale=1.0) -->
    <g transform="translate(47.083682 18.14175)scale(0.144 -0.144)">
     <defs>
      <path d="M 44.390625 34.1875 
Q 47.5625 33.109375 50.5625 29.59375 
Q 53.5625 26.078125 56.59375 19.921875 
L 66.609375 0 
L 56 0 
L 46.6875 18.703125 
Q 43.0625 26.03125 39.671875 28.421875 
Q 36.28125 30.8125 30.421875 30.8125 
L 19.671875 30.8125 
L 19.671875 0 
L 9.8125 0 
L 9.8125 72.90625 
L 32.078125 72.90625 
Q 44.578125 72.90625 50.734375 67.671875 
Q 56.890625 62.453125 56.890625 51.90625 
Q 56.890625 45.015625 53.6875 40.46875 
Q 50.484375 35.9375 44.390625 34.1875 
z
M 19.671875 64.796875 
L 19.671875 38.921875 
L 32.078125 38.921875 
Q 39.203125 38.921875 42.84375 42.21875 
Q 46.484375 45.515625 46.484375 51.90625 
Q 46.484375 58.296875 42.84375 61.546875 
Q 39.203125 64.796875 32.078125 64.796875 
z
" id="DejaVuSans-82"/>
      <path d="M 56.203125 29.59375 
L 56.203125 25.203125 
L 14.890625 25.203125 
Q 15.484375 15.921875 20.484375 11.0625 
Q 25.484375 6.203125 34.421875 6.203125 
Q 39.59375 6.203125 44.453125 7.46875 
Q 49.3125 8.734375 54.109375 11.28125 
L 54.109375 2.78125 
Q 49.265625 0.734375 44.1875 -0.34375 
Q 39.109375 -1.421875 33.890625 -1.421875 
Q 20.796875 -1.421875 13.15625 6.1875 
Q 5.515625 13.8125 5.515625 26.8125 
Q 5.515625 40.234375 12.765625 48.109375 
Q 20.015625 56 32.328125 56 
Q 43.359375 56 49.78125 48.890625 
Q 56.203125 41.796875 56.203125 29.59375 
z
M 47.21875 32.234375 
Q 47.125 39.59375 43.09375 43.984375 
Q 39.0625 48.390625 32.421875 48.390625 
Q 24.90625 48.390625 20.390625 44.140625 
Q 15.875 39.890625 15.1875 32.171875 
z
" id="DejaVuSans-101"/>
      <path d="M 48.78125 52.59375 
L 48.78125 44.1875 
Q 44.96875 46.296875 41.140625 47.34375 
Q 37.3125 48.390625 33.40625 48.390625 
Q 24.65625 48.390625 19.8125 42.84375 
Q 14.984375 37.3125 14.984375 27.296875 
Q 14.984375 17.28125 19.8125 11.734375 
Q 24.65625 6.203125 33.40625 6.203125 
Q 37.3125 6.203125 41.140625 7.25 
Q 44.96875 8.296875 48.78125 10.40625 
L 48.78125 2.09375 
Q 45.015625 0.34375 40.984375 -0.53125 
Q 36.96875 -1.421875 32.421875 -1.421875 
Q 20.0625 -1.421875 12.78125 6.34375 
Q 5.515625 14.109375 5.515625 27.296875 
Q 5.515625 40.671875 12.859375 48.328125 
Q 20.21875 56 33.015625 56 
Q 37.15625 56 41.109375 55.140625 
Q 45.0625 54.296875 48.78125 52.59375 
z
" id="DejaVuSans-99"/>
      <path d="M 9.421875 54.6875 
L 18.40625 54.6875 
L 18.40625 0 
L 9.421875 0 
z
M 9.421875 75.984375 
L 18.40625 75.984375 
L 18.40625 64.59375 
L 9.421875 64.59375 
z
" id="DejaVuSans-105"/>
      <path d="M 18.109375 8.203125 
L 18.109375 -20.796875 
L 9.078125 -20.796875 
L 9.078125 54.6875 
L 18.109375 54.6875 
L 18.109375 46.390625 
Q 20.953125 51.265625 25.265625 53.625 
Q 29.59375 56 35.59375 56 
Q 45.5625 56 51.78125 48.09375 
Q 58.015625 40.1875 58.015625 27.296875 
Q 58.015625 14.40625 51.78125 6.484375 
Q 45.5625 -1.421875 35.59375 -1.421875 
Q 29.59375 -1.421875 25.265625 0.953125 
Q 20.953125 3.328125 18.109375 8.203125 
z
M 48.6875 27.296875 
Q 48.6875 37.203125 44.609375 42.84375 
Q 40.53125 48.484375 33.40625 48.484375 
Q 26.265625 48.484375 22.1875 42.84375 
Q 18.109375 37.203125 18.109375 27.296875 
Q 18.109375 17.390625 22.1875 11.75 
Q 26.265625 6.109375 33.40625 6.109375 
Q 40.53125 6.109375 44.609375 11.75 
Q 48.6875 17.390625 48.6875 27.296875 
z
" id="DejaVuSans-112"/>
      <path d="M 41.109375 46.296875 
Q 39.59375 47.171875 37.8125 47.578125 
Q 36.03125 48 33.890625 48 
Q 26.265625 48 22.1875 43.046875 
Q 18.109375 38.09375 18.109375 28.8125 
L 18.109375 0 
L 9.078125 0 
L 9.078125 54.6875 
L 18.109375 54.6875 
L 18.109375 46.1875 
Q 20.953125 51.171875 25.484375 53.578125 
Q 30.03125 56 36.53125 56 
Q 37.453125 56 38.578125 55.875 
Q 39.703125 55.765625 41.0625 55.515625 
z
" id="DejaVuSans-114"/>
      <path d="M 30.609375 48.390625 
Q 23.390625 48.390625 19.1875 42.75 
Q 14.984375 37.109375 14.984375 27.296875 
Q 14.984375 17.484375 19.15625 11.84375 
Q 23.34375 6.203125 30.609375 6.203125 
Q 37.796875 6.203125 41.984375 11.859375 
Q 46.1875 17.53125 46.1875 27.296875 
Q 46.1875 37.015625 41.984375 42.703125 
Q 37.796875 48.390625 30.609375 48.390625 
z
M 30.609375 56 
Q 42.328125 56 49.015625 48.375 
Q 55.71875 40.765625 55.71875 27.296875 
Q 55.71875 13.875 49.015625 6.21875 
Q 42.328125 -1.421875 30.609375 -1.421875 
Q 18.84375 -1.421875 12.171875 6.21875 
Q 5.515625 13.875 5.515625 27.296875 
Q 5.515625 40.765625 12.171875 48.375 
Q 18.84375 56 30.609375 56 
z
" id="DejaVuSans-111"/>
      <path d="M 34.28125 27.484375 
Q 23.390625 27.484375 19.1875 25 
Q 14.984375 22.515625 14.984375 16.5 
Q 14.984375 11.71875 18.140625 8.90625 
Q 21.296875 6.109375 26.703125 6.109375 
Q 34.1875 6.109375 38.703125 11.40625 
Q 43.21875 16.703125 43.21875 25.484375 
L 43.21875 27.484375 
z
M 52.203125 31.203125 
L 52.203125 0 
L 43.21875 0 
L 43.21875 8.296875 
Q 40.140625 3.328125 35.546875 0.953125 
Q 30.953125 -1.421875 24.3125 -1.421875 
Q 15.921875 -1.421875 10.953125 3.296875 
Q 6 8.015625 6 15.921875 
Q 6 25.140625 12.171875 29.828125 
Q 18.359375 34.515625 30.609375 34.515625 
L 43.21875 34.515625 
L 43.21875 35.40625 
Q 43.21875 41.609375 39.140625 45 
Q 35.0625 48.390625 27.6875 48.390625 
Q 23 48.390625 18.546875 47.265625 
Q 14.109375 46.140625 10.015625 43.890625 
L 10.015625 52.203125 
Q 14.9375 54.109375 19.578125 55.046875 
Q 24.21875 56 28.609375 56 
Q 40.484375 56 46.34375 49.84375 
Q 52.203125 43.703125 52.203125 31.203125 
z
" id="DejaVuSans-97"/>
      <path d="M 9.421875 75.984375 
L 18.40625 75.984375 
L 18.40625 0 
L 9.421875 0 
z
" id="DejaVuSans-108"/>
      <path id="DejaVuSans-32"/>
      <path d="M 45.40625 46.390625 
L 45.40625 75.984375 
L 54.390625 75.984375 
L 54.390625 0 
L 45.40625 0 
L 45.40625 8.203125 
Q 42.578125 3.328125 38.25 0.953125 
Q 33.9375 -1.421875 27.875 -1.421875 
Q 17.96875 -1.421875 11.734375 6.484375 
Q 5.515625 14.40625 5.515625 27.296875 
Q 5.515625 40.1875 11.734375 48.09375 
Q 17.96875 56 27.875 56 
Q 33.9375 56 38.25 53.625 
Q 42.578125 51.265625 45.40625 46.390625 
z
M 14.796875 27.296875 
Q 14.796875 17.390625 18.875 11.75 
Q 22.953125 6.109375 30.078125 6.109375 
Q 37.203125 6.109375 41.296875 11.75 
Q 45.40625 17.390625 45.40625 27.296875 
Q 45.40625 37.203125 41.296875 42.84375 
Q 37.203125 48.484375 30.078125 48.484375 
Q 22.953125 48.484375 18.875 42.84375 
Q 14.796875 37.203125 14.796875 27.296875 
z
" id="DejaVuSans-100"/>
      <path d="M 44.28125 53.078125 
L 44.28125 44.578125 
Q 40.484375 46.53125 36.375 47.5 
Q 32.28125 48.484375 27.875 48.484375 
Q 21.1875 48.484375 17.84375 46.4375 
Q 14.5 44.390625 14.5 40.28125 
Q 14.5 37.15625 16.890625 35.375 
Q 19.28125 33.59375 26.515625 31.984375 
L 29.59375 31.296875 
Q 39.15625 29.25 43.1875 25.515625 
Q 47.21875 21.78125 47.21875 15.09375 
Q 47.21875 7.46875 41.1875 3.015625 
Q 35.15625 -1.421875 24.609375 -1.421875 
Q 20.21875 -1.421875 15.453125 -0.5625 
Q 10.6875 0.296875 5.421875 2 
L 5.421875 11.28125 
Q 10.40625 8.6875 15.234375 7.390625 
Q 20.0625 6.109375 24.8125 6.109375 
Q 31.15625 6.109375 34.5625 8.28125 
Q 37.984375 10.453125 37.984375 14.40625 
Q 37.984375 18.0625 35.515625 20.015625 
Q 33.0625 21.96875 24.703125 23.78125 
L 21.578125 24.515625 
Q 13.234375 26.265625 9.515625 29.90625 
Q 5.8125 33.546875 5.8125 39.890625 
Q 5.8125 47.609375 11.28125 51.796875 
Q 16.75 56 26.8125 56 
Q 31.78125 56 36.171875 55.265625 
Q 40.578125 54.546875 44.28125 53.078125 
z
" id="DejaVuSans-115"/>
      <path d="M 18.3125 70.21875 
L 18.3125 54.6875 
L 36.8125 54.6875 
L 36.8125 47.703125 
L 18.3125 47.703125 
L 18.3125 18.015625 
Q 18.3125 11.328125 20.140625 9.421875 
Q 21.96875 7.515625 27.59375 7.515625 
L 36.8125 7.515625 
L 36.8125 0 
L 27.59375 0 
Q 17.1875 0 13.234375 3.875 
Q 9.28125 7.765625 9.28125 18.015625 
L 9.28125 47.703125 
L 2.6875 47.703125 
L 2.6875 54.6875 
L 9.28125 54.6875 
L 9.28125 70.21875 
z
" id="DejaVuSans-116"/>
      <path d="M 48.6875 27.296875 
Q 48.6875 37.203125 44.609375 42.84375 
Q 40.53125 48.484375 33.40625 48.484375 
Q 26.265625 48.484375 22.1875 42.84375 
Q 18.109375 37.203125 18.109375 27.296875 
Q 18.109375 17.390625 22.1875 11.75 
Q 26.265625 6.109375 33.40625 6.109375 
Q 40.53125 6.109375 44.609375 11.75 
Q 48.6875 17.390625 48.6875 27.296875 
z
M 18.109375 46.390625 
Q 20.953125 51.265625 25.265625 53.625 
Q 29.59375 56 35.59375 56 
Q 45.5625 56 51.78125 48.09375 
Q 58.015625 40.1875 58.015625 27.296875 
Q 58.015625 14.40625 51.78125 6.484375 
Q 45.5625 -1.421875 35.59375 -1.421875 
Q 29.59375 -1.421875 25.265625 0.953125 
Q 20.953125 3.328125 18.109375 8.203125 
L 18.109375 0 
L 9.078125 0 
L 9.078125 75.984375 
L 18.109375 75.984375 
z
" id="DejaVuSans-98"/>
      <path d="M 8.5 21.578125 
L 8.5 54.6875 
L 17.484375 54.6875 
L 17.484375 21.921875 
Q 17.484375 14.15625 20.5 10.265625 
Q 23.53125 6.390625 29.59375 6.390625 
Q 36.859375 6.390625 41.078125 11.03125 
Q 45.3125 15.671875 45.3125 23.6875 
L 45.3125 54.6875 
L 54.296875 54.6875 
L 54.296875 0 
L 45.3125 0 
L 45.3125 8.40625 
Q 42.046875 3.421875 37.71875 1 
Q 33.40625 -1.421875 27.6875 -1.421875 
Q 18.265625 -1.421875 13.375 4.4375 
Q 8.5 10.296875 8.5 21.578125 
z
M 31.109375 56 
z
" id="DejaVuSans-117"/>
      <path d="M 54.890625 33.015625 
L 54.890625 0 
L 45.90625 0 
L 45.90625 32.71875 
Q 45.90625 40.484375 42.875 44.328125 
Q 39.84375 48.1875 33.796875 48.1875 
Q 26.515625 48.1875 22.3125 43.546875 
Q 18.109375 38.921875 18.109375 30.90625 
L 18.109375 0 
L 9.078125 0 
L 9.078125 54.6875 
L 18.109375 54.6875 
L 18.109375 46.1875 
Q 21.34375 51.125 25.703125 53.5625 
Q 30.078125 56 35.796875 56 
Q 45.21875 56 50.046875 50.171875 
Q 54.890625 44.34375 54.890625 33.015625 
z
" id="DejaVuSans-110"/>
      <path d="M 31 75.875 
Q 24.46875 64.65625 21.28125 53.65625 
Q 18.109375 42.671875 18.109375 31.390625 
Q 18.109375 20.125 21.3125 9.0625 
Q 24.515625 -2 31 -13.1875 
L 23.1875 -13.1875 
Q 15.875 -1.703125 12.234375 9.375 
Q 8.59375 20.453125 8.59375 31.390625 
Q 8.59375 42.28125 12.203125 53.3125 
Q 15.828125 64.359375 23.1875 75.875 
z
" id="DejaVuSans-40"/>
      <path d="M 10.59375 45.40625 
L 73.1875 45.40625 
L 73.1875 37.203125 
L 10.59375 37.203125 
z
M 10.59375 25.484375 
L 73.1875 25.484375 
L 73.1875 17.1875 
L 10.59375 17.1875 
z
" id="DejaVuSans-61"/>
      <path d="M 10.6875 12.40625 
L 21 12.40625 
L 21 0 
L 10.6875 0 
z
" id="DejaVuSans-46"/>
      <path d="M 8.015625 75.875 
L 15.828125 75.875 
Q 23.140625 64.359375 26.78125 53.3125 
Q 30.421875 42.28125 30.421875 31.390625 
Q 30.421875 20.453125 26.78125 9.375 
Q 23.140625 -1.703125 15.828125 -13.1875 
L 8.015625 -13.1875 
Q 14.5 -2 17.703125 9.0625 
Q 20.90625 20.125 20.90625 31.390625 
Q 20.90625 42.671875 17.703125 53.65625 
Q 14.5 64.65625 8.015625 75.875 
z
" id="DejaVuSans-41"/>
     </defs>
     <use xlink:href="#DejaVuSans-82"/>
     <use x="64.982422" xlink:href="#DejaVuSans-101"/>
     <use x="126.505859" xlink:href="#DejaVuSans-99"/>
     <use x="181.486328" xlink:href="#DejaVuSans-105"/>
     <use x="209.269531" xlink:href="#DejaVuSans-112"/>
     <use x="272.746094" xlink:href="#DejaVuSans-114"/>
     <use x="311.609375" xlink:href="#DejaVuSans-111"/>
     <use x="372.791016" xlink:href="#DejaVuSans-99"/>
     <use x="427.771484" xlink:href="#DejaVuSans-97"/>
     <use x="489.050781" xlink:href="#DejaVuSans-108"/>
     <use x="516.833984" xlink:href="#DejaVuSans-32"/>
     <use x="548.621094" xlink:href="#DejaVuSans-100"/>
     <use x="612.097656" xlink:href="#DejaVuSans-105"/>
     <use x="639.880859" xlink:href="#DejaVuSans-115"/>
     <use x="691.980469" xlink:href="#DejaVuSans-116"/>
     <use x="731.189453" xlink:href="#DejaVuSans-114"/>
     <use x="772.302734" xlink:href="#DejaVuSans-105"/>
     <use x="800.085938" xlink:href="#DejaVuSans-98"/>
     <use x="863.5625" xlink:href="#DejaVuSans-117"/>
     <use x="926.941406" xlink:href="#DejaVuSans-116"/>
     <use x="966.150391" xlink:href="#DejaVuSans-105"/>
     <use x="993.933594" xlink:href="#DejaVuSans-111"/>
     <use x="1055.115234" xlink:href="#DejaVuSans-110"/>
     <use x="1118.494141" xlink:href="#DejaVuSans-32"/>
     <use x="1150.28125" xlink:href="#DejaVuSans-40"/>
     <use x="1189.294922" xlink:href="#DejaVuSans-115"/>
     <use x="1241.394531" xlink:href="#DejaVuSans-99"/>
     <use x="1296.375" xlink:href="#DejaVuSans-97"/>
     <use x="1357.654297" xlink:href="#DejaVuSans-108"/>
     <use x="1385.4375" xlink:href="#DejaVuSans-101"/>
     <use x="1446.960938" xlink:href="#DejaVuSans-61"/>
     <use x="1530.75" xlink:href="#DejaVuSans-49"/>
     <use x="1594.373047" xlink:href="#DejaVuSans-46"/>
     <use x="1626.160156" xlink:href="#DejaVuSans-48"/>
     <use x="1689.783203" xlink:href="#DejaVuSans-41"/>
    </g>
   </g>
  </g>
  <g id="axes_2">
   <g id="patch_57">
    <path d="M 349.103636 241.58175 
L 602.74 241.58175 
L 602.74 24.14175 
L 349.103636 24.14175 
z
" style="fill:#e5e5e5;"/>
   </g>
   <g id="matplotlib.axis_3">
    <g id="xtick_6">
     <g id="line2d_25">
      <path clip-path="url(#p541b7fba7b)" d="M 385.778857 241.58175 
L 385.778857 24.14175 
" style="fill:none;stroke:#ffffff;stroke-linecap:square;stroke-width:0.8;"/>
     </g>
     <g id="line2d_26">
      <g>
       <use style="fill:#555555;stroke:#555555;stroke-width:0.8;" x="385.778857" xlink:href="#macde3f4368" y="241.58175"/>
      </g>
     </g>
     <g id="text_14">
      <!-- 4 -->
      <g style="fill:#555555;" transform="translate(381.961357 257.699875)scale(0.12 -0.12)">
       <use xlink:href="#DejaVuSans-52"/>
      </g>
     </g>
    </g>
    <g id="xtick_7">
     <g id="line2d_27">
      <path clip-path="url(#p541b7fba7b)" d="M 435.863067 241.58175 
L 435.863067 24.14175 
" style="fill:none;stroke:#ffffff;stroke-linecap:square;stroke-width:0.8;"/>
     </g>
     <g id="line2d_28">
      <g>
       <use style="fill:#555555;stroke:#555555;stroke-width:0.8;" x="435.863067" xlink:href="#macde3f4368" y="241.58175"/>
      </g>
     </g>
     <g id="text_15">
      <!-- 6 -->
      <g style="fill:#555555;" transform="translate(432.045567 257.699875)scale(0.12 -0.12)">
       <use xlink:href="#DejaVuSans-54"/>
      </g>
     </g>
    </g>
    <g id="xtick_8">
     <g id="line2d_29">
      <path clip-path="url(#p541b7fba7b)" d="M 485.947278 241.58175 
L 485.947278 24.14175 
" style="fill:none;stroke:#ffffff;stroke-linecap:square;stroke-width:0.8;"/>
     </g>
     <g id="line2d_30">
      <g>
       <use style="fill:#555555;stroke:#555555;stroke-width:0.8;" x="485.947278" xlink:href="#macde3f4368" y="241.58175"/>
      </g>
     </g>
     <g id="text_16">
      <!-- 8 -->
      <g style="fill:#555555;" transform="translate(482.129778 257.699875)scale(0.12 -0.12)">
       <defs>
        <path d="M 31.78125 34.625 
Q 24.75 34.625 20.71875 30.859375 
Q 16.703125 27.09375 16.703125 20.515625 
Q 16.703125 13.921875 20.71875 10.15625 
Q 24.75 6.390625 31.78125 6.390625 
Q 38.8125 6.390625 42.859375 10.171875 
Q 46.921875 13.96875 46.921875 20.515625 
Q 46.921875 27.09375 42.890625 30.859375 
Q 38.875 34.625 31.78125 34.625 
z
M 21.921875 38.8125 
Q 15.578125 40.375 12.03125 44.71875 
Q 8.5 49.078125 8.5 55.328125 
Q 8.5 64.0625 14.71875 69.140625 
Q 20.953125 74.21875 31.78125 74.21875 
Q 42.671875 74.21875 48.875 69.140625 
Q 55.078125 64.0625 55.078125 55.328125 
Q 55.078125 49.078125 51.53125 44.71875 
Q 48 40.375 41.703125 38.8125 
Q 48.828125 37.15625 52.796875 32.3125 
Q 56.78125 27.484375 56.78125 20.515625 
Q 56.78125 9.90625 50.3125 4.234375 
Q 43.84375 -1.421875 31.78125 -1.421875 
Q 19.734375 -1.421875 13.25 4.234375 
Q 6.78125 9.90625 6.78125 20.515625 
Q 6.78125 27.484375 10.78125 32.3125 
Q 14.796875 37.15625 21.921875 38.8125 
z
M 18.3125 54.390625 
Q 18.3125 48.734375 21.84375 45.5625 
Q 25.390625 42.390625 31.78125 42.390625 
Q 38.140625 42.390625 41.71875 45.5625 
Q 45.3125 48.734375 45.3125 54.390625 
Q 45.3125 60.0625 41.71875 63.234375 
Q 38.140625 66.40625 31.78125 66.40625 
Q 25.390625 66.40625 21.84375 63.234375 
Q 18.3125 60.0625 18.3125 54.390625 
z
" id="DejaVuSans-56"/>
       </defs>
       <use xlink:href="#DejaVuSans-56"/>
      </g>
     </g>
    </g>
    <g id="xtick_9">
     <g id="line2d_31">
      <path clip-path="url(#p541b7fba7b)" d="M 536.031488 241.58175 
L 536.031488 24.14175 
" style="fill:none;stroke:#ffffff;stroke-linecap:square;stroke-width:0.8;"/>
     </g>
     <g id="line2d_32">
      <g>
       <use style="fill:#555555;stroke:#555555;stroke-width:0.8;" x="536.031488" xlink:href="#macde3f4368" y="241.58175"/>
      </g>
     </g>
     <g id="text_17">
      <!-- 10 -->
      <g style="fill:#555555;" transform="translate(528.396488 257.699875)scale(0.12 -0.12)">
       <use xlink:href="#DejaVuSans-49"/>
       <use x="63.623047" xlink:href="#DejaVuSans-48"/>
      </g>
     </g>
    </g>
    <g id="xtick_10">
     <g id="line2d_33">
      <path clip-path="url(#p541b7fba7b)" d="M 586.115699 241.58175 
L 586.115699 24.14175 
" style="fill:none;stroke:#ffffff;stroke-linecap:square;stroke-width:0.8;"/>
     </g>
     <g id="line2d_34">
      <g>
       <use style="fill:#555555;stroke:#555555;stroke-width:0.8;" x="586.115699" xlink:href="#macde3f4368" y="241.58175"/>
      </g>
     </g>
     <g id="text_18">
      <!-- 12 -->
      <g style="fill:#555555;" transform="translate(578.480699 257.699875)scale(0.12 -0.12)">
       <use xlink:href="#DejaVuSans-49"/>
       <use x="63.623047" xlink:href="#DejaVuSans-50"/>
      </g>
     </g>
    </g>
   </g>
   <g id="matplotlib.axis_4">
    <g id="ytick_8">
     <g id="line2d_35">
      <path clip-path="url(#p541b7fba7b)" d="M 349.103636 241.58175 
L 602.74 241.58175 
" style="fill:none;stroke:#ffffff;stroke-linecap:square;stroke-width:0.8;"/>
     </g>
     <g id="line2d_36">
      <g>
       <use style="fill:#555555;stroke:#555555;stroke-width:0.8;" x="349.103636" xlink:href="#mb50199d58d" y="241.58175"/>
      </g>
     </g>
     <g id="text_19">
      <!-- 0 -->
      <g style="fill:#555555;" transform="translate(334.468636 246.140813)scale(0.12 -0.12)">
       <use xlink:href="#DejaVuSans-48"/>
      </g>
     </g>
    </g>
    <g id="ytick_9">
     <g id="line2d_37">
      <path clip-path="url(#p541b7fba7b)" d="M 349.103636 197.52096 
L 602.74 197.52096 
" style="fill:none;stroke:#ffffff;stroke-linecap:square;stroke-width:0.8;"/>
     </g>
     <g id="line2d_38">
      <g>
       <use style="fill:#555555;stroke:#555555;stroke-width:0.8;" x="349.103636" xlink:href="#mb50199d58d" y="197.52096"/>
      </g>
     </g>
     <g id="text_20">
      <!-- 50 -->
      <g style="fill:#555555;" transform="translate(326.833636 202.080022)scale(0.12 -0.12)">
       <use xlink:href="#DejaVuSans-53"/>
       <use x="63.623047" xlink:href="#DejaVuSans-48"/>
      </g>
     </g>
    </g>
    <g id="ytick_10">
     <g id="line2d_39">
      <path clip-path="url(#p541b7fba7b)" d="M 349.103636 153.460169 
L 602.74 153.460169 
" style="fill:none;stroke:#ffffff;stroke-linecap:square;stroke-width:0.8;"/>
     </g>
     <g id="line2d_40">
      <g>
       <use style="fill:#555555;stroke:#555555;stroke-width:0.8;" x="349.103636" xlink:href="#mb50199d58d" y="153.460169"/>
      </g>
     </g>
     <g id="text_21">
      <!-- 100 -->
      <g style="fill:#555555;" transform="translate(319.198636 158.019232)scale(0.12 -0.12)">
       <use xlink:href="#DejaVuSans-49"/>
       <use x="63.623047" xlink:href="#DejaVuSans-48"/>
       <use x="127.246094" xlink:href="#DejaVuSans-48"/>
      </g>
     </g>
    </g>
    <g id="ytick_11">
     <g id="line2d_41">
      <path clip-path="url(#p541b7fba7b)" d="M 349.103636 109.399379 
L 602.74 109.399379 
" style="fill:none;stroke:#ffffff;stroke-linecap:square;stroke-width:0.8;"/>
     </g>
     <g id="line2d_42">
      <g>
       <use style="fill:#555555;stroke:#555555;stroke-width:0.8;" x="349.103636" xlink:href="#mb50199d58d" y="109.399379"/>
      </g>
     </g>
     <g id="text_22">
      <!-- 150 -->
      <g style="fill:#555555;" transform="translate(319.198636 113.958442)scale(0.12 -0.12)">
       <use xlink:href="#DejaVuSans-49"/>
       <use x="63.623047" xlink:href="#DejaVuSans-53"/>
       <use x="127.246094" xlink:href="#DejaVuSans-48"/>
      </g>
     </g>
    </g>
    <g id="ytick_12">
     <g id="line2d_43">
      <path clip-path="url(#p541b7fba7b)" d="M 349.103636 65.338589 
L 602.74 65.338589 
" style="fill:none;stroke:#ffffff;stroke-linecap:square;stroke-width:0.8;"/>
     </g>
     <g id="line2d_44">
      <g>
       <use style="fill:#555555;stroke:#555555;stroke-width:0.8;" x="349.103636" xlink:href="#mb50199d58d" y="65.338589"/>
      </g>
     </g>
     <g id="text_23">
      <!-- 200 -->
      <g style="fill:#555555;" transform="translate(319.198636 69.897651)scale(0.12 -0.12)">
       <use xlink:href="#DejaVuSans-50"/>
       <use x="63.623047" xlink:href="#DejaVuSans-48"/>
       <use x="127.246094" xlink:href="#DejaVuSans-48"/>
      </g>
     </g>
    </g>
   </g>
   <g id="patch_58">
    <path clip-path="url(#p541b7fba7b)" d="M 360.632562 241.58175 
L 365.244132 241.58175 
L 365.244132 67.982236 
L 360.632562 67.982236 
z
" style="fill:#e24a33;"/>
   </g>
   <g id="patch_59">
    <path clip-path="url(#p541b7fba7b)" d="M 365.244132 241.58175 
L 369.855702 241.58175 
L 369.855702 64.457373 
L 365.244132 64.457373 
z
" style="fill:#e24a33;"/>
   </g>
   <g id="patch_60">
    <path clip-path="url(#p541b7fba7b)" d="M 369.855702 241.58175 
L 374.467273 241.58175 
L 374.467273 57.407647 
L 369.855702 57.407647 
z
" style="fill:#e24a33;"/>
   </g>
   <g id="patch_61">
    <path clip-path="url(#p541b7fba7b)" d="M 374.467273 241.58175 
L 379.078843 241.58175 
L 379.078843 45.070625 
L 374.467273 45.070625 
z
" style="fill:#e24a33;"/>
   </g>
   <g id="patch_62">
    <path clip-path="url(#p541b7fba7b)" d="M 379.078843 241.58175 
L 383.690413 241.58175 
L 383.690413 64.457373 
L 379.078843 64.457373 
z
" style="fill:#e24a33;"/>
   </g>
   <g id="patch_63">
    <path clip-path="url(#p541b7fba7b)" d="M 383.690413 241.58175 
L 388.301983 241.58175 
L 388.301983 65.338589 
L 383.690413 65.338589 
z
" style="fill:#e24a33;"/>
   </g>
   <g id="patch_64">
    <path clip-path="url(#p541b7fba7b)" d="M 388.301983 241.58175 
L 392.913554 241.58175 
L 392.913554 53.001568 
L 388.301983 53.001568 
z
" style="fill:#e24a33;"/>
   </g>
   <g id="patch_65">
    <path clip-path="url(#p541b7fba7b)" d="M 392.913554 241.58175 
L 397.525124 241.58175 
L 397.525124 82.081689 
L 392.913554 82.081689 
z
" style="fill:#e24a33;"/>
   </g>
   <g id="patch_66">
    <path clip-path="url(#p541b7fba7b)" d="M 397.525124 241.58175 
L 402.136694 241.58175 
L 402.136694 53.882783 
L 397.525124 53.882783 
z
" style="fill:#e24a33;"/>
   </g>
   <g id="patch_67">
    <path clip-path="url(#p541b7fba7b)" d="M 402.136694 241.58175 
L 406.748264 241.58175 
L 406.748264 61.813726 
L 402.136694 61.813726 
z
" style="fill:#e24a33;"/>
   </g>
   <g id="patch_68">
    <path clip-path="url(#p541b7fba7b)" d="M 406.748264 241.58175 
L 411.359835 241.58175 
L 411.359835 68.863452 
L 406.748264 68.863452 
z
" style="fill:#e24a33;"/>
   </g>
   <g id="patch_69">
    <path clip-path="url(#p541b7fba7b)" d="M 411.359835 241.58175 
L 415.971405 241.58175 
L 415.971405 69.744668 
L 411.359835 69.744668 
z
" style="fill:#e24a33;"/>
   </g>
   <g id="patch_70">
    <path clip-path="url(#p541b7fba7b)" d="M 415.971405 241.58175 
L 420.582975 241.58175 
L 420.582975 45.951841 
L 415.971405 45.951841 
z
" style="fill:#e24a33;"/>
   </g>
   <g id="patch_71">
    <path clip-path="url(#p541b7fba7b)" d="M 420.582975 241.58175 
L 425.194545 241.58175 
L 425.194545 67.101021 
L 420.582975 67.101021 
z
" style="fill:#e24a33;"/>
   </g>
   <g id="patch_72">
    <path clip-path="url(#p541b7fba7b)" d="M 425.194545 241.58175 
L 429.806116 241.58175 
L 429.806116 67.982236 
L 425.194545 67.982236 
z
" style="fill:#e24a33;"/>
   </g>
   <g id="patch_73">
    <path clip-path="url(#p541b7fba7b)" d="M 429.806116 241.58175 
L 434.417686 241.58175 
L 434.417686 70.625884 
L 429.806116 70.625884 
z
" style="fill:#e24a33;"/>
   </g>
   <g id="patch_74">
    <path clip-path="url(#p541b7fba7b)" d="M 434.417686 241.58175 
L 439.029256 241.58175 
L 439.029256 61.813726 
L 434.417686 61.813726 
z
" style="fill:#e24a33;"/>
   </g>
   <g id="patch_75">
    <path clip-path="url(#p541b7fba7b)" d="M 439.029256 241.58175 
L 443.640826 241.58175 
L 443.640826 56.526431 
L 439.029256 56.526431 
z
" style="fill:#e24a33;"/>
   </g>
   <g id="patch_76">
    <path clip-path="url(#p541b7fba7b)" d="M 443.640826 241.58175 
L 448.252397 241.58175 
L 448.252397 74.150747 
L 443.640826 74.150747 
z
" style="fill:#e24a33;"/>
   </g>
   <g id="patch_77">
    <path clip-path="url(#p541b7fba7b)" d="M 448.252397 241.58175 
L 452.863967 241.58175 
L 452.863967 58.288862 
L 448.252397 58.288862 
z
" style="fill:#e24a33;"/>
   </g>
   <g id="patch_78">
    <path clip-path="url(#p541b7fba7b)" d="M 452.863967 241.58175 
L 457.475537 241.58175 
L 457.475537 40.664546 
L 452.863967 40.664546 
z
" style="fill:#e24a33;"/>
   </g>
   <g id="patch_79">
    <path clip-path="url(#p541b7fba7b)" d="M 457.475537 241.58175 
L 462.087107 241.58175 
L 462.087107 71.5071 
L 457.475537 71.5071 
z
" style="fill:#e24a33;"/>
   </g>
   <g id="patch_80">
    <path clip-path="url(#p541b7fba7b)" d="M 462.087107 241.58175 
L 466.698678 241.58175 
L 466.698678 55.645215 
L 462.087107 55.645215 
z
" style="fill:#e24a33;"/>
   </g>
   <g id="patch_81">
    <path clip-path="url(#p541b7fba7b)" d="M 466.698678 241.58175 
L 471.310248 241.58175 
L 471.310248 89.131416 
L 466.698678 89.131416 
z
" style="fill:#e24a33;"/>
   </g>
   <g id="patch_82">
    <path clip-path="url(#p541b7fba7b)" d="M 471.310248 241.58175 
L 475.921818 241.58175 
L 475.921818 53.882783 
L 471.310248 53.882783 
z
" style="fill:#e24a33;"/>
   </g>
   <g id="patch_83">
    <path clip-path="url(#p541b7fba7b)" d="M 475.921818 241.58175 
L 480.533388 241.58175 
L 480.533388 34.496036 
L 475.921818 34.496036 
z
" style="fill:#e24a33;"/>
   </g>
   <g id="patch_84">
    <path clip-path="url(#p541b7fba7b)" d="M 480.533388 241.58175 
L 485.144959 241.58175 
L 485.144959 83.844121 
L 480.533388 83.844121 
z
" style="fill:#e24a33;"/>
   </g>
   <g id="patch_85">
    <path clip-path="url(#p541b7fba7b)" d="M 485.144959 241.58175 
L 489.756529 241.58175 
L 489.756529 56.526431 
L 485.144959 56.526431 
z
" style="fill:#e24a33;"/>
   </g>
   <g id="patch_86">
    <path clip-path="url(#p541b7fba7b)" d="M 489.756529 241.58175 
L 494.368099 241.58175 
L 494.368099 64.457373 
L 489.756529 64.457373 
z
" style="fill:#e24a33;"/>
   </g>
   <g id="patch_87">
    <path clip-path="url(#p541b7fba7b)" d="M 494.368099 241.58175 
L 498.979669 241.58175 
L 498.979669 58.288862 
L 494.368099 58.288862 
z
" style="fill:#e24a33;"/>
   </g>
   <g id="patch_88">
    <path clip-path="url(#p541b7fba7b)" d="M 498.979669 241.58175 
L 503.59124 241.58175 
L 503.59124 69.744668 
L 498.979669 69.744668 
z
" style="fill:#e24a33;"/>
   </g>
   <g id="patch_89">
    <path clip-path="url(#p541b7fba7b)" d="M 503.59124 241.58175 
L 508.20281 241.58175 
L 508.20281 71.5071 
L 503.59124 71.5071 
z
" style="fill:#e24a33;"/>
   </g>
   <g id="patch_90">
    <path clip-path="url(#p541b7fba7b)" d="M 508.20281 241.58175 
L 512.81438 241.58175 
L 512.81438 64.457373 
L 508.20281 64.457373 
z
" style="fill:#e24a33;"/>
   </g>
   <g id="patch_91">
    <path clip-path="url(#p541b7fba7b)" d="M 512.81438 241.58175 
L 517.42595 241.58175 
L 517.42595 46.833057 
L 512.81438 46.833057 
z
" style="fill:#e24a33;"/>
   </g>
   <g id="patch_92">
    <path clip-path="url(#p541b7fba7b)" d="M 517.42595 241.58175 
L 522.037521 241.58175 
L 522.037521 69.744668 
L 517.42595 69.744668 
z
" style="fill:#e24a33;"/>
   </g>
   <g id="patch_93">
    <path clip-path="url(#p541b7fba7b)" d="M 522.037521 241.58175 
L 526.649091 241.58175 
L 526.649091 75.031963 
L 522.037521 75.031963 
z
" style="fill:#e24a33;"/>
   </g>
   <g id="patch_94">
    <path clip-path="url(#p541b7fba7b)" d="M 526.649091 241.58175 
L 531.260661 241.58175 
L 531.260661 67.982236 
L 526.649091 67.982236 
z
" style="fill:#e24a33;"/>
   </g>
   <g id="patch_95">
    <path clip-path="url(#p541b7fba7b)" d="M 531.260661 241.58175 
L 535.872231 241.58175 
L 535.872231 89.131416 
L 531.260661 89.131416 
z
" style="fill:#e24a33;"/>
   </g>
   <g id="patch_96">
    <path clip-path="url(#p541b7fba7b)" d="M 535.872231 241.58175 
L 540.483802 241.58175 
L 540.483802 79.438042 
L 535.872231 79.438042 
z
" style="fill:#e24a33;"/>
   </g>
   <g id="patch_97">
    <path clip-path="url(#p541b7fba7b)" d="M 540.483802 241.58175 
L 545.095372 241.58175 
L 545.095372 83.844121 
L 540.483802 83.844121 
z
" style="fill:#e24a33;"/>
   </g>
   <g id="patch_98">
    <path clip-path="url(#p541b7fba7b)" d="M 545.095372 241.58175 
L 549.706942 241.58175 
L 549.706942 42.426978 
L 545.095372 42.426978 
z
" style="fill:#e24a33;"/>
   </g>
   <g id="patch_99">
    <path clip-path="url(#p541b7fba7b)" d="M 549.706942 241.58175 
L 554.318512 241.58175 
L 554.318512 67.982236 
L 549.706942 67.982236 
z
" style="fill:#e24a33;"/>
   </g>
   <g id="patch_100">
    <path clip-path="url(#p541b7fba7b)" d="M 554.318512 241.58175 
L 558.930083 241.58175 
L 558.930083 77.67561 
L 554.318512 77.67561 
z
" style="fill:#e24a33;"/>
   </g>
   <g id="patch_101">
    <path clip-path="url(#p541b7fba7b)" d="M 558.930083 241.58175 
L 563.541653 241.58175 
L 563.541653 57.407647 
L 558.930083 57.407647 
z
" style="fill:#e24a33;"/>
   </g>
   <g id="patch_102">
    <path clip-path="url(#p541b7fba7b)" d="M 563.541653 241.58175 
L 568.153223 241.58175 
L 568.153223 79.438042 
L 563.541653 79.438042 
z
" style="fill:#e24a33;"/>
   </g>
   <g id="patch_103">
    <path clip-path="url(#p541b7fba7b)" d="M 568.153223 241.58175 
L 572.764793 241.58175 
L 572.764793 88.2502 
L 568.153223 88.2502 
z
" style="fill:#e24a33;"/>
   </g>
   <g id="patch_104">
    <path clip-path="url(#p541b7fba7b)" d="M 572.764793 241.58175 
L 577.376364 241.58175 
L 577.376364 67.101021 
L 572.764793 67.101021 
z
" style="fill:#e24a33;"/>
   </g>
   <g id="patch_105">
    <path clip-path="url(#p541b7fba7b)" d="M 577.376364 241.58175 
L 581.987934 241.58175 
L 581.987934 56.526431 
L 577.376364 56.526431 
z
" style="fill:#e24a33;"/>
   </g>
   <g id="patch_106">
    <path clip-path="url(#p541b7fba7b)" d="M 581.987934 241.58175 
L 586.599504 241.58175 
L 586.599504 65.338589 
L 581.987934 65.338589 
z
" style="fill:#e24a33;"/>
   </g>
   <g id="patch_107">
    <path clip-path="url(#p541b7fba7b)" d="M 586.599504 241.58175 
L 591.211074 241.58175 
L 591.211074 82.081689 
L 586.599504 82.081689 
z
" style="fill:#e24a33;"/>
   </g>
   <g id="patch_108">
    <path d="M 349.103636 241.58175 
L 349.103636 24.14175 
" style="fill:none;stroke:#ffffff;stroke-linecap:square;stroke-linejoin:miter;"/>
   </g>
   <g id="patch_109">
    <path d="M 602.74 241.58175 
L 602.74 24.14175 
" style="fill:none;stroke:#ffffff;stroke-linecap:square;stroke-linejoin:miter;"/>
   </g>
   <g id="patch_110">
    <path d="M 349.103636 241.58175 
L 602.74 241.58175 
" style="fill:none;stroke:#ffffff;stroke-linecap:square;stroke-linejoin:miter;"/>
   </g>
   <g id="patch_111">
    <path d="M 349.103636 24.14175 
L 602.74 24.14175 
" style="fill:none;stroke:#ffffff;stroke-linecap:square;stroke-linejoin:miter;"/>
   </g>
   <g id="text_24">
    <!-- Log of this distribution -->
    <g transform="translate(395.088318 18.14175)scale(0.144 -0.144)">
     <defs>
      <path d="M 9.8125 72.90625 
L 19.671875 72.90625 
L 19.671875 8.296875 
L 55.171875 8.296875 
L 55.171875 0 
L 9.8125 0 
z
" id="DejaVuSans-76"/>
      <path d="M 45.40625 27.984375 
Q 45.40625 37.75 41.375 43.109375 
Q 37.359375 48.484375 30.078125 48.484375 
Q 22.859375 48.484375 18.828125 43.109375 
Q 14.796875 37.75 14.796875 27.984375 
Q 14.796875 18.265625 18.828125 12.890625 
Q 22.859375 7.515625 30.078125 7.515625 
Q 37.359375 7.515625 41.375 12.890625 
Q 45.40625 18.265625 45.40625 27.984375 
z
M 54.390625 6.78125 
Q 54.390625 -7.171875 48.1875 -13.984375 
Q 42 -20.796875 29.203125 -20.796875 
Q 24.46875 -20.796875 20.265625 -20.09375 
Q 16.0625 -19.390625 12.109375 -17.921875 
L 12.109375 -9.1875 
Q 16.0625 -11.328125 19.921875 -12.34375 
Q 23.78125 -13.375 27.78125 -13.375 
Q 36.625 -13.375 41.015625 -8.765625 
Q 45.40625 -4.15625 45.40625 5.171875 
L 45.40625 9.625 
Q 42.625 4.78125 38.28125 2.390625 
Q 33.9375 0 27.875 0 
Q 17.828125 0 11.671875 7.65625 
Q 5.515625 15.328125 5.515625 27.984375 
Q 5.515625 40.671875 11.671875 48.328125 
Q 17.828125 56 27.875 56 
Q 33.9375 56 38.28125 53.609375 
Q 42.625 51.21875 45.40625 46.390625 
L 45.40625 54.6875 
L 54.390625 54.6875 
z
" id="DejaVuSans-103"/>
      <path d="M 37.109375 75.984375 
L 37.109375 68.5 
L 28.515625 68.5 
Q 23.6875 68.5 21.796875 66.546875 
Q 19.921875 64.59375 19.921875 59.515625 
L 19.921875 54.6875 
L 34.71875 54.6875 
L 34.71875 47.703125 
L 19.921875 47.703125 
L 19.921875 0 
L 10.890625 0 
L 10.890625 47.703125 
L 2.296875 47.703125 
L 2.296875 54.6875 
L 10.890625 54.6875 
L 10.890625 58.5 
Q 10.890625 67.625 15.140625 71.796875 
Q 19.390625 75.984375 28.609375 75.984375 
z
" id="DejaVuSans-102"/>
      <path d="M 54.890625 33.015625 
L 54.890625 0 
L 45.90625 0 
L 45.90625 32.71875 
Q 45.90625 40.484375 42.875 44.328125 
Q 39.84375 48.1875 33.796875 48.1875 
Q 26.515625 48.1875 22.3125 43.546875 
Q 18.109375 38.921875 18.109375 30.90625 
L 18.109375 0 
L 9.078125 0 
L 9.078125 75.984375 
L 18.109375 75.984375 
L 18.109375 46.1875 
Q 21.34375 51.125 25.703125 53.5625 
Q 30.078125 56 35.796875 56 
Q 45.21875 56 50.046875 50.171875 
Q 54.890625 44.34375 54.890625 33.015625 
z
" id="DejaVuSans-104"/>
     </defs>
     <use xlink:href="#DejaVuSans-76"/>
     <use x="53.962891" xlink:href="#DejaVuSans-111"/>
     <use x="115.144531" xlink:href="#DejaVuSans-103"/>
     <use x="178.621094" xlink:href="#DejaVuSans-32"/>
     <use x="210.408203" xlink:href="#DejaVuSans-111"/>
     <use x="271.589844" xlink:href="#DejaVuSans-102"/>
     <use x="306.794922" xlink:href="#DejaVuSans-32"/>
     <use x="338.582031" xlink:href="#DejaVuSans-116"/>
     <use x="377.791016" xlink:href="#DejaVuSans-104"/>
     <use x="441.169922" xlink:href="#DejaVuSans-105"/>
     <use x="468.953125" xlink:href="#DejaVuSans-115"/>
     <use x="521.052734" xlink:href="#DejaVuSans-32"/>
     <use x="552.839844" xlink:href="#DejaVuSans-100"/>
     <use x="616.316406" xlink:href="#DejaVuSans-105"/>
     <use x="644.099609" xlink:href="#DejaVuSans-115"/>
     <use x="696.199219" xlink:href="#DejaVuSans-116"/>
     <use x="735.408203" xlink:href="#DejaVuSans-114"/>
     <use x="776.521484" xlink:href="#DejaVuSans-105"/>
     <use x="804.304688" xlink:href="#DejaVuSans-98"/>
     <use x="867.78125" xlink:href="#DejaVuSans-117"/>
     <use x="931.160156" xlink:href="#DejaVuSans-116"/>
     <use x="970.369141" xlink:href="#DejaVuSans-105"/>
     <use x="998.152344" xlink:href="#DejaVuSans-111"/>
     <use x="1059.333984" xlink:href="#DejaVuSans-110"/>
    </g>
   </g>
  </g>
 </g>
 <defs>
  <clipPath id="p7b74f119c2">
   <rect height="217.44" width="253.636364" x="44.74" y="24.14175"/>
  </clipPath>
  <clipPath id="p541b7fba7b">
   <rect height="217.44" width="253.636364" x="349.103636" y="24.14175"/>
  </clipPath>
 </defs>
</svg>
