<?xml version="1.0" encoding="utf-8" standalone="no"?>
<!DOCTYPE svg PUBLIC "-//W3C//DTD SVG 1.1//EN"
  "http://www.w3.org/Graphics/SVG/1.1/DTD/svg11.dtd">
<!-- Created with matplotlib (https://matplotlib.org/) -->
<svg height="252.587182pt" version="1.1" viewBox="0 0 386.74 252.587182" width="386.74pt" xmlns="http://www.w3.org/2000/svg" xmlns:xlink="http://www.w3.org/1999/xlink">
 <metadata>
  <rdf:RDF xmlns:cc="http://creativecommons.org/ns#" xmlns:dc="http://purl.org/dc/elements/1.1/" xmlns:rdf="http://www.w3.org/1999/02/22-rdf-syntax-ns#">
   <cc:Work>
    <dc:type rdf:resource="http://purl.org/dc/dcmitype/StillImage"/>
    <dc:date>2020-09-27T17:03:18.876896</dc:date>
    <dc:format>image/svg+xml</dc:format>
    <dc:creator>
     <cc:Agent>
      <dc:title>Matplotlib v3.3.2, https://matplotlib.org/</dc:title>
     </cc:Agent>
    </dc:creator>
   </cc:Work>
  </rdf:RDF>
 </metadata>
 <defs>
  <style type="text/css">*{stroke-linecap:butt;stroke-linejoin:round;}</style>
 </defs>
 <g id="figure_1">
  <g id="patch_1">
   <path d="M 0 252.587182 
L 386.74 252.587182 
L 386.74 0 
L 0 0 
z
" style="fill:#ffffff;"/>
  </g>
  <g id="axes_1">
   <g id="patch_2">
    <path d="M 44.74 226.773432 
L 379.54 226.773432 
L 379.54 9.333432 
L 44.74 9.333432 
z
" style="fill:#e5e5e5;"/>
   </g>
   <g id="matplotlib.axis_1">
    <g id="xtick_1">
     <g id="line2d_1">
      <path clip-path="url(#pf95ed64b59)" d="M 59.957749 226.773432 
L 59.957749 9.333432 
" style="fill:none;stroke:#ffffff;stroke-linecap:square;stroke-width:0.8;"/>
     </g>
     <g id="line2d_2">
      <defs>
       <path d="M 0 0 
L 0 3.5 
" id="m8b688f7767" style="stroke:#555555;stroke-width:0.8;"/>
      </defs>
      <g>
       <use style="fill:#555555;stroke:#555555;stroke-width:0.8;" x="59.957749" xlink:href="#m8b688f7767" y="226.773432"/>
      </g>
     </g>
     <g id="text_1">
      <!-- 0 -->
      <g style="fill:#555555;" transform="translate(56.140249 242.891557)scale(0.12 -0.12)">
       <defs>
        <path d="M 31.78125 66.40625 
Q 24.171875 66.40625 20.328125 58.90625 
Q 16.5 51.421875 16.5 36.375 
Q 16.5 21.390625 20.328125 13.890625 
Q 24.171875 6.390625 31.78125 6.390625 
Q 39.453125 6.390625 43.28125 13.890625 
Q 47.125 21.390625 47.125 36.375 
Q 47.125 51.421875 43.28125 58.90625 
Q 39.453125 66.40625 31.78125 66.40625 
z
M 31.78125 74.21875 
Q 44.046875 74.21875 50.515625 64.515625 
Q 56.984375 54.828125 56.984375 36.375 
Q 56.984375 17.96875 50.515625 8.265625 
Q 44.046875 -1.421875 31.78125 -1.421875 
Q 19.53125 -1.421875 13.0625 8.265625 
Q 6.59375 17.96875 6.59375 36.375 
Q 6.59375 54.828125 13.0625 64.515625 
Q 19.53125 74.21875 31.78125 74.21875 
z
" id="DejaVuSans-48"/>
       </defs>
       <use xlink:href="#DejaVuSans-48"/>
      </g>
     </g>
    </g>
    <g id="xtick_2">
     <g id="line2d_3">
      <path clip-path="url(#pf95ed64b59)" d="M 97.200464 226.773432 
L 97.200464 9.333432 
" style="fill:none;stroke:#ffffff;stroke-linecap:square;stroke-width:0.8;"/>
     </g>
     <g id="line2d_4">
      <g>
       <use style="fill:#555555;stroke:#555555;stroke-width:0.8;" x="97.200464" xlink:href="#m8b688f7767" y="226.773432"/>
      </g>
     </g>
     <g id="text_2">
      <!-- 1 -->
      <g style="fill:#555555;" transform="translate(93.382964 242.891557)scale(0.12 -0.12)">
       <defs>
        <path d="M 12.40625 8.296875 
L 28.515625 8.296875 
L 28.515625 63.921875 
L 10.984375 60.40625 
L 10.984375 69.390625 
L 28.421875 72.90625 
L 38.28125 72.90625 
L 38.28125 8.296875 
L 54.390625 8.296875 
L 54.390625 0 
L 12.40625 0 
z
" id="DejaVuSans-49"/>
       </defs>
       <use xlink:href="#DejaVuSans-49"/>
      </g>
     </g>
    </g>
    <g id="xtick_3">
     <g id="line2d_5">
      <path clip-path="url(#pf95ed64b59)" d="M 134.44318 226.773432 
L 134.44318 9.333432 
" style="fill:none;stroke:#ffffff;stroke-linecap:square;stroke-width:0.8;"/>
     </g>
     <g id="line2d_6">
      <g>
       <use style="fill:#555555;stroke:#555555;stroke-width:0.8;" x="134.44318" xlink:href="#m8b688f7767" y="226.773432"/>
      </g>
     </g>
     <g id="text_3">
      <!-- 2 -->
      <g style="fill:#555555;" transform="translate(130.62568 242.891557)scale(0.12 -0.12)">
       <defs>
        <path d="M 19.1875 8.296875 
L 53.609375 8.296875 
L 53.609375 0 
L 7.328125 0 
L 7.328125 8.296875 
Q 12.9375 14.109375 22.625 23.890625 
Q 32.328125 33.6875 34.8125 36.53125 
Q 39.546875 41.84375 41.421875 45.53125 
Q 43.3125 49.21875 43.3125 52.78125 
Q 43.3125 58.59375 39.234375 62.25 
Q 35.15625 65.921875 28.609375 65.921875 
Q 23.96875 65.921875 18.8125 64.3125 
Q 13.671875 62.703125 7.8125 59.421875 
L 7.8125 69.390625 
Q 13.765625 71.78125 18.9375 73 
Q 24.125 74.21875 28.421875 74.21875 
Q 39.75 74.21875 46.484375 68.546875 
Q 53.21875 62.890625 53.21875 53.421875 
Q 53.21875 48.921875 51.53125 44.890625 
Q 49.859375 40.875 45.40625 35.40625 
Q 44.1875 33.984375 37.640625 27.21875 
Q 31.109375 20.453125 19.1875 8.296875 
z
" id="DejaVuSans-50"/>
       </defs>
       <use xlink:href="#DejaVuSans-50"/>
      </g>
     </g>
    </g>
    <g id="xtick_4">
     <g id="line2d_7">
      <path clip-path="url(#pf95ed64b59)" d="M 171.685896 226.773432 
L 171.685896 9.333432 
" style="fill:none;stroke:#ffffff;stroke-linecap:square;stroke-width:0.8;"/>
     </g>
     <g id="line2d_8">
      <g>
       <use style="fill:#555555;stroke:#555555;stroke-width:0.8;" x="171.685896" xlink:href="#m8b688f7767" y="226.773432"/>
      </g>
     </g>
     <g id="text_4">
      <!-- 3 -->
      <g style="fill:#555555;" transform="translate(167.868396 242.891557)scale(0.12 -0.12)">
       <defs>
        <path d="M 40.578125 39.3125 
Q 47.65625 37.796875 51.625 33 
Q 55.609375 28.21875 55.609375 21.1875 
Q 55.609375 10.40625 48.1875 4.484375 
Q 40.765625 -1.421875 27.09375 -1.421875 
Q 22.515625 -1.421875 17.65625 -0.515625 
Q 12.796875 0.390625 7.625 2.203125 
L 7.625 11.71875 
Q 11.71875 9.328125 16.59375 8.109375 
Q 21.484375 6.890625 26.8125 6.890625 
Q 36.078125 6.890625 40.9375 10.546875 
Q 45.796875 14.203125 45.796875 21.1875 
Q 45.796875 27.640625 41.28125 31.265625 
Q 36.765625 34.90625 28.71875 34.90625 
L 20.21875 34.90625 
L 20.21875 43.015625 
L 29.109375 43.015625 
Q 36.375 43.015625 40.234375 45.921875 
Q 44.09375 48.828125 44.09375 54.296875 
Q 44.09375 59.90625 40.109375 62.90625 
Q 36.140625 65.921875 28.71875 65.921875 
Q 24.65625 65.921875 20.015625 65.03125 
Q 15.375 64.15625 9.8125 62.3125 
L 9.8125 71.09375 
Q 15.4375 72.65625 20.34375 73.4375 
Q 25.25 74.21875 29.59375 74.21875 
Q 40.828125 74.21875 47.359375 69.109375 
Q 53.90625 64.015625 53.90625 55.328125 
Q 53.90625 49.265625 50.4375 45.09375 
Q 46.96875 40.921875 40.578125 39.3125 
z
" id="DejaVuSans-51"/>
       </defs>
       <use xlink:href="#DejaVuSans-51"/>
      </g>
     </g>
    </g>
    <g id="xtick_5">
     <g id="line2d_9">
      <path clip-path="url(#pf95ed64b59)" d="M 208.928612 226.773432 
L 208.928612 9.333432 
" style="fill:none;stroke:#ffffff;stroke-linecap:square;stroke-width:0.8;"/>
     </g>
     <g id="line2d_10">
      <g>
       <use style="fill:#555555;stroke:#555555;stroke-width:0.8;" x="208.928612" xlink:href="#m8b688f7767" y="226.773432"/>
      </g>
     </g>
     <g id="text_5">
      <!-- 4 -->
      <g style="fill:#555555;" transform="translate(205.111112 242.891557)scale(0.12 -0.12)">
       <defs>
        <path d="M 37.796875 64.3125 
L 12.890625 25.390625 
L 37.796875 25.390625 
z
M 35.203125 72.90625 
L 47.609375 72.90625 
L 47.609375 25.390625 
L 58.015625 25.390625 
L 58.015625 17.1875 
L 47.609375 17.1875 
L 47.609375 0 
L 37.796875 0 
L 37.796875 17.1875 
L 4.890625 17.1875 
L 4.890625 26.703125 
z
" id="DejaVuSans-52"/>
       </defs>
       <use xlink:href="#DejaVuSans-52"/>
      </g>
     </g>
    </g>
    <g id="xtick_6">
     <g id="line2d_11">
      <path clip-path="url(#pf95ed64b59)" d="M 246.171328 226.773432 
L 246.171328 9.333432 
" style="fill:none;stroke:#ffffff;stroke-linecap:square;stroke-width:0.8;"/>
     </g>
     <g id="line2d_12">
      <g>
       <use style="fill:#555555;stroke:#555555;stroke-width:0.8;" x="246.171328" xlink:href="#m8b688f7767" y="226.773432"/>
      </g>
     </g>
     <g id="text_6">
      <!-- 5 -->
      <g style="fill:#555555;" transform="translate(242.353828 242.891557)scale(0.12 -0.12)">
       <defs>
        <path d="M 10.796875 72.90625 
L 49.515625 72.90625 
L 49.515625 64.59375 
L 19.828125 64.59375 
L 19.828125 46.734375 
Q 21.96875 47.46875 24.109375 47.828125 
Q 26.265625 48.1875 28.421875 48.1875 
Q 40.625 48.1875 47.75 41.5 
Q 54.890625 34.8125 54.890625 23.390625 
Q 54.890625 11.625 47.5625 5.09375 
Q 40.234375 -1.421875 26.90625 -1.421875 
Q 22.3125 -1.421875 17.546875 -0.640625 
Q 12.796875 0.140625 7.71875 1.703125 
L 7.71875 11.625 
Q 12.109375 9.234375 16.796875 8.0625 
Q 21.484375 6.890625 26.703125 6.890625 
Q 35.15625 6.890625 40.078125 11.328125 
Q 45.015625 15.765625 45.015625 23.390625 
Q 45.015625 31 40.078125 35.4375 
Q 35.15625 39.890625 26.703125 39.890625 
Q 22.75 39.890625 18.8125 39.015625 
Q 14.890625 38.140625 10.796875 36.28125 
z
" id="DejaVuSans-53"/>
       </defs>
       <use xlink:href="#DejaVuSans-53"/>
      </g>
     </g>
    </g>
    <g id="xtick_7">
     <g id="line2d_13">
      <path clip-path="url(#pf95ed64b59)" d="M 283.414044 226.773432 
L 283.414044 9.333432 
" style="fill:none;stroke:#ffffff;stroke-linecap:square;stroke-width:0.8;"/>
     </g>
     <g id="line2d_14">
      <g>
       <use style="fill:#555555;stroke:#555555;stroke-width:0.8;" x="283.414044" xlink:href="#m8b688f7767" y="226.773432"/>
      </g>
     </g>
     <g id="text_7">
      <!-- 6 -->
      <g style="fill:#555555;" transform="translate(279.596544 242.891557)scale(0.12 -0.12)">
       <defs>
        <path d="M 33.015625 40.375 
Q 26.375 40.375 22.484375 35.828125 
Q 18.609375 31.296875 18.609375 23.390625 
Q 18.609375 15.53125 22.484375 10.953125 
Q 26.375 6.390625 33.015625 6.390625 
Q 39.65625 6.390625 43.53125 10.953125 
Q 47.40625 15.53125 47.40625 23.390625 
Q 47.40625 31.296875 43.53125 35.828125 
Q 39.65625 40.375 33.015625 40.375 
z
M 52.59375 71.296875 
L 52.59375 62.3125 
Q 48.875 64.0625 45.09375 64.984375 
Q 41.3125 65.921875 37.59375 65.921875 
Q 27.828125 65.921875 22.671875 59.328125 
Q 17.53125 52.734375 16.796875 39.40625 
Q 19.671875 43.65625 24.015625 45.921875 
Q 28.375 48.1875 33.59375 48.1875 
Q 44.578125 48.1875 50.953125 41.515625 
Q 57.328125 34.859375 57.328125 23.390625 
Q 57.328125 12.15625 50.6875 5.359375 
Q 44.046875 -1.421875 33.015625 -1.421875 
Q 20.359375 -1.421875 13.671875 8.265625 
Q 6.984375 17.96875 6.984375 36.375 
Q 6.984375 53.65625 15.1875 63.9375 
Q 23.390625 74.21875 37.203125 74.21875 
Q 40.921875 74.21875 44.703125 73.484375 
Q 48.484375 72.75 52.59375 71.296875 
z
" id="DejaVuSans-54"/>
       </defs>
       <use xlink:href="#DejaVuSans-54"/>
      </g>
     </g>
    </g>
    <g id="xtick_8">
     <g id="line2d_15">
      <path clip-path="url(#pf95ed64b59)" d="M 320.65676 226.773432 
L 320.65676 9.333432 
" style="fill:none;stroke:#ffffff;stroke-linecap:square;stroke-width:0.8;"/>
     </g>
     <g id="line2d_16">
      <g>
       <use style="fill:#555555;stroke:#555555;stroke-width:0.8;" x="320.65676" xlink:href="#m8b688f7767" y="226.773432"/>
      </g>
     </g>
     <g id="text_8">
      <!-- 7 -->
      <g style="fill:#555555;" transform="translate(316.83926 242.891557)scale(0.12 -0.12)">
       <defs>
        <path d="M 8.203125 72.90625 
L 55.078125 72.90625 
L 55.078125 68.703125 
L 28.609375 0 
L 18.3125 0 
L 43.21875 64.59375 
L 8.203125 64.59375 
z
" id="DejaVuSans-55"/>
       </defs>
       <use xlink:href="#DejaVuSans-55"/>
      </g>
     </g>
    </g>
    <g id="xtick_9">
     <g id="line2d_17">
      <path clip-path="url(#pf95ed64b59)" d="M 357.899476 226.773432 
L 357.899476 9.333432 
" style="fill:none;stroke:#ffffff;stroke-linecap:square;stroke-width:0.8;"/>
     </g>
     <g id="line2d_18">
      <g>
       <use style="fill:#555555;stroke:#555555;stroke-width:0.8;" x="357.899476" xlink:href="#m8b688f7767" y="226.773432"/>
      </g>
     </g>
     <g id="text_9">
      <!-- 8 -->
      <g style="fill:#555555;" transform="translate(354.081976 242.891557)scale(0.12 -0.12)">
       <defs>
        <path d="M 31.78125 34.625 
Q 24.75 34.625 20.71875 30.859375 
Q 16.703125 27.09375 16.703125 20.515625 
Q 16.703125 13.921875 20.71875 10.15625 
Q 24.75 6.390625 31.78125 6.390625 
Q 38.8125 6.390625 42.859375 10.171875 
Q 46.921875 13.96875 46.921875 20.515625 
Q 46.921875 27.09375 42.890625 30.859375 
Q 38.875 34.625 31.78125 34.625 
z
M 21.921875 38.8125 
Q 15.578125 40.375 12.03125 44.71875 
Q 8.5 49.078125 8.5 55.328125 
Q 8.5 64.0625 14.71875 69.140625 
Q 20.953125 74.21875 31.78125 74.21875 
Q 42.671875 74.21875 48.875 69.140625 
Q 55.078125 64.0625 55.078125 55.328125 
Q 55.078125 49.078125 51.53125 44.71875 
Q 48 40.375 41.703125 38.8125 
Q 48.828125 37.15625 52.796875 32.3125 
Q 56.78125 27.484375 56.78125 20.515625 
Q 56.78125 9.90625 50.3125 4.234375 
Q 43.84375 -1.421875 31.78125 -1.421875 
Q 19.734375 -1.421875 13.25 4.234375 
Q 6.78125 9.90625 6.78125 20.515625 
Q 6.78125 27.484375 10.78125 32.3125 
Q 14.796875 37.15625 21.921875 38.8125 
z
M 18.3125 54.390625 
Q 18.3125 48.734375 21.84375 45.5625 
Q 25.390625 42.390625 31.78125 42.390625 
Q 38.140625 42.390625 41.71875 45.5625 
Q 45.3125 48.734375 45.3125 54.390625 
Q 45.3125 60.0625 41.71875 63.234375 
Q 38.140625 66.40625 31.78125 66.40625 
Q 25.390625 66.40625 21.84375 63.234375 
Q 18.3125 60.0625 18.3125 54.390625 
z
" id="DejaVuSans-56"/>
       </defs>
       <use xlink:href="#DejaVuSans-56"/>
      </g>
     </g>
    </g>
   </g>
   <g id="matplotlib.axis_2">
    <g id="ytick_1">
     <g id="line2d_19">
      <path clip-path="url(#pf95ed64b59)" d="M 44.74 226.773432 
L 379.54 226.773432 
" style="fill:none;stroke:#ffffff;stroke-linecap:square;stroke-width:0.8;"/>
     </g>
     <g id="line2d_20">
      <defs>
       <path d="M 0 0 
L -3.5 0 
" id="meae6ac1b4d" style="stroke:#555555;stroke-width:0.8;"/>
      </defs>
      <g>
       <use style="fill:#555555;stroke:#555555;stroke-width:0.8;" x="44.74" xlink:href="#meae6ac1b4d" y="226.773432"/>
      </g>
     </g>
     <g id="text_10">
      <!-- 0 -->
      <g style="fill:#555555;" transform="translate(30.105 231.332494)scale(0.12 -0.12)">
       <use xlink:href="#DejaVuSans-48"/>
      </g>
     </g>
    </g>
    <g id="ytick_2">
     <g id="line2d_21">
      <path clip-path="url(#pf95ed64b59)" d="M 44.74 199.896636 
L 379.54 199.896636 
" style="fill:none;stroke:#ffffff;stroke-linecap:square;stroke-width:0.8;"/>
     </g>
     <g id="line2d_22">
      <g>
       <use style="fill:#555555;stroke:#555555;stroke-width:0.8;" x="44.74" xlink:href="#meae6ac1b4d" y="199.896636"/>
      </g>
     </g>
     <g id="text_11">
      <!-- 200 -->
      <g style="fill:#555555;" transform="translate(14.835 204.455698)scale(0.12 -0.12)">
       <use xlink:href="#DejaVuSans-50"/>
       <use x="63.623047" xlink:href="#DejaVuSans-48"/>
       <use x="127.246094" xlink:href="#DejaVuSans-48"/>
      </g>
     </g>
    </g>
    <g id="ytick_3">
     <g id="line2d_23">
      <path clip-path="url(#pf95ed64b59)" d="M 44.74 173.019839 
L 379.54 173.019839 
" style="fill:none;stroke:#ffffff;stroke-linecap:square;stroke-width:0.8;"/>
     </g>
     <g id="line2d_24">
      <g>
       <use style="fill:#555555;stroke:#555555;stroke-width:0.8;" x="44.74" xlink:href="#meae6ac1b4d" y="173.019839"/>
      </g>
     </g>
     <g id="text_12">
      <!-- 400 -->
      <g style="fill:#555555;" transform="translate(14.835 177.578902)scale(0.12 -0.12)">
       <use xlink:href="#DejaVuSans-52"/>
       <use x="63.623047" xlink:href="#DejaVuSans-48"/>
       <use x="127.246094" xlink:href="#DejaVuSans-48"/>
      </g>
     </g>
    </g>
    <g id="ytick_4">
     <g id="line2d_25">
      <path clip-path="url(#pf95ed64b59)" d="M 44.74 146.143043 
L 379.54 146.143043 
" style="fill:none;stroke:#ffffff;stroke-linecap:square;stroke-width:0.8;"/>
     </g>
     <g id="line2d_26">
      <g>
       <use style="fill:#555555;stroke:#555555;stroke-width:0.8;" x="44.74" xlink:href="#meae6ac1b4d" y="146.143043"/>
      </g>
     </g>
     <g id="text_13">
      <!-- 600 -->
      <g style="fill:#555555;" transform="translate(14.835 150.702106)scale(0.12 -0.12)">
       <use xlink:href="#DejaVuSans-54"/>
       <use x="63.623047" xlink:href="#DejaVuSans-48"/>
       <use x="127.246094" xlink:href="#DejaVuSans-48"/>
      </g>
     </g>
    </g>
    <g id="ytick_5">
     <g id="line2d_27">
      <path clip-path="url(#pf95ed64b59)" d="M 44.74 119.266247 
L 379.54 119.266247 
" style="fill:none;stroke:#ffffff;stroke-linecap:square;stroke-width:0.8;"/>
     </g>
     <g id="line2d_28">
      <g>
       <use style="fill:#555555;stroke:#555555;stroke-width:0.8;" x="44.74" xlink:href="#meae6ac1b4d" y="119.266247"/>
      </g>
     </g>
     <g id="text_14">
      <!-- 800 -->
      <g style="fill:#555555;" transform="translate(14.835 123.82531)scale(0.12 -0.12)">
       <use xlink:href="#DejaVuSans-56"/>
       <use x="63.623047" xlink:href="#DejaVuSans-48"/>
       <use x="127.246094" xlink:href="#DejaVuSans-48"/>
      </g>
     </g>
    </g>
    <g id="ytick_6">
     <g id="line2d_29">
      <path clip-path="url(#pf95ed64b59)" d="M 44.74 92.389451 
L 379.54 92.389451 
" style="fill:none;stroke:#ffffff;stroke-linecap:square;stroke-width:0.8;"/>
     </g>
     <g id="line2d_30">
      <g>
       <use style="fill:#555555;stroke:#555555;stroke-width:0.8;" x="44.74" xlink:href="#meae6ac1b4d" y="92.389451"/>
      </g>
     </g>
     <g id="text_15">
      <!-- 1000 -->
      <g style="fill:#555555;" transform="translate(7.2 96.948513)scale(0.12 -0.12)">
       <use xlink:href="#DejaVuSans-49"/>
       <use x="63.623047" xlink:href="#DejaVuSans-48"/>
       <use x="127.246094" xlink:href="#DejaVuSans-48"/>
       <use x="190.869141" xlink:href="#DejaVuSans-48"/>
      </g>
     </g>
    </g>
    <g id="ytick_7">
     <g id="line2d_31">
      <path clip-path="url(#pf95ed64b59)" d="M 44.74 65.512655 
L 379.54 65.512655 
" style="fill:none;stroke:#ffffff;stroke-linecap:square;stroke-width:0.8;"/>
     </g>
     <g id="line2d_32">
      <g>
       <use style="fill:#555555;stroke:#555555;stroke-width:0.8;" x="44.74" xlink:href="#meae6ac1b4d" y="65.512655"/>
      </g>
     </g>
     <g id="text_16">
      <!-- 1200 -->
      <g style="fill:#555555;" transform="translate(7.2 70.071717)scale(0.12 -0.12)">
       <use xlink:href="#DejaVuSans-49"/>
       <use x="63.623047" xlink:href="#DejaVuSans-50"/>
       <use x="127.246094" xlink:href="#DejaVuSans-48"/>
       <use x="190.869141" xlink:href="#DejaVuSans-48"/>
      </g>
     </g>
    </g>
    <g id="ytick_8">
     <g id="line2d_33">
      <path clip-path="url(#pf95ed64b59)" d="M 44.74 38.635859 
L 379.54 38.635859 
" style="fill:none;stroke:#ffffff;stroke-linecap:square;stroke-width:0.8;"/>
     </g>
     <g id="line2d_34">
      <g>
       <use style="fill:#555555;stroke:#555555;stroke-width:0.8;" x="44.74" xlink:href="#meae6ac1b4d" y="38.635859"/>
      </g>
     </g>
     <g id="text_17">
      <!-- 1400 -->
      <g style="fill:#555555;" transform="translate(7.2 43.194921)scale(0.12 -0.12)">
       <use xlink:href="#DejaVuSans-49"/>
       <use x="63.623047" xlink:href="#DejaVuSans-52"/>
       <use x="127.246094" xlink:href="#DejaVuSans-48"/>
       <use x="190.869141" xlink:href="#DejaVuSans-48"/>
      </g>
     </g>
    </g>
    <g id="ytick_9">
     <g id="line2d_35">
      <path clip-path="url(#pf95ed64b59)" d="M 44.74 11.759062 
L 379.54 11.759062 
" style="fill:none;stroke:#ffffff;stroke-linecap:square;stroke-width:0.8;"/>
     </g>
     <g id="line2d_36">
      <g>
       <use style="fill:#555555;stroke:#555555;stroke-width:0.8;" x="44.74" xlink:href="#meae6ac1b4d" y="11.759062"/>
      </g>
     </g>
     <g id="text_18">
      <!-- 1600 -->
      <g style="fill:#555555;" transform="translate(7.2 16.318125)scale(0.12 -0.12)">
       <use xlink:href="#DejaVuSans-49"/>
       <use x="63.623047" xlink:href="#DejaVuSans-54"/>
       <use x="127.246094" xlink:href="#DejaVuSans-48"/>
       <use x="190.869141" xlink:href="#DejaVuSans-48"/>
      </g>
     </g>
    </g>
   </g>
   <g id="patch_3">
    <path clip-path="url(#pf95ed64b59)" d="M 59.958182 226.773432 
L 66.045455 226.773432 
L 66.045455 19.687717 
L 59.958182 19.687717 
z
" style="fill:#e24a33;"/>
   </g>
   <g id="patch_4">
    <path clip-path="url(#pf95ed64b59)" d="M 66.045455 226.773432 
L 72.132727 226.773432 
L 72.132727 51.267953 
L 66.045455 51.267953 
z
" style="fill:#e24a33;"/>
   </g>
   <g id="patch_5">
    <path clip-path="url(#pf95ed64b59)" d="M 72.132727 226.773432 
L 78.22 226.773432 
L 78.22 82.310652 
L 72.132727 82.310652 
z
" style="fill:#e24a33;"/>
   </g>
   <g id="patch_6">
    <path clip-path="url(#pf95ed64b59)" d="M 78.22 226.773432 
L 84.307273 226.773432 
L 84.307273 100.318106 
L 78.22 100.318106 
z
" style="fill:#e24a33;"/>
   </g>
   <g id="patch_7">
    <path clip-path="url(#pf95ed64b59)" d="M 84.307273 226.773432 
L 90.394545 226.773432 
L 90.394545 115.906648 
L 84.307273 115.906648 
z
" style="fill:#e24a33;"/>
   </g>
   <g id="patch_8">
    <path clip-path="url(#pf95ed64b59)" d="M 90.394545 226.773432 
L 96.481818 226.773432 
L 96.481818 137.004933 
L 90.394545 137.004933 
z
" style="fill:#e24a33;"/>
   </g>
   <g id="patch_9">
    <path clip-path="url(#pf95ed64b59)" d="M 96.481818 226.773432 
L 102.569091 226.773432 
L 102.569091 149.502643 
L 96.481818 149.502643 
z
" style="fill:#e24a33;"/>
   </g>
   <g id="patch_10">
    <path clip-path="url(#pf95ed64b59)" d="M 102.569091 226.773432 
L 108.656364 226.773432 
L 108.656364 164.284881 
L 102.569091 164.284881 
z
" style="fill:#e24a33;"/>
   </g>
   <g id="patch_11">
    <path clip-path="url(#pf95ed64b59)" d="M 108.656364 226.773432 
L 114.743636 226.773432 
L 114.743636 175.438751 
L 108.656364 175.438751 
z
" style="fill:#e24a33;"/>
   </g>
   <g id="patch_12">
    <path clip-path="url(#pf95ed64b59)" d="M 114.743636 226.773432 
L 120.830909 226.773432 
L 120.830909 183.367406 
L 114.743636 183.367406 
z
" style="fill:#e24a33;"/>
   </g>
   <g id="patch_13">
    <path clip-path="url(#pf95ed64b59)" d="M 120.830909 226.773432 
L 126.918182 226.773432 
L 126.918182 185.383166 
L 120.830909 185.383166 
z
" style="fill:#e24a33;"/>
   </g>
   <g id="patch_14">
    <path clip-path="url(#pf95ed64b59)" d="M 126.918182 226.773432 
L 133.005455 226.773432 
L 133.005455 195.865116 
L 126.918182 195.865116 
z
" style="fill:#e24a33;"/>
   </g>
   <g id="patch_15">
    <path clip-path="url(#pf95ed64b59)" d="M 133.005455 226.773432 
L 139.092727 226.773432 
L 139.092727 197.074572 
L 133.005455 197.074572 
z
" style="fill:#e24a33;"/>
   </g>
   <g id="patch_16">
    <path clip-path="url(#pf95ed64b59)" d="M 139.092727 226.773432 
L 145.18 226.773432 
L 145.18 204.062539 
L 139.092727 204.062539 
z
" style="fill:#e24a33;"/>
   </g>
   <g id="patch_17">
    <path clip-path="url(#pf95ed64b59)" d="M 145.18 226.773432 
L 151.267273 226.773432 
L 151.267273 208.362826 
L 145.18 208.362826 
z
" style="fill:#e24a33;"/>
   </g>
   <g id="patch_18">
    <path clip-path="url(#pf95ed64b59)" d="M 151.267273 226.773432 
L 157.354545 226.773432 
L 157.354545 213.469418 
L 151.267273 213.469418 
z
" style="fill:#e24a33;"/>
   </g>
   <g id="patch_19">
    <path clip-path="url(#pf95ed64b59)" d="M 157.354545 226.773432 
L 163.441818 226.773432 
L 163.441818 210.109818 
L 157.354545 210.109818 
z
" style="fill:#e24a33;"/>
   </g>
   <g id="patch_20">
    <path clip-path="url(#pf95ed64b59)" d="M 163.441818 226.773432 
L 169.529091 226.773432 
L 169.529091 212.394346 
L 163.441818 212.394346 
z
" style="fill:#e24a33;"/>
   </g>
   <g id="patch_21">
    <path clip-path="url(#pf95ed64b59)" d="M 169.529091 226.773432 
L 175.616364 226.773432 
L 175.616364 215.753945 
L 169.529091 215.753945 
z
" style="fill:#e24a33;"/>
   </g>
   <g id="patch_22">
    <path clip-path="url(#pf95ed64b59)" d="M 175.616364 226.773432 
L 181.703636 226.773432 
L 181.703636 218.172857 
L 175.616364 218.172857 
z
" style="fill:#e24a33;"/>
   </g>
   <g id="patch_23">
    <path clip-path="url(#pf95ed64b59)" d="M 181.703636 226.773432 
L 187.790909 226.773432 
L 187.790909 218.172857 
L 181.703636 218.172857 
z
" style="fill:#e24a33;"/>
   </g>
   <g id="patch_24">
    <path clip-path="url(#pf95ed64b59)" d="M 187.790909 226.773432 
L 193.878182 226.773432 
L 193.878182 220.054233 
L 187.790909 220.054233 
z
" style="fill:#e24a33;"/>
   </g>
   <g id="patch_25">
    <path clip-path="url(#pf95ed64b59)" d="M 193.878182 226.773432 
L 199.965455 226.773432 
L 199.965455 221.263688 
L 193.878182 221.263688 
z
" style="fill:#e24a33;"/>
   </g>
   <g id="patch_26">
    <path clip-path="url(#pf95ed64b59)" d="M 199.965455 226.773432 
L 206.052727 226.773432 
L 206.052727 222.876296 
L 199.965455 222.876296 
z
" style="fill:#e24a33;"/>
   </g>
   <g id="patch_27">
    <path clip-path="url(#pf95ed64b59)" d="M 206.052727 226.773432 
L 212.14 226.773432 
L 212.14 223.413832 
L 206.052727 223.413832 
z
" style="fill:#e24a33;"/>
   </g>
   <g id="patch_28">
    <path clip-path="url(#pf95ed64b59)" d="M 212.14 226.773432 
L 218.227273 226.773432 
L 218.227273 223.6826 
L 212.14 223.6826 
z
" style="fill:#e24a33;"/>
   </g>
   <g id="patch_29">
    <path clip-path="url(#pf95ed64b59)" d="M 218.227273 226.773432 
L 224.314545 226.773432 
L 224.314545 223.413832 
L 218.227273 223.413832 
z
" style="fill:#e24a33;"/>
   </g>
   <g id="patch_30">
    <path clip-path="url(#pf95ed64b59)" d="M 224.314545 226.773432 
L 230.401818 226.773432 
L 230.401818 224.892056 
L 224.314545 224.892056 
z
" style="fill:#e24a33;"/>
   </g>
   <g id="patch_31">
    <path clip-path="url(#pf95ed64b59)" d="M 230.401818 226.773432 
L 236.489091 226.773432 
L 236.489091 225.295208 
L 230.401818 225.295208 
z
" style="fill:#e24a33;"/>
   </g>
   <g id="patch_32">
    <path clip-path="url(#pf95ed64b59)" d="M 236.489091 226.773432 
L 242.576364 226.773432 
L 242.576364 224.892056 
L 236.489091 224.892056 
z
" style="fill:#e24a33;"/>
   </g>
   <g id="patch_33">
    <path clip-path="url(#pf95ed64b59)" d="M 242.576364 226.773432 
L 248.663636 226.773432 
L 248.663636 225.832744 
L 242.576364 225.832744 
z
" style="fill:#e24a33;"/>
   </g>
   <g id="patch_34">
    <path clip-path="url(#pf95ed64b59)" d="M 248.663636 226.773432 
L 254.750909 226.773432 
L 254.750909 226.101512 
L 248.663636 226.101512 
z
" style="fill:#e24a33;"/>
   </g>
   <g id="patch_35">
    <path clip-path="url(#pf95ed64b59)" d="M 254.750909 226.773432 
L 260.838182 226.773432 
L 260.838182 225.967128 
L 254.750909 225.967128 
z
" style="fill:#e24a33;"/>
   </g>
   <g id="patch_36">
    <path clip-path="url(#pf95ed64b59)" d="M 260.838182 226.773432 
L 266.925455 226.773432 
L 266.925455 225.563976 
L 260.838182 225.563976 
z
" style="fill:#e24a33;"/>
   </g>
   <g id="patch_37">
    <path clip-path="url(#pf95ed64b59)" d="M 266.925455 226.773432 
L 273.012727 226.773432 
L 273.012727 225.69836 
L 266.925455 225.69836 
z
" style="fill:#e24a33;"/>
   </g>
   <g id="patch_38">
    <path clip-path="url(#pf95ed64b59)" d="M 273.012727 226.773432 
L 279.1 226.773432 
L 279.1 225.967128 
L 273.012727 225.967128 
z
" style="fill:#e24a33;"/>
   </g>
   <g id="patch_39">
    <path clip-path="url(#pf95ed64b59)" d="M 279.1 226.773432 
L 285.187273 226.773432 
L 285.187273 226.37028 
L 279.1 226.37028 
z
" style="fill:#e24a33;"/>
   </g>
   <g id="patch_40">
    <path clip-path="url(#pf95ed64b59)" d="M 285.187273 226.773432 
L 291.274545 226.773432 
L 291.274545 226.235896 
L 285.187273 226.235896 
z
" style="fill:#e24a33;"/>
   </g>
   <g id="patch_41">
    <path clip-path="url(#pf95ed64b59)" d="M 291.274545 226.773432 
L 297.361818 226.773432 
L 297.361818 226.773432 
L 291.274545 226.773432 
z
" style="fill:#e24a33;"/>
   </g>
   <g id="patch_42">
    <path clip-path="url(#pf95ed64b59)" d="M 297.361818 226.773432 
L 303.449091 226.773432 
L 303.449091 226.504664 
L 297.361818 226.504664 
z
" style="fill:#e24a33;"/>
   </g>
   <g id="patch_43">
    <path clip-path="url(#pf95ed64b59)" d="M 303.449091 226.773432 
L 309.536364 226.773432 
L 309.536364 226.504664 
L 303.449091 226.504664 
z
" style="fill:#e24a33;"/>
   </g>
   <g id="patch_44">
    <path clip-path="url(#pf95ed64b59)" d="M 309.536364 226.773432 
L 315.623636 226.773432 
L 315.623636 226.37028 
L 309.536364 226.37028 
z
" style="fill:#e24a33;"/>
   </g>
   <g id="patch_45">
    <path clip-path="url(#pf95ed64b59)" d="M 315.623636 226.773432 
L 321.710909 226.773432 
L 321.710909 226.773432 
L 315.623636 226.773432 
z
" style="fill:#e24a33;"/>
   </g>
   <g id="patch_46">
    <path clip-path="url(#pf95ed64b59)" d="M 321.710909 226.773432 
L 327.798182 226.773432 
L 327.798182 226.639048 
L 321.710909 226.639048 
z
" style="fill:#e24a33;"/>
   </g>
   <g id="patch_47">
    <path clip-path="url(#pf95ed64b59)" d="M 327.798182 226.773432 
L 333.885455 226.773432 
L 333.885455 226.639048 
L 327.798182 226.639048 
z
" style="fill:#e24a33;"/>
   </g>
   <g id="patch_48">
    <path clip-path="url(#pf95ed64b59)" d="M 333.885455 226.773432 
L 339.972727 226.773432 
L 339.972727 226.639048 
L 333.885455 226.639048 
z
" style="fill:#e24a33;"/>
   </g>
   <g id="patch_49">
    <path clip-path="url(#pf95ed64b59)" d="M 339.972727 226.773432 
L 346.06 226.773432 
L 346.06 226.504664 
L 339.972727 226.504664 
z
" style="fill:#e24a33;"/>
   </g>
   <g id="patch_50">
    <path clip-path="url(#pf95ed64b59)" d="M 346.06 226.773432 
L 352.147273 226.773432 
L 352.147273 226.639048 
L 346.06 226.639048 
z
" style="fill:#e24a33;"/>
   </g>
   <g id="patch_51">
    <path clip-path="url(#pf95ed64b59)" d="M 352.147273 226.773432 
L 358.234545 226.773432 
L 358.234545 226.773432 
L 352.147273 226.773432 
z
" style="fill:#e24a33;"/>
   </g>
   <g id="patch_52">
    <path clip-path="url(#pf95ed64b59)" d="M 358.234545 226.773432 
L 364.321818 226.773432 
L 364.321818 226.639048 
L 358.234545 226.639048 
z
" style="fill:#e24a33;"/>
   </g>
   <g id="patch_53">
    <path d="M 44.74 226.773432 
L 44.74 9.333432 
" style="fill:none;stroke:#ffffff;stroke-linecap:square;stroke-linejoin:miter;"/>
   </g>
   <g id="patch_54">
    <path d="M 379.54 226.773432 
L 379.54 9.333432 
" style="fill:none;stroke:#ffffff;stroke-linecap:square;stroke-linejoin:miter;"/>
   </g>
   <g id="patch_55">
    <path d="M 44.74 226.773432 
L 379.54 226.773432 
" style="fill:none;stroke:#ffffff;stroke-linecap:square;stroke-linejoin:miter;"/>
   </g>
   <g id="patch_56">
    <path d="M 44.74 9.333432 
L 379.54 9.333432 
" style="fill:none;stroke:#ffffff;stroke-linecap:square;stroke-linejoin:miter;"/>
   </g>
  </g>
 </g>
 <defs>
  <clipPath id="pf95ed64b59">
   <rect height="217.44" width="334.8" x="44.74" y="9.333432"/>
  </clipPath>
 </defs>
</svg>
