<?xml version="1.0" encoding="utf-8" standalone="no"?>
<!DOCTYPE svg PUBLIC "-//W3C//DTD SVG 1.1//EN"
  "http://www.w3.org/Graphics/SVG/1.1/DTD/svg11.dtd">
<!-- Created with matplotlib (https://matplotlib.org/) -->
<svg height="250.45375pt" version="1.1" viewBox="0 0 386.74 250.45375" width="386.74pt" xmlns="http://www.w3.org/2000/svg" xmlns:xlink="http://www.w3.org/1999/xlink">
 <metadata>
  <rdf:RDF xmlns:cc="http://creativecommons.org/ns#" xmlns:dc="http://purl.org/dc/elements/1.1/" xmlns:rdf="http://www.w3.org/1999/02/22-rdf-syntax-ns#">
   <cc:Work>
    <dc:type rdf:resource="http://purl.org/dc/dcmitype/StillImage"/>
    <dc:date>2020-09-27T17:03:18.404349</dc:date>
    <dc:format>image/svg+xml</dc:format>
    <dc:creator>
     <cc:Agent>
      <dc:title>Matplotlib v3.3.2, https://matplotlib.org/</dc:title>
     </cc:Agent>
    </dc:creator>
   </cc:Work>
  </rdf:RDF>
 </metadata>
 <defs>
  <style type="text/css">*{stroke-linecap:butt;stroke-linejoin:round;}</style>
 </defs>
 <g id="figure_1">
  <g id="patch_1">
   <path d="M 0 250.45375 
L 386.74 250.45375 
L 386.74 0 
L 0 0 
z
" style="fill:#ffffff;"/>
  </g>
  <g id="axes_1">
   <g id="patch_2">
    <path d="M 44.74 224.64 
L 379.54 224.64 
L 379.54 7.2 
L 44.74 7.2 
z
" style="fill:#e5e5e5;"/>
   </g>
   <g id="matplotlib.axis_1">
    <g id="xtick_1">
     <g id="line2d_1">
      <path clip-path="url(#pcb44641e7b)" d="M 87.627603 224.64 
L 87.627603 7.2 
" style="fill:none;stroke:#ffffff;stroke-linecap:square;stroke-width:0.8;"/>
     </g>
     <g id="line2d_2">
      <defs>
       <path d="M 0 0 
L 0 3.5 
" id="mf59cd454d6" style="stroke:#555555;stroke-width:0.8;"/>
      </defs>
      <g>
       <use style="fill:#555555;stroke:#555555;stroke-width:0.8;" x="87.627603" xlink:href="#mf59cd454d6" y="224.64"/>
      </g>
     </g>
     <g id="text_1">
      <!-- 2 -->
      <g style="fill:#555555;" transform="translate(83.810103 240.758125)scale(0.12 -0.12)">
       <defs>
        <path d="M 19.1875 8.296875 
L 53.609375 8.296875 
L 53.609375 0 
L 7.328125 0 
L 7.328125 8.296875 
Q 12.9375 14.109375 22.625 23.890625 
Q 32.328125 33.6875 34.8125 36.53125 
Q 39.546875 41.84375 41.421875 45.53125 
Q 43.3125 49.21875 43.3125 52.78125 
Q 43.3125 58.59375 39.234375 62.25 
Q 35.15625 65.921875 28.609375 65.921875 
Q 23.96875 65.921875 18.8125 64.3125 
Q 13.671875 62.703125 7.8125 59.421875 
L 7.8125 69.390625 
Q 13.765625 71.78125 18.9375 73 
Q 24.125 74.21875 28.421875 74.21875 
Q 39.75 74.21875 46.484375 68.546875 
Q 53.21875 62.890625 53.21875 53.421875 
Q 53.21875 48.921875 51.53125 44.890625 
Q 49.859375 40.875 45.40625 35.40625 
Q 44.1875 33.984375 37.640625 27.21875 
Q 31.109375 20.453125 19.1875 8.296875 
z
" id="DejaVuSans-50"/>
       </defs>
       <use xlink:href="#DejaVuSans-50"/>
      </g>
     </g>
    </g>
    <g id="xtick_2">
     <g id="line2d_3">
      <path clip-path="url(#pcb44641e7b)" d="M 142.966446 224.64 
L 142.966446 7.2 
" style="fill:none;stroke:#ffffff;stroke-linecap:square;stroke-width:0.8;"/>
     </g>
     <g id="line2d_4">
      <g>
       <use style="fill:#555555;stroke:#555555;stroke-width:0.8;" x="142.966446" xlink:href="#mf59cd454d6" y="224.64"/>
      </g>
     </g>
     <g id="text_2">
      <!-- 4 -->
      <g style="fill:#555555;" transform="translate(139.148946 240.758125)scale(0.12 -0.12)">
       <defs>
        <path d="M 37.796875 64.3125 
L 12.890625 25.390625 
L 37.796875 25.390625 
z
M 35.203125 72.90625 
L 47.609375 72.90625 
L 47.609375 25.390625 
L 58.015625 25.390625 
L 58.015625 17.1875 
L 47.609375 17.1875 
L 47.609375 0 
L 37.796875 0 
L 37.796875 17.1875 
L 4.890625 17.1875 
L 4.890625 26.703125 
z
" id="DejaVuSans-52"/>
       </defs>
       <use xlink:href="#DejaVuSans-52"/>
      </g>
     </g>
    </g>
    <g id="xtick_3">
     <g id="line2d_5">
      <path clip-path="url(#pcb44641e7b)" d="M 198.305289 224.64 
L 198.305289 7.2 
" style="fill:none;stroke:#ffffff;stroke-linecap:square;stroke-width:0.8;"/>
     </g>
     <g id="line2d_6">
      <g>
       <use style="fill:#555555;stroke:#555555;stroke-width:0.8;" x="198.305289" xlink:href="#mf59cd454d6" y="224.64"/>
      </g>
     </g>
     <g id="text_3">
      <!-- 6 -->
      <g style="fill:#555555;" transform="translate(194.487789 240.758125)scale(0.12 -0.12)">
       <defs>
        <path d="M 33.015625 40.375 
Q 26.375 40.375 22.484375 35.828125 
Q 18.609375 31.296875 18.609375 23.390625 
Q 18.609375 15.53125 22.484375 10.953125 
Q 26.375 6.390625 33.015625 6.390625 
Q 39.65625 6.390625 43.53125 10.953125 
Q 47.40625 15.53125 47.40625 23.390625 
Q 47.40625 31.296875 43.53125 35.828125 
Q 39.65625 40.375 33.015625 40.375 
z
M 52.59375 71.296875 
L 52.59375 62.3125 
Q 48.875 64.0625 45.09375 64.984375 
Q 41.3125 65.921875 37.59375 65.921875 
Q 27.828125 65.921875 22.671875 59.328125 
Q 17.53125 52.734375 16.796875 39.40625 
Q 19.671875 43.65625 24.015625 45.921875 
Q 28.375 48.1875 33.59375 48.1875 
Q 44.578125 48.1875 50.953125 41.515625 
Q 57.328125 34.859375 57.328125 23.390625 
Q 57.328125 12.15625 50.6875 5.359375 
Q 44.046875 -1.421875 33.015625 -1.421875 
Q 20.359375 -1.421875 13.671875 8.265625 
Q 6.984375 17.96875 6.984375 36.375 
Q 6.984375 53.65625 15.1875 63.9375 
Q 23.390625 74.21875 37.203125 74.21875 
Q 40.921875 74.21875 44.703125 73.484375 
Q 48.484375 72.75 52.59375 71.296875 
z
" id="DejaVuSans-54"/>
       </defs>
       <use xlink:href="#DejaVuSans-54"/>
      </g>
     </g>
    </g>
    <g id="xtick_4">
     <g id="line2d_7">
      <path clip-path="url(#pcb44641e7b)" d="M 253.644132 224.64 
L 253.644132 7.2 
" style="fill:none;stroke:#ffffff;stroke-linecap:square;stroke-width:0.8;"/>
     </g>
     <g id="line2d_8">
      <g>
       <use style="fill:#555555;stroke:#555555;stroke-width:0.8;" x="253.644132" xlink:href="#mf59cd454d6" y="224.64"/>
      </g>
     </g>
     <g id="text_4">
      <!-- 8 -->
      <g style="fill:#555555;" transform="translate(249.826632 240.758125)scale(0.12 -0.12)">
       <defs>
        <path d="M 31.78125 34.625 
Q 24.75 34.625 20.71875 30.859375 
Q 16.703125 27.09375 16.703125 20.515625 
Q 16.703125 13.921875 20.71875 10.15625 
Q 24.75 6.390625 31.78125 6.390625 
Q 38.8125 6.390625 42.859375 10.171875 
Q 46.921875 13.96875 46.921875 20.515625 
Q 46.921875 27.09375 42.890625 30.859375 
Q 38.875 34.625 31.78125 34.625 
z
M 21.921875 38.8125 
Q 15.578125 40.375 12.03125 44.71875 
Q 8.5 49.078125 8.5 55.328125 
Q 8.5 64.0625 14.71875 69.140625 
Q 20.953125 74.21875 31.78125 74.21875 
Q 42.671875 74.21875 48.875 69.140625 
Q 55.078125 64.0625 55.078125 55.328125 
Q 55.078125 49.078125 51.53125 44.71875 
Q 48 40.375 41.703125 38.8125 
Q 48.828125 37.15625 52.796875 32.3125 
Q 56.78125 27.484375 56.78125 20.515625 
Q 56.78125 9.90625 50.3125 4.234375 
Q 43.84375 -1.421875 31.78125 -1.421875 
Q 19.734375 -1.421875 13.25 4.234375 
Q 6.78125 9.90625 6.78125 20.515625 
Q 6.78125 27.484375 10.78125 32.3125 
Q 14.796875 37.15625 21.921875 38.8125 
z
M 18.3125 54.390625 
Q 18.3125 48.734375 21.84375 45.5625 
Q 25.390625 42.390625 31.78125 42.390625 
Q 38.140625 42.390625 41.71875 45.5625 
Q 45.3125 48.734375 45.3125 54.390625 
Q 45.3125 60.0625 41.71875 63.234375 
Q 38.140625 66.40625 31.78125 66.40625 
Q 25.390625 66.40625 21.84375 63.234375 
Q 18.3125 60.0625 18.3125 54.390625 
z
" id="DejaVuSans-56"/>
       </defs>
       <use xlink:href="#DejaVuSans-56"/>
      </g>
     </g>
    </g>
    <g id="xtick_5">
     <g id="line2d_9">
      <path clip-path="url(#pcb44641e7b)" d="M 308.982975 224.64 
L 308.982975 7.2 
" style="fill:none;stroke:#ffffff;stroke-linecap:square;stroke-width:0.8;"/>
     </g>
     <g id="line2d_10">
      <g>
       <use style="fill:#555555;stroke:#555555;stroke-width:0.8;" x="308.982975" xlink:href="#mf59cd454d6" y="224.64"/>
      </g>
     </g>
     <g id="text_5">
      <!-- 10 -->
      <g style="fill:#555555;" transform="translate(301.347975 240.758125)scale(0.12 -0.12)">
       <defs>
        <path d="M 12.40625 8.296875 
L 28.515625 8.296875 
L 28.515625 63.921875 
L 10.984375 60.40625 
L 10.984375 69.390625 
L 28.421875 72.90625 
L 38.28125 72.90625 
L 38.28125 8.296875 
L 54.390625 8.296875 
L 54.390625 0 
L 12.40625 0 
z
" id="DejaVuSans-49"/>
        <path d="M 31.78125 66.40625 
Q 24.171875 66.40625 20.328125 58.90625 
Q 16.5 51.421875 16.5 36.375 
Q 16.5 21.390625 20.328125 13.890625 
Q 24.171875 6.390625 31.78125 6.390625 
Q 39.453125 6.390625 43.28125 13.890625 
Q 47.125 21.390625 47.125 36.375 
Q 47.125 51.421875 43.28125 58.90625 
Q 39.453125 66.40625 31.78125 66.40625 
z
M 31.78125 74.21875 
Q 44.046875 74.21875 50.515625 64.515625 
Q 56.984375 54.828125 56.984375 36.375 
Q 56.984375 17.96875 50.515625 8.265625 
Q 44.046875 -1.421875 31.78125 -1.421875 
Q 19.53125 -1.421875 13.0625 8.265625 
Q 6.59375 17.96875 6.59375 36.375 
Q 6.59375 54.828125 13.0625 64.515625 
Q 19.53125 74.21875 31.78125 74.21875 
z
" id="DejaVuSans-48"/>
       </defs>
       <use xlink:href="#DejaVuSans-49"/>
       <use x="63.623047" xlink:href="#DejaVuSans-48"/>
      </g>
     </g>
    </g>
    <g id="xtick_6">
     <g id="line2d_11">
      <path clip-path="url(#pcb44641e7b)" d="M 364.321818 224.64 
L 364.321818 7.2 
" style="fill:none;stroke:#ffffff;stroke-linecap:square;stroke-width:0.8;"/>
     </g>
     <g id="line2d_12">
      <g>
       <use style="fill:#555555;stroke:#555555;stroke-width:0.8;" x="364.321818" xlink:href="#mf59cd454d6" y="224.64"/>
      </g>
     </g>
     <g id="text_6">
      <!-- 12 -->
      <g style="fill:#555555;" transform="translate(356.686818 240.758125)scale(0.12 -0.12)">
       <use xlink:href="#DejaVuSans-49"/>
       <use x="63.623047" xlink:href="#DejaVuSans-50"/>
      </g>
     </g>
    </g>
   </g>
   <g id="matplotlib.axis_2">
    <g id="ytick_1">
     <g id="line2d_13">
      <path clip-path="url(#pcb44641e7b)" d="M 44.74 224.64 
L 379.54 224.64 
" style="fill:none;stroke:#ffffff;stroke-linecap:square;stroke-width:0.8;"/>
     </g>
     <g id="line2d_14">
      <defs>
       <path d="M 0 0 
L -3.5 0 
" id="mca66758800" style="stroke:#555555;stroke-width:0.8;"/>
      </defs>
      <g>
       <use style="fill:#555555;stroke:#555555;stroke-width:0.8;" x="44.74" xlink:href="#mca66758800" y="224.64"/>
      </g>
     </g>
     <g id="text_7">
      <!-- 0 -->
      <g style="fill:#555555;" transform="translate(30.105 229.199062)scale(0.12 -0.12)">
       <use xlink:href="#DejaVuSans-48"/>
      </g>
     </g>
    </g>
    <g id="ytick_2">
     <g id="line2d_15">
      <path clip-path="url(#pcb44641e7b)" d="M 44.74 183.842972 
L 379.54 183.842972 
" style="fill:none;stroke:#ffffff;stroke-linecap:square;stroke-width:0.8;"/>
     </g>
     <g id="line2d_16">
      <g>
       <use style="fill:#555555;stroke:#555555;stroke-width:0.8;" x="44.74" xlink:href="#mca66758800" y="183.842972"/>
      </g>
     </g>
     <g id="text_8">
      <!-- 1000 -->
      <g style="fill:#555555;" transform="translate(7.2 188.402034)scale(0.12 -0.12)">
       <use xlink:href="#DejaVuSans-49"/>
       <use x="63.623047" xlink:href="#DejaVuSans-48"/>
       <use x="127.246094" xlink:href="#DejaVuSans-48"/>
       <use x="190.869141" xlink:href="#DejaVuSans-48"/>
      </g>
     </g>
    </g>
    <g id="ytick_3">
     <g id="line2d_17">
      <path clip-path="url(#pcb44641e7b)" d="M 44.74 143.045944 
L 379.54 143.045944 
" style="fill:none;stroke:#ffffff;stroke-linecap:square;stroke-width:0.8;"/>
     </g>
     <g id="line2d_18">
      <g>
       <use style="fill:#555555;stroke:#555555;stroke-width:0.8;" x="44.74" xlink:href="#mca66758800" y="143.045944"/>
      </g>
     </g>
     <g id="text_9">
      <!-- 2000 -->
      <g style="fill:#555555;" transform="translate(7.2 147.605006)scale(0.12 -0.12)">
       <use xlink:href="#DejaVuSans-50"/>
       <use x="63.623047" xlink:href="#DejaVuSans-48"/>
       <use x="127.246094" xlink:href="#DejaVuSans-48"/>
       <use x="190.869141" xlink:href="#DejaVuSans-48"/>
      </g>
     </g>
    </g>
    <g id="ytick_4">
     <g id="line2d_19">
      <path clip-path="url(#pcb44641e7b)" d="M 44.74 102.248916 
L 379.54 102.248916 
" style="fill:none;stroke:#ffffff;stroke-linecap:square;stroke-width:0.8;"/>
     </g>
     <g id="line2d_20">
      <g>
       <use style="fill:#555555;stroke:#555555;stroke-width:0.8;" x="44.74" xlink:href="#mca66758800" y="102.248916"/>
      </g>
     </g>
     <g id="text_10">
      <!-- 3000 -->
      <g style="fill:#555555;" transform="translate(7.2 106.807978)scale(0.12 -0.12)">
       <defs>
        <path d="M 40.578125 39.3125 
Q 47.65625 37.796875 51.625 33 
Q 55.609375 28.21875 55.609375 21.1875 
Q 55.609375 10.40625 48.1875 4.484375 
Q 40.765625 -1.421875 27.09375 -1.421875 
Q 22.515625 -1.421875 17.65625 -0.515625 
Q 12.796875 0.390625 7.625 2.203125 
L 7.625 11.71875 
Q 11.71875 9.328125 16.59375 8.109375 
Q 21.484375 6.890625 26.8125 6.890625 
Q 36.078125 6.890625 40.9375 10.546875 
Q 45.796875 14.203125 45.796875 21.1875 
Q 45.796875 27.640625 41.28125 31.265625 
Q 36.765625 34.90625 28.71875 34.90625 
L 20.21875 34.90625 
L 20.21875 43.015625 
L 29.109375 43.015625 
Q 36.375 43.015625 40.234375 45.921875 
Q 44.09375 48.828125 44.09375 54.296875 
Q 44.09375 59.90625 40.109375 62.90625 
Q 36.140625 65.921875 28.71875 65.921875 
Q 24.65625 65.921875 20.015625 65.03125 
Q 15.375 64.15625 9.8125 62.3125 
L 9.8125 71.09375 
Q 15.4375 72.65625 20.34375 73.4375 
Q 25.25 74.21875 29.59375 74.21875 
Q 40.828125 74.21875 47.359375 69.109375 
Q 53.90625 64.015625 53.90625 55.328125 
Q 53.90625 49.265625 50.4375 45.09375 
Q 46.96875 40.921875 40.578125 39.3125 
z
" id="DejaVuSans-51"/>
       </defs>
       <use xlink:href="#DejaVuSans-51"/>
       <use x="63.623047" xlink:href="#DejaVuSans-48"/>
       <use x="127.246094" xlink:href="#DejaVuSans-48"/>
       <use x="190.869141" xlink:href="#DejaVuSans-48"/>
      </g>
     </g>
    </g>
    <g id="ytick_5">
     <g id="line2d_21">
      <path clip-path="url(#pcb44641e7b)" d="M 44.74 61.451888 
L 379.54 61.451888 
" style="fill:none;stroke:#ffffff;stroke-linecap:square;stroke-width:0.8;"/>
     </g>
     <g id="line2d_22">
      <g>
       <use style="fill:#555555;stroke:#555555;stroke-width:0.8;" x="44.74" xlink:href="#mca66758800" y="61.451888"/>
      </g>
     </g>
     <g id="text_11">
      <!-- 4000 -->
      <g style="fill:#555555;" transform="translate(7.2 66.01095)scale(0.12 -0.12)">
       <use xlink:href="#DejaVuSans-52"/>
       <use x="63.623047" xlink:href="#DejaVuSans-48"/>
       <use x="127.246094" xlink:href="#DejaVuSans-48"/>
       <use x="190.869141" xlink:href="#DejaVuSans-48"/>
      </g>
     </g>
    </g>
    <g id="ytick_6">
     <g id="line2d_23">
      <path clip-path="url(#pcb44641e7b)" d="M 44.74 20.65486 
L 379.54 20.65486 
" style="fill:none;stroke:#ffffff;stroke-linecap:square;stroke-width:0.8;"/>
     </g>
     <g id="line2d_24">
      <g>
       <use style="fill:#555555;stroke:#555555;stroke-width:0.8;" x="44.74" xlink:href="#mca66758800" y="20.65486"/>
      </g>
     </g>
     <g id="text_12">
      <!-- 5000 -->
      <g style="fill:#555555;" transform="translate(7.2 25.213922)scale(0.12 -0.12)">
       <defs>
        <path d="M 10.796875 72.90625 
L 49.515625 72.90625 
L 49.515625 64.59375 
L 19.828125 64.59375 
L 19.828125 46.734375 
Q 21.96875 47.46875 24.109375 47.828125 
Q 26.265625 48.1875 28.421875 48.1875 
Q 40.625 48.1875 47.75 41.5 
Q 54.890625 34.8125 54.890625 23.390625 
Q 54.890625 11.625 47.5625 5.09375 
Q 40.234375 -1.421875 26.90625 -1.421875 
Q 22.3125 -1.421875 17.546875 -0.640625 
Q 12.796875 0.140625 7.71875 1.703125 
L 7.71875 11.625 
Q 12.109375 9.234375 16.796875 8.0625 
Q 21.484375 6.890625 26.703125 6.890625 
Q 35.15625 6.890625 40.078125 11.328125 
Q 45.015625 15.765625 45.015625 23.390625 
Q 45.015625 31 40.078125 35.4375 
Q 35.15625 39.890625 26.703125 39.890625 
Q 22.75 39.890625 18.8125 39.015625 
Q 14.890625 38.140625 10.796875 36.28125 
z
" id="DejaVuSans-53"/>
       </defs>
       <use xlink:href="#DejaVuSans-53"/>
       <use x="63.623047" xlink:href="#DejaVuSans-48"/>
       <use x="127.246094" xlink:href="#DejaVuSans-48"/>
       <use x="190.869141" xlink:href="#DejaVuSans-48"/>
      </g>
     </g>
    </g>
   </g>
   <g id="patch_3">
    <path clip-path="url(#pcb44641e7b)" d="M 59.958182 224.64 
L 66.045455 224.64 
L 66.045455 17.554286 
L 59.958182 17.554286 
z
" style="fill:#e24a33;"/>
   </g>
   <g id="patch_4">
    <path clip-path="url(#pcb44641e7b)" d="M 66.045455 224.64 
L 72.132727 224.64 
L 72.132727 224.64 
L 66.045455 224.64 
z
" style="fill:#e24a33;"/>
   </g>
   <g id="patch_5">
    <path clip-path="url(#pcb44641e7b)" d="M 72.132727 224.64 
L 78.22 224.64 
L 78.22 224.64 
L 72.132727 224.64 
z
" style="fill:#e24a33;"/>
   </g>
   <g id="patch_6">
    <path clip-path="url(#pcb44641e7b)" d="M 78.22 224.64 
L 84.307273 224.64 
L 84.307273 224.64 
L 78.22 224.64 
z
" style="fill:#e24a33;"/>
   </g>
   <g id="patch_7">
    <path clip-path="url(#pcb44641e7b)" d="M 84.307273 224.64 
L 90.394545 224.64 
L 90.394545 122.198663 
L 84.307273 122.198663 
z
" style="fill:#e24a33;"/>
   </g>
   <g id="patch_8">
    <path clip-path="url(#pcb44641e7b)" d="M 90.394545 224.64 
L 96.481818 224.64 
L 96.481818 224.64 
L 90.394545 224.64 
z
" style="fill:#e24a33;"/>
   </g>
   <g id="patch_9">
    <path clip-path="url(#pcb44641e7b)" d="M 96.481818 224.64 
L 102.569091 224.64 
L 102.569091 224.64 
L 96.481818 224.64 
z
" style="fill:#e24a33;"/>
   </g>
   <g id="patch_10">
    <path clip-path="url(#pcb44641e7b)" d="M 102.569091 224.64 
L 108.656364 224.64 
L 108.656364 224.64 
L 102.569091 224.64 
z
" style="fill:#e24a33;"/>
   </g>
   <g id="patch_11">
    <path clip-path="url(#pcb44641e7b)" d="M 108.656364 224.64 
L 114.743636 224.64 
L 114.743636 224.64 
L 108.656364 224.64 
z
" style="fill:#e24a33;"/>
   </g>
   <g id="patch_12">
    <path clip-path="url(#pcb44641e7b)" d="M 114.743636 224.64 
L 120.830909 224.64 
L 120.830909 174.990017 
L 114.743636 174.990017 
z
" style="fill:#e24a33;"/>
   </g>
   <g id="patch_13">
    <path clip-path="url(#pcb44641e7b)" d="M 120.830909 224.64 
L 126.918182 224.64 
L 126.918182 224.64 
L 120.830909 224.64 
z
" style="fill:#e24a33;"/>
   </g>
   <g id="patch_14">
    <path clip-path="url(#pcb44641e7b)" d="M 126.918182 224.64 
L 133.005455 224.64 
L 133.005455 224.64 
L 126.918182 224.64 
z
" style="fill:#e24a33;"/>
   </g>
   <g id="patch_15">
    <path clip-path="url(#pcb44641e7b)" d="M 133.005455 224.64 
L 139.092727 224.64 
L 139.092727 224.64 
L 133.005455 224.64 
z
" style="fill:#e24a33;"/>
   </g>
   <g id="patch_16">
    <path clip-path="url(#pcb44641e7b)" d="M 139.092727 224.64 
L 145.18 224.64 
L 145.18 200.89613 
L 139.092727 200.89613 
z
" style="fill:#e24a33;"/>
   </g>
   <g id="patch_17">
    <path clip-path="url(#pcb44641e7b)" d="M 145.18 224.64 
L 151.267273 224.64 
L 151.267273 224.64 
L 145.18 224.64 
z
" style="fill:#e24a33;"/>
   </g>
   <g id="patch_18">
    <path clip-path="url(#pcb44641e7b)" d="M 151.267273 224.64 
L 157.354545 224.64 
L 157.354545 224.64 
L 151.267273 224.64 
z
" style="fill:#e24a33;"/>
   </g>
   <g id="patch_19">
    <path clip-path="url(#pcb44641e7b)" d="M 157.354545 224.64 
L 163.441818 224.64 
L 163.441818 224.64 
L 157.354545 224.64 
z
" style="fill:#e24a33;"/>
   </g>
   <g id="patch_20">
    <path clip-path="url(#pcb44641e7b)" d="M 163.441818 224.64 
L 169.529091 224.64 
L 169.529091 224.64 
L 163.441818 224.64 
z
" style="fill:#e24a33;"/>
   </g>
   <g id="patch_21">
    <path clip-path="url(#pcb44641e7b)" d="M 169.529091 224.64 
L 175.616364 224.64 
L 175.616364 211.095387 
L 169.529091 211.095387 
z
" style="fill:#e24a33;"/>
   </g>
   <g id="patch_22">
    <path clip-path="url(#pcb44641e7b)" d="M 175.616364 224.64 
L 181.703636 224.64 
L 181.703636 224.64 
L 175.616364 224.64 
z
" style="fill:#e24a33;"/>
   </g>
   <g id="patch_23">
    <path clip-path="url(#pcb44641e7b)" d="M 181.703636 224.64 
L 187.790909 224.64 
L 187.790909 224.64 
L 181.703636 224.64 
z
" style="fill:#e24a33;"/>
   </g>
   <g id="patch_24">
    <path clip-path="url(#pcb44641e7b)" d="M 187.790909 224.64 
L 193.878182 224.64 
L 193.878182 224.64 
L 187.790909 224.64 
z
" style="fill:#e24a33;"/>
   </g>
   <g id="patch_25">
    <path clip-path="url(#pcb44641e7b)" d="M 193.878182 224.64 
L 199.965455 224.64 
L 199.965455 218.724431 
L 193.878182 218.724431 
z
" style="fill:#e24a33;"/>
   </g>
   <g id="patch_26">
    <path clip-path="url(#pcb44641e7b)" d="M 199.965455 224.64 
L 206.052727 224.64 
L 206.052727 224.64 
L 199.965455 224.64 
z
" style="fill:#e24a33;"/>
   </g>
   <g id="patch_27">
    <path clip-path="url(#pcb44641e7b)" d="M 206.052727 224.64 
L 212.14 224.64 
L 212.14 224.64 
L 206.052727 224.64 
z
" style="fill:#e24a33;"/>
   </g>
   <g id="patch_28">
    <path clip-path="url(#pcb44641e7b)" d="M 212.14 224.64 
L 218.227273 224.64 
L 218.227273 224.64 
L 212.14 224.64 
z
" style="fill:#e24a33;"/>
   </g>
   <g id="patch_29">
    <path clip-path="url(#pcb44641e7b)" d="M 218.227273 224.64 
L 224.314545 224.64 
L 224.314545 224.64 
L 218.227273 224.64 
z
" style="fill:#e24a33;"/>
   </g>
   <g id="patch_30">
    <path clip-path="url(#pcb44641e7b)" d="M 224.314545 224.64 
L 230.401818 224.64 
L 230.401818 221.661817 
L 224.314545 221.661817 
z
" style="fill:#e24a33;"/>
   </g>
   <g id="patch_31">
    <path clip-path="url(#pcb44641e7b)" d="M 230.401818 224.64 
L 236.489091 224.64 
L 236.489091 224.64 
L 230.401818 224.64 
z
" style="fill:#e24a33;"/>
   </g>
   <g id="patch_32">
    <path clip-path="url(#pcb44641e7b)" d="M 236.489091 224.64 
L 242.576364 224.64 
L 242.576364 224.64 
L 236.489091 224.64 
z
" style="fill:#e24a33;"/>
   </g>
   <g id="patch_33">
    <path clip-path="url(#pcb44641e7b)" d="M 242.576364 224.64 
L 248.663636 224.64 
L 248.663636 224.64 
L 242.576364 224.64 
z
" style="fill:#e24a33;"/>
   </g>
   <g id="patch_34">
    <path clip-path="url(#pcb44641e7b)" d="M 248.663636 224.64 
L 254.750909 224.64 
L 254.750909 223.456886 
L 248.663636 223.456886 
z
" style="fill:#e24a33;"/>
   </g>
   <g id="patch_35">
    <path clip-path="url(#pcb44641e7b)" d="M 254.750909 224.64 
L 260.838182 224.64 
L 260.838182 224.64 
L 254.750909 224.64 
z
" style="fill:#e24a33;"/>
   </g>
   <g id="patch_36">
    <path clip-path="url(#pcb44641e7b)" d="M 260.838182 224.64 
L 266.925455 224.64 
L 266.925455 224.64 
L 260.838182 224.64 
z
" style="fill:#e24a33;"/>
   </g>
   <g id="patch_37">
    <path clip-path="url(#pcb44641e7b)" d="M 266.925455 224.64 
L 273.012727 224.64 
L 273.012727 224.64 
L 266.925455 224.64 
z
" style="fill:#e24a33;"/>
   </g>
   <g id="patch_38">
    <path clip-path="url(#pcb44641e7b)" d="M 273.012727 224.64 
L 279.1 224.64 
L 279.1 224.64 
L 273.012727 224.64 
z
" style="fill:#e24a33;"/>
   </g>
   <g id="patch_39">
    <path clip-path="url(#pcb44641e7b)" d="M 279.1 224.64 
L 285.187273 224.64 
L 285.187273 223.783262 
L 279.1 223.783262 
z
" style="fill:#e24a33;"/>
   </g>
   <g id="patch_40">
    <path clip-path="url(#pcb44641e7b)" d="M 285.187273 224.64 
L 291.274545 224.64 
L 291.274545 224.64 
L 285.187273 224.64 
z
" style="fill:#e24a33;"/>
   </g>
   <g id="patch_41">
    <path clip-path="url(#pcb44641e7b)" d="M 291.274545 224.64 
L 297.361818 224.64 
L 297.361818 224.64 
L 291.274545 224.64 
z
" style="fill:#e24a33;"/>
   </g>
   <g id="patch_42">
    <path clip-path="url(#pcb44641e7b)" d="M 297.361818 224.64 
L 303.449091 224.64 
L 303.449091 224.64 
L 297.361818 224.64 
z
" style="fill:#e24a33;"/>
   </g>
   <g id="patch_43">
    <path clip-path="url(#pcb44641e7b)" d="M 303.449091 224.64 
L 309.536364 224.64 
L 309.536364 224.354421 
L 303.449091 224.354421 
z
" style="fill:#e24a33;"/>
   </g>
   <g id="patch_44">
    <path clip-path="url(#pcb44641e7b)" d="M 309.536364 224.64 
L 315.623636 224.64 
L 315.623636 224.64 
L 309.536364 224.64 
z
" style="fill:#e24a33;"/>
   </g>
   <g id="patch_45">
    <path clip-path="url(#pcb44641e7b)" d="M 315.623636 224.64 
L 321.710909 224.64 
L 321.710909 224.64 
L 315.623636 224.64 
z
" style="fill:#e24a33;"/>
   </g>
   <g id="patch_46">
    <path clip-path="url(#pcb44641e7b)" d="M 321.710909 224.64 
L 327.798182 224.64 
L 327.798182 224.64 
L 321.710909 224.64 
z
" style="fill:#e24a33;"/>
   </g>
   <g id="patch_47">
    <path clip-path="url(#pcb44641e7b)" d="M 327.798182 224.64 
L 333.885455 224.64 
L 333.885455 224.64 
L 327.798182 224.64 
z
" style="fill:#e24a33;"/>
   </g>
   <g id="patch_48">
    <path clip-path="url(#pcb44641e7b)" d="M 333.885455 224.64 
L 339.972727 224.64 
L 339.972727 224.436015 
L 333.885455 224.436015 
z
" style="fill:#e24a33;"/>
   </g>
   <g id="patch_49">
    <path clip-path="url(#pcb44641e7b)" d="M 339.972727 224.64 
L 346.06 224.64 
L 346.06 224.64 
L 339.972727 224.64 
z
" style="fill:#e24a33;"/>
   </g>
   <g id="patch_50">
    <path clip-path="url(#pcb44641e7b)" d="M 346.06 224.64 
L 352.147273 224.64 
L 352.147273 224.64 
L 346.06 224.64 
z
" style="fill:#e24a33;"/>
   </g>
   <g id="patch_51">
    <path clip-path="url(#pcb44641e7b)" d="M 352.147273 224.64 
L 358.234545 224.64 
L 358.234545 224.64 
L 352.147273 224.64 
z
" style="fill:#e24a33;"/>
   </g>
   <g id="patch_52">
    <path clip-path="url(#pcb44641e7b)" d="M 358.234545 224.64 
L 364.321818 224.64 
L 364.321818 224.558406 
L 358.234545 224.558406 
z
" style="fill:#e24a33;"/>
   </g>
   <g id="patch_53">
    <path d="M 44.74 224.64 
L 44.74 7.2 
" style="fill:none;stroke:#ffffff;stroke-linecap:square;stroke-linejoin:miter;"/>
   </g>
   <g id="patch_54">
    <path d="M 379.54 224.64 
L 379.54 7.2 
" style="fill:none;stroke:#ffffff;stroke-linecap:square;stroke-linejoin:miter;"/>
   </g>
   <g id="patch_55">
    <path d="M 44.74 224.64 
L 379.54 224.64 
" style="fill:none;stroke:#ffffff;stroke-linecap:square;stroke-linejoin:miter;"/>
   </g>
   <g id="patch_56">
    <path d="M 44.74 7.2 
L 379.54 7.2 
" style="fill:none;stroke:#ffffff;stroke-linecap:square;stroke-linejoin:miter;"/>
   </g>
  </g>
 </g>
 <defs>
  <clipPath id="pcb44641e7b">
   <rect height="217.44" width="334.8" x="44.74" y="7.2"/>
  </clipPath>
 </defs>
</svg>
