<?xml version="1.0" encoding="utf-8" standalone="no"?>
<!DOCTYPE svg PUBLIC "-//W3C//DTD SVG 1.1//EN"
  "http://www.w3.org/Graphics/SVG/1.1/DTD/svg11.dtd">
<!-- Created with matplotlib (https://matplotlib.org/) -->
<svg height="205.654844pt" version="1.1" viewBox="0 0 912.437631 205.654844" width="912.437631pt" xmlns="http://www.w3.org/2000/svg" xmlns:xlink="http://www.w3.org/1999/xlink">
 <metadata>
  <rdf:RDF xmlns:cc="http://creativecommons.org/ns#" xmlns:dc="http://purl.org/dc/elements/1.1/" xmlns:rdf="http://www.w3.org/1999/02/22-rdf-syntax-ns#">
   <cc:Work>
    <dc:type rdf:resource="http://purl.org/dc/dcmitype/StillImage"/>
    <dc:date>2020-10-19T19:38:58.860719</dc:date>
    <dc:format>image/svg+xml</dc:format>
    <dc:creator>
     <cc:Agent>
      <dc:title>Matplotlib v3.3.2, https://matplotlib.org/</dc:title>
     </cc:Agent>
    </dc:creator>
   </cc:Work>
  </rdf:RDF>
 </metadata>
 <defs>
  <style type="text/css">*{stroke-linecap:butt;stroke-linejoin:round;}</style>
 </defs>
 <g id="figure_1">
  <g id="patch_1">
   <path d="M 0 205.654844 
L 912.437631 205.654844 
L 912.437631 0 
L 0 0 
z
" style="fill:#ffffff;"/>
  </g>
  <g id="axes_1">
   <g id="patch_2">
    <path d="M 38.107031 163.78 
L 845.992131 163.78 
L 845.992131 7.2 
L 38.107031 7.2 
z
" style="fill:#eaeaf2;"/>
   </g>
   <g id="matplotlib.axis_1">
    <g id="xtick_1">
     <g id="line2d_1">
      <path clip-path="url(#p452bdbf05e)" d="M 38.107031 163.78 
L 38.107031 7.2 
" style="fill:none;stroke:#ffffff;stroke-linecap:round;"/>
     </g>
     <g id="text_1">
      <!-- 0.0 -->
      <g style="fill:#262626;" transform="translate(30.462031 181.153594)scale(0.11 -0.11)">
       <defs>
        <path d="M 4.15625 35.296875 
Q 4.15625 48 6.765625 55.734375 
Q 9.375 63.484375 14.515625 67.671875 
Q 19.671875 71.875 27.484375 71.875 
Q 33.25 71.875 37.59375 69.546875 
Q 41.9375 67.234375 44.765625 62.859375 
Q 47.609375 58.5 49.21875 52.21875 
Q 50.828125 45.953125 50.828125 35.296875 
Q 50.828125 22.703125 48.234375 14.96875 
Q 45.65625 7.234375 40.5 3 
Q 35.359375 -1.21875 27.484375 -1.21875 
Q 17.140625 -1.21875 11.234375 6.203125 
Q 4.15625 15.140625 4.15625 35.296875 
z
M 13.1875 35.296875 
Q 13.1875 17.671875 17.3125 11.828125 
Q 21.4375 6 27.484375 6 
Q 33.546875 6 37.671875 11.859375 
Q 41.796875 17.71875 41.796875 35.296875 
Q 41.796875 52.984375 37.671875 58.78125 
Q 33.546875 64.59375 27.390625 64.59375 
Q 21.34375 64.59375 17.71875 59.46875 
Q 13.1875 52.9375 13.1875 35.296875 
z
" id="ArialMT-48"/>
        <path d="M 9.078125 0 
L 9.078125 10.015625 
L 19.09375 10.015625 
L 19.09375 0 
z
" id="ArialMT-46"/>
       </defs>
       <use xlink:href="#ArialMT-48"/>
       <use x="55.615234" xlink:href="#ArialMT-46"/>
       <use x="83.398438" xlink:href="#ArialMT-48"/>
      </g>
     </g>
    </g>
    <g id="xtick_2">
     <g id="line2d_2">
      <path clip-path="url(#p452bdbf05e)" d="M 139.092669 163.78 
L 139.092669 7.2 
" style="fill:none;stroke:#ffffff;stroke-linecap:round;"/>
     </g>
     <g id="text_2">
      <!-- 2.5 -->
      <g style="fill:#262626;" transform="translate(131.447669 181.153594)scale(0.11 -0.11)">
       <defs>
        <path d="M 50.34375 8.453125 
L 50.34375 0 
L 3.03125 0 
Q 2.9375 3.171875 4.046875 6.109375 
Q 5.859375 10.9375 9.828125 15.625 
Q 13.8125 20.3125 21.34375 26.46875 
Q 33.015625 36.03125 37.109375 41.625 
Q 41.21875 47.21875 41.21875 52.203125 
Q 41.21875 57.421875 37.46875 61 
Q 33.734375 64.59375 27.734375 64.59375 
Q 21.390625 64.59375 17.578125 60.78125 
Q 13.765625 56.984375 13.71875 50.25 
L 4.6875 51.171875 
Q 5.609375 61.28125 11.65625 66.578125 
Q 17.71875 71.875 27.9375 71.875 
Q 38.234375 71.875 44.234375 66.15625 
Q 50.25 60.453125 50.25 52 
Q 50.25 47.703125 48.484375 43.546875 
Q 46.734375 39.40625 42.65625 34.8125 
Q 38.578125 30.21875 29.109375 22.21875 
Q 21.1875 15.578125 18.9375 13.203125 
Q 16.703125 10.84375 15.234375 8.453125 
z
" id="ArialMT-50"/>
        <path d="M 4.15625 18.75 
L 13.375 19.53125 
Q 14.40625 12.796875 18.140625 9.390625 
Q 21.875 6 27.15625 6 
Q 33.5 6 37.890625 10.78125 
Q 42.28125 15.578125 42.28125 23.484375 
Q 42.28125 31 38.0625 35.34375 
Q 33.84375 39.703125 27 39.703125 
Q 22.75 39.703125 19.328125 37.765625 
Q 15.921875 35.84375 13.96875 32.765625 
L 5.71875 33.84375 
L 12.640625 70.609375 
L 48.25 70.609375 
L 48.25 62.203125 
L 19.671875 62.203125 
L 15.828125 42.96875 
Q 22.265625 47.46875 29.34375 47.46875 
Q 38.71875 47.46875 45.15625 40.96875 
Q 51.609375 34.46875 51.609375 24.265625 
Q 51.609375 14.546875 45.953125 7.46875 
Q 39.0625 -1.21875 27.15625 -1.21875 
Q 17.390625 -1.21875 11.203125 4.25 
Q 5.03125 9.71875 4.15625 18.75 
z
" id="ArialMT-53"/>
       </defs>
       <use xlink:href="#ArialMT-50"/>
       <use x="55.615234" xlink:href="#ArialMT-46"/>
       <use x="83.398438" xlink:href="#ArialMT-53"/>
      </g>
     </g>
    </g>
    <g id="xtick_3">
     <g id="line2d_3">
      <path clip-path="url(#p452bdbf05e)" d="M 240.078306 163.78 
L 240.078306 7.2 
" style="fill:none;stroke:#ffffff;stroke-linecap:round;"/>
     </g>
     <g id="text_3">
      <!-- 5.0 -->
      <g style="fill:#262626;" transform="translate(232.433306 181.153594)scale(0.11 -0.11)">
       <use xlink:href="#ArialMT-53"/>
       <use x="55.615234" xlink:href="#ArialMT-46"/>
       <use x="83.398438" xlink:href="#ArialMT-48"/>
      </g>
     </g>
    </g>
    <g id="xtick_4">
     <g id="line2d_4">
      <path clip-path="url(#p452bdbf05e)" d="M 341.063944 163.78 
L 341.063944 7.2 
" style="fill:none;stroke:#ffffff;stroke-linecap:round;"/>
     </g>
     <g id="text_4">
      <!-- 7.5 -->
      <g style="fill:#262626;" transform="translate(333.418944 181.153594)scale(0.11 -0.11)">
       <defs>
        <path d="M 4.734375 62.203125 
L 4.734375 70.65625 
L 51.078125 70.65625 
L 51.078125 63.8125 
Q 44.234375 56.546875 37.515625 44.484375 
Q 30.8125 32.421875 27.15625 19.671875 
Q 24.515625 10.6875 23.78125 0 
L 14.75 0 
Q 14.890625 8.453125 18.0625 20.40625 
Q 21.234375 32.375 27.171875 43.484375 
Q 33.109375 54.59375 39.796875 62.203125 
z
" id="ArialMT-55"/>
       </defs>
       <use xlink:href="#ArialMT-55"/>
       <use x="55.615234" xlink:href="#ArialMT-46"/>
       <use x="83.398438" xlink:href="#ArialMT-53"/>
      </g>
     </g>
    </g>
    <g id="xtick_5">
     <g id="line2d_5">
      <path clip-path="url(#p452bdbf05e)" d="M 442.049581 163.78 
L 442.049581 7.2 
" style="fill:none;stroke:#ffffff;stroke-linecap:round;"/>
     </g>
     <g id="text_5">
      <!-- 10.0 -->
      <g style="fill:#262626;" transform="translate(431.346066 181.153594)scale(0.11 -0.11)">
       <defs>
        <path d="M 37.25 0 
L 28.46875 0 
L 28.46875 56 
Q 25.296875 52.984375 20.140625 49.953125 
Q 14.984375 46.921875 10.890625 45.40625 
L 10.890625 53.90625 
Q 18.265625 57.375 23.78125 62.296875 
Q 29.296875 67.234375 31.59375 71.875 
L 37.25 71.875 
z
" id="ArialMT-49"/>
       </defs>
       <use xlink:href="#ArialMT-49"/>
       <use x="55.615234" xlink:href="#ArialMT-48"/>
       <use x="111.230469" xlink:href="#ArialMT-46"/>
       <use x="139.013672" xlink:href="#ArialMT-48"/>
      </g>
     </g>
    </g>
    <g id="xtick_6">
     <g id="line2d_6">
      <path clip-path="url(#p452bdbf05e)" d="M 543.035219 163.78 
L 543.035219 7.2 
" style="fill:none;stroke:#ffffff;stroke-linecap:round;"/>
     </g>
     <g id="text_6">
      <!-- 12.5 -->
      <g style="fill:#262626;" transform="translate(532.331703 181.153594)scale(0.11 -0.11)">
       <use xlink:href="#ArialMT-49"/>
       <use x="55.615234" xlink:href="#ArialMT-50"/>
       <use x="111.230469" xlink:href="#ArialMT-46"/>
       <use x="139.013672" xlink:href="#ArialMT-53"/>
      </g>
     </g>
    </g>
    <g id="xtick_7">
     <g id="line2d_7">
      <path clip-path="url(#p452bdbf05e)" d="M 644.020856 163.78 
L 644.020856 7.2 
" style="fill:none;stroke:#ffffff;stroke-linecap:round;"/>
     </g>
     <g id="text_7">
      <!-- 15.0 -->
      <g style="fill:#262626;" transform="translate(633.31734 181.153594)scale(0.11 -0.11)">
       <use xlink:href="#ArialMT-49"/>
       <use x="55.615234" xlink:href="#ArialMT-53"/>
       <use x="111.230469" xlink:href="#ArialMT-46"/>
       <use x="139.013672" xlink:href="#ArialMT-48"/>
      </g>
     </g>
    </g>
    <g id="xtick_8">
     <g id="line2d_8">
      <path clip-path="url(#p452bdbf05e)" d="M 745.006494 163.78 
L 745.006494 7.2 
" style="fill:none;stroke:#ffffff;stroke-linecap:round;"/>
     </g>
     <g id="text_8">
      <!-- 17.5 -->
      <g style="fill:#262626;" transform="translate(734.302978 181.153594)scale(0.11 -0.11)">
       <use xlink:href="#ArialMT-49"/>
       <use x="55.615234" xlink:href="#ArialMT-55"/>
       <use x="111.230469" xlink:href="#ArialMT-46"/>
       <use x="139.013672" xlink:href="#ArialMT-53"/>
      </g>
     </g>
    </g>
    <g id="xtick_9">
     <g id="line2d_9">
      <path clip-path="url(#p452bdbf05e)" d="M 845.992131 163.78 
L 845.992131 7.2 
" style="fill:none;stroke:#ffffff;stroke-linecap:round;"/>
     </g>
     <g id="text_9">
      <!-- 20.0 -->
      <g style="fill:#262626;" transform="translate(835.288615 181.153594)scale(0.11 -0.11)">
       <use xlink:href="#ArialMT-50"/>
       <use x="55.615234" xlink:href="#ArialMT-48"/>
       <use x="111.230469" xlink:href="#ArialMT-46"/>
       <use x="139.013672" xlink:href="#ArialMT-48"/>
      </g>
     </g>
    </g>
    <g id="text_10">
     <!-- Age -->
     <g style="fill:#262626;" transform="translate(431.374269 195.929219)scale(0.12 -0.12)">
      <defs>
       <path d="M -0.140625 0 
L 27.34375 71.578125 
L 37.546875 71.578125 
L 66.84375 0 
L 56.0625 0 
L 47.703125 21.6875 
L 17.78125 21.6875 
L 9.90625 0 
z
M 20.515625 29.390625 
L 44.78125 29.390625 
L 37.3125 49.21875 
Q 33.890625 58.25 32.234375 64.0625 
Q 30.859375 57.171875 28.375 50.390625 
z
" id="ArialMT-65"/>
       <path d="M 4.984375 -4.296875 
L 13.53125 -5.5625 
Q 14.0625 -9.515625 16.5 -11.328125 
Q 19.78125 -13.765625 25.4375 -13.765625 
Q 31.546875 -13.765625 34.859375 -11.328125 
Q 38.1875 -8.890625 39.359375 -4.5 
Q 40.046875 -1.8125 39.984375 6.78125 
Q 34.234375 0 25.640625 0 
Q 14.9375 0 9.078125 7.71875 
Q 3.21875 15.4375 3.21875 26.21875 
Q 3.21875 33.640625 5.90625 39.90625 
Q 8.59375 46.1875 13.6875 49.609375 
Q 18.796875 53.03125 25.6875 53.03125 
Q 34.859375 53.03125 40.828125 45.609375 
L 40.828125 51.859375 
L 48.921875 51.859375 
L 48.921875 7.03125 
Q 48.921875 -5.078125 46.453125 -10.125 
Q 44 -15.1875 38.640625 -18.109375 
Q 33.296875 -21.046875 25.484375 -21.046875 
Q 16.21875 -21.046875 10.5 -16.875 
Q 4.78125 -12.703125 4.984375 -4.296875 
z
M 12.25 26.859375 
Q 12.25 16.65625 16.296875 11.96875 
Q 20.359375 7.28125 26.46875 7.28125 
Q 32.515625 7.28125 36.609375 11.9375 
Q 40.71875 16.609375 40.71875 26.5625 
Q 40.71875 36.078125 36.5 40.90625 
Q 32.28125 45.75 26.3125 45.75 
Q 20.453125 45.75 16.34375 40.984375 
Q 12.25 36.234375 12.25 26.859375 
z
" id="ArialMT-103"/>
       <path d="M 42.09375 16.703125 
L 51.171875 15.578125 
Q 49.03125 7.625 43.21875 3.21875 
Q 37.40625 -1.171875 28.375 -1.171875 
Q 17 -1.171875 10.328125 5.828125 
Q 3.65625 12.84375 3.65625 25.484375 
Q 3.65625 38.578125 10.390625 45.796875 
Q 17.140625 53.03125 27.875 53.03125 
Q 38.28125 53.03125 44.875 45.953125 
Q 51.46875 38.875 51.46875 26.03125 
Q 51.46875 25.25 51.421875 23.6875 
L 12.75 23.6875 
Q 13.234375 15.140625 17.578125 10.59375 
Q 21.921875 6.0625 28.421875 6.0625 
Q 33.25 6.0625 36.671875 8.59375 
Q 40.09375 11.140625 42.09375 16.703125 
z
M 13.234375 30.90625 
L 42.1875 30.90625 
Q 41.609375 37.453125 38.875 40.71875 
Q 34.671875 45.796875 27.984375 45.796875 
Q 21.921875 45.796875 17.796875 41.75 
Q 13.671875 37.703125 13.234375 30.90625 
z
" id="ArialMT-101"/>
      </defs>
      <use xlink:href="#ArialMT-65"/>
      <use x="66.699219" xlink:href="#ArialMT-103"/>
      <use x="122.314453" xlink:href="#ArialMT-101"/>
     </g>
    </g>
   </g>
   <g id="matplotlib.axis_2">
    <g id="ytick_1">
     <g id="line2d_10">
      <path clip-path="url(#p452bdbf05e)" d="M 38.107031 163.78 
L 845.992131 163.78 
" style="fill:none;stroke:#ffffff;stroke-linecap:round;"/>
     </g>
     <g id="text_11">
      <!-- 0.00 -->
      <g style="fill:#262626;" transform="translate(7.2 167.716797)scale(0.11 -0.11)">
       <use xlink:href="#ArialMT-48"/>
       <use x="55.615234" xlink:href="#ArialMT-46"/>
       <use x="83.398438" xlink:href="#ArialMT-48"/>
       <use x="139.013672" xlink:href="#ArialMT-48"/>
      </g>
     </g>
    </g>
    <g id="ytick_2">
     <g id="line2d_11">
      <path clip-path="url(#p452bdbf05e)" d="M 38.107031 129.745952 
L 845.992131 129.745952 
" style="fill:none;stroke:#ffffff;stroke-linecap:round;"/>
     </g>
     <g id="text_12">
      <!-- 0.01 -->
      <g style="fill:#262626;" transform="translate(7.2 133.682749)scale(0.11 -0.11)">
       <use xlink:href="#ArialMT-48"/>
       <use x="55.615234" xlink:href="#ArialMT-46"/>
       <use x="83.398438" xlink:href="#ArialMT-48"/>
       <use x="139.013672" xlink:href="#ArialMT-49"/>
      </g>
     </g>
    </g>
    <g id="ytick_3">
     <g id="line2d_12">
      <path clip-path="url(#p452bdbf05e)" d="M 38.107031 95.711904 
L 845.992131 95.711904 
" style="fill:none;stroke:#ffffff;stroke-linecap:round;"/>
     </g>
     <g id="text_13">
      <!-- 0.02 -->
      <g style="fill:#262626;" transform="translate(7.2 99.648701)scale(0.11 -0.11)">
       <use xlink:href="#ArialMT-48"/>
       <use x="55.615234" xlink:href="#ArialMT-46"/>
       <use x="83.398438" xlink:href="#ArialMT-48"/>
       <use x="139.013672" xlink:href="#ArialMT-50"/>
      </g>
     </g>
    </g>
    <g id="ytick_4">
     <g id="line2d_13">
      <path clip-path="url(#p452bdbf05e)" d="M 38.107031 61.677855 
L 845.992131 61.677855 
" style="fill:none;stroke:#ffffff;stroke-linecap:round;"/>
     </g>
     <g id="text_14">
      <!-- 0.03 -->
      <g style="fill:#262626;" transform="translate(7.2 65.614652)scale(0.11 -0.11)">
       <defs>
        <path d="M 4.203125 18.890625 
L 12.984375 20.0625 
Q 14.5 12.59375 18.140625 9.296875 
Q 21.78125 6 27 6 
Q 33.203125 6 37.46875 10.296875 
Q 41.75 14.59375 41.75 20.953125 
Q 41.75 27 37.796875 30.921875 
Q 33.84375 34.859375 27.734375 34.859375 
Q 25.25 34.859375 21.53125 33.890625 
L 22.515625 41.609375 
Q 23.390625 41.5 23.921875 41.5 
Q 29.546875 41.5 34.03125 44.421875 
Q 38.53125 47.359375 38.53125 53.46875 
Q 38.53125 58.296875 35.25 61.46875 
Q 31.984375 64.65625 26.8125 64.65625 
Q 21.6875 64.65625 18.265625 61.421875 
Q 14.84375 58.203125 13.875 51.765625 
L 5.078125 53.328125 
Q 6.6875 62.15625 12.390625 67.015625 
Q 18.109375 71.875 26.609375 71.875 
Q 32.46875 71.875 37.390625 69.359375 
Q 42.328125 66.84375 44.9375 62.5 
Q 47.5625 58.15625 47.5625 53.265625 
Q 47.5625 48.640625 45.0625 44.828125 
Q 42.578125 41.015625 37.703125 38.765625 
Q 44.046875 37.3125 47.5625 32.6875 
Q 51.078125 28.078125 51.078125 21.140625 
Q 51.078125 11.765625 44.234375 5.25 
Q 37.40625 -1.265625 26.953125 -1.265625 
Q 17.53125 -1.265625 11.296875 4.34375 
Q 5.078125 9.96875 4.203125 18.890625 
z
" id="ArialMT-51"/>
       </defs>
       <use xlink:href="#ArialMT-48"/>
       <use x="55.615234" xlink:href="#ArialMT-46"/>
       <use x="83.398438" xlink:href="#ArialMT-48"/>
       <use x="139.013672" xlink:href="#ArialMT-51"/>
      </g>
     </g>
    </g>
    <g id="ytick_5">
     <g id="line2d_14">
      <path clip-path="url(#p452bdbf05e)" d="M 38.107031 27.643807 
L 845.992131 27.643807 
" style="fill:none;stroke:#ffffff;stroke-linecap:round;"/>
     </g>
     <g id="text_15">
      <!-- 0.04 -->
      <g style="fill:#262626;" transform="translate(7.2 31.580604)scale(0.11 -0.11)">
       <defs>
        <path d="M 32.328125 0 
L 32.328125 17.140625 
L 1.265625 17.140625 
L 1.265625 25.203125 
L 33.9375 71.578125 
L 41.109375 71.578125 
L 41.109375 25.203125 
L 50.78125 25.203125 
L 50.78125 17.140625 
L 41.109375 17.140625 
L 41.109375 0 
z
M 32.328125 25.203125 
L 32.328125 57.46875 
L 9.90625 25.203125 
z
" id="ArialMT-52"/>
       </defs>
       <use xlink:href="#ArialMT-48"/>
       <use x="55.615234" xlink:href="#ArialMT-46"/>
       <use x="83.398438" xlink:href="#ArialMT-48"/>
       <use x="139.013672" xlink:href="#ArialMT-52"/>
      </g>
     </g>
    </g>
   </g>
   <g id="PolyCollection_1">
    <path clip-path="url(#p452bdbf05e)" d="M -355.501232 163.739684 
L -355.501232 163.78 
L -336.321404 163.78 
L -317.141577 163.78 
L -297.961749 163.78 
L -278.781922 163.78 
L -259.602095 163.78 
L -240.422267 163.78 
L -221.24244 163.78 
L -202.062613 163.78 
L -182.882785 163.78 
L -163.702958 163.78 
L -144.52313 163.78 
L -125.343303 163.78 
L -106.163476 163.78 
L -86.983648 163.78 
L -67.803821 163.78 
L -48.623993 163.78 
L -29.444166 163.78 
L -10.264339 163.78 
L 8.915489 163.78 
L 28.095316 163.78 
L 47.275144 163.78 
L 66.454971 163.78 
L 85.634798 163.78 
L 104.814626 163.78 
L 123.994453 163.78 
L 143.17428 163.78 
L 162.354108 163.78 
L 181.533935 163.78 
L 200.713763 163.78 
L 219.89359 163.78 
L 239.073417 163.78 
L 258.253245 163.78 
L 277.433072 163.78 
L 296.6129 163.78 
L 315.792727 163.78 
L 334.972554 163.78 
L 354.152382 163.78 
L 373.332209 163.78 
L 392.512036 163.78 
L 411.691864 163.78 
L 430.871691 163.78 
L 450.051519 163.78 
L 469.231346 163.78 
L 488.411173 163.78 
L 507.591001 163.78 
L 526.770828 163.78 
L 545.950656 163.78 
L 565.130483 163.78 
L 584.31031 163.78 
L 603.490138 163.78 
L 622.669965 163.78 
L 641.849793 163.78 
L 661.02962 163.78 
L 680.209447 163.78 
L 699.389275 163.78 
L 718.569102 163.78 
L 737.748929 163.78 
L 756.928757 163.78 
L 776.108584 163.78 
L 795.288412 163.78 
L 814.468239 163.78 
L 833.648066 163.78 
L 852.827894 163.78 
L 872.007721 163.78 
L 891.187549 163.78 
L 910.367376 163.78 
L 929.547203 163.78 
L 948.727031 163.78 
L 967.906858 163.78 
L 987.086685 163.78 
L 1006.266513 163.78 
L 1025.44634 163.78 
L 1044.626168 163.78 
L 1063.805995 163.78 
L 1082.985822 163.78 
L 1102.16565 163.78 
L 1121.345477 163.78 
L 1140.525305 163.78 
L 1159.705132 163.78 
L 1178.884959 163.78 
L 1198.064787 163.78 
L 1217.244614 163.78 
L 1236.424442 163.78 
L 1255.604269 163.78 
L 1274.784096 163.78 
L 1293.963924 163.78 
L 1313.143751 163.78 
L 1332.323578 163.78 
L 1351.503406 163.78 
L 1370.683233 163.78 
L 1389.863061 163.78 
L 1409.042888 163.78 
L 1428.222715 163.78 
L 1447.402543 163.78 
L 1466.58237 163.78 
L 1485.762198 163.78 
L 1504.942025 163.78 
L 1524.121852 163.78 
L 1543.30168 163.78 
L 1562.481507 163.78 
L 1581.661335 163.78 
L 1600.841162 163.78 
L 1620.020989 163.78 
L 1639.200817 163.78 
L 1658.380644 163.78 
L 1677.560471 163.78 
L 1696.740299 163.78 
L 1715.920126 163.78 
L 1735.099954 163.78 
L 1754.279781 163.78 
L 1773.459608 163.78 
L 1792.639436 163.78 
L 1811.819263 163.78 
L 1830.999091 163.78 
L 1850.178918 163.78 
L 1869.358745 163.78 
L 1888.538573 163.78 
L 1907.7184 163.78 
L 1926.898227 163.78 
L 1946.078055 163.78 
L 1965.257882 163.78 
L 1984.43771 163.78 
L 2003.617537 163.78 
L 2022.797364 163.78 
L 2041.977192 163.78 
L 2061.157019 163.78 
L 2080.336847 163.78 
L 2099.516674 163.78 
L 2118.696501 163.78 
L 2137.876329 163.78 
L 2157.056156 163.78 
L 2176.235984 163.78 
L 2195.415811 163.78 
L 2214.595638 163.78 
L 2233.775466 163.78 
L 2252.955293 163.78 
L 2272.13512 163.78 
L 2291.314948 163.78 
L 2310.494775 163.78 
L 2329.674603 163.78 
L 2348.85443 163.78 
L 2368.034257 163.78 
L 2387.214085 163.78 
L 2406.393912 163.78 
L 2425.57374 163.78 
L 2444.753567 163.78 
L 2463.933394 163.78 
L 2483.113222 163.78 
L 2502.293049 163.78 
L 2521.472876 163.78 
L 2540.652704 163.78 
L 2559.832531 163.78 
L 2579.012359 163.78 
L 2598.192186 163.78 
L 2617.372013 163.78 
L 2636.551841 163.78 
L 2655.731668 163.78 
L 2674.911496 163.78 
L 2694.091323 163.78 
L 2713.27115 163.78 
L 2732.450978 163.78 
L 2751.630805 163.78 
L 2770.810633 163.78 
L 2789.99046 163.78 
L 2809.170287 163.78 
L 2828.350115 163.78 
L 2847.529942 163.78 
L 2866.709769 163.78 
L 2885.889597 163.78 
L 2905.069424 163.78 
L 2924.249252 163.78 
L 2943.429079 163.78 
L 2962.608906 163.78 
L 2981.788734 163.78 
L 3000.968561 163.78 
L 3020.148389 163.78 
L 3039.328216 163.78 
L 3058.508043 163.78 
L 3077.687871 163.78 
L 3096.867698 163.78 
L 3116.047525 163.78 
L 3135.227353 163.78 
L 3154.40718 163.78 
L 3173.587008 163.78 
L 3192.766835 163.78 
L 3211.946662 163.78 
L 3231.12649 163.78 
L 3250.306317 163.78 
L 3269.486145 163.78 
L 3288.665972 163.78 
L 3307.845799 163.78 
L 3327.025627 163.78 
L 3346.205454 163.78 
L 3365.385282 163.78 
L 3384.565109 163.78 
L 3403.744936 163.78 
L 3422.924764 163.78 
L 3442.104591 163.78 
L 3461.284418 163.78 
L 3461.284418 163.77091 
L 3461.284418 163.77091 
L 3442.104591 163.766316 
L 3422.924764 163.759716 
L 3403.744936 163.750385 
L 3384.565109 163.737405 
L 3365.385282 163.719637 
L 3346.205454 163.695696 
L 3327.025627 163.663942 
L 3307.845799 163.62248 
L 3288.665972 163.569176 
L 3269.486145 163.501704 
L 3250.306317 163.417611 
L 3231.12649 163.314421 
L 3211.946662 163.189759 
L 3192.766835 163.04151 
L 3173.587008 162.867999 
L 3154.40718 162.668178 
L 3135.227353 162.44181 
L 3116.047525 162.189626 
L 3096.867698 161.913439 
L 3077.687871 161.616178 
L 3058.508043 161.301839 
L 3039.328216 160.975324 
L 3020.148389 160.642174 
L 3000.968561 160.308196 
L 2981.788734 159.979022 
L 2962.608906 159.65963 
L 2943.429079 159.353881 
L 2924.249252 159.064126 
L 2905.069424 158.790949 
L 2885.889597 158.533066 
L 2866.709769 158.287427 
L 2847.529942 158.049504 
L 2828.350115 157.813744 
L 2809.170287 157.574139 
L 2789.99046 157.324839 
L 2770.810633 157.060743 
L 2751.630805 156.777985 
L 2732.450978 156.474288 
L 2713.27115 156.149117 
L 2694.091323 155.803659 
L 2674.911496 155.440625 
L 2655.731668 155.063919 
L 2636.551841 154.67823 
L 2617.372013 154.288576 
L 2598.192186 153.899874 
L 2579.012359 153.516554 
L 2559.832531 153.142244 
L 2540.652704 152.779541 
L 2521.472876 152.429874 
L 2502.293049 152.093431 
L 2483.113222 151.769175 
L 2463.933394 151.454898 
L 2444.753567 151.147343 
L 2425.57374 150.842348 
L 2406.393912 150.535028 
L 2387.214085 150.21998 
L 2368.034257 149.891491 
L 2348.85443 149.543757 
L 2329.674603 149.171091 
L 2310.494775 148.768116 
L 2291.314948 148.329932 
L 2272.13512 147.852263 
L 2252.955293 147.331562 
L 2233.775466 146.76509 
L 2214.595638 146.150968 
L 2195.415811 145.488201 
L 2176.235984 144.776695 
L 2157.056156 144.017259 
L 2137.876329 143.211613 
L 2118.696501 142.362401 
L 2099.516674 141.473204 
L 2080.336847 140.548545 
L 2061.157019 139.593877 
L 2041.977192 138.61552 
L 2022.797364 137.620534 
L 2003.617537 136.616499 
L 1984.43771 135.611205 
L 1965.257882 134.612237 
L 1946.078055 133.626494 
L 1926.898227 132.659665 
L 1907.7184 131.715713 
L 1888.538573 130.796429 
L 1869.358745 129.90108 
L 1850.178918 129.026198 
L 1830.999091 128.165502 
L 1811.819263 127.309928 
L 1792.639436 126.447723 
L 1773.459608 125.564512 
L 1754.279781 124.643286 
L 1735.099954 123.664218 
L 1715.920126 122.604272 
L 1696.740299 121.436609 
L 1677.560471 120.129841 
L 1658.380644 118.64725 
L 1639.200817 116.946161 
L 1620.020989 114.977701 
L 1600.841162 112.687229 
L 1581.661335 110.015705 
L 1562.481507 106.902254 
L 1543.30168 103.288064 
L 1524.121852 99.121651 
L 1504.942025 94.365279 
L 1485.762198 89.002147 
L 1466.58237 83.043683 
L 1447.402543 76.536089 
L 1428.222715 69.565171 
L 1409.042888 62.258454 
L 1389.863061 54.783746 
L 1370.683233 47.343606 
L 1351.503406 40.165611 
L 1332.323578 33.488878 
L 1313.143751 27.54782 
L 1293.963924 22.554624 
L 1274.784096 18.682256 
L 1255.604269 16.0499 
L 1236.424442 14.712569 
L 1217.244614 14.65619 
L 1198.064787 15.798873 
L 1178.884959 17.998305 
L 1159.705132 21.064492 
L 1140.525305 24.776449 
L 1121.345477 28.900992 
L 1102.16565 33.211653 
L 1082.985822 37.505795 
L 1063.805995 41.618366 
L 1044.626168 45.431209 
L 1025.44634 48.877422 
L 1006.266513 51.940845 
L 987.086685 54.651245 
L 967.906858 57.076107 
L 948.727031 59.310188 
L 929.547203 61.464013 
L 910.367376 63.652414 
L 891.187549 65.984079 
L 872.007721 68.552781 
L 852.827894 71.430754 
L 833.648066 74.664419 
L 814.468239 78.272443 
L 795.288412 82.245952 
L 776.108584 86.550598 
L 756.928757 91.130109 
L 737.748929 95.910899 
L 718.569102 100.807364 
L 699.389275 105.727451 
L 680.209447 110.578182 
L 661.02962 115.27082 
L 641.849793 119.725444 
L 622.669965 123.874702 
L 603.490138 127.666612 
L 584.31031 131.066287 
L 565.130483 134.056533 
L 545.950656 136.637329 
L 526.770828 138.824277 
L 507.591001 140.646151 
L 488.411173 142.141777 
L 469.231346 143.356513 
L 450.051519 144.338629 
L 430.871691 145.135904 
L 411.691864 145.792722 
L 392.512036 146.347907 
L 373.332209 146.833412 
L 354.152382 147.273933 
L 334.972554 147.687341 
L 315.792727 148.085803 
L 296.6129 148.477324 
L 277.433072 148.867443 
L 258.253245 149.260829 
L 239.073417 149.662508 
L 219.89359 150.078598 
L 200.713763 150.516465 
L 181.533935 150.984329 
L 162.354108 151.490441 
L 143.17428 152.042 
L 123.994453 152.644023 
L 104.814626 153.298361 
L 85.634798 154.00304 
L 66.454971 154.752028 
L 47.275144 155.535459 
L 28.095316 156.340299 
L 8.915489 157.151339 
L -10.264339 157.952394 
L -29.444166 158.727544 
L -48.623993 159.462289 
L -67.803821 160.144482 
L -86.983648 160.764968 
L -106.163476 161.317901 
L -125.343303 161.800743 
L -144.52313 162.213991 
L -163.702958 162.560707 
L -182.882785 162.845926 
L -202.062613 163.076018 
L -221.24244 163.258079 
L -240.422267 163.399397 
L -259.602095 163.507018 
L -278.781922 163.587443 
L -297.961749 163.646425 
L -317.141577 163.68888 
L -336.321404 163.718877 
L -355.501232 163.739684 
z
" style="fill:#4c72b0;fill-opacity:0.25;stroke:#4c72b0;"/>
   </g>
   <g id="PolyCollection_2">
    <path clip-path="url(#p452bdbf05e)" d="M -474.416548 163.667099 
L -474.416548 163.78 
L -452.941407 163.78 
L -431.466265 163.78 
L -409.991124 163.78 
L -388.515982 163.78 
L -367.040841 163.78 
L -345.5657 163.78 
L -324.090558 163.78 
L -302.615417 163.78 
L -281.140275 163.78 
L -259.665134 163.78 
L -238.189992 163.78 
L -216.714851 163.78 
L -195.239709 163.78 
L -173.764568 163.78 
L -152.289427 163.78 
L -130.814285 163.78 
L -109.339144 163.78 
L -87.864002 163.78 
L -66.388861 163.78 
L -44.913719 163.78 
L -23.438578 163.78 
L -1.963437 163.78 
L 19.511705 163.78 
L 40.986846 163.78 
L 62.461988 163.78 
L 83.937129 163.78 
L 105.412271 163.78 
L 126.887412 163.78 
L 148.362553 163.78 
L 169.837695 163.78 
L 191.312836 163.78 
L 212.787978 163.78 
L 234.263119 163.78 
L 255.738261 163.78 
L 277.213402 163.78 
L 298.688543 163.78 
L 320.163685 163.78 
L 341.638826 163.78 
L 363.113968 163.78 
L 384.589109 163.78 
L 406.064251 163.78 
L 427.539392 163.78 
L 449.014534 163.78 
L 470.489675 163.78 
L 491.964816 163.78 
L 513.439958 163.78 
L 534.915099 163.78 
L 556.390241 163.78 
L 577.865382 163.78 
L 599.340524 163.78 
L 620.815665 163.78 
L 642.290806 163.78 
L 663.765948 163.78 
L 685.241089 163.78 
L 706.716231 163.78 
L 728.191372 163.78 
L 749.666514 163.78 
L 771.141655 163.78 
L 792.616796 163.78 
L 814.091938 163.78 
L 835.567079 163.78 
L 857.042221 163.78 
L 878.517362 163.78 
L 899.992504 163.78 
L 921.467645 163.78 
L 942.942786 163.78 
L 964.417928 163.78 
L 985.893069 163.78 
L 1007.368211 163.78 
L 1028.843352 163.78 
L 1050.318494 163.78 
L 1071.793635 163.78 
L 1093.268776 163.78 
L 1114.743918 163.78 
L 1136.219059 163.78 
L 1157.694201 163.78 
L 1179.169342 163.78 
L 1200.644484 163.78 
L 1222.119625 163.78 
L 1243.594767 163.78 
L 1265.069908 163.78 
L 1286.545049 163.78 
L 1308.020191 163.78 
L 1329.495332 163.78 
L 1350.970474 163.78 
L 1372.445615 163.78 
L 1393.920757 163.78 
L 1415.395898 163.78 
L 1436.871039 163.78 
L 1458.346181 163.78 
L 1479.821322 163.78 
L 1501.296464 163.78 
L 1522.771605 163.78 
L 1544.246747 163.78 
L 1565.721888 163.78 
L 1587.197029 163.78 
L 1608.672171 163.78 
L 1630.147312 163.78 
L 1651.622454 163.78 
L 1673.097595 163.78 
L 1694.572737 163.78 
L 1716.047878 163.78 
L 1737.523019 163.78 
L 1758.998161 163.78 
L 1780.473302 163.78 
L 1801.948444 163.78 
L 1823.423585 163.78 
L 1844.898727 163.78 
L 1866.373868 163.78 
L 1887.849009 163.78 
L 1909.324151 163.78 
L 1930.799292 163.78 
L 1952.274434 163.78 
L 1973.749575 163.78 
L 1995.224717 163.78 
L 2016.699858 163.78 
L 2038.175 163.78 
L 2059.650141 163.78 
L 2081.125282 163.78 
L 2102.600424 163.78 
L 2124.075565 163.78 
L 2145.550707 163.78 
L 2167.025848 163.78 
L 2188.50099 163.78 
L 2209.976131 163.78 
L 2231.451272 163.78 
L 2252.926414 163.78 
L 2274.401555 163.78 
L 2295.876697 163.78 
L 2317.351838 163.78 
L 2338.82698 163.78 
L 2360.302121 163.78 
L 2381.777262 163.78 
L 2403.252404 163.78 
L 2424.727545 163.78 
L 2446.202687 163.78 
L 2467.677828 163.78 
L 2489.15297 163.78 
L 2510.628111 163.78 
L 2532.103252 163.78 
L 2553.578394 163.78 
L 2575.053535 163.78 
L 2596.528677 163.78 
L 2618.003818 163.78 
L 2639.47896 163.78 
L 2660.954101 163.78 
L 2682.429243 163.78 
L 2703.904384 163.78 
L 2725.379525 163.78 
L 2746.854667 163.78 
L 2768.329808 163.78 
L 2789.80495 163.78 
L 2811.280091 163.78 
L 2832.755233 163.78 
L 2854.230374 163.78 
L 2875.705515 163.78 
L 2897.180657 163.78 
L 2918.655798 163.78 
L 2940.13094 163.78 
L 2961.606081 163.78 
L 2983.081223 163.78 
L 3004.556364 163.78 
L 3026.031505 163.78 
L 3047.506647 163.78 
L 3068.981788 163.78 
L 3090.45693 163.78 
L 3111.932071 163.78 
L 3133.407213 163.78 
L 3154.882354 163.78 
L 3176.357495 163.78 
L 3197.832637 163.78 
L 3219.307778 163.78 
L 3240.78292 163.78 
L 3262.258061 163.78 
L 3283.733203 163.78 
L 3305.208344 163.78 
L 3326.683485 163.78 
L 3348.158627 163.78 
L 3369.633768 163.78 
L 3391.10891 163.78 
L 3412.584051 163.78 
L 3434.059193 163.78 
L 3455.534334 163.78 
L 3477.009476 163.78 
L 3498.484617 163.78 
L 3519.959758 163.78 
L 3541.4349 163.78 
L 3562.910041 163.78 
L 3584.385183 163.78 
L 3605.860324 163.78 
L 3627.335466 163.78 
L 3648.810607 163.78 
L 3670.285748 163.78 
L 3691.76089 163.78 
L 3713.236031 163.78 
L 3734.711173 163.78 
L 3756.186314 163.78 
L 3777.661456 163.78 
L 3799.136597 163.78 
L 3799.136597 163.769906 
L 3799.136597 163.769906 
L 3777.661456 163.765567 
L 3756.186314 163.759665 
L 3734.711173 163.75177 
L 3713.236031 163.741387 
L 3691.76089 163.727961 
L 3670.285748 163.710898 
L 3648.810607 163.689588 
L 3627.335466 163.663445 
L 3605.860324 163.63195 
L 3584.385183 163.594709 
L 3562.910041 163.551507 
L 3541.4349 163.502374 
L 3519.959758 163.447632 
L 3498.484617 163.387943 
L 3477.009476 163.324331 
L 3455.534334 163.258178 
L 3434.059193 163.191199 
L 3412.584051 163.125382 
L 3391.10891 163.062892 
L 3369.633768 163.005964 
L 3348.158627 162.956763 
L 3326.683485 162.917248 
L 3305.208344 162.889036 
L 3283.733203 162.873275 
L 3262.258061 162.870556 
L 3240.78292 162.880849 
L 3219.307778 162.90348 
L 3197.832637 162.937146 
L 3176.357495 162.979966 
L 3154.882354 163.029553 
L 3133.407213 163.083105 
L 3111.932071 163.137497 
L 3090.45693 163.189372 
L 3068.981788 163.235206 
L 3047.506647 163.271364 
L 3026.031505 163.294128 
L 3004.556364 163.299712 
L 2983.081223 163.284267 
L 2961.606081 163.243891 
L 2940.13094 163.174647 
L 2918.655798 163.072613 
L 2897.180657 162.933961 
L 2875.705515 162.755076 
L 2854.230374 162.53271 
L 2832.755233 162.264164 
L 2811.280091 161.947482 
L 2789.80495 161.581638 
L 2768.329808 161.166699 
L 2746.854667 160.703931 
L 2725.379525 160.195831 
L 2703.904384 159.646075 
L 2682.429243 159.059367 
L 2660.954101 158.441192 
L 2639.47896 157.797488 
L 2618.003818 157.134263 
L 2596.528677 156.45717 
L 2575.053535 155.7711 
L 2553.578394 155.07981 
L 2532.103252 154.385635 
L 2510.628111 153.689302 
L 2489.15297 152.989875 
L 2467.677828 152.28485 
L 2446.202687 151.57038 
L 2424.727545 150.841637 
L 2403.252404 150.093278 
L 2381.777262 149.319992 
L 2360.302121 148.517079 
L 2338.82698 147.681029 
L 2317.351838 146.81004 
L 2295.876697 145.904449 
L 2274.401555 144.967006 
L 2252.926414 144.002978 
L 2231.451272 143.020045 
L 2209.976131 142.027976 
L 2188.50099 141.038079 
L 2167.025848 140.062468 
L 2145.550707 139.113163 
L 2124.075565 138.201094 
L 2102.600424 137.335073 
L 2081.125282 136.520817 
L 2059.650141 135.7601 
L 2038.175 135.050099 
L 2016.699858 134.383005 
L 1995.224717 133.745917 
L 1973.749575 133.121042 
L 1952.274434 132.486191 
L 1930.799292 131.815519 
L 1909.324151 131.080479 
L 1887.849009 130.250914 
L 1866.373868 129.296239 
L 1844.898727 128.186654 
L 1823.423585 126.894345 
L 1801.948444 125.394646 
L 1780.473302 123.667135 
L 1758.998161 121.696647 
L 1737.523019 119.474188 
L 1716.047878 116.997728 
L 1694.572737 114.272818 
L 1673.097595 111.313014 
L 1651.622454 108.140026 
L 1630.147312 104.783554 
L 1608.672171 101.280767 
L 1587.197029 97.675391 
L 1565.721888 94.016434 
L 1544.246747 90.356559 
L 1522.771605 86.750198 
L 1501.296464 83.251504 
L 1479.821322 79.912247 
L 1458.346181 76.779788 
L 1436.871039 73.895244 
L 1415.395898 71.291939 
L 1393.920757 68.994224 
L 1372.445615 67.016698 
L 1350.970474 65.363882 
L 1329.495332 64.030334 
L 1308.020191 63.001216 
L 1286.545049 62.253293 
L 1265.069908 61.756361 
L 1243.594767 61.475058 
L 1222.119625 61.371025 
L 1200.644484 61.405333 
L 1179.169342 61.541076 
L 1157.694201 61.745984 
L 1136.219059 61.99487 
L 1114.743918 62.271735 
L 1093.268776 62.571315 
L 1071.793635 62.899907 
L 1050.318494 63.275337 
L 1028.843352 63.726016 
L 1007.368211 64.289101 
L 985.893069 65.007868 
L 964.417928 65.928493 
L 942.942786 67.096493 
L 921.467645 68.553104 
L 899.992504 70.331908 
L 878.517362 72.455964 
L 857.042221 74.93567 
L 835.567079 77.767485 
L 814.091938 80.933582 
L 792.616796 84.402394 
L 771.141655 88.129958 
L 749.666514 92.061913 
L 728.191372 96.135942 
L 706.716231 100.284481 
L 685.241089 104.437489 
L 663.765948 108.525132 
L 642.290806 112.480236 
L 620.815665 116.240442 
L 599.340524 119.750004 
L 577.865382 122.961216 
L 556.390241 125.835489 
L 534.915099 128.3441 
L 513.439958 130.468647 
L 491.964816 132.201249 
L 470.489675 133.544526 
L 449.014534 134.511369 
L 427.539392 135.124516 
L 406.064251 135.41593 
L 384.589109 135.425966 
L 363.113968 135.20232 
L 341.638826 134.798725 
L 320.163685 134.27341 
L 298.688543 133.68731 
L 277.213402 133.10206 
L 255.738261 132.577834 
L 234.263119 132.171088 
L 212.787978 131.932335 
L 191.312836 131.904065 
L 169.837695 132.118941 
L 148.362553 132.598419 
L 126.887412 133.351894 
L 105.412271 134.376461 
L 83.937129 135.65734 
L 62.461988 137.168936 
L 40.986846 138.876503 
L 19.511705 140.738263 
L -1.963437 142.707862 
L -23.438578 144.736957 
L -44.913719 146.77777 
L -66.388861 148.785422 
L -87.864002 150.719898 
L -109.339144 152.547541 
L -130.814285 154.24201 
L -152.289427 155.784685 
L -173.764568 157.164566 
L -195.239709 158.377729 
L -216.714851 159.42644 
L -238.189992 160.318051 
L -259.665134 161.063776 
L -281.140275 161.677467 
L -302.615417 162.174472 
L -324.090558 162.570631 
L -345.5657 162.881463 
L -367.040841 163.121553 
L -388.515982 163.304131 
L -409.991124 163.440835 
L -431.466265 163.541621 
L -452.941407 163.61479 
L -474.416548 163.667099 
z
" style="fill:#dd8452;fill-opacity:0.25;stroke:#dd8452;"/>
   </g>
   <g id="patch_3">
    <path d="M 38.107031 163.78 
L 38.107031 7.2 
" style="fill:none;stroke:#ffffff;stroke-linecap:square;stroke-linejoin:miter;stroke-width:1.25;"/>
   </g>
   <g id="patch_4">
    <path d="M 38.107031 163.78 
L 845.992131 163.78 
" style="fill:none;stroke:#ffffff;stroke-linecap:square;stroke-linejoin:miter;stroke-width:1.25;"/>
   </g>
  </g>
  <g id="legend_1">
   <g id="text_16">
    <!-- Survived -->
    <g style="fill:#262626;" transform="translate(855.852006 90.369766)scale(0.12 -0.12)">
     <defs>
      <path d="M 4.5 23 
L 13.421875 23.78125 
Q 14.0625 18.40625 16.375 14.96875 
Q 18.703125 11.53125 23.578125 9.40625 
Q 28.46875 7.28125 34.578125 7.28125 
Q 39.984375 7.28125 44.140625 8.890625 
Q 48.296875 10.5 50.3125 13.296875 
Q 52.34375 16.109375 52.34375 19.4375 
Q 52.34375 22.796875 50.390625 25.3125 
Q 48.4375 27.828125 43.953125 29.546875 
Q 41.0625 30.671875 31.203125 33.03125 
Q 21.34375 35.40625 17.390625 37.5 
Q 12.25 40.1875 9.734375 44.15625 
Q 7.234375 48.140625 7.234375 53.078125 
Q 7.234375 58.5 10.296875 63.203125 
Q 13.375 67.921875 19.28125 70.359375 
Q 25.203125 72.796875 32.421875 72.796875 
Q 40.375 72.796875 46.453125 70.234375 
Q 52.546875 67.671875 55.8125 62.6875 
Q 59.078125 57.71875 59.328125 51.421875 
L 50.25 50.734375 
Q 49.515625 57.515625 45.28125 60.984375 
Q 41.0625 64.453125 32.8125 64.453125 
Q 24.21875 64.453125 20.28125 61.296875 
Q 16.359375 58.15625 16.359375 53.71875 
Q 16.359375 49.859375 19.140625 47.359375 
Q 21.875 44.875 33.421875 42.265625 
Q 44.96875 39.65625 49.265625 37.703125 
Q 55.515625 34.8125 58.484375 30.390625 
Q 61.46875 25.984375 61.46875 20.21875 
Q 61.46875 14.5 58.203125 9.4375 
Q 54.9375 4.390625 48.796875 1.578125 
Q 42.671875 -1.21875 35.015625 -1.21875 
Q 25.296875 -1.21875 18.71875 1.609375 
Q 12.15625 4.4375 8.421875 10.125 
Q 4.6875 15.828125 4.5 23 
z
" id="ArialMT-83"/>
      <path d="M 40.578125 0 
L 40.578125 7.625 
Q 34.515625 -1.171875 24.125 -1.171875 
Q 19.53125 -1.171875 15.546875 0.578125 
Q 11.578125 2.34375 9.640625 5 
Q 7.71875 7.671875 6.9375 11.53125 
Q 6.390625 14.109375 6.390625 19.734375 
L 6.390625 51.859375 
L 15.1875 51.859375 
L 15.1875 23.09375 
Q 15.1875 16.21875 15.71875 13.8125 
Q 16.546875 10.359375 19.234375 8.375 
Q 21.921875 6.390625 25.875 6.390625 
Q 29.828125 6.390625 33.296875 8.421875 
Q 36.765625 10.453125 38.203125 13.9375 
Q 39.65625 17.4375 39.65625 24.078125 
L 39.65625 51.859375 
L 48.4375 51.859375 
L 48.4375 0 
z
" id="ArialMT-117"/>
      <path d="M 6.5 0 
L 6.5 51.859375 
L 14.40625 51.859375 
L 14.40625 44 
Q 17.4375 49.515625 20 51.265625 
Q 22.5625 53.03125 25.640625 53.03125 
Q 30.078125 53.03125 34.671875 50.203125 
L 31.640625 42.046875 
Q 28.421875 43.953125 25.203125 43.953125 
Q 22.3125 43.953125 20.015625 42.21875 
Q 17.71875 40.484375 16.75 37.40625 
Q 15.28125 32.71875 15.28125 27.15625 
L 15.28125 0 
z
" id="ArialMT-114"/>
      <path d="M 21 0 
L 1.265625 51.859375 
L 10.546875 51.859375 
L 21.6875 20.796875 
Q 23.484375 15.765625 25 10.359375 
Q 26.171875 14.453125 28.265625 20.21875 
L 39.796875 51.859375 
L 48.828125 51.859375 
L 29.203125 0 
z
" id="ArialMT-118"/>
      <path d="M 6.640625 61.46875 
L 6.640625 71.578125 
L 15.4375 71.578125 
L 15.4375 61.46875 
z
M 6.640625 0 
L 6.640625 51.859375 
L 15.4375 51.859375 
L 15.4375 0 
z
" id="ArialMT-105"/>
      <path d="M 40.234375 0 
L 40.234375 6.546875 
Q 35.296875 -1.171875 25.734375 -1.171875 
Q 19.53125 -1.171875 14.328125 2.25 
Q 9.125 5.671875 6.265625 11.796875 
Q 3.421875 17.921875 3.421875 25.875 
Q 3.421875 33.640625 6 39.96875 
Q 8.59375 46.296875 13.765625 49.65625 
Q 18.953125 53.03125 25.34375 53.03125 
Q 30.03125 53.03125 33.6875 51.046875 
Q 37.359375 49.078125 39.65625 45.90625 
L 39.65625 71.578125 
L 48.390625 71.578125 
L 48.390625 0 
z
M 12.453125 25.875 
Q 12.453125 15.921875 16.640625 10.984375 
Q 20.84375 6.0625 26.5625 6.0625 
Q 32.328125 6.0625 36.34375 10.765625 
Q 40.375 15.484375 40.375 25.140625 
Q 40.375 35.796875 36.265625 40.765625 
Q 32.171875 45.75 26.171875 45.75 
Q 20.3125 45.75 16.375 40.96875 
Q 12.453125 36.1875 12.453125 25.875 
z
" id="ArialMT-100"/>
     </defs>
     <use xlink:href="#ArialMT-83"/>
     <use x="66.699219" xlink:href="#ArialMT-117"/>
     <use x="122.314453" xlink:href="#ArialMT-114"/>
     <use x="155.615234" xlink:href="#ArialMT-118"/>
     <use x="205.615234" xlink:href="#ArialMT-105"/>
     <use x="227.832031" xlink:href="#ArialMT-118"/>
     <use x="277.832031" xlink:href="#ArialMT-101"/>
     <use x="333.447266" xlink:href="#ArialMT-100"/>
    </g>
   </g>
   <g id="patch_5">
    <path d="M 860.736303 106.128359 
L 882.736303 106.128359 
L 882.736303 98.428359 
L 860.736303 98.428359 
z
" style="fill:#4c72b0;fill-opacity:0.25;stroke:#4c72b0;stroke-linejoin:miter;"/>
   </g>
   <g id="text_17">
    <!-- 0 -->
    <g style="fill:#262626;" transform="translate(891.536303 106.128359)scale(0.11 -0.11)">
     <use xlink:href="#ArialMT-48"/>
    </g>
   </g>
   <g id="patch_6">
    <path d="M 860.736303 121.688203 
L 882.736303 121.688203 
L 882.736303 113.988203 
L 860.736303 113.988203 
z
" style="fill:#dd8452;fill-opacity:0.25;stroke:#dd8452;stroke-linejoin:miter;"/>
   </g>
   <g id="text_18">
    <!-- 1 -->
    <g style="fill:#262626;" transform="translate(891.536303 121.688203)scale(0.11 -0.11)">
     <use xlink:href="#ArialMT-49"/>
    </g>
   </g>
  </g>
 </g>
 <defs>
  <clipPath id="p452bdbf05e">
   <rect height="156.58" width="807.8851" x="38.107031" y="7.2"/>
  </clipPath>
 </defs>
</svg>
