<?xml version="1.0" encoding="utf-8" standalone="no"?>
<!DOCTYPE svg PUBLIC "-//W3C//DTD SVG 1.1//EN"
  "http://www.w3.org/Graphics/SVG/1.1/DTD/svg11.dtd">
<!-- Created with matplotlib (https://matplotlib.org/) -->
<svg height="205.514219pt" version="1.1" viewBox="0 0 912.168898 205.514219" width="912.168898pt" xmlns="http://www.w3.org/2000/svg" xmlns:xlink="http://www.w3.org/1999/xlink">
 <metadata>
  <rdf:RDF xmlns:cc="http://creativecommons.org/ns#" xmlns:dc="http://purl.org/dc/elements/1.1/" xmlns:rdf="http://www.w3.org/1999/02/22-rdf-syntax-ns#">
   <cc:Work>
    <dc:type rdf:resource="http://purl.org/dc/dcmitype/StillImage"/>
    <dc:date>2020-10-19T19:39:08.108393</dc:date>
    <dc:format>image/svg+xml</dc:format>
    <dc:creator>
     <cc:Agent>
      <dc:title>Matplotlib v3.3.2, https://matplotlib.org/</dc:title>
     </cc:Agent>
    </dc:creator>
   </cc:Work>
  </rdf:RDF>
 </metadata>
 <defs>
  <style type="text/css">*{stroke-linecap:butt;stroke-linejoin:round;}</style>
 </defs>
 <g id="figure_1">
  <g id="patch_1">
   <path d="M 0 205.514219 
L 912.168898 205.514219 
L 912.168898 0 
L 0 0 
z
" style="fill:#ffffff;"/>
  </g>
  <g id="axes_1">
   <g id="patch_2">
    <path d="M 44.224063 163.78 
L 845.723398 163.78 
L 845.723398 7.2 
L 44.224063 7.2 
z
" style="fill:#eaeaf2;"/>
   </g>
   <g id="matplotlib.axis_1">
    <g id="xtick_1">
     <g id="line2d_1">
      <path clip-path="url(#peaf98b7938)" d="M 44.224063 163.78 
L 44.224063 7.2 
" style="fill:none;stroke:#ffffff;stroke-linecap:round;"/>
     </g>
     <g id="text_1">
      <!-- 30 -->
      <g style="fill:#262626;" transform="translate(38.107031 181.153594)scale(0.11 -0.11)">
       <defs>
        <path d="M 4.203125 18.890625 
L 12.984375 20.0625 
Q 14.5 12.59375 18.140625 9.296875 
Q 21.78125 6 27 6 
Q 33.203125 6 37.46875 10.296875 
Q 41.75 14.59375 41.75 20.953125 
Q 41.75 27 37.796875 30.921875 
Q 33.84375 34.859375 27.734375 34.859375 
Q 25.25 34.859375 21.53125 33.890625 
L 22.515625 41.609375 
Q 23.390625 41.5 23.921875 41.5 
Q 29.546875 41.5 34.03125 44.421875 
Q 38.53125 47.359375 38.53125 53.46875 
Q 38.53125 58.296875 35.25 61.46875 
Q 31.984375 64.65625 26.8125 64.65625 
Q 21.6875 64.65625 18.265625 61.421875 
Q 14.84375 58.203125 13.875 51.765625 
L 5.078125 53.328125 
Q 6.6875 62.15625 12.390625 67.015625 
Q 18.109375 71.875 26.609375 71.875 
Q 32.46875 71.875 37.390625 69.359375 
Q 42.328125 66.84375 44.9375 62.5 
Q 47.5625 58.15625 47.5625 53.265625 
Q 47.5625 48.640625 45.0625 44.828125 
Q 42.578125 41.015625 37.703125 38.765625 
Q 44.046875 37.3125 47.5625 32.6875 
Q 51.078125 28.078125 51.078125 21.140625 
Q 51.078125 11.765625 44.234375 5.25 
Q 37.40625 -1.265625 26.953125 -1.265625 
Q 17.53125 -1.265625 11.296875 4.34375 
Q 5.078125 9.96875 4.203125 18.890625 
z
" id="ArialMT-51"/>
        <path d="M 4.15625 35.296875 
Q 4.15625 48 6.765625 55.734375 
Q 9.375 63.484375 14.515625 67.671875 
Q 19.671875 71.875 27.484375 71.875 
Q 33.25 71.875 37.59375 69.546875 
Q 41.9375 67.234375 44.765625 62.859375 
Q 47.609375 58.5 49.21875 52.21875 
Q 50.828125 45.953125 50.828125 35.296875 
Q 50.828125 22.703125 48.234375 14.96875 
Q 45.65625 7.234375 40.5 3 
Q 35.359375 -1.21875 27.484375 -1.21875 
Q 17.140625 -1.21875 11.234375 6.203125 
Q 4.15625 15.140625 4.15625 35.296875 
z
M 13.1875 35.296875 
Q 13.1875 17.671875 17.3125 11.828125 
Q 21.4375 6 27.484375 6 
Q 33.546875 6 37.671875 11.859375 
Q 41.796875 17.71875 41.796875 35.296875 
Q 41.796875 52.984375 37.671875 58.78125 
Q 33.546875 64.59375 27.390625 64.59375 
Q 21.34375 64.59375 17.71875 59.46875 
Q 13.1875 52.9375 13.1875 35.296875 
z
" id="ArialMT-48"/>
       </defs>
       <use xlink:href="#ArialMT-51"/>
       <use x="55.615234" xlink:href="#ArialMT-48"/>
      </g>
     </g>
    </g>
    <g id="xtick_2">
     <g id="line2d_2">
      <path clip-path="url(#peaf98b7938)" d="M 158.723968 163.78 
L 158.723968 7.2 
" style="fill:none;stroke:#ffffff;stroke-linecap:round;"/>
     </g>
     <g id="text_2">
      <!-- 40 -->
      <g style="fill:#262626;" transform="translate(152.606936 181.153594)scale(0.11 -0.11)">
       <defs>
        <path d="M 32.328125 0 
L 32.328125 17.140625 
L 1.265625 17.140625 
L 1.265625 25.203125 
L 33.9375 71.578125 
L 41.109375 71.578125 
L 41.109375 25.203125 
L 50.78125 25.203125 
L 50.78125 17.140625 
L 41.109375 17.140625 
L 41.109375 0 
z
M 32.328125 25.203125 
L 32.328125 57.46875 
L 9.90625 25.203125 
z
" id="ArialMT-52"/>
       </defs>
       <use xlink:href="#ArialMT-52"/>
       <use x="55.615234" xlink:href="#ArialMT-48"/>
      </g>
     </g>
    </g>
    <g id="xtick_3">
     <g id="line2d_3">
      <path clip-path="url(#peaf98b7938)" d="M 273.223873 163.78 
L 273.223873 7.2 
" style="fill:none;stroke:#ffffff;stroke-linecap:round;"/>
     </g>
     <g id="text_3">
      <!-- 50 -->
      <g style="fill:#262626;" transform="translate(267.106842 181.153594)scale(0.11 -0.11)">
       <defs>
        <path d="M 4.15625 18.75 
L 13.375 19.53125 
Q 14.40625 12.796875 18.140625 9.390625 
Q 21.875 6 27.15625 6 
Q 33.5 6 37.890625 10.78125 
Q 42.28125 15.578125 42.28125 23.484375 
Q 42.28125 31 38.0625 35.34375 
Q 33.84375 39.703125 27 39.703125 
Q 22.75 39.703125 19.328125 37.765625 
Q 15.921875 35.84375 13.96875 32.765625 
L 5.71875 33.84375 
L 12.640625 70.609375 
L 48.25 70.609375 
L 48.25 62.203125 
L 19.671875 62.203125 
L 15.828125 42.96875 
Q 22.265625 47.46875 29.34375 47.46875 
Q 38.71875 47.46875 45.15625 40.96875 
Q 51.609375 34.46875 51.609375 24.265625 
Q 51.609375 14.546875 45.953125 7.46875 
Q 39.0625 -1.21875 27.15625 -1.21875 
Q 17.390625 -1.21875 11.203125 4.25 
Q 5.03125 9.71875 4.15625 18.75 
z
" id="ArialMT-53"/>
       </defs>
       <use xlink:href="#ArialMT-53"/>
       <use x="55.615234" xlink:href="#ArialMT-48"/>
      </g>
     </g>
    </g>
    <g id="xtick_4">
     <g id="line2d_4">
      <path clip-path="url(#peaf98b7938)" d="M 387.723778 163.78 
L 387.723778 7.2 
" style="fill:none;stroke:#ffffff;stroke-linecap:round;"/>
     </g>
     <g id="text_4">
      <!-- 60 -->
      <g style="fill:#262626;" transform="translate(381.606747 181.153594)scale(0.11 -0.11)">
       <defs>
        <path d="M 49.75 54.046875 
L 41.015625 53.375 
Q 39.84375 58.546875 37.703125 60.890625 
Q 34.125 64.65625 28.90625 64.65625 
Q 24.703125 64.65625 21.53125 62.3125 
Q 17.390625 59.28125 14.984375 53.46875 
Q 12.59375 47.65625 12.5 36.921875 
Q 15.671875 41.75 20.265625 44.09375 
Q 24.859375 46.4375 29.890625 46.4375 
Q 38.671875 46.4375 44.84375 39.96875 
Q 51.03125 33.5 51.03125 23.25 
Q 51.03125 16.5 48.125 10.71875 
Q 45.21875 4.9375 40.140625 1.859375 
Q 35.0625 -1.21875 28.609375 -1.21875 
Q 17.625 -1.21875 10.6875 6.859375 
Q 3.765625 14.9375 3.765625 33.5 
Q 3.765625 54.25 11.421875 63.671875 
Q 18.109375 71.875 29.4375 71.875 
Q 37.890625 71.875 43.28125 67.140625 
Q 48.6875 62.40625 49.75 54.046875 
z
M 13.875 23.1875 
Q 13.875 18.65625 15.796875 14.5 
Q 17.71875 10.359375 21.1875 8.171875 
Q 24.65625 6 28.46875 6 
Q 34.03125 6 38.03125 10.484375 
Q 42.046875 14.984375 42.046875 22.703125 
Q 42.046875 30.125 38.078125 34.390625 
Q 34.125 38.671875 28.125 38.671875 
Q 22.171875 38.671875 18.015625 34.390625 
Q 13.875 30.125 13.875 23.1875 
z
" id="ArialMT-54"/>
       </defs>
       <use xlink:href="#ArialMT-54"/>
       <use x="55.615234" xlink:href="#ArialMT-48"/>
      </g>
     </g>
    </g>
    <g id="xtick_5">
     <g id="line2d_5">
      <path clip-path="url(#peaf98b7938)" d="M 502.223683 163.78 
L 502.223683 7.2 
" style="fill:none;stroke:#ffffff;stroke-linecap:round;"/>
     </g>
     <g id="text_5">
      <!-- 70 -->
      <g style="fill:#262626;" transform="translate(496.106652 181.153594)scale(0.11 -0.11)">
       <defs>
        <path d="M 4.734375 62.203125 
L 4.734375 70.65625 
L 51.078125 70.65625 
L 51.078125 63.8125 
Q 44.234375 56.546875 37.515625 44.484375 
Q 30.8125 32.421875 27.15625 19.671875 
Q 24.515625 10.6875 23.78125 0 
L 14.75 0 
Q 14.890625 8.453125 18.0625 20.40625 
Q 21.234375 32.375 27.171875 43.484375 
Q 33.109375 54.59375 39.796875 62.203125 
z
" id="ArialMT-55"/>
       </defs>
       <use xlink:href="#ArialMT-55"/>
       <use x="55.615234" xlink:href="#ArialMT-48"/>
      </g>
     </g>
    </g>
    <g id="xtick_6">
     <g id="line2d_6">
      <path clip-path="url(#peaf98b7938)" d="M 616.723588 163.78 
L 616.723588 7.2 
" style="fill:none;stroke:#ffffff;stroke-linecap:round;"/>
     </g>
     <g id="text_6">
      <!-- 80 -->
      <g style="fill:#262626;" transform="translate(610.606557 181.153594)scale(0.11 -0.11)">
       <defs>
        <path d="M 17.671875 38.8125 
Q 12.203125 40.828125 9.5625 44.53125 
Q 6.9375 48.25 6.9375 53.421875 
Q 6.9375 61.234375 12.546875 66.546875 
Q 18.171875 71.875 27.484375 71.875 
Q 36.859375 71.875 42.578125 66.421875 
Q 48.296875 60.984375 48.296875 53.171875 
Q 48.296875 48.1875 45.671875 44.5 
Q 43.0625 40.828125 37.75 38.8125 
Q 44.34375 36.671875 47.78125 31.875 
Q 51.21875 27.09375 51.21875 20.453125 
Q 51.21875 11.28125 44.71875 5.03125 
Q 38.234375 -1.21875 27.640625 -1.21875 
Q 17.046875 -1.21875 10.546875 5.046875 
Q 4.046875 11.328125 4.046875 20.703125 
Q 4.046875 27.6875 7.59375 32.390625 
Q 11.140625 37.109375 17.671875 38.8125 
z
M 15.921875 53.71875 
Q 15.921875 48.640625 19.1875 45.40625 
Q 22.46875 42.1875 27.6875 42.1875 
Q 32.765625 42.1875 36.015625 45.375 
Q 39.265625 48.578125 39.265625 53.21875 
Q 39.265625 58.0625 35.90625 61.359375 
Q 32.5625 64.65625 27.59375 64.65625 
Q 22.5625 64.65625 19.234375 61.421875 
Q 15.921875 58.203125 15.921875 53.71875 
z
M 13.09375 20.65625 
Q 13.09375 16.890625 14.875 13.375 
Q 16.65625 9.859375 20.171875 7.921875 
Q 23.6875 6 27.734375 6 
Q 34.03125 6 38.125 10.046875 
Q 42.234375 14.109375 42.234375 20.359375 
Q 42.234375 26.703125 38.015625 30.859375 
Q 33.796875 35.015625 27.4375 35.015625 
Q 21.234375 35.015625 17.15625 30.90625 
Q 13.09375 26.8125 13.09375 20.65625 
z
" id="ArialMT-56"/>
       </defs>
       <use xlink:href="#ArialMT-56"/>
       <use x="55.615234" xlink:href="#ArialMT-48"/>
      </g>
     </g>
    </g>
    <g id="xtick_7">
     <g id="line2d_7">
      <path clip-path="url(#peaf98b7938)" d="M 731.223493 163.78 
L 731.223493 7.2 
" style="fill:none;stroke:#ffffff;stroke-linecap:round;"/>
     </g>
     <g id="text_7">
      <!-- 90 -->
      <g style="fill:#262626;" transform="translate(725.106462 181.153594)scale(0.11 -0.11)">
       <defs>
        <path d="M 5.46875 16.546875 
L 13.921875 17.328125 
Q 14.984375 11.375 18.015625 8.6875 
Q 21.046875 6 25.78125 6 
Q 29.828125 6 32.875 7.859375 
Q 35.9375 9.71875 37.890625 12.8125 
Q 39.84375 15.921875 41.15625 21.1875 
Q 42.484375 26.46875 42.484375 31.9375 
Q 42.484375 32.515625 42.4375 33.6875 
Q 39.796875 29.5 35.234375 26.875 
Q 30.671875 24.265625 25.34375 24.265625 
Q 16.453125 24.265625 10.296875 30.703125 
Q 4.15625 37.15625 4.15625 47.703125 
Q 4.15625 58.59375 10.578125 65.234375 
Q 17 71.875 26.65625 71.875 
Q 33.640625 71.875 39.421875 68.109375 
Q 45.21875 64.359375 48.21875 57.390625 
Q 51.21875 50.4375 51.21875 37.25 
Q 51.21875 23.53125 48.234375 15.40625 
Q 45.265625 7.28125 39.375 3.03125 
Q 33.5 -1.21875 25.59375 -1.21875 
Q 17.1875 -1.21875 11.859375 3.4375 
Q 6.546875 8.109375 5.46875 16.546875 
z
M 41.453125 48.140625 
Q 41.453125 55.71875 37.421875 60.15625 
Q 33.40625 64.59375 27.734375 64.59375 
Q 21.875 64.59375 17.53125 59.8125 
Q 13.1875 55.03125 13.1875 47.40625 
Q 13.1875 40.578125 17.3125 36.296875 
Q 21.4375 32.03125 27.484375 32.03125 
Q 33.59375 32.03125 37.515625 36.296875 
Q 41.453125 40.578125 41.453125 48.140625 
z
" id="ArialMT-57"/>
       </defs>
       <use xlink:href="#ArialMT-57"/>
       <use x="55.615234" xlink:href="#ArialMT-48"/>
      </g>
     </g>
    </g>
    <g id="xtick_8">
     <g id="line2d_8">
      <path clip-path="url(#peaf98b7938)" d="M 845.723398 163.78 
L 845.723398 7.2 
" style="fill:none;stroke:#ffffff;stroke-linecap:round;"/>
     </g>
     <g id="text_8">
      <!-- 100 -->
      <g style="fill:#262626;" transform="translate(836.547852 181.153594)scale(0.11 -0.11)">
       <defs>
        <path d="M 37.25 0 
L 28.46875 0 
L 28.46875 56 
Q 25.296875 52.984375 20.140625 49.953125 
Q 14.984375 46.921875 10.890625 45.40625 
L 10.890625 53.90625 
Q 18.265625 57.375 23.78125 62.296875 
Q 29.296875 67.234375 31.59375 71.875 
L 37.25 71.875 
z
" id="ArialMT-49"/>
       </defs>
       <use xlink:href="#ArialMT-49"/>
       <use x="55.615234" xlink:href="#ArialMT-48"/>
       <use x="111.230469" xlink:href="#ArialMT-48"/>
      </g>
     </g>
    </g>
    <g id="text_9">
     <!-- Fare -->
     <g style="fill:#262626;" transform="translate(432.638105 195.929219)scale(0.12 -0.12)">
      <defs>
       <path d="M 8.203125 0 
L 8.203125 71.578125 
L 56.5 71.578125 
L 56.5 63.140625 
L 17.671875 63.140625 
L 17.671875 40.96875 
L 51.265625 40.96875 
L 51.265625 32.515625 
L 17.671875 32.515625 
L 17.671875 0 
z
" id="ArialMT-70"/>
       <path d="M 40.4375 6.390625 
Q 35.546875 2.25 31.03125 0.53125 
Q 26.515625 -1.171875 21.34375 -1.171875 
Q 12.796875 -1.171875 8.203125 3 
Q 3.609375 7.171875 3.609375 13.671875 
Q 3.609375 17.484375 5.34375 20.625 
Q 7.078125 23.78125 9.890625 25.6875 
Q 12.703125 27.59375 16.21875 28.5625 
Q 18.796875 29.25 24.03125 29.890625 
Q 34.671875 31.15625 39.703125 32.90625 
Q 39.75 34.71875 39.75 35.203125 
Q 39.75 40.578125 37.25 42.78125 
Q 33.890625 45.75 27.25 45.75 
Q 21.046875 45.75 18.09375 43.578125 
Q 15.140625 41.40625 13.71875 35.890625 
L 5.125 37.0625 
Q 6.296875 42.578125 8.984375 45.96875 
Q 11.671875 49.359375 16.75 51.1875 
Q 21.828125 53.03125 28.515625 53.03125 
Q 35.15625 53.03125 39.296875 51.46875 
Q 43.453125 49.90625 45.40625 47.53125 
Q 47.359375 45.171875 48.140625 41.546875 
Q 48.578125 39.3125 48.578125 33.453125 
L 48.578125 21.734375 
Q 48.578125 9.46875 49.140625 6.21875 
Q 49.703125 2.984375 51.375 0 
L 42.1875 0 
Q 40.828125 2.734375 40.4375 6.390625 
z
M 39.703125 26.03125 
Q 34.90625 24.078125 25.34375 22.703125 
Q 19.921875 21.921875 17.671875 20.9375 
Q 15.4375 19.96875 14.203125 18.09375 
Q 12.984375 16.21875 12.984375 13.921875 
Q 12.984375 10.40625 15.640625 8.0625 
Q 18.3125 5.71875 23.4375 5.71875 
Q 28.515625 5.71875 32.46875 7.9375 
Q 36.421875 10.15625 38.28125 14.015625 
Q 39.703125 17 39.703125 22.796875 
z
" id="ArialMT-97"/>
       <path d="M 6.5 0 
L 6.5 51.859375 
L 14.40625 51.859375 
L 14.40625 44 
Q 17.4375 49.515625 20 51.265625 
Q 22.5625 53.03125 25.640625 53.03125 
Q 30.078125 53.03125 34.671875 50.203125 
L 31.640625 42.046875 
Q 28.421875 43.953125 25.203125 43.953125 
Q 22.3125 43.953125 20.015625 42.21875 
Q 17.71875 40.484375 16.75 37.40625 
Q 15.28125 32.71875 15.28125 27.15625 
L 15.28125 0 
z
" id="ArialMT-114"/>
       <path d="M 42.09375 16.703125 
L 51.171875 15.578125 
Q 49.03125 7.625 43.21875 3.21875 
Q 37.40625 -1.171875 28.375 -1.171875 
Q 17 -1.171875 10.328125 5.828125 
Q 3.65625 12.84375 3.65625 25.484375 
Q 3.65625 38.578125 10.390625 45.796875 
Q 17.140625 53.03125 27.875 53.03125 
Q 38.28125 53.03125 44.875 45.953125 
Q 51.46875 38.875 51.46875 26.03125 
Q 51.46875 25.25 51.421875 23.6875 
L 12.75 23.6875 
Q 13.234375 15.140625 17.578125 10.59375 
Q 21.921875 6.0625 28.421875 6.0625 
Q 33.25 6.0625 36.671875 8.59375 
Q 40.09375 11.140625 42.09375 16.703125 
z
M 13.234375 30.90625 
L 42.1875 30.90625 
Q 41.609375 37.453125 38.875 40.71875 
Q 34.671875 45.796875 27.984375 45.796875 
Q 21.921875 45.796875 17.796875 41.75 
Q 13.671875 37.703125 13.234375 30.90625 
z
" id="ArialMT-101"/>
      </defs>
      <use xlink:href="#ArialMT-70"/>
      <use x="61.083984" xlink:href="#ArialMT-97"/>
      <use x="116.699219" xlink:href="#ArialMT-114"/>
      <use x="150" xlink:href="#ArialMT-101"/>
     </g>
    </g>
   </g>
   <g id="matplotlib.axis_2">
    <g id="ytick_1">
     <g id="line2d_9">
      <path clip-path="url(#peaf98b7938)" d="M 44.224063 163.78 
L 845.723398 163.78 
" style="fill:none;stroke:#ffffff;stroke-linecap:round;"/>
     </g>
     <g id="text_10">
      <!-- 0.000 -->
      <g style="fill:#262626;" transform="translate(7.2 167.716797)scale(0.11 -0.11)">
       <defs>
        <path d="M 9.078125 0 
L 9.078125 10.015625 
L 19.09375 10.015625 
L 19.09375 0 
z
" id="ArialMT-46"/>
       </defs>
       <use xlink:href="#ArialMT-48"/>
       <use x="55.615234" xlink:href="#ArialMT-46"/>
       <use x="83.398438" xlink:href="#ArialMT-48"/>
       <use x="139.013672" xlink:href="#ArialMT-48"/>
       <use x="194.628906" xlink:href="#ArialMT-48"/>
      </g>
     </g>
    </g>
    <g id="ytick_2">
     <g id="line2d_10">
      <path clip-path="url(#peaf98b7938)" d="M 44.224063 138.892658 
L 845.723398 138.892658 
" style="fill:none;stroke:#ffffff;stroke-linecap:round;"/>
     </g>
     <g id="text_11">
      <!-- 0.005 -->
      <g style="fill:#262626;" transform="translate(7.2 142.829455)scale(0.11 -0.11)">
       <use xlink:href="#ArialMT-48"/>
       <use x="55.615234" xlink:href="#ArialMT-46"/>
       <use x="83.398438" xlink:href="#ArialMT-48"/>
       <use x="139.013672" xlink:href="#ArialMT-48"/>
       <use x="194.628906" xlink:href="#ArialMT-53"/>
      </g>
     </g>
    </g>
    <g id="ytick_3">
     <g id="line2d_11">
      <path clip-path="url(#peaf98b7938)" d="M 44.224063 114.005316 
L 845.723398 114.005316 
" style="fill:none;stroke:#ffffff;stroke-linecap:round;"/>
     </g>
     <g id="text_12">
      <!-- 0.010 -->
      <g style="fill:#262626;" transform="translate(7.2 117.942113)scale(0.11 -0.11)">
       <use xlink:href="#ArialMT-48"/>
       <use x="55.615234" xlink:href="#ArialMT-46"/>
       <use x="83.398438" xlink:href="#ArialMT-48"/>
       <use x="139.013672" xlink:href="#ArialMT-49"/>
       <use x="194.628906" xlink:href="#ArialMT-48"/>
      </g>
     </g>
    </g>
    <g id="ytick_4">
     <g id="line2d_12">
      <path clip-path="url(#peaf98b7938)" d="M 44.224063 89.117974 
L 845.723398 89.117974 
" style="fill:none;stroke:#ffffff;stroke-linecap:round;"/>
     </g>
     <g id="text_13">
      <!-- 0.015 -->
      <g style="fill:#262626;" transform="translate(7.2 93.054771)scale(0.11 -0.11)">
       <use xlink:href="#ArialMT-48"/>
       <use x="55.615234" xlink:href="#ArialMT-46"/>
       <use x="83.398438" xlink:href="#ArialMT-48"/>
       <use x="139.013672" xlink:href="#ArialMT-49"/>
       <use x="194.628906" xlink:href="#ArialMT-53"/>
      </g>
     </g>
    </g>
    <g id="ytick_5">
     <g id="line2d_13">
      <path clip-path="url(#peaf98b7938)" d="M 44.224063 64.230633 
L 845.723398 64.230633 
" style="fill:none;stroke:#ffffff;stroke-linecap:round;"/>
     </g>
     <g id="text_14">
      <!-- 0.020 -->
      <g style="fill:#262626;" transform="translate(7.2 68.167429)scale(0.11 -0.11)">
       <defs>
        <path d="M 50.34375 8.453125 
L 50.34375 0 
L 3.03125 0 
Q 2.9375 3.171875 4.046875 6.109375 
Q 5.859375 10.9375 9.828125 15.625 
Q 13.8125 20.3125 21.34375 26.46875 
Q 33.015625 36.03125 37.109375 41.625 
Q 41.21875 47.21875 41.21875 52.203125 
Q 41.21875 57.421875 37.46875 61 
Q 33.734375 64.59375 27.734375 64.59375 
Q 21.390625 64.59375 17.578125 60.78125 
Q 13.765625 56.984375 13.71875 50.25 
L 4.6875 51.171875 
Q 5.609375 61.28125 11.65625 66.578125 
Q 17.71875 71.875 27.9375 71.875 
Q 38.234375 71.875 44.234375 66.15625 
Q 50.25 60.453125 50.25 52 
Q 50.25 47.703125 48.484375 43.546875 
Q 46.734375 39.40625 42.65625 34.8125 
Q 38.578125 30.21875 29.109375 22.21875 
Q 21.1875 15.578125 18.9375 13.203125 
Q 16.703125 10.84375 15.234375 8.453125 
z
" id="ArialMT-50"/>
       </defs>
       <use xlink:href="#ArialMT-48"/>
       <use x="55.615234" xlink:href="#ArialMT-46"/>
       <use x="83.398438" xlink:href="#ArialMT-48"/>
       <use x="139.013672" xlink:href="#ArialMT-50"/>
       <use x="194.628906" xlink:href="#ArialMT-48"/>
      </g>
     </g>
    </g>
    <g id="ytick_6">
     <g id="line2d_14">
      <path clip-path="url(#peaf98b7938)" d="M 44.224063 39.343291 
L 845.723398 39.343291 
" style="fill:none;stroke:#ffffff;stroke-linecap:round;"/>
     </g>
     <g id="text_15">
      <!-- 0.025 -->
      <g style="fill:#262626;" transform="translate(7.2 43.280088)scale(0.11 -0.11)">
       <use xlink:href="#ArialMT-48"/>
       <use x="55.615234" xlink:href="#ArialMT-46"/>
       <use x="83.398438" xlink:href="#ArialMT-48"/>
       <use x="139.013672" xlink:href="#ArialMT-50"/>
       <use x="194.628906" xlink:href="#ArialMT-53"/>
      </g>
     </g>
    </g>
    <g id="ytick_7">
     <g id="line2d_15">
      <path clip-path="url(#peaf98b7938)" d="M 44.224063 14.455949 
L 845.723398 14.455949 
" style="fill:none;stroke:#ffffff;stroke-linecap:round;"/>
     </g>
     <g id="text_16">
      <!-- 0.030 -->
      <g style="fill:#262626;" transform="translate(7.2 18.392746)scale(0.11 -0.11)">
       <use xlink:href="#ArialMT-48"/>
       <use x="55.615234" xlink:href="#ArialMT-46"/>
       <use x="83.398438" xlink:href="#ArialMT-48"/>
       <use x="139.013672" xlink:href="#ArialMT-51"/>
       <use x="194.628906" xlink:href="#ArialMT-48"/>
      </g>
     </g>
    </g>
   </g>
   <g id="PolyCollection_1">
    <path clip-path="url(#peaf98b7938)" d="M -604.611936 163.656737 
L -604.611936 163.78 
L -586.41083 163.78 
L -568.209724 163.78 
L -550.008618 163.78 
L -531.807512 163.78 
L -513.606406 163.78 
L -495.4053 163.78 
L -477.204195 163.78 
L -459.003089 163.78 
L -440.801983 163.78 
L -422.600877 163.78 
L -404.399771 163.78 
L -386.198665 163.78 
L -367.997559 163.78 
L -349.796453 163.78 
L -331.595348 163.78 
L -313.394242 163.78 
L -295.193136 163.78 
L -276.99203 163.78 
L -258.790924 163.78 
L -240.589818 163.78 
L -222.388712 163.78 
L -204.187606 163.78 
L -185.9865 163.78 
L -167.785395 163.78 
L -149.584289 163.78 
L -131.383183 163.78 
L -113.182077 163.78 
L -94.980971 163.78 
L -76.779865 163.78 
L -58.578759 163.78 
L -40.377653 163.78 
L -22.176548 163.78 
L -3.975442 163.78 
L 14.225664 163.78 
L 32.42677 163.78 
L 50.627876 163.78 
L 68.828982 163.78 
L 87.030088 163.78 
L 105.231194 163.78 
L 123.4323 163.78 
L 141.633405 163.78 
L 159.834511 163.78 
L 178.035617 163.78 
L 196.236723 163.78 
L 214.437829 163.78 
L 232.638935 163.78 
L 250.840041 163.78 
L 269.041147 163.78 
L 287.242253 163.78 
L 305.443358 163.78 
L 323.644464 163.78 
L 341.84557 163.78 
L 360.046676 163.78 
L 378.247782 163.78 
L 396.448888 163.78 
L 414.649994 163.78 
L 432.8511 163.78 
L 451.052205 163.78 
L 469.253311 163.78 
L 487.454417 163.78 
L 505.655523 163.78 
L 523.856629 163.78 
L 542.057735 163.78 
L 560.258841 163.78 
L 578.459947 163.78 
L 596.661053 163.78 
L 614.862158 163.78 
L 633.063264 163.78 
L 651.26437 163.78 
L 669.465476 163.78 
L 687.666582 163.78 
L 705.867688 163.78 
L 724.068794 163.78 
L 742.2699 163.78 
L 760.471005 163.78 
L 778.672111 163.78 
L 796.873217 163.78 
L 815.074323 163.78 
L 833.275429 163.78 
L 851.476535 163.78 
L 869.677641 163.78 
L 887.878747 163.78 
L 906.079853 163.78 
L 924.280958 163.78 
L 942.482064 163.78 
L 960.68317 163.78 
L 978.884276 163.78 
L 997.085382 163.78 
L 1015.286488 163.78 
L 1033.487594 163.78 
L 1051.6887 163.78 
L 1069.889805 163.78 
L 1088.090911 163.78 
L 1106.292017 163.78 
L 1124.493123 163.78 
L 1142.694229 163.78 
L 1160.895335 163.78 
L 1179.096441 163.78 
L 1197.297547 163.78 
L 1215.498653 163.78 
L 1233.699758 163.78 
L 1251.900864 163.78 
L 1270.10197 163.78 
L 1288.303076 163.78 
L 1306.504182 163.78 
L 1324.705288 163.78 
L 1342.906394 163.78 
L 1361.1075 163.78 
L 1379.308605 163.78 
L 1397.509711 163.78 
L 1415.710817 163.78 
L 1433.911923 163.78 
L 1452.113029 163.78 
L 1470.314135 163.78 
L 1488.515241 163.78 
L 1506.716347 163.78 
L 1524.917453 163.78 
L 1543.118558 163.78 
L 1561.319664 163.78 
L 1579.52077 163.78 
L 1597.721876 163.78 
L 1615.922982 163.78 
L 1634.124088 163.78 
L 1652.325194 163.78 
L 1670.5263 163.78 
L 1688.727406 163.78 
L 1706.928511 163.78 
L 1725.129617 163.78 
L 1743.330723 163.78 
L 1761.531829 163.78 
L 1779.732935 163.78 
L 1797.934041 163.78 
L 1816.135147 163.78 
L 1834.336253 163.78 
L 1852.537358 163.78 
L 1870.738464 163.78 
L 1888.93957 163.78 
L 1907.140676 163.78 
L 1925.341782 163.78 
L 1943.542888 163.78 
L 1961.743994 163.78 
L 1979.9451 163.78 
L 1998.146206 163.78 
L 2016.347311 163.78 
L 2034.548417 163.78 
L 2052.749523 163.78 
L 2070.950629 163.78 
L 2089.151735 163.78 
L 2107.352841 163.78 
L 2125.553947 163.78 
L 2143.755053 163.78 
L 2161.956158 163.78 
L 2180.157264 163.78 
L 2198.35837 163.78 
L 2216.559476 163.78 
L 2234.760582 163.78 
L 2252.961688 163.78 
L 2271.162794 163.78 
L 2289.3639 163.78 
L 2307.565006 163.78 
L 2325.766111 163.78 
L 2343.967217 163.78 
L 2362.168323 163.78 
L 2380.369429 163.78 
L 2398.570535 163.78 
L 2416.771641 163.78 
L 2434.972747 163.78 
L 2453.173853 163.78 
L 2471.374958 163.78 
L 2489.576064 163.78 
L 2507.77717 163.78 
L 2525.978276 163.78 
L 2544.179382 163.78 
L 2562.380488 163.78 
L 2580.581594 163.78 
L 2598.7827 163.78 
L 2616.983806 163.78 
L 2635.184911 163.78 
L 2653.386017 163.78 
L 2671.587123 163.78 
L 2689.788229 163.78 
L 2707.989335 163.78 
L 2726.190441 163.78 
L 2744.391547 163.78 
L 2762.592653 163.78 
L 2780.793759 163.78 
L 2798.994864 163.78 
L 2817.19597 163.78 
L 2835.397076 163.78 
L 2853.598182 163.78 
L 2871.799288 163.78 
L 2890.000394 163.78 
L 2908.2015 163.78 
L 2926.402606 163.78 
L 2944.603711 163.78 
L 2962.804817 163.78 
L 2981.005923 163.78 
L 2999.207029 163.78 
L 3017.408135 163.78 
L 3017.408135 163.770954 
L 3017.408135 163.770954 
L 2999.207029 163.764774 
L 2981.005923 163.755175 
L 2962.804817 163.740795 
L 2944.603711 163.720027 
L 2926.402606 163.691125 
L 2908.2015 163.652406 
L 2890.000394 163.602519 
L 2871.799288 163.540776 
L 2853.598182 163.467488 
L 2835.397076 163.384226 
L 2817.19597 163.293941 
L 2798.994864 163.200857 
L 2780.793759 163.11012 
L 2762.592653 163.027224 
L 2744.391547 162.957302 
L 2726.190441 162.904406 
L 2707.989335 162.870948 
L 2689.788229 162.85741 
L 2671.587123 162.862401 
L 2653.386017 162.883039 
L 2635.184911 162.915555 
L 2616.983806 162.955971 
L 2598.7827 163.000671 
L 2580.581594 163.046745 
L 2562.380488 163.092052 
L 2544.179382 163.135032 
L 2525.978276 163.174371 
L 2507.77717 163.208659 
L 2489.576064 163.236181 
L 2471.374958 163.254906 
L 2453.173853 163.262716 
L 2434.972747 163.257798 
L 2416.771641 163.239104 
L 2398.570535 163.206752 
L 2380.369429 163.162254 
L 2362.168323 163.108507 
L 2343.967217 163.049538 
L 2325.766111 162.990041 
L 2307.565006 162.934817 
L 2289.3639 162.888203 
L 2271.162794 162.853628 
L 2252.961688 162.833347 
L 2234.760582 162.828387 
L 2216.559476 162.838678 
L 2198.35837 162.863307 
L 2180.157264 162.900815 
L 2161.956158 162.949443 
L 2143.755053 163.007307 
L 2125.553947 163.072463 
L 2107.352841 163.14291 
L 2089.151735 163.216565 
L 2070.950629 163.291259 
L 2052.749523 163.364791 
L 2034.548417 163.435041 
L 2016.347311 163.500121 
L 1998.146206 163.558529 
L 1979.9451 163.609272 
L 1961.743994 163.651913 
L 1943.542888 163.686555 
L 1925.341782 163.71375 
L 1907.140676 163.734368 
L 1888.93957 163.749448 
L 1870.738464 163.760059 
L 1852.537358 163.767179 
L 1834.336253 163.771614 
L 1816.135147 163.773938 
L 1797.934041 163.774447 
L 1779.732935 163.773125 
L 1761.531829 163.769602 
L 1743.330723 163.763115 
L 1725.129617 163.752461 
L 1706.928511 163.735979 
L 1688.727406 163.711576 
L 1670.5263 163.676837 
L 1652.325194 163.629236 
L 1634.124088 163.566475 
L 1615.922982 163.486933 
L 1597.721876 163.390166 
L 1579.52077 163.277391 
L 1561.319664 163.151824 
L 1543.118558 163.018754 
L 1524.917453 162.885282 
L 1506.716347 162.759674 
L 1488.515241 162.65041 
L 1470.314135 162.565059 
L 1452.113029 162.509199 
L 1433.911923 162.485607 
L 1415.710817 162.493897 
L 1397.509711 162.530696 
L 1379.308605 162.590323 
L 1361.1075 162.665799 
L 1342.906394 162.749967 
L 1324.705288 162.83646 
L 1306.504182 162.920326 
L 1288.303076 162.998197 
L 1270.10197 163.068036 
L 1251.900864 163.128582 
L 1233.699758 163.17869 
L 1215.498653 163.216763 
L 1197.297547 163.24044 
L 1179.096441 163.246637 
L 1160.895335 163.231944 
L 1142.694229 163.193302 
L 1124.493123 163.128824 
L 1106.292017 163.038598 
L 1088.090911 162.92529 
L 1069.889805 162.794401 
L 1051.6887 162.654068 
L 1033.487594 162.514393 
L 1015.286488 162.38633 
L 997.085382 162.280281 
L 978.884276 162.2046 
L 960.68317 162.164237 
L 942.482064 162.159754 
L 924.280958 162.18686 
L 906.079853 162.236561 
L 887.878747 162.295852 
L 869.677641 162.348852 
L 851.476535 162.378168 
L 833.275429 162.366308 
L 815.074323 162.29698 
L 796.873217 162.156205 
L 778.672111 161.933208 
L 760.471005 161.621159 
L 742.2699 161.217782 
L 724.068794 160.725893 
L 705.867688 160.15381 
L 687.666582 159.51555 
L 669.465476 158.83068 
L 651.26437 158.123631 
L 633.063264 157.422395 
L 614.862158 156.756523 
L 596.661053 156.154534 
L 578.459947 155.640952 
L 560.258841 155.233316 
L 542.057735 154.93963 
L 523.856629 154.756693 
L 505.655523 154.669728 
L 487.454417 154.653511 
L 469.253311 154.674961 
L 451.052205 154.696883 
L 432.8511 154.682244 
L 414.649994 154.598233 
L 396.448888 154.419314 
L 378.247782 154.128618 
L 360.046676 153.71735 
L 341.84557 153.182253 
L 323.644464 152.521633 
L 305.443358 151.730742 
L 287.242253 150.79756 
L 269.041147 149.699963 
L 250.840041 148.405081 
L 232.638935 146.871221 
L 214.437829 145.052228 
L 196.236723 142.903546 
L 178.035617 140.388737 
L 159.834511 137.484826 
L 141.633405 134.184738 
L 123.4323 130.495394 
L 105.231194 126.430797 
L 87.030088 122.000664 
L 68.828982 117.196699 
L 50.627876 111.980107 
L 32.42677 106.275012 
L 14.225664 99.972479 
L -3.975442 92.948583 
L -22.176548 85.097164 
L -40.377653 76.374102 
L -58.578759 66.845724 
L -76.779865 56.730686 
L -94.980971 46.423339 
L -113.182077 36.488288 
L -131.383183 27.620571 
L -149.584289 20.573033 
L -167.785395 16.060398 
L -185.9865 14.65619 
L -204.187606 16.701969 
L -222.388712 22.24722 
L -240.589818 31.032498 
L -258.790924 42.519558 
L -276.99203 55.962353 
L -295.193136 70.504663 
L -313.394242 85.285602 
L -331.595348 99.5344 
L -349.796453 112.640081 
L -367.997559 124.188507 
L -386.198665 133.966643 
L -404.399771 141.939993 
L -422.600877 148.212727 
L -440.801983 152.980846 
L -459.003089 156.487208 
L -477.204195 158.984445 
L -495.4053 160.708587 
L -513.606406 161.863544 
L -531.807512 162.614759 
L -550.008618 163.089497 
L -568.209724 163.381155 
L -586.41083 163.555426 
L -604.611936 163.656737 
z
" style="fill:#4c72b0;fill-opacity:0.25;stroke:#4c72b0;"/>
   </g>
   <g id="PolyCollection_2">
    <path clip-path="url(#peaf98b7938)" d="M -1011.432762 163.686596 
L -1011.432762 163.78 
L -974.797191 163.78 
L -938.161619 163.78 
L -901.526048 163.78 
L -864.890477 163.78 
L -828.254905 163.78 
L -791.619334 163.78 
L -754.983763 163.78 
L -718.348191 163.78 
L -681.71262 163.78 
L -645.077049 163.78 
L -608.441477 163.78 
L -571.805906 163.78 
L -535.170335 163.78 
L -498.534763 163.78 
L -461.899192 163.78 
L -425.26362 163.78 
L -388.628049 163.78 
L -351.992478 163.78 
L -315.356906 163.78 
L -278.721335 163.78 
L -242.085764 163.78 
L -205.450192 163.78 
L -168.814621 163.78 
L -132.17905 163.78 
L -95.543478 163.78 
L -58.907907 163.78 
L -22.272336 163.78 
L 14.363236 163.78 
L 50.998807 163.78 
L 87.634378 163.78 
L 124.26995 163.78 
L 160.905521 163.78 
L 197.541092 163.78 
L 234.176664 163.78 
L 270.812235 163.78 
L 307.447806 163.78 
L 344.083378 163.78 
L 380.718949 163.78 
L 417.35452 163.78 
L 453.990092 163.78 
L 490.625663 163.78 
L 527.261235 163.78 
L 563.896806 163.78 
L 600.532377 163.78 
L 637.167949 163.78 
L 673.80352 163.78 
L 710.439091 163.78 
L 747.074663 163.78 
L 783.710234 163.78 
L 820.345805 163.78 
L 856.981377 163.78 
L 893.616948 163.78 
L 930.252519 163.78 
L 966.888091 163.78 
L 1003.523662 163.78 
L 1040.159233 163.78 
L 1076.794805 163.78 
L 1113.430376 163.78 
L 1150.065947 163.78 
L 1186.701519 163.78 
L 1223.33709 163.78 
L 1259.972661 163.78 
L 1296.608233 163.78 
L 1333.243804 163.78 
L 1369.879376 163.78 
L 1406.514947 163.78 
L 1443.150518 163.78 
L 1479.78609 163.78 
L 1516.421661 163.78 
L 1553.057232 163.78 
L 1589.692804 163.78 
L 1626.328375 163.78 
L 1662.963946 163.78 
L 1699.599518 163.78 
L 1736.235089 163.78 
L 1772.87066 163.78 
L 1809.506232 163.78 
L 1846.141803 163.78 
L 1882.777374 163.78 
L 1919.412946 163.78 
L 1956.048517 163.78 
L 1992.684088 163.78 
L 2029.31966 163.78 
L 2065.955231 163.78 
L 2102.590802 163.78 
L 2139.226374 163.78 
L 2175.861945 163.78 
L 2212.497516 163.78 
L 2249.133088 163.78 
L 2285.768659 163.78 
L 2322.404231 163.78 
L 2359.039802 163.78 
L 2395.675373 163.78 
L 2432.310945 163.78 
L 2468.946516 163.78 
L 2505.582087 163.78 
L 2542.217659 163.78 
L 2578.85323 163.78 
L 2615.488801 163.78 
L 2652.124373 163.78 
L 2688.759944 163.78 
L 2725.395515 163.78 
L 2762.031087 163.78 
L 2798.666658 163.78 
L 2835.302229 163.78 
L 2871.937801 163.78 
L 2908.573372 163.78 
L 2945.208943 163.78 
L 2981.844515 163.78 
L 3018.480086 163.78 
L 3055.115657 163.78 
L 3091.751229 163.78 
L 3128.3868 163.78 
L 3165.022371 163.78 
L 3201.657943 163.78 
L 3238.293514 163.78 
L 3274.929086 163.78 
L 3311.564657 163.78 
L 3348.200228 163.78 
L 3384.8358 163.78 
L 3421.471371 163.78 
L 3458.106942 163.78 
L 3494.742514 163.78 
L 3531.378085 163.78 
L 3568.013656 163.78 
L 3604.649228 163.78 
L 3641.284799 163.78 
L 3677.92037 163.78 
L 3714.555942 163.78 
L 3751.191513 163.78 
L 3787.827084 163.78 
L 3824.462656 163.78 
L 3861.098227 163.78 
L 3897.733798 163.78 
L 3934.36937 163.78 
L 3971.004941 163.78 
L 4007.640512 163.78 
L 4044.276084 163.78 
L 4080.911655 163.78 
L 4117.547227 163.78 
L 4154.182798 163.78 
L 4190.818369 163.78 
L 4227.453941 163.78 
L 4264.089512 163.78 
L 4300.725083 163.78 
L 4337.360655 163.78 
L 4373.996226 163.78 
L 4410.631797 163.78 
L 4447.267369 163.78 
L 4483.90294 163.78 
L 4520.538511 163.78 
L 4557.174083 163.78 
L 4593.809654 163.78 
L 4630.445225 163.78 
L 4667.080797 163.78 
L 4703.716368 163.78 
L 4740.351939 163.78 
L 4776.987511 163.78 
L 4813.623082 163.78 
L 4850.258653 163.78 
L 4886.894225 163.78 
L 4923.529796 163.78 
L 4960.165367 163.78 
L 4996.800939 163.78 
L 5033.43651 163.78 
L 5070.072082 163.78 
L 5106.707653 163.78 
L 5143.343224 163.78 
L 5179.978796 163.78 
L 5216.614367 163.78 
L 5253.249938 163.78 
L 5289.88551 163.78 
L 5326.521081 163.78 
L 5363.156652 163.78 
L 5399.792224 163.78 
L 5436.427795 163.78 
L 5473.063366 163.78 
L 5509.698938 163.78 
L 5546.334509 163.78 
L 5582.97008 163.78 
L 5619.605652 163.78 
L 5656.241223 163.78 
L 5692.876794 163.78 
L 5729.512366 163.78 
L 5766.147937 163.78 
L 5802.783508 163.78 
L 5839.41908 163.78 
L 5876.054651 163.78 
L 5912.690222 163.78 
L 5949.325794 163.78 
L 5985.961365 163.78 
L 6022.596937 163.78 
L 6059.232508 163.78 
L 6095.868079 163.78 
L 6132.503651 163.78 
L 6169.139222 163.78 
L 6205.774793 163.78 
L 6242.410365 163.78 
L 6279.045936 163.78 
L 6279.045936 163.770667 
L 6279.045936 163.770667 
L 6242.410365 163.765347 
L 6205.774793 163.757535 
L 6169.139222 163.746371 
L 6132.503651 163.730844 
L 6095.868079 163.709837 
L 6059.232508 163.682211 
L 6022.596937 163.646916 
L 5985.961365 163.603143 
L 5949.325794 163.550506 
L 5912.690222 163.48921 
L 5876.054651 163.420216 
L 5839.41908 163.345329 
L 5802.783508 163.267214 
L 5766.147937 163.189299 
L 5729.512366 163.115561 
L 5692.876794 163.050208 
L 5656.241223 162.997293 
L 5619.605652 162.960299 
L 5582.97008 162.941761 
L 5546.334509 162.942979 
L 5509.698938 162.963867 
L 5473.063366 163.002963 
L 5436.427795 163.057598 
L 5399.792224 163.124199 
L 5363.156652 163.198672 
L 5326.521081 163.276816 
L 5289.88551 163.354706 
L 5253.249938 163.429 
L 5216.614367 163.497134 
L 5179.978796 163.557407 
L 5143.343224 163.60896 
L 5106.707653 163.651666 
L 5070.072082 163.685976 
L 5033.43651 163.712734 
L 4996.800939 163.73301 
L 4960.165367 163.747947 
L 4923.529796 163.75865 
L 4886.894225 163.766114 
L 4850.258653 163.771181 
L 4813.623082 163.774531 
L 4776.987511 163.776688 
L 4740.351939 163.778042 
L 4703.716368 163.778869 
L 4667.080797 163.779363 
L 4630.445225 163.779649 
L 4593.809654 163.779811 
L 4557.174083 163.779901 
L 4520.538511 163.779949 
L 4483.90294 163.779975 
L 4447.267369 163.779988 
L 4410.631797 163.779994 
L 4373.996226 163.779997 
L 4337.360655 163.779999 
L 4300.725083 163.779999 
L 4264.089512 163.78 
L 4227.453941 163.78 
L 4190.818369 163.78 
L 4154.182798 163.78 
L 4117.547227 163.78 
L 4080.911655 163.78 
L 4044.276084 163.78 
L 4007.640512 163.78 
L 3971.004941 163.779999 
L 3934.36937 163.779998 
L 3897.733798 163.779996 
L 3861.098227 163.779991 
L 3824.462656 163.779982 
L 3787.827084 163.779963 
L 3751.191513 163.779927 
L 3714.555942 163.779858 
L 3677.92037 163.779729 
L 3641.284799 163.779497 
L 3604.649228 163.779087 
L 3568.013656 163.778382 
L 3531.378085 163.777199 
L 3494.742514 163.775266 
L 3458.106942 163.772184 
L 3421.471371 163.767397 
L 3384.8358 163.760149 
L 3348.200228 163.749457 
L 3311.564657 163.734091 
L 3274.929086 163.712582 
L 3238.293514 163.683268 
L 3201.657943 163.644375 
L 3165.022371 163.594161 
L 3128.3868 163.531097 
L 3091.751229 163.454086 
L 3055.115657 163.362687 
L 3018.480086 163.257322 
L 2981.844515 163.139413 
L 2945.208943 163.011419 
L 2908.573372 162.876745 
L 2871.937801 162.739511 
L 2835.302229 162.604201 
L 2798.666658 162.475224 
L 2762.031087 162.356456 
L 2725.395515 162.25084 
L 2688.759944 162.160106 
L 2652.124373 162.084669 
L 2615.488801 162.02374 
L 2578.85323 161.975613 
L 2542.217659 161.938108 
L 2505.582087 161.909063 
L 2468.946516 161.886813 
L 2432.310945 161.870537 
L 2395.675373 161.860439 
L 2359.039802 161.857699 
L 2322.404231 161.864224 
L 2285.768659 161.882219 
L 2249.133088 161.913659 
L 2212.497516 161.959744 
L 2175.861945 162.020413 
L 2139.226374 162.094008 
L 2102.590802 162.17711 
L 2065.955231 162.264602 
L 2029.31966 162.349924 
L 1992.684088 162.425514 
L 1956.048517 162.48336 
L 1919.412946 162.515632 
L 1882.777374 162.515296 
L 1846.141803 162.476683 
L 1809.506232 162.395936 
L 1772.87066 162.271308 
L 1736.235089 162.103294 
L 1699.599518 161.894567 
L 1662.963946 161.649756 
L 1626.328375 161.375058 
L 1589.692804 161.07774 
L 1553.057232 160.765551 
L 1516.421661 160.446106 
L 1479.78609 160.126287 
L 1443.150518 159.81169 
L 1406.514947 159.506162 
L 1369.879376 159.211447 
L 1333.243804 158.926956 
L 1296.608233 158.649657 
L 1259.972661 158.374096 
L 1223.33709 158.092547 
L 1186.701519 157.795318 
L 1150.065947 157.471213 
L 1113.430376 157.108179 
L 1076.794805 156.69415 
L 1040.159233 156.218042 
L 1003.523662 155.670863 
L 966.888091 155.04679 
L 930.252519 154.344075 
L 893.616948 153.565589 
L 856.981377 152.718814 
L 820.345805 151.815167 
L 783.710234 150.868598 
L 747.074663 149.893529 
L 710.439091 148.902297 
L 673.80352 147.90239 
L 637.167949 146.893793 
L 600.532377 145.86682 
L 563.896806 144.80077 
L 527.261235 143.66369 
L 490.625663 142.413462 
L 453.990092 141.000346 
L 417.35452 139.371006 
L 380.718949 137.47391 
L 344.083378 135.265884 
L 307.447806 132.719366 
L 270.812235 129.829774 
L 234.176664 126.622129 
L 197.541092 123.156018 
L 160.905521 119.527887 
L 124.26995 115.869805 
L 87.634378 112.344146 
L 50.998807 109.134078 
L 14.363236 106.430354 
L -22.272336 104.41551 
L -58.907907 103.247108 
L -95.543478 103.042 
L -132.17905 103.863651 
L -168.814621 105.714281 
L -205.450192 108.533031 
L -242.085764 112.200528 
L -278.721335 116.549361 
L -315.356906 121.379135 
L -351.992478 126.474159 
L -388.628049 131.621532 
L -425.26362 136.627466 
L -461.899192 141.330096 
L -498.534763 145.60765 
L -535.170335 149.381644 
L -571.805906 152.615461 
L -608.441477 155.30923 
L -645.077049 157.492269 
L -681.71262 159.214434 
L -718.348191 160.537569 
L -754.983763 161.527974 
L -791.619334 162.250471 
L -828.254905 162.764258 
L -864.890477 163.120502 
L -901.526048 163.361384 
L -938.161619 163.520248 
L -974.797191 163.622451 
L -1011.432762 163.686596 
z
" style="fill:#dd8452;fill-opacity:0.25;stroke:#dd8452;"/>
   </g>
   <g id="patch_3">
    <path d="M 44.224063 163.78 
L 44.224063 7.2 
" style="fill:none;stroke:#ffffff;stroke-linecap:square;stroke-linejoin:miter;stroke-width:1.25;"/>
   </g>
   <g id="patch_4">
    <path d="M 44.224063 163.78 
L 845.723398 163.78 
" style="fill:none;stroke:#ffffff;stroke-linecap:square;stroke-linejoin:miter;stroke-width:1.25;"/>
   </g>
  </g>
  <g id="legend_1">
   <g id="text_17">
    <!-- Survived -->
    <g style="fill:#262626;" transform="translate(855.583273 90.299453)scale(0.12 -0.12)">
     <defs>
      <path d="M 4.5 23 
L 13.421875 23.78125 
Q 14.0625 18.40625 16.375 14.96875 
Q 18.703125 11.53125 23.578125 9.40625 
Q 28.46875 7.28125 34.578125 7.28125 
Q 39.984375 7.28125 44.140625 8.890625 
Q 48.296875 10.5 50.3125 13.296875 
Q 52.34375 16.109375 52.34375 19.4375 
Q 52.34375 22.796875 50.390625 25.3125 
Q 48.4375 27.828125 43.953125 29.546875 
Q 41.0625 30.671875 31.203125 33.03125 
Q 21.34375 35.40625 17.390625 37.5 
Q 12.25 40.1875 9.734375 44.15625 
Q 7.234375 48.140625 7.234375 53.078125 
Q 7.234375 58.5 10.296875 63.203125 
Q 13.375 67.921875 19.28125 70.359375 
Q 25.203125 72.796875 32.421875 72.796875 
Q 40.375 72.796875 46.453125 70.234375 
Q 52.546875 67.671875 55.8125 62.6875 
Q 59.078125 57.71875 59.328125 51.421875 
L 50.25 50.734375 
Q 49.515625 57.515625 45.28125 60.984375 
Q 41.0625 64.453125 32.8125 64.453125 
Q 24.21875 64.453125 20.28125 61.296875 
Q 16.359375 58.15625 16.359375 53.71875 
Q 16.359375 49.859375 19.140625 47.359375 
Q 21.875 44.875 33.421875 42.265625 
Q 44.96875 39.65625 49.265625 37.703125 
Q 55.515625 34.8125 58.484375 30.390625 
Q 61.46875 25.984375 61.46875 20.21875 
Q 61.46875 14.5 58.203125 9.4375 
Q 54.9375 4.390625 48.796875 1.578125 
Q 42.671875 -1.21875 35.015625 -1.21875 
Q 25.296875 -1.21875 18.71875 1.609375 
Q 12.15625 4.4375 8.421875 10.125 
Q 4.6875 15.828125 4.5 23 
z
" id="ArialMT-83"/>
      <path d="M 40.578125 0 
L 40.578125 7.625 
Q 34.515625 -1.171875 24.125 -1.171875 
Q 19.53125 -1.171875 15.546875 0.578125 
Q 11.578125 2.34375 9.640625 5 
Q 7.71875 7.671875 6.9375 11.53125 
Q 6.390625 14.109375 6.390625 19.734375 
L 6.390625 51.859375 
L 15.1875 51.859375 
L 15.1875 23.09375 
Q 15.1875 16.21875 15.71875 13.8125 
Q 16.546875 10.359375 19.234375 8.375 
Q 21.921875 6.390625 25.875 6.390625 
Q 29.828125 6.390625 33.296875 8.421875 
Q 36.765625 10.453125 38.203125 13.9375 
Q 39.65625 17.4375 39.65625 24.078125 
L 39.65625 51.859375 
L 48.4375 51.859375 
L 48.4375 0 
z
" id="ArialMT-117"/>
      <path d="M 21 0 
L 1.265625 51.859375 
L 10.546875 51.859375 
L 21.6875 20.796875 
Q 23.484375 15.765625 25 10.359375 
Q 26.171875 14.453125 28.265625 20.21875 
L 39.796875 51.859375 
L 48.828125 51.859375 
L 29.203125 0 
z
" id="ArialMT-118"/>
      <path d="M 6.640625 61.46875 
L 6.640625 71.578125 
L 15.4375 71.578125 
L 15.4375 61.46875 
z
M 6.640625 0 
L 6.640625 51.859375 
L 15.4375 51.859375 
L 15.4375 0 
z
" id="ArialMT-105"/>
      <path d="M 40.234375 0 
L 40.234375 6.546875 
Q 35.296875 -1.171875 25.734375 -1.171875 
Q 19.53125 -1.171875 14.328125 2.25 
Q 9.125 5.671875 6.265625 11.796875 
Q 3.421875 17.921875 3.421875 25.875 
Q 3.421875 33.640625 6 39.96875 
Q 8.59375 46.296875 13.765625 49.65625 
Q 18.953125 53.03125 25.34375 53.03125 
Q 30.03125 53.03125 33.6875 51.046875 
Q 37.359375 49.078125 39.65625 45.90625 
L 39.65625 71.578125 
L 48.390625 71.578125 
L 48.390625 0 
z
M 12.453125 25.875 
Q 12.453125 15.921875 16.640625 10.984375 
Q 20.84375 6.0625 26.5625 6.0625 
Q 32.328125 6.0625 36.34375 10.765625 
Q 40.375 15.484375 40.375 25.140625 
Q 40.375 35.796875 36.265625 40.765625 
Q 32.171875 45.75 26.171875 45.75 
Q 20.3125 45.75 16.375 40.96875 
Q 12.453125 36.1875 12.453125 25.875 
z
" id="ArialMT-100"/>
     </defs>
     <use xlink:href="#ArialMT-83"/>
     <use x="66.699219" xlink:href="#ArialMT-117"/>
     <use x="122.314453" xlink:href="#ArialMT-114"/>
     <use x="155.615234" xlink:href="#ArialMT-118"/>
     <use x="205.615234" xlink:href="#ArialMT-105"/>
     <use x="227.832031" xlink:href="#ArialMT-118"/>
     <use x="277.832031" xlink:href="#ArialMT-101"/>
     <use x="333.447266" xlink:href="#ArialMT-100"/>
    </g>
   </g>
   <g id="patch_5">
    <path d="M 860.46757 106.058047 
L 882.46757 106.058047 
L 882.46757 98.358047 
L 860.46757 98.358047 
z
" style="fill:#4c72b0;fill-opacity:0.25;stroke:#4c72b0;stroke-linejoin:miter;"/>
   </g>
   <g id="text_18">
    <!-- 0 -->
    <g style="fill:#262626;" transform="translate(891.26757 106.058047)scale(0.11 -0.11)">
     <use xlink:href="#ArialMT-48"/>
    </g>
   </g>
   <g id="patch_6">
    <path d="M 860.46757 121.617891 
L 882.46757 121.617891 
L 882.46757 113.917891 
L 860.46757 113.917891 
z
" style="fill:#dd8452;fill-opacity:0.25;stroke:#dd8452;stroke-linejoin:miter;"/>
   </g>
   <g id="text_19">
    <!-- 1 -->
    <g style="fill:#262626;" transform="translate(891.26757 121.617891)scale(0.11 -0.11)">
     <use xlink:href="#ArialMT-49"/>
    </g>
   </g>
  </g>
 </g>
 <defs>
  <clipPath id="peaf98b7938">
   <rect height="156.58" width="801.499336" x="44.224063" y="7.2"/>
  </clipPath>
 </defs>
</svg>
