<?xml version="1.0" encoding="UTF-8" standalone="no"?>
<!DOCTYPE svg PUBLIC "-//W3C//DTD SVG 1.1//EN"
 "http://www.w3.org/Graphics/SVG/1.1/DTD/svg11.dtd">
<!-- Generated by graphviz version 2.40.1 (20161225.0304)
 -->
<!-- Title: Tree Pages: 1 -->
<svg width="918pt" height="373pt"
 viewBox="0.00 0.00 918.00 373.00" xmlns="http://www.w3.org/2000/svg" xmlns:xlink="http://www.w3.org/1999/xlink">
<g id="graph0" class="graph" transform="scale(1 1) rotate(0) translate(4 369)">
<title>Tree</title>
<polygon fill="#ffffff" stroke="transparent" points="-4,4 -4,-369 914,-369 914,4 -4,4"/>
<!-- 0 -->
<g id="node1" class="node">
<title>0</title>
<path fill="#f7d8c1" stroke="#000000" d="M494,-365C494,-365 412,-365 412,-365 406,-365 400,-359 400,-353 400,-353 400,-309 400,-309 400,-303 406,-297 412,-297 412,-297 494,-297 494,-297 500,-297 506,-303 506,-309 506,-309 506,-353 506,-353 506,-359 500,-365 494,-365"/>
<text text-anchor="middle" x="453" y="-349.8" font-family="Helvetica,sans-Serif" font-size="14.00" fill="#000000">X[0] &lt;= 0.197</text>
<text text-anchor="middle" x="453" y="-334.8" font-family="Helvetica,sans-Serif" font-size="14.00" fill="#000000">mse = 0.098</text>
<text text-anchor="middle" x="453" y="-319.8" font-family="Helvetica,sans-Serif" font-size="14.00" fill="#000000">samples = 200</text>
<text text-anchor="middle" x="453" y="-304.8" font-family="Helvetica,sans-Serif" font-size="14.00" fill="#000000">value = 0.354</text>
</g>
<!-- 1 -->
<g id="node2" class="node">
<title>1</title>
<path fill="#eda774" stroke="#000000" d="M374,-261C374,-261 300,-261 300,-261 294,-261 288,-255 288,-249 288,-249 288,-205 288,-205 288,-199 294,-193 300,-193 300,-193 374,-193 374,-193 380,-193 386,-199 386,-205 386,-205 386,-249 386,-249 386,-255 380,-261 374,-261"/>
<text text-anchor="middle" x="337" y="-245.8" font-family="Helvetica,sans-Serif" font-size="14.00" fill="#000000">X[0] &lt;= 0.092</text>
<text text-anchor="middle" x="337" y="-230.8" font-family="Helvetica,sans-Serif" font-size="14.00" fill="#000000">mse = 0.038</text>
<text text-anchor="middle" x="337" y="-215.8" font-family="Helvetica,sans-Serif" font-size="14.00" fill="#000000">samples = 44</text>
<text text-anchor="middle" x="337" y="-200.8" font-family="Helvetica,sans-Serif" font-size="14.00" fill="#000000">value = 0.689</text>
</g>
<!-- 0&#45;&gt;1 -->
<g id="edge1" class="edge">
<title>0&#45;&gt;1</title>
<path fill="none" stroke="#000000" d="M415.0173,-296.9465C404.7023,-287.6986 393.4246,-277.5876 382.7301,-267.9994"/>
<polygon fill="#000000" stroke="#000000" points="384.8502,-265.1995 375.0681,-261.13 380.1774,-270.4115 384.8502,-265.1995"/>
<text text-anchor="middle" x="376.4297" y="-282.3929" font-family="Helvetica,sans-Serif" font-size="14.00" fill="#000000">True</text>
</g>
<!-- 8 -->
<g id="node9" class="node">
<title>8</title>
<path fill="#fae5d7" stroke="#000000" d="M610,-261C610,-261 528,-261 528,-261 522,-261 516,-255 516,-249 516,-249 516,-205 516,-205 516,-199 522,-193 528,-193 528,-193 610,-193 610,-193 616,-193 622,-199 622,-205 622,-205 622,-249 622,-249 622,-255 616,-261 610,-261"/>
<text text-anchor="middle" x="569" y="-245.8" font-family="Helvetica,sans-Serif" font-size="14.00" fill="#000000">X[0] &lt;= 0.772</text>
<text text-anchor="middle" x="569" y="-230.8" font-family="Helvetica,sans-Serif" font-size="14.00" fill="#000000">mse = 0.074</text>
<text text-anchor="middle" x="569" y="-215.8" font-family="Helvetica,sans-Serif" font-size="14.00" fill="#000000">samples = 156</text>
<text text-anchor="middle" x="569" y="-200.8" font-family="Helvetica,sans-Serif" font-size="14.00" fill="#000000">value = 0.259</text>
</g>
<!-- 0&#45;&gt;8 -->
<g id="edge8" class="edge">
<title>0&#45;&gt;8</title>
<path fill="none" stroke="#000000" d="M490.9827,-296.9465C501.2977,-287.6986 512.5754,-277.5876 523.2699,-267.9994"/>
<polygon fill="#000000" stroke="#000000" points="525.8226,-270.4115 530.9319,-261.13 521.1498,-265.1995 525.8226,-270.4115"/>
<text text-anchor="middle" x="529.5703" y="-282.3929" font-family="Helvetica,sans-Serif" font-size="14.00" fill="#000000">False</text>
</g>
<!-- 2 -->
<g id="node3" class="node">
<title>2</title>
<path fill="#e88f4e" stroke="#000000" d="M202,-157C202,-157 128,-157 128,-157 122,-157 116,-151 116,-145 116,-145 116,-101 116,-101 116,-95 122,-89 128,-89 128,-89 202,-89 202,-89 208,-89 214,-95 214,-101 214,-101 214,-145 214,-145 214,-151 208,-157 202,-157"/>
<text text-anchor="middle" x="165" y="-141.8" font-family="Helvetica,sans-Serif" font-size="14.00" fill="#000000">X[0] &lt;= 0.046</text>
<text text-anchor="middle" x="165" y="-126.8" font-family="Helvetica,sans-Serif" font-size="14.00" fill="#000000">mse = 0.018</text>
<text text-anchor="middle" x="165" y="-111.8" font-family="Helvetica,sans-Serif" font-size="14.00" fill="#000000">samples = 20</text>
<text text-anchor="middle" x="165" y="-96.8" font-family="Helvetica,sans-Serif" font-size="14.00" fill="#000000">value = 0.854</text>
</g>
<!-- 1&#45;&gt;2 -->
<g id="edge2" class="edge">
<title>1&#45;&gt;2</title>
<path fill="none" stroke="#000000" d="M287.7117,-197.1978C267.5601,-185.0131 244.0978,-170.8266 223.118,-158.1411"/>
<polygon fill="#000000" stroke="#000000" points="224.6638,-154.9858 214.2955,-152.8066 221.0418,-160.9759 224.6638,-154.9858"/>
</g>
<!-- 5 -->
<g id="node6" class="node">
<title>5</title>
<path fill="#f1bb94" stroke="#000000" d="M374,-157C374,-157 300,-157 300,-157 294,-157 288,-151 288,-145 288,-145 288,-101 288,-101 288,-95 294,-89 300,-89 300,-89 374,-89 374,-89 380,-89 386,-95 386,-101 386,-101 386,-145 386,-145 386,-151 380,-157 374,-157"/>
<text text-anchor="middle" x="337" y="-141.8" font-family="Helvetica,sans-Serif" font-size="14.00" fill="#000000">X[0] &lt;= 0.13</text>
<text text-anchor="middle" x="337" y="-126.8" font-family="Helvetica,sans-Serif" font-size="14.00" fill="#000000">mse = 0.013</text>
<text text-anchor="middle" x="337" y="-111.8" font-family="Helvetica,sans-Serif" font-size="14.00" fill="#000000">samples = 24</text>
<text text-anchor="middle" x="337" y="-96.8" font-family="Helvetica,sans-Serif" font-size="14.00" fill="#000000">value = 0.552</text>
</g>
<!-- 1&#45;&gt;5 -->
<g id="edge5" class="edge">
<title>1&#45;&gt;5</title>
<path fill="none" stroke="#000000" d="M337,-192.9465C337,-184.776 337,-175.9318 337,-167.3697"/>
<polygon fill="#000000" stroke="#000000" points="340.5001,-167.13 337,-157.13 333.5001,-167.13 340.5001,-167.13"/>
</g>
<!-- 3 -->
<g id="node4" class="node">
<title>3</title>
<path fill="#e58139" stroke="#000000" d="M86,-53C86,-53 12,-53 12,-53 6,-53 0,-47 0,-41 0,-41 0,-12 0,-12 0,-6 6,0 12,0 12,0 86,0 86,0 92,0 98,-6 98,-12 98,-12 98,-41 98,-41 98,-47 92,-53 86,-53"/>
<text text-anchor="middle" x="49" y="-37.8" font-family="Helvetica,sans-Serif" font-size="14.00" fill="#000000">mse = 0.012</text>
<text text-anchor="middle" x="49" y="-22.8" font-family="Helvetica,sans-Serif" font-size="14.00" fill="#000000">samples = 10</text>
<text text-anchor="middle" x="49" y="-7.8" font-family="Helvetica,sans-Serif" font-size="14.00" fill="#000000">value = 0.947</text>
</g>
<!-- 2&#45;&gt;3 -->
<g id="edge3" class="edge">
<title>2&#45;&gt;3</title>
<path fill="none" stroke="#000000" d="M124.1027,-88.9777C112.6551,-79.4545 100.2313,-69.1191 88.8455,-59.6473"/>
<polygon fill="#000000" stroke="#000000" points="91.0797,-56.9532 81.1536,-53.2485 86.6029,-62.3345 91.0797,-56.9532"/>
</g>
<!-- 4 -->
<g id="node5" class="node">
<title>4</title>
<path fill="#eb9c64" stroke="#000000" d="M202,-53C202,-53 128,-53 128,-53 122,-53 116,-47 116,-41 116,-41 116,-12 116,-12 116,-6 122,0 128,0 128,0 202,0 202,0 208,0 214,-6 214,-12 214,-12 214,-41 214,-41 214,-47 208,-53 202,-53"/>
<text text-anchor="middle" x="165" y="-37.8" font-family="Helvetica,sans-Serif" font-size="14.00" fill="#000000">mse = 0.006</text>
<text text-anchor="middle" x="165" y="-22.8" font-family="Helvetica,sans-Serif" font-size="14.00" fill="#000000">samples = 10</text>
<text text-anchor="middle" x="165" y="-7.8" font-family="Helvetica,sans-Serif" font-size="14.00" fill="#000000">value = 0.761</text>
</g>
<!-- 2&#45;&gt;4 -->
<g id="edge4" class="edge">
<title>2&#45;&gt;4</title>
<path fill="none" stroke="#000000" d="M165,-88.9777C165,-80.7364 165,-71.887 165,-63.5153"/>
<polygon fill="#000000" stroke="#000000" points="168.5001,-63.2484 165,-53.2485 161.5001,-63.2485 168.5001,-63.2484"/>
</g>
<!-- 6 -->
<g id="node7" class="node">
<title>6</title>
<path fill="#eeaf81" stroke="#000000" d="M318,-53C318,-53 244,-53 244,-53 238,-53 232,-47 232,-41 232,-41 232,-12 232,-12 232,-6 238,0 244,0 244,0 318,0 318,0 324,0 330,-6 330,-12 330,-12 330,-41 330,-41 330,-47 324,-53 318,-53"/>
<text text-anchor="middle" x="281" y="-37.8" font-family="Helvetica,sans-Serif" font-size="14.00" fill="#000000">mse = 0.007</text>
<text text-anchor="middle" x="281" y="-22.8" font-family="Helvetica,sans-Serif" font-size="14.00" fill="#000000">samples = 9</text>
<text text-anchor="middle" x="281" y="-7.8" font-family="Helvetica,sans-Serif" font-size="14.00" fill="#000000">value = 0.633</text>
</g>
<!-- 5&#45;&gt;6 -->
<g id="edge6" class="edge">
<title>5&#45;&gt;6</title>
<path fill="none" stroke="#000000" d="M317.2565,-88.9777C312.2083,-80.2786 306.7669,-70.9018 301.6734,-62.1247"/>
<polygon fill="#000000" stroke="#000000" points="304.5689,-60.1409 296.5224,-53.2485 298.5145,-63.6544 304.5689,-60.1409"/>
</g>
<!-- 7 -->
<g id="node8" class="node">
<title>7</title>
<path fill="#f2c29f" stroke="#000000" d="M434,-53C434,-53 360,-53 360,-53 354,-53 348,-47 348,-41 348,-41 348,-12 348,-12 348,-6 354,0 360,0 360,0 434,0 434,0 440,0 446,-6 446,-12 446,-12 446,-41 446,-41 446,-47 440,-53 434,-53"/>
<text text-anchor="middle" x="397" y="-37.8" font-family="Helvetica,sans-Serif" font-size="14.00" fill="#000000">mse = 0.01</text>
<text text-anchor="middle" x="397" y="-22.8" font-family="Helvetica,sans-Serif" font-size="14.00" fill="#000000">samples = 15</text>
<text text-anchor="middle" x="397" y="-7.8" font-family="Helvetica,sans-Serif" font-size="14.00" fill="#000000">value = 0.504</text>
</g>
<!-- 5&#45;&gt;7 -->
<g id="edge7" class="edge">
<title>5&#45;&gt;7</title>
<path fill="none" stroke="#000000" d="M358.1538,-88.9777C363.6195,-80.187 369.5154,-70.7044 375.0222,-61.8477"/>
<polygon fill="#000000" stroke="#000000" points="378.0609,-63.5889 380.3688,-53.2485 372.1163,-59.8927 378.0609,-63.5889"/>
</g>
<!-- 9 -->
<g id="node10" class="node">
<title>9</title>
<path fill="#fefbf9" stroke="#000000" d="M610,-157C610,-157 528,-157 528,-157 522,-157 516,-151 516,-145 516,-145 516,-101 516,-101 516,-95 522,-89 528,-89 528,-89 610,-89 610,-89 616,-89 622,-95 622,-101 622,-101 622,-145 622,-145 622,-151 616,-157 610,-157"/>
<text text-anchor="middle" x="569" y="-141.8" font-family="Helvetica,sans-Serif" font-size="14.00" fill="#000000">X[0] &lt;= 0.287</text>
<text text-anchor="middle" x="569" y="-126.8" font-family="Helvetica,sans-Serif" font-size="14.00" fill="#000000">mse = 0.015</text>
<text text-anchor="middle" x="569" y="-111.8" font-family="Helvetica,sans-Serif" font-size="14.00" fill="#000000">samples = 110</text>
<text text-anchor="middle" x="569" y="-96.8" font-family="Helvetica,sans-Serif" font-size="14.00" fill="#000000">value = 0.111</text>
</g>
<!-- 8&#45;&gt;9 -->
<g id="edge9" class="edge">
<title>8&#45;&gt;9</title>
<path fill="none" stroke="#000000" d="M569,-192.9465C569,-184.776 569,-175.9318 569,-167.3697"/>
<polygon fill="#000000" stroke="#000000" points="572.5001,-167.13 569,-157.13 565.5001,-167.13 572.5001,-167.13"/>
</g>
<!-- 12 -->
<g id="node13" class="node">
<title>12</title>
<path fill="#efb285" stroke="#000000" d="M782,-157C782,-157 708,-157 708,-157 702,-157 696,-151 696,-145 696,-145 696,-101 696,-101 696,-95 702,-89 708,-89 708,-89 782,-89 782,-89 788,-89 794,-95 794,-101 794,-101 794,-145 794,-145 794,-151 788,-157 782,-157"/>
<text text-anchor="middle" x="745" y="-141.8" font-family="Helvetica,sans-Serif" font-size="14.00" fill="#000000">X[0] &lt;= 0.904</text>
<text text-anchor="middle" x="745" y="-126.8" font-family="Helvetica,sans-Serif" font-size="14.00" fill="#000000">mse = 0.036</text>
<text text-anchor="middle" x="745" y="-111.8" font-family="Helvetica,sans-Serif" font-size="14.00" fill="#000000">samples = 46</text>
<text text-anchor="middle" x="745" y="-96.8" font-family="Helvetica,sans-Serif" font-size="14.00" fill="#000000">value = 0.615</text>
</g>
<!-- 8&#45;&gt;12 -->
<g id="edge12" class="edge">
<title>8&#45;&gt;12</title>
<path fill="none" stroke="#000000" d="M622.2834,-195.5143C642.7333,-183.4303 666.1621,-169.586 687.0307,-157.2546"/>
<polygon fill="#000000" stroke="#000000" points="688.9727,-160.1725 695.8014,-152.0719 685.4116,-154.146 688.9727,-160.1725"/>
</g>
<!-- 10 -->
<g id="node11" class="node">
<title>10</title>
<path fill="#fae9dc" stroke="#000000" d="M550,-53C550,-53 476,-53 476,-53 470,-53 464,-47 464,-41 464,-41 464,-12 464,-12 464,-6 470,0 476,0 476,0 550,0 550,0 556,0 562,-6 562,-12 562,-12 562,-41 562,-41 562,-47 556,-53 550,-53"/>
<text text-anchor="middle" x="513" y="-37.8" font-family="Helvetica,sans-Serif" font-size="14.00" fill="#000000">mse = 0.006</text>
<text text-anchor="middle" x="513" y="-22.8" font-family="Helvetica,sans-Serif" font-size="14.00" fill="#000000">samples = 19</text>
<text text-anchor="middle" x="513" y="-7.8" font-family="Helvetica,sans-Serif" font-size="14.00" fill="#000000">value = 0.236</text>
</g>
<!-- 9&#45;&gt;10 -->
<g id="edge10" class="edge">
<title>9&#45;&gt;10</title>
<path fill="none" stroke="#000000" d="M549.2565,-88.9777C544.2083,-80.2786 538.7669,-70.9018 533.6734,-62.1247"/>
<polygon fill="#000000" stroke="#000000" points="536.5689,-60.1409 528.5224,-53.2485 530.5145,-63.6544 536.5689,-60.1409"/>
</g>
<!-- 11 -->
<g id="node12" class="node">
<title>11</title>
<path fill="#ffffff" stroke="#000000" d="M666,-53C666,-53 592,-53 592,-53 586,-53 580,-47 580,-41 580,-41 580,-12 580,-12 580,-6 586,0 592,0 592,0 666,0 666,0 672,0 678,-6 678,-12 678,-12 678,-41 678,-41 678,-47 672,-53 666,-53"/>
<text text-anchor="middle" x="629" y="-37.8" font-family="Helvetica,sans-Serif" font-size="14.00" fill="#000000">mse = 0.013</text>
<text text-anchor="middle" x="629" y="-22.8" font-family="Helvetica,sans-Serif" font-size="14.00" fill="#000000">samples = 91</text>
<text text-anchor="middle" x="629" y="-7.8" font-family="Helvetica,sans-Serif" font-size="14.00" fill="#000000">value = 0.084</text>
</g>
<!-- 9&#45;&gt;11 -->
<g id="edge11" class="edge">
<title>9&#45;&gt;11</title>
<path fill="none" stroke="#000000" d="M590.1538,-88.9777C595.6195,-80.187 601.5154,-70.7044 607.0222,-61.8477"/>
<polygon fill="#000000" stroke="#000000" points="610.0609,-63.5889 612.3688,-53.2485 604.1163,-59.8927 610.0609,-63.5889"/>
</g>
<!-- 13 -->
<g id="node14" class="node">
<title>13</title>
<path fill="#f3c4a2" stroke="#000000" d="M782,-53C782,-53 708,-53 708,-53 702,-53 696,-47 696,-41 696,-41 696,-12 696,-12 696,-6 702,0 708,0 708,0 782,0 782,0 788,0 794,-6 794,-12 794,-12 794,-41 794,-41 794,-47 788,-53 782,-53"/>
<text text-anchor="middle" x="745" y="-37.8" font-family="Helvetica,sans-Serif" font-size="14.00" fill="#000000">mse = 0.012</text>
<text text-anchor="middle" x="745" y="-22.8" font-family="Helvetica,sans-Serif" font-size="14.00" fill="#000000">samples = 28</text>
<text text-anchor="middle" x="745" y="-7.8" font-family="Helvetica,sans-Serif" font-size="14.00" fill="#000000">value = 0.489</text>
</g>
<!-- 12&#45;&gt;13 -->
<g id="edge13" class="edge">
<title>12&#45;&gt;13</title>
<path fill="none" stroke="#000000" d="M745,-88.9777C745,-80.7364 745,-71.887 745,-63.5153"/>
<polygon fill="#000000" stroke="#000000" points="748.5001,-63.2484 745,-53.2485 741.5001,-63.2485 748.5001,-63.2484"/>
</g>
<!-- 14 -->
<g id="node15" class="node">
<title>14</title>
<path fill="#e99558" stroke="#000000" d="M898,-53C898,-53 824,-53 824,-53 818,-53 812,-47 812,-41 812,-41 812,-12 812,-12 812,-6 818,0 824,0 824,0 898,0 898,0 904,0 910,-6 910,-12 910,-12 910,-41 910,-41 910,-47 904,-53 898,-53"/>
<text text-anchor="middle" x="861" y="-37.8" font-family="Helvetica,sans-Serif" font-size="14.00" fill="#000000">mse = 0.01</text>
<text text-anchor="middle" x="861" y="-22.8" font-family="Helvetica,sans-Serif" font-size="14.00" fill="#000000">samples = 18</text>
<text text-anchor="middle" x="861" y="-7.8" font-family="Helvetica,sans-Serif" font-size="14.00" fill="#000000">value = 0.811</text>
</g>
<!-- 12&#45;&gt;14 -->
<g id="edge14" class="edge">
<title>12&#45;&gt;14</title>
<path fill="none" stroke="#000000" d="M785.8973,-88.9777C797.3449,-79.4545 809.7687,-69.1191 821.1545,-59.6473"/>
<polygon fill="#000000" stroke="#000000" points="823.3971,-62.3345 828.8464,-53.2485 818.9203,-56.9532 823.3971,-62.3345"/>
</g>
</g>
</svg>
