<?xml version="1.0" encoding="utf-8" standalone="no"?>
<!DOCTYPE svg PUBLIC "-//W3C//DTD SVG 1.1//EN"
  "http://www.w3.org/Graphics/SVG/1.1/DTD/svg11.dtd">
<!-- Created with matplotlib (https://matplotlib.org/) -->
<svg height="205.654844pt" version="1.1" viewBox="0 0 912.437631 205.654844" width="912.437631pt" xmlns="http://www.w3.org/2000/svg" xmlns:xlink="http://www.w3.org/1999/xlink">
 <metadata>
  <rdf:RDF xmlns:cc="http://creativecommons.org/ns#" xmlns:dc="http://purl.org/dc/elements/1.1/" xmlns:rdf="http://www.w3.org/1999/02/22-rdf-syntax-ns#">
   <cc:Work>
    <dc:type rdf:resource="http://purl.org/dc/dcmitype/StillImage"/>
    <dc:date>2020-10-19T19:39:00.764546</dc:date>
    <dc:format>image/svg+xml</dc:format>
    <dc:creator>
     <cc:Agent>
      <dc:title>Matplotlib v3.3.2, https://matplotlib.org/</dc:title>
     </cc:Agent>
    </dc:creator>
   </cc:Work>
  </rdf:RDF>
 </metadata>
 <defs>
  <style type="text/css">*{stroke-linecap:butt;stroke-linejoin:round;}</style>
 </defs>
 <g id="figure_1">
  <g id="patch_1">
   <path d="M 0 205.654844 
L 912.437631 205.654844 
L 912.437631 0 
L 0 0 
z
" style="fill:#ffffff;"/>
  </g>
  <g id="axes_1">
   <g id="patch_2">
    <path d="M 38.107031 163.78 
L 845.992131 163.78 
L 845.992131 7.2 
L 38.107031 7.2 
z
" style="fill:#eaeaf2;"/>
   </g>
   <g id="matplotlib.axis_1">
    <g id="xtick_1">
     <g id="line2d_1">
      <path clip-path="url(#pa5a1bdb540)" d="M 38.107031 163.78 
L 38.107031 7.2 
" style="fill:none;stroke:#ffffff;stroke-linecap:round;"/>
     </g>
     <g id="text_1">
      <!-- 30 -->
      <g style="fill:#262626;" transform="translate(31.99 181.153594)scale(0.11 -0.11)">
       <defs>
        <path d="M 4.203125 18.890625 
L 12.984375 20.0625 
Q 14.5 12.59375 18.140625 9.296875 
Q 21.78125 6 27 6 
Q 33.203125 6 37.46875 10.296875 
Q 41.75 14.59375 41.75 20.953125 
Q 41.75 27 37.796875 30.921875 
Q 33.84375 34.859375 27.734375 34.859375 
Q 25.25 34.859375 21.53125 33.890625 
L 22.515625 41.609375 
Q 23.390625 41.5 23.921875 41.5 
Q 29.546875 41.5 34.03125 44.421875 
Q 38.53125 47.359375 38.53125 53.46875 
Q 38.53125 58.296875 35.25 61.46875 
Q 31.984375 64.65625 26.8125 64.65625 
Q 21.6875 64.65625 18.265625 61.421875 
Q 14.84375 58.203125 13.875 51.765625 
L 5.078125 53.328125 
Q 6.6875 62.15625 12.390625 67.015625 
Q 18.109375 71.875 26.609375 71.875 
Q 32.46875 71.875 37.390625 69.359375 
Q 42.328125 66.84375 44.9375 62.5 
Q 47.5625 58.15625 47.5625 53.265625 
Q 47.5625 48.640625 45.0625 44.828125 
Q 42.578125 41.015625 37.703125 38.765625 
Q 44.046875 37.3125 47.5625 32.6875 
Q 51.078125 28.078125 51.078125 21.140625 
Q 51.078125 11.765625 44.234375 5.25 
Q 37.40625 -1.265625 26.953125 -1.265625 
Q 17.53125 -1.265625 11.296875 4.34375 
Q 5.078125 9.96875 4.203125 18.890625 
z
" id="ArialMT-51"/>
        <path d="M 4.15625 35.296875 
Q 4.15625 48 6.765625 55.734375 
Q 9.375 63.484375 14.515625 67.671875 
Q 19.671875 71.875 27.484375 71.875 
Q 33.25 71.875 37.59375 69.546875 
Q 41.9375 67.234375 44.765625 62.859375 
Q 47.609375 58.5 49.21875 52.21875 
Q 50.828125 45.953125 50.828125 35.296875 
Q 50.828125 22.703125 48.234375 14.96875 
Q 45.65625 7.234375 40.5 3 
Q 35.359375 -1.21875 27.484375 -1.21875 
Q 17.140625 -1.21875 11.234375 6.203125 
Q 4.15625 15.140625 4.15625 35.296875 
z
M 13.1875 35.296875 
Q 13.1875 17.671875 17.3125 11.828125 
Q 21.4375 6 27.484375 6 
Q 33.546875 6 37.671875 11.859375 
Q 41.796875 17.71875 41.796875 35.296875 
Q 41.796875 52.984375 37.671875 58.78125 
Q 33.546875 64.59375 27.390625 64.59375 
Q 21.34375 64.59375 17.71875 59.46875 
Q 13.1875 52.9375 13.1875 35.296875 
z
" id="ArialMT-48"/>
       </defs>
       <use xlink:href="#ArialMT-51"/>
       <use x="55.615234" xlink:href="#ArialMT-48"/>
      </g>
     </g>
    </g>
    <g id="xtick_2">
     <g id="line2d_2">
      <path clip-path="url(#pa5a1bdb540)" d="M 199.684051 163.78 
L 199.684051 7.2 
" style="fill:none;stroke:#ffffff;stroke-linecap:round;"/>
     </g>
     <g id="text_2">
      <!-- 32 -->
      <g style="fill:#262626;" transform="translate(193.56702 181.153594)scale(0.11 -0.11)">
       <defs>
        <path d="M 50.34375 8.453125 
L 50.34375 0 
L 3.03125 0 
Q 2.9375 3.171875 4.046875 6.109375 
Q 5.859375 10.9375 9.828125 15.625 
Q 13.8125 20.3125 21.34375 26.46875 
Q 33.015625 36.03125 37.109375 41.625 
Q 41.21875 47.21875 41.21875 52.203125 
Q 41.21875 57.421875 37.46875 61 
Q 33.734375 64.59375 27.734375 64.59375 
Q 21.390625 64.59375 17.578125 60.78125 
Q 13.765625 56.984375 13.71875 50.25 
L 4.6875 51.171875 
Q 5.609375 61.28125 11.65625 66.578125 
Q 17.71875 71.875 27.9375 71.875 
Q 38.234375 71.875 44.234375 66.15625 
Q 50.25 60.453125 50.25 52 
Q 50.25 47.703125 48.484375 43.546875 
Q 46.734375 39.40625 42.65625 34.8125 
Q 38.578125 30.21875 29.109375 22.21875 
Q 21.1875 15.578125 18.9375 13.203125 
Q 16.703125 10.84375 15.234375 8.453125 
z
" id="ArialMT-50"/>
       </defs>
       <use xlink:href="#ArialMT-51"/>
       <use x="55.615234" xlink:href="#ArialMT-50"/>
      </g>
     </g>
    </g>
    <g id="xtick_3">
     <g id="line2d_3">
      <path clip-path="url(#pa5a1bdb540)" d="M 361.261071 163.78 
L 361.261071 7.2 
" style="fill:none;stroke:#ffffff;stroke-linecap:round;"/>
     </g>
     <g id="text_3">
      <!-- 34 -->
      <g style="fill:#262626;" transform="translate(355.14404 181.153594)scale(0.11 -0.11)">
       <defs>
        <path d="M 32.328125 0 
L 32.328125 17.140625 
L 1.265625 17.140625 
L 1.265625 25.203125 
L 33.9375 71.578125 
L 41.109375 71.578125 
L 41.109375 25.203125 
L 50.78125 25.203125 
L 50.78125 17.140625 
L 41.109375 17.140625 
L 41.109375 0 
z
M 32.328125 25.203125 
L 32.328125 57.46875 
L 9.90625 25.203125 
z
" id="ArialMT-52"/>
       </defs>
       <use xlink:href="#ArialMT-51"/>
       <use x="55.615234" xlink:href="#ArialMT-52"/>
      </g>
     </g>
    </g>
    <g id="xtick_4">
     <g id="line2d_4">
      <path clip-path="url(#pa5a1bdb540)" d="M 522.838091 163.78 
L 522.838091 7.2 
" style="fill:none;stroke:#ffffff;stroke-linecap:round;"/>
     </g>
     <g id="text_4">
      <!-- 36 -->
      <g style="fill:#262626;" transform="translate(516.72106 181.153594)scale(0.11 -0.11)">
       <defs>
        <path d="M 49.75 54.046875 
L 41.015625 53.375 
Q 39.84375 58.546875 37.703125 60.890625 
Q 34.125 64.65625 28.90625 64.65625 
Q 24.703125 64.65625 21.53125 62.3125 
Q 17.390625 59.28125 14.984375 53.46875 
Q 12.59375 47.65625 12.5 36.921875 
Q 15.671875 41.75 20.265625 44.09375 
Q 24.859375 46.4375 29.890625 46.4375 
Q 38.671875 46.4375 44.84375 39.96875 
Q 51.03125 33.5 51.03125 23.25 
Q 51.03125 16.5 48.125 10.71875 
Q 45.21875 4.9375 40.140625 1.859375 
Q 35.0625 -1.21875 28.609375 -1.21875 
Q 17.625 -1.21875 10.6875 6.859375 
Q 3.765625 14.9375 3.765625 33.5 
Q 3.765625 54.25 11.421875 63.671875 
Q 18.109375 71.875 29.4375 71.875 
Q 37.890625 71.875 43.28125 67.140625 
Q 48.6875 62.40625 49.75 54.046875 
z
M 13.875 23.1875 
Q 13.875 18.65625 15.796875 14.5 
Q 17.71875 10.359375 21.1875 8.171875 
Q 24.65625 6 28.46875 6 
Q 34.03125 6 38.03125 10.484375 
Q 42.046875 14.984375 42.046875 22.703125 
Q 42.046875 30.125 38.078125 34.390625 
Q 34.125 38.671875 28.125 38.671875 
Q 22.171875 38.671875 18.015625 34.390625 
Q 13.875 30.125 13.875 23.1875 
z
" id="ArialMT-54"/>
       </defs>
       <use xlink:href="#ArialMT-51"/>
       <use x="55.615234" xlink:href="#ArialMT-54"/>
      </g>
     </g>
    </g>
    <g id="xtick_5">
     <g id="line2d_5">
      <path clip-path="url(#pa5a1bdb540)" d="M 684.415111 163.78 
L 684.415111 7.2 
" style="fill:none;stroke:#ffffff;stroke-linecap:round;"/>
     </g>
     <g id="text_5">
      <!-- 38 -->
      <g style="fill:#262626;" transform="translate(678.29808 181.153594)scale(0.11 -0.11)">
       <defs>
        <path d="M 17.671875 38.8125 
Q 12.203125 40.828125 9.5625 44.53125 
Q 6.9375 48.25 6.9375 53.421875 
Q 6.9375 61.234375 12.546875 66.546875 
Q 18.171875 71.875 27.484375 71.875 
Q 36.859375 71.875 42.578125 66.421875 
Q 48.296875 60.984375 48.296875 53.171875 
Q 48.296875 48.1875 45.671875 44.5 
Q 43.0625 40.828125 37.75 38.8125 
Q 44.34375 36.671875 47.78125 31.875 
Q 51.21875 27.09375 51.21875 20.453125 
Q 51.21875 11.28125 44.71875 5.03125 
Q 38.234375 -1.21875 27.640625 -1.21875 
Q 17.046875 -1.21875 10.546875 5.046875 
Q 4.046875 11.328125 4.046875 20.703125 
Q 4.046875 27.6875 7.59375 32.390625 
Q 11.140625 37.109375 17.671875 38.8125 
z
M 15.921875 53.71875 
Q 15.921875 48.640625 19.1875 45.40625 
Q 22.46875 42.1875 27.6875 42.1875 
Q 32.765625 42.1875 36.015625 45.375 
Q 39.265625 48.578125 39.265625 53.21875 
Q 39.265625 58.0625 35.90625 61.359375 
Q 32.5625 64.65625 27.59375 64.65625 
Q 22.5625 64.65625 19.234375 61.421875 
Q 15.921875 58.203125 15.921875 53.71875 
z
M 13.09375 20.65625 
Q 13.09375 16.890625 14.875 13.375 
Q 16.65625 9.859375 20.171875 7.921875 
Q 23.6875 6 27.734375 6 
Q 34.03125 6 38.125 10.046875 
Q 42.234375 14.109375 42.234375 20.359375 
Q 42.234375 26.703125 38.015625 30.859375 
Q 33.796875 35.015625 27.4375 35.015625 
Q 21.234375 35.015625 17.15625 30.90625 
Q 13.09375 26.8125 13.09375 20.65625 
z
" id="ArialMT-56"/>
       </defs>
       <use xlink:href="#ArialMT-51"/>
       <use x="55.615234" xlink:href="#ArialMT-56"/>
      </g>
     </g>
    </g>
    <g id="xtick_6">
     <g id="line2d_6">
      <path clip-path="url(#pa5a1bdb540)" d="M 845.992131 163.78 
L 845.992131 7.2 
" style="fill:none;stroke:#ffffff;stroke-linecap:round;"/>
     </g>
     <g id="text_6">
      <!-- 40 -->
      <g style="fill:#262626;" transform="translate(839.8751 181.153594)scale(0.11 -0.11)">
       <use xlink:href="#ArialMT-52"/>
       <use x="55.615234" xlink:href="#ArialMT-48"/>
      </g>
     </g>
    </g>
    <g id="text_7">
     <!-- Age -->
     <g style="fill:#262626;" transform="translate(431.374269 195.929219)scale(0.12 -0.12)">
      <defs>
       <path d="M -0.140625 0 
L 27.34375 71.578125 
L 37.546875 71.578125 
L 66.84375 0 
L 56.0625 0 
L 47.703125 21.6875 
L 17.78125 21.6875 
L 9.90625 0 
z
M 20.515625 29.390625 
L 44.78125 29.390625 
L 37.3125 49.21875 
Q 33.890625 58.25 32.234375 64.0625 
Q 30.859375 57.171875 28.375 50.390625 
z
" id="ArialMT-65"/>
       <path d="M 4.984375 -4.296875 
L 13.53125 -5.5625 
Q 14.0625 -9.515625 16.5 -11.328125 
Q 19.78125 -13.765625 25.4375 -13.765625 
Q 31.546875 -13.765625 34.859375 -11.328125 
Q 38.1875 -8.890625 39.359375 -4.5 
Q 40.046875 -1.8125 39.984375 6.78125 
Q 34.234375 0 25.640625 0 
Q 14.9375 0 9.078125 7.71875 
Q 3.21875 15.4375 3.21875 26.21875 
Q 3.21875 33.640625 5.90625 39.90625 
Q 8.59375 46.1875 13.6875 49.609375 
Q 18.796875 53.03125 25.6875 53.03125 
Q 34.859375 53.03125 40.828125 45.609375 
L 40.828125 51.859375 
L 48.921875 51.859375 
L 48.921875 7.03125 
Q 48.921875 -5.078125 46.453125 -10.125 
Q 44 -15.1875 38.640625 -18.109375 
Q 33.296875 -21.046875 25.484375 -21.046875 
Q 16.21875 -21.046875 10.5 -16.875 
Q 4.78125 -12.703125 4.984375 -4.296875 
z
M 12.25 26.859375 
Q 12.25 16.65625 16.296875 11.96875 
Q 20.359375 7.28125 26.46875 7.28125 
Q 32.515625 7.28125 36.609375 11.9375 
Q 40.71875 16.609375 40.71875 26.5625 
Q 40.71875 36.078125 36.5 40.90625 
Q 32.28125 45.75 26.3125 45.75 
Q 20.453125 45.75 16.34375 40.984375 
Q 12.25 36.234375 12.25 26.859375 
z
" id="ArialMT-103"/>
       <path d="M 42.09375 16.703125 
L 51.171875 15.578125 
Q 49.03125 7.625 43.21875 3.21875 
Q 37.40625 -1.171875 28.375 -1.171875 
Q 17 -1.171875 10.328125 5.828125 
Q 3.65625 12.84375 3.65625 25.484375 
Q 3.65625 38.578125 10.390625 45.796875 
Q 17.140625 53.03125 27.875 53.03125 
Q 38.28125 53.03125 44.875 45.953125 
Q 51.46875 38.875 51.46875 26.03125 
Q 51.46875 25.25 51.421875 23.6875 
L 12.75 23.6875 
Q 13.234375 15.140625 17.578125 10.59375 
Q 21.921875 6.0625 28.421875 6.0625 
Q 33.25 6.0625 36.671875 8.59375 
Q 40.09375 11.140625 42.09375 16.703125 
z
M 13.234375 30.90625 
L 42.1875 30.90625 
Q 41.609375 37.453125 38.875 40.71875 
Q 34.671875 45.796875 27.984375 45.796875 
Q 21.921875 45.796875 17.796875 41.75 
Q 13.671875 37.703125 13.234375 30.90625 
z
" id="ArialMT-101"/>
      </defs>
      <use xlink:href="#ArialMT-65"/>
      <use x="66.699219" xlink:href="#ArialMT-103"/>
      <use x="122.314453" xlink:href="#ArialMT-101"/>
     </g>
    </g>
   </g>
   <g id="matplotlib.axis_2">
    <g id="ytick_1">
     <g id="line2d_7">
      <path clip-path="url(#pa5a1bdb540)" d="M 38.107031 163.78 
L 845.992131 163.78 
" style="fill:none;stroke:#ffffff;stroke-linecap:round;"/>
     </g>
     <g id="text_8">
      <!-- 0.00 -->
      <g style="fill:#262626;" transform="translate(7.2 167.716797)scale(0.11 -0.11)">
       <defs>
        <path d="M 9.078125 0 
L 9.078125 10.015625 
L 19.09375 10.015625 
L 19.09375 0 
z
" id="ArialMT-46"/>
       </defs>
       <use xlink:href="#ArialMT-48"/>
       <use x="55.615234" xlink:href="#ArialMT-46"/>
       <use x="83.398438" xlink:href="#ArialMT-48"/>
       <use x="139.013672" xlink:href="#ArialMT-48"/>
      </g>
     </g>
    </g>
    <g id="ytick_2">
     <g id="line2d_8">
      <path clip-path="url(#pa5a1bdb540)" d="M 38.107031 129.745952 
L 845.992131 129.745952 
" style="fill:none;stroke:#ffffff;stroke-linecap:round;"/>
     </g>
     <g id="text_9">
      <!-- 0.01 -->
      <g style="fill:#262626;" transform="translate(7.2 133.682749)scale(0.11 -0.11)">
       <defs>
        <path d="M 37.25 0 
L 28.46875 0 
L 28.46875 56 
Q 25.296875 52.984375 20.140625 49.953125 
Q 14.984375 46.921875 10.890625 45.40625 
L 10.890625 53.90625 
Q 18.265625 57.375 23.78125 62.296875 
Q 29.296875 67.234375 31.59375 71.875 
L 37.25 71.875 
z
" id="ArialMT-49"/>
       </defs>
       <use xlink:href="#ArialMT-48"/>
       <use x="55.615234" xlink:href="#ArialMT-46"/>
       <use x="83.398438" xlink:href="#ArialMT-48"/>
       <use x="139.013672" xlink:href="#ArialMT-49"/>
      </g>
     </g>
    </g>
    <g id="ytick_3">
     <g id="line2d_9">
      <path clip-path="url(#pa5a1bdb540)" d="M 38.107031 95.711904 
L 845.992131 95.711904 
" style="fill:none;stroke:#ffffff;stroke-linecap:round;"/>
     </g>
     <g id="text_10">
      <!-- 0.02 -->
      <g style="fill:#262626;" transform="translate(7.2 99.648701)scale(0.11 -0.11)">
       <use xlink:href="#ArialMT-48"/>
       <use x="55.615234" xlink:href="#ArialMT-46"/>
       <use x="83.398438" xlink:href="#ArialMT-48"/>
       <use x="139.013672" xlink:href="#ArialMT-50"/>
      </g>
     </g>
    </g>
    <g id="ytick_4">
     <g id="line2d_10">
      <path clip-path="url(#pa5a1bdb540)" d="M 38.107031 61.677855 
L 845.992131 61.677855 
" style="fill:none;stroke:#ffffff;stroke-linecap:round;"/>
     </g>
     <g id="text_11">
      <!-- 0.03 -->
      <g style="fill:#262626;" transform="translate(7.2 65.614652)scale(0.11 -0.11)">
       <use xlink:href="#ArialMT-48"/>
       <use x="55.615234" xlink:href="#ArialMT-46"/>
       <use x="83.398438" xlink:href="#ArialMT-48"/>
       <use x="139.013672" xlink:href="#ArialMT-51"/>
      </g>
     </g>
    </g>
    <g id="ytick_5">
     <g id="line2d_11">
      <path clip-path="url(#pa5a1bdb540)" d="M 38.107031 27.643807 
L 845.992131 27.643807 
" style="fill:none;stroke:#ffffff;stroke-linecap:round;"/>
     </g>
     <g id="text_12">
      <!-- 0.04 -->
      <g style="fill:#262626;" transform="translate(7.2 31.580604)scale(0.11 -0.11)">
       <use xlink:href="#ArialMT-48"/>
       <use x="55.615234" xlink:href="#ArialMT-46"/>
       <use x="83.398438" xlink:href="#ArialMT-48"/>
       <use x="139.013672" xlink:href="#ArialMT-52"/>
      </g>
     </g>
    </g>
   </g>
   <g id="PolyCollection_1">
    <path clip-path="url(#pa5a1bdb540)" d="M -3172.764794 163.739684 
L -3172.764794 163.78 
L -3134.405139 163.78 
L -3096.045484 163.78 
L -3057.68583 163.78 
L -3019.326175 163.78 
L -2980.96652 163.78 
L -2942.606865 163.78 
L -2904.247211 163.78 
L -2865.887556 163.78 
L -2827.527901 163.78 
L -2789.168246 163.78 
L -2750.808591 163.78 
L -2712.448937 163.78 
L -2674.089282 163.78 
L -2635.729627 163.78 
L -2597.369972 163.78 
L -2559.010318 163.78 
L -2520.650663 163.78 
L -2482.291008 163.78 
L -2443.931353 163.78 
L -2405.571698 163.78 
L -2367.212044 163.78 
L -2328.852389 163.78 
L -2290.492734 163.78 
L -2252.133079 163.78 
L -2213.773425 163.78 
L -2175.41377 163.78 
L -2137.054115 163.78 
L -2098.69446 163.78 
L -2060.334805 163.78 
L -2021.975151 163.78 
L -1983.615496 163.78 
L -1945.255841 163.78 
L -1906.896186 163.78 
L -1868.536532 163.78 
L -1830.176877 163.78 
L -1791.817222 163.78 
L -1753.457567 163.78 
L -1715.097913 163.78 
L -1676.738258 163.78 
L -1638.378603 163.78 
L -1600.018948 163.78 
L -1561.659293 163.78 
L -1523.299639 163.78 
L -1484.939984 163.78 
L -1446.580329 163.78 
L -1408.220674 163.78 
L -1369.86102 163.78 
L -1331.501365 163.78 
L -1293.14171 163.78 
L -1254.782055 163.78 
L -1216.4224 163.78 
L -1178.062746 163.78 
L -1139.703091 163.78 
L -1101.343436 163.78 
L -1062.983781 163.78 
L -1024.624127 163.78 
L -986.264472 163.78 
L -947.904817 163.78 
L -909.545162 163.78 
L -871.185507 163.78 
L -832.825853 163.78 
L -794.466198 163.78 
L -756.106543 163.78 
L -717.746888 163.78 
L -679.387234 163.78 
L -641.027579 163.78 
L -602.667924 163.78 
L -564.308269 163.78 
L -525.948615 163.78 
L -487.58896 163.78 
L -449.229305 163.78 
L -410.86965 163.78 
L -372.509995 163.78 
L -334.150341 163.78 
L -295.790686 163.78 
L -257.431031 163.78 
L -219.071376 163.78 
L -180.711722 163.78 
L -142.352067 163.78 
L -103.992412 163.78 
L -65.632757 163.78 
L -27.273102 163.78 
L 11.086552 163.78 
L 49.446207 163.78 
L 87.805862 163.78 
L 126.165517 163.78 
L 164.525171 163.78 
L 202.884826 163.78 
L 241.244481 163.78 
L 279.604136 163.78 
L 317.963791 163.78 
L 356.323445 163.78 
L 394.6831 163.78 
L 433.042755 163.78 
L 471.40241 163.78 
L 509.762064 163.78 
L 548.121719 163.78 
L 586.481374 163.78 
L 624.841029 163.78 
L 663.200684 163.78 
L 701.560338 163.78 
L 739.919993 163.78 
L 778.279648 163.78 
L 816.639303 163.78 
L 854.998957 163.78 
L 893.358612 163.78 
L 931.718267 163.78 
L 970.077922 163.78 
L 1008.437576 163.78 
L 1046.797231 163.78 
L 1085.156886 163.78 
L 1123.516541 163.78 
L 1161.876196 163.78 
L 1200.23585 163.78 
L 1238.595505 163.78 
L 1276.95516 163.78 
L 1315.314815 163.78 
L 1353.674469 163.78 
L 1392.034124 163.78 
L 1430.393779 163.78 
L 1468.753434 163.78 
L 1507.113089 163.78 
L 1545.472743 163.78 
L 1583.832398 163.78 
L 1622.192053 163.78 
L 1660.551708 163.78 
L 1698.911362 163.78 
L 1737.271017 163.78 
L 1775.630672 163.78 
L 1813.990327 163.78 
L 1852.349982 163.78 
L 1890.709636 163.78 
L 1929.069291 163.78 
L 1967.428946 163.78 
L 2005.788601 163.78 
L 2044.148255 163.78 
L 2082.50791 163.78 
L 2120.867565 163.78 
L 2159.22722 163.78 
L 2197.586874 163.78 
L 2235.946529 163.78 
L 2274.306184 163.78 
L 2312.665839 163.78 
L 2351.025494 163.78 
L 2389.385148 163.78 
L 2427.744803 163.78 
L 2466.104458 163.78 
L 2504.464113 163.78 
L 2542.823767 163.78 
L 2581.183422 163.78 
L 2619.543077 163.78 
L 2657.902732 163.78 
L 2696.262387 163.78 
L 2734.622041 163.78 
L 2772.981696 163.78 
L 2811.341351 163.78 
L 2849.701006 163.78 
L 2888.06066 163.78 
L 2926.420315 163.78 
L 2964.77997 163.78 
L 3003.139625 163.78 
L 3041.49928 163.78 
L 3079.858934 163.78 
L 3118.218589 163.78 
L 3156.578244 163.78 
L 3194.937899 163.78 
L 3233.297553 163.78 
L 3271.657208 163.78 
L 3310.016863 163.78 
L 3348.376518 163.78 
L 3386.736173 163.78 
L 3425.095827 163.78 
L 3463.455482 163.78 
L 3501.815137 163.78 
L 3540.174792 163.78 
L 3578.534446 163.78 
L 3616.894101 163.78 
L 3655.253756 163.78 
L 3693.613411 163.78 
L 3731.973065 163.78 
L 3770.33272 163.78 
L 3808.692375 163.78 
L 3847.05203 163.78 
L 3885.411685 163.78 
L 3923.771339 163.78 
L 3962.130994 163.78 
L 4000.490649 163.78 
L 4038.850304 163.78 
L 4077.209958 163.78 
L 4115.569613 163.78 
L 4153.929268 163.78 
L 4192.288923 163.78 
L 4230.648578 163.78 
L 4269.008232 163.78 
L 4307.367887 163.78 
L 4345.727542 163.78 
L 4384.087197 163.78 
L 4422.446851 163.78 
L 4460.806506 163.78 
L 4460.806506 163.77091 
L 4460.806506 163.77091 
L 4422.446851 163.766316 
L 4384.087197 163.759716 
L 4345.727542 163.750385 
L 4307.367887 163.737405 
L 4269.008232 163.719637 
L 4230.648578 163.695696 
L 4192.288923 163.663942 
L 4153.929268 163.62248 
L 4115.569613 163.569176 
L 4077.209958 163.501704 
L 4038.850304 163.417611 
L 4000.490649 163.314421 
L 3962.130994 163.189759 
L 3923.771339 163.04151 
L 3885.411685 162.867999 
L 3847.05203 162.668178 
L 3808.692375 162.44181 
L 3770.33272 162.189626 
L 3731.973065 161.913439 
L 3693.613411 161.616178 
L 3655.253756 161.301839 
L 3616.894101 160.975324 
L 3578.534446 160.642174 
L 3540.174792 160.308196 
L 3501.815137 159.979022 
L 3463.455482 159.65963 
L 3425.095827 159.353881 
L 3386.736173 159.064126 
L 3348.376518 158.790949 
L 3310.016863 158.533066 
L 3271.657208 158.287427 
L 3233.297553 158.049504 
L 3194.937899 157.813744 
L 3156.578244 157.574139 
L 3118.218589 157.324839 
L 3079.858934 157.060743 
L 3041.49928 156.777985 
L 3003.139625 156.474288 
L 2964.77997 156.149117 
L 2926.420315 155.803659 
L 2888.06066 155.440625 
L 2849.701006 155.063919 
L 2811.341351 154.67823 
L 2772.981696 154.288576 
L 2734.622041 153.899874 
L 2696.262387 153.516554 
L 2657.902732 153.142244 
L 2619.543077 152.779541 
L 2581.183422 152.429874 
L 2542.823767 152.093431 
L 2504.464113 151.769175 
L 2466.104458 151.454898 
L 2427.744803 151.147343 
L 2389.385148 150.842348 
L 2351.025494 150.535028 
L 2312.665839 150.21998 
L 2274.306184 149.891491 
L 2235.946529 149.543757 
L 2197.586874 149.171091 
L 2159.22722 148.768116 
L 2120.867565 148.329932 
L 2082.50791 147.852263 
L 2044.148255 147.331562 
L 2005.788601 146.76509 
L 1967.428946 146.150968 
L 1929.069291 145.488201 
L 1890.709636 144.776695 
L 1852.349982 144.017259 
L 1813.990327 143.211613 
L 1775.630672 142.362401 
L 1737.271017 141.473204 
L 1698.911362 140.548545 
L 1660.551708 139.593877 
L 1622.192053 138.61552 
L 1583.832398 137.620534 
L 1545.472743 136.616499 
L 1507.113089 135.611205 
L 1468.753434 134.612237 
L 1430.393779 133.626494 
L 1392.034124 132.659665 
L 1353.674469 131.715713 
L 1315.314815 130.796429 
L 1276.95516 129.90108 
L 1238.595505 129.026198 
L 1200.23585 128.165502 
L 1161.876196 127.309928 
L 1123.516541 126.447723 
L 1085.156886 125.564512 
L 1046.797231 124.643286 
L 1008.437576 123.664218 
L 970.077922 122.604272 
L 931.718267 121.436609 
L 893.358612 120.129841 
L 854.998957 118.64725 
L 816.639303 116.946161 
L 778.279648 114.977701 
L 739.919993 112.687229 
L 701.560338 110.015705 
L 663.200684 106.902254 
L 624.841029 103.288064 
L 586.481374 99.121651 
L 548.121719 94.365279 
L 509.762064 89.002147 
L 471.40241 83.043683 
L 433.042755 76.536089 
L 394.6831 69.565171 
L 356.323445 62.258454 
L 317.963791 54.783746 
L 279.604136 47.343606 
L 241.244481 40.165611 
L 202.884826 33.488878 
L 164.525171 27.54782 
L 126.165517 22.554624 
L 87.805862 18.682256 
L 49.446207 16.0499 
L 11.086552 14.712569 
L -27.273102 14.65619 
L -65.632757 15.798873 
L -103.992412 17.998305 
L -142.352067 21.064492 
L -180.711722 24.776449 
L -219.071376 28.900992 
L -257.431031 33.211653 
L -295.790686 37.505795 
L -334.150341 41.618366 
L -372.509995 45.431209 
L -410.86965 48.877422 
L -449.229305 51.940845 
L -487.58896 54.651245 
L -525.948615 57.076107 
L -564.308269 59.310188 
L -602.667924 61.464013 
L -641.027579 63.652414 
L -679.387234 65.984079 
L -717.746888 68.552781 
L -756.106543 71.430754 
L -794.466198 74.664419 
L -832.825853 78.272443 
L -871.185507 82.245952 
L -909.545162 86.550598 
L -947.904817 91.130109 
L -986.264472 95.910899 
L -1024.624127 100.807364 
L -1062.983781 105.727451 
L -1101.343436 110.578182 
L -1139.703091 115.27082 
L -1178.062746 119.725444 
L -1216.4224 123.874702 
L -1254.782055 127.666612 
L -1293.14171 131.066287 
L -1331.501365 134.056533 
L -1369.86102 136.637329 
L -1408.220674 138.824277 
L -1446.580329 140.646151 
L -1484.939984 142.141777 
L -1523.299639 143.356513 
L -1561.659293 144.338629 
L -1600.018948 145.135904 
L -1638.378603 145.792722 
L -1676.738258 146.347907 
L -1715.097913 146.833412 
L -1753.457567 147.273933 
L -1791.817222 147.687341 
L -1830.176877 148.085803 
L -1868.536532 148.477324 
L -1906.896186 148.867443 
L -1945.255841 149.260829 
L -1983.615496 149.662508 
L -2021.975151 150.078598 
L -2060.334805 150.516465 
L -2098.69446 150.984329 
L -2137.054115 151.490441 
L -2175.41377 152.042 
L -2213.773425 152.644023 
L -2252.133079 153.298361 
L -2290.492734 154.00304 
L -2328.852389 154.752028 
L -2367.212044 155.535459 
L -2405.571698 156.340299 
L -2443.931353 157.151339 
L -2482.291008 157.952394 
L -2520.650663 158.727544 
L -2559.010318 159.462289 
L -2597.369972 160.144482 
L -2635.729627 160.764968 
L -2674.089282 161.317901 
L -2712.448937 161.800743 
L -2750.808591 162.213991 
L -2789.168246 162.560707 
L -2827.527901 162.845926 
L -2865.887556 163.076018 
L -2904.247211 163.258079 
L -2942.606865 163.399397 
L -2980.96652 163.507018 
L -3019.326175 163.587443 
L -3057.68583 163.646425 
L -3096.045484 163.68888 
L -3134.405139 163.718877 
L -3172.764794 163.739684 
z
" style="fill:#4c72b0;fill-opacity:0.25;stroke:#4c72b0;"/>
   </g>
   <g id="PolyCollection_2">
    <path clip-path="url(#pa5a1bdb540)" d="M -3410.595427 163.667099 
L -3410.595427 163.78 
L -3367.645144 163.78 
L -3324.694861 163.78 
L -3281.744578 163.78 
L -3238.794295 163.78 
L -3195.844013 163.78 
L -3152.89373 163.78 
L -3109.943447 163.78 
L -3066.993164 163.78 
L -3024.042881 163.78 
L -2981.092598 163.78 
L -2938.142315 163.78 
L -2895.192033 163.78 
L -2852.24175 163.78 
L -2809.291467 163.78 
L -2766.341184 163.78 
L -2723.390901 163.78 
L -2680.440618 163.78 
L -2637.490335 163.78 
L -2594.540052 163.78 
L -2551.58977 163.78 
L -2508.639487 163.78 
L -2465.689204 163.78 
L -2422.738921 163.78 
L -2379.788638 163.78 
L -2336.838355 163.78 
L -2293.888072 163.78 
L -2250.93779 163.78 
L -2207.987507 163.78 
L -2165.037224 163.78 
L -2122.086941 163.78 
L -2079.136658 163.78 
L -2036.186375 163.78 
L -1993.236092 163.78 
L -1950.28581 163.78 
L -1907.335527 163.78 
L -1864.385244 163.78 
L -1821.434961 163.78 
L -1778.484678 163.78 
L -1735.534395 163.78 
L -1692.584112 163.78 
L -1649.633829 163.78 
L -1606.683547 163.78 
L -1563.733264 163.78 
L -1520.782981 163.78 
L -1477.832698 163.78 
L -1434.882415 163.78 
L -1391.932132 163.78 
L -1348.981849 163.78 
L -1306.031567 163.78 
L -1263.081284 163.78 
L -1220.131001 163.78 
L -1177.180718 163.78 
L -1134.230435 163.78 
L -1091.280152 163.78 
L -1048.329869 163.78 
L -1005.379586 163.78 
L -962.429304 163.78 
L -919.479021 163.78 
L -876.528738 163.78 
L -833.578455 163.78 
L -790.628172 163.78 
L -747.677889 163.78 
L -704.727606 163.78 
L -661.777324 163.78 
L -618.827041 163.78 
L -575.876758 163.78 
L -532.926475 163.78 
L -489.976192 163.78 
L -447.025909 163.78 
L -404.075626 163.78 
L -361.125343 163.78 
L -318.175061 163.78 
L -275.224778 163.78 
L -232.274495 163.78 
L -189.324212 163.78 
L -146.373929 163.78 
L -103.423646 163.78 
L -60.473363 163.78 
L -17.523081 163.78 
L 25.427202 163.78 
L 68.377485 163.78 
L 111.327768 163.78 
L 154.278051 163.78 
L 197.228334 163.78 
L 240.178617 163.78 
L 283.128899 163.78 
L 326.079182 163.78 
L 369.029465 163.78 
L 411.979748 163.78 
L 454.930031 163.78 
L 497.880314 163.78 
L 540.830597 163.78 
L 583.78088 163.78 
L 626.731162 163.78 
L 669.681445 163.78 
L 712.631728 163.78 
L 755.582011 163.78 
L 798.532294 163.78 
L 841.482577 163.78 
L 884.43286 163.78 
L 927.383142 163.78 
L 970.333425 163.78 
L 1013.283708 163.78 
L 1056.233991 163.78 
L 1099.184274 163.78 
L 1142.134557 163.78 
L 1185.08484 163.78 
L 1228.035123 163.78 
L 1270.985405 163.78 
L 1313.935688 163.78 
L 1356.885971 163.78 
L 1399.836254 163.78 
L 1442.786537 163.78 
L 1485.73682 163.78 
L 1528.687103 163.78 
L 1571.637385 163.78 
L 1614.587668 163.78 
L 1657.537951 163.78 
L 1700.488234 163.78 
L 1743.438517 163.78 
L 1786.3888 163.78 
L 1829.339083 163.78 
L 1872.289366 163.78 
L 1915.239648 163.78 
L 1958.189931 163.78 
L 2001.140214 163.78 
L 2044.090497 163.78 
L 2087.04078 163.78 
L 2129.991063 163.78 
L 2172.941346 163.78 
L 2215.891628 163.78 
L 2258.841911 163.78 
L 2301.792194 163.78 
L 2344.742477 163.78 
L 2387.69276 163.78 
L 2430.643043 163.78 
L 2473.593326 163.78 
L 2516.543608 163.78 
L 2559.493891 163.78 
L 2602.444174 163.78 
L 2645.394457 163.78 
L 2688.34474 163.78 
L 2731.295023 163.78 
L 2774.245306 163.78 
L 2817.195589 163.78 
L 2860.145871 163.78 
L 2903.096154 163.78 
L 2946.046437 163.78 
L 2988.99672 163.78 
L 3031.947003 163.78 
L 3074.897286 163.78 
L 3117.847569 163.78 
L 3160.797851 163.78 
L 3203.748134 163.78 
L 3246.698417 163.78 
L 3289.6487 163.78 
L 3332.598983 163.78 
L 3375.549266 163.78 
L 3418.499549 163.78 
L 3461.449832 163.78 
L 3504.400114 163.78 
L 3547.350397 163.78 
L 3590.30068 163.78 
L 3633.250963 163.78 
L 3676.201246 163.78 
L 3719.151529 163.78 
L 3762.101812 163.78 
L 3805.052094 163.78 
L 3848.002377 163.78 
L 3890.95266 163.78 
L 3933.902943 163.78 
L 3976.853226 163.78 
L 4019.803509 163.78 
L 4062.753792 163.78 
L 4105.704075 163.78 
L 4148.654357 163.78 
L 4191.60464 163.78 
L 4234.554923 163.78 
L 4277.505206 163.78 
L 4320.455489 163.78 
L 4363.405772 163.78 
L 4406.356055 163.78 
L 4449.306337 163.78 
L 4492.25662 163.78 
L 4535.206903 163.78 
L 4578.157186 163.78 
L 4621.107469 163.78 
L 4664.057752 163.78 
L 4707.008035 163.78 
L 4749.958317 163.78 
L 4792.9086 163.78 
L 4835.858883 163.78 
L 4878.809166 163.78 
L 4921.759449 163.78 
L 4964.709732 163.78 
L 5007.660015 163.78 
L 5050.610298 163.78 
L 5093.56058 163.78 
L 5136.510863 163.78 
L 5136.510863 163.769906 
L 5136.510863 163.769906 
L 5093.56058 163.765567 
L 5050.610298 163.759665 
L 5007.660015 163.75177 
L 4964.709732 163.741387 
L 4921.759449 163.727961 
L 4878.809166 163.710898 
L 4835.858883 163.689588 
L 4792.9086 163.663445 
L 4749.958317 163.63195 
L 4707.008035 163.594709 
L 4664.057752 163.551507 
L 4621.107469 163.502374 
L 4578.157186 163.447632 
L 4535.206903 163.387943 
L 4492.25662 163.324331 
L 4449.306337 163.258178 
L 4406.356055 163.191199 
L 4363.405772 163.125382 
L 4320.455489 163.062892 
L 4277.505206 163.005964 
L 4234.554923 162.956763 
L 4191.60464 162.917248 
L 4148.654357 162.889036 
L 4105.704075 162.873275 
L 4062.753792 162.870556 
L 4019.803509 162.880849 
L 3976.853226 162.90348 
L 3933.902943 162.937146 
L 3890.95266 162.979966 
L 3848.002377 163.029553 
L 3805.052094 163.083105 
L 3762.101812 163.137497 
L 3719.151529 163.189372 
L 3676.201246 163.235206 
L 3633.250963 163.271364 
L 3590.30068 163.294128 
L 3547.350397 163.299712 
L 3504.400114 163.284267 
L 3461.449832 163.243891 
L 3418.499549 163.174647 
L 3375.549266 163.072613 
L 3332.598983 162.933961 
L 3289.6487 162.755076 
L 3246.698417 162.53271 
L 3203.748134 162.264164 
L 3160.797851 161.947482 
L 3117.847569 161.581638 
L 3074.897286 161.166699 
L 3031.947003 160.703931 
L 2988.99672 160.195831 
L 2946.046437 159.646075 
L 2903.096154 159.059367 
L 2860.145871 158.441192 
L 2817.195589 157.797488 
L 2774.245306 157.134263 
L 2731.295023 156.45717 
L 2688.34474 155.7711 
L 2645.394457 155.07981 
L 2602.444174 154.385635 
L 2559.493891 153.689302 
L 2516.543608 152.989875 
L 2473.593326 152.28485 
L 2430.643043 151.57038 
L 2387.69276 150.841637 
L 2344.742477 150.093278 
L 2301.792194 149.319992 
L 2258.841911 148.517079 
L 2215.891628 147.681029 
L 2172.941346 146.81004 
L 2129.991063 145.904449 
L 2087.04078 144.967006 
L 2044.090497 144.002978 
L 2001.140214 143.020045 
L 1958.189931 142.027976 
L 1915.239648 141.038079 
L 1872.289366 140.062468 
L 1829.339083 139.113163 
L 1786.3888 138.201094 
L 1743.438517 137.335073 
L 1700.488234 136.520817 
L 1657.537951 135.7601 
L 1614.587668 135.050099 
L 1571.637385 134.383005 
L 1528.687103 133.745917 
L 1485.73682 133.121042 
L 1442.786537 132.486191 
L 1399.836254 131.815519 
L 1356.885971 131.080479 
L 1313.935688 130.250914 
L 1270.985405 129.296239 
L 1228.035123 128.186654 
L 1185.08484 126.894345 
L 1142.134557 125.394646 
L 1099.184274 123.667135 
L 1056.233991 121.696647 
L 1013.283708 119.474188 
L 970.333425 116.997728 
L 927.383142 114.272818 
L 884.43286 111.313014 
L 841.482577 108.140026 
L 798.532294 104.783554 
L 755.582011 101.280767 
L 712.631728 97.675391 
L 669.681445 94.016434 
L 626.731162 90.356559 
L 583.78088 86.750198 
L 540.830597 83.251504 
L 497.880314 79.912247 
L 454.930031 76.779788 
L 411.979748 73.895244 
L 369.029465 71.291939 
L 326.079182 68.994224 
L 283.128899 67.016698 
L 240.178617 65.363882 
L 197.228334 64.030334 
L 154.278051 63.001216 
L 111.327768 62.253293 
L 68.377485 61.756361 
L 25.427202 61.475058 
L -17.523081 61.371025 
L -60.473363 61.405333 
L -103.423646 61.541076 
L -146.373929 61.745984 
L -189.324212 61.99487 
L -232.274495 62.271735 
L -275.224778 62.571315 
L -318.175061 62.899907 
L -361.125343 63.275337 
L -404.075626 63.726016 
L -447.025909 64.289101 
L -489.976192 65.007868 
L -532.926475 65.928493 
L -575.876758 67.096493 
L -618.827041 68.553104 
L -661.777324 70.331908 
L -704.727606 72.455964 
L -747.677889 74.93567 
L -790.628172 77.767485 
L -833.578455 80.933582 
L -876.528738 84.402394 
L -919.479021 88.129958 
L -962.429304 92.061913 
L -1005.379586 96.135942 
L -1048.329869 100.284481 
L -1091.280152 104.437489 
L -1134.230435 108.525132 
L -1177.180718 112.480236 
L -1220.131001 116.240442 
L -1263.081284 119.750004 
L -1306.031567 122.961216 
L -1348.981849 125.835489 
L -1391.932132 128.3441 
L -1434.882415 130.468647 
L -1477.832698 132.201249 
L -1520.782981 133.544526 
L -1563.733264 134.511369 
L -1606.683547 135.124516 
L -1649.633829 135.41593 
L -1692.584112 135.425966 
L -1735.534395 135.20232 
L -1778.484678 134.798725 
L -1821.434961 134.27341 
L -1864.385244 133.68731 
L -1907.335527 133.10206 
L -1950.28581 132.577834 
L -1993.236092 132.171088 
L -2036.186375 131.932335 
L -2079.136658 131.904065 
L -2122.086941 132.118941 
L -2165.037224 132.598419 
L -2207.987507 133.351894 
L -2250.93779 134.376461 
L -2293.888072 135.65734 
L -2336.838355 137.168936 
L -2379.788638 138.876503 
L -2422.738921 140.738263 
L -2465.689204 142.707862 
L -2508.639487 144.736957 
L -2551.58977 146.77777 
L -2594.540052 148.785422 
L -2637.490335 150.719898 
L -2680.440618 152.547541 
L -2723.390901 154.24201 
L -2766.341184 155.784685 
L -2809.291467 157.164566 
L -2852.24175 158.377729 
L -2895.192033 159.42644 
L -2938.142315 160.318051 
L -2981.092598 161.063776 
L -3024.042881 161.677467 
L -3066.993164 162.174472 
L -3109.943447 162.570631 
L -3152.89373 162.881463 
L -3195.844013 163.121553 
L -3238.794295 163.304131 
L -3281.744578 163.440835 
L -3324.694861 163.541621 
L -3367.645144 163.61479 
L -3410.595427 163.667099 
z
" style="fill:#dd8452;fill-opacity:0.25;stroke:#dd8452;"/>
   </g>
   <g id="patch_3">
    <path d="M 38.107031 163.78 
L 38.107031 7.2 
" style="fill:none;stroke:#ffffff;stroke-linecap:square;stroke-linejoin:miter;stroke-width:1.25;"/>
   </g>
   <g id="patch_4">
    <path d="M 38.107031 163.78 
L 845.992131 163.78 
" style="fill:none;stroke:#ffffff;stroke-linecap:square;stroke-linejoin:miter;stroke-width:1.25;"/>
   </g>
  </g>
  <g id="legend_1">
   <g id="text_13">
    <!-- Survived -->
    <g style="fill:#262626;" transform="translate(855.852006 90.369766)scale(0.12 -0.12)">
     <defs>
      <path d="M 4.5 23 
L 13.421875 23.78125 
Q 14.0625 18.40625 16.375 14.96875 
Q 18.703125 11.53125 23.578125 9.40625 
Q 28.46875 7.28125 34.578125 7.28125 
Q 39.984375 7.28125 44.140625 8.890625 
Q 48.296875 10.5 50.3125 13.296875 
Q 52.34375 16.109375 52.34375 19.4375 
Q 52.34375 22.796875 50.390625 25.3125 
Q 48.4375 27.828125 43.953125 29.546875 
Q 41.0625 30.671875 31.203125 33.03125 
Q 21.34375 35.40625 17.390625 37.5 
Q 12.25 40.1875 9.734375 44.15625 
Q 7.234375 48.140625 7.234375 53.078125 
Q 7.234375 58.5 10.296875 63.203125 
Q 13.375 67.921875 19.28125 70.359375 
Q 25.203125 72.796875 32.421875 72.796875 
Q 40.375 72.796875 46.453125 70.234375 
Q 52.546875 67.671875 55.8125 62.6875 
Q 59.078125 57.71875 59.328125 51.421875 
L 50.25 50.734375 
Q 49.515625 57.515625 45.28125 60.984375 
Q 41.0625 64.453125 32.8125 64.453125 
Q 24.21875 64.453125 20.28125 61.296875 
Q 16.359375 58.15625 16.359375 53.71875 
Q 16.359375 49.859375 19.140625 47.359375 
Q 21.875 44.875 33.421875 42.265625 
Q 44.96875 39.65625 49.265625 37.703125 
Q 55.515625 34.8125 58.484375 30.390625 
Q 61.46875 25.984375 61.46875 20.21875 
Q 61.46875 14.5 58.203125 9.4375 
Q 54.9375 4.390625 48.796875 1.578125 
Q 42.671875 -1.21875 35.015625 -1.21875 
Q 25.296875 -1.21875 18.71875 1.609375 
Q 12.15625 4.4375 8.421875 10.125 
Q 4.6875 15.828125 4.5 23 
z
" id="ArialMT-83"/>
      <path d="M 40.578125 0 
L 40.578125 7.625 
Q 34.515625 -1.171875 24.125 -1.171875 
Q 19.53125 -1.171875 15.546875 0.578125 
Q 11.578125 2.34375 9.640625 5 
Q 7.71875 7.671875 6.9375 11.53125 
Q 6.390625 14.109375 6.390625 19.734375 
L 6.390625 51.859375 
L 15.1875 51.859375 
L 15.1875 23.09375 
Q 15.1875 16.21875 15.71875 13.8125 
Q 16.546875 10.359375 19.234375 8.375 
Q 21.921875 6.390625 25.875 6.390625 
Q 29.828125 6.390625 33.296875 8.421875 
Q 36.765625 10.453125 38.203125 13.9375 
Q 39.65625 17.4375 39.65625 24.078125 
L 39.65625 51.859375 
L 48.4375 51.859375 
L 48.4375 0 
z
" id="ArialMT-117"/>
      <path d="M 6.5 0 
L 6.5 51.859375 
L 14.40625 51.859375 
L 14.40625 44 
Q 17.4375 49.515625 20 51.265625 
Q 22.5625 53.03125 25.640625 53.03125 
Q 30.078125 53.03125 34.671875 50.203125 
L 31.640625 42.046875 
Q 28.421875 43.953125 25.203125 43.953125 
Q 22.3125 43.953125 20.015625 42.21875 
Q 17.71875 40.484375 16.75 37.40625 
Q 15.28125 32.71875 15.28125 27.15625 
L 15.28125 0 
z
" id="ArialMT-114"/>
      <path d="M 21 0 
L 1.265625 51.859375 
L 10.546875 51.859375 
L 21.6875 20.796875 
Q 23.484375 15.765625 25 10.359375 
Q 26.171875 14.453125 28.265625 20.21875 
L 39.796875 51.859375 
L 48.828125 51.859375 
L 29.203125 0 
z
" id="ArialMT-118"/>
      <path d="M 6.640625 61.46875 
L 6.640625 71.578125 
L 15.4375 71.578125 
L 15.4375 61.46875 
z
M 6.640625 0 
L 6.640625 51.859375 
L 15.4375 51.859375 
L 15.4375 0 
z
" id="ArialMT-105"/>
      <path d="M 40.234375 0 
L 40.234375 6.546875 
Q 35.296875 -1.171875 25.734375 -1.171875 
Q 19.53125 -1.171875 14.328125 2.25 
Q 9.125 5.671875 6.265625 11.796875 
Q 3.421875 17.921875 3.421875 25.875 
Q 3.421875 33.640625 6 39.96875 
Q 8.59375 46.296875 13.765625 49.65625 
Q 18.953125 53.03125 25.34375 53.03125 
Q 30.03125 53.03125 33.6875 51.046875 
Q 37.359375 49.078125 39.65625 45.90625 
L 39.65625 71.578125 
L 48.390625 71.578125 
L 48.390625 0 
z
M 12.453125 25.875 
Q 12.453125 15.921875 16.640625 10.984375 
Q 20.84375 6.0625 26.5625 6.0625 
Q 32.328125 6.0625 36.34375 10.765625 
Q 40.375 15.484375 40.375 25.140625 
Q 40.375 35.796875 36.265625 40.765625 
Q 32.171875 45.75 26.171875 45.75 
Q 20.3125 45.75 16.375 40.96875 
Q 12.453125 36.1875 12.453125 25.875 
z
" id="ArialMT-100"/>
     </defs>
     <use xlink:href="#ArialMT-83"/>
     <use x="66.699219" xlink:href="#ArialMT-117"/>
     <use x="122.314453" xlink:href="#ArialMT-114"/>
     <use x="155.615234" xlink:href="#ArialMT-118"/>
     <use x="205.615234" xlink:href="#ArialMT-105"/>
     <use x="227.832031" xlink:href="#ArialMT-118"/>
     <use x="277.832031" xlink:href="#ArialMT-101"/>
     <use x="333.447266" xlink:href="#ArialMT-100"/>
    </g>
   </g>
   <g id="patch_5">
    <path d="M 860.736303 106.128359 
L 882.736303 106.128359 
L 882.736303 98.428359 
L 860.736303 98.428359 
z
" style="fill:#4c72b0;fill-opacity:0.25;stroke:#4c72b0;stroke-linejoin:miter;"/>
   </g>
   <g id="text_14">
    <!-- 0 -->
    <g style="fill:#262626;" transform="translate(891.536303 106.128359)scale(0.11 -0.11)">
     <use xlink:href="#ArialMT-48"/>
    </g>
   </g>
   <g id="patch_6">
    <path d="M 860.736303 121.688203 
L 882.736303 121.688203 
L 882.736303 113.988203 
L 860.736303 113.988203 
z
" style="fill:#dd8452;fill-opacity:0.25;stroke:#dd8452;stroke-linejoin:miter;"/>
   </g>
   <g id="text_15">
    <!-- 1 -->
    <g style="fill:#262626;" transform="translate(891.536303 121.688203)scale(0.11 -0.11)">
     <use xlink:href="#ArialMT-49"/>
    </g>
   </g>
  </g>
 </g>
 <defs>
  <clipPath id="pa5a1bdb540">
   <rect height="156.58" width="807.8851" x="38.107031" y="7.2"/>
  </clipPath>
 </defs>
</svg>
