<?xml version="1.0" encoding="utf-8" standalone="no"?>
<!DOCTYPE svg PUBLIC "-//W3C//DTD SVG 1.1//EN"
  "http://www.w3.org/Graphics/SVG/1.1/DTD/svg11.dtd">
<!-- Created with matplotlib (https://matplotlib.org/) -->
<svg height="374.7875pt" version="1.1" viewBox="0 0 620.804062 374.7875" width="620.804062pt" xmlns="http://www.w3.org/2000/svg" xmlns:xlink="http://www.w3.org/1999/xlink">
 <metadata>
  <rdf:RDF xmlns:cc="http://creativecommons.org/ns#" xmlns:dc="http://purl.org/dc/elements/1.1/" xmlns:rdf="http://www.w3.org/1999/02/22-rdf-syntax-ns#">
   <cc:Work>
    <dc:type rdf:resource="http://purl.org/dc/dcmitype/StillImage"/>
    <dc:date>2020-11-01T15:45:59.944541</dc:date>
    <dc:format>image/svg+xml</dc:format>
    <dc:creator>
     <cc:Agent>
      <dc:title>Matplotlib v3.3.2, https://matplotlib.org/</dc:title>
     </cc:Agent>
    </dc:creator>
   </cc:Work>
  </rdf:RDF>
 </metadata>
 <defs>
  <style type="text/css">*{stroke-linecap:butt;stroke-linejoin:round;}</style>
 </defs>
 <g id="figure_1">
  <g id="patch_1">
   <path d="M 0 374.7875 
L 620.804062 374.7875 
L 620.804062 0 
L 0 0 
z
" style="fill:none;"/>
  </g>
  <g id="axes_1">
   <g id="patch_2">
    <path d="M 47.6525 333.36 
L 605.6525 333.36 
L 605.6525 7.2 
L 47.6525 7.2 
z
" style="fill:#ffffff;"/>
   </g>
   <g id="patch_3">
    <path clip-path="url(#p7c26a0e7a4)" d="M 282.135383 301.998462 
L 300.735383 294.158077 
L 300.735383 301.841654 
L 356.535383 301.841654 
L 356.535383 302.155269 
L 300.735383 302.155269 
L 300.735383 309.838846 
z
" style="fill:#0000ff;stroke:#0000ff;stroke-linejoin:miter;"/>
   </g>
   <g id="patch_4">
    <path clip-path="url(#p7c26a0e7a4)" d="M 430.935383 38.561538 
L 412.335383 46.401923 
L 412.335383 38.718346 
L 356.535383 38.718346 
L 356.535383 38.404731 
L 412.335383 38.404731 
L 412.335383 30.721154 
z
" style="fill:#008000;stroke:#008000;stroke-linejoin:miter;"/>
   </g>
   <g id="matplotlib.axis_1">
    <g id="xtick_1">
     <g id="line2d_1">
      <defs>
       <path d="M 0 0 
L 0 3.5 
" id="mf5524b3b6b" style="stroke:#000000;stroke-width:0.8;"/>
      </defs>
      <g>
       <use style="stroke:#000000;stroke-width:0.8;" x="47.6525" xlink:href="#mf5524b3b6b" y="333.36"/>
      </g>
     </g>
     <g id="text_1">
      <!-- 0.0 -->
      <g transform="translate(39.700938 347.958438)scale(0.1 -0.1)">
       <defs>
        <path d="M 31.78125 66.40625 
Q 24.171875 66.40625 20.328125 58.90625 
Q 16.5 51.421875 16.5 36.375 
Q 16.5 21.390625 20.328125 13.890625 
Q 24.171875 6.390625 31.78125 6.390625 
Q 39.453125 6.390625 43.28125 13.890625 
Q 47.125 21.390625 47.125 36.375 
Q 47.125 51.421875 43.28125 58.90625 
Q 39.453125 66.40625 31.78125 66.40625 
z
M 31.78125 74.21875 
Q 44.046875 74.21875 50.515625 64.515625 
Q 56.984375 54.828125 56.984375 36.375 
Q 56.984375 17.96875 50.515625 8.265625 
Q 44.046875 -1.421875 31.78125 -1.421875 
Q 19.53125 -1.421875 13.0625 8.265625 
Q 6.59375 17.96875 6.59375 36.375 
Q 6.59375 54.828125 13.0625 64.515625 
Q 19.53125 74.21875 31.78125 74.21875 
z
" id="DejaVuSans-48"/>
        <path d="M 10.6875 12.40625 
L 21 12.40625 
L 21 0 
L 10.6875 0 
z
" id="DejaVuSans-46"/>
       </defs>
       <use xlink:href="#DejaVuSans-48"/>
       <use x="63.623047" xlink:href="#DejaVuSans-46"/>
       <use x="95.410156" xlink:href="#DejaVuSans-48"/>
      </g>
     </g>
    </g>
    <g id="xtick_2">
     <g id="line2d_2">
      <g>
       <use style="stroke:#000000;stroke-width:0.8;" x="140.6525" xlink:href="#mf5524b3b6b" y="333.36"/>
      </g>
     </g>
     <g id="text_2">
      <!-- 0.5 -->
      <g transform="translate(132.700938 347.958438)scale(0.1 -0.1)">
       <defs>
        <path d="M 10.796875 72.90625 
L 49.515625 72.90625 
L 49.515625 64.59375 
L 19.828125 64.59375 
L 19.828125 46.734375 
Q 21.96875 47.46875 24.109375 47.828125 
Q 26.265625 48.1875 28.421875 48.1875 
Q 40.625 48.1875 47.75 41.5 
Q 54.890625 34.8125 54.890625 23.390625 
Q 54.890625 11.625 47.5625 5.09375 
Q 40.234375 -1.421875 26.90625 -1.421875 
Q 22.3125 -1.421875 17.546875 -0.640625 
Q 12.796875 0.140625 7.71875 1.703125 
L 7.71875 11.625 
Q 12.109375 9.234375 16.796875 8.0625 
Q 21.484375 6.890625 26.703125 6.890625 
Q 35.15625 6.890625 40.078125 11.328125 
Q 45.015625 15.765625 45.015625 23.390625 
Q 45.015625 31 40.078125 35.4375 
Q 35.15625 39.890625 26.703125 39.890625 
Q 22.75 39.890625 18.8125 39.015625 
Q 14.890625 38.140625 10.796875 36.28125 
z
" id="DejaVuSans-53"/>
       </defs>
       <use xlink:href="#DejaVuSans-48"/>
       <use x="63.623047" xlink:href="#DejaVuSans-46"/>
       <use x="95.410156" xlink:href="#DejaVuSans-53"/>
      </g>
     </g>
    </g>
    <g id="xtick_3">
     <g id="line2d_3">
      <g>
       <use style="stroke:#000000;stroke-width:0.8;" x="233.6525" xlink:href="#mf5524b3b6b" y="333.36"/>
      </g>
     </g>
     <g id="text_3">
      <!-- 1.0 -->
      <g transform="translate(225.700938 347.958438)scale(0.1 -0.1)">
       <defs>
        <path d="M 12.40625 8.296875 
L 28.515625 8.296875 
L 28.515625 63.921875 
L 10.984375 60.40625 
L 10.984375 69.390625 
L 28.421875 72.90625 
L 38.28125 72.90625 
L 38.28125 8.296875 
L 54.390625 8.296875 
L 54.390625 0 
L 12.40625 0 
z
" id="DejaVuSans-49"/>
       </defs>
       <use xlink:href="#DejaVuSans-49"/>
       <use x="63.623047" xlink:href="#DejaVuSans-46"/>
       <use x="95.410156" xlink:href="#DejaVuSans-48"/>
      </g>
     </g>
    </g>
    <g id="xtick_4">
     <g id="line2d_4">
      <g>
       <use style="stroke:#000000;stroke-width:0.8;" x="326.6525" xlink:href="#mf5524b3b6b" y="333.36"/>
      </g>
     </g>
     <g id="text_4">
      <!-- 1.5 -->
      <g transform="translate(318.700938 347.958438)scale(0.1 -0.1)">
       <use xlink:href="#DejaVuSans-49"/>
       <use x="63.623047" xlink:href="#DejaVuSans-46"/>
       <use x="95.410156" xlink:href="#DejaVuSans-53"/>
      </g>
     </g>
    </g>
    <g id="xtick_5">
     <g id="line2d_5">
      <g>
       <use style="stroke:#000000;stroke-width:0.8;" x="419.6525" xlink:href="#mf5524b3b6b" y="333.36"/>
      </g>
     </g>
     <g id="text_5">
      <!-- 2.0 -->
      <g transform="translate(411.700938 347.958438)scale(0.1 -0.1)">
       <defs>
        <path d="M 19.1875 8.296875 
L 53.609375 8.296875 
L 53.609375 0 
L 7.328125 0 
L 7.328125 8.296875 
Q 12.9375 14.109375 22.625 23.890625 
Q 32.328125 33.6875 34.8125 36.53125 
Q 39.546875 41.84375 41.421875 45.53125 
Q 43.3125 49.21875 43.3125 52.78125 
Q 43.3125 58.59375 39.234375 62.25 
Q 35.15625 65.921875 28.609375 65.921875 
Q 23.96875 65.921875 18.8125 64.3125 
Q 13.671875 62.703125 7.8125 59.421875 
L 7.8125 69.390625 
Q 13.765625 71.78125 18.9375 73 
Q 24.125 74.21875 28.421875 74.21875 
Q 39.75 74.21875 46.484375 68.546875 
Q 53.21875 62.890625 53.21875 53.421875 
Q 53.21875 48.921875 51.53125 44.890625 
Q 49.859375 40.875 45.40625 35.40625 
Q 44.1875 33.984375 37.640625 27.21875 
Q 31.109375 20.453125 19.1875 8.296875 
z
" id="DejaVuSans-50"/>
       </defs>
       <use xlink:href="#DejaVuSans-50"/>
       <use x="63.623047" xlink:href="#DejaVuSans-46"/>
       <use x="95.410156" xlink:href="#DejaVuSans-48"/>
      </g>
     </g>
    </g>
    <g id="xtick_6">
     <g id="line2d_6">
      <g>
       <use style="stroke:#000000;stroke-width:0.8;" x="512.6525" xlink:href="#mf5524b3b6b" y="333.36"/>
      </g>
     </g>
     <g id="text_6">
      <!-- 2.5 -->
      <g transform="translate(504.700938 347.958438)scale(0.1 -0.1)">
       <use xlink:href="#DejaVuSans-50"/>
       <use x="63.623047" xlink:href="#DejaVuSans-46"/>
       <use x="95.410156" xlink:href="#DejaVuSans-53"/>
      </g>
     </g>
    </g>
    <g id="xtick_7">
     <g id="line2d_7">
      <g>
       <use style="stroke:#000000;stroke-width:0.8;" x="605.6525" xlink:href="#mf5524b3b6b" y="333.36"/>
      </g>
     </g>
     <g id="text_7">
      <!-- 3.0 -->
      <g transform="translate(597.700938 347.958438)scale(0.1 -0.1)">
       <defs>
        <path d="M 40.578125 39.3125 
Q 47.65625 37.796875 51.625 33 
Q 55.609375 28.21875 55.609375 21.1875 
Q 55.609375 10.40625 48.1875 4.484375 
Q 40.765625 -1.421875 27.09375 -1.421875 
Q 22.515625 -1.421875 17.65625 -0.515625 
Q 12.796875 0.390625 7.625 2.203125 
L 7.625 11.71875 
Q 11.71875 9.328125 16.59375 8.109375 
Q 21.484375 6.890625 26.8125 6.890625 
Q 36.078125 6.890625 40.9375 10.546875 
Q 45.796875 14.203125 45.796875 21.1875 
Q 45.796875 27.640625 41.28125 31.265625 
Q 36.765625 34.90625 28.71875 34.90625 
L 20.21875 34.90625 
L 20.21875 43.015625 
L 29.109375 43.015625 
Q 36.375 43.015625 40.234375 45.921875 
Q 44.09375 48.828125 44.09375 54.296875 
Q 44.09375 59.90625 40.109375 62.90625 
Q 36.140625 65.921875 28.71875 65.921875 
Q 24.65625 65.921875 20.015625 65.03125 
Q 15.375 64.15625 9.8125 62.3125 
L 9.8125 71.09375 
Q 15.4375 72.65625 20.34375 73.4375 
Q 25.25 74.21875 29.59375 74.21875 
Q 40.828125 74.21875 47.359375 69.109375 
Q 53.90625 64.015625 53.90625 55.328125 
Q 53.90625 49.265625 50.4375 45.09375 
Q 46.96875 40.921875 40.578125 39.3125 
z
" id="DejaVuSans-51"/>
       </defs>
       <use xlink:href="#DejaVuSans-51"/>
       <use x="63.623047" xlink:href="#DejaVuSans-46"/>
       <use x="95.410156" xlink:href="#DejaVuSans-48"/>
      </g>
     </g>
    </g>
    <g id="text_8">
     <!-- Petal width (cm) -->
     <g transform="translate(269.527031 364.675938)scale(0.14 -0.14)">
      <defs>
       <path d="M 19.671875 64.796875 
L 19.671875 37.40625 
L 32.078125 37.40625 
Q 38.96875 37.40625 42.71875 40.96875 
Q 46.484375 44.53125 46.484375 51.125 
Q 46.484375 57.671875 42.71875 61.234375 
Q 38.96875 64.796875 32.078125 64.796875 
z
M 9.8125 72.90625 
L 32.078125 72.90625 
Q 44.34375 72.90625 50.609375 67.359375 
Q 56.890625 61.8125 56.890625 51.125 
Q 56.890625 40.328125 50.609375 34.8125 
Q 44.34375 29.296875 32.078125 29.296875 
L 19.671875 29.296875 
L 19.671875 0 
L 9.8125 0 
z
" id="DejaVuSans-80"/>
       <path d="M 56.203125 29.59375 
L 56.203125 25.203125 
L 14.890625 25.203125 
Q 15.484375 15.921875 20.484375 11.0625 
Q 25.484375 6.203125 34.421875 6.203125 
Q 39.59375 6.203125 44.453125 7.46875 
Q 49.3125 8.734375 54.109375 11.28125 
L 54.109375 2.78125 
Q 49.265625 0.734375 44.1875 -0.34375 
Q 39.109375 -1.421875 33.890625 -1.421875 
Q 20.796875 -1.421875 13.15625 6.1875 
Q 5.515625 13.8125 5.515625 26.8125 
Q 5.515625 40.234375 12.765625 48.109375 
Q 20.015625 56 32.328125 56 
Q 43.359375 56 49.78125 48.890625 
Q 56.203125 41.796875 56.203125 29.59375 
z
M 47.21875 32.234375 
Q 47.125 39.59375 43.09375 43.984375 
Q 39.0625 48.390625 32.421875 48.390625 
Q 24.90625 48.390625 20.390625 44.140625 
Q 15.875 39.890625 15.1875 32.171875 
z
" id="DejaVuSans-101"/>
       <path d="M 18.3125 70.21875 
L 18.3125 54.6875 
L 36.8125 54.6875 
L 36.8125 47.703125 
L 18.3125 47.703125 
L 18.3125 18.015625 
Q 18.3125 11.328125 20.140625 9.421875 
Q 21.96875 7.515625 27.59375 7.515625 
L 36.8125 7.515625 
L 36.8125 0 
L 27.59375 0 
Q 17.1875 0 13.234375 3.875 
Q 9.28125 7.765625 9.28125 18.015625 
L 9.28125 47.703125 
L 2.6875 47.703125 
L 2.6875 54.6875 
L 9.28125 54.6875 
L 9.28125 70.21875 
z
" id="DejaVuSans-116"/>
       <path d="M 34.28125 27.484375 
Q 23.390625 27.484375 19.1875 25 
Q 14.984375 22.515625 14.984375 16.5 
Q 14.984375 11.71875 18.140625 8.90625 
Q 21.296875 6.109375 26.703125 6.109375 
Q 34.1875 6.109375 38.703125 11.40625 
Q 43.21875 16.703125 43.21875 25.484375 
L 43.21875 27.484375 
z
M 52.203125 31.203125 
L 52.203125 0 
L 43.21875 0 
L 43.21875 8.296875 
Q 40.140625 3.328125 35.546875 0.953125 
Q 30.953125 -1.421875 24.3125 -1.421875 
Q 15.921875 -1.421875 10.953125 3.296875 
Q 6 8.015625 6 15.921875 
Q 6 25.140625 12.171875 29.828125 
Q 18.359375 34.515625 30.609375 34.515625 
L 43.21875 34.515625 
L 43.21875 35.40625 
Q 43.21875 41.609375 39.140625 45 
Q 35.0625 48.390625 27.6875 48.390625 
Q 23 48.390625 18.546875 47.265625 
Q 14.109375 46.140625 10.015625 43.890625 
L 10.015625 52.203125 
Q 14.9375 54.109375 19.578125 55.046875 
Q 24.21875 56 28.609375 56 
Q 40.484375 56 46.34375 49.84375 
Q 52.203125 43.703125 52.203125 31.203125 
z
" id="DejaVuSans-97"/>
       <path d="M 9.421875 75.984375 
L 18.40625 75.984375 
L 18.40625 0 
L 9.421875 0 
z
" id="DejaVuSans-108"/>
       <path id="DejaVuSans-32"/>
       <path d="M 4.203125 54.6875 
L 13.1875 54.6875 
L 24.421875 12.015625 
L 35.59375 54.6875 
L 46.1875 54.6875 
L 57.421875 12.015625 
L 68.609375 54.6875 
L 77.59375 54.6875 
L 63.28125 0 
L 52.6875 0 
L 40.921875 44.828125 
L 29.109375 0 
L 18.5 0 
z
" id="DejaVuSans-119"/>
       <path d="M 9.421875 54.6875 
L 18.40625 54.6875 
L 18.40625 0 
L 9.421875 0 
z
M 9.421875 75.984375 
L 18.40625 75.984375 
L 18.40625 64.59375 
L 9.421875 64.59375 
z
" id="DejaVuSans-105"/>
       <path d="M 45.40625 46.390625 
L 45.40625 75.984375 
L 54.390625 75.984375 
L 54.390625 0 
L 45.40625 0 
L 45.40625 8.203125 
Q 42.578125 3.328125 38.25 0.953125 
Q 33.9375 -1.421875 27.875 -1.421875 
Q 17.96875 -1.421875 11.734375 6.484375 
Q 5.515625 14.40625 5.515625 27.296875 
Q 5.515625 40.1875 11.734375 48.09375 
Q 17.96875 56 27.875 56 
Q 33.9375 56 38.25 53.625 
Q 42.578125 51.265625 45.40625 46.390625 
z
M 14.796875 27.296875 
Q 14.796875 17.390625 18.875 11.75 
Q 22.953125 6.109375 30.078125 6.109375 
Q 37.203125 6.109375 41.296875 11.75 
Q 45.40625 17.390625 45.40625 27.296875 
Q 45.40625 37.203125 41.296875 42.84375 
Q 37.203125 48.484375 30.078125 48.484375 
Q 22.953125 48.484375 18.875 42.84375 
Q 14.796875 37.203125 14.796875 27.296875 
z
" id="DejaVuSans-100"/>
       <path d="M 54.890625 33.015625 
L 54.890625 0 
L 45.90625 0 
L 45.90625 32.71875 
Q 45.90625 40.484375 42.875 44.328125 
Q 39.84375 48.1875 33.796875 48.1875 
Q 26.515625 48.1875 22.3125 43.546875 
Q 18.109375 38.921875 18.109375 30.90625 
L 18.109375 0 
L 9.078125 0 
L 9.078125 75.984375 
L 18.109375 75.984375 
L 18.109375 46.1875 
Q 21.34375 51.125 25.703125 53.5625 
Q 30.078125 56 35.796875 56 
Q 45.21875 56 50.046875 50.171875 
Q 54.890625 44.34375 54.890625 33.015625 
z
" id="DejaVuSans-104"/>
       <path d="M 31 75.875 
Q 24.46875 64.65625 21.28125 53.65625 
Q 18.109375 42.671875 18.109375 31.390625 
Q 18.109375 20.125 21.3125 9.0625 
Q 24.515625 -2 31 -13.1875 
L 23.1875 -13.1875 
Q 15.875 -1.703125 12.234375 9.375 
Q 8.59375 20.453125 8.59375 31.390625 
Q 8.59375 42.28125 12.203125 53.3125 
Q 15.828125 64.359375 23.1875 75.875 
z
" id="DejaVuSans-40"/>
       <path d="M 48.78125 52.59375 
L 48.78125 44.1875 
Q 44.96875 46.296875 41.140625 47.34375 
Q 37.3125 48.390625 33.40625 48.390625 
Q 24.65625 48.390625 19.8125 42.84375 
Q 14.984375 37.3125 14.984375 27.296875 
Q 14.984375 17.28125 19.8125 11.734375 
Q 24.65625 6.203125 33.40625 6.203125 
Q 37.3125 6.203125 41.140625 7.25 
Q 44.96875 8.296875 48.78125 10.40625 
L 48.78125 2.09375 
Q 45.015625 0.34375 40.984375 -0.53125 
Q 36.96875 -1.421875 32.421875 -1.421875 
Q 20.0625 -1.421875 12.78125 6.34375 
Q 5.515625 14.109375 5.515625 27.296875 
Q 5.515625 40.671875 12.859375 48.328125 
Q 20.21875 56 33.015625 56 
Q 37.15625 56 41.109375 55.140625 
Q 45.0625 54.296875 48.78125 52.59375 
z
" id="DejaVuSans-99"/>
       <path d="M 52 44.1875 
Q 55.375 50.25 60.0625 53.125 
Q 64.75 56 71.09375 56 
Q 79.640625 56 84.28125 50.015625 
Q 88.921875 44.046875 88.921875 33.015625 
L 88.921875 0 
L 79.890625 0 
L 79.890625 32.71875 
Q 79.890625 40.578125 77.09375 44.375 
Q 74.3125 48.1875 68.609375 48.1875 
Q 61.625 48.1875 57.5625 43.546875 
Q 53.515625 38.921875 53.515625 30.90625 
L 53.515625 0 
L 44.484375 0 
L 44.484375 32.71875 
Q 44.484375 40.625 41.703125 44.40625 
Q 38.921875 48.1875 33.109375 48.1875 
Q 26.21875 48.1875 22.15625 43.53125 
Q 18.109375 38.875 18.109375 30.90625 
L 18.109375 0 
L 9.078125 0 
L 9.078125 54.6875 
L 18.109375 54.6875 
L 18.109375 46.1875 
Q 21.1875 51.21875 25.484375 53.609375 
Q 29.78125 56 35.6875 56 
Q 41.65625 56 45.828125 52.96875 
Q 50 49.953125 52 44.1875 
z
" id="DejaVuSans-109"/>
       <path d="M 8.015625 75.875 
L 15.828125 75.875 
Q 23.140625 64.359375 26.78125 53.3125 
Q 30.421875 42.28125 30.421875 31.390625 
Q 30.421875 20.453125 26.78125 9.375 
Q 23.140625 -1.703125 15.828125 -13.1875 
L 8.015625 -13.1875 
Q 14.5 -2 17.703125 9.0625 
Q 20.90625 20.125 20.90625 31.390625 
Q 20.90625 42.671875 17.703125 53.65625 
Q 14.5 64.65625 8.015625 75.875 
z
" id="DejaVuSans-41"/>
      </defs>
      <use xlink:href="#DejaVuSans-80"/>
      <use x="56.677734" xlink:href="#DejaVuSans-101"/>
      <use x="118.201172" xlink:href="#DejaVuSans-116"/>
      <use x="157.410156" xlink:href="#DejaVuSans-97"/>
      <use x="218.689453" xlink:href="#DejaVuSans-108"/>
      <use x="246.472656" xlink:href="#DejaVuSans-32"/>
      <use x="278.259766" xlink:href="#DejaVuSans-119"/>
      <use x="360.046875" xlink:href="#DejaVuSans-105"/>
      <use x="387.830078" xlink:href="#DejaVuSans-100"/>
      <use x="451.306641" xlink:href="#DejaVuSans-116"/>
      <use x="490.515625" xlink:href="#DejaVuSans-104"/>
      <use x="553.894531" xlink:href="#DejaVuSans-32"/>
      <use x="585.681641" xlink:href="#DejaVuSans-40"/>
      <use x="624.695312" xlink:href="#DejaVuSans-99"/>
      <use x="679.675781" xlink:href="#DejaVuSans-109"/>
      <use x="777.087891" xlink:href="#DejaVuSans-41"/>
     </g>
    </g>
   </g>
   <g id="matplotlib.axis_2">
    <g id="ytick_1">
     <g id="line2d_8">
      <defs>
       <path d="M 0 0 
L -3.5 0 
" id="mf33b2c8535" style="stroke:#000000;stroke-width:0.8;"/>
      </defs>
      <g>
       <use style="stroke:#000000;stroke-width:0.8;" x="47.6525" xlink:href="#mf33b2c8535" y="327.087692"/>
      </g>
     </g>
     <g id="text_9">
      <!-- 0.0 -->
      <g transform="translate(24.749375 330.886911)scale(0.1 -0.1)">
       <use xlink:href="#DejaVuSans-48"/>
       <use x="63.623047" xlink:href="#DejaVuSans-46"/>
       <use x="95.410156" xlink:href="#DejaVuSans-48"/>
      </g>
     </g>
    </g>
    <g id="ytick_2">
     <g id="line2d_9">
      <g>
       <use style="stroke:#000000;stroke-width:0.8;" x="47.6525" xlink:href="#mf33b2c8535" y="264.364615"/>
      </g>
     </g>
     <g id="text_10">
      <!-- 0.2 -->
      <g transform="translate(24.749375 268.163834)scale(0.1 -0.1)">
       <use xlink:href="#DejaVuSans-48"/>
       <use x="63.623047" xlink:href="#DejaVuSans-46"/>
       <use x="95.410156" xlink:href="#DejaVuSans-50"/>
      </g>
     </g>
    </g>
    <g id="ytick_3">
     <g id="line2d_10">
      <g>
       <use style="stroke:#000000;stroke-width:0.8;" x="47.6525" xlink:href="#mf33b2c8535" y="201.641538"/>
      </g>
     </g>
     <g id="text_11">
      <!-- 0.4 -->
      <g transform="translate(24.749375 205.440757)scale(0.1 -0.1)">
       <defs>
        <path d="M 37.796875 64.3125 
L 12.890625 25.390625 
L 37.796875 25.390625 
z
M 35.203125 72.90625 
L 47.609375 72.90625 
L 47.609375 25.390625 
L 58.015625 25.390625 
L 58.015625 17.1875 
L 47.609375 17.1875 
L 47.609375 0 
L 37.796875 0 
L 37.796875 17.1875 
L 4.890625 17.1875 
L 4.890625 26.703125 
z
" id="DejaVuSans-52"/>
       </defs>
       <use xlink:href="#DejaVuSans-48"/>
       <use x="63.623047" xlink:href="#DejaVuSans-46"/>
       <use x="95.410156" xlink:href="#DejaVuSans-52"/>
      </g>
     </g>
    </g>
    <g id="ytick_4">
     <g id="line2d_11">
      <g>
       <use style="stroke:#000000;stroke-width:0.8;" x="47.6525" xlink:href="#mf33b2c8535" y="138.918462"/>
      </g>
     </g>
     <g id="text_12">
      <!-- 0.6 -->
      <g transform="translate(24.749375 142.71768)scale(0.1 -0.1)">
       <defs>
        <path d="M 33.015625 40.375 
Q 26.375 40.375 22.484375 35.828125 
Q 18.609375 31.296875 18.609375 23.390625 
Q 18.609375 15.53125 22.484375 10.953125 
Q 26.375 6.390625 33.015625 6.390625 
Q 39.65625 6.390625 43.53125 10.953125 
Q 47.40625 15.53125 47.40625 23.390625 
Q 47.40625 31.296875 43.53125 35.828125 
Q 39.65625 40.375 33.015625 40.375 
z
M 52.59375 71.296875 
L 52.59375 62.3125 
Q 48.875 64.0625 45.09375 64.984375 
Q 41.3125 65.921875 37.59375 65.921875 
Q 27.828125 65.921875 22.671875 59.328125 
Q 17.53125 52.734375 16.796875 39.40625 
Q 19.671875 43.65625 24.015625 45.921875 
Q 28.375 48.1875 33.59375 48.1875 
Q 44.578125 48.1875 50.953125 41.515625 
Q 57.328125 34.859375 57.328125 23.390625 
Q 57.328125 12.15625 50.6875 5.359375 
Q 44.046875 -1.421875 33.015625 -1.421875 
Q 20.359375 -1.421875 13.671875 8.265625 
Q 6.984375 17.96875 6.984375 36.375 
Q 6.984375 53.65625 15.1875 63.9375 
Q 23.390625 74.21875 37.203125 74.21875 
Q 40.921875 74.21875 44.703125 73.484375 
Q 48.484375 72.75 52.59375 71.296875 
z
" id="DejaVuSans-54"/>
       </defs>
       <use xlink:href="#DejaVuSans-48"/>
       <use x="63.623047" xlink:href="#DejaVuSans-46"/>
       <use x="95.410156" xlink:href="#DejaVuSans-54"/>
      </g>
     </g>
    </g>
    <g id="ytick_5">
     <g id="line2d_12">
      <g>
       <use style="stroke:#000000;stroke-width:0.8;" x="47.6525" xlink:href="#mf33b2c8535" y="76.195385"/>
      </g>
     </g>
     <g id="text_13">
      <!-- 0.8 -->
      <g transform="translate(24.749375 79.994603)scale(0.1 -0.1)">
       <defs>
        <path d="M 31.78125 34.625 
Q 24.75 34.625 20.71875 30.859375 
Q 16.703125 27.09375 16.703125 20.515625 
Q 16.703125 13.921875 20.71875 10.15625 
Q 24.75 6.390625 31.78125 6.390625 
Q 38.8125 6.390625 42.859375 10.171875 
Q 46.921875 13.96875 46.921875 20.515625 
Q 46.921875 27.09375 42.890625 30.859375 
Q 38.875 34.625 31.78125 34.625 
z
M 21.921875 38.8125 
Q 15.578125 40.375 12.03125 44.71875 
Q 8.5 49.078125 8.5 55.328125 
Q 8.5 64.0625 14.71875 69.140625 
Q 20.953125 74.21875 31.78125 74.21875 
Q 42.671875 74.21875 48.875 69.140625 
Q 55.078125 64.0625 55.078125 55.328125 
Q 55.078125 49.078125 51.53125 44.71875 
Q 48 40.375 41.703125 38.8125 
Q 48.828125 37.15625 52.796875 32.3125 
Q 56.78125 27.484375 56.78125 20.515625 
Q 56.78125 9.90625 50.3125 4.234375 
Q 43.84375 -1.421875 31.78125 -1.421875 
Q 19.734375 -1.421875 13.25 4.234375 
Q 6.78125 9.90625 6.78125 20.515625 
Q 6.78125 27.484375 10.78125 32.3125 
Q 14.796875 37.15625 21.921875 38.8125 
z
M 18.3125 54.390625 
Q 18.3125 48.734375 21.84375 45.5625 
Q 25.390625 42.390625 31.78125 42.390625 
Q 38.140625 42.390625 41.71875 45.5625 
Q 45.3125 48.734375 45.3125 54.390625 
Q 45.3125 60.0625 41.71875 63.234375 
Q 38.140625 66.40625 31.78125 66.40625 
Q 25.390625 66.40625 21.84375 63.234375 
Q 18.3125 60.0625 18.3125 54.390625 
z
" id="DejaVuSans-56"/>
       </defs>
       <use xlink:href="#DejaVuSans-48"/>
       <use x="63.623047" xlink:href="#DejaVuSans-46"/>
       <use x="95.410156" xlink:href="#DejaVuSans-56"/>
      </g>
     </g>
    </g>
    <g id="ytick_6">
     <g id="line2d_13">
      <g>
       <use style="stroke:#000000;stroke-width:0.8;" x="47.6525" xlink:href="#mf33b2c8535" y="13.472308"/>
      </g>
     </g>
     <g id="text_14">
      <!-- 1.0 -->
      <g transform="translate(24.749375 17.271526)scale(0.1 -0.1)">
       <use xlink:href="#DejaVuSans-49"/>
       <use x="63.623047" xlink:href="#DejaVuSans-46"/>
       <use x="95.410156" xlink:href="#DejaVuSans-48"/>
      </g>
     </g>
    </g>
    <g id="text_15">
     <!-- Probability -->
     <g transform="translate(17.837812 207.280469)rotate(-90)scale(0.14 -0.14)">
      <defs>
       <path d="M 41.109375 46.296875 
Q 39.59375 47.171875 37.8125 47.578125 
Q 36.03125 48 33.890625 48 
Q 26.265625 48 22.1875 43.046875 
Q 18.109375 38.09375 18.109375 28.8125 
L 18.109375 0 
L 9.078125 0 
L 9.078125 54.6875 
L 18.109375 54.6875 
L 18.109375 46.1875 
Q 20.953125 51.171875 25.484375 53.578125 
Q 30.03125 56 36.53125 56 
Q 37.453125 56 38.578125 55.875 
Q 39.703125 55.765625 41.0625 55.515625 
z
" id="DejaVuSans-114"/>
       <path d="M 30.609375 48.390625 
Q 23.390625 48.390625 19.1875 42.75 
Q 14.984375 37.109375 14.984375 27.296875 
Q 14.984375 17.484375 19.15625 11.84375 
Q 23.34375 6.203125 30.609375 6.203125 
Q 37.796875 6.203125 41.984375 11.859375 
Q 46.1875 17.53125 46.1875 27.296875 
Q 46.1875 37.015625 41.984375 42.703125 
Q 37.796875 48.390625 30.609375 48.390625 
z
M 30.609375 56 
Q 42.328125 56 49.015625 48.375 
Q 55.71875 40.765625 55.71875 27.296875 
Q 55.71875 13.875 49.015625 6.21875 
Q 42.328125 -1.421875 30.609375 -1.421875 
Q 18.84375 -1.421875 12.171875 6.21875 
Q 5.515625 13.875 5.515625 27.296875 
Q 5.515625 40.765625 12.171875 48.375 
Q 18.84375 56 30.609375 56 
z
" id="DejaVuSans-111"/>
       <path d="M 48.6875 27.296875 
Q 48.6875 37.203125 44.609375 42.84375 
Q 40.53125 48.484375 33.40625 48.484375 
Q 26.265625 48.484375 22.1875 42.84375 
Q 18.109375 37.203125 18.109375 27.296875 
Q 18.109375 17.390625 22.1875 11.75 
Q 26.265625 6.109375 33.40625 6.109375 
Q 40.53125 6.109375 44.609375 11.75 
Q 48.6875 17.390625 48.6875 27.296875 
z
M 18.109375 46.390625 
Q 20.953125 51.265625 25.265625 53.625 
Q 29.59375 56 35.59375 56 
Q 45.5625 56 51.78125 48.09375 
Q 58.015625 40.1875 58.015625 27.296875 
Q 58.015625 14.40625 51.78125 6.484375 
Q 45.5625 -1.421875 35.59375 -1.421875 
Q 29.59375 -1.421875 25.265625 0.953125 
Q 20.953125 3.328125 18.109375 8.203125 
L 18.109375 0 
L 9.078125 0 
L 9.078125 75.984375 
L 18.109375 75.984375 
z
" id="DejaVuSans-98"/>
       <path d="M 32.171875 -5.078125 
Q 28.375 -14.84375 24.75 -17.8125 
Q 21.140625 -20.796875 15.09375 -20.796875 
L 7.90625 -20.796875 
L 7.90625 -13.28125 
L 13.1875 -13.28125 
Q 16.890625 -13.28125 18.9375 -11.515625 
Q 21 -9.765625 23.484375 -3.21875 
L 25.09375 0.875 
L 2.984375 54.6875 
L 12.5 54.6875 
L 29.59375 11.921875 
L 46.6875 54.6875 
L 56.203125 54.6875 
z
" id="DejaVuSans-121"/>
      </defs>
      <use xlink:href="#DejaVuSans-80"/>
      <use x="58.552734" xlink:href="#DejaVuSans-114"/>
      <use x="97.416016" xlink:href="#DejaVuSans-111"/>
      <use x="158.597656" xlink:href="#DejaVuSans-98"/>
      <use x="222.074219" xlink:href="#DejaVuSans-97"/>
      <use x="283.353516" xlink:href="#DejaVuSans-98"/>
      <use x="346.830078" xlink:href="#DejaVuSans-105"/>
      <use x="374.613281" xlink:href="#DejaVuSans-108"/>
      <use x="402.396484" xlink:href="#DejaVuSans-105"/>
      <use x="430.179688" xlink:href="#DejaVuSans-116"/>
      <use x="469.388672" xlink:href="#DejaVuSans-121"/>
     </g>
    </g>
   </g>
   <g id="line2d_14">
    <defs>
     <path d="M -3 3 
L 3 3 
L 3 -3 
L -3 -3 
z
" id="m1e15b20939" style="stroke:#0000ff;stroke-linejoin:miter;"/>
    </defs>
    <g clip-path="url(#p7c26a0e7a4)">
     <use style="fill:#0000ff;stroke:#0000ff;stroke-linejoin:miter;" x="84.8525" xlink:href="#m1e15b20939" y="327.087692"/>
     <use style="fill:#0000ff;stroke:#0000ff;stroke-linejoin:miter;" x="84.8525" xlink:href="#m1e15b20939" y="327.087692"/>
     <use style="fill:#0000ff;stroke:#0000ff;stroke-linejoin:miter;" x="84.8525" xlink:href="#m1e15b20939" y="327.087692"/>
     <use style="fill:#0000ff;stroke:#0000ff;stroke-linejoin:miter;" x="84.8525" xlink:href="#m1e15b20939" y="327.087692"/>
     <use style="fill:#0000ff;stroke:#0000ff;stroke-linejoin:miter;" x="84.8525" xlink:href="#m1e15b20939" y="327.087692"/>
     <use style="fill:#0000ff;stroke:#0000ff;stroke-linejoin:miter;" x="122.0525" xlink:href="#m1e15b20939" y="327.087692"/>
     <use style="fill:#0000ff;stroke:#0000ff;stroke-linejoin:miter;" x="103.4525" xlink:href="#m1e15b20939" y="327.087692"/>
     <use style="fill:#0000ff;stroke:#0000ff;stroke-linejoin:miter;" x="84.8525" xlink:href="#m1e15b20939" y="327.087692"/>
     <use style="fill:#0000ff;stroke:#0000ff;stroke-linejoin:miter;" x="84.8525" xlink:href="#m1e15b20939" y="327.087692"/>
     <use style="fill:#0000ff;stroke:#0000ff;stroke-linejoin:miter;" x="66.2525" xlink:href="#m1e15b20939" y="327.087692"/>
     <use style="fill:#0000ff;stroke:#0000ff;stroke-linejoin:miter;" x="84.8525" xlink:href="#m1e15b20939" y="327.087692"/>
     <use style="fill:#0000ff;stroke:#0000ff;stroke-linejoin:miter;" x="84.8525" xlink:href="#m1e15b20939" y="327.087692"/>
     <use style="fill:#0000ff;stroke:#0000ff;stroke-linejoin:miter;" x="66.2525" xlink:href="#m1e15b20939" y="327.087692"/>
     <use style="fill:#0000ff;stroke:#0000ff;stroke-linejoin:miter;" x="66.2525" xlink:href="#m1e15b20939" y="327.087692"/>
     <use style="fill:#0000ff;stroke:#0000ff;stroke-linejoin:miter;" x="84.8525" xlink:href="#m1e15b20939" y="327.087692"/>
     <use style="fill:#0000ff;stroke:#0000ff;stroke-linejoin:miter;" x="122.0525" xlink:href="#m1e15b20939" y="327.087692"/>
     <use style="fill:#0000ff;stroke:#0000ff;stroke-linejoin:miter;" x="122.0525" xlink:href="#m1e15b20939" y="327.087692"/>
     <use style="fill:#0000ff;stroke:#0000ff;stroke-linejoin:miter;" x="103.4525" xlink:href="#m1e15b20939" y="327.087692"/>
     <use style="fill:#0000ff;stroke:#0000ff;stroke-linejoin:miter;" x="103.4525" xlink:href="#m1e15b20939" y="327.087692"/>
     <use style="fill:#0000ff;stroke:#0000ff;stroke-linejoin:miter;" x="103.4525" xlink:href="#m1e15b20939" y="327.087692"/>
     <use style="fill:#0000ff;stroke:#0000ff;stroke-linejoin:miter;" x="84.8525" xlink:href="#m1e15b20939" y="327.087692"/>
     <use style="fill:#0000ff;stroke:#0000ff;stroke-linejoin:miter;" x="122.0525" xlink:href="#m1e15b20939" y="327.087692"/>
     <use style="fill:#0000ff;stroke:#0000ff;stroke-linejoin:miter;" x="84.8525" xlink:href="#m1e15b20939" y="327.087692"/>
     <use style="fill:#0000ff;stroke:#0000ff;stroke-linejoin:miter;" x="140.6525" xlink:href="#m1e15b20939" y="327.087692"/>
     <use style="fill:#0000ff;stroke:#0000ff;stroke-linejoin:miter;" x="84.8525" xlink:href="#m1e15b20939" y="327.087692"/>
     <use style="fill:#0000ff;stroke:#0000ff;stroke-linejoin:miter;" x="84.8525" xlink:href="#m1e15b20939" y="327.087692"/>
     <use style="fill:#0000ff;stroke:#0000ff;stroke-linejoin:miter;" x="122.0525" xlink:href="#m1e15b20939" y="327.087692"/>
     <use style="fill:#0000ff;stroke:#0000ff;stroke-linejoin:miter;" x="84.8525" xlink:href="#m1e15b20939" y="327.087692"/>
     <use style="fill:#0000ff;stroke:#0000ff;stroke-linejoin:miter;" x="84.8525" xlink:href="#m1e15b20939" y="327.087692"/>
     <use style="fill:#0000ff;stroke:#0000ff;stroke-linejoin:miter;" x="84.8525" xlink:href="#m1e15b20939" y="327.087692"/>
     <use style="fill:#0000ff;stroke:#0000ff;stroke-linejoin:miter;" x="84.8525" xlink:href="#m1e15b20939" y="327.087692"/>
     <use style="fill:#0000ff;stroke:#0000ff;stroke-linejoin:miter;" x="122.0525" xlink:href="#m1e15b20939" y="327.087692"/>
     <use style="fill:#0000ff;stroke:#0000ff;stroke-linejoin:miter;" x="66.2525" xlink:href="#m1e15b20939" y="327.087692"/>
     <use style="fill:#0000ff;stroke:#0000ff;stroke-linejoin:miter;" x="84.8525" xlink:href="#m1e15b20939" y="327.087692"/>
     <use style="fill:#0000ff;stroke:#0000ff;stroke-linejoin:miter;" x="84.8525" xlink:href="#m1e15b20939" y="327.087692"/>
     <use style="fill:#0000ff;stroke:#0000ff;stroke-linejoin:miter;" x="84.8525" xlink:href="#m1e15b20939" y="327.087692"/>
     <use style="fill:#0000ff;stroke:#0000ff;stroke-linejoin:miter;" x="84.8525" xlink:href="#m1e15b20939" y="327.087692"/>
     <use style="fill:#0000ff;stroke:#0000ff;stroke-linejoin:miter;" x="66.2525" xlink:href="#m1e15b20939" y="327.087692"/>
     <use style="fill:#0000ff;stroke:#0000ff;stroke-linejoin:miter;" x="84.8525" xlink:href="#m1e15b20939" y="327.087692"/>
     <use style="fill:#0000ff;stroke:#0000ff;stroke-linejoin:miter;" x="84.8525" xlink:href="#m1e15b20939" y="327.087692"/>
     <use style="fill:#0000ff;stroke:#0000ff;stroke-linejoin:miter;" x="103.4525" xlink:href="#m1e15b20939" y="327.087692"/>
     <use style="fill:#0000ff;stroke:#0000ff;stroke-linejoin:miter;" x="103.4525" xlink:href="#m1e15b20939" y="327.087692"/>
     <use style="fill:#0000ff;stroke:#0000ff;stroke-linejoin:miter;" x="84.8525" xlink:href="#m1e15b20939" y="327.087692"/>
     <use style="fill:#0000ff;stroke:#0000ff;stroke-linejoin:miter;" x="159.2525" xlink:href="#m1e15b20939" y="327.087692"/>
     <use style="fill:#0000ff;stroke:#0000ff;stroke-linejoin:miter;" x="122.0525" xlink:href="#m1e15b20939" y="327.087692"/>
     <use style="fill:#0000ff;stroke:#0000ff;stroke-linejoin:miter;" x="103.4525" xlink:href="#m1e15b20939" y="327.087692"/>
     <use style="fill:#0000ff;stroke:#0000ff;stroke-linejoin:miter;" x="84.8525" xlink:href="#m1e15b20939" y="327.087692"/>
     <use style="fill:#0000ff;stroke:#0000ff;stroke-linejoin:miter;" x="84.8525" xlink:href="#m1e15b20939" y="327.087692"/>
     <use style="fill:#0000ff;stroke:#0000ff;stroke-linejoin:miter;" x="84.8525" xlink:href="#m1e15b20939" y="327.087692"/>
     <use style="fill:#0000ff;stroke:#0000ff;stroke-linejoin:miter;" x="84.8525" xlink:href="#m1e15b20939" y="327.087692"/>
     <use style="fill:#0000ff;stroke:#0000ff;stroke-linejoin:miter;" x="308.0525" xlink:href="#m1e15b20939" y="327.087692"/>
     <use style="fill:#0000ff;stroke:#0000ff;stroke-linejoin:miter;" x="326.6525" xlink:href="#m1e15b20939" y="327.087692"/>
     <use style="fill:#0000ff;stroke:#0000ff;stroke-linejoin:miter;" x="326.6525" xlink:href="#m1e15b20939" y="327.087692"/>
     <use style="fill:#0000ff;stroke:#0000ff;stroke-linejoin:miter;" x="289.4525" xlink:href="#m1e15b20939" y="327.087692"/>
     <use style="fill:#0000ff;stroke:#0000ff;stroke-linejoin:miter;" x="326.6525" xlink:href="#m1e15b20939" y="327.087692"/>
     <use style="fill:#0000ff;stroke:#0000ff;stroke-linejoin:miter;" x="289.4525" xlink:href="#m1e15b20939" y="327.087692"/>
     <use style="fill:#0000ff;stroke:#0000ff;stroke-linejoin:miter;" x="345.2525" xlink:href="#m1e15b20939" y="327.087692"/>
     <use style="fill:#0000ff;stroke:#0000ff;stroke-linejoin:miter;" x="233.6525" xlink:href="#m1e15b20939" y="327.087692"/>
     <use style="fill:#0000ff;stroke:#0000ff;stroke-linejoin:miter;" x="289.4525" xlink:href="#m1e15b20939" y="327.087692"/>
     <use style="fill:#0000ff;stroke:#0000ff;stroke-linejoin:miter;" x="308.0525" xlink:href="#m1e15b20939" y="327.087692"/>
     <use style="fill:#0000ff;stroke:#0000ff;stroke-linejoin:miter;" x="233.6525" xlink:href="#m1e15b20939" y="327.087692"/>
     <use style="fill:#0000ff;stroke:#0000ff;stroke-linejoin:miter;" x="326.6525" xlink:href="#m1e15b20939" y="327.087692"/>
     <use style="fill:#0000ff;stroke:#0000ff;stroke-linejoin:miter;" x="233.6525" xlink:href="#m1e15b20939" y="327.087692"/>
     <use style="fill:#0000ff;stroke:#0000ff;stroke-linejoin:miter;" x="308.0525" xlink:href="#m1e15b20939" y="327.087692"/>
     <use style="fill:#0000ff;stroke:#0000ff;stroke-linejoin:miter;" x="289.4525" xlink:href="#m1e15b20939" y="327.087692"/>
     <use style="fill:#0000ff;stroke:#0000ff;stroke-linejoin:miter;" x="308.0525" xlink:href="#m1e15b20939" y="327.087692"/>
     <use style="fill:#0000ff;stroke:#0000ff;stroke-linejoin:miter;" x="326.6525" xlink:href="#m1e15b20939" y="327.087692"/>
     <use style="fill:#0000ff;stroke:#0000ff;stroke-linejoin:miter;" x="233.6525" xlink:href="#m1e15b20939" y="327.087692"/>
     <use style="fill:#0000ff;stroke:#0000ff;stroke-linejoin:miter;" x="326.6525" xlink:href="#m1e15b20939" y="327.087692"/>
     <use style="fill:#0000ff;stroke:#0000ff;stroke-linejoin:miter;" x="252.2525" xlink:href="#m1e15b20939" y="327.087692"/>
     <use style="fill:#0000ff;stroke:#0000ff;stroke-linejoin:miter;" x="382.4525" xlink:href="#m1e15b20939" y="327.087692"/>
     <use style="fill:#0000ff;stroke:#0000ff;stroke-linejoin:miter;" x="289.4525" xlink:href="#m1e15b20939" y="327.087692"/>
     <use style="fill:#0000ff;stroke:#0000ff;stroke-linejoin:miter;" x="326.6525" xlink:href="#m1e15b20939" y="327.087692"/>
     <use style="fill:#0000ff;stroke:#0000ff;stroke-linejoin:miter;" x="270.8525" xlink:href="#m1e15b20939" y="327.087692"/>
     <use style="fill:#0000ff;stroke:#0000ff;stroke-linejoin:miter;" x="289.4525" xlink:href="#m1e15b20939" y="327.087692"/>
     <use style="fill:#0000ff;stroke:#0000ff;stroke-linejoin:miter;" x="308.0525" xlink:href="#m1e15b20939" y="327.087692"/>
     <use style="fill:#0000ff;stroke:#0000ff;stroke-linejoin:miter;" x="308.0525" xlink:href="#m1e15b20939" y="327.087692"/>
     <use style="fill:#0000ff;stroke:#0000ff;stroke-linejoin:miter;" x="363.8525" xlink:href="#m1e15b20939" y="327.087692"/>
     <use style="fill:#0000ff;stroke:#0000ff;stroke-linejoin:miter;" x="326.6525" xlink:href="#m1e15b20939" y="327.087692"/>
     <use style="fill:#0000ff;stroke:#0000ff;stroke-linejoin:miter;" x="233.6525" xlink:href="#m1e15b20939" y="327.087692"/>
     <use style="fill:#0000ff;stroke:#0000ff;stroke-linejoin:miter;" x="252.2525" xlink:href="#m1e15b20939" y="327.087692"/>
     <use style="fill:#0000ff;stroke:#0000ff;stroke-linejoin:miter;" x="233.6525" xlink:href="#m1e15b20939" y="327.087692"/>
     <use style="fill:#0000ff;stroke:#0000ff;stroke-linejoin:miter;" x="270.8525" xlink:href="#m1e15b20939" y="327.087692"/>
     <use style="fill:#0000ff;stroke:#0000ff;stroke-linejoin:miter;" x="345.2525" xlink:href="#m1e15b20939" y="327.087692"/>
     <use style="fill:#0000ff;stroke:#0000ff;stroke-linejoin:miter;" x="326.6525" xlink:href="#m1e15b20939" y="327.087692"/>
     <use style="fill:#0000ff;stroke:#0000ff;stroke-linejoin:miter;" x="345.2525" xlink:href="#m1e15b20939" y="327.087692"/>
     <use style="fill:#0000ff;stroke:#0000ff;stroke-linejoin:miter;" x="326.6525" xlink:href="#m1e15b20939" y="327.087692"/>
     <use style="fill:#0000ff;stroke:#0000ff;stroke-linejoin:miter;" x="289.4525" xlink:href="#m1e15b20939" y="327.087692"/>
     <use style="fill:#0000ff;stroke:#0000ff;stroke-linejoin:miter;" x="289.4525" xlink:href="#m1e15b20939" y="327.087692"/>
     <use style="fill:#0000ff;stroke:#0000ff;stroke-linejoin:miter;" x="289.4525" xlink:href="#m1e15b20939" y="327.087692"/>
     <use style="fill:#0000ff;stroke:#0000ff;stroke-linejoin:miter;" x="270.8525" xlink:href="#m1e15b20939" y="327.087692"/>
     <use style="fill:#0000ff;stroke:#0000ff;stroke-linejoin:miter;" x="308.0525" xlink:href="#m1e15b20939" y="327.087692"/>
     <use style="fill:#0000ff;stroke:#0000ff;stroke-linejoin:miter;" x="270.8525" xlink:href="#m1e15b20939" y="327.087692"/>
     <use style="fill:#0000ff;stroke:#0000ff;stroke-linejoin:miter;" x="233.6525" xlink:href="#m1e15b20939" y="327.087692"/>
     <use style="fill:#0000ff;stroke:#0000ff;stroke-linejoin:miter;" x="289.4525" xlink:href="#m1e15b20939" y="327.087692"/>
     <use style="fill:#0000ff;stroke:#0000ff;stroke-linejoin:miter;" x="270.8525" xlink:href="#m1e15b20939" y="327.087692"/>
     <use style="fill:#0000ff;stroke:#0000ff;stroke-linejoin:miter;" x="289.4525" xlink:href="#m1e15b20939" y="327.087692"/>
     <use style="fill:#0000ff;stroke:#0000ff;stroke-linejoin:miter;" x="289.4525" xlink:href="#m1e15b20939" y="327.087692"/>
     <use style="fill:#0000ff;stroke:#0000ff;stroke-linejoin:miter;" x="252.2525" xlink:href="#m1e15b20939" y="327.087692"/>
     <use style="fill:#0000ff;stroke:#0000ff;stroke-linejoin:miter;" x="289.4525" xlink:href="#m1e15b20939" y="327.087692"/>
    </g>
   </g>
   <g id="line2d_15">
    <defs>
     <path d="M 0 -3 
L -3 3 
L 3 3 
z
" id="m1054836f94" style="stroke:#008000;stroke-linejoin:miter;"/>
    </defs>
    <g clip-path="url(#p7c26a0e7a4)">
     <use style="fill:#008000;stroke:#008000;stroke-linejoin:miter;" x="512.6525" xlink:href="#m1054836f94" y="13.472308"/>
     <use style="fill:#008000;stroke:#008000;stroke-linejoin:miter;" x="401.0525" xlink:href="#m1054836f94" y="13.472308"/>
     <use style="fill:#008000;stroke:#008000;stroke-linejoin:miter;" x="438.2525" xlink:href="#m1054836f94" y="13.472308"/>
     <use style="fill:#008000;stroke:#008000;stroke-linejoin:miter;" x="382.4525" xlink:href="#m1054836f94" y="13.472308"/>
     <use style="fill:#008000;stroke:#008000;stroke-linejoin:miter;" x="456.8525" xlink:href="#m1054836f94" y="13.472308"/>
     <use style="fill:#008000;stroke:#008000;stroke-linejoin:miter;" x="438.2525" xlink:href="#m1054836f94" y="13.472308"/>
     <use style="fill:#008000;stroke:#008000;stroke-linejoin:miter;" x="363.8525" xlink:href="#m1054836f94" y="13.472308"/>
     <use style="fill:#008000;stroke:#008000;stroke-linejoin:miter;" x="382.4525" xlink:href="#m1054836f94" y="13.472308"/>
     <use style="fill:#008000;stroke:#008000;stroke-linejoin:miter;" x="382.4525" xlink:href="#m1054836f94" y="13.472308"/>
     <use style="fill:#008000;stroke:#008000;stroke-linejoin:miter;" x="512.6525" xlink:href="#m1054836f94" y="13.472308"/>
     <use style="fill:#008000;stroke:#008000;stroke-linejoin:miter;" x="419.6525" xlink:href="#m1054836f94" y="13.472308"/>
     <use style="fill:#008000;stroke:#008000;stroke-linejoin:miter;" x="401.0525" xlink:href="#m1054836f94" y="13.472308"/>
     <use style="fill:#008000;stroke:#008000;stroke-linejoin:miter;" x="438.2525" xlink:href="#m1054836f94" y="13.472308"/>
     <use style="fill:#008000;stroke:#008000;stroke-linejoin:miter;" x="419.6525" xlink:href="#m1054836f94" y="13.472308"/>
     <use style="fill:#008000;stroke:#008000;stroke-linejoin:miter;" x="494.0525" xlink:href="#m1054836f94" y="13.472308"/>
     <use style="fill:#008000;stroke:#008000;stroke-linejoin:miter;" x="475.4525" xlink:href="#m1054836f94" y="13.472308"/>
     <use style="fill:#008000;stroke:#008000;stroke-linejoin:miter;" x="382.4525" xlink:href="#m1054836f94" y="13.472308"/>
     <use style="fill:#008000;stroke:#008000;stroke-linejoin:miter;" x="456.8525" xlink:href="#m1054836f94" y="13.472308"/>
     <use style="fill:#008000;stroke:#008000;stroke-linejoin:miter;" x="475.4525" xlink:href="#m1054836f94" y="13.472308"/>
     <use style="fill:#008000;stroke:#008000;stroke-linejoin:miter;" x="326.6525" xlink:href="#m1054836f94" y="13.472308"/>
     <use style="fill:#008000;stroke:#008000;stroke-linejoin:miter;" x="475.4525" xlink:href="#m1054836f94" y="13.472308"/>
     <use style="fill:#008000;stroke:#008000;stroke-linejoin:miter;" x="419.6525" xlink:href="#m1054836f94" y="13.472308"/>
     <use style="fill:#008000;stroke:#008000;stroke-linejoin:miter;" x="419.6525" xlink:href="#m1054836f94" y="13.472308"/>
     <use style="fill:#008000;stroke:#008000;stroke-linejoin:miter;" x="382.4525" xlink:href="#m1054836f94" y="13.472308"/>
     <use style="fill:#008000;stroke:#008000;stroke-linejoin:miter;" x="438.2525" xlink:href="#m1054836f94" y="13.472308"/>
     <use style="fill:#008000;stroke:#008000;stroke-linejoin:miter;" x="382.4525" xlink:href="#m1054836f94" y="13.472308"/>
     <use style="fill:#008000;stroke:#008000;stroke-linejoin:miter;" x="382.4525" xlink:href="#m1054836f94" y="13.472308"/>
     <use style="fill:#008000;stroke:#008000;stroke-linejoin:miter;" x="382.4525" xlink:href="#m1054836f94" y="13.472308"/>
     <use style="fill:#008000;stroke:#008000;stroke-linejoin:miter;" x="438.2525" xlink:href="#m1054836f94" y="13.472308"/>
     <use style="fill:#008000;stroke:#008000;stroke-linejoin:miter;" x="345.2525" xlink:href="#m1054836f94" y="13.472308"/>
     <use style="fill:#008000;stroke:#008000;stroke-linejoin:miter;" x="401.0525" xlink:href="#m1054836f94" y="13.472308"/>
     <use style="fill:#008000;stroke:#008000;stroke-linejoin:miter;" x="419.6525" xlink:href="#m1054836f94" y="13.472308"/>
     <use style="fill:#008000;stroke:#008000;stroke-linejoin:miter;" x="456.8525" xlink:href="#m1054836f94" y="13.472308"/>
     <use style="fill:#008000;stroke:#008000;stroke-linejoin:miter;" x="326.6525" xlink:href="#m1054836f94" y="13.472308"/>
     <use style="fill:#008000;stroke:#008000;stroke-linejoin:miter;" x="308.0525" xlink:href="#m1054836f94" y="13.472308"/>
     <use style="fill:#008000;stroke:#008000;stroke-linejoin:miter;" x="475.4525" xlink:href="#m1054836f94" y="13.472308"/>
     <use style="fill:#008000;stroke:#008000;stroke-linejoin:miter;" x="494.0525" xlink:href="#m1054836f94" y="13.472308"/>
     <use style="fill:#008000;stroke:#008000;stroke-linejoin:miter;" x="382.4525" xlink:href="#m1054836f94" y="13.472308"/>
     <use style="fill:#008000;stroke:#008000;stroke-linejoin:miter;" x="382.4525" xlink:href="#m1054836f94" y="13.472308"/>
     <use style="fill:#008000;stroke:#008000;stroke-linejoin:miter;" x="438.2525" xlink:href="#m1054836f94" y="13.472308"/>
     <use style="fill:#008000;stroke:#008000;stroke-linejoin:miter;" x="494.0525" xlink:href="#m1054836f94" y="13.472308"/>
     <use style="fill:#008000;stroke:#008000;stroke-linejoin:miter;" x="475.4525" xlink:href="#m1054836f94" y="13.472308"/>
     <use style="fill:#008000;stroke:#008000;stroke-linejoin:miter;" x="401.0525" xlink:href="#m1054836f94" y="13.472308"/>
     <use style="fill:#008000;stroke:#008000;stroke-linejoin:miter;" x="475.4525" xlink:href="#m1054836f94" y="13.472308"/>
     <use style="fill:#008000;stroke:#008000;stroke-linejoin:miter;" x="512.6525" xlink:href="#m1054836f94" y="13.472308"/>
     <use style="fill:#008000;stroke:#008000;stroke-linejoin:miter;" x="475.4525" xlink:href="#m1054836f94" y="13.472308"/>
     <use style="fill:#008000;stroke:#008000;stroke-linejoin:miter;" x="401.0525" xlink:href="#m1054836f94" y="13.472308"/>
     <use style="fill:#008000;stroke:#008000;stroke-linejoin:miter;" x="419.6525" xlink:href="#m1054836f94" y="13.472308"/>
     <use style="fill:#008000;stroke:#008000;stroke-linejoin:miter;" x="475.4525" xlink:href="#m1054836f94" y="13.472308"/>
     <use style="fill:#008000;stroke:#008000;stroke-linejoin:miter;" x="382.4525" xlink:href="#m1054836f94" y="13.472308"/>
    </g>
   </g>
   <g id="line2d_16">
    <path clip-path="url(#p7c26a0e7a4)" d="M 356.535383 375.7875 
L 356.535383 -1 
" style="fill:none;stroke:#000000;stroke-dasharray:2,3.3;stroke-dashoffset:0;stroke-width:2;"/>
   </g>
   <g id="line2d_17">
    <path clip-path="url(#p7c26a0e7a4)" d="M 47.6525 326.852486 
L 83.400248 326.547311 
L 108.535383 326.118507 
L 127.526374 325.581779 
L 143.166014 324.924393 
L 156.571419 324.138876 
L 167.74259 323.273007 
L 177.796644 322.281651 
L 186.733581 321.190188 
L 195.111959 319.948009 
L 202.931779 318.560148 
L 210.193041 317.038806 
L 216.895743 315.40383 
L 223.039887 313.682705 
L 229.184032 311.720949 
L 234.769617 309.703833 
L 240.355203 307.439384 
L 245.38223 305.168824 
L 250.409257 302.657685 
L 255.436284 299.885684 
L 259.904752 297.18591 
L 264.373221 294.248908 
L 268.841689 291.060061 
L 273.310158 287.605102 
L 277.778626 283.870404 
L 282.247095 279.843319 
L 286.715563 275.512557 
L 291.184032 270.868592 
L 295.6525 265.904107 
L 300.120968 260.614444 
L 304.589437 254.998063 
L 309.616464 248.291758 
L 314.643491 241.183477 
L 319.670518 233.689003 
L 325.256104 224.937215 
L 330.841689 215.779857 
L 337.544392 204.331985 
L 345.364212 190.486982 
L 357.093941 169.175536 
L 370.499347 144.915203 
L 378.319167 131.245155 
L 384.463311 120.919831 
L 390.048896 111.925507 
L 395.634482 103.355843 
L 400.661509 96.037678 
L 405.688536 89.113901 
L 410.715563 82.597032 
L 415.184032 77.15074 
L 419.6525 72.030782 
L 424.120968 67.233936 
L 428.589437 62.754103 
L 433.057905 58.582761 
L 437.526374 54.709412 
L 441.994842 51.122008 
L 446.463311 47.807349 
L 450.931779 44.751434 
L 455.400248 41.93978 
L 460.427275 39.05034 
L 465.454302 36.430564 
L 470.481329 34.059934 
L 475.508356 31.918557 
L 481.093941 29.784956 
L 486.679527 27.886089 
L 492.823671 26.040863 
L 498.967815 24.423214 
L 505.670518 22.887606 
L 512.931779 21.459661 
L 520.751599 20.15779 
L 529.129977 18.993211 
L 538.066914 17.970427 
L 548.120968 17.041852 
L 559.29214 16.231131 
L 572.138986 15.522226 
L 587.220068 14.917738 
L 605.6525 14.414649 
L 605.6525 14.414649 
" style="fill:none;stroke:#008000;stroke-linecap:square;stroke-width:2;"/>
   </g>
   <g id="line2d_18">
    <path clip-path="url(#p7c26a0e7a4)" d="M 47.6525 13.707514 
L 83.400248 14.012689 
L 108.535383 14.441493 
L 127.526374 14.978221 
L 143.166014 15.635607 
L 156.571419 16.421124 
L 167.74259 17.286993 
L 177.796644 18.278349 
L 186.733581 19.369812 
L 195.111959 20.611991 
L 202.931779 21.999852 
L 210.193041 23.521194 
L 216.895743 25.15617 
L 223.039887 26.877295 
L 229.184032 28.839051 
L 234.769617 30.856167 
L 240.355203 33.120616 
L 245.38223 35.391176 
L 250.409257 37.902315 
L 255.436284 40.674316 
L 259.904752 43.37409 
L 264.373221 46.311092 
L 268.841689 49.499939 
L 273.310158 52.954898 
L 277.778626 56.689596 
L 282.247095 60.716681 
L 286.715563 65.047443 
L 291.184032 69.691408 
L 295.6525 74.655893 
L 300.120968 79.945556 
L 304.589437 85.561937 
L 309.616464 92.268242 
L 314.643491 99.376523 
L 319.670518 106.870997 
L 325.256104 115.622785 
L 330.841689 124.780143 
L 337.544392 136.228015 
L 345.364212 150.073018 
L 357.093941 171.384464 
L 370.499347 195.644797 
L 378.319167 209.314845 
L 384.463311 219.640169 
L 390.048896 228.634493 
L 395.634482 237.204157 
L 400.661509 244.522322 
L 405.688536 251.446099 
L 410.715563 257.962968 
L 415.184032 263.40926 
L 419.6525 268.529218 
L 424.120968 273.326064 
L 428.589437 277.805897 
L 433.057905 281.977239 
L 437.526374 285.850588 
L 441.994842 289.437992 
L 446.463311 292.752651 
L 450.931779 295.808566 
L 455.400248 298.62022 
L 460.427275 301.50966 
L 465.454302 304.129436 
L 470.481329 306.500066 
L 475.508356 308.641443 
L 481.093941 310.775044 
L 486.679527 312.673911 
L 492.823671 314.519137 
L 498.967815 316.136786 
L 505.670518 317.672394 
L 512.931779 319.100339 
L 520.751599 320.40221 
L 529.129977 321.566789 
L 538.066914 322.589573 
L 548.120968 323.518148 
L 559.29214 324.328869 
L 572.138986 325.037774 
L 587.220068 325.642262 
L 605.6525 326.145351 
L 605.6525 326.145351 
" style="fill:none;stroke:#0000ff;stroke-dasharray:7.4,3.2;stroke-dashoffset:0;stroke-width:2;"/>
   </g>
   <g id="patch_5">
    <path d="M 47.6525 333.36 
L 47.6525 7.2 
" style="fill:none;stroke:#000000;stroke-linecap:square;stroke-linejoin:miter;stroke-width:0.8;"/>
   </g>
   <g id="patch_6">
    <path d="M 605.6525 333.36 
L 605.6525 7.2 
" style="fill:none;stroke:#000000;stroke-linecap:square;stroke-linejoin:miter;stroke-width:0.8;"/>
   </g>
   <g id="patch_7">
    <path d="M 47.6525 333.36 
L 605.6525 333.36 
" style="fill:none;stroke:#000000;stroke-linecap:square;stroke-linejoin:miter;stroke-width:0.8;"/>
   </g>
   <g id="patch_8">
    <path d="M 47.6525 7.2 
L 605.6525 7.2 
" style="fill:none;stroke:#000000;stroke-linecap:square;stroke-linejoin:miter;stroke-width:0.8;"/>
   </g>
   <g id="text_16">
    <!-- Decision  boundary -->
    <g transform="translate(292.650695 280.045385)scale(0.14 -0.14)">
     <defs>
      <path d="M 19.671875 64.796875 
L 19.671875 8.109375 
L 31.59375 8.109375 
Q 46.6875 8.109375 53.6875 14.9375 
Q 60.6875 21.78125 60.6875 36.53125 
Q 60.6875 51.171875 53.6875 57.984375 
Q 46.6875 64.796875 31.59375 64.796875 
z
M 9.8125 72.90625 
L 30.078125 72.90625 
Q 51.265625 72.90625 61.171875 64.09375 
Q 71.09375 55.28125 71.09375 36.53125 
Q 71.09375 17.671875 61.125 8.828125 
Q 51.171875 0 30.078125 0 
L 9.8125 0 
z
" id="DejaVuSans-68"/>
      <path d="M 44.28125 53.078125 
L 44.28125 44.578125 
Q 40.484375 46.53125 36.375 47.5 
Q 32.28125 48.484375 27.875 48.484375 
Q 21.1875 48.484375 17.84375 46.4375 
Q 14.5 44.390625 14.5 40.28125 
Q 14.5 37.15625 16.890625 35.375 
Q 19.28125 33.59375 26.515625 31.984375 
L 29.59375 31.296875 
Q 39.15625 29.25 43.1875 25.515625 
Q 47.21875 21.78125 47.21875 15.09375 
Q 47.21875 7.46875 41.1875 3.015625 
Q 35.15625 -1.421875 24.609375 -1.421875 
Q 20.21875 -1.421875 15.453125 -0.5625 
Q 10.6875 0.296875 5.421875 2 
L 5.421875 11.28125 
Q 10.40625 8.6875 15.234375 7.390625 
Q 20.0625 6.109375 24.8125 6.109375 
Q 31.15625 6.109375 34.5625 8.28125 
Q 37.984375 10.453125 37.984375 14.40625 
Q 37.984375 18.0625 35.515625 20.015625 
Q 33.0625 21.96875 24.703125 23.78125 
L 21.578125 24.515625 
Q 13.234375 26.265625 9.515625 29.90625 
Q 5.8125 33.546875 5.8125 39.890625 
Q 5.8125 47.609375 11.28125 51.796875 
Q 16.75 56 26.8125 56 
Q 31.78125 56 36.171875 55.265625 
Q 40.578125 54.546875 44.28125 53.078125 
z
" id="DejaVuSans-115"/>
      <path d="M 54.890625 33.015625 
L 54.890625 0 
L 45.90625 0 
L 45.90625 32.71875 
Q 45.90625 40.484375 42.875 44.328125 
Q 39.84375 48.1875 33.796875 48.1875 
Q 26.515625 48.1875 22.3125 43.546875 
Q 18.109375 38.921875 18.109375 30.90625 
L 18.109375 0 
L 9.078125 0 
L 9.078125 54.6875 
L 18.109375 54.6875 
L 18.109375 46.1875 
Q 21.34375 51.125 25.703125 53.5625 
Q 30.078125 56 35.796875 56 
Q 45.21875 56 50.046875 50.171875 
Q 54.890625 44.34375 54.890625 33.015625 
z
" id="DejaVuSans-110"/>
      <path d="M 8.5 21.578125 
L 8.5 54.6875 
L 17.484375 54.6875 
L 17.484375 21.921875 
Q 17.484375 14.15625 20.5 10.265625 
Q 23.53125 6.390625 29.59375 6.390625 
Q 36.859375 6.390625 41.078125 11.03125 
Q 45.3125 15.671875 45.3125 23.6875 
L 45.3125 54.6875 
L 54.296875 54.6875 
L 54.296875 0 
L 45.3125 0 
L 45.3125 8.40625 
Q 42.046875 3.421875 37.71875 1 
Q 33.40625 -1.421875 27.6875 -1.421875 
Q 18.265625 -1.421875 13.375 4.4375 
Q 8.5 10.296875 8.5 21.578125 
z
M 31.109375 56 
z
" id="DejaVuSans-117"/>
     </defs>
     <use xlink:href="#DejaVuSans-68"/>
     <use x="77.001953" xlink:href="#DejaVuSans-101"/>
     <use x="138.525391" xlink:href="#DejaVuSans-99"/>
     <use x="193.505859" xlink:href="#DejaVuSans-105"/>
     <use x="221.289062" xlink:href="#DejaVuSans-115"/>
     <use x="273.388672" xlink:href="#DejaVuSans-105"/>
     <use x="301.171875" xlink:href="#DejaVuSans-111"/>
     <use x="362.353516" xlink:href="#DejaVuSans-110"/>
     <use x="425.732422" xlink:href="#DejaVuSans-32"/>
     <use x="457.519531" xlink:href="#DejaVuSans-32"/>
     <use x="489.306641" xlink:href="#DejaVuSans-98"/>
     <use x="552.783203" xlink:href="#DejaVuSans-111"/>
     <use x="613.964844" xlink:href="#DejaVuSans-117"/>
     <use x="677.34375" xlink:href="#DejaVuSans-110"/>
     <use x="740.722656" xlink:href="#DejaVuSans-100"/>
     <use x="804.199219" xlink:href="#DejaVuSans-97"/>
     <use x="865.478516" xlink:href="#DejaVuSans-114"/>
     <use x="906.591797" xlink:href="#DejaVuSans-121"/>
    </g>
   </g>
   <g id="legend_1">
    <g id="patch_9">
     <path d="M 57.4525 192.929375 
L 216.249688 192.929375 
Q 219.049688 192.929375 219.049688 190.129375 
L 219.049688 150.430625 
Q 219.049688 147.630625 216.249688 147.630625 
L 57.4525 147.630625 
Q 54.6525 147.630625 54.6525 150.430625 
L 54.6525 190.129375 
Q 54.6525 192.929375 57.4525 192.929375 
z
" style="fill:#ffffff;opacity:0.8;stroke:#cccccc;stroke-linejoin:miter;"/>
    </g>
    <g id="line2d_19">
     <path d="M 60.2525 158.968437 
L 88.2525 158.968437 
" style="fill:none;stroke:#008000;stroke-linecap:square;stroke-width:2;"/>
    </g>
    <g id="line2d_20"/>
    <g id="text_17">
     <!-- Iris virginica -->
     <g transform="translate(99.4525 163.868437)scale(0.14 -0.14)">
      <defs>
       <path d="M 9.8125 72.90625 
L 19.671875 72.90625 
L 19.671875 0 
L 9.8125 0 
z
" id="DejaVuSans-73"/>
       <path d="M 2.984375 54.6875 
L 12.5 54.6875 
L 29.59375 8.796875 
L 46.6875 54.6875 
L 56.203125 54.6875 
L 35.6875 0 
L 23.484375 0 
z
" id="DejaVuSans-118"/>
       <path d="M 45.40625 27.984375 
Q 45.40625 37.75 41.375 43.109375 
Q 37.359375 48.484375 30.078125 48.484375 
Q 22.859375 48.484375 18.828125 43.109375 
Q 14.796875 37.75 14.796875 27.984375 
Q 14.796875 18.265625 18.828125 12.890625 
Q 22.859375 7.515625 30.078125 7.515625 
Q 37.359375 7.515625 41.375 12.890625 
Q 45.40625 18.265625 45.40625 27.984375 
z
M 54.390625 6.78125 
Q 54.390625 -7.171875 48.1875 -13.984375 
Q 42 -20.796875 29.203125 -20.796875 
Q 24.46875 -20.796875 20.265625 -20.09375 
Q 16.0625 -19.390625 12.109375 -17.921875 
L 12.109375 -9.1875 
Q 16.0625 -11.328125 19.921875 -12.34375 
Q 23.78125 -13.375 27.78125 -13.375 
Q 36.625 -13.375 41.015625 -8.765625 
Q 45.40625 -4.15625 45.40625 5.171875 
L 45.40625 9.625 
Q 42.625 4.78125 38.28125 2.390625 
Q 33.9375 0 27.875 0 
Q 17.828125 0 11.671875 7.65625 
Q 5.515625 15.328125 5.515625 27.984375 
Q 5.515625 40.671875 11.671875 48.328125 
Q 17.828125 56 27.875 56 
Q 33.9375 56 38.28125 53.609375 
Q 42.625 51.21875 45.40625 46.390625 
L 45.40625 54.6875 
L 54.390625 54.6875 
z
" id="DejaVuSans-103"/>
      </defs>
      <use xlink:href="#DejaVuSans-73"/>
      <use x="29.492188" xlink:href="#DejaVuSans-114"/>
      <use x="70.605469" xlink:href="#DejaVuSans-105"/>
      <use x="98.388672" xlink:href="#DejaVuSans-115"/>
      <use x="150.488281" xlink:href="#DejaVuSans-32"/>
      <use x="182.275391" xlink:href="#DejaVuSans-118"/>
      <use x="241.455078" xlink:href="#DejaVuSans-105"/>
      <use x="269.238281" xlink:href="#DejaVuSans-114"/>
      <use x="308.601562" xlink:href="#DejaVuSans-103"/>
      <use x="372.078125" xlink:href="#DejaVuSans-105"/>
      <use x="399.861328" xlink:href="#DejaVuSans-110"/>
      <use x="463.240234" xlink:href="#DejaVuSans-105"/>
      <use x="491.023438" xlink:href="#DejaVuSans-99"/>
      <use x="546.003906" xlink:href="#DejaVuSans-97"/>
     </g>
    </g>
    <g id="line2d_21">
     <path d="M 60.2525 179.517812 
L 88.2525 179.517812 
" style="fill:none;stroke:#0000ff;stroke-dasharray:7.4,3.2;stroke-dashoffset:0;stroke-width:2;"/>
    </g>
    <g id="line2d_22"/>
    <g id="text_18">
     <!-- Not Iris virginica -->
     <g transform="translate(99.4525 184.417812)scale(0.14 -0.14)">
      <defs>
       <path d="M 9.8125 72.90625 
L 23.09375 72.90625 
L 55.421875 11.921875 
L 55.421875 72.90625 
L 64.984375 72.90625 
L 64.984375 0 
L 51.703125 0 
L 19.390625 60.984375 
L 19.390625 0 
L 9.8125 0 
z
" id="DejaVuSans-78"/>
      </defs>
      <use xlink:href="#DejaVuSans-78"/>
      <use x="74.804688" xlink:href="#DejaVuSans-111"/>
      <use x="135.986328" xlink:href="#DejaVuSans-116"/>
      <use x="175.195312" xlink:href="#DejaVuSans-32"/>
      <use x="206.982422" xlink:href="#DejaVuSans-73"/>
      <use x="236.474609" xlink:href="#DejaVuSans-114"/>
      <use x="277.587891" xlink:href="#DejaVuSans-105"/>
      <use x="305.371094" xlink:href="#DejaVuSans-115"/>
      <use x="357.470703" xlink:href="#DejaVuSans-32"/>
      <use x="389.257812" xlink:href="#DejaVuSans-118"/>
      <use x="448.4375" xlink:href="#DejaVuSans-105"/>
      <use x="476.220703" xlink:href="#DejaVuSans-114"/>
      <use x="515.583984" xlink:href="#DejaVuSans-103"/>
      <use x="579.060547" xlink:href="#DejaVuSans-105"/>
      <use x="606.84375" xlink:href="#DejaVuSans-110"/>
      <use x="670.222656" xlink:href="#DejaVuSans-105"/>
      <use x="698.005859" xlink:href="#DejaVuSans-99"/>
      <use x="752.986328" xlink:href="#DejaVuSans-97"/>
     </g>
    </g>
   </g>
  </g>
 </g>
 <defs>
  <clipPath id="p7c26a0e7a4">
   <rect height="326.16" width="558" x="47.6525" y="7.2"/>
  </clipPath>
 </defs>
</svg>
