<?xml version="1.0" encoding="utf-8" standalone="no"?>
<!DOCTYPE svg PUBLIC "-//W3C//DTD SVG 1.1//EN"
  "http://www.w3.org/Graphics/SVG/1.1/DTD/svg11.dtd">
<!-- Created with matplotlib (https://matplotlib.org/) -->
<svg height="248.518125pt" version="1.1" viewBox="0 0 362.5625 248.518125" width="362.5625pt" xmlns="http://www.w3.org/2000/svg" xmlns:xlink="http://www.w3.org/1999/xlink">
 <metadata>
  <rdf:RDF xmlns:cc="http://creativecommons.org/ns#" xmlns:dc="http://purl.org/dc/elements/1.1/" xmlns:rdf="http://www.w3.org/1999/02/22-rdf-syntax-ns#">
   <cc:Work>
    <dc:type rdf:resource="http://purl.org/dc/dcmitype/StillImage"/>
    <dc:date>2020-10-22T19:03:06.446134</dc:date>
    <dc:format>image/svg+xml</dc:format>
    <dc:creator>
     <cc:Agent>
      <dc:title>Matplotlib v3.3.2, https://matplotlib.org/</dc:title>
     </cc:Agent>
    </dc:creator>
   </cc:Work>
  </rdf:RDF>
 </metadata>
 <defs>
  <style type="text/css">*{stroke-linecap:butt;stroke-linejoin:round;}</style>
 </defs>
 <g id="figure_1">
  <g id="patch_1">
   <path d="M 0 248.518125 
L 362.5625 248.518125 
L 362.5625 0 
L 0 0 
z
" style="fill:#ffffff;"/>
  </g>
  <g id="axes_1">
   <g id="patch_2">
    <path d="M 20.5625 224.64 
L 355.3625 224.64 
L 355.3625 7.2 
L 20.5625 7.2 
z
" style="fill:#e5e5e5;"/>
   </g>
   <g id="matplotlib.axis_1">
    <g id="xtick_1">
     <g id="line2d_1">
      <path clip-path="url(#p45376c1de8)" d="M 35.780682 224.64 
L 35.780682 7.2 
" style="fill:none;stroke:#ffffff;stroke-linecap:square;stroke-width:0.8;"/>
     </g>
     <g id="line2d_2">
      <defs>
       <path d="M 0 0 
L 0 3.5 
" id="m16d969eb3a" style="stroke:#555555;stroke-width:0.8;"/>
      </defs>
      <g>
       <use style="fill:#555555;stroke:#555555;stroke-width:0.8;" x="35.780682" xlink:href="#m16d969eb3a" y="224.64"/>
      </g>
     </g>
     <g id="text_1">
      <!-- −3 -->
      <g style="fill:#555555;" transform="translate(28.409588 239.238437)scale(0.1 -0.1)">
       <defs>
        <path d="M 10.59375 35.5 
L 73.1875 35.5 
L 73.1875 27.203125 
L 10.59375 27.203125 
z
" id="DejaVuSans-8722"/>
        <path d="M 40.578125 39.3125 
Q 47.65625 37.796875 51.625 33 
Q 55.609375 28.21875 55.609375 21.1875 
Q 55.609375 10.40625 48.1875 4.484375 
Q 40.765625 -1.421875 27.09375 -1.421875 
Q 22.515625 -1.421875 17.65625 -0.515625 
Q 12.796875 0.390625 7.625 2.203125 
L 7.625 11.71875 
Q 11.71875 9.328125 16.59375 8.109375 
Q 21.484375 6.890625 26.8125 6.890625 
Q 36.078125 6.890625 40.9375 10.546875 
Q 45.796875 14.203125 45.796875 21.1875 
Q 45.796875 27.640625 41.28125 31.265625 
Q 36.765625 34.90625 28.71875 34.90625 
L 20.21875 34.90625 
L 20.21875 43.015625 
L 29.109375 43.015625 
Q 36.375 43.015625 40.234375 45.921875 
Q 44.09375 48.828125 44.09375 54.296875 
Q 44.09375 59.90625 40.109375 62.90625 
Q 36.140625 65.921875 28.71875 65.921875 
Q 24.65625 65.921875 20.015625 65.03125 
Q 15.375 64.15625 9.8125 62.3125 
L 9.8125 71.09375 
Q 15.4375 72.65625 20.34375 73.4375 
Q 25.25 74.21875 29.59375 74.21875 
Q 40.828125 74.21875 47.359375 69.109375 
Q 53.90625 64.015625 53.90625 55.328125 
Q 53.90625 49.265625 50.4375 45.09375 
Q 46.96875 40.921875 40.578125 39.3125 
z
" id="DejaVuSans-51"/>
       </defs>
       <use xlink:href="#DejaVuSans-8722"/>
       <use x="83.789062" xlink:href="#DejaVuSans-51"/>
      </g>
     </g>
    </g>
    <g id="xtick_2">
     <g id="line2d_3">
      <path clip-path="url(#p45376c1de8)" d="M 86.507955 224.64 
L 86.507955 7.2 
" style="fill:none;stroke:#ffffff;stroke-linecap:square;stroke-width:0.8;"/>
     </g>
     <g id="line2d_4">
      <g>
       <use style="fill:#555555;stroke:#555555;stroke-width:0.8;" x="86.507955" xlink:href="#m16d969eb3a" y="224.64"/>
      </g>
     </g>
     <g id="text_2">
      <!-- −2 -->
      <g style="fill:#555555;" transform="translate(79.136861 239.238437)scale(0.1 -0.1)">
       <defs>
        <path d="M 19.1875 8.296875 
L 53.609375 8.296875 
L 53.609375 0 
L 7.328125 0 
L 7.328125 8.296875 
Q 12.9375 14.109375 22.625 23.890625 
Q 32.328125 33.6875 34.8125 36.53125 
Q 39.546875 41.84375 41.421875 45.53125 
Q 43.3125 49.21875 43.3125 52.78125 
Q 43.3125 58.59375 39.234375 62.25 
Q 35.15625 65.921875 28.609375 65.921875 
Q 23.96875 65.921875 18.8125 64.3125 
Q 13.671875 62.703125 7.8125 59.421875 
L 7.8125 69.390625 
Q 13.765625 71.78125 18.9375 73 
Q 24.125 74.21875 28.421875 74.21875 
Q 39.75 74.21875 46.484375 68.546875 
Q 53.21875 62.890625 53.21875 53.421875 
Q 53.21875 48.921875 51.53125 44.890625 
Q 49.859375 40.875 45.40625 35.40625 
Q 44.1875 33.984375 37.640625 27.21875 
Q 31.109375 20.453125 19.1875 8.296875 
z
" id="DejaVuSans-50"/>
       </defs>
       <use xlink:href="#DejaVuSans-8722"/>
       <use x="83.789062" xlink:href="#DejaVuSans-50"/>
      </g>
     </g>
    </g>
    <g id="xtick_3">
     <g id="line2d_5">
      <path clip-path="url(#p45376c1de8)" d="M 137.235227 224.64 
L 137.235227 7.2 
" style="fill:none;stroke:#ffffff;stroke-linecap:square;stroke-width:0.8;"/>
     </g>
     <g id="line2d_6">
      <g>
       <use style="fill:#555555;stroke:#555555;stroke-width:0.8;" x="137.235227" xlink:href="#m16d969eb3a" y="224.64"/>
      </g>
     </g>
     <g id="text_3">
      <!-- −1 -->
      <g style="fill:#555555;" transform="translate(129.864134 239.238437)scale(0.1 -0.1)">
       <defs>
        <path d="M 12.40625 8.296875 
L 28.515625 8.296875 
L 28.515625 63.921875 
L 10.984375 60.40625 
L 10.984375 69.390625 
L 28.421875 72.90625 
L 38.28125 72.90625 
L 38.28125 8.296875 
L 54.390625 8.296875 
L 54.390625 0 
L 12.40625 0 
z
" id="DejaVuSans-49"/>
       </defs>
       <use xlink:href="#DejaVuSans-8722"/>
       <use x="83.789062" xlink:href="#DejaVuSans-49"/>
      </g>
     </g>
    </g>
    <g id="xtick_4">
     <g id="line2d_7">
      <path clip-path="url(#p45376c1de8)" d="M 187.9625 224.64 
L 187.9625 7.2 
" style="fill:none;stroke:#ffffff;stroke-linecap:square;stroke-width:0.8;"/>
     </g>
     <g id="line2d_8">
      <g>
       <use style="fill:#555555;stroke:#555555;stroke-width:0.8;" x="187.9625" xlink:href="#m16d969eb3a" y="224.64"/>
      </g>
     </g>
     <g id="text_4">
      <!-- 0 -->
      <g style="fill:#555555;" transform="translate(184.78125 239.238437)scale(0.1 -0.1)">
       <defs>
        <path d="M 31.78125 66.40625 
Q 24.171875 66.40625 20.328125 58.90625 
Q 16.5 51.421875 16.5 36.375 
Q 16.5 21.390625 20.328125 13.890625 
Q 24.171875 6.390625 31.78125 6.390625 
Q 39.453125 6.390625 43.28125 13.890625 
Q 47.125 21.390625 47.125 36.375 
Q 47.125 51.421875 43.28125 58.90625 
Q 39.453125 66.40625 31.78125 66.40625 
z
M 31.78125 74.21875 
Q 44.046875 74.21875 50.515625 64.515625 
Q 56.984375 54.828125 56.984375 36.375 
Q 56.984375 17.96875 50.515625 8.265625 
Q 44.046875 -1.421875 31.78125 -1.421875 
Q 19.53125 -1.421875 13.0625 8.265625 
Q 6.59375 17.96875 6.59375 36.375 
Q 6.59375 54.828125 13.0625 64.515625 
Q 19.53125 74.21875 31.78125 74.21875 
z
" id="DejaVuSans-48"/>
       </defs>
       <use xlink:href="#DejaVuSans-48"/>
      </g>
     </g>
    </g>
    <g id="xtick_5">
     <g id="line2d_9">
      <path clip-path="url(#p45376c1de8)" d="M 238.689773 224.64 
L 238.689773 7.2 
" style="fill:none;stroke:#ffffff;stroke-linecap:square;stroke-width:0.8;"/>
     </g>
     <g id="line2d_10">
      <g>
       <use style="fill:#555555;stroke:#555555;stroke-width:0.8;" x="238.689773" xlink:href="#m16d969eb3a" y="224.64"/>
      </g>
     </g>
     <g id="text_5">
      <!-- 1 -->
      <g style="fill:#555555;" transform="translate(235.508523 239.238437)scale(0.1 -0.1)">
       <use xlink:href="#DejaVuSans-49"/>
      </g>
     </g>
    </g>
    <g id="xtick_6">
     <g id="line2d_11">
      <path clip-path="url(#p45376c1de8)" d="M 289.417045 224.64 
L 289.417045 7.2 
" style="fill:none;stroke:#ffffff;stroke-linecap:square;stroke-width:0.8;"/>
     </g>
     <g id="line2d_12">
      <g>
       <use style="fill:#555555;stroke:#555555;stroke-width:0.8;" x="289.417045" xlink:href="#m16d969eb3a" y="224.64"/>
      </g>
     </g>
     <g id="text_6">
      <!-- 2 -->
      <g style="fill:#555555;" transform="translate(286.235795 239.238437)scale(0.1 -0.1)">
       <use xlink:href="#DejaVuSans-50"/>
      </g>
     </g>
    </g>
    <g id="xtick_7">
     <g id="line2d_13">
      <path clip-path="url(#p45376c1de8)" d="M 340.144318 224.64 
L 340.144318 7.2 
" style="fill:none;stroke:#ffffff;stroke-linecap:square;stroke-width:0.8;"/>
     </g>
     <g id="line2d_14">
      <g>
       <use style="fill:#555555;stroke:#555555;stroke-width:0.8;" x="340.144318" xlink:href="#m16d969eb3a" y="224.64"/>
      </g>
     </g>
     <g id="text_7">
      <!-- 3 -->
      <g style="fill:#555555;" transform="translate(336.963068 239.238437)scale(0.1 -0.1)">
       <use xlink:href="#DejaVuSans-51"/>
      </g>
     </g>
    </g>
   </g>
   <g id="matplotlib.axis_2">
    <g id="ytick_1">
     <g id="line2d_15">
      <path clip-path="url(#p45376c1de8)" d="M 20.5625 192.51345 
L 355.3625 192.51345 
" style="fill:none;stroke:#ffffff;stroke-linecap:square;stroke-width:0.8;"/>
     </g>
     <g id="line2d_16">
      <defs>
       <path d="M 0 0 
L -3.5 0 
" id="mfbe645f22c" style="stroke:#555555;stroke-width:0.8;"/>
      </defs>
      <g>
       <use style="fill:#555555;stroke:#555555;stroke-width:0.8;" x="20.5625" xlink:href="#mfbe645f22c" y="192.51345"/>
      </g>
     </g>
     <g id="text_8">
      <!-- 0 -->
      <g style="fill:#555555;" transform="translate(7.2 196.312669)scale(0.1 -0.1)">
       <use xlink:href="#DejaVuSans-48"/>
      </g>
     </g>
    </g>
    <g id="ytick_2">
     <g id="line2d_17">
      <path clip-path="url(#p45376c1de8)" d="M 20.5625 155.335934 
L 355.3625 155.335934 
" style="fill:none;stroke:#ffffff;stroke-linecap:square;stroke-width:0.8;"/>
     </g>
     <g id="line2d_18">
      <g>
       <use style="fill:#555555;stroke:#555555;stroke-width:0.8;" x="20.5625" xlink:href="#mfbe645f22c" y="155.335934"/>
      </g>
     </g>
     <g id="text_9">
      <!-- 2 -->
      <g style="fill:#555555;" transform="translate(7.2 159.135153)scale(0.1 -0.1)">
       <use xlink:href="#DejaVuSans-50"/>
      </g>
     </g>
    </g>
    <g id="ytick_3">
     <g id="line2d_19">
      <path clip-path="url(#p45376c1de8)" d="M 20.5625 118.158418 
L 355.3625 118.158418 
" style="fill:none;stroke:#ffffff;stroke-linecap:square;stroke-width:0.8;"/>
     </g>
     <g id="line2d_20">
      <g>
       <use style="fill:#555555;stroke:#555555;stroke-width:0.8;" x="20.5625" xlink:href="#mfbe645f22c" y="118.158418"/>
      </g>
     </g>
     <g id="text_10">
      <!-- 4 -->
      <g style="fill:#555555;" transform="translate(7.2 121.957637)scale(0.1 -0.1)">
       <defs>
        <path d="M 37.796875 64.3125 
L 12.890625 25.390625 
L 37.796875 25.390625 
z
M 35.203125 72.90625 
L 47.609375 72.90625 
L 47.609375 25.390625 
L 58.015625 25.390625 
L 58.015625 17.1875 
L 47.609375 17.1875 
L 47.609375 0 
L 37.796875 0 
L 37.796875 17.1875 
L 4.890625 17.1875 
L 4.890625 26.703125 
z
" id="DejaVuSans-52"/>
       </defs>
       <use xlink:href="#DejaVuSans-52"/>
      </g>
     </g>
    </g>
    <g id="ytick_4">
     <g id="line2d_21">
      <path clip-path="url(#p45376c1de8)" d="M 20.5625 80.980902 
L 355.3625 80.980902 
" style="fill:none;stroke:#ffffff;stroke-linecap:square;stroke-width:0.8;"/>
     </g>
     <g id="line2d_22">
      <g>
       <use style="fill:#555555;stroke:#555555;stroke-width:0.8;" x="20.5625" xlink:href="#mfbe645f22c" y="80.980902"/>
      </g>
     </g>
     <g id="text_11">
      <!-- 6 -->
      <g style="fill:#555555;" transform="translate(7.2 84.780121)scale(0.1 -0.1)">
       <defs>
        <path d="M 33.015625 40.375 
Q 26.375 40.375 22.484375 35.828125 
Q 18.609375 31.296875 18.609375 23.390625 
Q 18.609375 15.53125 22.484375 10.953125 
Q 26.375 6.390625 33.015625 6.390625 
Q 39.65625 6.390625 43.53125 10.953125 
Q 47.40625 15.53125 47.40625 23.390625 
Q 47.40625 31.296875 43.53125 35.828125 
Q 39.65625 40.375 33.015625 40.375 
z
M 52.59375 71.296875 
L 52.59375 62.3125 
Q 48.875 64.0625 45.09375 64.984375 
Q 41.3125 65.921875 37.59375 65.921875 
Q 27.828125 65.921875 22.671875 59.328125 
Q 17.53125 52.734375 16.796875 39.40625 
Q 19.671875 43.65625 24.015625 45.921875 
Q 28.375 48.1875 33.59375 48.1875 
Q 44.578125 48.1875 50.953125 41.515625 
Q 57.328125 34.859375 57.328125 23.390625 
Q 57.328125 12.15625 50.6875 5.359375 
Q 44.046875 -1.421875 33.015625 -1.421875 
Q 20.359375 -1.421875 13.671875 8.265625 
Q 6.984375 17.96875 6.984375 36.375 
Q 6.984375 53.65625 15.1875 63.9375 
Q 23.390625 74.21875 37.203125 74.21875 
Q 40.921875 74.21875 44.703125 73.484375 
Q 48.484375 72.75 52.59375 71.296875 
z
" id="DejaVuSans-54"/>
       </defs>
       <use xlink:href="#DejaVuSans-54"/>
      </g>
     </g>
    </g>
    <g id="ytick_5">
     <g id="line2d_23">
      <path clip-path="url(#p45376c1de8)" d="M 20.5625 43.803386 
L 355.3625 43.803386 
" style="fill:none;stroke:#ffffff;stroke-linecap:square;stroke-width:0.8;"/>
     </g>
     <g id="line2d_24">
      <g>
       <use style="fill:#555555;stroke:#555555;stroke-width:0.8;" x="20.5625" xlink:href="#mfbe645f22c" y="43.803386"/>
      </g>
     </g>
     <g id="text_12">
      <!-- 8 -->
      <g style="fill:#555555;" transform="translate(7.2 47.602605)scale(0.1 -0.1)">
       <defs>
        <path d="M 31.78125 34.625 
Q 24.75 34.625 20.71875 30.859375 
Q 16.703125 27.09375 16.703125 20.515625 
Q 16.703125 13.921875 20.71875 10.15625 
Q 24.75 6.390625 31.78125 6.390625 
Q 38.8125 6.390625 42.859375 10.171875 
Q 46.921875 13.96875 46.921875 20.515625 
Q 46.921875 27.09375 42.890625 30.859375 
Q 38.875 34.625 31.78125 34.625 
z
M 21.921875 38.8125 
Q 15.578125 40.375 12.03125 44.71875 
Q 8.5 49.078125 8.5 55.328125 
Q 8.5 64.0625 14.71875 69.140625 
Q 20.953125 74.21875 31.78125 74.21875 
Q 42.671875 74.21875 48.875 69.140625 
Q 55.078125 64.0625 55.078125 55.328125 
Q 55.078125 49.078125 51.53125 44.71875 
Q 48 40.375 41.703125 38.8125 
Q 48.828125 37.15625 52.796875 32.3125 
Q 56.78125 27.484375 56.78125 20.515625 
Q 56.78125 9.90625 50.3125 4.234375 
Q 43.84375 -1.421875 31.78125 -1.421875 
Q 19.734375 -1.421875 13.25 4.234375 
Q 6.78125 9.90625 6.78125 20.515625 
Q 6.78125 27.484375 10.78125 32.3125 
Q 14.796875 37.15625 21.921875 38.8125 
z
M 18.3125 54.390625 
Q 18.3125 48.734375 21.84375 45.5625 
Q 25.390625 42.390625 31.78125 42.390625 
Q 38.140625 42.390625 41.71875 45.5625 
Q 45.3125 48.734375 45.3125 54.390625 
Q 45.3125 60.0625 41.71875 63.234375 
Q 38.140625 66.40625 31.78125 66.40625 
Q 25.390625 66.40625 21.84375 63.234375 
Q 18.3125 60.0625 18.3125 54.390625 
z
" id="DejaVuSans-56"/>
       </defs>
       <use xlink:href="#DejaVuSans-56"/>
      </g>
     </g>
    </g>
   </g>
   <g id="PathCollection_1">
    <defs>
     <path d="M 0 3 
C 0.795609 3 1.55874 2.683901 2.12132 2.12132 
C 2.683901 1.55874 3 0.795609 3 0 
C 3 -0.795609 2.683901 -1.55874 2.12132 -2.12132 
C 1.55874 -2.683901 0.795609 -3 0 -3 
C -0.795609 -3 -1.55874 -2.683901 -2.12132 -2.12132 
C -2.683901 -1.55874 -3 -0.795609 -3 0 
C -3 0.795609 -2.683901 1.55874 -2.12132 2.12132 
C -1.55874 2.683901 -0.795609 3 0 3 
z
" id="m575e1441f9" style="stroke:#e24a33;stroke-width:0.5;"/>
    </defs>
    <g clip-path="url(#p45376c1de8)">
     <use style="fill:#e24a33;stroke:#e24a33;stroke-width:0.5;" x="228.191345" xlink:href="#m575e1441f9" y="125.051087"/>
     <use style="fill:#e24a33;stroke:#e24a33;stroke-width:0.5;" x="67.061427" xlink:href="#m575e1441f9" y="139.012428"/>
     <use style="fill:#e24a33;stroke:#e24a33;stroke-width:0.5;" x="269.847684" xlink:href="#m575e1441f9" y="72.703469"/>
     <use style="fill:#e24a33;stroke:#e24a33;stroke-width:0.5;" x="230.214215" xlink:href="#m575e1441f9" y="157.152856"/>
     <use style="fill:#e24a33;stroke:#e24a33;stroke-width:0.5;" x="227.299419" xlink:href="#m575e1441f9" y="152.148327"/>
     <use style="fill:#e24a33;stroke:#e24a33;stroke-width:0.5;" x="260.116128" xlink:href="#m575e1441f9" y="119.483478"/>
     <use style="fill:#e24a33;stroke:#e24a33;stroke-width:0.5;" x="45.630896" xlink:href="#m575e1441f9" y="131.751982"/>
     <use style="fill:#e24a33;stroke:#e24a33;stroke-width:0.5;" x="139.97323" xlink:href="#m575e1441f9" y="140.113644"/>
     <use style="fill:#e24a33;stroke:#e24a33;stroke-width:0.5;" x="89.723589" xlink:href="#m575e1441f9" y="150.306515"/>
     <use style="fill:#e24a33;stroke:#e24a33;stroke-width:0.5;" x="273.120909" xlink:href="#m575e1441f9" y="104.932923"/>
     <use style="fill:#e24a33;stroke:#e24a33;stroke-width:0.5;" x="138.842301" xlink:href="#m575e1441f9" y="161.64243"/>
     <use style="fill:#e24a33;stroke:#e24a33;stroke-width:0.5;" x="161.066773" xlink:href="#m575e1441f9" y="141.072155"/>
     <use style="fill:#e24a33;stroke:#e24a33;stroke-width:0.5;" x="321.820362" xlink:href="#m575e1441f9" y="33.077895"/>
     <use style="fill:#e24a33;stroke:#e24a33;stroke-width:0.5;" x="185.395172" xlink:href="#m575e1441f9" y="152.617048"/>
     <use style="fill:#e24a33;stroke:#e24a33;stroke-width:0.5;" x="262.947257" xlink:href="#m575e1441f9" y="88.553717"/>
     <use style="fill:#e24a33;stroke:#e24a33;stroke-width:0.5;" x="76.697355" xlink:href="#m575e1441f9" y="152.463965"/>
     <use style="fill:#e24a33;stroke:#e24a33;stroke-width:0.5;" x="175.592347" xlink:href="#m575e1441f9" y="148.223458"/>
     <use style="fill:#e24a33;stroke:#e24a33;stroke-width:0.5;" x="249.580488" xlink:href="#m575e1441f9" y="119.930063"/>
     <use style="fill:#e24a33;stroke:#e24a33;stroke-width:0.5;" x="245.077083" xlink:href="#m575e1441f9" y="124.534023"/>
     <use style="fill:#e24a33;stroke:#e24a33;stroke-width:0.5;" x="253.841988" xlink:href="#m575e1441f9" y="130.57592"/>
     <use style="fill:#e24a33;stroke:#e24a33;stroke-width:0.5;" x="167.207781" xlink:href="#m575e1441f9" y="169.422677"/>
     <use style="fill:#e24a33;stroke:#e24a33;stroke-width:0.5;" x="96.418556" xlink:href="#m575e1441f9" y="185.181241"/>
     <use style="fill:#e24a33;stroke:#e24a33;stroke-width:0.5;" x="153.407343" xlink:href="#m575e1441f9" y="142.9028"/>
     <use style="fill:#e24a33;stroke:#e24a33;stroke-width:0.5;" x="118.189129" xlink:href="#m575e1441f9" y="175.073201"/>
     <use style="fill:#e24a33;stroke:#e24a33;stroke-width:0.5;" x="127.807284" xlink:href="#m575e1441f9" y="113.610295"/>
     <use style="fill:#e24a33;stroke:#e24a33;stroke-width:0.5;" x="35.967231" xlink:href="#m575e1441f9" y="123.218613"/>
     <use style="fill:#e24a33;stroke:#e24a33;stroke-width:0.5;" x="227.639542" xlink:href="#m575e1441f9" y="103.892985"/>
     <use style="fill:#e24a33;stroke:#e24a33;stroke-width:0.5;" x="300.190587" xlink:href="#m575e1441f9" y="29.625882"/>
     <use style="fill:#e24a33;stroke:#e24a33;stroke-width:0.5;" x="198.545469" xlink:href="#m575e1441f9" y="156.433304"/>
     <use style="fill:#e24a33;stroke:#e24a33;stroke-width:0.5;" x="266.923205" xlink:href="#m575e1441f9" y="66.254864"/>
     <use style="fill:#e24a33;stroke:#e24a33;stroke-width:0.5;" x="88.707773" xlink:href="#m575e1441f9" y="144.370383"/>
     <use style="fill:#e24a33;stroke:#e24a33;stroke-width:0.5;" x="247.932003" xlink:href="#m575e1441f9" y="110.811322"/>
     <use style="fill:#e24a33;stroke:#e24a33;stroke-width:0.5;" x="193.435407" xlink:href="#m575e1441f9" y="148.535587"/>
     <use style="fill:#e24a33;stroke:#e24a33;stroke-width:0.5;" x="158.27511" xlink:href="#m575e1441f9" y="159.244628"/>
     <use style="fill:#e24a33;stroke:#e24a33;stroke-width:0.5;" x="175.759112" xlink:href="#m575e1441f9" y="139.912838"/>
     <use style="fill:#e24a33;stroke:#e24a33;stroke-width:0.5;" x="42.087244" xlink:href="#m575e1441f9" y="159.838302"/>
     <use style="fill:#e24a33;stroke:#e24a33;stroke-width:0.5;" x="111.350462" xlink:href="#m575e1441f9" y="147.834043"/>
     <use style="fill:#e24a33;stroke:#e24a33;stroke-width:0.5;" x="284.725237" xlink:href="#m575e1441f9" y="80.381817"/>
     <use style="fill:#e24a33;stroke:#e24a33;stroke-width:0.5;" x="259.810948" xlink:href="#m575e1441f9" y="106.643491"/>
     <use style="fill:#e24a33;stroke:#e24a33;stroke-width:0.5;" x="245.042134" xlink:href="#m575e1441f9" y="143.668706"/>
     <use style="fill:#e24a33;stroke:#e24a33;stroke-width:0.5;" x="157.687224" xlink:href="#m575e1441f9" y="179.812355"/>
     <use style="fill:#e24a33;stroke:#e24a33;stroke-width:0.5;" x="246.086603" xlink:href="#m575e1441f9" y="136.894029"/>
     <use style="fill:#e24a33;stroke:#e24a33;stroke-width:0.5;" x="279.45279" xlink:href="#m575e1441f9" y="79.337877"/>
     <use style="fill:#e24a33;stroke:#e24a33;stroke-width:0.5;" x="262.367211" xlink:href="#m575e1441f9" y="105.373585"/>
     <use style="fill:#e24a33;stroke:#e24a33;stroke-width:0.5;" x="317.349555" xlink:href="#m575e1441f9" y="27.768132"/>
     <use style="fill:#e24a33;stroke:#e24a33;stroke-width:0.5;" x="82.989044" xlink:href="#m575e1441f9" y="148.373413"/>
     <use style="fill:#e24a33;stroke:#e24a33;stroke-width:0.5;" x="321.774076" xlink:href="#m575e1441f9" y="51.801627"/>
     <use style="fill:#e24a33;stroke:#e24a33;stroke-width:0.5;" x="182.920671" xlink:href="#m575e1441f9" y="176.165622"/>
     <use style="fill:#e24a33;stroke:#e24a33;stroke-width:0.5;" x="92.409253" xlink:href="#m575e1441f9" y="214.756364"/>
     <use style="fill:#e24a33;stroke:#e24a33;stroke-width:0.5;" x="41.034068" xlink:href="#m575e1441f9" y="127.189253"/>
     <use style="fill:#e24a33;stroke:#e24a33;stroke-width:0.5;" x="334.345454" xlink:href="#m575e1441f9" y="35.549306"/>
     <use style="fill:#e24a33;stroke:#e24a33;stroke-width:0.5;" x="75.937328" xlink:href="#m575e1441f9" y="111.373395"/>
     <use style="fill:#e24a33;stroke:#e24a33;stroke-width:0.5;" x="158.701761" xlink:href="#m575e1441f9" y="153.713147"/>
     <use style="fill:#e24a33;stroke:#e24a33;stroke-width:0.5;" x="75.027805" xlink:href="#m575e1441f9" y="172.496446"/>
     <use style="fill:#e24a33;stroke:#e24a33;stroke-width:0.5;" x="243.642768" xlink:href="#m575e1441f9" y="132.41594"/>
     <use style="fill:#e24a33;stroke:#e24a33;stroke-width:0.5;" x="292.418872" xlink:href="#m575e1441f9" y="88.841415"/>
     <use style="fill:#e24a33;stroke:#e24a33;stroke-width:0.5;" x="226.431088" xlink:href="#m575e1441f9" y="117.945305"/>
     <use style="fill:#e24a33;stroke:#e24a33;stroke-width:0.5;" x="266.537378" xlink:href="#m575e1441f9" y="90.040681"/>
     <use style="fill:#e24a33;stroke:#e24a33;stroke-width:0.5;" x="214.615636" xlink:href="#m575e1441f9" y="168.703564"/>
     <use style="fill:#e24a33;stroke:#e24a33;stroke-width:0.5;" x="193.77015" xlink:href="#m575e1441f9" y="105.119292"/>
     <use style="fill:#e24a33;stroke:#e24a33;stroke-width:0.5;" x="204.227029" xlink:href="#m575e1441f9" y="148.898725"/>
     <use style="fill:#e24a33;stroke:#e24a33;stroke-width:0.5;" x="184.562694" xlink:href="#m575e1441f9" y="128.401623"/>
     <use style="fill:#e24a33;stroke:#e24a33;stroke-width:0.5;" x="247.277999" xlink:href="#m575e1441f9" y="117.793998"/>
     <use style="fill:#e24a33;stroke:#e24a33;stroke-width:0.5;" x="269.952171" xlink:href="#m575e1441f9" y="91.181792"/>
     <use style="fill:#e24a33;stroke:#e24a33;stroke-width:0.5;" x="159.029543" xlink:href="#m575e1441f9" y="159.143616"/>
     <use style="fill:#e24a33;stroke:#e24a33;stroke-width:0.5;" x="218.996506" xlink:href="#m575e1441f9" y="129.289636"/>
     <use style="fill:#e24a33;stroke:#e24a33;stroke-width:0.5;" x="184.258077" xlink:href="#m575e1441f9" y="195.944492"/>
     <use style="fill:#e24a33;stroke:#e24a33;stroke-width:0.5;" x="218.563492" xlink:href="#m575e1441f9" y="126.620888"/>
     <use style="fill:#e24a33;stroke:#e24a33;stroke-width:0.5;" x="169.108511" xlink:href="#m575e1441f9" y="136.15032"/>
     <use style="fill:#e24a33;stroke:#e24a33;stroke-width:0.5;" x="196.605103" xlink:href="#m575e1441f9" y="168.451042"/>
     <use style="fill:#e24a33;stroke:#e24a33;stroke-width:0.5;" x="254.363351" xlink:href="#m575e1441f9" y="118.713991"/>
     <use style="fill:#e24a33;stroke:#e24a33;stroke-width:0.5;" x="224.938922" xlink:href="#m575e1441f9" y="136.919993"/>
     <use style="fill:#e24a33;stroke:#e24a33;stroke-width:0.5;" x="334.563715" xlink:href="#m575e1441f9" y="42.853281"/>
     <use style="fill:#e24a33;stroke:#e24a33;stroke-width:0.5;" x="300.019457" xlink:href="#m575e1441f9" y="48.182485"/>
     <use style="fill:#e24a33;stroke:#e24a33;stroke-width:0.5;" x="209.153399" xlink:href="#m575e1441f9" y="132.077112"/>
     <use style="fill:#e24a33;stroke:#e24a33;stroke-width:0.5;" x="41.564222" xlink:href="#m575e1441f9" y="156.923471"/>
     <use style="fill:#e24a33;stroke:#e24a33;stroke-width:0.5;" x="249.590285" xlink:href="#m575e1441f9" y="136.098901"/>
     <use style="fill:#e24a33;stroke:#e24a33;stroke-width:0.5;" x="209.625428" xlink:href="#m575e1441f9" y="167.521332"/>
     <use style="fill:#e24a33;stroke:#e24a33;stroke-width:0.5;" x="225.479636" xlink:href="#m575e1441f9" y="141.969261"/>
     <use style="fill:#e24a33;stroke:#e24a33;stroke-width:0.5;" x="254.470053" xlink:href="#m575e1441f9" y="88.543746"/>
     <use style="fill:#e24a33;stroke:#e24a33;stroke-width:0.5;" x="93.319449" xlink:href="#m575e1441f9" y="164.659845"/>
     <use style="fill:#e24a33;stroke:#e24a33;stroke-width:0.5;" x="338.548074" xlink:href="#m575e1441f9" y="32.762878"/>
     <use style="fill:#e24a33;stroke:#e24a33;stroke-width:0.5;" x="223.370612" xlink:href="#m575e1441f9" y="137.86961"/>
     <use style="fill:#e24a33;stroke:#e24a33;stroke-width:0.5;" x="210.13395" xlink:href="#m575e1441f9" y="127.686744"/>
     <use style="fill:#e24a33;stroke:#e24a33;stroke-width:0.5;" x="191.109772" xlink:href="#m575e1441f9" y="162.672838"/>
     <use style="fill:#e24a33;stroke:#e24a33;stroke-width:0.5;" x="80.4511" xlink:href="#m575e1441f9" y="146.143052"/>
     <use style="fill:#e24a33;stroke:#e24a33;stroke-width:0.5;" x="143.010211" xlink:href="#m575e1441f9" y="194.265106"/>
     <use style="fill:#e24a33;stroke:#e24a33;stroke-width:0.5;" x="168.796242" xlink:href="#m575e1441f9" y="165.563895"/>
     <use style="fill:#e24a33;stroke:#e24a33;stroke-width:0.5;" x="249.207031" xlink:href="#m575e1441f9" y="90.812722"/>
     <use style="fill:#e24a33;stroke:#e24a33;stroke-width:0.5;" x="167.732949" xlink:href="#m575e1441f9" y="135.385128"/>
     <use style="fill:#e24a33;stroke:#e24a33;stroke-width:0.5;" x="111.317405" xlink:href="#m575e1441f9" y="173.734357"/>
     <use style="fill:#e24a33;stroke:#e24a33;stroke-width:0.5;" x="43.129718" xlink:href="#m575e1441f9" y="128.745666"/>
     <use style="fill:#e24a33;stroke:#e24a33;stroke-width:0.5;" x="133.63228" xlink:href="#m575e1441f9" y="138.643821"/>
     <use style="fill:#e24a33;stroke:#e24a33;stroke-width:0.5;" x="275.522554" xlink:href="#m575e1441f9" y="78.171881"/>
     <use style="fill:#e24a33;stroke:#e24a33;stroke-width:0.5;" x="66.74524" xlink:href="#m575e1441f9" y="184.665928"/>
     <use style="fill:#e24a33;stroke:#e24a33;stroke-width:0.5;" x="115.547683" xlink:href="#m575e1441f9" y="159.221053"/>
     <use style="fill:#e24a33;stroke:#e24a33;stroke-width:0.5;" x="189.22402" xlink:href="#m575e1441f9" y="136.731468"/>
     <use style="fill:#e24a33;stroke:#e24a33;stroke-width:0.5;" x="242.791886" xlink:href="#m575e1441f9" y="163.530903"/>
     <use style="fill:#e24a33;stroke:#e24a33;stroke-width:0.5;" x="86.609438" xlink:href="#m575e1441f9" y="163.454719"/>
     <use style="fill:#e24a33;stroke:#e24a33;stroke-width:0.5;" x="260.180596" xlink:href="#m575e1441f9" y="110.669872"/>
    </g>
   </g>
   <g id="line2d_25">
    <path clip-path="url(#p45376c1de8)" d="M 35.780682 135.271923 
L 51.799821 144.002039 
L 67.818959 151.070983 
L 83.838098 156.478754 
L 99.857237 160.225353 
L 115.876376 162.31078 
L 131.895514 162.735033 
L 147.914653 161.498115 
L 163.933792 158.600023 
L 179.952931 154.04076 
L 195.972069 147.820324 
L 211.991208 139.938715 
L 228.010347 130.395934 
L 244.029486 119.19198 
L 260.048624 106.326854 
L 276.067763 91.800556 
L 292.086902 75.613085 
L 308.106041 57.764441 
L 324.125179 38.254625 
L 340.144318 17.083636 
" style="fill:none;stroke:#0000ff;stroke-linecap:square;stroke-width:1.5;"/>
   </g>
   <g id="patch_3">
    <path d="M 20.5625 224.64 
L 20.5625 7.2 
" style="fill:none;stroke:#ffffff;stroke-linecap:square;stroke-linejoin:miter;"/>
   </g>
   <g id="patch_4">
    <path d="M 355.3625 224.64 
L 355.3625 7.2 
" style="fill:none;stroke:#ffffff;stroke-linecap:square;stroke-linejoin:miter;"/>
   </g>
   <g id="patch_5">
    <path d="M 20.5625 224.64 
L 355.3625 224.64 
" style="fill:none;stroke:#ffffff;stroke-linecap:square;stroke-linejoin:miter;"/>
   </g>
   <g id="patch_6">
    <path d="M 20.5625 7.2 
L 355.3625 7.2 
" style="fill:none;stroke:#ffffff;stroke-linecap:square;stroke-linejoin:miter;"/>
   </g>
  </g>
 </g>
 <defs>
  <clipPath id="p45376c1de8">
   <rect height="217.44" width="334.8" x="20.5625" y="7.2"/>
  </clipPath>
 </defs>
</svg>
