<?xml version="1.0" encoding="utf-8" standalone="no"?>
<!DOCTYPE svg PUBLIC "-//W3C//DTD SVG 1.1//EN"
  "http://www.w3.org/Graphics/SVG/1.1/DTD/svg11.dtd">
<!-- Created with matplotlib (https://matplotlib.org/) -->
<svg height="266.0675pt" version="1.1" viewBox="0 0 627.166563 266.0675" width="627.166563pt" xmlns="http://www.w3.org/2000/svg" xmlns:xlink="http://www.w3.org/1999/xlink">
 <metadata>
  <rdf:RDF xmlns:cc="http://creativecommons.org/ns#" xmlns:dc="http://purl.org/dc/elements/1.1/" xmlns:rdf="http://www.w3.org/1999/02/22-rdf-syntax-ns#">
   <cc:Work>
    <dc:type rdf:resource="http://purl.org/dc/dcmitype/StillImage"/>
    <dc:date>2020-11-01T15:57:16.892242</dc:date>
    <dc:format>image/svg+xml</dc:format>
    <dc:creator>
     <cc:Agent>
      <dc:title>Matplotlib v3.3.2, https://matplotlib.org/</dc:title>
     </cc:Agent>
    </dc:creator>
   </cc:Work>
  </rdf:RDF>
 </metadata>
 <defs>
  <style type="text/css">*{stroke-linecap:butt;stroke-linejoin:round;}</style>
 </defs>
 <g id="figure_1">
  <g id="patch_1">
   <path d="M 0 266.0675 
L 627.166563 266.0675 
L 627.166563 0 
L 0 0 
z
" style="fill:none;"/>
  </g>
  <g id="axes_1">
   <g id="patch_2">
    <path d="M 54.015 224.64 
L 612.015 224.64 
L 612.015 7.2 
L 54.015 7.2 
z
" style="fill:#ffffff;"/>
   </g>
   <g id="matplotlib.axis_1">
    <g id="xtick_1">
     <g id="line2d_1">
      <defs>
       <path d="M 0 0 
L 0 3.5 
" id="m33c4a2c845" style="stroke:#000000;stroke-width:0.8;"/>
      </defs>
      <g>
       <use style="stroke:#000000;stroke-width:0.8;" x="67.624756" xlink:href="#m33c4a2c845" y="224.64"/>
      </g>
     </g>
     <g id="text_1">
      <!-- 3.0 -->
      <g transform="translate(59.673194 239.238438)scale(0.1 -0.1)">
       <defs>
        <path d="M 40.578125 39.3125 
Q 47.65625 37.796875 51.625 33 
Q 55.609375 28.21875 55.609375 21.1875 
Q 55.609375 10.40625 48.1875 4.484375 
Q 40.765625 -1.421875 27.09375 -1.421875 
Q 22.515625 -1.421875 17.65625 -0.515625 
Q 12.796875 0.390625 7.625 2.203125 
L 7.625 11.71875 
Q 11.71875 9.328125 16.59375 8.109375 
Q 21.484375 6.890625 26.8125 6.890625 
Q 36.078125 6.890625 40.9375 10.546875 
Q 45.796875 14.203125 45.796875 21.1875 
Q 45.796875 27.640625 41.28125 31.265625 
Q 36.765625 34.90625 28.71875 34.90625 
L 20.21875 34.90625 
L 20.21875 43.015625 
L 29.109375 43.015625 
Q 36.375 43.015625 40.234375 45.921875 
Q 44.09375 48.828125 44.09375 54.296875 
Q 44.09375 59.90625 40.109375 62.90625 
Q 36.140625 65.921875 28.71875 65.921875 
Q 24.65625 65.921875 20.015625 65.03125 
Q 15.375 64.15625 9.8125 62.3125 
L 9.8125 71.09375 
Q 15.4375 72.65625 20.34375 73.4375 
Q 25.25 74.21875 29.59375 74.21875 
Q 40.828125 74.21875 47.359375 69.109375 
Q 53.90625 64.015625 53.90625 55.328125 
Q 53.90625 49.265625 50.4375 45.09375 
Q 46.96875 40.921875 40.578125 39.3125 
z
" id="DejaVuSans-51"/>
        <path d="M 10.6875 12.40625 
L 21 12.40625 
L 21 0 
L 10.6875 0 
z
" id="DejaVuSans-46"/>
        <path d="M 31.78125 66.40625 
Q 24.171875 66.40625 20.328125 58.90625 
Q 16.5 51.421875 16.5 36.375 
Q 16.5 21.390625 20.328125 13.890625 
Q 24.171875 6.390625 31.78125 6.390625 
Q 39.453125 6.390625 43.28125 13.890625 
Q 47.125 21.390625 47.125 36.375 
Q 47.125 51.421875 43.28125 58.90625 
Q 39.453125 66.40625 31.78125 66.40625 
z
M 31.78125 74.21875 
Q 44.046875 74.21875 50.515625 64.515625 
Q 56.984375 54.828125 56.984375 36.375 
Q 56.984375 17.96875 50.515625 8.265625 
Q 44.046875 -1.421875 31.78125 -1.421875 
Q 19.53125 -1.421875 13.0625 8.265625 
Q 6.59375 17.96875 6.59375 36.375 
Q 6.59375 54.828125 13.0625 64.515625 
Q 19.53125 74.21875 31.78125 74.21875 
z
" id="DejaVuSans-48"/>
       </defs>
       <use xlink:href="#DejaVuSans-51"/>
       <use x="63.623047" xlink:href="#DejaVuSans-46"/>
       <use x="95.410156" xlink:href="#DejaVuSans-48"/>
      </g>
     </g>
    </g>
    <g id="xtick_2">
     <g id="line2d_2">
      <g>
       <use style="stroke:#000000;stroke-width:0.8;" x="135.673537" xlink:href="#m33c4a2c845" y="224.64"/>
      </g>
     </g>
     <g id="text_2">
      <!-- 3.5 -->
      <g transform="translate(127.721974 239.238438)scale(0.1 -0.1)">
       <defs>
        <path d="M 10.796875 72.90625 
L 49.515625 72.90625 
L 49.515625 64.59375 
L 19.828125 64.59375 
L 19.828125 46.734375 
Q 21.96875 47.46875 24.109375 47.828125 
Q 26.265625 48.1875 28.421875 48.1875 
Q 40.625 48.1875 47.75 41.5 
Q 54.890625 34.8125 54.890625 23.390625 
Q 54.890625 11.625 47.5625 5.09375 
Q 40.234375 -1.421875 26.90625 -1.421875 
Q 22.3125 -1.421875 17.546875 -0.640625 
Q 12.796875 0.140625 7.71875 1.703125 
L 7.71875 11.625 
Q 12.109375 9.234375 16.796875 8.0625 
Q 21.484375 6.890625 26.703125 6.890625 
Q 35.15625 6.890625 40.078125 11.328125 
Q 45.015625 15.765625 45.015625 23.390625 
Q 45.015625 31 40.078125 35.4375 
Q 35.15625 39.890625 26.703125 39.890625 
Q 22.75 39.890625 18.8125 39.015625 
Q 14.890625 38.140625 10.796875 36.28125 
z
" id="DejaVuSans-53"/>
       </defs>
       <use xlink:href="#DejaVuSans-51"/>
       <use x="63.623047" xlink:href="#DejaVuSans-46"/>
       <use x="95.410156" xlink:href="#DejaVuSans-53"/>
      </g>
     </g>
    </g>
    <g id="xtick_3">
     <g id="line2d_3">
      <g>
       <use style="stroke:#000000;stroke-width:0.8;" x="203.722317" xlink:href="#m33c4a2c845" y="224.64"/>
      </g>
     </g>
     <g id="text_3">
      <!-- 4.0 -->
      <g transform="translate(195.770755 239.238438)scale(0.1 -0.1)">
       <defs>
        <path d="M 37.796875 64.3125 
L 12.890625 25.390625 
L 37.796875 25.390625 
z
M 35.203125 72.90625 
L 47.609375 72.90625 
L 47.609375 25.390625 
L 58.015625 25.390625 
L 58.015625 17.1875 
L 47.609375 17.1875 
L 47.609375 0 
L 37.796875 0 
L 37.796875 17.1875 
L 4.890625 17.1875 
L 4.890625 26.703125 
z
" id="DejaVuSans-52"/>
       </defs>
       <use xlink:href="#DejaVuSans-52"/>
       <use x="63.623047" xlink:href="#DejaVuSans-46"/>
       <use x="95.410156" xlink:href="#DejaVuSans-48"/>
      </g>
     </g>
    </g>
    <g id="xtick_4">
     <g id="line2d_4">
      <g>
       <use style="stroke:#000000;stroke-width:0.8;" x="271.771098" xlink:href="#m33c4a2c845" y="224.64"/>
      </g>
     </g>
     <g id="text_4">
      <!-- 4.5 -->
      <g transform="translate(263.819535 239.238438)scale(0.1 -0.1)">
       <use xlink:href="#DejaVuSans-52"/>
       <use x="63.623047" xlink:href="#DejaVuSans-46"/>
       <use x="95.410156" xlink:href="#DejaVuSans-53"/>
      </g>
     </g>
    </g>
    <g id="xtick_5">
     <g id="line2d_5">
      <g>
       <use style="stroke:#000000;stroke-width:0.8;" x="339.819878" xlink:href="#m33c4a2c845" y="224.64"/>
      </g>
     </g>
     <g id="text_5">
      <!-- 5.0 -->
      <g transform="translate(331.868316 239.238438)scale(0.1 -0.1)">
       <use xlink:href="#DejaVuSans-53"/>
       <use x="63.623047" xlink:href="#DejaVuSans-46"/>
       <use x="95.410156" xlink:href="#DejaVuSans-48"/>
      </g>
     </g>
    </g>
    <g id="xtick_6">
     <g id="line2d_6">
      <g>
       <use style="stroke:#000000;stroke-width:0.8;" x="407.868659" xlink:href="#m33c4a2c845" y="224.64"/>
      </g>
     </g>
     <g id="text_6">
      <!-- 5.5 -->
      <g transform="translate(399.917096 239.238438)scale(0.1 -0.1)">
       <use xlink:href="#DejaVuSans-53"/>
       <use x="63.623047" xlink:href="#DejaVuSans-46"/>
       <use x="95.410156" xlink:href="#DejaVuSans-53"/>
      </g>
     </g>
    </g>
    <g id="xtick_7">
     <g id="line2d_7">
      <g>
       <use style="stroke:#000000;stroke-width:0.8;" x="475.917439" xlink:href="#m33c4a2c845" y="224.64"/>
      </g>
     </g>
     <g id="text_7">
      <!-- 6.0 -->
      <g transform="translate(467.965877 239.238438)scale(0.1 -0.1)">
       <defs>
        <path d="M 33.015625 40.375 
Q 26.375 40.375 22.484375 35.828125 
Q 18.609375 31.296875 18.609375 23.390625 
Q 18.609375 15.53125 22.484375 10.953125 
Q 26.375 6.390625 33.015625 6.390625 
Q 39.65625 6.390625 43.53125 10.953125 
Q 47.40625 15.53125 47.40625 23.390625 
Q 47.40625 31.296875 43.53125 35.828125 
Q 39.65625 40.375 33.015625 40.375 
z
M 52.59375 71.296875 
L 52.59375 62.3125 
Q 48.875 64.0625 45.09375 64.984375 
Q 41.3125 65.921875 37.59375 65.921875 
Q 27.828125 65.921875 22.671875 59.328125 
Q 17.53125 52.734375 16.796875 39.40625 
Q 19.671875 43.65625 24.015625 45.921875 
Q 28.375 48.1875 33.59375 48.1875 
Q 44.578125 48.1875 50.953125 41.515625 
Q 57.328125 34.859375 57.328125 23.390625 
Q 57.328125 12.15625 50.6875 5.359375 
Q 44.046875 -1.421875 33.015625 -1.421875 
Q 20.359375 -1.421875 13.671875 8.265625 
Q 6.984375 17.96875 6.984375 36.375 
Q 6.984375 53.65625 15.1875 63.9375 
Q 23.390625 74.21875 37.203125 74.21875 
Q 40.921875 74.21875 44.703125 73.484375 
Q 48.484375 72.75 52.59375 71.296875 
z
" id="DejaVuSans-54"/>
       </defs>
       <use xlink:href="#DejaVuSans-54"/>
       <use x="63.623047" xlink:href="#DejaVuSans-46"/>
       <use x="95.410156" xlink:href="#DejaVuSans-48"/>
      </g>
     </g>
    </g>
    <g id="xtick_8">
     <g id="line2d_8">
      <g>
       <use style="stroke:#000000;stroke-width:0.8;" x="543.96622" xlink:href="#m33c4a2c845" y="224.64"/>
      </g>
     </g>
     <g id="text_8">
      <!-- 6.5 -->
      <g transform="translate(536.014657 239.238438)scale(0.1 -0.1)">
       <use xlink:href="#DejaVuSans-54"/>
       <use x="63.623047" xlink:href="#DejaVuSans-46"/>
       <use x="95.410156" xlink:href="#DejaVuSans-53"/>
      </g>
     </g>
    </g>
    <g id="xtick_9">
     <g id="line2d_9">
      <g>
       <use style="stroke:#000000;stroke-width:0.8;" x="612.015" xlink:href="#m33c4a2c845" y="224.64"/>
      </g>
     </g>
     <g id="text_9">
      <!-- 7.0 -->
      <g transform="translate(604.063438 239.238438)scale(0.1 -0.1)">
       <defs>
        <path d="M 8.203125 72.90625 
L 55.078125 72.90625 
L 55.078125 68.703125 
L 28.609375 0 
L 18.3125 0 
L 43.21875 64.59375 
L 8.203125 64.59375 
z
" id="DejaVuSans-55"/>
       </defs>
       <use xlink:href="#DejaVuSans-55"/>
       <use x="63.623047" xlink:href="#DejaVuSans-46"/>
       <use x="95.410156" xlink:href="#DejaVuSans-48"/>
      </g>
     </g>
    </g>
    <g id="text_10">
     <!-- Petal length -->
     <g transform="translate(291.225 255.955938)scale(0.14 -0.14)">
      <defs>
       <path d="M 19.671875 64.796875 
L 19.671875 37.40625 
L 32.078125 37.40625 
Q 38.96875 37.40625 42.71875 40.96875 
Q 46.484375 44.53125 46.484375 51.125 
Q 46.484375 57.671875 42.71875 61.234375 
Q 38.96875 64.796875 32.078125 64.796875 
z
M 9.8125 72.90625 
L 32.078125 72.90625 
Q 44.34375 72.90625 50.609375 67.359375 
Q 56.890625 61.8125 56.890625 51.125 
Q 56.890625 40.328125 50.609375 34.8125 
Q 44.34375 29.296875 32.078125 29.296875 
L 19.671875 29.296875 
L 19.671875 0 
L 9.8125 0 
z
" id="DejaVuSans-80"/>
       <path d="M 56.203125 29.59375 
L 56.203125 25.203125 
L 14.890625 25.203125 
Q 15.484375 15.921875 20.484375 11.0625 
Q 25.484375 6.203125 34.421875 6.203125 
Q 39.59375 6.203125 44.453125 7.46875 
Q 49.3125 8.734375 54.109375 11.28125 
L 54.109375 2.78125 
Q 49.265625 0.734375 44.1875 -0.34375 
Q 39.109375 -1.421875 33.890625 -1.421875 
Q 20.796875 -1.421875 13.15625 6.1875 
Q 5.515625 13.8125 5.515625 26.8125 
Q 5.515625 40.234375 12.765625 48.109375 
Q 20.015625 56 32.328125 56 
Q 43.359375 56 49.78125 48.890625 
Q 56.203125 41.796875 56.203125 29.59375 
z
M 47.21875 32.234375 
Q 47.125 39.59375 43.09375 43.984375 
Q 39.0625 48.390625 32.421875 48.390625 
Q 24.90625 48.390625 20.390625 44.140625 
Q 15.875 39.890625 15.1875 32.171875 
z
" id="DejaVuSans-101"/>
       <path d="M 18.3125 70.21875 
L 18.3125 54.6875 
L 36.8125 54.6875 
L 36.8125 47.703125 
L 18.3125 47.703125 
L 18.3125 18.015625 
Q 18.3125 11.328125 20.140625 9.421875 
Q 21.96875 7.515625 27.59375 7.515625 
L 36.8125 7.515625 
L 36.8125 0 
L 27.59375 0 
Q 17.1875 0 13.234375 3.875 
Q 9.28125 7.765625 9.28125 18.015625 
L 9.28125 47.703125 
L 2.6875 47.703125 
L 2.6875 54.6875 
L 9.28125 54.6875 
L 9.28125 70.21875 
z
" id="DejaVuSans-116"/>
       <path d="M 34.28125 27.484375 
Q 23.390625 27.484375 19.1875 25 
Q 14.984375 22.515625 14.984375 16.5 
Q 14.984375 11.71875 18.140625 8.90625 
Q 21.296875 6.109375 26.703125 6.109375 
Q 34.1875 6.109375 38.703125 11.40625 
Q 43.21875 16.703125 43.21875 25.484375 
L 43.21875 27.484375 
z
M 52.203125 31.203125 
L 52.203125 0 
L 43.21875 0 
L 43.21875 8.296875 
Q 40.140625 3.328125 35.546875 0.953125 
Q 30.953125 -1.421875 24.3125 -1.421875 
Q 15.921875 -1.421875 10.953125 3.296875 
Q 6 8.015625 6 15.921875 
Q 6 25.140625 12.171875 29.828125 
Q 18.359375 34.515625 30.609375 34.515625 
L 43.21875 34.515625 
L 43.21875 35.40625 
Q 43.21875 41.609375 39.140625 45 
Q 35.0625 48.390625 27.6875 48.390625 
Q 23 48.390625 18.546875 47.265625 
Q 14.109375 46.140625 10.015625 43.890625 
L 10.015625 52.203125 
Q 14.9375 54.109375 19.578125 55.046875 
Q 24.21875 56 28.609375 56 
Q 40.484375 56 46.34375 49.84375 
Q 52.203125 43.703125 52.203125 31.203125 
z
" id="DejaVuSans-97"/>
       <path d="M 9.421875 75.984375 
L 18.40625 75.984375 
L 18.40625 0 
L 9.421875 0 
z
" id="DejaVuSans-108"/>
       <path id="DejaVuSans-32"/>
       <path d="M 54.890625 33.015625 
L 54.890625 0 
L 45.90625 0 
L 45.90625 32.71875 
Q 45.90625 40.484375 42.875 44.328125 
Q 39.84375 48.1875 33.796875 48.1875 
Q 26.515625 48.1875 22.3125 43.546875 
Q 18.109375 38.921875 18.109375 30.90625 
L 18.109375 0 
L 9.078125 0 
L 9.078125 54.6875 
L 18.109375 54.6875 
L 18.109375 46.1875 
Q 21.34375 51.125 25.703125 53.5625 
Q 30.078125 56 35.796875 56 
Q 45.21875 56 50.046875 50.171875 
Q 54.890625 44.34375 54.890625 33.015625 
z
" id="DejaVuSans-110"/>
       <path d="M 45.40625 27.984375 
Q 45.40625 37.75 41.375 43.109375 
Q 37.359375 48.484375 30.078125 48.484375 
Q 22.859375 48.484375 18.828125 43.109375 
Q 14.796875 37.75 14.796875 27.984375 
Q 14.796875 18.265625 18.828125 12.890625 
Q 22.859375 7.515625 30.078125 7.515625 
Q 37.359375 7.515625 41.375 12.890625 
Q 45.40625 18.265625 45.40625 27.984375 
z
M 54.390625 6.78125 
Q 54.390625 -7.171875 48.1875 -13.984375 
Q 42 -20.796875 29.203125 -20.796875 
Q 24.46875 -20.796875 20.265625 -20.09375 
Q 16.0625 -19.390625 12.109375 -17.921875 
L 12.109375 -9.1875 
Q 16.0625 -11.328125 19.921875 -12.34375 
Q 23.78125 -13.375 27.78125 -13.375 
Q 36.625 -13.375 41.015625 -8.765625 
Q 45.40625 -4.15625 45.40625 5.171875 
L 45.40625 9.625 
Q 42.625 4.78125 38.28125 2.390625 
Q 33.9375 0 27.875 0 
Q 17.828125 0 11.671875 7.65625 
Q 5.515625 15.328125 5.515625 27.984375 
Q 5.515625 40.671875 11.671875 48.328125 
Q 17.828125 56 27.875 56 
Q 33.9375 56 38.28125 53.609375 
Q 42.625 51.21875 45.40625 46.390625 
L 45.40625 54.6875 
L 54.390625 54.6875 
z
" id="DejaVuSans-103"/>
       <path d="M 54.890625 33.015625 
L 54.890625 0 
L 45.90625 0 
L 45.90625 32.71875 
Q 45.90625 40.484375 42.875 44.328125 
Q 39.84375 48.1875 33.796875 48.1875 
Q 26.515625 48.1875 22.3125 43.546875 
Q 18.109375 38.921875 18.109375 30.90625 
L 18.109375 0 
L 9.078125 0 
L 9.078125 75.984375 
L 18.109375 75.984375 
L 18.109375 46.1875 
Q 21.34375 51.125 25.703125 53.5625 
Q 30.078125 56 35.796875 56 
Q 45.21875 56 50.046875 50.171875 
Q 54.890625 44.34375 54.890625 33.015625 
z
" id="DejaVuSans-104"/>
      </defs>
      <use xlink:href="#DejaVuSans-80"/>
      <use x="56.677734" xlink:href="#DejaVuSans-101"/>
      <use x="118.201172" xlink:href="#DejaVuSans-116"/>
      <use x="157.410156" xlink:href="#DejaVuSans-97"/>
      <use x="218.689453" xlink:href="#DejaVuSans-108"/>
      <use x="246.472656" xlink:href="#DejaVuSans-32"/>
      <use x="278.259766" xlink:href="#DejaVuSans-108"/>
      <use x="306.042969" xlink:href="#DejaVuSans-101"/>
      <use x="367.566406" xlink:href="#DejaVuSans-110"/>
      <use x="430.945312" xlink:href="#DejaVuSans-103"/>
      <use x="494.421875" xlink:href="#DejaVuSans-116"/>
      <use x="533.630859" xlink:href="#DejaVuSans-104"/>
     </g>
    </g>
   </g>
   <g id="matplotlib.axis_2">
    <g id="ytick_1">
     <g id="line2d_10">
      <defs>
       <path d="M 0 0 
L -3.5 0 
" id="m23a4729f34" style="stroke:#000000;stroke-width:0.8;"/>
      </defs>
      <g>
       <use style="stroke:#000000;stroke-width:0.8;" x="54.015" xlink:href="#m23a4729f34" y="201.751579"/>
      </g>
     </g>
     <g id="text_11">
      <!-- 1.00 -->
      <g transform="translate(24.749375 205.550798)scale(0.1 -0.1)">
       <defs>
        <path d="M 12.40625 8.296875 
L 28.515625 8.296875 
L 28.515625 63.921875 
L 10.984375 60.40625 
L 10.984375 69.390625 
L 28.421875 72.90625 
L 38.28125 72.90625 
L 38.28125 8.296875 
L 54.390625 8.296875 
L 54.390625 0 
L 12.40625 0 
z
" id="DejaVuSans-49"/>
       </defs>
       <use xlink:href="#DejaVuSans-49"/>
       <use x="63.623047" xlink:href="#DejaVuSans-46"/>
       <use x="95.410156" xlink:href="#DejaVuSans-48"/>
       <use x="159.033203" xlink:href="#DejaVuSans-48"/>
      </g>
     </g>
    </g>
    <g id="ytick_2">
     <g id="line2d_11">
      <g>
       <use style="stroke:#000000;stroke-width:0.8;" x="54.015" xlink:href="#m23a4729f34" y="173.141053"/>
      </g>
     </g>
     <g id="text_12">
      <!-- 1.25 -->
      <g transform="translate(24.749375 176.940271)scale(0.1 -0.1)">
       <defs>
        <path d="M 19.1875 8.296875 
L 53.609375 8.296875 
L 53.609375 0 
L 7.328125 0 
L 7.328125 8.296875 
Q 12.9375 14.109375 22.625 23.890625 
Q 32.328125 33.6875 34.8125 36.53125 
Q 39.546875 41.84375 41.421875 45.53125 
Q 43.3125 49.21875 43.3125 52.78125 
Q 43.3125 58.59375 39.234375 62.25 
Q 35.15625 65.921875 28.609375 65.921875 
Q 23.96875 65.921875 18.8125 64.3125 
Q 13.671875 62.703125 7.8125 59.421875 
L 7.8125 69.390625 
Q 13.765625 71.78125 18.9375 73 
Q 24.125 74.21875 28.421875 74.21875 
Q 39.75 74.21875 46.484375 68.546875 
Q 53.21875 62.890625 53.21875 53.421875 
Q 53.21875 48.921875 51.53125 44.890625 
Q 49.859375 40.875 45.40625 35.40625 
Q 44.1875 33.984375 37.640625 27.21875 
Q 31.109375 20.453125 19.1875 8.296875 
z
" id="DejaVuSans-50"/>
       </defs>
       <use xlink:href="#DejaVuSans-49"/>
       <use x="63.623047" xlink:href="#DejaVuSans-46"/>
       <use x="95.410156" xlink:href="#DejaVuSans-50"/>
       <use x="159.033203" xlink:href="#DejaVuSans-53"/>
      </g>
     </g>
    </g>
    <g id="ytick_3">
     <g id="line2d_12">
      <g>
       <use style="stroke:#000000;stroke-width:0.8;" x="54.015" xlink:href="#m23a4729f34" y="144.530526"/>
      </g>
     </g>
     <g id="text_13">
      <!-- 1.50 -->
      <g transform="translate(24.749375 148.329745)scale(0.1 -0.1)">
       <use xlink:href="#DejaVuSans-49"/>
       <use x="63.623047" xlink:href="#DejaVuSans-46"/>
       <use x="95.410156" xlink:href="#DejaVuSans-53"/>
       <use x="159.033203" xlink:href="#DejaVuSans-48"/>
      </g>
     </g>
    </g>
    <g id="ytick_4">
     <g id="line2d_13">
      <g>
       <use style="stroke:#000000;stroke-width:0.8;" x="54.015" xlink:href="#m23a4729f34" y="115.92"/>
      </g>
     </g>
     <g id="text_14">
      <!-- 1.75 -->
      <g transform="translate(24.749375 119.719219)scale(0.1 -0.1)">
       <use xlink:href="#DejaVuSans-49"/>
       <use x="63.623047" xlink:href="#DejaVuSans-46"/>
       <use x="95.410156" xlink:href="#DejaVuSans-55"/>
       <use x="159.033203" xlink:href="#DejaVuSans-53"/>
      </g>
     </g>
    </g>
    <g id="ytick_5">
     <g id="line2d_14">
      <g>
       <use style="stroke:#000000;stroke-width:0.8;" x="54.015" xlink:href="#m23a4729f34" y="87.309474"/>
      </g>
     </g>
     <g id="text_15">
      <!-- 2.00 -->
      <g transform="translate(24.749375 91.108692)scale(0.1 -0.1)">
       <use xlink:href="#DejaVuSans-50"/>
       <use x="63.623047" xlink:href="#DejaVuSans-46"/>
       <use x="95.410156" xlink:href="#DejaVuSans-48"/>
       <use x="159.033203" xlink:href="#DejaVuSans-48"/>
      </g>
     </g>
    </g>
    <g id="ytick_6">
     <g id="line2d_15">
      <g>
       <use style="stroke:#000000;stroke-width:0.8;" x="54.015" xlink:href="#m23a4729f34" y="58.698947"/>
      </g>
     </g>
     <g id="text_16">
      <!-- 2.25 -->
      <g transform="translate(24.749375 62.498166)scale(0.1 -0.1)">
       <use xlink:href="#DejaVuSans-50"/>
       <use x="63.623047" xlink:href="#DejaVuSans-46"/>
       <use x="95.410156" xlink:href="#DejaVuSans-50"/>
       <use x="159.033203" xlink:href="#DejaVuSans-53"/>
      </g>
     </g>
    </g>
    <g id="ytick_7">
     <g id="line2d_16">
      <g>
       <use style="stroke:#000000;stroke-width:0.8;" x="54.015" xlink:href="#m23a4729f34" y="30.088421"/>
      </g>
     </g>
     <g id="text_17">
      <!-- 2.50 -->
      <g transform="translate(24.749375 33.88764)scale(0.1 -0.1)">
       <use xlink:href="#DejaVuSans-50"/>
       <use x="63.623047" xlink:href="#DejaVuSans-46"/>
       <use x="95.410156" xlink:href="#DejaVuSans-53"/>
       <use x="159.033203" xlink:href="#DejaVuSans-48"/>
      </g>
     </g>
    </g>
    <g id="text_18">
     <!-- Petal width -->
     <g transform="translate(17.837812 154.69125)rotate(-90)scale(0.14 -0.14)">
      <defs>
       <path d="M 4.203125 54.6875 
L 13.1875 54.6875 
L 24.421875 12.015625 
L 35.59375 54.6875 
L 46.1875 54.6875 
L 57.421875 12.015625 
L 68.609375 54.6875 
L 77.59375 54.6875 
L 63.28125 0 
L 52.6875 0 
L 40.921875 44.828125 
L 29.109375 0 
L 18.5 0 
z
" id="DejaVuSans-119"/>
       <path d="M 9.421875 54.6875 
L 18.40625 54.6875 
L 18.40625 0 
L 9.421875 0 
z
M 9.421875 75.984375 
L 18.40625 75.984375 
L 18.40625 64.59375 
L 9.421875 64.59375 
z
" id="DejaVuSans-105"/>
       <path d="M 45.40625 46.390625 
L 45.40625 75.984375 
L 54.390625 75.984375 
L 54.390625 0 
L 45.40625 0 
L 45.40625 8.203125 
Q 42.578125 3.328125 38.25 0.953125 
Q 33.9375 -1.421875 27.875 -1.421875 
Q 17.96875 -1.421875 11.734375 6.484375 
Q 5.515625 14.40625 5.515625 27.296875 
Q 5.515625 40.1875 11.734375 48.09375 
Q 17.96875 56 27.875 56 
Q 33.9375 56 38.25 53.625 
Q 42.578125 51.265625 45.40625 46.390625 
z
M 14.796875 27.296875 
Q 14.796875 17.390625 18.875 11.75 
Q 22.953125 6.109375 30.078125 6.109375 
Q 37.203125 6.109375 41.296875 11.75 
Q 45.40625 17.390625 45.40625 27.296875 
Q 45.40625 37.203125 41.296875 42.84375 
Q 37.203125 48.484375 30.078125 48.484375 
Q 22.953125 48.484375 18.875 42.84375 
Q 14.796875 37.203125 14.796875 27.296875 
z
" id="DejaVuSans-100"/>
      </defs>
      <use xlink:href="#DejaVuSans-80"/>
      <use x="56.677734" xlink:href="#DejaVuSans-101"/>
      <use x="118.201172" xlink:href="#DejaVuSans-116"/>
      <use x="157.410156" xlink:href="#DejaVuSans-97"/>
      <use x="218.689453" xlink:href="#DejaVuSans-108"/>
      <use x="246.472656" xlink:href="#DejaVuSans-32"/>
      <use x="278.259766" xlink:href="#DejaVuSans-119"/>
      <use x="360.046875" xlink:href="#DejaVuSans-105"/>
      <use x="387.830078" xlink:href="#DejaVuSans-100"/>
      <use x="451.306641" xlink:href="#DejaVuSans-116"/>
      <use x="490.515625" xlink:href="#DejaVuSans-104"/>
     </g>
    </g>
   </g>
   <g id="LineCollection_1"/>
   <g id="LineCollection_2">
    <path clip-path="url(#p2e471eb6cf)" d="M 54.015 22.070495 
L 54.953576 22.497286 
L 55.133236 22.582055 
L 56.251473 23.10673 
L 57.31418 23.58995 
L 57.369709 23.616151 
L 58.487946 24.142761 
L 59.606182 24.652226 
L 59.672991 24.682613 
L 60.724419 25.178587 
L 61.842655 25.689873 
L 62.030427 25.775276 
L 62.960892 26.214205 
L 64.079128 26.727327 
L 64.388298 26.86794 
L 65.197365 27.249614 
L 66.315601 27.764586 
L 66.746606 27.960603 
L 67.433838 28.284813 
L 68.552074 28.801649 
L 69.105356 29.053266 
L 69.670311 29.3198 
L 70.788547 29.838513 
L 71.464549 30.14593 
L 71.906784 30.354573 
L 73.02502 30.875178 
L 73.82419 31.238593 
L 74.143257 31.389132 
L 75.261493 31.911642 
L 76.184281 32.331256 
L 76.379729 32.423474 
L 77.497966 32.947903 
L 78.544827 33.42392 
L 78.616202 33.457597 
L 79.734439 33.98396 
L 80.852675 34.493194 
L 80.904099 34.516583 
L 81.970912 35.019812 
L 83.089148 35.530866 
L 83.26148 35.609246 
L 84.207385 36.055456 
L 85.325621 36.568344 
L 85.619295 36.70191 
L 86.443858 37.090892 
L 87.562094 37.605628 
L 87.977547 37.794573 
L 88.680331 38.126118 
L 89.798567 38.642716 
L 90.33624 38.887236 
L 90.561175 38.993355 
" style="fill:none;stroke:#4800b7;stroke-width:1.5;"/>
    <path clip-path="url(#p2e471eb6cf)" d="M 153.89865 68.329893 
L 168.18576 74.945126 
L 182.612194 81.630512 
L 207.213397 93.031083 
L 222.439738 100.076382 
L 237.405782 107.015159 
L 283.773154 128.485628 
L 298.908788 135.503489 
L 323.876446 147.060905 
L 336.928828 153.114252 
L 352.184124 160.172864 
L 367.121212 167.098138 
L 420.796563 191.954605 
L 443.161293 202.320127 
L 458.338238 209.342714 
L 473.353677 216.304525 
L 491.366779 224.64 
L 491.366779 224.64 
" style="fill:none;stroke:#4800b7;stroke-width:1.5;"/>
   </g>
   <g id="LineCollection_3">
    <path clip-path="url(#p2e471eb6cf)" d="M 54.015 12.345671 
L 78.616202 23.738899 
L 132.291553 48.600384 
L 158.503196 60.740503 
L 183.730431 72.428909 
L 208.331633 83.821826 
L 256.415802 106.097062 
L 283.530127 118.651658 
L 307.854679 129.922425 
L 418.203129 181.032464 
L 418.203129 181.032464 
" style="fill:none;stroke:#92006d;stroke-width:1.5;"/>
    <path clip-path="url(#p2e471eb6cf)" d="M 481.541143 210.369723 
L 481.684343 210.435377 
L 482.299569 210.723407 
L 483.417806 211.241267 
L 484.043334 211.52804 
L 484.536042 211.758724 
L 485.654279 212.277664 
L 486.402581 212.620704 
L 486.772515 212.793915 
L 487.890752 213.31395 
L 488.762087 213.713367 
L 489.008988 213.828978 
L 490.127224 214.350121 
L 491.121856 214.80603 
L 491.245461 214.863911 
L 492.363697 215.386177 
L 493.48189 215.898693 
L 493.481934 215.898714 
L 494.60017 216.422117 
L 495.718407 216.935663 
L 495.839861 216.991357 
L 496.836643 217.457938 
L 497.95488 217.972507 
L 498.198074 218.08402 
L 499.073116 218.49364 
L 500.191353 219.009246 
L 500.556533 219.176683 
L 501.309589 219.52922 
L 502.427826 220.045877 
L 502.91524 220.269347 
L 503.546062 220.564677 
L 504.664299 221.0824 
L 505.274199 221.36201 
L 505.782535 221.600009 
L 506.900772 222.118811 
L 507.633413 222.454673 
L 508.019008 222.635216 
L 509.137244 223.155111 
L 509.992886 223.547337 
L 510.255481 223.670296 
L 511.373717 224.191297 
L 512.35262 224.64 
" style="fill:none;stroke:#92006d;stroke-width:1.5;"/>
   </g>
   <g id="LineCollection_4">
    <path clip-path="url(#p2e471eb6cf)" d="M 58.208028 7.2 
L 143.473918 46.69498 
L 313.087782 125.258436 
L 313.087782 125.258436 
" style="fill:none;stroke:#da0025;stroke-width:1.5;"/>
    <path clip-path="url(#p2e471eb6cf)" d="M 376.425915 154.596258 
L 490.127224 207.261739 
L 527.64621 224.64 
L 527.64621 224.64 
" style="fill:none;stroke:#da0025;stroke-width:1.5;"/>
   </g>
   <g id="LineCollection_5">
    <path clip-path="url(#p2e471eb6cf)" d="M 72.545276 7.2 
L 125.582134 31.764123 
L 185.966904 59.735813 
L 245.993948 87.538402 
L 245.993948 87.538402 
" style="fill:none;stroke:#da2500;stroke-width:1.5;"/>
    <path clip-path="url(#p2e471eb6cf)" d="M 309.331972 116.876271 
L 541.983561 224.64 
L 541.983561 224.64 
" style="fill:none;stroke:#da2500;stroke-width:1.5;"/>
   </g>
   <g id="LineCollection_6">
    <path clip-path="url(#p2e471eb6cf)" d="M 88.939656 7.2 
L 89.798567 7.592675 
L 90.916804 8.113131 
L 91.299262 8.292663 
L 92.03504 8.629063 
L 93.153277 9.148157 
L 93.658545 9.385327 
L 94.271513 9.665591 
L 95.389749 10.183338 
L 96.01751 10.47799 
L 96.507986 10.70226 
L 97.626222 11.218673 
L 98.376159 11.570653 
L 98.744459 11.739067 
L 99.862695 12.25416 
L 100.734496 12.663317 
L 100.980932 12.776011 
L 102.099168 13.289798 
L 103.092523 13.75598 
L 103.217405 13.813091 
L 104.335641 14.325585 
L 105.450246 14.848643 
L 105.453878 14.850304 
L 106.572114 15.36152 
L 107.690351 15.884919 
L 107.81046 15.941307 
L 108.808587 16.397602 
L 109.926824 16.919609 
L 110.170433 17.03397 
L 111.04506 17.433828 
L 112.163297 17.954458 
L 112.53008 18.126633 
L 113.281533 18.470197 
L 114.39977 18.989463 
L 114.889404 19.219296 
L 115.518006 19.506708 
L 116.636242 20.024625 
L 117.248409 20.31196 
L 117.754479 20.543358 
L 118.872715 21.05994 
L 119.607098 21.404623 
L 119.990952 21.580148 
L 121.109188 22.095408 
L 121.965475 22.497286 
L 122.227425 22.617075 
L 123.345661 23.131027 
L 124.323542 23.58995 
L 124.463898 23.654137 
L 125.582134 24.166796 
L 126.681303 24.682613 
L 126.700371 24.691334 
L 127.818607 25.202712 
L 128.936844 25.726289 
L 129.04119 25.775276 
L 130.05508 26.238775 
L 131.173317 26.760958 
L 131.401205 26.86794 
L 132.291553 27.274982 
L 133.40979 27.795787 
L 133.760893 27.960603 
L 134.528026 28.311333 
L 135.646263 28.830773 
L 136.120258 29.053266 
L 136.764499 29.347826 
L 137.882735 29.865915 
L 138.479304 30.14593 
L 139.000972 30.384459 
L 140.119208 30.90121 
L 140.838033 31.238593 
L 141.237445 31.421231 
L 142.355681 31.936659 
L 143.196449 32.331256 
L 143.473918 32.45814 
L 144.592154 32.972259 
L 145.554555 33.42392 
L 145.710391 33.495186 
L 146.828627 34.008008 
L 147.912355 34.516583 
L 147.946864 34.532365 
L 149.0651 35.043906 
L 150.183337 35.567661 
L 150.271915 35.609246 
L 151.301573 36.07995 
L 152.41981 36.602311 
L 152.631971 36.70191 
L 153.538046 37.116139 
L 154.656283 37.637119 
L 154.991701 37.794573 
L 155.774519 38.152472 
L 156.892756 38.672085 
L 157.351107 38.887236 
L 158.010992 39.188947 
L 159.129228 39.707207 
L 159.710193 39.979899 
L 160.247465 40.225562 
L 161.365701 40.742483 
L 162.068962 41.072563 
L 162.483938 41.262316 
L 163.602174 41.777912 
L 164.427418 42.165226 
L 164.720411 42.299208 
L 165.838647 42.813493 
L 166.785564 43.257889 
L 166.956884 43.336236 
L 168.07512 43.849223 
L 169.143402 44.350553 
L 169.193357 44.373399 
L 170.311593 44.885102 
L 171.42983 45.409036 
L 171.502634 45.443216 
L 172.548066 45.921128 
L 173.666303 46.443665 
L 173.862732 46.535879 
L 174.784539 46.957298 
L 175.902776 47.478453 
L 176.222503 47.628543 
L 177.021012 47.993613 
L 178.139248 48.513399 
L 178.58195 48.721206 
L 179.257485 49.03007 
L 180.019344 49.383279 
" style="fill:none;stroke:#926d00;stroke-width:1.5;"/>
    <path clip-path="url(#p2e471eb6cf)" d="M 243.357083 78.720575 
L 379.421814 141.746864 
L 420.796563 160.908492 
L 440.92482 170.233293 
L 531.501974 212.185806 
L 551.63023 221.512377 
L 558.376041 224.64 
L 558.376041 224.64 
" style="fill:none;stroke:#926d00;stroke-width:1.5;"/>
   </g>
   <g id="LineCollection_7">
    <path clip-path="url(#p2e471eb6cf)" d="M 114.925344 7.2 
L 127.818607 13.163656 
L 143.473918 20.4219 
L 163.602174 29.739012 
L 176.258301 35.609246 
L 189.321613 41.651337 
L 202.207859 47.628543 
L 215.041052 53.564491 
L 232.932836 61.861427 
L 247.46991 68.589396 
L 288.844659 87.751743 
L 301.282276 93.520402 
L 314.564098 99.663279 
L 327.23353 105.539698 
L 340.283537 111.575653 
L 353.182986 117.558995 
L 366.002976 123.488854 
L 386.204824 132.856281 
L 399.55007 139.028412 
L 412.156571 144.875578 
L 425.269509 150.940558 
L 438.106515 156.894874 
L 450.988948 162.853535 
L 466.644259 170.111921 
L 486.772515 179.428823 
L 499.439533 185.304121 
L 506.539527 188.592495 
L 506.539527 188.592495 
" style="fill:none;stroke:#48b700;stroke-width:1.5;"/>
    <path clip-path="url(#p2e471eb6cf)" d="M 569.877635 217.927059 
L 570.209504 218.08402 
L 570.640251 218.279384 
L 571.758487 218.793958 
L 572.567718 219.176683 
L 572.876723 219.316836 
L 573.99496 219.829292 
L 574.925431 220.269347 
L 575.113196 220.354512 
L 576.231433 220.864863 
L 577.282647 221.36201 
L 577.349669 221.39241 
L 578.467906 221.900672 
L 579.586142 222.428527 
L 579.641418 222.454673 
L 580.704379 222.936715 
L 581.822615 223.462367 
L 582.002253 223.547337 
L 582.940852 223.972992 
L 584.059088 224.496455 
L 584.36257 224.64 
" style="fill:none;stroke:#48b700;stroke-width:1.5;"/>
   </g>
   <g id="LineCollection_8"/>
   <g id="line2d_17">
    <defs>
     <path d="M -3 3 
L 3 3 
L 3 -3 
L -3 -3 
z
" id="mbe0e17422a" style="stroke:#0000ff;stroke-linejoin:miter;"/>
    </defs>
    <g clip-path="url(#p2e471eb6cf)">
     <use style="fill:#0000ff;stroke:#0000ff;stroke-linejoin:miter;" x="-1" xlink:href="#mbe0e17422a" y="247.70454"/>
     <use style="fill:#0000ff;stroke:#0000ff;stroke-linejoin:miter;" x="298.99061" xlink:href="#mbe0e17422a" y="155.974737"/>
     <use style="fill:#0000ff;stroke:#0000ff;stroke-linejoin:miter;" x="271.771098" xlink:href="#mbe0e17422a" y="144.530526"/>
     <use style="fill:#0000ff;stroke:#0000ff;stroke-linejoin:miter;" x="326.210122" xlink:href="#mbe0e17422a" y="144.530526"/>
     <use style="fill:#0000ff;stroke:#0000ff;stroke-linejoin:miter;" x="203.722317" xlink:href="#mbe0e17422a" y="167.418947"/>
     <use style="fill:#0000ff;stroke:#0000ff;stroke-linejoin:miter;" x="285.380854" xlink:href="#mbe0e17422a" y="144.530526"/>
     <use style="fill:#0000ff;stroke:#0000ff;stroke-linejoin:miter;" x="271.771098" xlink:href="#mbe0e17422a" y="167.418947"/>
     <use style="fill:#0000ff;stroke:#0000ff;stroke-linejoin:miter;" x="298.99061" xlink:href="#mbe0e17422a" y="133.086316"/>
     <use style="fill:#0000ff;stroke:#0000ff;stroke-linejoin:miter;" x="108.454024" xlink:href="#mbe0e17422a" y="201.751579"/>
     <use style="fill:#0000ff;stroke:#0000ff;stroke-linejoin:miter;" x="285.380854" xlink:href="#mbe0e17422a" y="167.418947"/>
     <use style="fill:#0000ff;stroke:#0000ff;stroke-linejoin:miter;" x="190.112561" xlink:href="#mbe0e17422a" y="155.974737"/>
     <use style="fill:#0000ff;stroke:#0000ff;stroke-linejoin:miter;" x="135.673537" xlink:href="#mbe0e17422a" y="201.751579"/>
     <use style="fill:#0000ff;stroke:#0000ff;stroke-linejoin:miter;" x="230.941829" xlink:href="#mbe0e17422a" y="144.530526"/>
     <use style="fill:#0000ff;stroke:#0000ff;stroke-linejoin:miter;" x="203.722317" xlink:href="#mbe0e17422a" y="201.751579"/>
     <use style="fill:#0000ff;stroke:#0000ff;stroke-linejoin:miter;" x="298.99061" xlink:href="#mbe0e17422a" y="155.974737"/>
     <use style="fill:#0000ff;stroke:#0000ff;stroke-linejoin:miter;" x="149.283293" xlink:href="#mbe0e17422a" y="167.418947"/>
     <use style="fill:#0000ff;stroke:#0000ff;stroke-linejoin:miter;" x="258.161341" xlink:href="#mbe0e17422a" y="155.974737"/>
     <use style="fill:#0000ff;stroke:#0000ff;stroke-linejoin:miter;" x="271.771098" xlink:href="#mbe0e17422a" y="144.530526"/>
     <use style="fill:#0000ff;stroke:#0000ff;stroke-linejoin:miter;" x="217.332073" xlink:href="#mbe0e17422a" y="201.751579"/>
     <use style="fill:#0000ff;stroke:#0000ff;stroke-linejoin:miter;" x="271.771098" xlink:href="#mbe0e17422a" y="144.530526"/>
     <use style="fill:#0000ff;stroke:#0000ff;stroke-linejoin:miter;" x="190.112561" xlink:href="#mbe0e17422a" y="190.307368"/>
     <use style="fill:#0000ff;stroke:#0000ff;stroke-linejoin:miter;" x="312.600366" xlink:href="#mbe0e17422a" y="110.197895"/>
     <use style="fill:#0000ff;stroke:#0000ff;stroke-linejoin:miter;" x="203.722317" xlink:href="#mbe0e17422a" y="167.418947"/>
     <use style="fill:#0000ff;stroke:#0000ff;stroke-linejoin:miter;" x="326.210122" xlink:href="#mbe0e17422a" y="144.530526"/>
     <use style="fill:#0000ff;stroke:#0000ff;stroke-linejoin:miter;" x="298.99061" xlink:href="#mbe0e17422a" y="178.863158"/>
     <use style="fill:#0000ff;stroke:#0000ff;stroke-linejoin:miter;" x="244.551585" xlink:href="#mbe0e17422a" y="167.418947"/>
     <use style="fill:#0000ff;stroke:#0000ff;stroke-linejoin:miter;" x="258.161341" xlink:href="#mbe0e17422a" y="155.974737"/>
     <use style="fill:#0000ff;stroke:#0000ff;stroke-linejoin:miter;" x="312.600366" xlink:href="#mbe0e17422a" y="155.974737"/>
     <use style="fill:#0000ff;stroke:#0000ff;stroke-linejoin:miter;" x="339.819878" xlink:href="#mbe0e17422a" y="121.642105"/>
     <use style="fill:#0000ff;stroke:#0000ff;stroke-linejoin:miter;" x="271.771098" xlink:href="#mbe0e17422a" y="144.530526"/>
     <use style="fill:#0000ff;stroke:#0000ff;stroke-linejoin:miter;" x="135.673537" xlink:href="#mbe0e17422a" y="201.751579"/>
     <use style="fill:#0000ff;stroke:#0000ff;stroke-linejoin:miter;" x="176.502805" xlink:href="#mbe0e17422a" y="190.307368"/>
     <use style="fill:#0000ff;stroke:#0000ff;stroke-linejoin:miter;" x="162.893049" xlink:href="#mbe0e17422a" y="201.751579"/>
     <use style="fill:#0000ff;stroke:#0000ff;stroke-linejoin:miter;" x="190.112561" xlink:href="#mbe0e17422a" y="178.863158"/>
     <use style="fill:#0000ff;stroke:#0000ff;stroke-linejoin:miter;" x="353.429634" xlink:href="#mbe0e17422a" y="133.086316"/>
     <use style="fill:#0000ff;stroke:#0000ff;stroke-linejoin:miter;" x="271.771098" xlink:href="#mbe0e17422a" y="144.530526"/>
     <use style="fill:#0000ff;stroke:#0000ff;stroke-linejoin:miter;" x="271.771098" xlink:href="#mbe0e17422a" y="133.086316"/>
     <use style="fill:#0000ff;stroke:#0000ff;stroke-linejoin:miter;" x="298.99061" xlink:href="#mbe0e17422a" y="144.530526"/>
     <use style="fill:#0000ff;stroke:#0000ff;stroke-linejoin:miter;" x="258.161341" xlink:href="#mbe0e17422a" y="167.418947"/>
     <use style="fill:#0000ff;stroke:#0000ff;stroke-linejoin:miter;" x="217.332073" xlink:href="#mbe0e17422a" y="167.418947"/>
     <use style="fill:#0000ff;stroke:#0000ff;stroke-linejoin:miter;" x="203.722317" xlink:href="#mbe0e17422a" y="167.418947"/>
     <use style="fill:#0000ff;stroke:#0000ff;stroke-linejoin:miter;" x="258.161341" xlink:href="#mbe0e17422a" y="178.863158"/>
     <use style="fill:#0000ff;stroke:#0000ff;stroke-linejoin:miter;" x="285.380854" xlink:href="#mbe0e17422a" y="155.974737"/>
     <use style="fill:#0000ff;stroke:#0000ff;stroke-linejoin:miter;" x="203.722317" xlink:href="#mbe0e17422a" y="178.863158"/>
     <use style="fill:#0000ff;stroke:#0000ff;stroke-linejoin:miter;" x="108.454024" xlink:href="#mbe0e17422a" y="201.751579"/>
     <use style="fill:#0000ff;stroke:#0000ff;stroke-linejoin:miter;" x="230.941829" xlink:href="#mbe0e17422a" y="167.418947"/>
     <use style="fill:#0000ff;stroke:#0000ff;stroke-linejoin:miter;" x="230.941829" xlink:href="#mbe0e17422a" y="178.863158"/>
     <use style="fill:#0000ff;stroke:#0000ff;stroke-linejoin:miter;" x="230.941829" xlink:href="#mbe0e17422a" y="167.418947"/>
     <use style="fill:#0000ff;stroke:#0000ff;stroke-linejoin:miter;" x="244.551585" xlink:href="#mbe0e17422a" y="167.418947"/>
     <use style="fill:#0000ff;stroke:#0000ff;stroke-linejoin:miter;" x="67.624756" xlink:href="#mbe0e17422a" y="190.307368"/>
     <use style="fill:#0000ff;stroke:#0000ff;stroke-linejoin:miter;" x="217.332073" xlink:href="#mbe0e17422a" y="167.418947"/>
    </g>
   </g>
   <g id="line2d_18">
    <defs>
     <path d="M 0 -3 
L -3 3 
L 3 3 
z
" id="m2457af3516" style="stroke:#008000;stroke-linejoin:miter;"/>
    </defs>
    <g clip-path="url(#p2e471eb6cf)">
     <use style="fill:#008000;stroke:#008000;stroke-linejoin:miter;" x="475.917439" xlink:href="#m2457af3516" y="30.088421"/>
     <use style="fill:#008000;stroke:#008000;stroke-linejoin:miter;" x="353.429634" xlink:href="#m2457af3516" y="98.753684"/>
     <use style="fill:#008000;stroke:#008000;stroke-linejoin:miter;" x="462.307683" xlink:href="#m2457af3516" y="75.865263"/>
     <use style="fill:#008000;stroke:#008000;stroke-linejoin:miter;" x="421.478415" xlink:href="#m2457af3516" y="110.197895"/>
     <use style="fill:#008000;stroke:#008000;stroke-linejoin:miter;" x="448.697927" xlink:href="#m2457af3516" y="64.421053"/>
     <use style="fill:#008000;stroke:#008000;stroke-linejoin:miter;" x="557.575976" xlink:href="#m2457af3516" y="75.865263"/>
     <use style="fill:#008000;stroke:#008000;stroke-linejoin:miter;" x="271.771098" xlink:href="#m2457af3516" y="121.642105"/>
     <use style="fill:#008000;stroke:#008000;stroke-linejoin:miter;" x="516.746707" xlink:href="#m2457af3516" y="110.197895"/>
     <use style="fill:#008000;stroke:#008000;stroke-linejoin:miter;" x="448.697927" xlink:href="#m2457af3516" y="110.197895"/>
     <use style="fill:#008000;stroke:#008000;stroke-linejoin:miter;" x="489.527195" xlink:href="#m2457af3516" y="30.088421"/>
     <use style="fill:#008000;stroke:#008000;stroke-linejoin:miter;" x="353.429634" xlink:href="#m2457af3516" y="87.309474"/>
     <use style="fill:#008000;stroke:#008000;stroke-linejoin:miter;" x="380.649146" xlink:href="#m2457af3516" y="98.753684"/>
     <use style="fill:#008000;stroke:#008000;stroke-linejoin:miter;" x="407.868659" xlink:href="#m2457af3516" y="75.865263"/>
     <use style="fill:#008000;stroke:#008000;stroke-linejoin:miter;" x="339.819878" xlink:href="#m2457af3516" y="87.309474"/>
     <use style="fill:#008000;stroke:#008000;stroke-linejoin:miter;" x="353.429634" xlink:href="#m2457af3516" y="41.532632"/>
     <use style="fill:#008000;stroke:#008000;stroke-linejoin:miter;" x="380.649146" xlink:href="#m2457af3516" y="52.976842"/>
     <use style="fill:#008000;stroke:#008000;stroke-linejoin:miter;" x="407.868659" xlink:href="#m2457af3516" y="110.197895"/>
     <use style="fill:#008000;stroke:#008000;stroke-linejoin:miter;" x="571.185732" xlink:href="#m2457af3516" y="64.421053"/>
     <use style="fill:#008000;stroke:#008000;stroke-linejoin:miter;" x="598.405244" xlink:href="#m2457af3516" y="52.976842"/>
     <use style="fill:#008000;stroke:#008000;stroke-linejoin:miter;" x="339.819878" xlink:href="#m2457af3516" y="144.530526"/>
     <use style="fill:#008000;stroke:#008000;stroke-linejoin:miter;" x="435.088171" xlink:href="#m2457af3516" y="52.976842"/>
     <use style="fill:#008000;stroke:#008000;stroke-linejoin:miter;" x="326.210122" xlink:href="#m2457af3516" y="87.309474"/>
     <use style="fill:#008000;stroke:#008000;stroke-linejoin:miter;" x="571.185732" xlink:href="#m2457af3516" y="87.309474"/>
     <use style="fill:#008000;stroke:#008000;stroke-linejoin:miter;" x="326.210122" xlink:href="#m2457af3516" y="110.197895"/>
     <use style="fill:#008000;stroke:#008000;stroke-linejoin:miter;" x="435.088171" xlink:href="#m2457af3516" y="75.865263"/>
     <use style="fill:#008000;stroke:#008000;stroke-linejoin:miter;" x="475.917439" xlink:href="#m2457af3516" y="110.197895"/>
     <use style="fill:#008000;stroke:#008000;stroke-linejoin:miter;" x="312.600366" xlink:href="#m2457af3516" y="110.197895"/>
     <use style="fill:#008000;stroke:#008000;stroke-linejoin:miter;" x="326.210122" xlink:href="#m2457af3516" y="110.197895"/>
     <use style="fill:#008000;stroke:#008000;stroke-linejoin:miter;" x="421.478415" xlink:href="#m2457af3516" y="75.865263"/>
     <use style="fill:#008000;stroke:#008000;stroke-linejoin:miter;" x="448.697927" xlink:href="#m2457af3516" y="133.086316"/>
     <use style="fill:#008000;stroke:#008000;stroke-linejoin:miter;" x="489.527195" xlink:href="#m2457af3516" y="98.753684"/>
     <use style="fill:#008000;stroke:#008000;stroke-linejoin:miter;" x="530.356463" xlink:href="#m2457af3516" y="87.309474"/>
     <use style="fill:#008000;stroke:#008000;stroke-linejoin:miter;" x="421.478415" xlink:href="#m2457af3516" y="64.421053"/>
     <use style="fill:#008000;stroke:#008000;stroke-linejoin:miter;" x="353.429634" xlink:href="#m2457af3516" y="144.530526"/>
     <use style="fill:#008000;stroke:#008000;stroke-linejoin:miter;" x="421.478415" xlink:href="#m2457af3516" y="155.974737"/>
     <use style="fill:#008000;stroke:#008000;stroke-linejoin:miter;" x="489.527195" xlink:href="#m2457af3516" y="52.976842"/>
     <use style="fill:#008000;stroke:#008000;stroke-linejoin:miter;" x="421.478415" xlink:href="#m2457af3516" y="41.532632"/>
     <use style="fill:#008000;stroke:#008000;stroke-linejoin:miter;" x="407.868659" xlink:href="#m2457af3516" y="110.197895"/>
     <use style="fill:#008000;stroke:#008000;stroke-linejoin:miter;" x="312.600366" xlink:href="#m2457af3516" y="110.197895"/>
     <use style="fill:#008000;stroke:#008000;stroke-linejoin:miter;" x="394.258902" xlink:href="#m2457af3516" y="75.865263"/>
     <use style="fill:#008000;stroke:#008000;stroke-linejoin:miter;" x="421.478415" xlink:href="#m2457af3516" y="41.532632"/>
     <use style="fill:#008000;stroke:#008000;stroke-linejoin:miter;" x="353.429634" xlink:href="#m2457af3516" y="52.976842"/>
     <use style="fill:#008000;stroke:#008000;stroke-linejoin:miter;" x="353.429634" xlink:href="#m2457af3516" y="98.753684"/>
     <use style="fill:#008000;stroke:#008000;stroke-linejoin:miter;" x="462.307683" xlink:href="#m2457af3516" y="52.976842"/>
     <use style="fill:#008000;stroke:#008000;stroke-linejoin:miter;" x="435.088171" xlink:href="#m2457af3516" y="30.088421"/>
     <use style="fill:#008000;stroke:#008000;stroke-linejoin:miter;" x="367.03939" xlink:href="#m2457af3516" y="52.976842"/>
     <use style="fill:#008000;stroke:#008000;stroke-linejoin:miter;" x="339.819878" xlink:href="#m2457af3516" y="98.753684"/>
     <use style="fill:#008000;stroke:#008000;stroke-linejoin:miter;" x="367.03939" xlink:href="#m2457af3516" y="87.309474"/>
     <use style="fill:#008000;stroke:#008000;stroke-linejoin:miter;" x="394.258902" xlink:href="#m2457af3516" y="52.976842"/>
     <use style="fill:#008000;stroke:#008000;stroke-linejoin:miter;" x="353.429634" xlink:href="#m2457af3516" y="110.197895"/>
    </g>
   </g>
   <g id="line2d_19">
    <path clip-path="url(#p2e471eb6cf)" d="M 54.015 3.05929 
L 612.015 261.520334 
" style="fill:none;stroke:#000000;stroke-dasharray:11.1,4.8;stroke-dashoffset:0;stroke-width:3;"/>
   </g>
   <g id="patch_3">
    <path d="M 54.015 224.64 
L 54.015 7.2 
" style="fill:none;stroke:#000000;stroke-linecap:square;stroke-linejoin:miter;stroke-width:0.8;"/>
   </g>
   <g id="patch_4">
    <path d="M 612.015 224.64 
L 612.015 7.2 
" style="fill:none;stroke:#000000;stroke-linecap:square;stroke-linejoin:miter;stroke-width:0.8;"/>
   </g>
   <g id="patch_5">
    <path d="M 54.015 224.64 
L 612.015 224.64 
" style="fill:none;stroke:#000000;stroke-linecap:square;stroke-linejoin:miter;stroke-width:0.8;"/>
   </g>
   <g id="patch_6">
    <path d="M 54.015 7.2 
L 612.015 7.2 
" style="fill:none;stroke:#000000;stroke-linecap:square;stroke-linejoin:miter;stroke-width:0.8;"/>
   </g>
   <g id="text_19">
    <!-- Not Iris virginica -->
    <g style="fill:#0000ff;" transform="translate(78.674943 144.530526)scale(0.14 -0.14)">
     <defs>
      <path d="M 9.8125 72.90625 
L 23.09375 72.90625 
L 55.421875 11.921875 
L 55.421875 72.90625 
L 64.984375 72.90625 
L 64.984375 0 
L 51.703125 0 
L 19.390625 60.984375 
L 19.390625 0 
L 9.8125 0 
z
" id="DejaVuSans-78"/>
      <path d="M 30.609375 48.390625 
Q 23.390625 48.390625 19.1875 42.75 
Q 14.984375 37.109375 14.984375 27.296875 
Q 14.984375 17.484375 19.15625 11.84375 
Q 23.34375 6.203125 30.609375 6.203125 
Q 37.796875 6.203125 41.984375 11.859375 
Q 46.1875 17.53125 46.1875 27.296875 
Q 46.1875 37.015625 41.984375 42.703125 
Q 37.796875 48.390625 30.609375 48.390625 
z
M 30.609375 56 
Q 42.328125 56 49.015625 48.375 
Q 55.71875 40.765625 55.71875 27.296875 
Q 55.71875 13.875 49.015625 6.21875 
Q 42.328125 -1.421875 30.609375 -1.421875 
Q 18.84375 -1.421875 12.171875 6.21875 
Q 5.515625 13.875 5.515625 27.296875 
Q 5.515625 40.765625 12.171875 48.375 
Q 18.84375 56 30.609375 56 
z
" id="DejaVuSans-111"/>
      <path d="M 9.8125 72.90625 
L 19.671875 72.90625 
L 19.671875 0 
L 9.8125 0 
z
" id="DejaVuSans-73"/>
      <path d="M 41.109375 46.296875 
Q 39.59375 47.171875 37.8125 47.578125 
Q 36.03125 48 33.890625 48 
Q 26.265625 48 22.1875 43.046875 
Q 18.109375 38.09375 18.109375 28.8125 
L 18.109375 0 
L 9.078125 0 
L 9.078125 54.6875 
L 18.109375 54.6875 
L 18.109375 46.1875 
Q 20.953125 51.171875 25.484375 53.578125 
Q 30.03125 56 36.53125 56 
Q 37.453125 56 38.578125 55.875 
Q 39.703125 55.765625 41.0625 55.515625 
z
" id="DejaVuSans-114"/>
      <path d="M 44.28125 53.078125 
L 44.28125 44.578125 
Q 40.484375 46.53125 36.375 47.5 
Q 32.28125 48.484375 27.875 48.484375 
Q 21.1875 48.484375 17.84375 46.4375 
Q 14.5 44.390625 14.5 40.28125 
Q 14.5 37.15625 16.890625 35.375 
Q 19.28125 33.59375 26.515625 31.984375 
L 29.59375 31.296875 
Q 39.15625 29.25 43.1875 25.515625 
Q 47.21875 21.78125 47.21875 15.09375 
Q 47.21875 7.46875 41.1875 3.015625 
Q 35.15625 -1.421875 24.609375 -1.421875 
Q 20.21875 -1.421875 15.453125 -0.5625 
Q 10.6875 0.296875 5.421875 2 
L 5.421875 11.28125 
Q 10.40625 8.6875 15.234375 7.390625 
Q 20.0625 6.109375 24.8125 6.109375 
Q 31.15625 6.109375 34.5625 8.28125 
Q 37.984375 10.453125 37.984375 14.40625 
Q 37.984375 18.0625 35.515625 20.015625 
Q 33.0625 21.96875 24.703125 23.78125 
L 21.578125 24.515625 
Q 13.234375 26.265625 9.515625 29.90625 
Q 5.8125 33.546875 5.8125 39.890625 
Q 5.8125 47.609375 11.28125 51.796875 
Q 16.75 56 26.8125 56 
Q 31.78125 56 36.171875 55.265625 
Q 40.578125 54.546875 44.28125 53.078125 
z
" id="DejaVuSans-115"/>
      <path d="M 2.984375 54.6875 
L 12.5 54.6875 
L 29.59375 8.796875 
L 46.6875 54.6875 
L 56.203125 54.6875 
L 35.6875 0 
L 23.484375 0 
z
" id="DejaVuSans-118"/>
      <path d="M 48.78125 52.59375 
L 48.78125 44.1875 
Q 44.96875 46.296875 41.140625 47.34375 
Q 37.3125 48.390625 33.40625 48.390625 
Q 24.65625 48.390625 19.8125 42.84375 
Q 14.984375 37.3125 14.984375 27.296875 
Q 14.984375 17.28125 19.8125 11.734375 
Q 24.65625 6.203125 33.40625 6.203125 
Q 37.3125 6.203125 41.140625 7.25 
Q 44.96875 8.296875 48.78125 10.40625 
L 48.78125 2.09375 
Q 45.015625 0.34375 40.984375 -0.53125 
Q 36.96875 -1.421875 32.421875 -1.421875 
Q 20.0625 -1.421875 12.78125 6.34375 
Q 5.515625 14.109375 5.515625 27.296875 
Q 5.515625 40.671875 12.859375 48.328125 
Q 20.21875 56 33.015625 56 
Q 37.15625 56 41.109375 55.140625 
Q 45.0625 54.296875 48.78125 52.59375 
z
" id="DejaVuSans-99"/>
     </defs>
     <use xlink:href="#DejaVuSans-78"/>
     <use x="74.804688" xlink:href="#DejaVuSans-111"/>
     <use x="135.986328" xlink:href="#DejaVuSans-116"/>
     <use x="175.195312" xlink:href="#DejaVuSans-32"/>
     <use x="206.982422" xlink:href="#DejaVuSans-73"/>
     <use x="236.474609" xlink:href="#DejaVuSans-114"/>
     <use x="277.587891" xlink:href="#DejaVuSans-105"/>
     <use x="305.371094" xlink:href="#DejaVuSans-115"/>
     <use x="357.470703" xlink:href="#DejaVuSans-32"/>
     <use x="389.257812" xlink:href="#DejaVuSans-118"/>
     <use x="448.4375" xlink:href="#DejaVuSans-105"/>
     <use x="476.220703" xlink:href="#DejaVuSans-114"/>
     <use x="515.583984" xlink:href="#DejaVuSans-103"/>
     <use x="579.060547" xlink:href="#DejaVuSans-105"/>
     <use x="606.84375" xlink:href="#DejaVuSans-110"/>
     <use x="670.222656" xlink:href="#DejaVuSans-105"/>
     <use x="698.005859" xlink:href="#DejaVuSans-99"/>
     <use x="752.986328" xlink:href="#DejaVuSans-97"/>
    </g>
   </g>
   <g id="text_20">
    <!-- Iris virginica -->
    <g style="fill:#008000;" transform="translate(501.456532 52.976842)scale(0.14 -0.14)">
     <use xlink:href="#DejaVuSans-73"/>
     <use x="29.492188" xlink:href="#DejaVuSans-114"/>
     <use x="70.605469" xlink:href="#DejaVuSans-105"/>
     <use x="98.388672" xlink:href="#DejaVuSans-115"/>
     <use x="150.488281" xlink:href="#DejaVuSans-32"/>
     <use x="182.275391" xlink:href="#DejaVuSans-118"/>
     <use x="241.455078" xlink:href="#DejaVuSans-105"/>
     <use x="269.238281" xlink:href="#DejaVuSans-114"/>
     <use x="308.601562" xlink:href="#DejaVuSans-103"/>
     <use x="372.078125" xlink:href="#DejaVuSans-105"/>
     <use x="399.861328" xlink:href="#DejaVuSans-110"/>
     <use x="463.240234" xlink:href="#DejaVuSans-105"/>
     <use x="491.023438" xlink:href="#DejaVuSans-99"/>
     <use x="546.003906" xlink:href="#DejaVuSans-97"/>
    </g>
   </g>
   <g id="text_21">
    <g clip-path="url(#p2e471eb6cf)">
     <!-- 0.150 -->
     <g style="fill:#4800b7;" transform="translate(105.365618 49.009215)rotate(-333.648882)scale(0.12 -0.12)">
      <use xlink:href="#DejaVuSans-48"/>
      <use x="63.623047" xlink:href="#DejaVuSans-46"/>
      <use x="95.410156" xlink:href="#DejaVuSans-49"/>
      <use x="159.033203" xlink:href="#DejaVuSans-53"/>
      <use x="222.65625" xlink:href="#DejaVuSans-48"/>
     </g>
    </g>
   </g>
   <g id="text_22">
    <g clip-path="url(#p2e471eb6cf)">
     <!-- 0.300 -->
     <g style="fill:#92006d;" transform="translate(433.008917 191.046614)rotate(-333.648734)scale(0.12 -0.12)">
      <use xlink:href="#DejaVuSans-48"/>
      <use x="63.623047" xlink:href="#DejaVuSans-46"/>
      <use x="95.410156" xlink:href="#DejaVuSans-51"/>
      <use x="159.033203" xlink:href="#DejaVuSans-48"/>
      <use x="222.65625" xlink:href="#DejaVuSans-48"/>
     </g>
    </g>
   </g>
   <g id="text_23">
    <g clip-path="url(#p2e471eb6cf)">
     <!-- 0.450 -->
     <g style="fill:#da0025;" transform="translate(327.894697 135.27083)rotate(-333.648632)scale(0.12 -0.12)">
      <use xlink:href="#DejaVuSans-48"/>
      <use x="63.623047" xlink:href="#DejaVuSans-46"/>
      <use x="95.410156" xlink:href="#DejaVuSans-52"/>
      <use x="159.033203" xlink:href="#DejaVuSans-53"/>
      <use x="222.65625" xlink:href="#DejaVuSans-48"/>
     </g>
    </g>
   </g>
   <g id="text_24">
    <g clip-path="url(#p2e471eb6cf)">
     <!-- 0.600 -->
     <g style="fill:#da2500;" transform="translate(260.800506 97.551389)rotate(-333.648655)scale(0.12 -0.12)">
      <use xlink:href="#DejaVuSans-48"/>
      <use x="63.623047" xlink:href="#DejaVuSans-46"/>
      <use x="95.410156" xlink:href="#DejaVuSans-54"/>
      <use x="159.033203" xlink:href="#DejaVuSans-48"/>
      <use x="222.65625" xlink:href="#DejaVuSans-48"/>
     </g>
    </g>
   </g>
   <g id="text_25">
    <g clip-path="url(#p2e471eb6cf)">
     <!-- 0.750 -->
     <g style="fill:#926d00;" transform="translate(194.824559 59.398257)rotate(-333.648604)scale(0.12 -0.12)">
      <use xlink:href="#DejaVuSans-48"/>
      <use x="63.623047" xlink:href="#DejaVuSans-46"/>
      <use x="95.410156" xlink:href="#DejaVuSans-55"/>
      <use x="159.033203" xlink:href="#DejaVuSans-53"/>
      <use x="222.65625" xlink:href="#DejaVuSans-48"/>
     </g>
    </g>
   </g>
   <g id="text_26">
    <g clip-path="url(#p2e471eb6cf)">
     <!-- 0.900 -->
     <g style="fill:#48b700;" transform="translate(521.349477 198.597644)rotate(-333.65023)scale(0.12 -0.12)">
      <defs>
       <path d="M 10.984375 1.515625 
L 10.984375 10.5 
Q 14.703125 8.734375 18.5 7.8125 
Q 22.3125 6.890625 25.984375 6.890625 
Q 35.75 6.890625 40.890625 13.453125 
Q 46.046875 20.015625 46.78125 33.40625 
Q 43.953125 29.203125 39.59375 26.953125 
Q 35.25 24.703125 29.984375 24.703125 
Q 19.046875 24.703125 12.671875 31.3125 
Q 6.296875 37.9375 6.296875 49.421875 
Q 6.296875 60.640625 12.9375 67.421875 
Q 19.578125 74.21875 30.609375 74.21875 
Q 43.265625 74.21875 49.921875 64.515625 
Q 56.59375 54.828125 56.59375 36.375 
Q 56.59375 19.140625 48.40625 8.859375 
Q 40.234375 -1.421875 26.421875 -1.421875 
Q 22.703125 -1.421875 18.890625 -0.6875 
Q 15.09375 0.046875 10.984375 1.515625 
z
M 30.609375 32.421875 
Q 37.25 32.421875 41.125 36.953125 
Q 45.015625 41.5 45.015625 49.421875 
Q 45.015625 57.28125 41.125 61.84375 
Q 37.25 66.40625 30.609375 66.40625 
Q 23.96875 66.40625 20.09375 61.84375 
Q 16.21875 57.28125 16.21875 49.421875 
Q 16.21875 41.5 20.09375 36.953125 
Q 23.96875 32.421875 30.609375 32.421875 
z
" id="DejaVuSans-57"/>
      </defs>
      <use xlink:href="#DejaVuSans-48"/>
      <use x="63.623047" xlink:href="#DejaVuSans-46"/>
      <use x="95.410156" xlink:href="#DejaVuSans-57"/>
      <use x="159.033203" xlink:href="#DejaVuSans-48"/>
      <use x="222.65625" xlink:href="#DejaVuSans-48"/>
     </g>
    </g>
   </g>
  </g>
 </g>
 <defs>
  <clipPath id="p2e471eb6cf">
   <rect height="217.44" width="558" x="54.015" y="7.2"/>
  </clipPath>
 </defs>
</svg>
