<?xml version="1.0" encoding="utf-8" standalone="no"?>
<!DOCTYPE svg PUBLIC "-//W3C//DTD SVG 1.1//EN"
  "http://www.w3.org/Graphics/SVG/1.1/DTD/svg11.dtd">
<!-- Created with matplotlib (https://matplotlib.org/) -->
<svg height="205.654844pt" version="1.1" viewBox="0 0 912.437631 205.654844" width="912.437631pt" xmlns="http://www.w3.org/2000/svg" xmlns:xlink="http://www.w3.org/1999/xlink">
 <metadata>
  <rdf:RDF xmlns:cc="http://creativecommons.org/ns#" xmlns:dc="http://purl.org/dc/elements/1.1/" xmlns:rdf="http://www.w3.org/1999/02/22-rdf-syntax-ns#">
   <cc:Work>
    <dc:type rdf:resource="http://purl.org/dc/dcmitype/StillImage"/>
    <dc:date>2020-10-19T19:39:01.882501</dc:date>
    <dc:format>image/svg+xml</dc:format>
    <dc:creator>
     <cc:Agent>
      <dc:title>Matplotlib v3.3.2, https://matplotlib.org/</dc:title>
     </cc:Agent>
    </dc:creator>
   </cc:Work>
  </rdf:RDF>
 </metadata>
 <defs>
  <style type="text/css">*{stroke-linecap:butt;stroke-linejoin:round;}</style>
 </defs>
 <g id="figure_1">
  <g id="patch_1">
   <path d="M 0 205.654844 
L 912.437631 205.654844 
L 912.437631 0 
L 0 0 
z
" style="fill:#ffffff;"/>
  </g>
  <g id="axes_1">
   <g id="patch_2">
    <path d="M 38.107031 163.78 
L 845.992131 163.78 
L 845.992131 7.2 
L 38.107031 7.2 
z
" style="fill:#eaeaf2;"/>
   </g>
   <g id="matplotlib.axis_1">
    <g id="xtick_1">
     <g id="line2d_1">
      <path clip-path="url(#pceee3b1d5d)" d="M 38.107031 163.78 
L 38.107031 7.2 
" style="fill:none;stroke:#ffffff;stroke-linecap:round;"/>
     </g>
     <g id="text_1">
      <!-- 40.0 -->
      <g style="fill:#262626;" transform="translate(27.403516 181.153594)scale(0.11 -0.11)">
       <defs>
        <path d="M 32.328125 0 
L 32.328125 17.140625 
L 1.265625 17.140625 
L 1.265625 25.203125 
L 33.9375 71.578125 
L 41.109375 71.578125 
L 41.109375 25.203125 
L 50.78125 25.203125 
L 50.78125 17.140625 
L 41.109375 17.140625 
L 41.109375 0 
z
M 32.328125 25.203125 
L 32.328125 57.46875 
L 9.90625 25.203125 
z
" id="ArialMT-52"/>
        <path d="M 4.15625 35.296875 
Q 4.15625 48 6.765625 55.734375 
Q 9.375 63.484375 14.515625 67.671875 
Q 19.671875 71.875 27.484375 71.875 
Q 33.25 71.875 37.59375 69.546875 
Q 41.9375 67.234375 44.765625 62.859375 
Q 47.609375 58.5 49.21875 52.21875 
Q 50.828125 45.953125 50.828125 35.296875 
Q 50.828125 22.703125 48.234375 14.96875 
Q 45.65625 7.234375 40.5 3 
Q 35.359375 -1.21875 27.484375 -1.21875 
Q 17.140625 -1.21875 11.234375 6.203125 
Q 4.15625 15.140625 4.15625 35.296875 
z
M 13.1875 35.296875 
Q 13.1875 17.671875 17.3125 11.828125 
Q 21.4375 6 27.484375 6 
Q 33.546875 6 37.671875 11.859375 
Q 41.796875 17.71875 41.796875 35.296875 
Q 41.796875 52.984375 37.671875 58.78125 
Q 33.546875 64.59375 27.390625 64.59375 
Q 21.34375 64.59375 17.71875 59.46875 
Q 13.1875 52.9375 13.1875 35.296875 
z
" id="ArialMT-48"/>
        <path d="M 9.078125 0 
L 9.078125 10.015625 
L 19.09375 10.015625 
L 19.09375 0 
z
" id="ArialMT-46"/>
       </defs>
       <use xlink:href="#ArialMT-52"/>
       <use x="55.615234" xlink:href="#ArialMT-48"/>
       <use x="111.230469" xlink:href="#ArialMT-46"/>
       <use x="139.013672" xlink:href="#ArialMT-48"/>
      </g>
     </g>
    </g>
    <g id="xtick_2">
     <g id="line2d_2">
      <path clip-path="url(#pceee3b1d5d)" d="M 139.092669 163.78 
L 139.092669 7.2 
" style="fill:none;stroke:#ffffff;stroke-linecap:round;"/>
     </g>
     <g id="text_2">
      <!-- 42.5 -->
      <g style="fill:#262626;" transform="translate(128.389153 181.153594)scale(0.11 -0.11)">
       <defs>
        <path d="M 50.34375 8.453125 
L 50.34375 0 
L 3.03125 0 
Q 2.9375 3.171875 4.046875 6.109375 
Q 5.859375 10.9375 9.828125 15.625 
Q 13.8125 20.3125 21.34375 26.46875 
Q 33.015625 36.03125 37.109375 41.625 
Q 41.21875 47.21875 41.21875 52.203125 
Q 41.21875 57.421875 37.46875 61 
Q 33.734375 64.59375 27.734375 64.59375 
Q 21.390625 64.59375 17.578125 60.78125 
Q 13.765625 56.984375 13.71875 50.25 
L 4.6875 51.171875 
Q 5.609375 61.28125 11.65625 66.578125 
Q 17.71875 71.875 27.9375 71.875 
Q 38.234375 71.875 44.234375 66.15625 
Q 50.25 60.453125 50.25 52 
Q 50.25 47.703125 48.484375 43.546875 
Q 46.734375 39.40625 42.65625 34.8125 
Q 38.578125 30.21875 29.109375 22.21875 
Q 21.1875 15.578125 18.9375 13.203125 
Q 16.703125 10.84375 15.234375 8.453125 
z
" id="ArialMT-50"/>
        <path d="M 4.15625 18.75 
L 13.375 19.53125 
Q 14.40625 12.796875 18.140625 9.390625 
Q 21.875 6 27.15625 6 
Q 33.5 6 37.890625 10.78125 
Q 42.28125 15.578125 42.28125 23.484375 
Q 42.28125 31 38.0625 35.34375 
Q 33.84375 39.703125 27 39.703125 
Q 22.75 39.703125 19.328125 37.765625 
Q 15.921875 35.84375 13.96875 32.765625 
L 5.71875 33.84375 
L 12.640625 70.609375 
L 48.25 70.609375 
L 48.25 62.203125 
L 19.671875 62.203125 
L 15.828125 42.96875 
Q 22.265625 47.46875 29.34375 47.46875 
Q 38.71875 47.46875 45.15625 40.96875 
Q 51.609375 34.46875 51.609375 24.265625 
Q 51.609375 14.546875 45.953125 7.46875 
Q 39.0625 -1.21875 27.15625 -1.21875 
Q 17.390625 -1.21875 11.203125 4.25 
Q 5.03125 9.71875 4.15625 18.75 
z
" id="ArialMT-53"/>
       </defs>
       <use xlink:href="#ArialMT-52"/>
       <use x="55.615234" xlink:href="#ArialMT-50"/>
       <use x="111.230469" xlink:href="#ArialMT-46"/>
       <use x="139.013672" xlink:href="#ArialMT-53"/>
      </g>
     </g>
    </g>
    <g id="xtick_3">
     <g id="line2d_3">
      <path clip-path="url(#pceee3b1d5d)" d="M 240.078306 163.78 
L 240.078306 7.2 
" style="fill:none;stroke:#ffffff;stroke-linecap:round;"/>
     </g>
     <g id="text_3">
      <!-- 45.0 -->
      <g style="fill:#262626;" transform="translate(229.374791 181.153594)scale(0.11 -0.11)">
       <use xlink:href="#ArialMT-52"/>
       <use x="55.615234" xlink:href="#ArialMT-53"/>
       <use x="111.230469" xlink:href="#ArialMT-46"/>
       <use x="139.013672" xlink:href="#ArialMT-48"/>
      </g>
     </g>
    </g>
    <g id="xtick_4">
     <g id="line2d_4">
      <path clip-path="url(#pceee3b1d5d)" d="M 341.063944 163.78 
L 341.063944 7.2 
" style="fill:none;stroke:#ffffff;stroke-linecap:round;"/>
     </g>
     <g id="text_4">
      <!-- 47.5 -->
      <g style="fill:#262626;" transform="translate(330.360428 181.153594)scale(0.11 -0.11)">
       <defs>
        <path d="M 4.734375 62.203125 
L 4.734375 70.65625 
L 51.078125 70.65625 
L 51.078125 63.8125 
Q 44.234375 56.546875 37.515625 44.484375 
Q 30.8125 32.421875 27.15625 19.671875 
Q 24.515625 10.6875 23.78125 0 
L 14.75 0 
Q 14.890625 8.453125 18.0625 20.40625 
Q 21.234375 32.375 27.171875 43.484375 
Q 33.109375 54.59375 39.796875 62.203125 
z
" id="ArialMT-55"/>
       </defs>
       <use xlink:href="#ArialMT-52"/>
       <use x="55.615234" xlink:href="#ArialMT-55"/>
       <use x="111.230469" xlink:href="#ArialMT-46"/>
       <use x="139.013672" xlink:href="#ArialMT-53"/>
      </g>
     </g>
    </g>
    <g id="xtick_5">
     <g id="line2d_5">
      <path clip-path="url(#pceee3b1d5d)" d="M 442.049581 163.78 
L 442.049581 7.2 
" style="fill:none;stroke:#ffffff;stroke-linecap:round;"/>
     </g>
     <g id="text_5">
      <!-- 50.0 -->
      <g style="fill:#262626;" transform="translate(431.346066 181.153594)scale(0.11 -0.11)">
       <use xlink:href="#ArialMT-53"/>
       <use x="55.615234" xlink:href="#ArialMT-48"/>
       <use x="111.230469" xlink:href="#ArialMT-46"/>
       <use x="139.013672" xlink:href="#ArialMT-48"/>
      </g>
     </g>
    </g>
    <g id="xtick_6">
     <g id="line2d_6">
      <path clip-path="url(#pceee3b1d5d)" d="M 543.035219 163.78 
L 543.035219 7.2 
" style="fill:none;stroke:#ffffff;stroke-linecap:round;"/>
     </g>
     <g id="text_6">
      <!-- 52.5 -->
      <g style="fill:#262626;" transform="translate(532.331703 181.153594)scale(0.11 -0.11)">
       <use xlink:href="#ArialMT-53"/>
       <use x="55.615234" xlink:href="#ArialMT-50"/>
       <use x="111.230469" xlink:href="#ArialMT-46"/>
       <use x="139.013672" xlink:href="#ArialMT-53"/>
      </g>
     </g>
    </g>
    <g id="xtick_7">
     <g id="line2d_7">
      <path clip-path="url(#pceee3b1d5d)" d="M 644.020856 163.78 
L 644.020856 7.2 
" style="fill:none;stroke:#ffffff;stroke-linecap:round;"/>
     </g>
     <g id="text_7">
      <!-- 55.0 -->
      <g style="fill:#262626;" transform="translate(633.31734 181.153594)scale(0.11 -0.11)">
       <use xlink:href="#ArialMT-53"/>
       <use x="55.615234" xlink:href="#ArialMT-53"/>
       <use x="111.230469" xlink:href="#ArialMT-46"/>
       <use x="139.013672" xlink:href="#ArialMT-48"/>
      </g>
     </g>
    </g>
    <g id="xtick_8">
     <g id="line2d_8">
      <path clip-path="url(#pceee3b1d5d)" d="M 745.006494 163.78 
L 745.006494 7.2 
" style="fill:none;stroke:#ffffff;stroke-linecap:round;"/>
     </g>
     <g id="text_8">
      <!-- 57.5 -->
      <g style="fill:#262626;" transform="translate(734.302978 181.153594)scale(0.11 -0.11)">
       <use xlink:href="#ArialMT-53"/>
       <use x="55.615234" xlink:href="#ArialMT-55"/>
       <use x="111.230469" xlink:href="#ArialMT-46"/>
       <use x="139.013672" xlink:href="#ArialMT-53"/>
      </g>
     </g>
    </g>
    <g id="xtick_9">
     <g id="line2d_9">
      <path clip-path="url(#pceee3b1d5d)" d="M 845.992131 163.78 
L 845.992131 7.2 
" style="fill:none;stroke:#ffffff;stroke-linecap:round;"/>
     </g>
     <g id="text_9">
      <!-- 60.0 -->
      <g style="fill:#262626;" transform="translate(835.288615 181.153594)scale(0.11 -0.11)">
       <defs>
        <path d="M 49.75 54.046875 
L 41.015625 53.375 
Q 39.84375 58.546875 37.703125 60.890625 
Q 34.125 64.65625 28.90625 64.65625 
Q 24.703125 64.65625 21.53125 62.3125 
Q 17.390625 59.28125 14.984375 53.46875 
Q 12.59375 47.65625 12.5 36.921875 
Q 15.671875 41.75 20.265625 44.09375 
Q 24.859375 46.4375 29.890625 46.4375 
Q 38.671875 46.4375 44.84375 39.96875 
Q 51.03125 33.5 51.03125 23.25 
Q 51.03125 16.5 48.125 10.71875 
Q 45.21875 4.9375 40.140625 1.859375 
Q 35.0625 -1.21875 28.609375 -1.21875 
Q 17.625 -1.21875 10.6875 6.859375 
Q 3.765625 14.9375 3.765625 33.5 
Q 3.765625 54.25 11.421875 63.671875 
Q 18.109375 71.875 29.4375 71.875 
Q 37.890625 71.875 43.28125 67.140625 
Q 48.6875 62.40625 49.75 54.046875 
z
M 13.875 23.1875 
Q 13.875 18.65625 15.796875 14.5 
Q 17.71875 10.359375 21.1875 8.171875 
Q 24.65625 6 28.46875 6 
Q 34.03125 6 38.03125 10.484375 
Q 42.046875 14.984375 42.046875 22.703125 
Q 42.046875 30.125 38.078125 34.390625 
Q 34.125 38.671875 28.125 38.671875 
Q 22.171875 38.671875 18.015625 34.390625 
Q 13.875 30.125 13.875 23.1875 
z
" id="ArialMT-54"/>
       </defs>
       <use xlink:href="#ArialMT-54"/>
       <use x="55.615234" xlink:href="#ArialMT-48"/>
       <use x="111.230469" xlink:href="#ArialMT-46"/>
       <use x="139.013672" xlink:href="#ArialMT-48"/>
      </g>
     </g>
    </g>
    <g id="text_10">
     <!-- Age -->
     <g style="fill:#262626;" transform="translate(431.374269 195.929219)scale(0.12 -0.12)">
      <defs>
       <path d="M -0.140625 0 
L 27.34375 71.578125 
L 37.546875 71.578125 
L 66.84375 0 
L 56.0625 0 
L 47.703125 21.6875 
L 17.78125 21.6875 
L 9.90625 0 
z
M 20.515625 29.390625 
L 44.78125 29.390625 
L 37.3125 49.21875 
Q 33.890625 58.25 32.234375 64.0625 
Q 30.859375 57.171875 28.375 50.390625 
z
" id="ArialMT-65"/>
       <path d="M 4.984375 -4.296875 
L 13.53125 -5.5625 
Q 14.0625 -9.515625 16.5 -11.328125 
Q 19.78125 -13.765625 25.4375 -13.765625 
Q 31.546875 -13.765625 34.859375 -11.328125 
Q 38.1875 -8.890625 39.359375 -4.5 
Q 40.046875 -1.8125 39.984375 6.78125 
Q 34.234375 0 25.640625 0 
Q 14.9375 0 9.078125 7.71875 
Q 3.21875 15.4375 3.21875 26.21875 
Q 3.21875 33.640625 5.90625 39.90625 
Q 8.59375 46.1875 13.6875 49.609375 
Q 18.796875 53.03125 25.6875 53.03125 
Q 34.859375 53.03125 40.828125 45.609375 
L 40.828125 51.859375 
L 48.921875 51.859375 
L 48.921875 7.03125 
Q 48.921875 -5.078125 46.453125 -10.125 
Q 44 -15.1875 38.640625 -18.109375 
Q 33.296875 -21.046875 25.484375 -21.046875 
Q 16.21875 -21.046875 10.5 -16.875 
Q 4.78125 -12.703125 4.984375 -4.296875 
z
M 12.25 26.859375 
Q 12.25 16.65625 16.296875 11.96875 
Q 20.359375 7.28125 26.46875 7.28125 
Q 32.515625 7.28125 36.609375 11.9375 
Q 40.71875 16.609375 40.71875 26.5625 
Q 40.71875 36.078125 36.5 40.90625 
Q 32.28125 45.75 26.3125 45.75 
Q 20.453125 45.75 16.34375 40.984375 
Q 12.25 36.234375 12.25 26.859375 
z
" id="ArialMT-103"/>
       <path d="M 42.09375 16.703125 
L 51.171875 15.578125 
Q 49.03125 7.625 43.21875 3.21875 
Q 37.40625 -1.171875 28.375 -1.171875 
Q 17 -1.171875 10.328125 5.828125 
Q 3.65625 12.84375 3.65625 25.484375 
Q 3.65625 38.578125 10.390625 45.796875 
Q 17.140625 53.03125 27.875 53.03125 
Q 38.28125 53.03125 44.875 45.953125 
Q 51.46875 38.875 51.46875 26.03125 
Q 51.46875 25.25 51.421875 23.6875 
L 12.75 23.6875 
Q 13.234375 15.140625 17.578125 10.59375 
Q 21.921875 6.0625 28.421875 6.0625 
Q 33.25 6.0625 36.671875 8.59375 
Q 40.09375 11.140625 42.09375 16.703125 
z
M 13.234375 30.90625 
L 42.1875 30.90625 
Q 41.609375 37.453125 38.875 40.71875 
Q 34.671875 45.796875 27.984375 45.796875 
Q 21.921875 45.796875 17.796875 41.75 
Q 13.671875 37.703125 13.234375 30.90625 
z
" id="ArialMT-101"/>
      </defs>
      <use xlink:href="#ArialMT-65"/>
      <use x="66.699219" xlink:href="#ArialMT-103"/>
      <use x="122.314453" xlink:href="#ArialMT-101"/>
     </g>
    </g>
   </g>
   <g id="matplotlib.axis_2">
    <g id="ytick_1">
     <g id="line2d_10">
      <path clip-path="url(#pceee3b1d5d)" d="M 38.107031 163.78 
L 845.992131 163.78 
" style="fill:none;stroke:#ffffff;stroke-linecap:round;"/>
     </g>
     <g id="text_11">
      <!-- 0.00 -->
      <g style="fill:#262626;" transform="translate(7.2 167.716797)scale(0.11 -0.11)">
       <use xlink:href="#ArialMT-48"/>
       <use x="55.615234" xlink:href="#ArialMT-46"/>
       <use x="83.398438" xlink:href="#ArialMT-48"/>
       <use x="139.013672" xlink:href="#ArialMT-48"/>
      </g>
     </g>
    </g>
    <g id="ytick_2">
     <g id="line2d_11">
      <path clip-path="url(#pceee3b1d5d)" d="M 38.107031 129.745952 
L 845.992131 129.745952 
" style="fill:none;stroke:#ffffff;stroke-linecap:round;"/>
     </g>
     <g id="text_12">
      <!-- 0.01 -->
      <g style="fill:#262626;" transform="translate(7.2 133.682749)scale(0.11 -0.11)">
       <defs>
        <path d="M 37.25 0 
L 28.46875 0 
L 28.46875 56 
Q 25.296875 52.984375 20.140625 49.953125 
Q 14.984375 46.921875 10.890625 45.40625 
L 10.890625 53.90625 
Q 18.265625 57.375 23.78125 62.296875 
Q 29.296875 67.234375 31.59375 71.875 
L 37.25 71.875 
z
" id="ArialMT-49"/>
       </defs>
       <use xlink:href="#ArialMT-48"/>
       <use x="55.615234" xlink:href="#ArialMT-46"/>
       <use x="83.398438" xlink:href="#ArialMT-48"/>
       <use x="139.013672" xlink:href="#ArialMT-49"/>
      </g>
     </g>
    </g>
    <g id="ytick_3">
     <g id="line2d_12">
      <path clip-path="url(#pceee3b1d5d)" d="M 38.107031 95.711904 
L 845.992131 95.711904 
" style="fill:none;stroke:#ffffff;stroke-linecap:round;"/>
     </g>
     <g id="text_13">
      <!-- 0.02 -->
      <g style="fill:#262626;" transform="translate(7.2 99.648701)scale(0.11 -0.11)">
       <use xlink:href="#ArialMT-48"/>
       <use x="55.615234" xlink:href="#ArialMT-46"/>
       <use x="83.398438" xlink:href="#ArialMT-48"/>
       <use x="139.013672" xlink:href="#ArialMT-50"/>
      </g>
     </g>
    </g>
    <g id="ytick_4">
     <g id="line2d_13">
      <path clip-path="url(#pceee3b1d5d)" d="M 38.107031 61.677855 
L 845.992131 61.677855 
" style="fill:none;stroke:#ffffff;stroke-linecap:round;"/>
     </g>
     <g id="text_14">
      <!-- 0.03 -->
      <g style="fill:#262626;" transform="translate(7.2 65.614652)scale(0.11 -0.11)">
       <defs>
        <path d="M 4.203125 18.890625 
L 12.984375 20.0625 
Q 14.5 12.59375 18.140625 9.296875 
Q 21.78125 6 27 6 
Q 33.203125 6 37.46875 10.296875 
Q 41.75 14.59375 41.75 20.953125 
Q 41.75 27 37.796875 30.921875 
Q 33.84375 34.859375 27.734375 34.859375 
Q 25.25 34.859375 21.53125 33.890625 
L 22.515625 41.609375 
Q 23.390625 41.5 23.921875 41.5 
Q 29.546875 41.5 34.03125 44.421875 
Q 38.53125 47.359375 38.53125 53.46875 
Q 38.53125 58.296875 35.25 61.46875 
Q 31.984375 64.65625 26.8125 64.65625 
Q 21.6875 64.65625 18.265625 61.421875 
Q 14.84375 58.203125 13.875 51.765625 
L 5.078125 53.328125 
Q 6.6875 62.15625 12.390625 67.015625 
Q 18.109375 71.875 26.609375 71.875 
Q 32.46875 71.875 37.390625 69.359375 
Q 42.328125 66.84375 44.9375 62.5 
Q 47.5625 58.15625 47.5625 53.265625 
Q 47.5625 48.640625 45.0625 44.828125 
Q 42.578125 41.015625 37.703125 38.765625 
Q 44.046875 37.3125 47.5625 32.6875 
Q 51.078125 28.078125 51.078125 21.140625 
Q 51.078125 11.765625 44.234375 5.25 
Q 37.40625 -1.265625 26.953125 -1.265625 
Q 17.53125 -1.265625 11.296875 4.34375 
Q 5.078125 9.96875 4.203125 18.890625 
z
" id="ArialMT-51"/>
       </defs>
       <use xlink:href="#ArialMT-48"/>
       <use x="55.615234" xlink:href="#ArialMT-46"/>
       <use x="83.398438" xlink:href="#ArialMT-48"/>
       <use x="139.013672" xlink:href="#ArialMT-51"/>
      </g>
     </g>
    </g>
    <g id="ytick_5">
     <g id="line2d_14">
      <path clip-path="url(#pceee3b1d5d)" d="M 38.107031 27.643807 
L 845.992131 27.643807 
" style="fill:none;stroke:#ffffff;stroke-linecap:round;"/>
     </g>
     <g id="text_15">
      <!-- 0.04 -->
      <g style="fill:#262626;" transform="translate(7.2 31.580604)scale(0.11 -0.11)">
       <use xlink:href="#ArialMT-48"/>
       <use x="55.615234" xlink:href="#ArialMT-46"/>
       <use x="83.398438" xlink:href="#ArialMT-48"/>
       <use x="139.013672" xlink:href="#ArialMT-52"/>
      </g>
     </g>
    </g>
   </g>
   <g id="PolyCollection_1">
    <path clip-path="url(#pceee3b1d5d)" d="M -1971.271431 163.739684 
L -1971.271431 163.78 
L -1952.091604 163.78 
L -1932.911776 163.78 
L -1913.731949 163.78 
L -1894.552122 163.78 
L -1875.372294 163.78 
L -1856.192467 163.78 
L -1837.01264 163.78 
L -1817.832812 163.78 
L -1798.652985 163.78 
L -1779.473157 163.78 
L -1760.29333 163.78 
L -1741.113503 163.78 
L -1721.933675 163.78 
L -1702.753848 163.78 
L -1683.57402 163.78 
L -1664.394193 163.78 
L -1645.214366 163.78 
L -1626.034538 163.78 
L -1606.854711 163.78 
L -1587.674884 163.78 
L -1568.495056 163.78 
L -1549.315229 163.78 
L -1530.135401 163.78 
L -1510.955574 163.78 
L -1491.775747 163.78 
L -1472.595919 163.78 
L -1453.416092 163.78 
L -1434.236264 163.78 
L -1415.056437 163.78 
L -1395.87661 163.78 
L -1376.696782 163.78 
L -1357.516955 163.78 
L -1338.337127 163.78 
L -1319.1573 163.78 
L -1299.977473 163.78 
L -1280.797645 163.78 
L -1261.617818 163.78 
L -1242.437991 163.78 
L -1223.258163 163.78 
L -1204.078336 163.78 
L -1184.898508 163.78 
L -1165.718681 163.78 
L -1146.538854 163.78 
L -1127.359026 163.78 
L -1108.179199 163.78 
L -1088.999371 163.78 
L -1069.819544 163.78 
L -1050.639717 163.78 
L -1031.459889 163.78 
L -1012.280062 163.78 
L -993.100235 163.78 
L -973.920407 163.78 
L -954.74058 163.78 
L -935.560752 163.78 
L -916.380925 163.78 
L -897.201098 163.78 
L -878.02127 163.78 
L -858.841443 163.78 
L -839.661615 163.78 
L -820.481788 163.78 
L -801.301961 163.78 
L -782.122133 163.78 
L -762.942306 163.78 
L -743.762478 163.78 
L -724.582651 163.78 
L -705.402824 163.78 
L -686.222996 163.78 
L -667.043169 163.78 
L -647.863342 163.78 
L -628.683514 163.78 
L -609.503687 163.78 
L -590.323859 163.78 
L -571.144032 163.78 
L -551.964205 163.78 
L -532.784377 163.78 
L -513.60455 163.78 
L -494.424722 163.78 
L -475.244895 163.78 
L -456.065068 163.78 
L -436.88524 163.78 
L -417.705413 163.78 
L -398.525586 163.78 
L -379.345758 163.78 
L -360.165931 163.78 
L -340.986103 163.78 
L -321.806276 163.78 
L -302.626449 163.78 
L -283.446621 163.78 
L -264.266794 163.78 
L -245.086966 163.78 
L -225.907139 163.78 
L -206.727312 163.78 
L -187.547484 163.78 
L -168.367657 163.78 
L -149.187829 163.78 
L -130.008002 163.78 
L -110.828175 163.78 
L -91.648347 163.78 
L -72.46852 163.78 
L -53.288693 163.78 
L -34.108865 163.78 
L -14.929038 163.78 
L 4.25079 163.78 
L 23.430617 163.78 
L 42.610444 163.78 
L 61.790272 163.78 
L 80.970099 163.78 
L 100.149927 163.78 
L 119.329754 163.78 
L 138.509581 163.78 
L 157.689409 163.78 
L 176.869236 163.78 
L 196.049064 163.78 
L 215.228891 163.78 
L 234.408718 163.78 
L 253.588546 163.78 
L 272.768373 163.78 
L 291.9482 163.78 
L 311.128028 163.78 
L 330.307855 163.78 
L 349.487683 163.78 
L 368.66751 163.78 
L 387.847337 163.78 
L 407.027165 163.78 
L 426.206992 163.78 
L 445.38682 163.78 
L 464.566647 163.78 
L 483.746474 163.78 
L 502.926302 163.78 
L 522.106129 163.78 
L 541.285956 163.78 
L 560.465784 163.78 
L 579.645611 163.78 
L 598.825439 163.78 
L 618.005266 163.78 
L 637.185093 163.78 
L 656.364921 163.78 
L 675.544748 163.78 
L 694.724576 163.78 
L 713.904403 163.78 
L 733.08423 163.78 
L 752.264058 163.78 
L 771.443885 163.78 
L 790.623713 163.78 
L 809.80354 163.78 
L 828.983367 163.78 
L 848.163195 163.78 
L 867.343022 163.78 
L 886.522849 163.78 
L 905.702677 163.78 
L 924.882504 163.78 
L 944.062332 163.78 
L 963.242159 163.78 
L 982.421986 163.78 
L 1001.601814 163.78 
L 1020.781641 163.78 
L 1039.961469 163.78 
L 1059.141296 163.78 
L 1078.321123 163.78 
L 1097.500951 163.78 
L 1116.680778 163.78 
L 1135.860605 163.78 
L 1155.040433 163.78 
L 1174.22026 163.78 
L 1193.400088 163.78 
L 1212.579915 163.78 
L 1231.759742 163.78 
L 1250.93957 163.78 
L 1270.119397 163.78 
L 1289.299225 163.78 
L 1308.479052 163.78 
L 1327.658879 163.78 
L 1346.838707 163.78 
L 1366.018534 163.78 
L 1385.198362 163.78 
L 1404.378189 163.78 
L 1423.558016 163.78 
L 1442.737844 163.78 
L 1461.917671 163.78 
L 1481.097498 163.78 
L 1500.277326 163.78 
L 1519.457153 163.78 
L 1538.636981 163.78 
L 1557.816808 163.78 
L 1576.996635 163.78 
L 1596.176463 163.78 
L 1615.35629 163.78 
L 1634.536118 163.78 
L 1653.715945 163.78 
L 1672.895772 163.78 
L 1692.0756 163.78 
L 1711.255427 163.78 
L 1730.435254 163.78 
L 1749.615082 163.78 
L 1768.794909 163.78 
L 1787.974737 163.78 
L 1807.154564 163.78 
L 1826.334391 163.78 
L 1845.514219 163.78 
L 1845.514219 163.77091 
L 1845.514219 163.77091 
L 1826.334391 163.766316 
L 1807.154564 163.759716 
L 1787.974737 163.750385 
L 1768.794909 163.737405 
L 1749.615082 163.719637 
L 1730.435254 163.695696 
L 1711.255427 163.663942 
L 1692.0756 163.62248 
L 1672.895772 163.569176 
L 1653.715945 163.501704 
L 1634.536118 163.417611 
L 1615.35629 163.314421 
L 1596.176463 163.189759 
L 1576.996635 163.04151 
L 1557.816808 162.867999 
L 1538.636981 162.668178 
L 1519.457153 162.44181 
L 1500.277326 162.189626 
L 1481.097498 161.913439 
L 1461.917671 161.616178 
L 1442.737844 161.301839 
L 1423.558016 160.975324 
L 1404.378189 160.642174 
L 1385.198362 160.308196 
L 1366.018534 159.979022 
L 1346.838707 159.65963 
L 1327.658879 159.353881 
L 1308.479052 159.064126 
L 1289.299225 158.790949 
L 1270.119397 158.533066 
L 1250.93957 158.287427 
L 1231.759742 158.049504 
L 1212.579915 157.813744 
L 1193.400088 157.574139 
L 1174.22026 157.324839 
L 1155.040433 157.060743 
L 1135.860605 156.777985 
L 1116.680778 156.474288 
L 1097.500951 156.149117 
L 1078.321123 155.803659 
L 1059.141296 155.440625 
L 1039.961469 155.063919 
L 1020.781641 154.67823 
L 1001.601814 154.288576 
L 982.421986 153.899874 
L 963.242159 153.516554 
L 944.062332 153.142244 
L 924.882504 152.779541 
L 905.702677 152.429874 
L 886.522849 152.093431 
L 867.343022 151.769175 
L 848.163195 151.454898 
L 828.983367 151.147343 
L 809.80354 150.842348 
L 790.623713 150.535028 
L 771.443885 150.21998 
L 752.264058 149.891491 
L 733.08423 149.543757 
L 713.904403 149.171091 
L 694.724576 148.768116 
L 675.544748 148.329932 
L 656.364921 147.852263 
L 637.185093 147.331562 
L 618.005266 146.76509 
L 598.825439 146.150968 
L 579.645611 145.488201 
L 560.465784 144.776695 
L 541.285956 144.017259 
L 522.106129 143.211613 
L 502.926302 142.362401 
L 483.746474 141.473204 
L 464.566647 140.548545 
L 445.38682 139.593877 
L 426.206992 138.61552 
L 407.027165 137.620534 
L 387.847337 136.616499 
L 368.66751 135.611205 
L 349.487683 134.612237 
L 330.307855 133.626494 
L 311.128028 132.659665 
L 291.9482 131.715713 
L 272.768373 130.796429 
L 253.588546 129.90108 
L 234.408718 129.026198 
L 215.228891 128.165502 
L 196.049064 127.309928 
L 176.869236 126.447723 
L 157.689409 125.564512 
L 138.509581 124.643286 
L 119.329754 123.664218 
L 100.149927 122.604272 
L 80.970099 121.436609 
L 61.790272 120.129841 
L 42.610444 118.64725 
L 23.430617 116.946161 
L 4.25079 114.977701 
L -14.929038 112.687229 
L -34.108865 110.015705 
L -53.288693 106.902254 
L -72.46852 103.288064 
L -91.648347 99.121651 
L -110.828175 94.365279 
L -130.008002 89.002147 
L -149.187829 83.043683 
L -168.367657 76.536089 
L -187.547484 69.565171 
L -206.727312 62.258454 
L -225.907139 54.783746 
L -245.086966 47.343606 
L -264.266794 40.165611 
L -283.446621 33.488878 
L -302.626449 27.54782 
L -321.806276 22.554624 
L -340.986103 18.682256 
L -360.165931 16.0499 
L -379.345758 14.712569 
L -398.525586 14.65619 
L -417.705413 15.798873 
L -436.88524 17.998305 
L -456.065068 21.064492 
L -475.244895 24.776449 
L -494.424722 28.900992 
L -513.60455 33.211653 
L -532.784377 37.505795 
L -551.964205 41.618366 
L -571.144032 45.431209 
L -590.323859 48.877422 
L -609.503687 51.940845 
L -628.683514 54.651245 
L -647.863342 57.076107 
L -667.043169 59.310188 
L -686.222996 61.464013 
L -705.402824 63.652414 
L -724.582651 65.984079 
L -743.762478 68.552781 
L -762.942306 71.430754 
L -782.122133 74.664419 
L -801.301961 78.272443 
L -820.481788 82.245952 
L -839.661615 86.550598 
L -858.841443 91.130109 
L -878.02127 95.910899 
L -897.201098 100.807364 
L -916.380925 105.727451 
L -935.560752 110.578182 
L -954.74058 115.27082 
L -973.920407 119.725444 
L -993.100235 123.874702 
L -1012.280062 127.666612 
L -1031.459889 131.066287 
L -1050.639717 134.056533 
L -1069.819544 136.637329 
L -1088.999371 138.824277 
L -1108.179199 140.646151 
L -1127.359026 142.141777 
L -1146.538854 143.356513 
L -1165.718681 144.338629 
L -1184.898508 145.135904 
L -1204.078336 145.792722 
L -1223.258163 146.347907 
L -1242.437991 146.833412 
L -1261.617818 147.273933 
L -1280.797645 147.687341 
L -1299.977473 148.085803 
L -1319.1573 148.477324 
L -1338.337127 148.867443 
L -1357.516955 149.260829 
L -1376.696782 149.662508 
L -1395.87661 150.078598 
L -1415.056437 150.516465 
L -1434.236264 150.984329 
L -1453.416092 151.490441 
L -1472.595919 152.042 
L -1491.775747 152.644023 
L -1510.955574 153.298361 
L -1530.135401 154.00304 
L -1549.315229 154.752028 
L -1568.495056 155.535459 
L -1587.674884 156.340299 
L -1606.854711 157.151339 
L -1626.034538 157.952394 
L -1645.214366 158.727544 
L -1664.394193 159.462289 
L -1683.57402 160.144482 
L -1702.753848 160.764968 
L -1721.933675 161.317901 
L -1741.113503 161.800743 
L -1760.29333 162.213991 
L -1779.473157 162.560707 
L -1798.652985 162.845926 
L -1817.832812 163.076018 
L -1837.01264 163.258079 
L -1856.192467 163.399397 
L -1875.372294 163.507018 
L -1894.552122 163.587443 
L -1913.731949 163.646425 
L -1932.911776 163.68888 
L -1952.091604 163.718877 
L -1971.271431 163.739684 
z
" style="fill:#4c72b0;fill-opacity:0.25;stroke:#4c72b0;"/>
   </g>
   <g id="PolyCollection_2">
    <path clip-path="url(#pceee3b1d5d)" d="M -2090.186748 163.667099 
L -2090.186748 163.78 
L -2068.711606 163.78 
L -2047.236465 163.78 
L -2025.761323 163.78 
L -2004.286182 163.78 
L -1982.811041 163.78 
L -1961.335899 163.78 
L -1939.860758 163.78 
L -1918.385616 163.78 
L -1896.910475 163.78 
L -1875.435333 163.78 
L -1853.960192 163.78 
L -1832.485051 163.78 
L -1811.009909 163.78 
L -1789.534768 163.78 
L -1768.059626 163.78 
L -1746.584485 163.78 
L -1725.109343 163.78 
L -1703.634202 163.78 
L -1682.159061 163.78 
L -1660.683919 163.78 
L -1639.208778 163.78 
L -1617.733636 163.78 
L -1596.258495 163.78 
L -1574.783353 163.78 
L -1553.308212 163.78 
L -1531.833071 163.78 
L -1510.357929 163.78 
L -1488.882788 163.78 
L -1467.407646 163.78 
L -1445.932505 163.78 
L -1424.457363 163.78 
L -1402.982222 163.78 
L -1381.50708 163.78 
L -1360.031939 163.78 
L -1338.556798 163.78 
L -1317.081656 163.78 
L -1295.606515 163.78 
L -1274.131373 163.78 
L -1252.656232 163.78 
L -1231.18109 163.78 
L -1209.705949 163.78 
L -1188.230808 163.78 
L -1166.755666 163.78 
L -1145.280525 163.78 
L -1123.805383 163.78 
L -1102.330242 163.78 
L -1080.8551 163.78 
L -1059.379959 163.78 
L -1037.904818 163.78 
L -1016.429676 163.78 
L -994.954535 163.78 
L -973.479393 163.78 
L -952.004252 163.78 
L -930.52911 163.78 
L -909.053969 163.78 
L -887.578828 163.78 
L -866.103686 163.78 
L -844.628545 163.78 
L -823.153403 163.78 
L -801.678262 163.78 
L -780.20312 163.78 
L -758.727979 163.78 
L -737.252837 163.78 
L -715.777696 163.78 
L -694.302555 163.78 
L -672.827413 163.78 
L -651.352272 163.78 
L -629.87713 163.78 
L -608.401989 163.78 
L -586.926847 163.78 
L -565.451706 163.78 
L -543.976565 163.78 
L -522.501423 163.78 
L -501.026282 163.78 
L -479.55114 163.78 
L -458.075999 163.78 
L -436.600857 163.78 
L -415.125716 163.78 
L -393.650575 163.78 
L -372.175433 163.78 
L -350.700292 163.78 
L -329.22515 163.78 
L -307.750009 163.78 
L -286.274867 163.78 
L -264.799726 163.78 
L -243.324585 163.78 
L -221.849443 163.78 
L -200.374302 163.78 
L -178.89916 163.78 
L -157.424019 163.78 
L -135.948877 163.78 
L -114.473736 163.78 
L -92.998595 163.78 
L -71.523453 163.78 
L -50.048312 163.78 
L -28.57317 163.78 
L -7.098029 163.78 
L 14.377113 163.78 
L 35.852254 163.78 
L 57.327396 163.78 
L 78.802537 163.78 
L 100.277678 163.78 
L 121.75282 163.78 
L 143.227961 163.78 
L 164.703103 163.78 
L 186.178244 163.78 
L 207.653386 163.78 
L 229.128527 163.78 
L 250.603668 163.78 
L 272.07881 163.78 
L 293.553951 163.78 
L 315.029093 163.78 
L 336.504234 163.78 
L 357.979376 163.78 
L 379.454517 163.78 
L 400.929658 163.78 
L 422.4048 163.78 
L 443.879941 163.78 
L 465.355083 163.78 
L 486.830224 163.78 
L 508.305366 163.78 
L 529.780507 163.78 
L 551.255648 163.78 
L 572.73079 163.78 
L 594.205931 163.78 
L 615.681073 163.78 
L 637.156214 163.78 
L 658.631356 163.78 
L 680.106497 163.78 
L 701.581638 163.78 
L 723.05678 163.78 
L 744.531921 163.78 
L 766.007063 163.78 
L 787.482204 163.78 
L 808.957346 163.78 
L 830.432487 163.78 
L 851.907629 163.78 
L 873.38277 163.78 
L 894.857911 163.78 
L 916.333053 163.78 
L 937.808194 163.78 
L 959.283336 163.78 
L 980.758477 163.78 
L 1002.233619 163.78 
L 1023.70876 163.78 
L 1045.183901 163.78 
L 1066.659043 163.78 
L 1088.134184 163.78 
L 1109.609326 163.78 
L 1131.084467 163.78 
L 1152.559609 163.78 
L 1174.03475 163.78 
L 1195.509891 163.78 
L 1216.985033 163.78 
L 1238.460174 163.78 
L 1259.935316 163.78 
L 1281.410457 163.78 
L 1302.885599 163.78 
L 1324.36074 163.78 
L 1345.835881 163.78 
L 1367.311023 163.78 
L 1388.786164 163.78 
L 1410.261306 163.78 
L 1431.736447 163.78 
L 1453.211589 163.78 
L 1474.68673 163.78 
L 1496.161872 163.78 
L 1517.637013 163.78 
L 1539.112154 163.78 
L 1560.587296 163.78 
L 1582.062437 163.78 
L 1603.537579 163.78 
L 1625.01272 163.78 
L 1646.487862 163.78 
L 1667.963003 163.78 
L 1689.438144 163.78 
L 1710.913286 163.78 
L 1732.388427 163.78 
L 1753.863569 163.78 
L 1775.33871 163.78 
L 1796.813852 163.78 
L 1818.288993 163.78 
L 1839.764134 163.78 
L 1861.239276 163.78 
L 1882.714417 163.78 
L 1904.189559 163.78 
L 1925.6647 163.78 
L 1947.139842 163.78 
L 1968.614983 163.78 
L 1990.090124 163.78 
L 2011.565266 163.78 
L 2033.040407 163.78 
L 2054.515549 163.78 
L 2075.99069 163.78 
L 2097.465832 163.78 
L 2118.940973 163.78 
L 2140.416114 163.78 
L 2161.891256 163.78 
L 2183.366397 163.78 
L 2183.366397 163.769906 
L 2183.366397 163.769906 
L 2161.891256 163.765567 
L 2140.416114 163.759665 
L 2118.940973 163.75177 
L 2097.465832 163.741387 
L 2075.99069 163.727961 
L 2054.515549 163.710898 
L 2033.040407 163.689588 
L 2011.565266 163.663445 
L 1990.090124 163.63195 
L 1968.614983 163.594709 
L 1947.139842 163.551507 
L 1925.6647 163.502374 
L 1904.189559 163.447632 
L 1882.714417 163.387943 
L 1861.239276 163.324331 
L 1839.764134 163.258178 
L 1818.288993 163.191199 
L 1796.813852 163.125382 
L 1775.33871 163.062892 
L 1753.863569 163.005964 
L 1732.388427 162.956763 
L 1710.913286 162.917248 
L 1689.438144 162.889036 
L 1667.963003 162.873275 
L 1646.487862 162.870556 
L 1625.01272 162.880849 
L 1603.537579 162.90348 
L 1582.062437 162.937146 
L 1560.587296 162.979966 
L 1539.112154 163.029553 
L 1517.637013 163.083105 
L 1496.161872 163.137497 
L 1474.68673 163.189372 
L 1453.211589 163.235206 
L 1431.736447 163.271364 
L 1410.261306 163.294128 
L 1388.786164 163.299712 
L 1367.311023 163.284267 
L 1345.835881 163.243891 
L 1324.36074 163.174647 
L 1302.885599 163.072613 
L 1281.410457 162.933961 
L 1259.935316 162.755076 
L 1238.460174 162.53271 
L 1216.985033 162.264164 
L 1195.509891 161.947482 
L 1174.03475 161.581638 
L 1152.559609 161.166699 
L 1131.084467 160.703931 
L 1109.609326 160.195831 
L 1088.134184 159.646075 
L 1066.659043 159.059367 
L 1045.183901 158.441192 
L 1023.70876 157.797488 
L 1002.233619 157.134263 
L 980.758477 156.45717 
L 959.283336 155.7711 
L 937.808194 155.07981 
L 916.333053 154.385635 
L 894.857911 153.689302 
L 873.38277 152.989875 
L 851.907629 152.28485 
L 830.432487 151.57038 
L 808.957346 150.841637 
L 787.482204 150.093278 
L 766.007063 149.319992 
L 744.531921 148.517079 
L 723.05678 147.681029 
L 701.581638 146.81004 
L 680.106497 145.904449 
L 658.631356 144.967006 
L 637.156214 144.002978 
L 615.681073 143.020045 
L 594.205931 142.027976 
L 572.73079 141.038079 
L 551.255648 140.062468 
L 529.780507 139.113163 
L 508.305366 138.201094 
L 486.830224 137.335073 
L 465.355083 136.520817 
L 443.879941 135.7601 
L 422.4048 135.050099 
L 400.929658 134.383005 
L 379.454517 133.745917 
L 357.979376 133.121042 
L 336.504234 132.486191 
L 315.029093 131.815519 
L 293.553951 131.080479 
L 272.07881 130.250914 
L 250.603668 129.296239 
L 229.128527 128.186654 
L 207.653386 126.894345 
L 186.178244 125.394646 
L 164.703103 123.667135 
L 143.227961 121.696647 
L 121.75282 119.474188 
L 100.277678 116.997728 
L 78.802537 114.272818 
L 57.327396 111.313014 
L 35.852254 108.140026 
L 14.377113 104.783554 
L -7.098029 101.280767 
L -28.57317 97.675391 
L -50.048312 94.016434 
L -71.523453 90.356559 
L -92.998595 86.750198 
L -114.473736 83.251504 
L -135.948877 79.912247 
L -157.424019 76.779788 
L -178.89916 73.895244 
L -200.374302 71.291939 
L -221.849443 68.994224 
L -243.324585 67.016698 
L -264.799726 65.363882 
L -286.274867 64.030334 
L -307.750009 63.001216 
L -329.22515 62.253293 
L -350.700292 61.756361 
L -372.175433 61.475058 
L -393.650575 61.371025 
L -415.125716 61.405333 
L -436.600857 61.541076 
L -458.075999 61.745984 
L -479.55114 61.99487 
L -501.026282 62.271735 
L -522.501423 62.571315 
L -543.976565 62.899907 
L -565.451706 63.275337 
L -586.926847 63.726016 
L -608.401989 64.289101 
L -629.87713 65.007868 
L -651.352272 65.928493 
L -672.827413 67.096493 
L -694.302555 68.553104 
L -715.777696 70.331908 
L -737.252837 72.455964 
L -758.727979 74.93567 
L -780.20312 77.767485 
L -801.678262 80.933582 
L -823.153403 84.402394 
L -844.628545 88.129958 
L -866.103686 92.061913 
L -887.578828 96.135942 
L -909.053969 100.284481 
L -930.52911 104.437489 
L -952.004252 108.525132 
L -973.479393 112.480236 
L -994.954535 116.240442 
L -1016.429676 119.750004 
L -1037.904818 122.961216 
L -1059.379959 125.835489 
L -1080.8551 128.3441 
L -1102.330242 130.468647 
L -1123.805383 132.201249 
L -1145.280525 133.544526 
L -1166.755666 134.511369 
L -1188.230808 135.124516 
L -1209.705949 135.41593 
L -1231.18109 135.425966 
L -1252.656232 135.20232 
L -1274.131373 134.798725 
L -1295.606515 134.27341 
L -1317.081656 133.68731 
L -1338.556798 133.10206 
L -1360.031939 132.577834 
L -1381.50708 132.171088 
L -1402.982222 131.932335 
L -1424.457363 131.904065 
L -1445.932505 132.118941 
L -1467.407646 132.598419 
L -1488.882788 133.351894 
L -1510.357929 134.376461 
L -1531.833071 135.65734 
L -1553.308212 137.168936 
L -1574.783353 138.876503 
L -1596.258495 140.738263 
L -1617.733636 142.707862 
L -1639.208778 144.736957 
L -1660.683919 146.77777 
L -1682.159061 148.785422 
L -1703.634202 150.719898 
L -1725.109343 152.547541 
L -1746.584485 154.24201 
L -1768.059626 155.784685 
L -1789.534768 157.164566 
L -1811.009909 158.377729 
L -1832.485051 159.42644 
L -1853.960192 160.318051 
L -1875.435333 161.063776 
L -1896.910475 161.677467 
L -1918.385616 162.174472 
L -1939.860758 162.570631 
L -1961.335899 162.881463 
L -1982.811041 163.121553 
L -2004.286182 163.304131 
L -2025.761323 163.440835 
L -2047.236465 163.541621 
L -2068.711606 163.61479 
L -2090.186748 163.667099 
z
" style="fill:#dd8452;fill-opacity:0.25;stroke:#dd8452;"/>
   </g>
   <g id="patch_3">
    <path d="M 38.107031 163.78 
L 38.107031 7.2 
" style="fill:none;stroke:#ffffff;stroke-linecap:square;stroke-linejoin:miter;stroke-width:1.25;"/>
   </g>
   <g id="patch_4">
    <path d="M 38.107031 163.78 
L 845.992131 163.78 
" style="fill:none;stroke:#ffffff;stroke-linecap:square;stroke-linejoin:miter;stroke-width:1.25;"/>
   </g>
  </g>
  <g id="legend_1">
   <g id="text_16">
    <!-- Survived -->
    <g style="fill:#262626;" transform="translate(855.852006 90.369766)scale(0.12 -0.12)">
     <defs>
      <path d="M 4.5 23 
L 13.421875 23.78125 
Q 14.0625 18.40625 16.375 14.96875 
Q 18.703125 11.53125 23.578125 9.40625 
Q 28.46875 7.28125 34.578125 7.28125 
Q 39.984375 7.28125 44.140625 8.890625 
Q 48.296875 10.5 50.3125 13.296875 
Q 52.34375 16.109375 52.34375 19.4375 
Q 52.34375 22.796875 50.390625 25.3125 
Q 48.4375 27.828125 43.953125 29.546875 
Q 41.0625 30.671875 31.203125 33.03125 
Q 21.34375 35.40625 17.390625 37.5 
Q 12.25 40.1875 9.734375 44.15625 
Q 7.234375 48.140625 7.234375 53.078125 
Q 7.234375 58.5 10.296875 63.203125 
Q 13.375 67.921875 19.28125 70.359375 
Q 25.203125 72.796875 32.421875 72.796875 
Q 40.375 72.796875 46.453125 70.234375 
Q 52.546875 67.671875 55.8125 62.6875 
Q 59.078125 57.71875 59.328125 51.421875 
L 50.25 50.734375 
Q 49.515625 57.515625 45.28125 60.984375 
Q 41.0625 64.453125 32.8125 64.453125 
Q 24.21875 64.453125 20.28125 61.296875 
Q 16.359375 58.15625 16.359375 53.71875 
Q 16.359375 49.859375 19.140625 47.359375 
Q 21.875 44.875 33.421875 42.265625 
Q 44.96875 39.65625 49.265625 37.703125 
Q 55.515625 34.8125 58.484375 30.390625 
Q 61.46875 25.984375 61.46875 20.21875 
Q 61.46875 14.5 58.203125 9.4375 
Q 54.9375 4.390625 48.796875 1.578125 
Q 42.671875 -1.21875 35.015625 -1.21875 
Q 25.296875 -1.21875 18.71875 1.609375 
Q 12.15625 4.4375 8.421875 10.125 
Q 4.6875 15.828125 4.5 23 
z
" id="ArialMT-83"/>
      <path d="M 40.578125 0 
L 40.578125 7.625 
Q 34.515625 -1.171875 24.125 -1.171875 
Q 19.53125 -1.171875 15.546875 0.578125 
Q 11.578125 2.34375 9.640625 5 
Q 7.71875 7.671875 6.9375 11.53125 
Q 6.390625 14.109375 6.390625 19.734375 
L 6.390625 51.859375 
L 15.1875 51.859375 
L 15.1875 23.09375 
Q 15.1875 16.21875 15.71875 13.8125 
Q 16.546875 10.359375 19.234375 8.375 
Q 21.921875 6.390625 25.875 6.390625 
Q 29.828125 6.390625 33.296875 8.421875 
Q 36.765625 10.453125 38.203125 13.9375 
Q 39.65625 17.4375 39.65625 24.078125 
L 39.65625 51.859375 
L 48.4375 51.859375 
L 48.4375 0 
z
" id="ArialMT-117"/>
      <path d="M 6.5 0 
L 6.5 51.859375 
L 14.40625 51.859375 
L 14.40625 44 
Q 17.4375 49.515625 20 51.265625 
Q 22.5625 53.03125 25.640625 53.03125 
Q 30.078125 53.03125 34.671875 50.203125 
L 31.640625 42.046875 
Q 28.421875 43.953125 25.203125 43.953125 
Q 22.3125 43.953125 20.015625 42.21875 
Q 17.71875 40.484375 16.75 37.40625 
Q 15.28125 32.71875 15.28125 27.15625 
L 15.28125 0 
z
" id="ArialMT-114"/>
      <path d="M 21 0 
L 1.265625 51.859375 
L 10.546875 51.859375 
L 21.6875 20.796875 
Q 23.484375 15.765625 25 10.359375 
Q 26.171875 14.453125 28.265625 20.21875 
L 39.796875 51.859375 
L 48.828125 51.859375 
L 29.203125 0 
z
" id="ArialMT-118"/>
      <path d="M 6.640625 61.46875 
L 6.640625 71.578125 
L 15.4375 71.578125 
L 15.4375 61.46875 
z
M 6.640625 0 
L 6.640625 51.859375 
L 15.4375 51.859375 
L 15.4375 0 
z
" id="ArialMT-105"/>
      <path d="M 40.234375 0 
L 40.234375 6.546875 
Q 35.296875 -1.171875 25.734375 -1.171875 
Q 19.53125 -1.171875 14.328125 2.25 
Q 9.125 5.671875 6.265625 11.796875 
Q 3.421875 17.921875 3.421875 25.875 
Q 3.421875 33.640625 6 39.96875 
Q 8.59375 46.296875 13.765625 49.65625 
Q 18.953125 53.03125 25.34375 53.03125 
Q 30.03125 53.03125 33.6875 51.046875 
Q 37.359375 49.078125 39.65625 45.90625 
L 39.65625 71.578125 
L 48.390625 71.578125 
L 48.390625 0 
z
M 12.453125 25.875 
Q 12.453125 15.921875 16.640625 10.984375 
Q 20.84375 6.0625 26.5625 6.0625 
Q 32.328125 6.0625 36.34375 10.765625 
Q 40.375 15.484375 40.375 25.140625 
Q 40.375 35.796875 36.265625 40.765625 
Q 32.171875 45.75 26.171875 45.75 
Q 20.3125 45.75 16.375 40.96875 
Q 12.453125 36.1875 12.453125 25.875 
z
" id="ArialMT-100"/>
     </defs>
     <use xlink:href="#ArialMT-83"/>
     <use x="66.699219" xlink:href="#ArialMT-117"/>
     <use x="122.314453" xlink:href="#ArialMT-114"/>
     <use x="155.615234" xlink:href="#ArialMT-118"/>
     <use x="205.615234" xlink:href="#ArialMT-105"/>
     <use x="227.832031" xlink:href="#ArialMT-118"/>
     <use x="277.832031" xlink:href="#ArialMT-101"/>
     <use x="333.447266" xlink:href="#ArialMT-100"/>
    </g>
   </g>
   <g id="patch_5">
    <path d="M 860.736303 106.128359 
L 882.736303 106.128359 
L 882.736303 98.428359 
L 860.736303 98.428359 
z
" style="fill:#4c72b0;fill-opacity:0.25;stroke:#4c72b0;stroke-linejoin:miter;"/>
   </g>
   <g id="text_17">
    <!-- 0 -->
    <g style="fill:#262626;" transform="translate(891.536303 106.128359)scale(0.11 -0.11)">
     <use xlink:href="#ArialMT-48"/>
    </g>
   </g>
   <g id="patch_6">
    <path d="M 860.736303 121.688203 
L 882.736303 121.688203 
L 882.736303 113.988203 
L 860.736303 113.988203 
z
" style="fill:#dd8452;fill-opacity:0.25;stroke:#dd8452;stroke-linejoin:miter;"/>
   </g>
   <g id="text_18">
    <!-- 1 -->
    <g style="fill:#262626;" transform="translate(891.536303 121.688203)scale(0.11 -0.11)">
     <use xlink:href="#ArialMT-49"/>
    </g>
   </g>
  </g>
 </g>
 <defs>
  <clipPath id="pceee3b1d5d">
   <rect height="156.58" width="807.8851" x="38.107031" y="7.2"/>
  </clipPath>
 </defs>
</svg>
