<?xml version="1.0" encoding="UTF-8" standalone="no"?>
<!DOCTYPE svg PUBLIC "-//W3C//DTD SVG 1.1//EN"
 "http://www.w3.org/Graphics/SVG/1.1/DTD/svg11.dtd">
<!-- Generated by graphviz version 2.40.1 (20161225.0304)
 -->
<!-- Title: Tree Pages: 1 -->
<svg width="462pt" height="269pt"
 viewBox="0.00 0.00 462.00 269.00" xmlns="http://www.w3.org/2000/svg" xmlns:xlink="http://www.w3.org/1999/xlink">
<g id="graph0" class="graph" transform="scale(1 1) rotate(0) translate(4 265)">
<title>Tree</title>
<polygon fill="#ffffff" stroke="transparent" points="-4,4 -4,-265 458,-265 458,4 -4,4"/>
<!-- 0 -->
<g id="node1" class="node">
<title>0</title>
<path fill="#f6d6be" stroke="#000000" d="M266,-261C266,-261 184,-261 184,-261 178,-261 172,-255 172,-249 172,-249 172,-205 172,-205 172,-199 178,-193 184,-193 184,-193 266,-193 266,-193 272,-193 278,-199 278,-205 278,-205 278,-249 278,-249 278,-255 272,-261 266,-261"/>
<text text-anchor="middle" x="225" y="-245.8" font-family="Helvetica,sans-Serif" font-size="14.00" fill="#000000">X[0] &lt;= 0.197</text>
<text text-anchor="middle" x="225" y="-230.8" font-family="Helvetica,sans-Serif" font-size="14.00" fill="#000000">mse = 0.098</text>
<text text-anchor="middle" x="225" y="-215.8" font-family="Helvetica,sans-Serif" font-size="14.00" fill="#000000">samples = 200</text>
<text text-anchor="middle" x="225" y="-200.8" font-family="Helvetica,sans-Serif" font-size="14.00" fill="#000000">value = 0.354</text>
</g>
<!-- 1 -->
<g id="node2" class="node">
<title>1</title>
<path fill="#eb9d65" stroke="#000000" d="M202,-157C202,-157 128,-157 128,-157 122,-157 116,-151 116,-145 116,-145 116,-101 116,-101 116,-95 122,-89 128,-89 128,-89 202,-89 202,-89 208,-89 214,-95 214,-101 214,-101 214,-145 214,-145 214,-151 208,-157 202,-157"/>
<text text-anchor="middle" x="165" y="-141.8" font-family="Helvetica,sans-Serif" font-size="14.00" fill="#000000">X[0] &lt;= 0.092</text>
<text text-anchor="middle" x="165" y="-126.8" font-family="Helvetica,sans-Serif" font-size="14.00" fill="#000000">mse = 0.038</text>
<text text-anchor="middle" x="165" y="-111.8" font-family="Helvetica,sans-Serif" font-size="14.00" fill="#000000">samples = 44</text>
<text text-anchor="middle" x="165" y="-96.8" font-family="Helvetica,sans-Serif" font-size="14.00" fill="#000000">value = 0.689</text>
</g>
<!-- 0&#45;&gt;1 -->
<g id="edge1" class="edge">
<title>0&#45;&gt;1</title>
<path fill="none" stroke="#000000" d="M205.3538,-192.9465C200.381,-184.3271 194.9757,-174.9579 189.7852,-165.9611"/>
<polygon fill="#000000" stroke="#000000" points="192.7193,-164.0428 184.6904,-157.13 186.656,-167.5409 192.7193,-164.0428"/>
<text text-anchor="middle" x="178.2122" y="-177.5761" font-family="Helvetica,sans-Serif" font-size="14.00" fill="#000000">True</text>
</g>
<!-- 4 -->
<g id="node5" class="node">
<title>4</title>
<path fill="#fae6d7" stroke="#000000" d="M326,-157C326,-157 244,-157 244,-157 238,-157 232,-151 232,-145 232,-145 232,-101 232,-101 232,-95 238,-89 244,-89 244,-89 326,-89 326,-89 332,-89 338,-95 338,-101 338,-101 338,-145 338,-145 338,-151 332,-157 326,-157"/>
<text text-anchor="middle" x="285" y="-141.8" font-family="Helvetica,sans-Serif" font-size="14.00" fill="#000000">X[0] &lt;= 0.772</text>
<text text-anchor="middle" x="285" y="-126.8" font-family="Helvetica,sans-Serif" font-size="14.00" fill="#000000">mse = 0.074</text>
<text text-anchor="middle" x="285" y="-111.8" font-family="Helvetica,sans-Serif" font-size="14.00" fill="#000000">samples = 156</text>
<text text-anchor="middle" x="285" y="-96.8" font-family="Helvetica,sans-Serif" font-size="14.00" fill="#000000">value = 0.259</text>
</g>
<!-- 0&#45;&gt;4 -->
<g id="edge4" class="edge">
<title>0&#45;&gt;4</title>
<path fill="none" stroke="#000000" d="M244.6462,-192.9465C249.619,-184.3271 255.0243,-174.9579 260.2148,-165.9611"/>
<polygon fill="#000000" stroke="#000000" points="263.344,-167.5409 265.3096,-157.13 257.2807,-164.0428 263.344,-167.5409"/>
<text text-anchor="middle" x="271.7878" y="-177.5761" font-family="Helvetica,sans-Serif" font-size="14.00" fill="#000000">False</text>
</g>
<!-- 2 -->
<g id="node3" class="node">
<title>2</title>
<path fill="#e58139" stroke="#000000" d="M86,-53C86,-53 12,-53 12,-53 6,-53 0,-47 0,-41 0,-41 0,-12 0,-12 0,-6 6,0 12,0 12,0 86,0 86,0 92,0 98,-6 98,-12 98,-12 98,-41 98,-41 98,-47 92,-53 86,-53"/>
<text text-anchor="middle" x="49" y="-37.8" font-family="Helvetica,sans-Serif" font-size="14.00" fill="#000000">mse = 0.018</text>
<text text-anchor="middle" x="49" y="-22.8" font-family="Helvetica,sans-Serif" font-size="14.00" fill="#000000">samples = 20</text>
<text text-anchor="middle" x="49" y="-7.8" font-family="Helvetica,sans-Serif" font-size="14.00" fill="#000000">value = 0.854</text>
</g>
<!-- 1&#45;&gt;2 -->
<g id="edge2" class="edge">
<title>1&#45;&gt;2</title>
<path fill="none" stroke="#000000" d="M124.1027,-88.9777C112.6551,-79.4545 100.2313,-69.1191 88.8455,-59.6473"/>
<polygon fill="#000000" stroke="#000000" points="91.0797,-56.9532 81.1536,-53.2485 86.6029,-62.3345 91.0797,-56.9532"/>
</g>
<!-- 3 -->
<g id="node4" class="node">
<title>3</title>
<path fill="#f0b489" stroke="#000000" d="M202,-53C202,-53 128,-53 128,-53 122,-53 116,-47 116,-41 116,-41 116,-12 116,-12 116,-6 122,0 128,0 128,0 202,0 202,0 208,0 214,-6 214,-12 214,-12 214,-41 214,-41 214,-47 208,-53 202,-53"/>
<text text-anchor="middle" x="165" y="-37.8" font-family="Helvetica,sans-Serif" font-size="14.00" fill="#000000">mse = 0.013</text>
<text text-anchor="middle" x="165" y="-22.8" font-family="Helvetica,sans-Serif" font-size="14.00" fill="#000000">samples = 24</text>
<text text-anchor="middle" x="165" y="-7.8" font-family="Helvetica,sans-Serif" font-size="14.00" fill="#000000">value = 0.552</text>
</g>
<!-- 1&#45;&gt;3 -->
<g id="edge3" class="edge">
<title>1&#45;&gt;3</title>
<path fill="none" stroke="#000000" d="M165,-88.9777C165,-80.7364 165,-71.887 165,-63.5153"/>
<polygon fill="#000000" stroke="#000000" points="168.5001,-63.2484 165,-53.2485 161.5001,-63.2485 168.5001,-63.2484"/>
</g>
<!-- 5 -->
<g id="node6" class="node">
<title>5</title>
<path fill="#ffffff" stroke="#000000" d="M326,-53C326,-53 244,-53 244,-53 238,-53 232,-47 232,-41 232,-41 232,-12 232,-12 232,-6 238,0 244,0 244,0 326,0 326,0 332,0 338,-6 338,-12 338,-12 338,-41 338,-41 338,-47 332,-53 326,-53"/>
<text text-anchor="middle" x="285" y="-37.8" font-family="Helvetica,sans-Serif" font-size="14.00" fill="#000000">mse = 0.015</text>
<text text-anchor="middle" x="285" y="-22.8" font-family="Helvetica,sans-Serif" font-size="14.00" fill="#000000">samples = 110</text>
<text text-anchor="middle" x="285" y="-7.8" font-family="Helvetica,sans-Serif" font-size="14.00" fill="#000000">value = 0.111</text>
</g>
<!-- 4&#45;&gt;5 -->
<g id="edge5" class="edge">
<title>4&#45;&gt;5</title>
<path fill="none" stroke="#000000" d="M285,-88.9777C285,-80.7364 285,-71.887 285,-63.5153"/>
<polygon fill="#000000" stroke="#000000" points="288.5001,-63.2484 285,-53.2485 281.5001,-63.2485 288.5001,-63.2484"/>
</g>
<!-- 6 -->
<g id="node7" class="node">
<title>6</title>
<path fill="#edaa79" stroke="#000000" d="M442,-53C442,-53 368,-53 368,-53 362,-53 356,-47 356,-41 356,-41 356,-12 356,-12 356,-6 362,0 368,0 368,0 442,0 442,0 448,0 454,-6 454,-12 454,-12 454,-41 454,-41 454,-47 448,-53 442,-53"/>
<text text-anchor="middle" x="405" y="-37.8" font-family="Helvetica,sans-Serif" font-size="14.00" fill="#000000">mse = 0.036</text>
<text text-anchor="middle" x="405" y="-22.8" font-family="Helvetica,sans-Serif" font-size="14.00" fill="#000000">samples = 46</text>
<text text-anchor="middle" x="405" y="-7.8" font-family="Helvetica,sans-Serif" font-size="14.00" fill="#000000">value = 0.615</text>
</g>
<!-- 4&#45;&gt;6 -->
<g id="edge6" class="edge">
<title>4&#45;&gt;6</title>
<path fill="none" stroke="#000000" d="M327.3075,-88.9777C339.1499,-79.4545 352.0021,-69.1191 363.7805,-59.6473"/>
<polygon fill="#000000" stroke="#000000" points="366.1382,-62.2427 371.7376,-53.2485 361.7514,-56.7877 366.1382,-62.2427"/>
</g>
</g>
</svg>
