<?xml version="1.0" encoding="utf-8" standalone="no"?>
<!DOCTYPE svg PUBLIC "-//W3C//DTD SVG 1.1//EN"
  "http://www.w3.org/Graphics/SVG/1.1/DTD/svg11.dtd">
<!-- Created with matplotlib (https://matplotlib.org/) -->
<svg height="205.654844pt" version="1.1" viewBox="0 0 912.437631 205.654844" width="912.437631pt" xmlns="http://www.w3.org/2000/svg" xmlns:xlink="http://www.w3.org/1999/xlink">
 <metadata>
  <rdf:RDF xmlns:cc="http://creativecommons.org/ns#" xmlns:dc="http://purl.org/dc/elements/1.1/" xmlns:rdf="http://www.w3.org/1999/02/22-rdf-syntax-ns#">
   <cc:Work>
    <dc:type rdf:resource="http://purl.org/dc/dcmitype/StillImage"/>
    <dc:date>2020-10-19T19:38:57.766513</dc:date>
    <dc:format>image/svg+xml</dc:format>
    <dc:creator>
     <cc:Agent>
      <dc:title>Matplotlib v3.3.2, https://matplotlib.org/</dc:title>
     </cc:Agent>
    </dc:creator>
   </cc:Work>
  </rdf:RDF>
 </metadata>
 <defs>
  <style type="text/css">*{stroke-linecap:butt;stroke-linejoin:round;}</style>
 </defs>
 <g id="figure_1">
  <g id="patch_1">
   <path d="M 0 205.654844 
L 912.437631 205.654844 
L 912.437631 0 
L 0 0 
z
" style="fill:#ffffff;"/>
  </g>
  <g id="axes_1">
   <g id="patch_2">
    <path d="M 38.107031 163.78 
L 845.992131 163.78 
L 845.992131 7.2 
L 38.107031 7.2 
z
" style="fill:#eaeaf2;"/>
   </g>
   <g id="matplotlib.axis_1">
    <g id="xtick_1">
     <g id="line2d_1">
      <path clip-path="url(#pe2a11d9a41)" d="M 38.107031 163.78 
L 38.107031 7.2 
" style="fill:none;stroke:#ffffff;stroke-linecap:round;"/>
     </g>
     <g id="text_1">
      <!-- 0 -->
      <g style="fill:#262626;" transform="translate(35.048516 181.153594)scale(0.11 -0.11)">
       <defs>
        <path d="M 4.15625 35.296875 
Q 4.15625 48 6.765625 55.734375 
Q 9.375 63.484375 14.515625 67.671875 
Q 19.671875 71.875 27.484375 71.875 
Q 33.25 71.875 37.59375 69.546875 
Q 41.9375 67.234375 44.765625 62.859375 
Q 47.609375 58.5 49.21875 52.21875 
Q 50.828125 45.953125 50.828125 35.296875 
Q 50.828125 22.703125 48.234375 14.96875 
Q 45.65625 7.234375 40.5 3 
Q 35.359375 -1.21875 27.484375 -1.21875 
Q 17.140625 -1.21875 11.234375 6.203125 
Q 4.15625 15.140625 4.15625 35.296875 
z
M 13.1875 35.296875 
Q 13.1875 17.671875 17.3125 11.828125 
Q 21.4375 6 27.484375 6 
Q 33.546875 6 37.671875 11.859375 
Q 41.796875 17.71875 41.796875 35.296875 
Q 41.796875 52.984375 37.671875 58.78125 
Q 33.546875 64.59375 27.390625 64.59375 
Q 21.34375 64.59375 17.71875 59.46875 
Q 13.1875 52.9375 13.1875 35.296875 
z
" id="ArialMT-48"/>
       </defs>
       <use xlink:href="#ArialMT-48"/>
      </g>
     </g>
    </g>
    <g id="xtick_2">
     <g id="line2d_2">
      <path clip-path="url(#pe2a11d9a41)" d="M 139.092669 163.78 
L 139.092669 7.2 
" style="fill:none;stroke:#ffffff;stroke-linecap:round;"/>
     </g>
     <g id="text_2">
      <!-- 10 -->
      <g style="fill:#262626;" transform="translate(132.975637 181.153594)scale(0.11 -0.11)">
       <defs>
        <path d="M 37.25 0 
L 28.46875 0 
L 28.46875 56 
Q 25.296875 52.984375 20.140625 49.953125 
Q 14.984375 46.921875 10.890625 45.40625 
L 10.890625 53.90625 
Q 18.265625 57.375 23.78125 62.296875 
Q 29.296875 67.234375 31.59375 71.875 
L 37.25 71.875 
z
" id="ArialMT-49"/>
       </defs>
       <use xlink:href="#ArialMT-49"/>
       <use x="55.615234" xlink:href="#ArialMT-48"/>
      </g>
     </g>
    </g>
    <g id="xtick_3">
     <g id="line2d_3">
      <path clip-path="url(#pe2a11d9a41)" d="M 240.078306 163.78 
L 240.078306 7.2 
" style="fill:none;stroke:#ffffff;stroke-linecap:round;"/>
     </g>
     <g id="text_3">
      <!-- 20 -->
      <g style="fill:#262626;" transform="translate(233.961275 181.153594)scale(0.11 -0.11)">
       <defs>
        <path d="M 50.34375 8.453125 
L 50.34375 0 
L 3.03125 0 
Q 2.9375 3.171875 4.046875 6.109375 
Q 5.859375 10.9375 9.828125 15.625 
Q 13.8125 20.3125 21.34375 26.46875 
Q 33.015625 36.03125 37.109375 41.625 
Q 41.21875 47.21875 41.21875 52.203125 
Q 41.21875 57.421875 37.46875 61 
Q 33.734375 64.59375 27.734375 64.59375 
Q 21.390625 64.59375 17.578125 60.78125 
Q 13.765625 56.984375 13.71875 50.25 
L 4.6875 51.171875 
Q 5.609375 61.28125 11.65625 66.578125 
Q 17.71875 71.875 27.9375 71.875 
Q 38.234375 71.875 44.234375 66.15625 
Q 50.25 60.453125 50.25 52 
Q 50.25 47.703125 48.484375 43.546875 
Q 46.734375 39.40625 42.65625 34.8125 
Q 38.578125 30.21875 29.109375 22.21875 
Q 21.1875 15.578125 18.9375 13.203125 
Q 16.703125 10.84375 15.234375 8.453125 
z
" id="ArialMT-50"/>
       </defs>
       <use xlink:href="#ArialMT-50"/>
       <use x="55.615234" xlink:href="#ArialMT-48"/>
      </g>
     </g>
    </g>
    <g id="xtick_4">
     <g id="line2d_4">
      <path clip-path="url(#pe2a11d9a41)" d="M 341.063944 163.78 
L 341.063944 7.2 
" style="fill:none;stroke:#ffffff;stroke-linecap:round;"/>
     </g>
     <g id="text_4">
      <!-- 30 -->
      <g style="fill:#262626;" transform="translate(334.946912 181.153594)scale(0.11 -0.11)">
       <defs>
        <path d="M 4.203125 18.890625 
L 12.984375 20.0625 
Q 14.5 12.59375 18.140625 9.296875 
Q 21.78125 6 27 6 
Q 33.203125 6 37.46875 10.296875 
Q 41.75 14.59375 41.75 20.953125 
Q 41.75 27 37.796875 30.921875 
Q 33.84375 34.859375 27.734375 34.859375 
Q 25.25 34.859375 21.53125 33.890625 
L 22.515625 41.609375 
Q 23.390625 41.5 23.921875 41.5 
Q 29.546875 41.5 34.03125 44.421875 
Q 38.53125 47.359375 38.53125 53.46875 
Q 38.53125 58.296875 35.25 61.46875 
Q 31.984375 64.65625 26.8125 64.65625 
Q 21.6875 64.65625 18.265625 61.421875 
Q 14.84375 58.203125 13.875 51.765625 
L 5.078125 53.328125 
Q 6.6875 62.15625 12.390625 67.015625 
Q 18.109375 71.875 26.609375 71.875 
Q 32.46875 71.875 37.390625 69.359375 
Q 42.328125 66.84375 44.9375 62.5 
Q 47.5625 58.15625 47.5625 53.265625 
Q 47.5625 48.640625 45.0625 44.828125 
Q 42.578125 41.015625 37.703125 38.765625 
Q 44.046875 37.3125 47.5625 32.6875 
Q 51.078125 28.078125 51.078125 21.140625 
Q 51.078125 11.765625 44.234375 5.25 
Q 37.40625 -1.265625 26.953125 -1.265625 
Q 17.53125 -1.265625 11.296875 4.34375 
Q 5.078125 9.96875 4.203125 18.890625 
z
" id="ArialMT-51"/>
       </defs>
       <use xlink:href="#ArialMT-51"/>
       <use x="55.615234" xlink:href="#ArialMT-48"/>
      </g>
     </g>
    </g>
    <g id="xtick_5">
     <g id="line2d_5">
      <path clip-path="url(#pe2a11d9a41)" d="M 442.049581 163.78 
L 442.049581 7.2 
" style="fill:none;stroke:#ffffff;stroke-linecap:round;"/>
     </g>
     <g id="text_5">
      <!-- 40 -->
      <g style="fill:#262626;" transform="translate(435.93255 181.153594)scale(0.11 -0.11)">
       <defs>
        <path d="M 32.328125 0 
L 32.328125 17.140625 
L 1.265625 17.140625 
L 1.265625 25.203125 
L 33.9375 71.578125 
L 41.109375 71.578125 
L 41.109375 25.203125 
L 50.78125 25.203125 
L 50.78125 17.140625 
L 41.109375 17.140625 
L 41.109375 0 
z
M 32.328125 25.203125 
L 32.328125 57.46875 
L 9.90625 25.203125 
z
" id="ArialMT-52"/>
       </defs>
       <use xlink:href="#ArialMT-52"/>
       <use x="55.615234" xlink:href="#ArialMT-48"/>
      </g>
     </g>
    </g>
    <g id="xtick_6">
     <g id="line2d_6">
      <path clip-path="url(#pe2a11d9a41)" d="M 543.035219 163.78 
L 543.035219 7.2 
" style="fill:none;stroke:#ffffff;stroke-linecap:round;"/>
     </g>
     <g id="text_6">
      <!-- 50 -->
      <g style="fill:#262626;" transform="translate(536.918187 181.153594)scale(0.11 -0.11)">
       <defs>
        <path d="M 4.15625 18.75 
L 13.375 19.53125 
Q 14.40625 12.796875 18.140625 9.390625 
Q 21.875 6 27.15625 6 
Q 33.5 6 37.890625 10.78125 
Q 42.28125 15.578125 42.28125 23.484375 
Q 42.28125 31 38.0625 35.34375 
Q 33.84375 39.703125 27 39.703125 
Q 22.75 39.703125 19.328125 37.765625 
Q 15.921875 35.84375 13.96875 32.765625 
L 5.71875 33.84375 
L 12.640625 70.609375 
L 48.25 70.609375 
L 48.25 62.203125 
L 19.671875 62.203125 
L 15.828125 42.96875 
Q 22.265625 47.46875 29.34375 47.46875 
Q 38.71875 47.46875 45.15625 40.96875 
Q 51.609375 34.46875 51.609375 24.265625 
Q 51.609375 14.546875 45.953125 7.46875 
Q 39.0625 -1.21875 27.15625 -1.21875 
Q 17.390625 -1.21875 11.203125 4.25 
Q 5.03125 9.71875 4.15625 18.75 
z
" id="ArialMT-53"/>
       </defs>
       <use xlink:href="#ArialMT-53"/>
       <use x="55.615234" xlink:href="#ArialMT-48"/>
      </g>
     </g>
    </g>
    <g id="xtick_7">
     <g id="line2d_7">
      <path clip-path="url(#pe2a11d9a41)" d="M 644.020856 163.78 
L 644.020856 7.2 
" style="fill:none;stroke:#ffffff;stroke-linecap:round;"/>
     </g>
     <g id="text_7">
      <!-- 60 -->
      <g style="fill:#262626;" transform="translate(637.903825 181.153594)scale(0.11 -0.11)">
       <defs>
        <path d="M 49.75 54.046875 
L 41.015625 53.375 
Q 39.84375 58.546875 37.703125 60.890625 
Q 34.125 64.65625 28.90625 64.65625 
Q 24.703125 64.65625 21.53125 62.3125 
Q 17.390625 59.28125 14.984375 53.46875 
Q 12.59375 47.65625 12.5 36.921875 
Q 15.671875 41.75 20.265625 44.09375 
Q 24.859375 46.4375 29.890625 46.4375 
Q 38.671875 46.4375 44.84375 39.96875 
Q 51.03125 33.5 51.03125 23.25 
Q 51.03125 16.5 48.125 10.71875 
Q 45.21875 4.9375 40.140625 1.859375 
Q 35.0625 -1.21875 28.609375 -1.21875 
Q 17.625 -1.21875 10.6875 6.859375 
Q 3.765625 14.9375 3.765625 33.5 
Q 3.765625 54.25 11.421875 63.671875 
Q 18.109375 71.875 29.4375 71.875 
Q 37.890625 71.875 43.28125 67.140625 
Q 48.6875 62.40625 49.75 54.046875 
z
M 13.875 23.1875 
Q 13.875 18.65625 15.796875 14.5 
Q 17.71875 10.359375 21.1875 8.171875 
Q 24.65625 6 28.46875 6 
Q 34.03125 6 38.03125 10.484375 
Q 42.046875 14.984375 42.046875 22.703125 
Q 42.046875 30.125 38.078125 34.390625 
Q 34.125 38.671875 28.125 38.671875 
Q 22.171875 38.671875 18.015625 34.390625 
Q 13.875 30.125 13.875 23.1875 
z
" id="ArialMT-54"/>
       </defs>
       <use xlink:href="#ArialMT-54"/>
       <use x="55.615234" xlink:href="#ArialMT-48"/>
      </g>
     </g>
    </g>
    <g id="xtick_8">
     <g id="line2d_8">
      <path clip-path="url(#pe2a11d9a41)" d="M 745.006494 163.78 
L 745.006494 7.2 
" style="fill:none;stroke:#ffffff;stroke-linecap:round;"/>
     </g>
     <g id="text_8">
      <!-- 70 -->
      <g style="fill:#262626;" transform="translate(738.889462 181.153594)scale(0.11 -0.11)">
       <defs>
        <path d="M 4.734375 62.203125 
L 4.734375 70.65625 
L 51.078125 70.65625 
L 51.078125 63.8125 
Q 44.234375 56.546875 37.515625 44.484375 
Q 30.8125 32.421875 27.15625 19.671875 
Q 24.515625 10.6875 23.78125 0 
L 14.75 0 
Q 14.890625 8.453125 18.0625 20.40625 
Q 21.234375 32.375 27.171875 43.484375 
Q 33.109375 54.59375 39.796875 62.203125 
z
" id="ArialMT-55"/>
       </defs>
       <use xlink:href="#ArialMT-55"/>
       <use x="55.615234" xlink:href="#ArialMT-48"/>
      </g>
     </g>
    </g>
    <g id="xtick_9">
     <g id="line2d_9">
      <path clip-path="url(#pe2a11d9a41)" d="M 845.992131 163.78 
L 845.992131 7.2 
" style="fill:none;stroke:#ffffff;stroke-linecap:round;"/>
     </g>
     <g id="text_9">
      <!-- 80 -->
      <g style="fill:#262626;" transform="translate(839.8751 181.153594)scale(0.11 -0.11)">
       <defs>
        <path d="M 17.671875 38.8125 
Q 12.203125 40.828125 9.5625 44.53125 
Q 6.9375 48.25 6.9375 53.421875 
Q 6.9375 61.234375 12.546875 66.546875 
Q 18.171875 71.875 27.484375 71.875 
Q 36.859375 71.875 42.578125 66.421875 
Q 48.296875 60.984375 48.296875 53.171875 
Q 48.296875 48.1875 45.671875 44.5 
Q 43.0625 40.828125 37.75 38.8125 
Q 44.34375 36.671875 47.78125 31.875 
Q 51.21875 27.09375 51.21875 20.453125 
Q 51.21875 11.28125 44.71875 5.03125 
Q 38.234375 -1.21875 27.640625 -1.21875 
Q 17.046875 -1.21875 10.546875 5.046875 
Q 4.046875 11.328125 4.046875 20.703125 
Q 4.046875 27.6875 7.59375 32.390625 
Q 11.140625 37.109375 17.671875 38.8125 
z
M 15.921875 53.71875 
Q 15.921875 48.640625 19.1875 45.40625 
Q 22.46875 42.1875 27.6875 42.1875 
Q 32.765625 42.1875 36.015625 45.375 
Q 39.265625 48.578125 39.265625 53.21875 
Q 39.265625 58.0625 35.90625 61.359375 
Q 32.5625 64.65625 27.59375 64.65625 
Q 22.5625 64.65625 19.234375 61.421875 
Q 15.921875 58.203125 15.921875 53.71875 
z
M 13.09375 20.65625 
Q 13.09375 16.890625 14.875 13.375 
Q 16.65625 9.859375 20.171875 7.921875 
Q 23.6875 6 27.734375 6 
Q 34.03125 6 38.125 10.046875 
Q 42.234375 14.109375 42.234375 20.359375 
Q 42.234375 26.703125 38.015625 30.859375 
Q 33.796875 35.015625 27.4375 35.015625 
Q 21.234375 35.015625 17.15625 30.90625 
Q 13.09375 26.8125 13.09375 20.65625 
z
" id="ArialMT-56"/>
       </defs>
       <use xlink:href="#ArialMT-56"/>
       <use x="55.615234" xlink:href="#ArialMT-48"/>
      </g>
     </g>
    </g>
    <g id="text_10">
     <!-- Age -->
     <g style="fill:#262626;" transform="translate(431.374269 195.929219)scale(0.12 -0.12)">
      <defs>
       <path d="M -0.140625 0 
L 27.34375 71.578125 
L 37.546875 71.578125 
L 66.84375 0 
L 56.0625 0 
L 47.703125 21.6875 
L 17.78125 21.6875 
L 9.90625 0 
z
M 20.515625 29.390625 
L 44.78125 29.390625 
L 37.3125 49.21875 
Q 33.890625 58.25 32.234375 64.0625 
Q 30.859375 57.171875 28.375 50.390625 
z
" id="ArialMT-65"/>
       <path d="M 4.984375 -4.296875 
L 13.53125 -5.5625 
Q 14.0625 -9.515625 16.5 -11.328125 
Q 19.78125 -13.765625 25.4375 -13.765625 
Q 31.546875 -13.765625 34.859375 -11.328125 
Q 38.1875 -8.890625 39.359375 -4.5 
Q 40.046875 -1.8125 39.984375 6.78125 
Q 34.234375 0 25.640625 0 
Q 14.9375 0 9.078125 7.71875 
Q 3.21875 15.4375 3.21875 26.21875 
Q 3.21875 33.640625 5.90625 39.90625 
Q 8.59375 46.1875 13.6875 49.609375 
Q 18.796875 53.03125 25.6875 53.03125 
Q 34.859375 53.03125 40.828125 45.609375 
L 40.828125 51.859375 
L 48.921875 51.859375 
L 48.921875 7.03125 
Q 48.921875 -5.078125 46.453125 -10.125 
Q 44 -15.1875 38.640625 -18.109375 
Q 33.296875 -21.046875 25.484375 -21.046875 
Q 16.21875 -21.046875 10.5 -16.875 
Q 4.78125 -12.703125 4.984375 -4.296875 
z
M 12.25 26.859375 
Q 12.25 16.65625 16.296875 11.96875 
Q 20.359375 7.28125 26.46875 7.28125 
Q 32.515625 7.28125 36.609375 11.9375 
Q 40.71875 16.609375 40.71875 26.5625 
Q 40.71875 36.078125 36.5 40.90625 
Q 32.28125 45.75 26.3125 45.75 
Q 20.453125 45.75 16.34375 40.984375 
Q 12.25 36.234375 12.25 26.859375 
z
" id="ArialMT-103"/>
       <path d="M 42.09375 16.703125 
L 51.171875 15.578125 
Q 49.03125 7.625 43.21875 3.21875 
Q 37.40625 -1.171875 28.375 -1.171875 
Q 17 -1.171875 10.328125 5.828125 
Q 3.65625 12.84375 3.65625 25.484375 
Q 3.65625 38.578125 10.390625 45.796875 
Q 17.140625 53.03125 27.875 53.03125 
Q 38.28125 53.03125 44.875 45.953125 
Q 51.46875 38.875 51.46875 26.03125 
Q 51.46875 25.25 51.421875 23.6875 
L 12.75 23.6875 
Q 13.234375 15.140625 17.578125 10.59375 
Q 21.921875 6.0625 28.421875 6.0625 
Q 33.25 6.0625 36.671875 8.59375 
Q 40.09375 11.140625 42.09375 16.703125 
z
M 13.234375 30.90625 
L 42.1875 30.90625 
Q 41.609375 37.453125 38.875 40.71875 
Q 34.671875 45.796875 27.984375 45.796875 
Q 21.921875 45.796875 17.796875 41.75 
Q 13.671875 37.703125 13.234375 30.90625 
z
" id="ArialMT-101"/>
      </defs>
      <use xlink:href="#ArialMT-65"/>
      <use x="66.699219" xlink:href="#ArialMT-103"/>
      <use x="122.314453" xlink:href="#ArialMT-101"/>
     </g>
    </g>
   </g>
   <g id="matplotlib.axis_2">
    <g id="ytick_1">
     <g id="line2d_10">
      <path clip-path="url(#pe2a11d9a41)" d="M 38.107031 163.78 
L 845.992131 163.78 
" style="fill:none;stroke:#ffffff;stroke-linecap:round;"/>
     </g>
     <g id="text_11">
      <!-- 0.00 -->
      <g style="fill:#262626;" transform="translate(7.2 167.716797)scale(0.11 -0.11)">
       <defs>
        <path d="M 9.078125 0 
L 9.078125 10.015625 
L 19.09375 10.015625 
L 19.09375 0 
z
" id="ArialMT-46"/>
       </defs>
       <use xlink:href="#ArialMT-48"/>
       <use x="55.615234" xlink:href="#ArialMT-46"/>
       <use x="83.398438" xlink:href="#ArialMT-48"/>
       <use x="139.013672" xlink:href="#ArialMT-48"/>
      </g>
     </g>
    </g>
    <g id="ytick_2">
     <g id="line2d_11">
      <path clip-path="url(#pe2a11d9a41)" d="M 38.107031 129.745952 
L 845.992131 129.745952 
" style="fill:none;stroke:#ffffff;stroke-linecap:round;"/>
     </g>
     <g id="text_12">
      <!-- 0.01 -->
      <g style="fill:#262626;" transform="translate(7.2 133.682749)scale(0.11 -0.11)">
       <use xlink:href="#ArialMT-48"/>
       <use x="55.615234" xlink:href="#ArialMT-46"/>
       <use x="83.398438" xlink:href="#ArialMT-48"/>
       <use x="139.013672" xlink:href="#ArialMT-49"/>
      </g>
     </g>
    </g>
    <g id="ytick_3">
     <g id="line2d_12">
      <path clip-path="url(#pe2a11d9a41)" d="M 38.107031 95.711904 
L 845.992131 95.711904 
" style="fill:none;stroke:#ffffff;stroke-linecap:round;"/>
     </g>
     <g id="text_13">
      <!-- 0.02 -->
      <g style="fill:#262626;" transform="translate(7.2 99.648701)scale(0.11 -0.11)">
       <use xlink:href="#ArialMT-48"/>
       <use x="55.615234" xlink:href="#ArialMT-46"/>
       <use x="83.398438" xlink:href="#ArialMT-48"/>
       <use x="139.013672" xlink:href="#ArialMT-50"/>
      </g>
     </g>
    </g>
    <g id="ytick_4">
     <g id="line2d_13">
      <path clip-path="url(#pe2a11d9a41)" d="M 38.107031 61.677855 
L 845.992131 61.677855 
" style="fill:none;stroke:#ffffff;stroke-linecap:round;"/>
     </g>
     <g id="text_14">
      <!-- 0.03 -->
      <g style="fill:#262626;" transform="translate(7.2 65.614652)scale(0.11 -0.11)">
       <use xlink:href="#ArialMT-48"/>
       <use x="55.615234" xlink:href="#ArialMT-46"/>
       <use x="83.398438" xlink:href="#ArialMT-48"/>
       <use x="139.013672" xlink:href="#ArialMT-51"/>
      </g>
     </g>
    </g>
    <g id="ytick_5">
     <g id="line2d_14">
      <path clip-path="url(#pe2a11d9a41)" d="M 38.107031 27.643807 
L 845.992131 27.643807 
" style="fill:none;stroke:#ffffff;stroke-linecap:round;"/>
     </g>
     <g id="text_15">
      <!-- 0.04 -->
      <g style="fill:#262626;" transform="translate(7.2 31.580604)scale(0.11 -0.11)">
       <use xlink:href="#ArialMT-48"/>
       <use x="55.615234" xlink:href="#ArialMT-46"/>
       <use x="83.398438" xlink:href="#ArialMT-48"/>
       <use x="139.013672" xlink:href="#ArialMT-52"/>
      </g>
     </g>
    </g>
   </g>
   <g id="PolyCollection_1">
    <path clip-path="url(#pe2a11d9a41)" d="M -60.295034 163.739684 
L -60.295034 163.78 
L -55.500078 163.78 
L -50.705121 163.78 
L -45.910164 163.78 
L -41.115207 163.78 
L -36.32025 163.78 
L -31.525293 163.78 
L -26.730337 163.78 
L -21.93538 163.78 
L -17.140423 163.78 
L -12.345466 163.78 
L -7.550509 163.78 
L -2.755552 163.78 
L 2.039405 163.78 
L 6.834361 163.78 
L 11.629318 163.78 
L 16.424275 163.78 
L 21.219232 163.78 
L 26.014189 163.78 
L 30.809146 163.78 
L 35.604102 163.78 
L 40.399059 163.78 
L 45.194016 163.78 
L 49.988973 163.78 
L 54.78393 163.78 
L 59.578887 163.78 
L 64.373844 163.78 
L 69.1688 163.78 
L 73.963757 163.78 
L 78.758714 163.78 
L 83.553671 163.78 
L 88.348628 163.78 
L 93.143585 163.78 
L 97.938541 163.78 
L 102.733498 163.78 
L 107.528455 163.78 
L 112.323412 163.78 
L 117.118369 163.78 
L 121.913326 163.78 
L 126.708283 163.78 
L 131.503239 163.78 
L 136.298196 163.78 
L 141.093153 163.78 
L 145.88811 163.78 
L 150.683067 163.78 
L 155.478024 163.78 
L 160.27298 163.78 
L 165.067937 163.78 
L 169.862894 163.78 
L 174.657851 163.78 
L 179.452808 163.78 
L 184.247765 163.78 
L 189.042722 163.78 
L 193.837678 163.78 
L 198.632635 163.78 
L 203.427592 163.78 
L 208.222549 163.78 
L 213.017506 163.78 
L 217.812463 163.78 
L 222.607419 163.78 
L 227.402376 163.78 
L 232.197333 163.78 
L 236.99229 163.78 
L 241.787247 163.78 
L 246.582204 163.78 
L 251.377161 163.78 
L 256.172117 163.78 
L 260.967074 163.78 
L 265.762031 163.78 
L 270.556988 163.78 
L 275.351945 163.78 
L 280.146902 163.78 
L 284.941859 163.78 
L 289.736815 163.78 
L 294.531772 163.78 
L 299.326729 163.78 
L 304.121686 163.78 
L 308.916643 163.78 
L 313.7116 163.78 
L 318.506556 163.78 
L 323.301513 163.78 
L 328.09647 163.78 
L 332.891427 163.78 
L 337.686384 163.78 
L 342.481341 163.78 
L 347.276298 163.78 
L 352.071254 163.78 
L 356.866211 163.78 
L 361.661168 163.78 
L 366.456125 163.78 
L 371.251082 163.78 
L 376.046039 163.78 
L 380.840995 163.78 
L 385.635952 163.78 
L 390.430909 163.78 
L 395.225866 163.78 
L 400.020823 163.78 
L 404.81578 163.78 
L 409.610737 163.78 
L 414.405693 163.78 
L 419.20065 163.78 
L 423.995607 163.78 
L 428.790564 163.78 
L 433.585521 163.78 
L 438.380478 163.78 
L 443.175434 163.78 
L 447.970391 163.78 
L 452.765348 163.78 
L 457.560305 163.78 
L 462.355262 163.78 
L 467.150219 163.78 
L 471.945176 163.78 
L 476.740132 163.78 
L 481.535089 163.78 
L 486.330046 163.78 
L 491.125003 163.78 
L 495.91996 163.78 
L 500.714917 163.78 
L 505.509873 163.78 
L 510.30483 163.78 
L 515.099787 163.78 
L 519.894744 163.78 
L 524.689701 163.78 
L 529.484658 163.78 
L 534.279615 163.78 
L 539.074571 163.78 
L 543.869528 163.78 
L 548.664485 163.78 
L 553.459442 163.78 
L 558.254399 163.78 
L 563.049356 163.78 
L 567.844312 163.78 
L 572.639269 163.78 
L 577.434226 163.78 
L 582.229183 163.78 
L 587.02414 163.78 
L 591.819097 163.78 
L 596.614054 163.78 
L 601.40901 163.78 
L 606.203967 163.78 
L 610.998924 163.78 
L 615.793881 163.78 
L 620.588838 163.78 
L 625.383795 163.78 
L 630.178751 163.78 
L 634.973708 163.78 
L 639.768665 163.78 
L 644.563622 163.78 
L 649.358579 163.78 
L 654.153536 163.78 
L 658.948493 163.78 
L 663.743449 163.78 
L 668.538406 163.78 
L 673.333363 163.78 
L 678.12832 163.78 
L 682.923277 163.78 
L 687.718234 163.78 
L 692.51319 163.78 
L 697.308147 163.78 
L 702.103104 163.78 
L 706.898061 163.78 
L 711.693018 163.78 
L 716.487975 163.78 
L 721.282932 163.78 
L 726.077888 163.78 
L 730.872845 163.78 
L 735.667802 163.78 
L 740.462759 163.78 
L 745.257716 163.78 
L 750.052673 163.78 
L 754.847629 163.78 
L 759.642586 163.78 
L 764.437543 163.78 
L 769.2325 163.78 
L 774.027457 163.78 
L 778.822414 163.78 
L 783.617371 163.78 
L 788.412327 163.78 
L 793.207284 163.78 
L 798.002241 163.78 
L 802.797198 163.78 
L 807.592155 163.78 
L 812.387112 163.78 
L 817.182069 163.78 
L 821.977025 163.78 
L 826.771982 163.78 
L 831.566939 163.78 
L 836.361896 163.78 
L 841.156853 163.78 
L 845.95181 163.78 
L 850.746766 163.78 
L 855.541723 163.78 
L 860.33668 163.78 
L 865.131637 163.78 
L 869.926594 163.78 
L 874.721551 163.78 
L 879.516508 163.78 
L 884.311464 163.78 
L 889.106421 163.78 
L 893.901378 163.78 
L 893.901378 163.77091 
L 893.901378 163.77091 
L 889.106421 163.766316 
L 884.311464 163.759716 
L 879.516508 163.750385 
L 874.721551 163.737405 
L 869.926594 163.719637 
L 865.131637 163.695696 
L 860.33668 163.663942 
L 855.541723 163.62248 
L 850.746766 163.569176 
L 845.95181 163.501704 
L 841.156853 163.417611 
L 836.361896 163.314421 
L 831.566939 163.189759 
L 826.771982 163.04151 
L 821.977025 162.867999 
L 817.182069 162.668178 
L 812.387112 162.44181 
L 807.592155 162.189626 
L 802.797198 161.913439 
L 798.002241 161.616178 
L 793.207284 161.301839 
L 788.412327 160.975324 
L 783.617371 160.642174 
L 778.822414 160.308196 
L 774.027457 159.979022 
L 769.2325 159.65963 
L 764.437543 159.353881 
L 759.642586 159.064126 
L 754.847629 158.790949 
L 750.052673 158.533066 
L 745.257716 158.287427 
L 740.462759 158.049504 
L 735.667802 157.813744 
L 730.872845 157.574139 
L 726.077888 157.324839 
L 721.282932 157.060743 
L 716.487975 156.777985 
L 711.693018 156.474288 
L 706.898061 156.149117 
L 702.103104 155.803659 
L 697.308147 155.440625 
L 692.51319 155.063919 
L 687.718234 154.67823 
L 682.923277 154.288576 
L 678.12832 153.899874 
L 673.333363 153.516554 
L 668.538406 153.142244 
L 663.743449 152.779541 
L 658.948493 152.429874 
L 654.153536 152.093431 
L 649.358579 151.769175 
L 644.563622 151.454898 
L 639.768665 151.147343 
L 634.973708 150.842348 
L 630.178751 150.535028 
L 625.383795 150.21998 
L 620.588838 149.891491 
L 615.793881 149.543757 
L 610.998924 149.171091 
L 606.203967 148.768116 
L 601.40901 148.329932 
L 596.614054 147.852263 
L 591.819097 147.331562 
L 587.02414 146.76509 
L 582.229183 146.150968 
L 577.434226 145.488201 
L 572.639269 144.776695 
L 567.844312 144.017259 
L 563.049356 143.211613 
L 558.254399 142.362401 
L 553.459442 141.473204 
L 548.664485 140.548545 
L 543.869528 139.593877 
L 539.074571 138.61552 
L 534.279615 137.620534 
L 529.484658 136.616499 
L 524.689701 135.611205 
L 519.894744 134.612237 
L 515.099787 133.626494 
L 510.30483 132.659665 
L 505.509873 131.715713 
L 500.714917 130.796429 
L 495.91996 129.90108 
L 491.125003 129.026198 
L 486.330046 128.165502 
L 481.535089 127.309928 
L 476.740132 126.447723 
L 471.945176 125.564512 
L 467.150219 124.643286 
L 462.355262 123.664218 
L 457.560305 122.604272 
L 452.765348 121.436609 
L 447.970391 120.129841 
L 443.175434 118.64725 
L 438.380478 116.946161 
L 433.585521 114.977701 
L 428.790564 112.687229 
L 423.995607 110.015705 
L 419.20065 106.902254 
L 414.405693 103.288064 
L 409.610737 99.121651 
L 404.81578 94.365279 
L 400.020823 89.002147 
L 395.225866 83.043683 
L 390.430909 76.536089 
L 385.635952 69.565171 
L 380.840995 62.258454 
L 376.046039 54.783746 
L 371.251082 47.343606 
L 366.456125 40.165611 
L 361.661168 33.488878 
L 356.866211 27.54782 
L 352.071254 22.554624 
L 347.276298 18.682256 
L 342.481341 16.0499 
L 337.686384 14.712569 
L 332.891427 14.65619 
L 328.09647 15.798873 
L 323.301513 17.998305 
L 318.506556 21.064492 
L 313.7116 24.776449 
L 308.916643 28.900992 
L 304.121686 33.211653 
L 299.326729 37.505795 
L 294.531772 41.618366 
L 289.736815 45.431209 
L 284.941859 48.877422 
L 280.146902 51.940845 
L 275.351945 54.651245 
L 270.556988 57.076107 
L 265.762031 59.310188 
L 260.967074 61.464013 
L 256.172117 63.652414 
L 251.377161 65.984079 
L 246.582204 68.552781 
L 241.787247 71.430754 
L 236.99229 74.664419 
L 232.197333 78.272443 
L 227.402376 82.245952 
L 222.607419 86.550598 
L 217.812463 91.130109 
L 213.017506 95.910899 
L 208.222549 100.807364 
L 203.427592 105.727451 
L 198.632635 110.578182 
L 193.837678 115.27082 
L 189.042722 119.725444 
L 184.247765 123.874702 
L 179.452808 127.666612 
L 174.657851 131.066287 
L 169.862894 134.056533 
L 165.067937 136.637329 
L 160.27298 138.824277 
L 155.478024 140.646151 
L 150.683067 142.141777 
L 145.88811 143.356513 
L 141.093153 144.338629 
L 136.298196 145.135904 
L 131.503239 145.792722 
L 126.708283 146.347907 
L 121.913326 146.833412 
L 117.118369 147.273933 
L 112.323412 147.687341 
L 107.528455 148.085803 
L 102.733498 148.477324 
L 97.938541 148.867443 
L 93.143585 149.260829 
L 88.348628 149.662508 
L 83.553671 150.078598 
L 78.758714 150.516465 
L 73.963757 150.984329 
L 69.1688 151.490441 
L 64.373844 152.042 
L 59.578887 152.644023 
L 54.78393 153.298361 
L 49.988973 154.00304 
L 45.194016 154.752028 
L 40.399059 155.535459 
L 35.604102 156.340299 
L 30.809146 157.151339 
L 26.014189 157.952394 
L 21.219232 158.727544 
L 16.424275 159.462289 
L 11.629318 160.144482 
L 6.834361 160.764968 
L 2.039405 161.317901 
L -2.755552 161.800743 
L -7.550509 162.213991 
L -12.345466 162.560707 
L -17.140423 162.845926 
L -21.93538 163.076018 
L -26.730337 163.258079 
L -31.525293 163.399397 
L -36.32025 163.507018 
L -41.115207 163.587443 
L -45.910164 163.646425 
L -50.705121 163.68888 
L -55.500078 163.718877 
L -60.295034 163.739684 
z
" style="fill:#4c72b0;fill-opacity:0.25;stroke:#4c72b0;"/>
   </g>
   <g id="PolyCollection_2">
    <path clip-path="url(#pe2a11d9a41)" d="M -90.023864 163.667099 
L -90.023864 163.78 
L -84.655078 163.78 
L -79.286293 163.78 
L -73.917508 163.78 
L -68.548722 163.78 
L -63.179937 163.78 
L -57.811151 163.78 
L -52.442366 163.78 
L -47.073581 163.78 
L -41.704795 163.78 
L -36.33601 163.78 
L -30.967225 163.78 
L -25.598439 163.78 
L -20.229654 163.78 
L -14.860869 163.78 
L -9.492083 163.78 
L -4.123298 163.78 
L 1.245488 163.78 
L 6.614273 163.78 
L 11.983058 163.78 
L 17.351844 163.78 
L 22.720629 163.78 
L 28.089414 163.78 
L 33.4582 163.78 
L 38.826985 163.78 
L 44.19577 163.78 
L 49.564556 163.78 
L 54.933341 163.78 
L 60.302126 163.78 
L 65.670912 163.78 
L 71.039697 163.78 
L 76.408483 163.78 
L 81.777268 163.78 
L 87.146053 163.78 
L 92.514839 163.78 
L 97.883624 163.78 
L 103.252409 163.78 
L 108.621195 163.78 
L 113.98998 163.78 
L 119.358765 163.78 
L 124.727551 163.78 
L 130.096336 163.78 
L 135.465121 163.78 
L 140.833907 163.78 
L 146.202692 163.78 
L 151.571478 163.78 
L 156.940263 163.78 
L 162.309048 163.78 
L 167.677834 163.78 
L 173.046619 163.78 
L 178.415404 163.78 
L 183.78419 163.78 
L 189.152975 163.78 
L 194.52176 163.78 
L 199.890546 163.78 
L 205.259331 163.78 
L 210.628116 163.78 
L 215.996902 163.78 
L 221.365687 163.78 
L 226.734473 163.78 
L 232.103258 163.78 
L 237.472043 163.78 
L 242.840829 163.78 
L 248.209614 163.78 
L 253.578399 163.78 
L 258.947185 163.78 
L 264.31597 163.78 
L 269.684755 163.78 
L 275.053541 163.78 
L 280.422326 163.78 
L 285.791111 163.78 
L 291.159897 163.78 
L 296.528682 163.78 
L 301.897468 163.78 
L 307.266253 163.78 
L 312.635038 163.78 
L 318.003824 163.78 
L 323.372609 163.78 
L 328.741394 163.78 
L 334.11018 163.78 
L 339.478965 163.78 
L 344.84775 163.78 
L 350.216536 163.78 
L 355.585321 163.78 
L 360.954106 163.78 
L 366.322892 163.78 
L 371.691677 163.78 
L 377.060463 163.78 
L 382.429248 163.78 
L 387.798033 163.78 
L 393.166819 163.78 
L 398.535604 163.78 
L 403.904389 163.78 
L 409.273175 163.78 
L 414.64196 163.78 
L 420.010745 163.78 
L 425.379531 163.78 
L 430.748316 163.78 
L 436.117102 163.78 
L 441.485887 163.78 
L 446.854672 163.78 
L 452.223458 163.78 
L 457.592243 163.78 
L 462.961028 163.78 
L 468.329814 163.78 
L 473.698599 163.78 
L 479.067384 163.78 
L 484.43617 163.78 
L 489.804955 163.78 
L 495.17374 163.78 
L 500.542526 163.78 
L 505.911311 163.78 
L 511.280097 163.78 
L 516.648882 163.78 
L 522.017667 163.78 
L 527.386453 163.78 
L 532.755238 163.78 
L 538.124023 163.78 
L 543.492809 163.78 
L 548.861594 163.78 
L 554.230379 163.78 
L 559.599165 163.78 
L 564.96795 163.78 
L 570.336735 163.78 
L 575.705521 163.78 
L 581.074306 163.78 
L 586.443092 163.78 
L 591.811877 163.78 
L 597.180662 163.78 
L 602.549448 163.78 
L 607.918233 163.78 
L 613.287018 163.78 
L 618.655804 163.78 
L 624.024589 163.78 
L 629.393374 163.78 
L 634.76216 163.78 
L 640.130945 163.78 
L 645.49973 163.78 
L 650.868516 163.78 
L 656.237301 163.78 
L 661.606087 163.78 
L 666.974872 163.78 
L 672.343657 163.78 
L 677.712443 163.78 
L 683.081228 163.78 
L 688.450013 163.78 
L 693.818799 163.78 
L 699.187584 163.78 
L 704.556369 163.78 
L 709.925155 163.78 
L 715.29394 163.78 
L 720.662725 163.78 
L 726.031511 163.78 
L 731.400296 163.78 
L 736.769082 163.78 
L 742.137867 163.78 
L 747.506652 163.78 
L 752.875438 163.78 
L 758.244223 163.78 
L 763.613008 163.78 
L 768.981794 163.78 
L 774.350579 163.78 
L 779.719364 163.78 
L 785.08815 163.78 
L 790.456935 163.78 
L 795.825721 163.78 
L 801.194506 163.78 
L 806.563291 163.78 
L 811.932077 163.78 
L 817.300862 163.78 
L 822.669647 163.78 
L 828.038433 163.78 
L 833.407218 163.78 
L 838.776003 163.78 
L 844.144789 163.78 
L 849.513574 163.78 
L 854.882359 163.78 
L 860.251145 163.78 
L 865.61993 163.78 
L 870.988716 163.78 
L 876.357501 163.78 
L 881.726286 163.78 
L 887.095072 163.78 
L 892.463857 163.78 
L 897.832642 163.78 
L 903.201428 163.78 
L 908.570213 163.78 
L 913.938998 163.78 
L 919.307784 163.78 
L 924.676569 163.78 
L 930.045354 163.78 
L 935.41414 163.78 
L 940.782925 163.78 
L 946.151711 163.78 
L 951.520496 163.78 
L 956.889281 163.78 
L 962.258067 163.78 
L 967.626852 163.78 
L 972.995637 163.78 
L 978.364423 163.78 
L 978.364423 163.769906 
L 978.364423 163.769906 
L 972.995637 163.765567 
L 967.626852 163.759665 
L 962.258067 163.75177 
L 956.889281 163.741387 
L 951.520496 163.727961 
L 946.151711 163.710898 
L 940.782925 163.689588 
L 935.41414 163.663445 
L 930.045354 163.63195 
L 924.676569 163.594709 
L 919.307784 163.551507 
L 913.938998 163.502374 
L 908.570213 163.447632 
L 903.201428 163.387943 
L 897.832642 163.324331 
L 892.463857 163.258178 
L 887.095072 163.191199 
L 881.726286 163.125382 
L 876.357501 163.062892 
L 870.988716 163.005964 
L 865.61993 162.956763 
L 860.251145 162.917248 
L 854.882359 162.889036 
L 849.513574 162.873275 
L 844.144789 162.870556 
L 838.776003 162.880849 
L 833.407218 162.90348 
L 828.038433 162.937146 
L 822.669647 162.979966 
L 817.300862 163.029553 
L 811.932077 163.083105 
L 806.563291 163.137497 
L 801.194506 163.189372 
L 795.825721 163.235206 
L 790.456935 163.271364 
L 785.08815 163.294128 
L 779.719364 163.299712 
L 774.350579 163.284267 
L 768.981794 163.243891 
L 763.613008 163.174647 
L 758.244223 163.072613 
L 752.875438 162.933961 
L 747.506652 162.755076 
L 742.137867 162.53271 
L 736.769082 162.264164 
L 731.400296 161.947482 
L 726.031511 161.581638 
L 720.662725 161.166699 
L 715.29394 160.703931 
L 709.925155 160.195831 
L 704.556369 159.646075 
L 699.187584 159.059367 
L 693.818799 158.441192 
L 688.450013 157.797488 
L 683.081228 157.134263 
L 677.712443 156.45717 
L 672.343657 155.7711 
L 666.974872 155.07981 
L 661.606087 154.385635 
L 656.237301 153.689302 
L 650.868516 152.989875 
L 645.49973 152.28485 
L 640.130945 151.57038 
L 634.76216 150.841637 
L 629.393374 150.093278 
L 624.024589 149.319992 
L 618.655804 148.517079 
L 613.287018 147.681029 
L 607.918233 146.81004 
L 602.549448 145.904449 
L 597.180662 144.967006 
L 591.811877 144.002978 
L 586.443092 143.020045 
L 581.074306 142.027976 
L 575.705521 141.038079 
L 570.336735 140.062468 
L 564.96795 139.113163 
L 559.599165 138.201094 
L 554.230379 137.335073 
L 548.861594 136.520817 
L 543.492809 135.7601 
L 538.124023 135.050099 
L 532.755238 134.383005 
L 527.386453 133.745917 
L 522.017667 133.121042 
L 516.648882 132.486191 
L 511.280097 131.815519 
L 505.911311 131.080479 
L 500.542526 130.250914 
L 495.17374 129.296239 
L 489.804955 128.186654 
L 484.43617 126.894345 
L 479.067384 125.394646 
L 473.698599 123.667135 
L 468.329814 121.696647 
L 462.961028 119.474188 
L 457.592243 116.997728 
L 452.223458 114.272818 
L 446.854672 111.313014 
L 441.485887 108.140026 
L 436.117102 104.783554 
L 430.748316 101.280767 
L 425.379531 97.675391 
L 420.010745 94.016434 
L 414.64196 90.356559 
L 409.273175 86.750198 
L 403.904389 83.251504 
L 398.535604 79.912247 
L 393.166819 76.779788 
L 387.798033 73.895244 
L 382.429248 71.291939 
L 377.060463 68.994224 
L 371.691677 67.016698 
L 366.322892 65.363882 
L 360.954106 64.030334 
L 355.585321 63.001216 
L 350.216536 62.253293 
L 344.84775 61.756361 
L 339.478965 61.475058 
L 334.11018 61.371025 
L 328.741394 61.405333 
L 323.372609 61.541076 
L 318.003824 61.745984 
L 312.635038 61.99487 
L 307.266253 62.271735 
L 301.897468 62.571315 
L 296.528682 62.899907 
L 291.159897 63.275337 
L 285.791111 63.726016 
L 280.422326 64.289101 
L 275.053541 65.007868 
L 269.684755 65.928493 
L 264.31597 67.096493 
L 258.947185 68.553104 
L 253.578399 70.331908 
L 248.209614 72.455964 
L 242.840829 74.93567 
L 237.472043 77.767485 
L 232.103258 80.933582 
L 226.734473 84.402394 
L 221.365687 88.129958 
L 215.996902 92.061913 
L 210.628116 96.135942 
L 205.259331 100.284481 
L 199.890546 104.437489 
L 194.52176 108.525132 
L 189.152975 112.480236 
L 183.78419 116.240442 
L 178.415404 119.750004 
L 173.046619 122.961216 
L 167.677834 125.835489 
L 162.309048 128.3441 
L 156.940263 130.468647 
L 151.571478 132.201249 
L 146.202692 133.544526 
L 140.833907 134.511369 
L 135.465121 135.124516 
L 130.096336 135.41593 
L 124.727551 135.425966 
L 119.358765 135.20232 
L 113.98998 134.798725 
L 108.621195 134.27341 
L 103.252409 133.68731 
L 97.883624 133.10206 
L 92.514839 132.577834 
L 87.146053 132.171088 
L 81.777268 131.932335 
L 76.408483 131.904065 
L 71.039697 132.118941 
L 65.670912 132.598419 
L 60.302126 133.351894 
L 54.933341 134.376461 
L 49.564556 135.65734 
L 44.19577 137.168936 
L 38.826985 138.876503 
L 33.4582 140.738263 
L 28.089414 142.707862 
L 22.720629 144.736957 
L 17.351844 146.77777 
L 11.983058 148.785422 
L 6.614273 150.719898 
L 1.245488 152.547541 
L -4.123298 154.24201 
L -9.492083 155.784685 
L -14.860869 157.164566 
L -20.229654 158.377729 
L -25.598439 159.42644 
L -30.967225 160.318051 
L -36.33601 161.063776 
L -41.704795 161.677467 
L -47.073581 162.174472 
L -52.442366 162.570631 
L -57.811151 162.881463 
L -63.179937 163.121553 
L -68.548722 163.304131 
L -73.917508 163.440835 
L -79.286293 163.541621 
L -84.655078 163.61479 
L -90.023864 163.667099 
z
" style="fill:#dd8452;fill-opacity:0.25;stroke:#dd8452;"/>
   </g>
   <g id="patch_3">
    <path d="M 38.107031 163.78 
L 38.107031 7.2 
" style="fill:none;stroke:#ffffff;stroke-linecap:square;stroke-linejoin:miter;stroke-width:1.25;"/>
   </g>
   <g id="patch_4">
    <path d="M 38.107031 163.78 
L 845.992131 163.78 
" style="fill:none;stroke:#ffffff;stroke-linecap:square;stroke-linejoin:miter;stroke-width:1.25;"/>
   </g>
  </g>
  <g id="legend_1">
   <g id="text_16">
    <!-- Survived -->
    <g style="fill:#262626;" transform="translate(855.852006 90.369766)scale(0.12 -0.12)">
     <defs>
      <path d="M 4.5 23 
L 13.421875 23.78125 
Q 14.0625 18.40625 16.375 14.96875 
Q 18.703125 11.53125 23.578125 9.40625 
Q 28.46875 7.28125 34.578125 7.28125 
Q 39.984375 7.28125 44.140625 8.890625 
Q 48.296875 10.5 50.3125 13.296875 
Q 52.34375 16.109375 52.34375 19.4375 
Q 52.34375 22.796875 50.390625 25.3125 
Q 48.4375 27.828125 43.953125 29.546875 
Q 41.0625 30.671875 31.203125 33.03125 
Q 21.34375 35.40625 17.390625 37.5 
Q 12.25 40.1875 9.734375 44.15625 
Q 7.234375 48.140625 7.234375 53.078125 
Q 7.234375 58.5 10.296875 63.203125 
Q 13.375 67.921875 19.28125 70.359375 
Q 25.203125 72.796875 32.421875 72.796875 
Q 40.375 72.796875 46.453125 70.234375 
Q 52.546875 67.671875 55.8125 62.6875 
Q 59.078125 57.71875 59.328125 51.421875 
L 50.25 50.734375 
Q 49.515625 57.515625 45.28125 60.984375 
Q 41.0625 64.453125 32.8125 64.453125 
Q 24.21875 64.453125 20.28125 61.296875 
Q 16.359375 58.15625 16.359375 53.71875 
Q 16.359375 49.859375 19.140625 47.359375 
Q 21.875 44.875 33.421875 42.265625 
Q 44.96875 39.65625 49.265625 37.703125 
Q 55.515625 34.8125 58.484375 30.390625 
Q 61.46875 25.984375 61.46875 20.21875 
Q 61.46875 14.5 58.203125 9.4375 
Q 54.9375 4.390625 48.796875 1.578125 
Q 42.671875 -1.21875 35.015625 -1.21875 
Q 25.296875 -1.21875 18.71875 1.609375 
Q 12.15625 4.4375 8.421875 10.125 
Q 4.6875 15.828125 4.5 23 
z
" id="ArialMT-83"/>
      <path d="M 40.578125 0 
L 40.578125 7.625 
Q 34.515625 -1.171875 24.125 -1.171875 
Q 19.53125 -1.171875 15.546875 0.578125 
Q 11.578125 2.34375 9.640625 5 
Q 7.71875 7.671875 6.9375 11.53125 
Q 6.390625 14.109375 6.390625 19.734375 
L 6.390625 51.859375 
L 15.1875 51.859375 
L 15.1875 23.09375 
Q 15.1875 16.21875 15.71875 13.8125 
Q 16.546875 10.359375 19.234375 8.375 
Q 21.921875 6.390625 25.875 6.390625 
Q 29.828125 6.390625 33.296875 8.421875 
Q 36.765625 10.453125 38.203125 13.9375 
Q 39.65625 17.4375 39.65625 24.078125 
L 39.65625 51.859375 
L 48.4375 51.859375 
L 48.4375 0 
z
" id="ArialMT-117"/>
      <path d="M 6.5 0 
L 6.5 51.859375 
L 14.40625 51.859375 
L 14.40625 44 
Q 17.4375 49.515625 20 51.265625 
Q 22.5625 53.03125 25.640625 53.03125 
Q 30.078125 53.03125 34.671875 50.203125 
L 31.640625 42.046875 
Q 28.421875 43.953125 25.203125 43.953125 
Q 22.3125 43.953125 20.015625 42.21875 
Q 17.71875 40.484375 16.75 37.40625 
Q 15.28125 32.71875 15.28125 27.15625 
L 15.28125 0 
z
" id="ArialMT-114"/>
      <path d="M 21 0 
L 1.265625 51.859375 
L 10.546875 51.859375 
L 21.6875 20.796875 
Q 23.484375 15.765625 25 10.359375 
Q 26.171875 14.453125 28.265625 20.21875 
L 39.796875 51.859375 
L 48.828125 51.859375 
L 29.203125 0 
z
" id="ArialMT-118"/>
      <path d="M 6.640625 61.46875 
L 6.640625 71.578125 
L 15.4375 71.578125 
L 15.4375 61.46875 
z
M 6.640625 0 
L 6.640625 51.859375 
L 15.4375 51.859375 
L 15.4375 0 
z
" id="ArialMT-105"/>
      <path d="M 40.234375 0 
L 40.234375 6.546875 
Q 35.296875 -1.171875 25.734375 -1.171875 
Q 19.53125 -1.171875 14.328125 2.25 
Q 9.125 5.671875 6.265625 11.796875 
Q 3.421875 17.921875 3.421875 25.875 
Q 3.421875 33.640625 6 39.96875 
Q 8.59375 46.296875 13.765625 49.65625 
Q 18.953125 53.03125 25.34375 53.03125 
Q 30.03125 53.03125 33.6875 51.046875 
Q 37.359375 49.078125 39.65625 45.90625 
L 39.65625 71.578125 
L 48.390625 71.578125 
L 48.390625 0 
z
M 12.453125 25.875 
Q 12.453125 15.921875 16.640625 10.984375 
Q 20.84375 6.0625 26.5625 6.0625 
Q 32.328125 6.0625 36.34375 10.765625 
Q 40.375 15.484375 40.375 25.140625 
Q 40.375 35.796875 36.265625 40.765625 
Q 32.171875 45.75 26.171875 45.75 
Q 20.3125 45.75 16.375 40.96875 
Q 12.453125 36.1875 12.453125 25.875 
z
" id="ArialMT-100"/>
     </defs>
     <use xlink:href="#ArialMT-83"/>
     <use x="66.699219" xlink:href="#ArialMT-117"/>
     <use x="122.314453" xlink:href="#ArialMT-114"/>
     <use x="155.615234" xlink:href="#ArialMT-118"/>
     <use x="205.615234" xlink:href="#ArialMT-105"/>
     <use x="227.832031" xlink:href="#ArialMT-118"/>
     <use x="277.832031" xlink:href="#ArialMT-101"/>
     <use x="333.447266" xlink:href="#ArialMT-100"/>
    </g>
   </g>
   <g id="patch_5">
    <path d="M 860.736303 106.128359 
L 882.736303 106.128359 
L 882.736303 98.428359 
L 860.736303 98.428359 
z
" style="fill:#4c72b0;fill-opacity:0.25;stroke:#4c72b0;stroke-linejoin:miter;"/>
   </g>
   <g id="text_17">
    <!-- 0 -->
    <g style="fill:#262626;" transform="translate(891.536303 106.128359)scale(0.11 -0.11)">
     <use xlink:href="#ArialMT-48"/>
    </g>
   </g>
   <g id="patch_6">
    <path d="M 860.736303 121.688203 
L 882.736303 121.688203 
L 882.736303 113.988203 
L 860.736303 113.988203 
z
" style="fill:#dd8452;fill-opacity:0.25;stroke:#dd8452;stroke-linejoin:miter;"/>
   </g>
   <g id="text_18">
    <!-- 1 -->
    <g style="fill:#262626;" transform="translate(891.536303 121.688203)scale(0.11 -0.11)">
     <use xlink:href="#ArialMT-49"/>
    </g>
   </g>
  </g>
 </g>
 <defs>
  <clipPath id="pe2a11d9a41">
   <rect height="156.58" width="807.8851" x="38.107031" y="7.2"/>
  </clipPath>
 </defs>
</svg>
