<?xml version="1.0" encoding="utf-8" standalone="no"?>
<!DOCTYPE svg PUBLIC "-//W3C//DTD SVG 1.1//EN"
  "http://www.w3.org/Graphics/SVG/1.1/DTD/svg11.dtd">
<!-- Created with matplotlib (https://matplotlib.org/) -->
<svg height="205.654844pt" version="1.1" viewBox="0 0 912.437631 205.654844" width="912.437631pt" xmlns="http://www.w3.org/2000/svg" xmlns:xlink="http://www.w3.org/1999/xlink">
 <metadata>
  <rdf:RDF xmlns:cc="http://creativecommons.org/ns#" xmlns:dc="http://purl.org/dc/elements/1.1/" xmlns:rdf="http://www.w3.org/1999/02/22-rdf-syntax-ns#">
   <cc:Work>
    <dc:type rdf:resource="http://purl.org/dc/dcmitype/StillImage"/>
    <dc:date>2020-10-19T19:38:59.850562</dc:date>
    <dc:format>image/svg+xml</dc:format>
    <dc:creator>
     <cc:Agent>
      <dc:title>Matplotlib v3.3.2, https://matplotlib.org/</dc:title>
     </cc:Agent>
    </dc:creator>
   </cc:Work>
  </rdf:RDF>
 </metadata>
 <defs>
  <style type="text/css">*{stroke-linecap:butt;stroke-linejoin:round;}</style>
 </defs>
 <g id="figure_1">
  <g id="patch_1">
   <path d="M 0 205.654844 
L 912.437631 205.654844 
L 912.437631 0 
L 0 0 
z
" style="fill:#ffffff;"/>
  </g>
  <g id="axes_1">
   <g id="patch_2">
    <path d="M 38.107031 163.78 
L 845.992131 163.78 
L 845.992131 7.2 
L 38.107031 7.2 
z
" style="fill:#eaeaf2;"/>
   </g>
   <g id="matplotlib.axis_1">
    <g id="xtick_1">
     <g id="line2d_1">
      <path clip-path="url(#p5510dad71c)" d="M 38.107031 163.78 
L 38.107031 7.2 
" style="fill:none;stroke:#ffffff;stroke-linecap:round;"/>
     </g>
     <g id="text_1">
      <!-- 20 -->
      <g style="fill:#262626;" transform="translate(31.99 181.153594)scale(0.11 -0.11)">
       <defs>
        <path d="M 50.34375 8.453125 
L 50.34375 0 
L 3.03125 0 
Q 2.9375 3.171875 4.046875 6.109375 
Q 5.859375 10.9375 9.828125 15.625 
Q 13.8125 20.3125 21.34375 26.46875 
Q 33.015625 36.03125 37.109375 41.625 
Q 41.21875 47.21875 41.21875 52.203125 
Q 41.21875 57.421875 37.46875 61 
Q 33.734375 64.59375 27.734375 64.59375 
Q 21.390625 64.59375 17.578125 60.78125 
Q 13.765625 56.984375 13.71875 50.25 
L 4.6875 51.171875 
Q 5.609375 61.28125 11.65625 66.578125 
Q 17.71875 71.875 27.9375 71.875 
Q 38.234375 71.875 44.234375 66.15625 
Q 50.25 60.453125 50.25 52 
Q 50.25 47.703125 48.484375 43.546875 
Q 46.734375 39.40625 42.65625 34.8125 
Q 38.578125 30.21875 29.109375 22.21875 
Q 21.1875 15.578125 18.9375 13.203125 
Q 16.703125 10.84375 15.234375 8.453125 
z
" id="ArialMT-50"/>
        <path d="M 4.15625 35.296875 
Q 4.15625 48 6.765625 55.734375 
Q 9.375 63.484375 14.515625 67.671875 
Q 19.671875 71.875 27.484375 71.875 
Q 33.25 71.875 37.59375 69.546875 
Q 41.9375 67.234375 44.765625 62.859375 
Q 47.609375 58.5 49.21875 52.21875 
Q 50.828125 45.953125 50.828125 35.296875 
Q 50.828125 22.703125 48.234375 14.96875 
Q 45.65625 7.234375 40.5 3 
Q 35.359375 -1.21875 27.484375 -1.21875 
Q 17.140625 -1.21875 11.234375 6.203125 
Q 4.15625 15.140625 4.15625 35.296875 
z
M 13.1875 35.296875 
Q 13.1875 17.671875 17.3125 11.828125 
Q 21.4375 6 27.484375 6 
Q 33.546875 6 37.671875 11.859375 
Q 41.796875 17.71875 41.796875 35.296875 
Q 41.796875 52.984375 37.671875 58.78125 
Q 33.546875 64.59375 27.390625 64.59375 
Q 21.34375 64.59375 17.71875 59.46875 
Q 13.1875 52.9375 13.1875 35.296875 
z
" id="ArialMT-48"/>
       </defs>
       <use xlink:href="#ArialMT-50"/>
       <use x="55.615234" xlink:href="#ArialMT-48"/>
      </g>
     </g>
    </g>
    <g id="xtick_2">
     <g id="line2d_2">
      <path clip-path="url(#p5510dad71c)" d="M 199.684051 163.78 
L 199.684051 7.2 
" style="fill:none;stroke:#ffffff;stroke-linecap:round;"/>
     </g>
     <g id="text_2">
      <!-- 22 -->
      <g style="fill:#262626;" transform="translate(193.56702 181.153594)scale(0.11 -0.11)">
       <use xlink:href="#ArialMT-50"/>
       <use x="55.615234" xlink:href="#ArialMT-50"/>
      </g>
     </g>
    </g>
    <g id="xtick_3">
     <g id="line2d_3">
      <path clip-path="url(#p5510dad71c)" d="M 361.261071 163.78 
L 361.261071 7.2 
" style="fill:none;stroke:#ffffff;stroke-linecap:round;"/>
     </g>
     <g id="text_3">
      <!-- 24 -->
      <g style="fill:#262626;" transform="translate(355.14404 181.153594)scale(0.11 -0.11)">
       <defs>
        <path d="M 32.328125 0 
L 32.328125 17.140625 
L 1.265625 17.140625 
L 1.265625 25.203125 
L 33.9375 71.578125 
L 41.109375 71.578125 
L 41.109375 25.203125 
L 50.78125 25.203125 
L 50.78125 17.140625 
L 41.109375 17.140625 
L 41.109375 0 
z
M 32.328125 25.203125 
L 32.328125 57.46875 
L 9.90625 25.203125 
z
" id="ArialMT-52"/>
       </defs>
       <use xlink:href="#ArialMT-50"/>
       <use x="55.615234" xlink:href="#ArialMT-52"/>
      </g>
     </g>
    </g>
    <g id="xtick_4">
     <g id="line2d_4">
      <path clip-path="url(#p5510dad71c)" d="M 522.838091 163.78 
L 522.838091 7.2 
" style="fill:none;stroke:#ffffff;stroke-linecap:round;"/>
     </g>
     <g id="text_4">
      <!-- 26 -->
      <g style="fill:#262626;" transform="translate(516.72106 181.153594)scale(0.11 -0.11)">
       <defs>
        <path d="M 49.75 54.046875 
L 41.015625 53.375 
Q 39.84375 58.546875 37.703125 60.890625 
Q 34.125 64.65625 28.90625 64.65625 
Q 24.703125 64.65625 21.53125 62.3125 
Q 17.390625 59.28125 14.984375 53.46875 
Q 12.59375 47.65625 12.5 36.921875 
Q 15.671875 41.75 20.265625 44.09375 
Q 24.859375 46.4375 29.890625 46.4375 
Q 38.671875 46.4375 44.84375 39.96875 
Q 51.03125 33.5 51.03125 23.25 
Q 51.03125 16.5 48.125 10.71875 
Q 45.21875 4.9375 40.140625 1.859375 
Q 35.0625 -1.21875 28.609375 -1.21875 
Q 17.625 -1.21875 10.6875 6.859375 
Q 3.765625 14.9375 3.765625 33.5 
Q 3.765625 54.25 11.421875 63.671875 
Q 18.109375 71.875 29.4375 71.875 
Q 37.890625 71.875 43.28125 67.140625 
Q 48.6875 62.40625 49.75 54.046875 
z
M 13.875 23.1875 
Q 13.875 18.65625 15.796875 14.5 
Q 17.71875 10.359375 21.1875 8.171875 
Q 24.65625 6 28.46875 6 
Q 34.03125 6 38.03125 10.484375 
Q 42.046875 14.984375 42.046875 22.703125 
Q 42.046875 30.125 38.078125 34.390625 
Q 34.125 38.671875 28.125 38.671875 
Q 22.171875 38.671875 18.015625 34.390625 
Q 13.875 30.125 13.875 23.1875 
z
" id="ArialMT-54"/>
       </defs>
       <use xlink:href="#ArialMT-50"/>
       <use x="55.615234" xlink:href="#ArialMT-54"/>
      </g>
     </g>
    </g>
    <g id="xtick_5">
     <g id="line2d_5">
      <path clip-path="url(#p5510dad71c)" d="M 684.415111 163.78 
L 684.415111 7.2 
" style="fill:none;stroke:#ffffff;stroke-linecap:round;"/>
     </g>
     <g id="text_5">
      <!-- 28 -->
      <g style="fill:#262626;" transform="translate(678.29808 181.153594)scale(0.11 -0.11)">
       <defs>
        <path d="M 17.671875 38.8125 
Q 12.203125 40.828125 9.5625 44.53125 
Q 6.9375 48.25 6.9375 53.421875 
Q 6.9375 61.234375 12.546875 66.546875 
Q 18.171875 71.875 27.484375 71.875 
Q 36.859375 71.875 42.578125 66.421875 
Q 48.296875 60.984375 48.296875 53.171875 
Q 48.296875 48.1875 45.671875 44.5 
Q 43.0625 40.828125 37.75 38.8125 
Q 44.34375 36.671875 47.78125 31.875 
Q 51.21875 27.09375 51.21875 20.453125 
Q 51.21875 11.28125 44.71875 5.03125 
Q 38.234375 -1.21875 27.640625 -1.21875 
Q 17.046875 -1.21875 10.546875 5.046875 
Q 4.046875 11.328125 4.046875 20.703125 
Q 4.046875 27.6875 7.59375 32.390625 
Q 11.140625 37.109375 17.671875 38.8125 
z
M 15.921875 53.71875 
Q 15.921875 48.640625 19.1875 45.40625 
Q 22.46875 42.1875 27.6875 42.1875 
Q 32.765625 42.1875 36.015625 45.375 
Q 39.265625 48.578125 39.265625 53.21875 
Q 39.265625 58.0625 35.90625 61.359375 
Q 32.5625 64.65625 27.59375 64.65625 
Q 22.5625 64.65625 19.234375 61.421875 
Q 15.921875 58.203125 15.921875 53.71875 
z
M 13.09375 20.65625 
Q 13.09375 16.890625 14.875 13.375 
Q 16.65625 9.859375 20.171875 7.921875 
Q 23.6875 6 27.734375 6 
Q 34.03125 6 38.125 10.046875 
Q 42.234375 14.109375 42.234375 20.359375 
Q 42.234375 26.703125 38.015625 30.859375 
Q 33.796875 35.015625 27.4375 35.015625 
Q 21.234375 35.015625 17.15625 30.90625 
Q 13.09375 26.8125 13.09375 20.65625 
z
" id="ArialMT-56"/>
       </defs>
       <use xlink:href="#ArialMT-50"/>
       <use x="55.615234" xlink:href="#ArialMT-56"/>
      </g>
     </g>
    </g>
    <g id="xtick_6">
     <g id="line2d_6">
      <path clip-path="url(#p5510dad71c)" d="M 845.992131 163.78 
L 845.992131 7.2 
" style="fill:none;stroke:#ffffff;stroke-linecap:round;"/>
     </g>
     <g id="text_6">
      <!-- 30 -->
      <g style="fill:#262626;" transform="translate(839.8751 181.153594)scale(0.11 -0.11)">
       <defs>
        <path d="M 4.203125 18.890625 
L 12.984375 20.0625 
Q 14.5 12.59375 18.140625 9.296875 
Q 21.78125 6 27 6 
Q 33.203125 6 37.46875 10.296875 
Q 41.75 14.59375 41.75 20.953125 
Q 41.75 27 37.796875 30.921875 
Q 33.84375 34.859375 27.734375 34.859375 
Q 25.25 34.859375 21.53125 33.890625 
L 22.515625 41.609375 
Q 23.390625 41.5 23.921875 41.5 
Q 29.546875 41.5 34.03125 44.421875 
Q 38.53125 47.359375 38.53125 53.46875 
Q 38.53125 58.296875 35.25 61.46875 
Q 31.984375 64.65625 26.8125 64.65625 
Q 21.6875 64.65625 18.265625 61.421875 
Q 14.84375 58.203125 13.875 51.765625 
L 5.078125 53.328125 
Q 6.6875 62.15625 12.390625 67.015625 
Q 18.109375 71.875 26.609375 71.875 
Q 32.46875 71.875 37.390625 69.359375 
Q 42.328125 66.84375 44.9375 62.5 
Q 47.5625 58.15625 47.5625 53.265625 
Q 47.5625 48.640625 45.0625 44.828125 
Q 42.578125 41.015625 37.703125 38.765625 
Q 44.046875 37.3125 47.5625 32.6875 
Q 51.078125 28.078125 51.078125 21.140625 
Q 51.078125 11.765625 44.234375 5.25 
Q 37.40625 -1.265625 26.953125 -1.265625 
Q 17.53125 -1.265625 11.296875 4.34375 
Q 5.078125 9.96875 4.203125 18.890625 
z
" id="ArialMT-51"/>
       </defs>
       <use xlink:href="#ArialMT-51"/>
       <use x="55.615234" xlink:href="#ArialMT-48"/>
      </g>
     </g>
    </g>
    <g id="text_7">
     <!-- Age -->
     <g style="fill:#262626;" transform="translate(431.374269 195.929219)scale(0.12 -0.12)">
      <defs>
       <path d="M -0.140625 0 
L 27.34375 71.578125 
L 37.546875 71.578125 
L 66.84375 0 
L 56.0625 0 
L 47.703125 21.6875 
L 17.78125 21.6875 
L 9.90625 0 
z
M 20.515625 29.390625 
L 44.78125 29.390625 
L 37.3125 49.21875 
Q 33.890625 58.25 32.234375 64.0625 
Q 30.859375 57.171875 28.375 50.390625 
z
" id="ArialMT-65"/>
       <path d="M 4.984375 -4.296875 
L 13.53125 -5.5625 
Q 14.0625 -9.515625 16.5 -11.328125 
Q 19.78125 -13.765625 25.4375 -13.765625 
Q 31.546875 -13.765625 34.859375 -11.328125 
Q 38.1875 -8.890625 39.359375 -4.5 
Q 40.046875 -1.8125 39.984375 6.78125 
Q 34.234375 0 25.640625 0 
Q 14.9375 0 9.078125 7.71875 
Q 3.21875 15.4375 3.21875 26.21875 
Q 3.21875 33.640625 5.90625 39.90625 
Q 8.59375 46.1875 13.6875 49.609375 
Q 18.796875 53.03125 25.6875 53.03125 
Q 34.859375 53.03125 40.828125 45.609375 
L 40.828125 51.859375 
L 48.921875 51.859375 
L 48.921875 7.03125 
Q 48.921875 -5.078125 46.453125 -10.125 
Q 44 -15.1875 38.640625 -18.109375 
Q 33.296875 -21.046875 25.484375 -21.046875 
Q 16.21875 -21.046875 10.5 -16.875 
Q 4.78125 -12.703125 4.984375 -4.296875 
z
M 12.25 26.859375 
Q 12.25 16.65625 16.296875 11.96875 
Q 20.359375 7.28125 26.46875 7.28125 
Q 32.515625 7.28125 36.609375 11.9375 
Q 40.71875 16.609375 40.71875 26.5625 
Q 40.71875 36.078125 36.5 40.90625 
Q 32.28125 45.75 26.3125 45.75 
Q 20.453125 45.75 16.34375 40.984375 
Q 12.25 36.234375 12.25 26.859375 
z
" id="ArialMT-103"/>
       <path d="M 42.09375 16.703125 
L 51.171875 15.578125 
Q 49.03125 7.625 43.21875 3.21875 
Q 37.40625 -1.171875 28.375 -1.171875 
Q 17 -1.171875 10.328125 5.828125 
Q 3.65625 12.84375 3.65625 25.484375 
Q 3.65625 38.578125 10.390625 45.796875 
Q 17.140625 53.03125 27.875 53.03125 
Q 38.28125 53.03125 44.875 45.953125 
Q 51.46875 38.875 51.46875 26.03125 
Q 51.46875 25.25 51.421875 23.6875 
L 12.75 23.6875 
Q 13.234375 15.140625 17.578125 10.59375 
Q 21.921875 6.0625 28.421875 6.0625 
Q 33.25 6.0625 36.671875 8.59375 
Q 40.09375 11.140625 42.09375 16.703125 
z
M 13.234375 30.90625 
L 42.1875 30.90625 
Q 41.609375 37.453125 38.875 40.71875 
Q 34.671875 45.796875 27.984375 45.796875 
Q 21.921875 45.796875 17.796875 41.75 
Q 13.671875 37.703125 13.234375 30.90625 
z
" id="ArialMT-101"/>
      </defs>
      <use xlink:href="#ArialMT-65"/>
      <use x="66.699219" xlink:href="#ArialMT-103"/>
      <use x="122.314453" xlink:href="#ArialMT-101"/>
     </g>
    </g>
   </g>
   <g id="matplotlib.axis_2">
    <g id="ytick_1">
     <g id="line2d_7">
      <path clip-path="url(#p5510dad71c)" d="M 38.107031 163.78 
L 845.992131 163.78 
" style="fill:none;stroke:#ffffff;stroke-linecap:round;"/>
     </g>
     <g id="text_8">
      <!-- 0.00 -->
      <g style="fill:#262626;" transform="translate(7.2 167.716797)scale(0.11 -0.11)">
       <defs>
        <path d="M 9.078125 0 
L 9.078125 10.015625 
L 19.09375 10.015625 
L 19.09375 0 
z
" id="ArialMT-46"/>
       </defs>
       <use xlink:href="#ArialMT-48"/>
       <use x="55.615234" xlink:href="#ArialMT-46"/>
       <use x="83.398438" xlink:href="#ArialMT-48"/>
       <use x="139.013672" xlink:href="#ArialMT-48"/>
      </g>
     </g>
    </g>
    <g id="ytick_2">
     <g id="line2d_8">
      <path clip-path="url(#p5510dad71c)" d="M 38.107031 129.745952 
L 845.992131 129.745952 
" style="fill:none;stroke:#ffffff;stroke-linecap:round;"/>
     </g>
     <g id="text_9">
      <!-- 0.01 -->
      <g style="fill:#262626;" transform="translate(7.2 133.682749)scale(0.11 -0.11)">
       <defs>
        <path d="M 37.25 0 
L 28.46875 0 
L 28.46875 56 
Q 25.296875 52.984375 20.140625 49.953125 
Q 14.984375 46.921875 10.890625 45.40625 
L 10.890625 53.90625 
Q 18.265625 57.375 23.78125 62.296875 
Q 29.296875 67.234375 31.59375 71.875 
L 37.25 71.875 
z
" id="ArialMT-49"/>
       </defs>
       <use xlink:href="#ArialMT-48"/>
       <use x="55.615234" xlink:href="#ArialMT-46"/>
       <use x="83.398438" xlink:href="#ArialMT-48"/>
       <use x="139.013672" xlink:href="#ArialMT-49"/>
      </g>
     </g>
    </g>
    <g id="ytick_3">
     <g id="line2d_9">
      <path clip-path="url(#p5510dad71c)" d="M 38.107031 95.711904 
L 845.992131 95.711904 
" style="fill:none;stroke:#ffffff;stroke-linecap:round;"/>
     </g>
     <g id="text_10">
      <!-- 0.02 -->
      <g style="fill:#262626;" transform="translate(7.2 99.648701)scale(0.11 -0.11)">
       <use xlink:href="#ArialMT-48"/>
       <use x="55.615234" xlink:href="#ArialMT-46"/>
       <use x="83.398438" xlink:href="#ArialMT-48"/>
       <use x="139.013672" xlink:href="#ArialMT-50"/>
      </g>
     </g>
    </g>
    <g id="ytick_4">
     <g id="line2d_10">
      <path clip-path="url(#p5510dad71c)" d="M 38.107031 61.677855 
L 845.992131 61.677855 
" style="fill:none;stroke:#ffffff;stroke-linecap:round;"/>
     </g>
     <g id="text_11">
      <!-- 0.03 -->
      <g style="fill:#262626;" transform="translate(7.2 65.614652)scale(0.11 -0.11)">
       <use xlink:href="#ArialMT-48"/>
       <use x="55.615234" xlink:href="#ArialMT-46"/>
       <use x="83.398438" xlink:href="#ArialMT-48"/>
       <use x="139.013672" xlink:href="#ArialMT-51"/>
      </g>
     </g>
    </g>
    <g id="ytick_5">
     <g id="line2d_11">
      <path clip-path="url(#p5510dad71c)" d="M 38.107031 27.643807 
L 845.992131 27.643807 
" style="fill:none;stroke:#ffffff;stroke-linecap:round;"/>
     </g>
     <g id="text_12">
      <!-- 0.04 -->
      <g style="fill:#262626;" transform="translate(7.2 31.580604)scale(0.11 -0.11)">
       <use xlink:href="#ArialMT-48"/>
       <use x="55.615234" xlink:href="#ArialMT-46"/>
       <use x="83.398438" xlink:href="#ArialMT-48"/>
       <use x="139.013672" xlink:href="#ArialMT-52"/>
      </g>
     </g>
    </g>
   </g>
   <g id="PolyCollection_1">
    <path clip-path="url(#p5510dad71c)" d="M -2364.879694 163.739684 
L -2364.879694 163.78 
L -2326.520039 163.78 
L -2288.160385 163.78 
L -2249.80073 163.78 
L -2211.441075 163.78 
L -2173.08142 163.78 
L -2134.721765 163.78 
L -2096.362111 163.78 
L -2058.002456 163.78 
L -2019.642801 163.78 
L -1981.283146 163.78 
L -1942.923492 163.78 
L -1904.563837 163.78 
L -1866.204182 163.78 
L -1827.844527 163.78 
L -1789.484873 163.78 
L -1751.125218 163.78 
L -1712.765563 163.78 
L -1674.405908 163.78 
L -1636.046253 163.78 
L -1597.686599 163.78 
L -1559.326944 163.78 
L -1520.967289 163.78 
L -1482.607634 163.78 
L -1444.24798 163.78 
L -1405.888325 163.78 
L -1367.52867 163.78 
L -1329.169015 163.78 
L -1290.80936 163.78 
L -1252.449706 163.78 
L -1214.090051 163.78 
L -1175.730396 163.78 
L -1137.370741 163.78 
L -1099.011087 163.78 
L -1060.651432 163.78 
L -1022.291777 163.78 
L -983.932122 163.78 
L -945.572467 163.78 
L -907.212813 163.78 
L -868.853158 163.78 
L -830.493503 163.78 
L -792.133848 163.78 
L -753.774194 163.78 
L -715.414539 163.78 
L -677.054884 163.78 
L -638.695229 163.78 
L -600.335575 163.78 
L -561.97592 163.78 
L -523.616265 163.78 
L -485.25661 163.78 
L -446.896955 163.78 
L -408.537301 163.78 
L -370.177646 163.78 
L -331.817991 163.78 
L -293.458336 163.78 
L -255.098682 163.78 
L -216.739027 163.78 
L -178.379372 163.78 
L -140.019717 163.78 
L -101.660062 163.78 
L -63.300408 163.78 
L -24.940753 163.78 
L 13.418902 163.78 
L 51.778557 163.78 
L 90.138211 163.78 
L 128.497866 163.78 
L 166.857521 163.78 
L 205.217176 163.78 
L 243.576831 163.78 
L 281.936485 163.78 
L 320.29614 163.78 
L 358.655795 163.78 
L 397.01545 163.78 
L 435.375104 163.78 
L 473.734759 163.78 
L 512.094414 163.78 
L 550.454069 163.78 
L 588.813724 163.78 
L 627.173378 163.78 
L 665.533033 163.78 
L 703.892688 163.78 
L 742.252343 163.78 
L 780.611997 163.78 
L 818.971652 163.78 
L 857.331307 163.78 
L 895.690962 163.78 
L 934.050616 163.78 
L 972.410271 163.78 
L 1010.769926 163.78 
L 1049.129581 163.78 
L 1087.489236 163.78 
L 1125.84889 163.78 
L 1164.208545 163.78 
L 1202.5682 163.78 
L 1240.927855 163.78 
L 1279.287509 163.78 
L 1317.647164 163.78 
L 1356.006819 163.78 
L 1394.366474 163.78 
L 1432.726129 163.78 
L 1471.085783 163.78 
L 1509.445438 163.78 
L 1547.805093 163.78 
L 1586.164748 163.78 
L 1624.524402 163.78 
L 1662.884057 163.78 
L 1701.243712 163.78 
L 1739.603367 163.78 
L 1777.963022 163.78 
L 1816.322676 163.78 
L 1854.682331 163.78 
L 1893.041986 163.78 
L 1931.401641 163.78 
L 1969.761295 163.78 
L 2008.12095 163.78 
L 2046.480605 163.78 
L 2084.84026 163.78 
L 2123.199915 163.78 
L 2161.559569 163.78 
L 2199.919224 163.78 
L 2238.278879 163.78 
L 2276.638534 163.78 
L 2314.998188 163.78 
L 2353.357843 163.78 
L 2391.717498 163.78 
L 2430.077153 163.78 
L 2468.436807 163.78 
L 2506.796462 163.78 
L 2545.156117 163.78 
L 2583.515772 163.78 
L 2621.875427 163.78 
L 2660.235081 163.78 
L 2698.594736 163.78 
L 2736.954391 163.78 
L 2775.314046 163.78 
L 2813.6737 163.78 
L 2852.033355 163.78 
L 2890.39301 163.78 
L 2928.752665 163.78 
L 2967.11232 163.78 
L 3005.471974 163.78 
L 3043.831629 163.78 
L 3082.191284 163.78 
L 3120.550939 163.78 
L 3158.910593 163.78 
L 3197.270248 163.78 
L 3235.629903 163.78 
L 3273.989558 163.78 
L 3312.349213 163.78 
L 3350.708867 163.78 
L 3389.068522 163.78 
L 3427.428177 163.78 
L 3465.787832 163.78 
L 3504.147486 163.78 
L 3542.507141 163.78 
L 3580.866796 163.78 
L 3619.226451 163.78 
L 3657.586105 163.78 
L 3695.94576 163.78 
L 3734.305415 163.78 
L 3772.66507 163.78 
L 3811.024725 163.78 
L 3849.384379 163.78 
L 3887.744034 163.78 
L 3926.103689 163.78 
L 3964.463344 163.78 
L 4002.822998 163.78 
L 4041.182653 163.78 
L 4079.542308 163.78 
L 4117.901963 163.78 
L 4156.261618 163.78 
L 4194.621272 163.78 
L 4232.980927 163.78 
L 4271.340582 163.78 
L 4309.700237 163.78 
L 4348.059891 163.78 
L 4386.419546 163.78 
L 4424.779201 163.78 
L 4463.138856 163.78 
L 4501.498511 163.78 
L 4539.858165 163.78 
L 4578.21782 163.78 
L 4616.577475 163.78 
L 4654.93713 163.78 
L 4693.296784 163.78 
L 4731.656439 163.78 
L 4770.016094 163.78 
L 4808.375749 163.78 
L 4846.735404 163.78 
L 4885.095058 163.78 
L 4923.454713 163.78 
L 4961.814368 163.78 
L 5000.174023 163.78 
L 5038.533677 163.78 
L 5076.893332 163.78 
L 5115.252987 163.78 
L 5153.612642 163.78 
L 5191.972296 163.78 
L 5230.331951 163.78 
L 5268.691606 163.78 
L 5268.691606 163.77091 
L 5268.691606 163.77091 
L 5230.331951 163.766316 
L 5191.972296 163.759716 
L 5153.612642 163.750385 
L 5115.252987 163.737405 
L 5076.893332 163.719637 
L 5038.533677 163.695696 
L 5000.174023 163.663942 
L 4961.814368 163.62248 
L 4923.454713 163.569176 
L 4885.095058 163.501704 
L 4846.735404 163.417611 
L 4808.375749 163.314421 
L 4770.016094 163.189759 
L 4731.656439 163.04151 
L 4693.296784 162.867999 
L 4654.93713 162.668178 
L 4616.577475 162.44181 
L 4578.21782 162.189626 
L 4539.858165 161.913439 
L 4501.498511 161.616178 
L 4463.138856 161.301839 
L 4424.779201 160.975324 
L 4386.419546 160.642174 
L 4348.059891 160.308196 
L 4309.700237 159.979022 
L 4271.340582 159.65963 
L 4232.980927 159.353881 
L 4194.621272 159.064126 
L 4156.261618 158.790949 
L 4117.901963 158.533066 
L 4079.542308 158.287427 
L 4041.182653 158.049504 
L 4002.822998 157.813744 
L 3964.463344 157.574139 
L 3926.103689 157.324839 
L 3887.744034 157.060743 
L 3849.384379 156.777985 
L 3811.024725 156.474288 
L 3772.66507 156.149117 
L 3734.305415 155.803659 
L 3695.94576 155.440625 
L 3657.586105 155.063919 
L 3619.226451 154.67823 
L 3580.866796 154.288576 
L 3542.507141 153.899874 
L 3504.147486 153.516554 
L 3465.787832 153.142244 
L 3427.428177 152.779541 
L 3389.068522 152.429874 
L 3350.708867 152.093431 
L 3312.349213 151.769175 
L 3273.989558 151.454898 
L 3235.629903 151.147343 
L 3197.270248 150.842348 
L 3158.910593 150.535028 
L 3120.550939 150.21998 
L 3082.191284 149.891491 
L 3043.831629 149.543757 
L 3005.471974 149.171091 
L 2967.11232 148.768116 
L 2928.752665 148.329932 
L 2890.39301 147.852263 
L 2852.033355 147.331562 
L 2813.6737 146.76509 
L 2775.314046 146.150968 
L 2736.954391 145.488201 
L 2698.594736 144.776695 
L 2660.235081 144.017259 
L 2621.875427 143.211613 
L 2583.515772 142.362401 
L 2545.156117 141.473204 
L 2506.796462 140.548545 
L 2468.436807 139.593877 
L 2430.077153 138.61552 
L 2391.717498 137.620534 
L 2353.357843 136.616499 
L 2314.998188 135.611205 
L 2276.638534 134.612237 
L 2238.278879 133.626494 
L 2199.919224 132.659665 
L 2161.559569 131.715713 
L 2123.199915 130.796429 
L 2084.84026 129.90108 
L 2046.480605 129.026198 
L 2008.12095 128.165502 
L 1969.761295 127.309928 
L 1931.401641 126.447723 
L 1893.041986 125.564512 
L 1854.682331 124.643286 
L 1816.322676 123.664218 
L 1777.963022 122.604272 
L 1739.603367 121.436609 
L 1701.243712 120.129841 
L 1662.884057 118.64725 
L 1624.524402 116.946161 
L 1586.164748 114.977701 
L 1547.805093 112.687229 
L 1509.445438 110.015705 
L 1471.085783 106.902254 
L 1432.726129 103.288064 
L 1394.366474 99.121651 
L 1356.006819 94.365279 
L 1317.647164 89.002147 
L 1279.287509 83.043683 
L 1240.927855 76.536089 
L 1202.5682 69.565171 
L 1164.208545 62.258454 
L 1125.84889 54.783746 
L 1087.489236 47.343606 
L 1049.129581 40.165611 
L 1010.769926 33.488878 
L 972.410271 27.54782 
L 934.050616 22.554624 
L 895.690962 18.682256 
L 857.331307 16.0499 
L 818.971652 14.712569 
L 780.611997 14.65619 
L 742.252343 15.798873 
L 703.892688 17.998305 
L 665.533033 21.064492 
L 627.173378 24.776449 
L 588.813724 28.900992 
L 550.454069 33.211653 
L 512.094414 37.505795 
L 473.734759 41.618366 
L 435.375104 45.431209 
L 397.01545 48.877422 
L 358.655795 51.940845 
L 320.29614 54.651245 
L 281.936485 57.076107 
L 243.576831 59.310188 
L 205.217176 61.464013 
L 166.857521 63.652414 
L 128.497866 65.984079 
L 90.138211 68.552781 
L 51.778557 71.430754 
L 13.418902 74.664419 
L -24.940753 78.272443 
L -63.300408 82.245952 
L -101.660062 86.550598 
L -140.019717 91.130109 
L -178.379372 95.910899 
L -216.739027 100.807364 
L -255.098682 105.727451 
L -293.458336 110.578182 
L -331.817991 115.27082 
L -370.177646 119.725444 
L -408.537301 123.874702 
L -446.896955 127.666612 
L -485.25661 131.066287 
L -523.616265 134.056533 
L -561.97592 136.637329 
L -600.335575 138.824277 
L -638.695229 140.646151 
L -677.054884 142.141777 
L -715.414539 143.356513 
L -753.774194 144.338629 
L -792.133848 145.135904 
L -830.493503 145.792722 
L -868.853158 146.347907 
L -907.212813 146.833412 
L -945.572467 147.273933 
L -983.932122 147.687341 
L -1022.291777 148.085803 
L -1060.651432 148.477324 
L -1099.011087 148.867443 
L -1137.370741 149.260829 
L -1175.730396 149.662508 
L -1214.090051 150.078598 
L -1252.449706 150.516465 
L -1290.80936 150.984329 
L -1329.169015 151.490441 
L -1367.52867 152.042 
L -1405.888325 152.644023 
L -1444.24798 153.298361 
L -1482.607634 154.00304 
L -1520.967289 154.752028 
L -1559.326944 155.535459 
L -1597.686599 156.340299 
L -1636.046253 157.151339 
L -1674.405908 157.952394 
L -1712.765563 158.727544 
L -1751.125218 159.462289 
L -1789.484873 160.144482 
L -1827.844527 160.764968 
L -1866.204182 161.317901 
L -1904.563837 161.800743 
L -1942.923492 162.213991 
L -1981.283146 162.560707 
L -2019.642801 162.845926 
L -2058.002456 163.076018 
L -2096.362111 163.258079 
L -2134.721765 163.399397 
L -2173.08142 163.507018 
L -2211.441075 163.587443 
L -2249.80073 163.646425 
L -2288.160385 163.68888 
L -2326.520039 163.718877 
L -2364.879694 163.739684 
z
" style="fill:#4c72b0;fill-opacity:0.25;stroke:#4c72b0;"/>
   </g>
   <g id="PolyCollection_2">
    <path clip-path="url(#p5510dad71c)" d="M -2602.710327 163.667099 
L -2602.710327 163.78 
L -2559.760044 163.78 
L -2516.809761 163.78 
L -2473.859479 163.78 
L -2430.909196 163.78 
L -2387.958913 163.78 
L -2345.00863 163.78 
L -2302.058347 163.78 
L -2259.108064 163.78 
L -2216.157781 163.78 
L -2173.207498 163.78 
L -2130.257216 163.78 
L -2087.306933 163.78 
L -2044.35665 163.78 
L -2001.406367 163.78 
L -1958.456084 163.78 
L -1915.505801 163.78 
L -1872.555518 163.78 
L -1829.605236 163.78 
L -1786.654953 163.78 
L -1743.70467 163.78 
L -1700.754387 163.78 
L -1657.804104 163.78 
L -1614.853821 163.78 
L -1571.903538 163.78 
L -1528.953255 163.78 
L -1486.002973 163.78 
L -1443.05269 163.78 
L -1400.102407 163.78 
L -1357.152124 163.78 
L -1314.201841 163.78 
L -1271.251558 163.78 
L -1228.301275 163.78 
L -1185.350993 163.78 
L -1142.40071 163.78 
L -1099.450427 163.78 
L -1056.500144 163.78 
L -1013.549861 163.78 
L -970.599578 163.78 
L -927.649295 163.78 
L -884.699012 163.78 
L -841.74873 163.78 
L -798.798447 163.78 
L -755.848164 163.78 
L -712.897881 163.78 
L -669.947598 163.78 
L -626.997315 163.78 
L -584.047032 163.78 
L -541.09675 163.78 
L -498.146467 163.78 
L -455.196184 163.78 
L -412.245901 163.78 
L -369.295618 163.78 
L -326.345335 163.78 
L -283.395052 163.78 
L -240.44477 163.78 
L -197.494487 163.78 
L -154.544204 163.78 
L -111.593921 163.78 
L -68.643638 163.78 
L -25.693355 163.78 
L 17.256928 163.78 
L 60.207211 163.78 
L 103.157493 163.78 
L 146.107776 163.78 
L 189.058059 163.78 
L 232.008342 163.78 
L 274.958625 163.78 
L 317.908908 163.78 
L 360.859191 163.78 
L 403.809473 163.78 
L 446.759756 163.78 
L 489.710039 163.78 
L 532.660322 163.78 
L 575.610605 163.78 
L 618.560888 163.78 
L 661.511171 163.78 
L 704.461454 163.78 
L 747.411736 163.78 
L 790.362019 163.78 
L 833.312302 163.78 
L 876.262585 163.78 
L 919.212868 163.78 
L 962.163151 163.78 
L 1005.113434 163.78 
L 1048.063716 163.78 
L 1091.013999 163.78 
L 1133.964282 163.78 
L 1176.914565 163.78 
L 1219.864848 163.78 
L 1262.815131 163.78 
L 1305.765414 163.78 
L 1348.715697 163.78 
L 1391.665979 163.78 
L 1434.616262 163.78 
L 1477.566545 163.78 
L 1520.516828 163.78 
L 1563.467111 163.78 
L 1606.417394 163.78 
L 1649.367677 163.78 
L 1692.317959 163.78 
L 1735.268242 163.78 
L 1778.218525 163.78 
L 1821.168808 163.78 
L 1864.119091 163.78 
L 1907.069374 163.78 
L 1950.019657 163.78 
L 1992.969939 163.78 
L 2035.920222 163.78 
L 2078.870505 163.78 
L 2121.820788 163.78 
L 2164.771071 163.78 
L 2207.721354 163.78 
L 2250.671637 163.78 
L 2293.62192 163.78 
L 2336.572202 163.78 
L 2379.522485 163.78 
L 2422.472768 163.78 
L 2465.423051 163.78 
L 2508.373334 163.78 
L 2551.323617 163.78 
L 2594.2739 163.78 
L 2637.224182 163.78 
L 2680.174465 163.78 
L 2723.124748 163.78 
L 2766.075031 163.78 
L 2809.025314 163.78 
L 2851.975597 163.78 
L 2894.92588 163.78 
L 2937.876163 163.78 
L 2980.826445 163.78 
L 3023.776728 163.78 
L 3066.727011 163.78 
L 3109.677294 163.78 
L 3152.627577 163.78 
L 3195.57786 163.78 
L 3238.528143 163.78 
L 3281.478425 163.78 
L 3324.428708 163.78 
L 3367.378991 163.78 
L 3410.329274 163.78 
L 3453.279557 163.78 
L 3496.22984 163.78 
L 3539.180123 163.78 
L 3582.130406 163.78 
L 3625.080688 163.78 
L 3668.030971 163.78 
L 3710.981254 163.78 
L 3753.931537 163.78 
L 3796.88182 163.78 
L 3839.832103 163.78 
L 3882.782386 163.78 
L 3925.732668 163.78 
L 3968.682951 163.78 
L 4011.633234 163.78 
L 4054.583517 163.78 
L 4097.5338 163.78 
L 4140.484083 163.78 
L 4183.434366 163.78 
L 4226.384648 163.78 
L 4269.334931 163.78 
L 4312.285214 163.78 
L 4355.235497 163.78 
L 4398.18578 163.78 
L 4441.136063 163.78 
L 4484.086346 163.78 
L 4527.036629 163.78 
L 4569.986911 163.78 
L 4612.937194 163.78 
L 4655.887477 163.78 
L 4698.83776 163.78 
L 4741.788043 163.78 
L 4784.738326 163.78 
L 4827.688609 163.78 
L 4870.638891 163.78 
L 4913.589174 163.78 
L 4956.539457 163.78 
L 4999.48974 163.78 
L 5042.440023 163.78 
L 5085.390306 163.78 
L 5128.340589 163.78 
L 5171.290872 163.78 
L 5214.241154 163.78 
L 5257.191437 163.78 
L 5300.14172 163.78 
L 5343.092003 163.78 
L 5386.042286 163.78 
L 5428.992569 163.78 
L 5471.942852 163.78 
L 5514.893134 163.78 
L 5557.843417 163.78 
L 5600.7937 163.78 
L 5643.743983 163.78 
L 5686.694266 163.78 
L 5729.644549 163.78 
L 5772.594832 163.78 
L 5815.545115 163.78 
L 5858.495397 163.78 
L 5901.44568 163.78 
L 5944.395963 163.78 
L 5944.395963 163.769906 
L 5944.395963 163.769906 
L 5901.44568 163.765567 
L 5858.495397 163.759665 
L 5815.545115 163.75177 
L 5772.594832 163.741387 
L 5729.644549 163.727961 
L 5686.694266 163.710898 
L 5643.743983 163.689588 
L 5600.7937 163.663445 
L 5557.843417 163.63195 
L 5514.893134 163.594709 
L 5471.942852 163.551507 
L 5428.992569 163.502374 
L 5386.042286 163.447632 
L 5343.092003 163.387943 
L 5300.14172 163.324331 
L 5257.191437 163.258178 
L 5214.241154 163.191199 
L 5171.290872 163.125382 
L 5128.340589 163.062892 
L 5085.390306 163.005964 
L 5042.440023 162.956763 
L 4999.48974 162.917248 
L 4956.539457 162.889036 
L 4913.589174 162.873275 
L 4870.638891 162.870556 
L 4827.688609 162.880849 
L 4784.738326 162.90348 
L 4741.788043 162.937146 
L 4698.83776 162.979966 
L 4655.887477 163.029553 
L 4612.937194 163.083105 
L 4569.986911 163.137497 
L 4527.036629 163.189372 
L 4484.086346 163.235206 
L 4441.136063 163.271364 
L 4398.18578 163.294128 
L 4355.235497 163.299712 
L 4312.285214 163.284267 
L 4269.334931 163.243891 
L 4226.384648 163.174647 
L 4183.434366 163.072613 
L 4140.484083 162.933961 
L 4097.5338 162.755076 
L 4054.583517 162.53271 
L 4011.633234 162.264164 
L 3968.682951 161.947482 
L 3925.732668 161.581638 
L 3882.782386 161.166699 
L 3839.832103 160.703931 
L 3796.88182 160.195831 
L 3753.931537 159.646075 
L 3710.981254 159.059367 
L 3668.030971 158.441192 
L 3625.080688 157.797488 
L 3582.130406 157.134263 
L 3539.180123 156.45717 
L 3496.22984 155.7711 
L 3453.279557 155.07981 
L 3410.329274 154.385635 
L 3367.378991 153.689302 
L 3324.428708 152.989875 
L 3281.478425 152.28485 
L 3238.528143 151.57038 
L 3195.57786 150.841637 
L 3152.627577 150.093278 
L 3109.677294 149.319992 
L 3066.727011 148.517079 
L 3023.776728 147.681029 
L 2980.826445 146.81004 
L 2937.876163 145.904449 
L 2894.92588 144.967006 
L 2851.975597 144.002978 
L 2809.025314 143.020045 
L 2766.075031 142.027976 
L 2723.124748 141.038079 
L 2680.174465 140.062468 
L 2637.224182 139.113163 
L 2594.2739 138.201094 
L 2551.323617 137.335073 
L 2508.373334 136.520817 
L 2465.423051 135.7601 
L 2422.472768 135.050099 
L 2379.522485 134.383005 
L 2336.572202 133.745917 
L 2293.62192 133.121042 
L 2250.671637 132.486191 
L 2207.721354 131.815519 
L 2164.771071 131.080479 
L 2121.820788 130.250914 
L 2078.870505 129.296239 
L 2035.920222 128.186654 
L 1992.969939 126.894345 
L 1950.019657 125.394646 
L 1907.069374 123.667135 
L 1864.119091 121.696647 
L 1821.168808 119.474188 
L 1778.218525 116.997728 
L 1735.268242 114.272818 
L 1692.317959 111.313014 
L 1649.367677 108.140026 
L 1606.417394 104.783554 
L 1563.467111 101.280767 
L 1520.516828 97.675391 
L 1477.566545 94.016434 
L 1434.616262 90.356559 
L 1391.665979 86.750198 
L 1348.715697 83.251504 
L 1305.765414 79.912247 
L 1262.815131 76.779788 
L 1219.864848 73.895244 
L 1176.914565 71.291939 
L 1133.964282 68.994224 
L 1091.013999 67.016698 
L 1048.063716 65.363882 
L 1005.113434 64.030334 
L 962.163151 63.001216 
L 919.212868 62.253293 
L 876.262585 61.756361 
L 833.312302 61.475058 
L 790.362019 61.371025 
L 747.411736 61.405333 
L 704.461454 61.541076 
L 661.511171 61.745984 
L 618.560888 61.99487 
L 575.610605 62.271735 
L 532.660322 62.571315 
L 489.710039 62.899907 
L 446.759756 63.275337 
L 403.809473 63.726016 
L 360.859191 64.289101 
L 317.908908 65.007868 
L 274.958625 65.928493 
L 232.008342 67.096493 
L 189.058059 68.553104 
L 146.107776 70.331908 
L 103.157493 72.455964 
L 60.207211 74.93567 
L 17.256928 77.767485 
L -25.693355 80.933582 
L -68.643638 84.402394 
L -111.593921 88.129958 
L -154.544204 92.061913 
L -197.494487 96.135942 
L -240.44477 100.284481 
L -283.395052 104.437489 
L -326.345335 108.525132 
L -369.295618 112.480236 
L -412.245901 116.240442 
L -455.196184 119.750004 
L -498.146467 122.961216 
L -541.09675 125.835489 
L -584.047032 128.3441 
L -626.997315 130.468647 
L -669.947598 132.201249 
L -712.897881 133.544526 
L -755.848164 134.511369 
L -798.798447 135.124516 
L -841.74873 135.41593 
L -884.699012 135.425966 
L -927.649295 135.20232 
L -970.599578 134.798725 
L -1013.549861 134.27341 
L -1056.500144 133.68731 
L -1099.450427 133.10206 
L -1142.40071 132.577834 
L -1185.350993 132.171088 
L -1228.301275 131.932335 
L -1271.251558 131.904065 
L -1314.201841 132.118941 
L -1357.152124 132.598419 
L -1400.102407 133.351894 
L -1443.05269 134.376461 
L -1486.002973 135.65734 
L -1528.953255 137.168936 
L -1571.903538 138.876503 
L -1614.853821 140.738263 
L -1657.804104 142.707862 
L -1700.754387 144.736957 
L -1743.70467 146.77777 
L -1786.654953 148.785422 
L -1829.605236 150.719898 
L -1872.555518 152.547541 
L -1915.505801 154.24201 
L -1958.456084 155.784685 
L -2001.406367 157.164566 
L -2044.35665 158.377729 
L -2087.306933 159.42644 
L -2130.257216 160.318051 
L -2173.207498 161.063776 
L -2216.157781 161.677467 
L -2259.108064 162.174472 
L -2302.058347 162.570631 
L -2345.00863 162.881463 
L -2387.958913 163.121553 
L -2430.909196 163.304131 
L -2473.859479 163.440835 
L -2516.809761 163.541621 
L -2559.760044 163.61479 
L -2602.710327 163.667099 
z
" style="fill:#dd8452;fill-opacity:0.25;stroke:#dd8452;"/>
   </g>
   <g id="patch_3">
    <path d="M 38.107031 163.78 
L 38.107031 7.2 
" style="fill:none;stroke:#ffffff;stroke-linecap:square;stroke-linejoin:miter;stroke-width:1.25;"/>
   </g>
   <g id="patch_4">
    <path d="M 38.107031 163.78 
L 845.992131 163.78 
" style="fill:none;stroke:#ffffff;stroke-linecap:square;stroke-linejoin:miter;stroke-width:1.25;"/>
   </g>
  </g>
  <g id="legend_1">
   <g id="text_13">
    <!-- Survived -->
    <g style="fill:#262626;" transform="translate(855.852006 90.369766)scale(0.12 -0.12)">
     <defs>
      <path d="M 4.5 23 
L 13.421875 23.78125 
Q 14.0625 18.40625 16.375 14.96875 
Q 18.703125 11.53125 23.578125 9.40625 
Q 28.46875 7.28125 34.578125 7.28125 
Q 39.984375 7.28125 44.140625 8.890625 
Q 48.296875 10.5 50.3125 13.296875 
Q 52.34375 16.109375 52.34375 19.4375 
Q 52.34375 22.796875 50.390625 25.3125 
Q 48.4375 27.828125 43.953125 29.546875 
Q 41.0625 30.671875 31.203125 33.03125 
Q 21.34375 35.40625 17.390625 37.5 
Q 12.25 40.1875 9.734375 44.15625 
Q 7.234375 48.140625 7.234375 53.078125 
Q 7.234375 58.5 10.296875 63.203125 
Q 13.375 67.921875 19.28125 70.359375 
Q 25.203125 72.796875 32.421875 72.796875 
Q 40.375 72.796875 46.453125 70.234375 
Q 52.546875 67.671875 55.8125 62.6875 
Q 59.078125 57.71875 59.328125 51.421875 
L 50.25 50.734375 
Q 49.515625 57.515625 45.28125 60.984375 
Q 41.0625 64.453125 32.8125 64.453125 
Q 24.21875 64.453125 20.28125 61.296875 
Q 16.359375 58.15625 16.359375 53.71875 
Q 16.359375 49.859375 19.140625 47.359375 
Q 21.875 44.875 33.421875 42.265625 
Q 44.96875 39.65625 49.265625 37.703125 
Q 55.515625 34.8125 58.484375 30.390625 
Q 61.46875 25.984375 61.46875 20.21875 
Q 61.46875 14.5 58.203125 9.4375 
Q 54.9375 4.390625 48.796875 1.578125 
Q 42.671875 -1.21875 35.015625 -1.21875 
Q 25.296875 -1.21875 18.71875 1.609375 
Q 12.15625 4.4375 8.421875 10.125 
Q 4.6875 15.828125 4.5 23 
z
" id="ArialMT-83"/>
      <path d="M 40.578125 0 
L 40.578125 7.625 
Q 34.515625 -1.171875 24.125 -1.171875 
Q 19.53125 -1.171875 15.546875 0.578125 
Q 11.578125 2.34375 9.640625 5 
Q 7.71875 7.671875 6.9375 11.53125 
Q 6.390625 14.109375 6.390625 19.734375 
L 6.390625 51.859375 
L 15.1875 51.859375 
L 15.1875 23.09375 
Q 15.1875 16.21875 15.71875 13.8125 
Q 16.546875 10.359375 19.234375 8.375 
Q 21.921875 6.390625 25.875 6.390625 
Q 29.828125 6.390625 33.296875 8.421875 
Q 36.765625 10.453125 38.203125 13.9375 
Q 39.65625 17.4375 39.65625 24.078125 
L 39.65625 51.859375 
L 48.4375 51.859375 
L 48.4375 0 
z
" id="ArialMT-117"/>
      <path d="M 6.5 0 
L 6.5 51.859375 
L 14.40625 51.859375 
L 14.40625 44 
Q 17.4375 49.515625 20 51.265625 
Q 22.5625 53.03125 25.640625 53.03125 
Q 30.078125 53.03125 34.671875 50.203125 
L 31.640625 42.046875 
Q 28.421875 43.953125 25.203125 43.953125 
Q 22.3125 43.953125 20.015625 42.21875 
Q 17.71875 40.484375 16.75 37.40625 
Q 15.28125 32.71875 15.28125 27.15625 
L 15.28125 0 
z
" id="ArialMT-114"/>
      <path d="M 21 0 
L 1.265625 51.859375 
L 10.546875 51.859375 
L 21.6875 20.796875 
Q 23.484375 15.765625 25 10.359375 
Q 26.171875 14.453125 28.265625 20.21875 
L 39.796875 51.859375 
L 48.828125 51.859375 
L 29.203125 0 
z
" id="ArialMT-118"/>
      <path d="M 6.640625 61.46875 
L 6.640625 71.578125 
L 15.4375 71.578125 
L 15.4375 61.46875 
z
M 6.640625 0 
L 6.640625 51.859375 
L 15.4375 51.859375 
L 15.4375 0 
z
" id="ArialMT-105"/>
      <path d="M 40.234375 0 
L 40.234375 6.546875 
Q 35.296875 -1.171875 25.734375 -1.171875 
Q 19.53125 -1.171875 14.328125 2.25 
Q 9.125 5.671875 6.265625 11.796875 
Q 3.421875 17.921875 3.421875 25.875 
Q 3.421875 33.640625 6 39.96875 
Q 8.59375 46.296875 13.765625 49.65625 
Q 18.953125 53.03125 25.34375 53.03125 
Q 30.03125 53.03125 33.6875 51.046875 
Q 37.359375 49.078125 39.65625 45.90625 
L 39.65625 71.578125 
L 48.390625 71.578125 
L 48.390625 0 
z
M 12.453125 25.875 
Q 12.453125 15.921875 16.640625 10.984375 
Q 20.84375 6.0625 26.5625 6.0625 
Q 32.328125 6.0625 36.34375 10.765625 
Q 40.375 15.484375 40.375 25.140625 
Q 40.375 35.796875 36.265625 40.765625 
Q 32.171875 45.75 26.171875 45.75 
Q 20.3125 45.75 16.375 40.96875 
Q 12.453125 36.1875 12.453125 25.875 
z
" id="ArialMT-100"/>
     </defs>
     <use xlink:href="#ArialMT-83"/>
     <use x="66.699219" xlink:href="#ArialMT-117"/>
     <use x="122.314453" xlink:href="#ArialMT-114"/>
     <use x="155.615234" xlink:href="#ArialMT-118"/>
     <use x="205.615234" xlink:href="#ArialMT-105"/>
     <use x="227.832031" xlink:href="#ArialMT-118"/>
     <use x="277.832031" xlink:href="#ArialMT-101"/>
     <use x="333.447266" xlink:href="#ArialMT-100"/>
    </g>
   </g>
   <g id="patch_5">
    <path d="M 860.736303 106.128359 
L 882.736303 106.128359 
L 882.736303 98.428359 
L 860.736303 98.428359 
z
" style="fill:#4c72b0;fill-opacity:0.25;stroke:#4c72b0;stroke-linejoin:miter;"/>
   </g>
   <g id="text_14">
    <!-- 0 -->
    <g style="fill:#262626;" transform="translate(891.536303 106.128359)scale(0.11 -0.11)">
     <use xlink:href="#ArialMT-48"/>
    </g>
   </g>
   <g id="patch_6">
    <path d="M 860.736303 121.688203 
L 882.736303 121.688203 
L 882.736303 113.988203 
L 860.736303 113.988203 
z
" style="fill:#dd8452;fill-opacity:0.25;stroke:#dd8452;stroke-linejoin:miter;"/>
   </g>
   <g id="text_15">
    <!-- 1 -->
    <g style="fill:#262626;" transform="translate(891.536303 121.688203)scale(0.11 -0.11)">
     <use xlink:href="#ArialMT-49"/>
    </g>
   </g>
  </g>
 </g>
 <defs>
  <clipPath id="p5510dad71c">
   <rect height="156.58" width="807.8851" x="38.107031" y="7.2"/>
  </clipPath>
 </defs>
</svg>
