<?xml version="1.0" encoding="utf-8" standalone="no"?>
<!DOCTYPE svg PUBLIC "-//W3C//DTD SVG 1.1//EN"
  "http://www.w3.org/Graphics/SVG/1.1/DTD/svg11.dtd">
<!-- Created with matplotlib (https://matplotlib.org/) -->
<svg height="248.518125pt" version="1.1" viewBox="0 0 362.5625 248.518125" width="362.5625pt" xmlns="http://www.w3.org/2000/svg" xmlns:xlink="http://www.w3.org/1999/xlink">
 <metadata>
  <rdf:RDF xmlns:cc="http://creativecommons.org/ns#" xmlns:dc="http://purl.org/dc/elements/1.1/" xmlns:rdf="http://www.w3.org/1999/02/22-rdf-syntax-ns#">
   <cc:Work>
    <dc:type rdf:resource="http://purl.org/dc/dcmitype/StillImage"/>
    <dc:date>2020-10-22T19:29:05.482905</dc:date>
    <dc:format>image/svg+xml</dc:format>
    <dc:creator>
     <cc:Agent>
      <dc:title>Matplotlib v3.3.2, https://matplotlib.org/</dc:title>
     </cc:Agent>
    </dc:creator>
   </cc:Work>
  </rdf:RDF>
 </metadata>
 <defs>
  <style type="text/css">*{stroke-linecap:butt;stroke-linejoin:round;}</style>
 </defs>
 <g id="figure_1">
  <g id="patch_1">
   <path d="M 0 248.518125 
L 362.5625 248.518125 
L 362.5625 0 
L 0 0 
z
" style="fill:none;"/>
  </g>
  <g id="axes_1">
   <g id="patch_2">
    <path d="M 20.5625 224.64 
L 355.3625 224.64 
L 355.3625 7.2 
L 20.5625 7.2 
z
" style="fill:#ffffff;"/>
   </g>
   <g id="matplotlib.axis_1">
    <g id="xtick_1">
     <g id="line2d_1">
      <defs>
       <path d="M 0 0 
L 0 3.5 
" id="ma80c4539c3" style="stroke:#000000;stroke-width:0.8;"/>
      </defs>
      <g>
       <use style="stroke:#000000;stroke-width:0.8;" x="35.780682" xlink:href="#ma80c4539c3" y="224.64"/>
      </g>
     </g>
     <g id="text_1">
      <!-- 0 -->
      <g transform="translate(32.599432 239.238437)scale(0.1 -0.1)">
       <defs>
        <path d="M 31.78125 66.40625 
Q 24.171875 66.40625 20.328125 58.90625 
Q 16.5 51.421875 16.5 36.375 
Q 16.5 21.390625 20.328125 13.890625 
Q 24.171875 6.390625 31.78125 6.390625 
Q 39.453125 6.390625 43.28125 13.890625 
Q 47.125 21.390625 47.125 36.375 
Q 47.125 51.421875 43.28125 58.90625 
Q 39.453125 66.40625 31.78125 66.40625 
z
M 31.78125 74.21875 
Q 44.046875 74.21875 50.515625 64.515625 
Q 56.984375 54.828125 56.984375 36.375 
Q 56.984375 17.96875 50.515625 8.265625 
Q 44.046875 -1.421875 31.78125 -1.421875 
Q 19.53125 -1.421875 13.0625 8.265625 
Q 6.59375 17.96875 6.59375 36.375 
Q 6.59375 54.828125 13.0625 64.515625 
Q 19.53125 74.21875 31.78125 74.21875 
z
" id="DejaVuSans-48"/>
       </defs>
       <use xlink:href="#DejaVuSans-48"/>
      </g>
     </g>
    </g>
    <g id="xtick_2">
     <g id="line2d_2">
      <g>
       <use style="stroke:#000000;stroke-width:0.8;" x="74.801661" xlink:href="#ma80c4539c3" y="224.64"/>
      </g>
     </g>
     <g id="text_2">
      <!-- 10 -->
      <g transform="translate(68.439161 239.238437)scale(0.1 -0.1)">
       <defs>
        <path d="M 12.40625 8.296875 
L 28.515625 8.296875 
L 28.515625 63.921875 
L 10.984375 60.40625 
L 10.984375 69.390625 
L 28.421875 72.90625 
L 38.28125 72.90625 
L 38.28125 8.296875 
L 54.390625 8.296875 
L 54.390625 0 
L 12.40625 0 
z
" id="DejaVuSans-49"/>
       </defs>
       <use xlink:href="#DejaVuSans-49"/>
       <use x="63.623047" xlink:href="#DejaVuSans-48"/>
      </g>
     </g>
    </g>
    <g id="xtick_3">
     <g id="line2d_3">
      <g>
       <use style="stroke:#000000;stroke-width:0.8;" x="113.82264" xlink:href="#ma80c4539c3" y="224.64"/>
      </g>
     </g>
     <g id="text_3">
      <!-- 20 -->
      <g transform="translate(107.46014 239.238437)scale(0.1 -0.1)">
       <defs>
        <path d="M 19.1875 8.296875 
L 53.609375 8.296875 
L 53.609375 0 
L 7.328125 0 
L 7.328125 8.296875 
Q 12.9375 14.109375 22.625 23.890625 
Q 32.328125 33.6875 34.8125 36.53125 
Q 39.546875 41.84375 41.421875 45.53125 
Q 43.3125 49.21875 43.3125 52.78125 
Q 43.3125 58.59375 39.234375 62.25 
Q 35.15625 65.921875 28.609375 65.921875 
Q 23.96875 65.921875 18.8125 64.3125 
Q 13.671875 62.703125 7.8125 59.421875 
L 7.8125 69.390625 
Q 13.765625 71.78125 18.9375 73 
Q 24.125 74.21875 28.421875 74.21875 
Q 39.75 74.21875 46.484375 68.546875 
Q 53.21875 62.890625 53.21875 53.421875 
Q 53.21875 48.921875 51.53125 44.890625 
Q 49.859375 40.875 45.40625 35.40625 
Q 44.1875 33.984375 37.640625 27.21875 
Q 31.109375 20.453125 19.1875 8.296875 
z
" id="DejaVuSans-50"/>
       </defs>
       <use xlink:href="#DejaVuSans-50"/>
       <use x="63.623047" xlink:href="#DejaVuSans-48"/>
      </g>
     </g>
    </g>
    <g id="xtick_4">
     <g id="line2d_4">
      <g>
       <use style="stroke:#000000;stroke-width:0.8;" x="152.843619" xlink:href="#ma80c4539c3" y="224.64"/>
      </g>
     </g>
     <g id="text_4">
      <!-- 30 -->
      <g transform="translate(146.481119 239.238437)scale(0.1 -0.1)">
       <defs>
        <path d="M 40.578125 39.3125 
Q 47.65625 37.796875 51.625 33 
Q 55.609375 28.21875 55.609375 21.1875 
Q 55.609375 10.40625 48.1875 4.484375 
Q 40.765625 -1.421875 27.09375 -1.421875 
Q 22.515625 -1.421875 17.65625 -0.515625 
Q 12.796875 0.390625 7.625 2.203125 
L 7.625 11.71875 
Q 11.71875 9.328125 16.59375 8.109375 
Q 21.484375 6.890625 26.8125 6.890625 
Q 36.078125 6.890625 40.9375 10.546875 
Q 45.796875 14.203125 45.796875 21.1875 
Q 45.796875 27.640625 41.28125 31.265625 
Q 36.765625 34.90625 28.71875 34.90625 
L 20.21875 34.90625 
L 20.21875 43.015625 
L 29.109375 43.015625 
Q 36.375 43.015625 40.234375 45.921875 
Q 44.09375 48.828125 44.09375 54.296875 
Q 44.09375 59.90625 40.109375 62.90625 
Q 36.140625 65.921875 28.71875 65.921875 
Q 24.65625 65.921875 20.015625 65.03125 
Q 15.375 64.15625 9.8125 62.3125 
L 9.8125 71.09375 
Q 15.4375 72.65625 20.34375 73.4375 
Q 25.25 74.21875 29.59375 74.21875 
Q 40.828125 74.21875 47.359375 69.109375 
Q 53.90625 64.015625 53.90625 55.328125 
Q 53.90625 49.265625 50.4375 45.09375 
Q 46.96875 40.921875 40.578125 39.3125 
z
" id="DejaVuSans-51"/>
       </defs>
       <use xlink:href="#DejaVuSans-51"/>
       <use x="63.623047" xlink:href="#DejaVuSans-48"/>
      </g>
     </g>
    </g>
    <g id="xtick_5">
     <g id="line2d_5">
      <g>
       <use style="stroke:#000000;stroke-width:0.8;" x="191.864598" xlink:href="#ma80c4539c3" y="224.64"/>
      </g>
     </g>
     <g id="text_5">
      <!-- 40 -->
      <g transform="translate(185.502098 239.238437)scale(0.1 -0.1)">
       <defs>
        <path d="M 37.796875 64.3125 
L 12.890625 25.390625 
L 37.796875 25.390625 
z
M 35.203125 72.90625 
L 47.609375 72.90625 
L 47.609375 25.390625 
L 58.015625 25.390625 
L 58.015625 17.1875 
L 47.609375 17.1875 
L 47.609375 0 
L 37.796875 0 
L 37.796875 17.1875 
L 4.890625 17.1875 
L 4.890625 26.703125 
z
" id="DejaVuSans-52"/>
       </defs>
       <use xlink:href="#DejaVuSans-52"/>
       <use x="63.623047" xlink:href="#DejaVuSans-48"/>
      </g>
     </g>
    </g>
    <g id="xtick_6">
     <g id="line2d_6">
      <g>
       <use style="stroke:#000000;stroke-width:0.8;" x="230.885577" xlink:href="#ma80c4539c3" y="224.64"/>
      </g>
     </g>
     <g id="text_6">
      <!-- 50 -->
      <g transform="translate(224.523077 239.238437)scale(0.1 -0.1)">
       <defs>
        <path d="M 10.796875 72.90625 
L 49.515625 72.90625 
L 49.515625 64.59375 
L 19.828125 64.59375 
L 19.828125 46.734375 
Q 21.96875 47.46875 24.109375 47.828125 
Q 26.265625 48.1875 28.421875 48.1875 
Q 40.625 48.1875 47.75 41.5 
Q 54.890625 34.8125 54.890625 23.390625 
Q 54.890625 11.625 47.5625 5.09375 
Q 40.234375 -1.421875 26.90625 -1.421875 
Q 22.3125 -1.421875 17.546875 -0.640625 
Q 12.796875 0.140625 7.71875 1.703125 
L 7.71875 11.625 
Q 12.109375 9.234375 16.796875 8.0625 
Q 21.484375 6.890625 26.703125 6.890625 
Q 35.15625 6.890625 40.078125 11.328125 
Q 45.015625 15.765625 45.015625 23.390625 
Q 45.015625 31 40.078125 35.4375 
Q 35.15625 39.890625 26.703125 39.890625 
Q 22.75 39.890625 18.8125 39.015625 
Q 14.890625 38.140625 10.796875 36.28125 
z
" id="DejaVuSans-53"/>
       </defs>
       <use xlink:href="#DejaVuSans-53"/>
       <use x="63.623047" xlink:href="#DejaVuSans-48"/>
      </g>
     </g>
    </g>
    <g id="xtick_7">
     <g id="line2d_7">
      <g>
       <use style="stroke:#000000;stroke-width:0.8;" x="269.906556" xlink:href="#ma80c4539c3" y="224.64"/>
      </g>
     </g>
     <g id="text_7">
      <!-- 60 -->
      <g transform="translate(263.544056 239.238437)scale(0.1 -0.1)">
       <defs>
        <path d="M 33.015625 40.375 
Q 26.375 40.375 22.484375 35.828125 
Q 18.609375 31.296875 18.609375 23.390625 
Q 18.609375 15.53125 22.484375 10.953125 
Q 26.375 6.390625 33.015625 6.390625 
Q 39.65625 6.390625 43.53125 10.953125 
Q 47.40625 15.53125 47.40625 23.390625 
Q 47.40625 31.296875 43.53125 35.828125 
Q 39.65625 40.375 33.015625 40.375 
z
M 52.59375 71.296875 
L 52.59375 62.3125 
Q 48.875 64.0625 45.09375 64.984375 
Q 41.3125 65.921875 37.59375 65.921875 
Q 27.828125 65.921875 22.671875 59.328125 
Q 17.53125 52.734375 16.796875 39.40625 
Q 19.671875 43.65625 24.015625 45.921875 
Q 28.375 48.1875 33.59375 48.1875 
Q 44.578125 48.1875 50.953125 41.515625 
Q 57.328125 34.859375 57.328125 23.390625 
Q 57.328125 12.15625 50.6875 5.359375 
Q 44.046875 -1.421875 33.015625 -1.421875 
Q 20.359375 -1.421875 13.671875 8.265625 
Q 6.984375 17.96875 6.984375 36.375 
Q 6.984375 53.65625 15.1875 63.9375 
Q 23.390625 74.21875 37.203125 74.21875 
Q 40.921875 74.21875 44.703125 73.484375 
Q 48.484375 72.75 52.59375 71.296875 
z
" id="DejaVuSans-54"/>
       </defs>
       <use xlink:href="#DejaVuSans-54"/>
       <use x="63.623047" xlink:href="#DejaVuSans-48"/>
      </g>
     </g>
    </g>
    <g id="xtick_8">
     <g id="line2d_8">
      <g>
       <use style="stroke:#000000;stroke-width:0.8;" x="308.927535" xlink:href="#ma80c4539c3" y="224.64"/>
      </g>
     </g>
     <g id="text_8">
      <!-- 70 -->
      <g transform="translate(302.565035 239.238437)scale(0.1 -0.1)">
       <defs>
        <path d="M 8.203125 72.90625 
L 55.078125 72.90625 
L 55.078125 68.703125 
L 28.609375 0 
L 18.3125 0 
L 43.21875 64.59375 
L 8.203125 64.59375 
z
" id="DejaVuSans-55"/>
       </defs>
       <use xlink:href="#DejaVuSans-55"/>
       <use x="63.623047" xlink:href="#DejaVuSans-48"/>
      </g>
     </g>
    </g>
    <g id="xtick_9">
     <g id="line2d_9">
      <g>
       <use style="stroke:#000000;stroke-width:0.8;" x="347.948514" xlink:href="#ma80c4539c3" y="224.64"/>
      </g>
     </g>
     <g id="text_9">
      <!-- 80 -->
      <g transform="translate(341.586014 239.238437)scale(0.1 -0.1)">
       <defs>
        <path d="M 31.78125 34.625 
Q 24.75 34.625 20.71875 30.859375 
Q 16.703125 27.09375 16.703125 20.515625 
Q 16.703125 13.921875 20.71875 10.15625 
Q 24.75 6.390625 31.78125 6.390625 
Q 38.8125 6.390625 42.859375 10.171875 
Q 46.921875 13.96875 46.921875 20.515625 
Q 46.921875 27.09375 42.890625 30.859375 
Q 38.875 34.625 31.78125 34.625 
z
M 21.921875 38.8125 
Q 15.578125 40.375 12.03125 44.71875 
Q 8.5 49.078125 8.5 55.328125 
Q 8.5 64.0625 14.71875 69.140625 
Q 20.953125 74.21875 31.78125 74.21875 
Q 42.671875 74.21875 48.875 69.140625 
Q 55.078125 64.0625 55.078125 55.328125 
Q 55.078125 49.078125 51.53125 44.71875 
Q 48 40.375 41.703125 38.8125 
Q 48.828125 37.15625 52.796875 32.3125 
Q 56.78125 27.484375 56.78125 20.515625 
Q 56.78125 9.90625 50.3125 4.234375 
Q 43.84375 -1.421875 31.78125 -1.421875 
Q 19.734375 -1.421875 13.25 4.234375 
Q 6.78125 9.90625 6.78125 20.515625 
Q 6.78125 27.484375 10.78125 32.3125 
Q 14.796875 37.15625 21.921875 38.8125 
z
M 18.3125 54.390625 
Q 18.3125 48.734375 21.84375 45.5625 
Q 25.390625 42.390625 31.78125 42.390625 
Q 38.140625 42.390625 41.71875 45.5625 
Q 45.3125 48.734375 45.3125 54.390625 
Q 45.3125 60.0625 41.71875 63.234375 
Q 38.140625 66.40625 31.78125 66.40625 
Q 25.390625 66.40625 21.84375 63.234375 
Q 18.3125 60.0625 18.3125 54.390625 
z
" id="DejaVuSans-56"/>
       </defs>
       <use xlink:href="#DejaVuSans-56"/>
       <use x="63.623047" xlink:href="#DejaVuSans-48"/>
      </g>
     </g>
    </g>
   </g>
   <g id="matplotlib.axis_2">
    <g id="ytick_1">
     <g id="line2d_10">
      <defs>
       <path d="M 0 0 
L -3.5 0 
" id="mb3b088a59c" style="stroke:#000000;stroke-width:0.8;"/>
      </defs>
      <g>
       <use style="stroke:#000000;stroke-width:0.8;" x="20.5625" xlink:href="#mb3b088a59c" y="214.756364"/>
      </g>
     </g>
     <g id="text_10">
      <!-- 0 -->
      <g transform="translate(7.2 218.555582)scale(0.1 -0.1)">
       <use xlink:href="#DejaVuSans-48"/>
      </g>
     </g>
    </g>
    <g id="ytick_2">
     <g id="line2d_11">
      <g>
       <use style="stroke:#000000;stroke-width:0.8;" x="20.5625" xlink:href="#mb3b088a59c" y="187.885084"/>
      </g>
     </g>
     <g id="text_11">
      <!-- 1 -->
      <g transform="translate(7.2 191.684303)scale(0.1 -0.1)">
       <use xlink:href="#DejaVuSans-49"/>
      </g>
     </g>
    </g>
    <g id="ytick_3">
     <g id="line2d_12">
      <g>
       <use style="stroke:#000000;stroke-width:0.8;" x="20.5625" xlink:href="#mb3b088a59c" y="161.013805"/>
      </g>
     </g>
     <g id="text_12">
      <!-- 2 -->
      <g transform="translate(7.2 164.813023)scale(0.1 -0.1)">
       <use xlink:href="#DejaVuSans-50"/>
      </g>
     </g>
    </g>
    <g id="ytick_4">
     <g id="line2d_13">
      <g>
       <use style="stroke:#000000;stroke-width:0.8;" x="20.5625" xlink:href="#mb3b088a59c" y="134.142525"/>
      </g>
     </g>
     <g id="text_13">
      <!-- 3 -->
      <g transform="translate(7.2 137.941744)scale(0.1 -0.1)">
       <use xlink:href="#DejaVuSans-51"/>
      </g>
     </g>
    </g>
    <g id="ytick_5">
     <g id="line2d_14">
      <g>
       <use style="stroke:#000000;stroke-width:0.8;" x="20.5625" xlink:href="#mb3b088a59c" y="107.271245"/>
      </g>
     </g>
     <g id="text_14">
      <!-- 4 -->
      <g transform="translate(7.2 111.070464)scale(0.1 -0.1)">
       <use xlink:href="#DejaVuSans-52"/>
      </g>
     </g>
    </g>
    <g id="ytick_6">
     <g id="line2d_15">
      <g>
       <use style="stroke:#000000;stroke-width:0.8;" x="20.5625" xlink:href="#mb3b088a59c" y="80.399966"/>
      </g>
     </g>
     <g id="text_15">
      <!-- 5 -->
      <g transform="translate(7.2 84.199185)scale(0.1 -0.1)">
       <use xlink:href="#DejaVuSans-53"/>
      </g>
     </g>
    </g>
    <g id="ytick_7">
     <g id="line2d_16">
      <g>
       <use style="stroke:#000000;stroke-width:0.8;" x="20.5625" xlink:href="#mb3b088a59c" y="53.528686"/>
      </g>
     </g>
     <g id="text_16">
      <!-- 6 -->
      <g transform="translate(7.2 57.327905)scale(0.1 -0.1)">
       <use xlink:href="#DejaVuSans-54"/>
      </g>
     </g>
    </g>
    <g id="ytick_8">
     <g id="line2d_17">
      <g>
       <use style="stroke:#000000;stroke-width:0.8;" x="20.5625" xlink:href="#mb3b088a59c" y="26.657407"/>
      </g>
     </g>
     <g id="text_17">
      <!-- 7 -->
      <g transform="translate(7.2 30.456625)scale(0.1 -0.1)">
       <use xlink:href="#DejaVuSans-55"/>
      </g>
     </g>
    </g>
   </g>
   <g id="line2d_18">
    <path clip-path="url(#pdd8e4cfc80)" d="M 35.780682 214.756364 
L 39.68278 214.756364 
L 43.584878 180.893218 
L 47.486976 174.974185 
L 51.389073 174.624124 
L 55.291171 177.967559 
L 59.193269 178.848937 
L 63.095367 181.168027 
L 66.997465 181.748727 
L 70.899563 179.079533 
L 74.801661 177.4147 
L 78.703759 179.002711 
L 82.605857 175.30387 
L 86.507955 173.390509 
L 90.410052 174.565438 
L 94.31215 175.807235 
L 98.214248 176.873587 
L 102.116346 177.382032 
L 106.018444 178.199067 
L 109.920542 176.333811 
L 113.82264 177.070701 
L 117.724738 177.834912 
L 121.626836 178.591721 
L 125.528934 178.560364 
L 129.431031 179.206858 
L 133.333129 179.687659 
L 137.235227 179.279226 
L 141.137325 179.749143 
L 145.039423 180.153223 
L 148.941521 180.256118 
L 152.843619 180.782369 
L 156.745717 181.310636 
L 160.647815 180.977105 
L 164.549913 180.751646 
L 168.45201 181.102785 
L 172.354108 178.001836 
L 176.256206 178.399372 
L 180.158304 178.807554 
L 184.060402 179.269539 
L 187.9625 179.609061 
L 191.864598 179.500923 
L 195.766696 179.922871 
L 199.668794 179.731004 
L 203.570892 179.912758 
L 207.47299 180.09209 
L 211.375087 179.368345 
L 215.277185 178.969566 
L 219.179283 179.343068 
L 223.081381 179.421215 
L 226.983479 177.307034 
L 230.885577 177.455873 
L 234.787675 177.35254 
L 238.689773 177.399991 
L 242.591871 177.741856 
L 246.493969 176.884137 
L 250.396066 177.182066 
L 254.298164 176.487286 
L 258.200262 176.811334 
L 262.10236 177.128407 
L 266.004458 177.137402 
L 269.906556 177.438917 
L 273.808654 176.845555 
L 277.710752 177.086223 
L 281.61285 177.076996 
L 285.514948 177.271745 
L 289.417045 177.553967 
L 293.319143 177.105185 
L 297.221241 177.265228 
L 301.123339 177.201038 
L 305.025437 177.410004 
L 308.927535 177.672364 
L 312.829633 177.548939 
L 316.731731 177.176157 
L 320.633829 177.385286 
L 324.535927 176.746248 
L 328.438024 176.938233 
L 332.340122 176.854591 
L 336.24222 176.988276 
L 340.144318 177.166052 
" style="fill:none;stroke:#ff0000;stroke-linecap:square;stroke-width:2;"/>
    <defs>
     <path d="M -3 0 
L 3 0 
M 0 3 
L 0 -3 
" id="mec62c09d80" style="stroke:#ff0000;"/>
    </defs>
    <g clip-path="url(#pdd8e4cfc80)">
     <use style="fill:#ff0000;stroke:#ff0000;" x="35.780682" xlink:href="#mec62c09d80" y="214.756364"/>
     <use style="fill:#ff0000;stroke:#ff0000;" x="39.68278" xlink:href="#mec62c09d80" y="214.756364"/>
     <use style="fill:#ff0000;stroke:#ff0000;" x="43.584878" xlink:href="#mec62c09d80" y="180.893218"/>
     <use style="fill:#ff0000;stroke:#ff0000;" x="47.486976" xlink:href="#mec62c09d80" y="174.974185"/>
     <use style="fill:#ff0000;stroke:#ff0000;" x="51.389073" xlink:href="#mec62c09d80" y="174.624124"/>
     <use style="fill:#ff0000;stroke:#ff0000;" x="55.291171" xlink:href="#mec62c09d80" y="177.967559"/>
     <use style="fill:#ff0000;stroke:#ff0000;" x="59.193269" xlink:href="#mec62c09d80" y="178.848937"/>
     <use style="fill:#ff0000;stroke:#ff0000;" x="63.095367" xlink:href="#mec62c09d80" y="181.168027"/>
     <use style="fill:#ff0000;stroke:#ff0000;" x="66.997465" xlink:href="#mec62c09d80" y="181.748727"/>
     <use style="fill:#ff0000;stroke:#ff0000;" x="70.899563" xlink:href="#mec62c09d80" y="179.079533"/>
     <use style="fill:#ff0000;stroke:#ff0000;" x="74.801661" xlink:href="#mec62c09d80" y="177.4147"/>
     <use style="fill:#ff0000;stroke:#ff0000;" x="78.703759" xlink:href="#mec62c09d80" y="179.002711"/>
     <use style="fill:#ff0000;stroke:#ff0000;" x="82.605857" xlink:href="#mec62c09d80" y="175.30387"/>
     <use style="fill:#ff0000;stroke:#ff0000;" x="86.507955" xlink:href="#mec62c09d80" y="173.390509"/>
     <use style="fill:#ff0000;stroke:#ff0000;" x="90.410052" xlink:href="#mec62c09d80" y="174.565438"/>
     <use style="fill:#ff0000;stroke:#ff0000;" x="94.31215" xlink:href="#mec62c09d80" y="175.807235"/>
     <use style="fill:#ff0000;stroke:#ff0000;" x="98.214248" xlink:href="#mec62c09d80" y="176.873587"/>
     <use style="fill:#ff0000;stroke:#ff0000;" x="102.116346" xlink:href="#mec62c09d80" y="177.382032"/>
     <use style="fill:#ff0000;stroke:#ff0000;" x="106.018444" xlink:href="#mec62c09d80" y="178.199067"/>
     <use style="fill:#ff0000;stroke:#ff0000;" x="109.920542" xlink:href="#mec62c09d80" y="176.333811"/>
     <use style="fill:#ff0000;stroke:#ff0000;" x="113.82264" xlink:href="#mec62c09d80" y="177.070701"/>
     <use style="fill:#ff0000;stroke:#ff0000;" x="117.724738" xlink:href="#mec62c09d80" y="177.834912"/>
     <use style="fill:#ff0000;stroke:#ff0000;" x="121.626836" xlink:href="#mec62c09d80" y="178.591721"/>
     <use style="fill:#ff0000;stroke:#ff0000;" x="125.528934" xlink:href="#mec62c09d80" y="178.560364"/>
     <use style="fill:#ff0000;stroke:#ff0000;" x="129.431031" xlink:href="#mec62c09d80" y="179.206858"/>
     <use style="fill:#ff0000;stroke:#ff0000;" x="133.333129" xlink:href="#mec62c09d80" y="179.687659"/>
     <use style="fill:#ff0000;stroke:#ff0000;" x="137.235227" xlink:href="#mec62c09d80" y="179.279226"/>
     <use style="fill:#ff0000;stroke:#ff0000;" x="141.137325" xlink:href="#mec62c09d80" y="179.749143"/>
     <use style="fill:#ff0000;stroke:#ff0000;" x="145.039423" xlink:href="#mec62c09d80" y="180.153223"/>
     <use style="fill:#ff0000;stroke:#ff0000;" x="148.941521" xlink:href="#mec62c09d80" y="180.256118"/>
     <use style="fill:#ff0000;stroke:#ff0000;" x="152.843619" xlink:href="#mec62c09d80" y="180.782369"/>
     <use style="fill:#ff0000;stroke:#ff0000;" x="156.745717" xlink:href="#mec62c09d80" y="181.310636"/>
     <use style="fill:#ff0000;stroke:#ff0000;" x="160.647815" xlink:href="#mec62c09d80" y="180.977105"/>
     <use style="fill:#ff0000;stroke:#ff0000;" x="164.549913" xlink:href="#mec62c09d80" y="180.751646"/>
     <use style="fill:#ff0000;stroke:#ff0000;" x="168.45201" xlink:href="#mec62c09d80" y="181.102785"/>
     <use style="fill:#ff0000;stroke:#ff0000;" x="172.354108" xlink:href="#mec62c09d80" y="178.001836"/>
     <use style="fill:#ff0000;stroke:#ff0000;" x="176.256206" xlink:href="#mec62c09d80" y="178.399372"/>
     <use style="fill:#ff0000;stroke:#ff0000;" x="180.158304" xlink:href="#mec62c09d80" y="178.807554"/>
     <use style="fill:#ff0000;stroke:#ff0000;" x="184.060402" xlink:href="#mec62c09d80" y="179.269539"/>
     <use style="fill:#ff0000;stroke:#ff0000;" x="187.9625" xlink:href="#mec62c09d80" y="179.609061"/>
     <use style="fill:#ff0000;stroke:#ff0000;" x="191.864598" xlink:href="#mec62c09d80" y="179.500923"/>
     <use style="fill:#ff0000;stroke:#ff0000;" x="195.766696" xlink:href="#mec62c09d80" y="179.922871"/>
     <use style="fill:#ff0000;stroke:#ff0000;" x="199.668794" xlink:href="#mec62c09d80" y="179.731004"/>
     <use style="fill:#ff0000;stroke:#ff0000;" x="203.570892" xlink:href="#mec62c09d80" y="179.912758"/>
     <use style="fill:#ff0000;stroke:#ff0000;" x="207.47299" xlink:href="#mec62c09d80" y="180.09209"/>
     <use style="fill:#ff0000;stroke:#ff0000;" x="211.375087" xlink:href="#mec62c09d80" y="179.368345"/>
     <use style="fill:#ff0000;stroke:#ff0000;" x="215.277185" xlink:href="#mec62c09d80" y="178.969566"/>
     <use style="fill:#ff0000;stroke:#ff0000;" x="219.179283" xlink:href="#mec62c09d80" y="179.343068"/>
     <use style="fill:#ff0000;stroke:#ff0000;" x="223.081381" xlink:href="#mec62c09d80" y="179.421215"/>
     <use style="fill:#ff0000;stroke:#ff0000;" x="226.983479" xlink:href="#mec62c09d80" y="177.307034"/>
     <use style="fill:#ff0000;stroke:#ff0000;" x="230.885577" xlink:href="#mec62c09d80" y="177.455873"/>
     <use style="fill:#ff0000;stroke:#ff0000;" x="234.787675" xlink:href="#mec62c09d80" y="177.35254"/>
     <use style="fill:#ff0000;stroke:#ff0000;" x="238.689773" xlink:href="#mec62c09d80" y="177.399991"/>
     <use style="fill:#ff0000;stroke:#ff0000;" x="242.591871" xlink:href="#mec62c09d80" y="177.741856"/>
     <use style="fill:#ff0000;stroke:#ff0000;" x="246.493969" xlink:href="#mec62c09d80" y="176.884137"/>
     <use style="fill:#ff0000;stroke:#ff0000;" x="250.396066" xlink:href="#mec62c09d80" y="177.182066"/>
     <use style="fill:#ff0000;stroke:#ff0000;" x="254.298164" xlink:href="#mec62c09d80" y="176.487286"/>
     <use style="fill:#ff0000;stroke:#ff0000;" x="258.200262" xlink:href="#mec62c09d80" y="176.811334"/>
     <use style="fill:#ff0000;stroke:#ff0000;" x="262.10236" xlink:href="#mec62c09d80" y="177.128407"/>
     <use style="fill:#ff0000;stroke:#ff0000;" x="266.004458" xlink:href="#mec62c09d80" y="177.137402"/>
     <use style="fill:#ff0000;stroke:#ff0000;" x="269.906556" xlink:href="#mec62c09d80" y="177.438917"/>
     <use style="fill:#ff0000;stroke:#ff0000;" x="273.808654" xlink:href="#mec62c09d80" y="176.845555"/>
     <use style="fill:#ff0000;stroke:#ff0000;" x="277.710752" xlink:href="#mec62c09d80" y="177.086223"/>
     <use style="fill:#ff0000;stroke:#ff0000;" x="281.61285" xlink:href="#mec62c09d80" y="177.076996"/>
     <use style="fill:#ff0000;stroke:#ff0000;" x="285.514948" xlink:href="#mec62c09d80" y="177.271745"/>
     <use style="fill:#ff0000;stroke:#ff0000;" x="289.417045" xlink:href="#mec62c09d80" y="177.553967"/>
     <use style="fill:#ff0000;stroke:#ff0000;" x="293.319143" xlink:href="#mec62c09d80" y="177.105185"/>
     <use style="fill:#ff0000;stroke:#ff0000;" x="297.221241" xlink:href="#mec62c09d80" y="177.265228"/>
     <use style="fill:#ff0000;stroke:#ff0000;" x="301.123339" xlink:href="#mec62c09d80" y="177.201038"/>
     <use style="fill:#ff0000;stroke:#ff0000;" x="305.025437" xlink:href="#mec62c09d80" y="177.410004"/>
     <use style="fill:#ff0000;stroke:#ff0000;" x="308.927535" xlink:href="#mec62c09d80" y="177.672364"/>
     <use style="fill:#ff0000;stroke:#ff0000;" x="312.829633" xlink:href="#mec62c09d80" y="177.548939"/>
     <use style="fill:#ff0000;stroke:#ff0000;" x="316.731731" xlink:href="#mec62c09d80" y="177.176157"/>
     <use style="fill:#ff0000;stroke:#ff0000;" x="320.633829" xlink:href="#mec62c09d80" y="177.385286"/>
     <use style="fill:#ff0000;stroke:#ff0000;" x="324.535927" xlink:href="#mec62c09d80" y="176.746248"/>
     <use style="fill:#ff0000;stroke:#ff0000;" x="328.438024" xlink:href="#mec62c09d80" y="176.938233"/>
     <use style="fill:#ff0000;stroke:#ff0000;" x="332.340122" xlink:href="#mec62c09d80" y="176.854591"/>
     <use style="fill:#ff0000;stroke:#ff0000;" x="336.24222" xlink:href="#mec62c09d80" y="176.988276"/>
     <use style="fill:#ff0000;stroke:#ff0000;" x="340.144318" xlink:href="#mec62c09d80" y="177.166052"/>
    </g>
   </g>
   <g id="line2d_19">
    <path clip-path="url(#pdd8e4cfc80)" d="M 35.780682 79.964628 
L 39.68278 17.083636 
L 43.584878 160.508096 
L 47.486976 142.69141 
L 51.389073 157.595938 
L 55.291171 157.188202 
L 59.193269 155.816039 
L 63.095367 155.830583 
L 66.997465 154.870025 
L 70.899563 155.344451 
L 74.801661 150.350857 
L 78.703759 150.38048 
L 82.605857 159.453509 
L 86.507955 163.649836 
L 90.410052 163.456148 
L 94.31215 163.191413 
L 98.214248 163.244698 
L 102.116346 162.655461 
L 106.018444 163.144802 
L 109.920542 162.554815 
L 113.82264 162.479753 
L 117.724738 162.552002 
L 121.626836 162.813565 
L 125.528934 163.833951 
L 129.431031 163.653412 
L 133.333129 164.105257 
L 137.235227 163.44021 
L 141.137325 163.097289 
L 145.039423 162.71537 
L 148.941521 162.334949 
L 152.843619 162.362006 
L 156.745717 162.335017 
L 160.647815 161.758233 
L 164.549913 162.567512 
L 168.45201 162.891252 
L 172.354108 164.251309 
L 176.256206 164.082094 
L 180.158304 164.208362 
L 184.060402 164.186736 
L 187.9625 164.031012 
L 191.864598 163.658866 
L 195.766696 163.667785 
L 199.668794 163.28942 
L 203.570892 163.527818 
L 207.47299 163.714198 
L 211.375087 164.220249 
L 215.277185 164.54648 
L 219.179283 164.534515 
L 223.081381 164.776654 
L 226.983479 165.325721 
L 230.885577 165.460325 
L 234.787675 165.577751 
L 238.689773 165.342941 
L 242.591871 165.311435 
L 246.493969 164.772314 
L 250.396066 164.893572 
L 254.298164 164.6006 
L 258.200262 164.640496 
L 262.10236 164.66485 
L 266.004458 164.935324 
L 269.906556 164.971983 
L 273.808654 165.346042 
L 277.710752 165.264852 
L 281.61285 165.089564 
L 285.514948 164.98934 
L 289.417045 165.00764 
L 293.319143 165.206759 
L 297.221241 165.107218 
L 301.123339 165.304158 
L 305.025437 165.242245 
L 308.927535 165.228977 
L 312.829633 165.069656 
L 316.731731 164.801033 
L 320.633829 164.856951 
L 324.535927 164.515273 
L 328.438024 164.455793 
L 332.340122 164.246849 
L 336.24222 164.108275 
L 340.144318 164.20311 
" style="fill:none;stroke:#0000ff;stroke-linecap:square;stroke-width:3;"/>
   </g>
   <g id="patch_3">
    <path d="M 20.5625 224.64 
L 20.5625 7.2 
" style="fill:none;stroke:#000000;stroke-linecap:square;stroke-linejoin:miter;stroke-width:0.8;"/>
   </g>
   <g id="patch_4">
    <path d="M 355.3625 224.64 
L 355.3625 7.2 
" style="fill:none;stroke:#000000;stroke-linecap:square;stroke-linejoin:miter;stroke-width:0.8;"/>
   </g>
   <g id="patch_5">
    <path d="M 20.5625 224.64 
L 355.3625 224.64 
" style="fill:none;stroke:#000000;stroke-linecap:square;stroke-linejoin:miter;stroke-width:0.8;"/>
   </g>
   <g id="patch_6">
    <path d="M 20.5625 7.2 
L 355.3625 7.2 
" style="fill:none;stroke:#000000;stroke-linecap:square;stroke-linejoin:miter;stroke-width:0.8;"/>
   </g>
   <g id="legend_1">
    <g id="patch_7">
     <path d="M 293.0875 44.55625 
L 348.3625 44.55625 
Q 350.3625 44.55625 350.3625 42.55625 
L 350.3625 14.2 
Q 350.3625 12.2 348.3625 12.2 
L 293.0875 12.2 
Q 291.0875 12.2 291.0875 14.2 
L 291.0875 42.55625 
Q 291.0875 44.55625 293.0875 44.55625 
z
" style="fill:#ffffff;opacity:0.8;stroke:#cccccc;stroke-linejoin:miter;"/>
    </g>
    <g id="line2d_20">
     <path d="M 295.0875 20.298437 
L 315.0875 20.298437 
" style="fill:none;stroke:#ff0000;stroke-linecap:square;stroke-width:2;"/>
    </g>
    <g id="line2d_21">
     <g>
      <use style="fill:#ff0000;stroke:#ff0000;" x="305.0875" xlink:href="#mec62c09d80" y="20.298437"/>
     </g>
    </g>
    <g id="text_18">
     <!-- train -->
     <g transform="translate(323.0875 23.798437)scale(0.1 -0.1)">
      <defs>
       <path d="M 18.3125 70.21875 
L 18.3125 54.6875 
L 36.8125 54.6875 
L 36.8125 47.703125 
L 18.3125 47.703125 
L 18.3125 18.015625 
Q 18.3125 11.328125 20.140625 9.421875 
Q 21.96875 7.515625 27.59375 7.515625 
L 36.8125 7.515625 
L 36.8125 0 
L 27.59375 0 
Q 17.1875 0 13.234375 3.875 
Q 9.28125 7.765625 9.28125 18.015625 
L 9.28125 47.703125 
L 2.6875 47.703125 
L 2.6875 54.6875 
L 9.28125 54.6875 
L 9.28125 70.21875 
z
" id="DejaVuSans-116"/>
       <path d="M 41.109375 46.296875 
Q 39.59375 47.171875 37.8125 47.578125 
Q 36.03125 48 33.890625 48 
Q 26.265625 48 22.1875 43.046875 
Q 18.109375 38.09375 18.109375 28.8125 
L 18.109375 0 
L 9.078125 0 
L 9.078125 54.6875 
L 18.109375 54.6875 
L 18.109375 46.1875 
Q 20.953125 51.171875 25.484375 53.578125 
Q 30.03125 56 36.53125 56 
Q 37.453125 56 38.578125 55.875 
Q 39.703125 55.765625 41.0625 55.515625 
z
" id="DejaVuSans-114"/>
       <path d="M 34.28125 27.484375 
Q 23.390625 27.484375 19.1875 25 
Q 14.984375 22.515625 14.984375 16.5 
Q 14.984375 11.71875 18.140625 8.90625 
Q 21.296875 6.109375 26.703125 6.109375 
Q 34.1875 6.109375 38.703125 11.40625 
Q 43.21875 16.703125 43.21875 25.484375 
L 43.21875 27.484375 
z
M 52.203125 31.203125 
L 52.203125 0 
L 43.21875 0 
L 43.21875 8.296875 
Q 40.140625 3.328125 35.546875 0.953125 
Q 30.953125 -1.421875 24.3125 -1.421875 
Q 15.921875 -1.421875 10.953125 3.296875 
Q 6 8.015625 6 15.921875 
Q 6 25.140625 12.171875 29.828125 
Q 18.359375 34.515625 30.609375 34.515625 
L 43.21875 34.515625 
L 43.21875 35.40625 
Q 43.21875 41.609375 39.140625 45 
Q 35.0625 48.390625 27.6875 48.390625 
Q 23 48.390625 18.546875 47.265625 
Q 14.109375 46.140625 10.015625 43.890625 
L 10.015625 52.203125 
Q 14.9375 54.109375 19.578125 55.046875 
Q 24.21875 56 28.609375 56 
Q 40.484375 56 46.34375 49.84375 
Q 52.203125 43.703125 52.203125 31.203125 
z
" id="DejaVuSans-97"/>
       <path d="M 9.421875 54.6875 
L 18.40625 54.6875 
L 18.40625 0 
L 9.421875 0 
z
M 9.421875 75.984375 
L 18.40625 75.984375 
L 18.40625 64.59375 
L 9.421875 64.59375 
z
" id="DejaVuSans-105"/>
       <path d="M 54.890625 33.015625 
L 54.890625 0 
L 45.90625 0 
L 45.90625 32.71875 
Q 45.90625 40.484375 42.875 44.328125 
Q 39.84375 48.1875 33.796875 48.1875 
Q 26.515625 48.1875 22.3125 43.546875 
Q 18.109375 38.921875 18.109375 30.90625 
L 18.109375 0 
L 9.078125 0 
L 9.078125 54.6875 
L 18.109375 54.6875 
L 18.109375 46.1875 
Q 21.34375 51.125 25.703125 53.5625 
Q 30.078125 56 35.796875 56 
Q 45.21875 56 50.046875 50.171875 
Q 54.890625 44.34375 54.890625 33.015625 
z
" id="DejaVuSans-110"/>
      </defs>
      <use xlink:href="#DejaVuSans-116"/>
      <use x="39.208984" xlink:href="#DejaVuSans-114"/>
      <use x="80.322266" xlink:href="#DejaVuSans-97"/>
      <use x="141.601562" xlink:href="#DejaVuSans-105"/>
      <use x="169.384766" xlink:href="#DejaVuSans-110"/>
     </g>
    </g>
    <g id="line2d_22">
     <path d="M 295.0875 34.976562 
L 315.0875 34.976562 
" style="fill:none;stroke:#0000ff;stroke-linecap:square;stroke-width:3;"/>
    </g>
    <g id="line2d_23"/>
    <g id="text_19">
     <!-- val -->
     <g transform="translate(323.0875 38.476562)scale(0.1 -0.1)">
      <defs>
       <path d="M 2.984375 54.6875 
L 12.5 54.6875 
L 29.59375 8.796875 
L 46.6875 54.6875 
L 56.203125 54.6875 
L 35.6875 0 
L 23.484375 0 
z
" id="DejaVuSans-118"/>
       <path d="M 9.421875 75.984375 
L 18.40625 75.984375 
L 18.40625 0 
L 9.421875 0 
z
" id="DejaVuSans-108"/>
      </defs>
      <use xlink:href="#DejaVuSans-118"/>
      <use x="59.179688" xlink:href="#DejaVuSans-97"/>
      <use x="120.458984" xlink:href="#DejaVuSans-108"/>
     </g>
    </g>
   </g>
  </g>
 </g>
 <defs>
  <clipPath id="pdd8e4cfc80">
   <rect height="217.44" width="334.8" x="20.5625" y="7.2"/>
  </clipPath>
 </defs>
</svg>
