<?xml version="1.0" encoding="utf-8" standalone="no"?>
<!DOCTYPE svg PUBLIC "-//W3C//DTD SVG 1.1//EN"
  "http://www.w3.org/Graphics/SVG/1.1/DTD/svg11.dtd">
<!-- Created with matplotlib (https://matplotlib.org/) -->
<svg height="357.238125pt" version="1.1" viewBox="0 0 601.665625 357.238125" width="601.665625pt" xmlns="http://www.w3.org/2000/svg" xmlns:xlink="http://www.w3.org/1999/xlink">
 <metadata>
  <rdf:RDF xmlns:cc="http://creativecommons.org/ns#" xmlns:dc="http://purl.org/dc/elements/1.1/" xmlns:rdf="http://www.w3.org/1999/02/22-rdf-syntax-ns#">
   <cc:Work>
    <dc:type rdf:resource="http://purl.org/dc/dcmitype/StillImage"/>
    <dc:date>2020-10-27T19:39:59.963583</dc:date>
    <dc:format>image/svg+xml</dc:format>
    <dc:creator>
     <cc:Agent>
      <dc:title>Matplotlib v3.3.2, https://matplotlib.org/</dc:title>
     </cc:Agent>
    </dc:creator>
   </cc:Work>
  </rdf:RDF>
 </metadata>
 <defs>
  <style type="text/css">*{stroke-linecap:butt;stroke-linejoin:round;}</style>
 </defs>
 <g id="figure_1">
  <g id="patch_1">
   <path d="M 0 357.238125 
L 601.665625 357.238125 
L 601.665625 0 
L 0 0 
z
" style="fill:none;"/>
  </g>
  <g id="axes_1">
   <g id="patch_2">
    <path d="M 36.465625 333.36 
L 594.465625 333.36 
L 594.465625 7.2 
L 36.465625 7.2 
z
" style="fill:#ffffff;"/>
   </g>
   <g id="matplotlib.axis_1">
    <g id="xtick_1">
     <g id="line2d_1">
      <defs>
       <path d="M 0 0 
L 0 3.5 
" id="mf152833c0d" style="stroke:#000000;stroke-width:0.8;"/>
      </defs>
      <g>
       <use style="stroke:#000000;stroke-width:0.8;" x="61.829261" xlink:href="#mf152833c0d" y="333.36"/>
      </g>
     </g>
     <g id="text_1">
      <!-- 0 -->
      <g transform="translate(58.648011 347.958438)scale(0.1 -0.1)">
       <defs>
        <path d="M 31.78125 66.40625 
Q 24.171875 66.40625 20.328125 58.90625 
Q 16.5 51.421875 16.5 36.375 
Q 16.5 21.390625 20.328125 13.890625 
Q 24.171875 6.390625 31.78125 6.390625 
Q 39.453125 6.390625 43.28125 13.890625 
Q 47.125 21.390625 47.125 36.375 
Q 47.125 51.421875 43.28125 58.90625 
Q 39.453125 66.40625 31.78125 66.40625 
z
M 31.78125 74.21875 
Q 44.046875 74.21875 50.515625 64.515625 
Q 56.984375 54.828125 56.984375 36.375 
Q 56.984375 17.96875 50.515625 8.265625 
Q 44.046875 -1.421875 31.78125 -1.421875 
Q 19.53125 -1.421875 13.0625 8.265625 
Q 6.59375 17.96875 6.59375 36.375 
Q 6.59375 54.828125 13.0625 64.515625 
Q 19.53125 74.21875 31.78125 74.21875 
z
" id="DejaVuSans-48"/>
       </defs>
       <use xlink:href="#DejaVuSans-48"/>
      </g>
     </g>
    </g>
    <g id="xtick_2">
     <g id="line2d_2">
      <g>
       <use style="stroke:#000000;stroke-width:0.8;" x="163.385363" xlink:href="#mf152833c0d" y="333.36"/>
      </g>
     </g>
     <g id="text_2">
      <!-- 200 -->
      <g transform="translate(153.841613 347.958438)scale(0.1 -0.1)">
       <defs>
        <path d="M 19.1875 8.296875 
L 53.609375 8.296875 
L 53.609375 0 
L 7.328125 0 
L 7.328125 8.296875 
Q 12.9375 14.109375 22.625 23.890625 
Q 32.328125 33.6875 34.8125 36.53125 
Q 39.546875 41.84375 41.421875 45.53125 
Q 43.3125 49.21875 43.3125 52.78125 
Q 43.3125 58.59375 39.234375 62.25 
Q 35.15625 65.921875 28.609375 65.921875 
Q 23.96875 65.921875 18.8125 64.3125 
Q 13.671875 62.703125 7.8125 59.421875 
L 7.8125 69.390625 
Q 13.765625 71.78125 18.9375 73 
Q 24.125 74.21875 28.421875 74.21875 
Q 39.75 74.21875 46.484375 68.546875 
Q 53.21875 62.890625 53.21875 53.421875 
Q 53.21875 48.921875 51.53125 44.890625 
Q 49.859375 40.875 45.40625 35.40625 
Q 44.1875 33.984375 37.640625 27.21875 
Q 31.109375 20.453125 19.1875 8.296875 
z
" id="DejaVuSans-50"/>
       </defs>
       <use xlink:href="#DejaVuSans-50"/>
       <use x="63.623047" xlink:href="#DejaVuSans-48"/>
       <use x="127.246094" xlink:href="#DejaVuSans-48"/>
      </g>
     </g>
    </g>
    <g id="xtick_3">
     <g id="line2d_3">
      <g>
       <use style="stroke:#000000;stroke-width:0.8;" x="264.941464" xlink:href="#mf152833c0d" y="333.36"/>
      </g>
     </g>
     <g id="text_3">
      <!-- 400 -->
      <g transform="translate(255.397714 347.958438)scale(0.1 -0.1)">
       <defs>
        <path d="M 37.796875 64.3125 
L 12.890625 25.390625 
L 37.796875 25.390625 
z
M 35.203125 72.90625 
L 47.609375 72.90625 
L 47.609375 25.390625 
L 58.015625 25.390625 
L 58.015625 17.1875 
L 47.609375 17.1875 
L 47.609375 0 
L 37.796875 0 
L 37.796875 17.1875 
L 4.890625 17.1875 
L 4.890625 26.703125 
z
" id="DejaVuSans-52"/>
       </defs>
       <use xlink:href="#DejaVuSans-52"/>
       <use x="63.623047" xlink:href="#DejaVuSans-48"/>
       <use x="127.246094" xlink:href="#DejaVuSans-48"/>
      </g>
     </g>
    </g>
    <g id="xtick_4">
     <g id="line2d_4">
      <g>
       <use style="stroke:#000000;stroke-width:0.8;" x="366.497566" xlink:href="#mf152833c0d" y="333.36"/>
      </g>
     </g>
     <g id="text_4">
      <!-- 600 -->
      <g transform="translate(356.953816 347.958438)scale(0.1 -0.1)">
       <defs>
        <path d="M 33.015625 40.375 
Q 26.375 40.375 22.484375 35.828125 
Q 18.609375 31.296875 18.609375 23.390625 
Q 18.609375 15.53125 22.484375 10.953125 
Q 26.375 6.390625 33.015625 6.390625 
Q 39.65625 6.390625 43.53125 10.953125 
Q 47.40625 15.53125 47.40625 23.390625 
Q 47.40625 31.296875 43.53125 35.828125 
Q 39.65625 40.375 33.015625 40.375 
z
M 52.59375 71.296875 
L 52.59375 62.3125 
Q 48.875 64.0625 45.09375 64.984375 
Q 41.3125 65.921875 37.59375 65.921875 
Q 27.828125 65.921875 22.671875 59.328125 
Q 17.53125 52.734375 16.796875 39.40625 
Q 19.671875 43.65625 24.015625 45.921875 
Q 28.375 48.1875 33.59375 48.1875 
Q 44.578125 48.1875 50.953125 41.515625 
Q 57.328125 34.859375 57.328125 23.390625 
Q 57.328125 12.15625 50.6875 5.359375 
Q 44.046875 -1.421875 33.015625 -1.421875 
Q 20.359375 -1.421875 13.671875 8.265625 
Q 6.984375 17.96875 6.984375 36.375 
Q 6.984375 53.65625 15.1875 63.9375 
Q 23.390625 74.21875 37.203125 74.21875 
Q 40.921875 74.21875 44.703125 73.484375 
Q 48.484375 72.75 52.59375 71.296875 
z
" id="DejaVuSans-54"/>
       </defs>
       <use xlink:href="#DejaVuSans-54"/>
       <use x="63.623047" xlink:href="#DejaVuSans-48"/>
       <use x="127.246094" xlink:href="#DejaVuSans-48"/>
      </g>
     </g>
    </g>
    <g id="xtick_5">
     <g id="line2d_5">
      <g>
       <use style="stroke:#000000;stroke-width:0.8;" x="468.053668" xlink:href="#mf152833c0d" y="333.36"/>
      </g>
     </g>
     <g id="text_5">
      <!-- 800 -->
      <g transform="translate(458.509918 347.958438)scale(0.1 -0.1)">
       <defs>
        <path d="M 31.78125 34.625 
Q 24.75 34.625 20.71875 30.859375 
Q 16.703125 27.09375 16.703125 20.515625 
Q 16.703125 13.921875 20.71875 10.15625 
Q 24.75 6.390625 31.78125 6.390625 
Q 38.8125 6.390625 42.859375 10.171875 
Q 46.921875 13.96875 46.921875 20.515625 
Q 46.921875 27.09375 42.890625 30.859375 
Q 38.875 34.625 31.78125 34.625 
z
M 21.921875 38.8125 
Q 15.578125 40.375 12.03125 44.71875 
Q 8.5 49.078125 8.5 55.328125 
Q 8.5 64.0625 14.71875 69.140625 
Q 20.953125 74.21875 31.78125 74.21875 
Q 42.671875 74.21875 48.875 69.140625 
Q 55.078125 64.0625 55.078125 55.328125 
Q 55.078125 49.078125 51.53125 44.71875 
Q 48 40.375 41.703125 38.8125 
Q 48.828125 37.15625 52.796875 32.3125 
Q 56.78125 27.484375 56.78125 20.515625 
Q 56.78125 9.90625 50.3125 4.234375 
Q 43.84375 -1.421875 31.78125 -1.421875 
Q 19.734375 -1.421875 13.25 4.234375 
Q 6.78125 9.90625 6.78125 20.515625 
Q 6.78125 27.484375 10.78125 32.3125 
Q 14.796875 37.15625 21.921875 38.8125 
z
M 18.3125 54.390625 
Q 18.3125 48.734375 21.84375 45.5625 
Q 25.390625 42.390625 31.78125 42.390625 
Q 38.140625 42.390625 41.71875 45.5625 
Q 45.3125 48.734375 45.3125 54.390625 
Q 45.3125 60.0625 41.71875 63.234375 
Q 38.140625 66.40625 31.78125 66.40625 
Q 25.390625 66.40625 21.84375 63.234375 
Q 18.3125 60.0625 18.3125 54.390625 
z
" id="DejaVuSans-56"/>
       </defs>
       <use xlink:href="#DejaVuSans-56"/>
       <use x="63.623047" xlink:href="#DejaVuSans-48"/>
       <use x="127.246094" xlink:href="#DejaVuSans-48"/>
      </g>
     </g>
    </g>
    <g id="xtick_6">
     <g id="line2d_6">
      <g>
       <use style="stroke:#000000;stroke-width:0.8;" x="569.609769" xlink:href="#mf152833c0d" y="333.36"/>
      </g>
     </g>
     <g id="text_6">
      <!-- 1000 -->
      <g transform="translate(556.884769 347.958438)scale(0.1 -0.1)">
       <defs>
        <path d="M 12.40625 8.296875 
L 28.515625 8.296875 
L 28.515625 63.921875 
L 10.984375 60.40625 
L 10.984375 69.390625 
L 28.421875 72.90625 
L 38.28125 72.90625 
L 38.28125 8.296875 
L 54.390625 8.296875 
L 54.390625 0 
L 12.40625 0 
z
" id="DejaVuSans-49"/>
       </defs>
       <use xlink:href="#DejaVuSans-49"/>
       <use x="63.623047" xlink:href="#DejaVuSans-48"/>
       <use x="127.246094" xlink:href="#DejaVuSans-48"/>
       <use x="190.869141" xlink:href="#DejaVuSans-48"/>
      </g>
     </g>
    </g>
   </g>
   <g id="matplotlib.axis_2">
    <g id="ytick_1">
     <g id="line2d_7">
      <defs>
       <path d="M 0 0 
L -3.5 0 
" id="mb0f19dacd9" style="stroke:#000000;stroke-width:0.8;"/>
      </defs>
      <g>
       <use style="stroke:#000000;stroke-width:0.8;" x="36.465625" xlink:href="#mb0f19dacd9" y="303.346465"/>
      </g>
     </g>
     <g id="text_7">
      <!-- 0.97 -->
      <g transform="translate(7.2 307.145684)scale(0.1 -0.1)">
       <defs>
        <path d="M 10.6875 12.40625 
L 21 12.40625 
L 21 0 
L 10.6875 0 
z
" id="DejaVuSans-46"/>
        <path d="M 10.984375 1.515625 
L 10.984375 10.5 
Q 14.703125 8.734375 18.5 7.8125 
Q 22.3125 6.890625 25.984375 6.890625 
Q 35.75 6.890625 40.890625 13.453125 
Q 46.046875 20.015625 46.78125 33.40625 
Q 43.953125 29.203125 39.59375 26.953125 
Q 35.25 24.703125 29.984375 24.703125 
Q 19.046875 24.703125 12.671875 31.3125 
Q 6.296875 37.9375 6.296875 49.421875 
Q 6.296875 60.640625 12.9375 67.421875 
Q 19.578125 74.21875 30.609375 74.21875 
Q 43.265625 74.21875 49.921875 64.515625 
Q 56.59375 54.828125 56.59375 36.375 
Q 56.59375 19.140625 48.40625 8.859375 
Q 40.234375 -1.421875 26.421875 -1.421875 
Q 22.703125 -1.421875 18.890625 -0.6875 
Q 15.09375 0.046875 10.984375 1.515625 
z
M 30.609375 32.421875 
Q 37.25 32.421875 41.125 36.953125 
Q 45.015625 41.5 45.015625 49.421875 
Q 45.015625 57.28125 41.125 61.84375 
Q 37.25 66.40625 30.609375 66.40625 
Q 23.96875 66.40625 20.09375 61.84375 
Q 16.21875 57.28125 16.21875 49.421875 
Q 16.21875 41.5 20.09375 36.953125 
Q 23.96875 32.421875 30.609375 32.421875 
z
" id="DejaVuSans-57"/>
        <path d="M 8.203125 72.90625 
L 55.078125 72.90625 
L 55.078125 68.703125 
L 28.609375 0 
L 18.3125 0 
L 43.21875 64.59375 
L 8.203125 64.59375 
z
" id="DejaVuSans-55"/>
       </defs>
       <use xlink:href="#DejaVuSans-48"/>
       <use x="63.623047" xlink:href="#DejaVuSans-46"/>
       <use x="95.410156" xlink:href="#DejaVuSans-57"/>
       <use x="159.033203" xlink:href="#DejaVuSans-55"/>
      </g>
     </g>
    </g>
    <g id="ytick_2">
     <g id="line2d_8">
      <g>
       <use style="stroke:#000000;stroke-width:0.8;" x="36.465625" xlink:href="#mb0f19dacd9" y="254.811884"/>
      </g>
     </g>
     <g id="text_8">
      <!-- 0.98 -->
      <g transform="translate(7.2 258.611103)scale(0.1 -0.1)">
       <use xlink:href="#DejaVuSans-48"/>
       <use x="63.623047" xlink:href="#DejaVuSans-46"/>
       <use x="95.410156" xlink:href="#DejaVuSans-57"/>
       <use x="159.033203" xlink:href="#DejaVuSans-56"/>
      </g>
     </g>
    </g>
    <g id="ytick_3">
     <g id="line2d_9">
      <g>
       <use style="stroke:#000000;stroke-width:0.8;" x="36.465625" xlink:href="#mb0f19dacd9" y="206.277303"/>
      </g>
     </g>
     <g id="text_9">
      <!-- 0.99 -->
      <g transform="translate(7.2 210.076522)scale(0.1 -0.1)">
       <use xlink:href="#DejaVuSans-48"/>
       <use x="63.623047" xlink:href="#DejaVuSans-46"/>
       <use x="95.410156" xlink:href="#DejaVuSans-57"/>
       <use x="159.033203" xlink:href="#DejaVuSans-57"/>
      </g>
     </g>
    </g>
    <g id="ytick_4">
     <g id="line2d_10">
      <g>
       <use style="stroke:#000000;stroke-width:0.8;" x="36.465625" xlink:href="#mb0f19dacd9" y="157.742722"/>
      </g>
     </g>
     <g id="text_10">
      <!-- 1.00 -->
      <g transform="translate(7.2 161.54194)scale(0.1 -0.1)">
       <use xlink:href="#DejaVuSans-49"/>
       <use x="63.623047" xlink:href="#DejaVuSans-46"/>
       <use x="95.410156" xlink:href="#DejaVuSans-48"/>
       <use x="159.033203" xlink:href="#DejaVuSans-48"/>
      </g>
     </g>
    </g>
    <g id="ytick_5">
     <g id="line2d_11">
      <g>
       <use style="stroke:#000000;stroke-width:0.8;" x="36.465625" xlink:href="#mb0f19dacd9" y="109.20814"/>
      </g>
     </g>
     <g id="text_11">
      <!-- 1.01 -->
      <g transform="translate(7.2 113.007359)scale(0.1 -0.1)">
       <use xlink:href="#DejaVuSans-49"/>
       <use x="63.623047" xlink:href="#DejaVuSans-46"/>
       <use x="95.410156" xlink:href="#DejaVuSans-48"/>
       <use x="159.033203" xlink:href="#DejaVuSans-49"/>
      </g>
     </g>
    </g>
    <g id="ytick_6">
     <g id="line2d_12">
      <g>
       <use style="stroke:#000000;stroke-width:0.8;" x="36.465625" xlink:href="#mb0f19dacd9" y="60.673559"/>
      </g>
     </g>
     <g id="text_12">
      <!-- 1.02 -->
      <g transform="translate(7.2 64.472778)scale(0.1 -0.1)">
       <use xlink:href="#DejaVuSans-49"/>
       <use x="63.623047" xlink:href="#DejaVuSans-46"/>
       <use x="95.410156" xlink:href="#DejaVuSans-48"/>
       <use x="159.033203" xlink:href="#DejaVuSans-50"/>
      </g>
     </g>
    </g>
    <g id="ytick_7">
     <g id="line2d_13">
      <g>
       <use style="stroke:#000000;stroke-width:0.8;" x="36.465625" xlink:href="#mb0f19dacd9" y="12.138978"/>
      </g>
     </g>
     <g id="text_13">
      <!-- 1.03 -->
      <g transform="translate(7.2 15.938196)scale(0.1 -0.1)">
       <defs>
        <path d="M 40.578125 39.3125 
Q 47.65625 37.796875 51.625 33 
Q 55.609375 28.21875 55.609375 21.1875 
Q 55.609375 10.40625 48.1875 4.484375 
Q 40.765625 -1.421875 27.09375 -1.421875 
Q 22.515625 -1.421875 17.65625 -0.515625 
Q 12.796875 0.390625 7.625 2.203125 
L 7.625 11.71875 
Q 11.71875 9.328125 16.59375 8.109375 
Q 21.484375 6.890625 26.8125 6.890625 
Q 36.078125 6.890625 40.9375 10.546875 
Q 45.796875 14.203125 45.796875 21.1875 
Q 45.796875 27.640625 41.28125 31.265625 
Q 36.765625 34.90625 28.71875 34.90625 
L 20.21875 34.90625 
L 20.21875 43.015625 
L 29.109375 43.015625 
Q 36.375 43.015625 40.234375 45.921875 
Q 44.09375 48.828125 44.09375 54.296875 
Q 44.09375 59.90625 40.109375 62.90625 
Q 36.140625 65.921875 28.71875 65.921875 
Q 24.65625 65.921875 20.015625 65.03125 
Q 15.375 64.15625 9.8125 62.3125 
L 9.8125 71.09375 
Q 15.4375 72.65625 20.34375 73.4375 
Q 25.25 74.21875 29.59375 74.21875 
Q 40.828125 74.21875 47.359375 69.109375 
Q 53.90625 64.015625 53.90625 55.328125 
Q 53.90625 49.265625 50.4375 45.09375 
Q 46.96875 40.921875 40.578125 39.3125 
z
" id="DejaVuSans-51"/>
       </defs>
       <use xlink:href="#DejaVuSans-49"/>
       <use x="63.623047" xlink:href="#DejaVuSans-46"/>
       <use x="95.410156" xlink:href="#DejaVuSans-48"/>
       <use x="159.033203" xlink:href="#DejaVuSans-51"/>
      </g>
     </g>
    </g>
   </g>
   <g id="line2d_14">
    <path clip-path="url(#pd0bd99de28)" d="M 61.829261 303.315432 
L 62.337042 286.849045 
L 62.844822 222.023206 
L 63.352603 306.69079 
L 63.860383 309.013972 
L 64.368164 308.044137 
L 64.875944 277.975366 
L 65.383725 267.708 
L 65.891505 318.435198 
L 66.399286 237.311038 
L 66.907066 293.427963 
L 67.414847 307.184842 
L 67.922627 242.730072 
L 68.430408 219.090481 
L 68.938188 317.368439 
L 69.445969 301.800627 
L 69.953749 298.723008 
L 70.46153 261.785109 
L 70.969311 294.561853 
L 71.477091 293.178158 
L 71.984872 289.446718 
L 72.492652 214.093843 
L 73.000433 311.19978 
L 73.508213 310.940382 
L 74.015994 302.205854 
L 74.523774 187.250999 
L 75.031555 173.666444 
L 75.539335 296.405164 
L 76.047116 309.20712 
L 76.554896 179.786129 
L 77.062677 310.573803 
L 77.570457 290.832339 
L 78.078238 276.674002 
L 78.586018 257.03317 
L 79.093799 313.509996 
L 79.601579 267.5166 
L 80.10936 179.398995 
L 80.61714 317.714891 
L 81.124921 300.082494 
L 81.632701 289.021308 
L 82.140482 266.739593 
L 82.648262 187.085217 
L 83.156043 284.797907 
L 83.663823 312.508485 
L 84.171604 257.049926 
L 84.679384 296.626203 
L 85.187165 247.290933 
L 85.694945 303.624967 
L 86.202726 281.131332 
L 86.710506 317.382797 
L 87.218287 296.949154 
L 87.726067 263.710134 
L 88.233848 290.601539 
L 88.741628 289.288921 
L 89.249409 311.847612 
L 89.757189 303.994049 
L 90.26497 299.856947 
L 90.77275 279.76896 
L 91.280531 299.323523 
L 91.788311 307.051859 
L 92.296092 301.756593 
L 92.803872 313.358792 
L 93.311653 288.623425 
L 93.819433 285.684177 
L 94.327214 253.100799 
L 94.834994 291.465492 
L 95.342775 234.959059 
L 95.850555 305.307881 
L 96.358336 307.247448 
L 96.866116 296.136239 
L 97.373897 211.425751 
L 97.881677 267.196612 
L 98.389458 229.648075 
L 98.897238 290.043418 
L 99.405019 309.24412 
L 99.912799 300.736645 
L 100.42058 289.589414 
L 100.92836 304.922663 
L 101.436141 222.866401 
L 101.943921 281.273219 
L 102.451702 283.826752 
L 102.959482 311.868717 
L 103.467263 237.134125 
L 103.975044 180.160259 
L 104.482824 205.812692 
L 104.990605 293.981401 
L 105.498385 305.477583 
L 106.006166 309.139466 
L 106.513946 248.190338 
L 107.021727 301.391028 
L 107.529507 309.992277 
L 108.037288 264.139635 
L 108.545068 255.455497 
L 109.052849 233.674499 
L 109.560629 316.933045 
L 110.06841 316.027833 
L 110.57619 305.408344 
L 111.083971 313.449438 
L 111.591751 315.609347 
L 112.607312 294.628792 
L 113.115093 311.180043 
L 113.622873 223.112007 
L 114.130654 251.621498 
L 114.638434 306.278053 
L 115.146215 248.041825 
L 115.653995 309.111592 
L 116.161776 300.323067 
L 116.669556 109.803596 
L 117.177337 252.942073 
L 117.685117 273.588797 
L 118.192898 306.527394 
L 118.700678 172.681473 
L 119.208459 255.607023 
L 119.716239 296.927985 
L 120.22402 225.89552 
L 120.7318 304.971321 
L 121.239581 315.433845 
L 121.747361 235.475189 
L 122.255142 298.995634 
L 122.762922 295.870146 
L 123.270703 311.005888 
L 123.778483 300.958185 
L 124.286264 297.488435 
L 124.794044 279.140074 
L 125.301825 280.621813 
L 125.809605 302.059074 
L 126.317386 315.243614 
L 126.825166 298.884726 
L 127.332947 298.258182 
L 127.840727 304.331258 
L 128.348508 291.691742 
L 128.856288 292.838077 
L 129.364069 305.827293 
L 129.871849 308.337144 
L 130.37963 292.621334 
L 130.88741 288.845993 
L 131.395191 309.772612 
L 131.902971 215.433582 
L 132.410752 317.702767 
L 132.918532 282.054282 
L 133.426313 318.198747 
L 133.934093 250.858505 
L 134.441874 306.590477 
L 134.949654 279.015699 
L 135.457435 293.065182 
L 135.965215 287.391507 
L 136.472996 316.218903 
L 136.980777 302.582161 
L 137.488557 228.628891 
L 137.996338 280.127981 
L 138.504118 306.038152 
L 139.011899 283.005042 
L 139.519679 303.313843 
L 140.02746 312.140767 
L 140.53524 231.714016 
L 141.043021 309.618595 
L 141.550801 243.561234 
L 142.058582 243.402774 
L 142.566362 306.516018 
L 143.074143 286.420378 
L 143.581923 271.905998 
L 144.089704 316.880613 
L 144.597484 275.747743 
L 145.105265 299.292165 
L 145.613045 284.218865 
L 146.120826 312.96816 
L 146.628606 310.214198 
L 147.136387 287.949287 
L 147.644167 285.161154 
L 148.151948 267.348358 
L 148.659728 265.697898 
L 149.167509 284.099829 
L 149.675289 261.654 
L 150.18307 246.279099 
L 150.69085 313.476318 
L 151.198631 298.22679 
L 151.706411 148.510865 
L 152.214192 245.773868 
L 152.721972 296.971863 
L 153.229753 308.18823 
L 153.737533 261.109255 
L 154.245314 270.435833 
L 154.753094 292.776625 
L 155.260875 305.864238 
L 155.768655 273.27929 
L 156.276436 308.748905 
L 157.291997 274.016439 
L 157.799777 304.603776 
L 158.307558 268.287616 
L 158.815338 276.142468 
L 159.323119 292.469283 
L 159.830899 295.685406 
L 160.33868 299.935331 
L 160.84646 268.169688 
L 161.354241 283.51356 
L 161.862021 310.776807 
L 162.369802 294.531157 
L 162.877582 306.189599 
L 163.385363 295.463065 
L 163.893143 289.040034 
L 164.908704 304.145418 
L 165.416485 221.006979 
L 165.924265 306.116385 
L 166.432046 297.55364 
L 166.939826 297.870651 
L 167.447607 258.427144 
L 167.955387 310.12931 
L 168.970949 305.014225 
L 169.98651 262.558015 
L 170.49429 295.086466 
L 171.002071 314.719938 
L 171.509851 309.191536 
L 172.017632 283.875225 
L 172.525412 314.446768 
L 173.033193 277.771998 
L 173.540973 309.424126 
L 174.048754 274.094549 
L 174.556534 305.451152 
L 175.064315 268.394836 
L 175.572095 309.66406 
L 176.079876 284.513647 
L 176.587656 281.225307 
L 177.095437 290.619309 
L 177.603217 297.575016 
L 178.110998 310.373353 
L 178.618778 317.46003 
L 179.126559 313.648443 
L 179.634339 312.547944 
L 180.14212 261.259249 
L 180.6499 285.78636 
L 181.157681 253.327657 
L 181.665461 272.603564 
L 182.173242 313.512411 
L 182.681022 294.360468 
L 183.188803 299.251191 
L 183.696583 269.099937 
L 184.204364 313.503986 
L 184.712144 286.272335 
L 185.219925 292.36887 
L 185.727705 303.864554 
L 186.235486 293.077229 
L 186.743266 292.136149 
L 187.251047 298.80946 
L 187.758827 282.585814 
L 188.266608 304.41858 
L 188.774388 199.210557 
L 189.282169 311.410394 
L 189.789949 290.451162 
L 190.80551 318.277045 
L 191.313291 307.191009 
L 191.821071 117.322176 
L 192.328852 316.869748 
L 192.836632 291.589387 
L 193.344413 165.36704 
L 193.852193 244.987023 
L 194.359974 302.778317 
L 194.867754 257.70197 
L 195.375535 274.649316 
L 195.883315 268.035812 
L 196.391096 310.125081 
L 196.898876 317.868484 
L 197.914437 246.643335 
L 198.422218 291.503118 
L 198.929998 260.498772 
L 199.437779 315.895601 
L 199.945559 215.494633 
L 200.45334 290.429676 
L 200.96112 211.360368 
L 201.468901 312.370497 
L 201.976682 282.890778 
L 202.484462 302.314129 
L 202.992243 291.332753 
L 203.500023 202.204925 
L 204.007804 304.55452 
L 204.515584 243.723401 
L 205.023365 291.394864 
L 205.531145 306.756909 
L 206.038926 301.380738 
L 206.546706 310.377643 
L 207.054487 198.058869 
L 207.562267 239.735678 
L 208.070048 317.339914 
L 208.577828 291.004839 
L 209.085609 312.597009 
L 209.593389 297.223819 
L 210.10117 315.79232 
L 210.60895 284.421868 
L 211.116731 297.497506 
L 211.624511 205.506591 
L 212.132292 306.118728 
L 212.640072 311.178851 
L 213.147853 306.795799 
L 213.655633 282.649104 
L 214.163414 290.68157 
L 214.671194 288.473988 
L 215.178975 315.267142 
L 215.686755 284.07634 
L 216.194536 309.189698 
L 216.702316 307.289926 
L 217.210097 291.774311 
L 217.717877 311.390494 
L 218.225658 317.006629 
L 218.733438 308.569479 
L 219.241219 305.359071 
L 219.748999 263.642932 
L 220.25678 306.648878 
L 220.76456 224.636892 
L 221.272341 277.75698 
L 221.780121 306.960991 
L 222.287902 313.177415 
L 222.795682 316.71059 
L 223.303463 316.425182 
L 223.811243 236.115867 
L 224.319024 304.444654 
L 224.826804 317.8309 
L 225.334585 283.764638 
L 225.842365 311.315401 
L 226.350146 317.16517 
L 226.857926 298.737991 
L 227.365707 256.533222 
L 227.873487 253.105253 
L 228.381268 304.933085 
L 228.889048 268.217543 
L 229.396829 312.546434 
L 229.904609 310.383131 
L 230.41239 314.166394 
L 230.92017 246.762325 
L 231.427951 282.354887 
L 231.935731 170.935001 
L 232.443512 300.205354 
L 232.951292 289.423186 
L 233.459073 253.677954 
L 233.966854 156.051387 
L 234.474634 315.836675 
L 234.982415 302.236383 
L 235.490195 257.86873 
L 235.997976 186.526332 
L 236.505756 295.493945 
L 237.013537 302.979794 
L 237.521317 253.314277 
L 238.029098 308.18466 
L 238.536878 254.237337 
L 239.044659 219.203291 
L 240.06022 311.316572 
L 240.568 264.594713 
L 241.075781 294.021289 
L 241.583561 304.113778 
L 242.091342 197.922089 
L 242.599122 195.847293 
L 243.106903 310.185541 
L 243.614683 306.376159 
L 244.122464 279.138981 
L 244.630244 317.506259 
L 245.138025 267.930976 
L 245.645805 308.040837 
L 246.153586 280.511294 
L 246.661366 290.700158 
L 247.169147 211.437001 
L 247.676927 316.756751 
L 248.184708 282.484414 
L 248.692488 311.680985 
L 249.708049 299.137318 
L 250.21583 316.534835 
L 250.72361 295.215089 
L 251.231391 313.529328 
L 251.739171 307.032355 
L 252.246952 295.623728 
L 252.754732 313.924471 
L 253.262513 279.287706 
L 253.770293 280.986368 
L 254.278074 250.569401 
L 254.785854 289.611975 
L 255.293635 250.790089 
L 255.801415 317.678226 
L 256.309196 306.413637 
L 256.816976 309.854012 
L 257.324757 277.096311 
L 257.832537 276.069115 
L 258.340318 217.103338 
L 258.848098 306.988125 
L 259.355879 294.973039 
L 259.863659 309.914442 
L 260.37144 189.049653 
L 260.87922 316.963433 
L 261.387001 229.982568 
L 261.894781 301.24067 
L 262.402562 290.514607 
L 262.910342 305.673705 
L 263.418123 298.159864 
L 263.925903 232.328508 
L 264.433684 300.643656 
L 264.941464 295.949393 
L 265.449245 309.148654 
L 265.957025 304.76874 
L 266.464806 316.186541 
L 266.972587 276.487935 
L 267.480367 312.169264 
L 267.988148 310.034302 
L 268.495928 249.602382 
L 269.003709 273.477905 
L 269.511489 287.964607 
L 270.01927 295.695092 
L 270.52705 293.708653 
L 271.034831 285.343168 
L 271.542611 310.551982 
L 272.050392 264.575172 
L 272.558172 316.953211 
L 273.065953 283.15975 
L 273.573733 293.381558 
L 274.589294 199.561513 
L 275.097075 216.626559 
L 275.604855 312.355536 
L 276.112636 316.05569 
L 276.620416 295.0877 
L 277.128197 311.970849 
L 277.635977 115.756059 
L 278.143758 296.567839 
L 278.651538 306.086491 
L 279.159319 308.765317 
L 279.667099 305.182363 
L 280.17488 315.040759 
L 280.68266 313.423989 
L 281.190441 288.454484 
L 281.698221 306.838266 
L 282.206002 304.613417 
L 282.713782 228.926024 
L 283.221563 216.213199 
L 283.729343 278.563585 
L 284.237124 261.327451 
L 284.744904 315.624476 
L 285.252685 209.739259 
L 285.760465 307.376823 
L 286.268246 306.934947 
L 286.776026 299.922591 
L 287.283807 272.851384 
L 287.791587 291.072967 
L 288.299368 313.619021 
L 288.807148 259.124867 
L 289.314929 294.119026 
L 289.822709 197.878119 
L 290.33049 189.359299 
L 290.83827 207.375965 
L 291.346051 271.742598 
L 291.853831 289.87318 
L 292.361612 205.945425 
L 292.869392 310.169711 
L 293.377173 285.510876 
L 293.884953 291.122922 
L 294.392734 22.025455 
L 294.900514 226.322254 
L 295.408295 281.978162 
L 295.916075 305.830706 
L 296.423856 287.789421 
L 296.931636 238.166689 
L 297.439417 291.854587 
L 297.947197 317.090334 
L 298.454978 276.293857 
L 298.962758 291.822624 
L 299.470539 313.68838 
L 299.97832 284.046871 
L 300.4861 299.333869 
L 300.993881 218.880851 
L 301.501661 260.981134 
L 302.009442 313.505678 
L 302.517222 255.357518 
L 303.025003 292.851559 
L 303.532783 313.53295 
L 304.040564 275.068574 
L 304.548344 306.189475 
L 305.056125 308.98876 
L 305.563905 204.364294 
L 306.071686 292.624458 
L 306.579466 288.551623 
L 307.087247 271.956516 
L 307.595027 306.997442 
L 308.102808 311.908256 
L 308.610588 312.813318 
L 309.118369 217.949895 
L 309.626149 298.659072 
L 310.13393 298.910883 
L 310.64171 310.386769 
L 311.149491 306.624541 
L 311.657271 289.847621 
L 312.165052 305.697925 
L 312.672832 294.066386 
L 313.180613 222.6503 
L 314.196174 298.376197 
L 314.703954 311.863348 
L 315.211735 299.180958 
L 315.719515 314.975487 
L 316.227296 275.045455 
L 316.735076 260.514333 
L 317.242857 290.576823 
L 317.750637 303.352121 
L 318.258418 227.33944 
L 318.766198 284.830926 
L 319.273979 221.945554 
L 319.781759 316.822086 
L 320.28954 311.596466 
L 320.79732 257.202873 
L 321.305101 306.564509 
L 321.812881 312.453767 
L 322.320662 195.150674 
L 322.828442 273.287328 
L 323.336223 272.251806 
L 323.844003 272.756898 
L 324.351784 282.146547 
L 324.859564 225.054095 
L 325.367345 262.756488 
L 325.875125 269.183926 
L 326.382906 293.094292 
L 326.890686 303.375064 
L 327.398467 306.393702 
L 327.906247 305.844349 
L 328.414028 233.153817 
L 328.921808 289.721101 
L 329.429589 192.709646 
L 329.937369 257.300652 
L 330.44515 255.487915 
L 330.95293 298.201758 
L 331.460711 265.575713 
L 331.968492 307.254426 
L 332.476272 281.392291 
L 332.984053 317.24242 
L 333.491833 238.841989 
L 333.999614 317.511711 
L 335.015175 285.266975 
L 335.522955 308.205081 
L 336.030736 248.143881 
L 336.538516 294.545252 
L 337.046297 206.068584 
L 337.554077 310.635274 
L 338.061858 300.553293 
L 338.569638 299.435105 
L 339.077419 303.940454 
L 339.585199 243.55512 
L 340.09298 255.9943 
L 340.60076 297.487978 
L 341.108541 268.237757 
L 341.616321 254.565854 
L 342.124102 268.203578 
L 342.631882 314.276659 
L 343.139663 142.604514 
L 343.647443 270.773882 
L 344.155224 291.651888 
L 344.663004 296.586221 
L 345.170785 256.8723 
L 345.678565 315.594069 
L 346.186346 280.334861 
L 346.694126 283.470185 
L 347.201907 277.936227 
L 347.709687 270.46359 
L 348.217468 247.601098 
L 348.725248 312.232746 
L 349.233029 306.648927 
L 349.740809 317.045596 
L 350.24859 298.872824 
L 350.75637 302.69165 
L 351.264151 277.399956 
L 351.771931 306.259312 
L 352.279712 298.005154 
L 352.787492 316.525179 
L 353.295273 278.959069 
L 353.803053 208.043799 
L 354.310834 279.673805 
L 354.818614 251.948341 
L 355.326395 304.039665 
L 355.834175 282.832192 
L 356.341956 308.787805 
L 356.849736 282.164852 
L 357.357517 226.080766 
L 357.865297 309.466593 
L 358.373078 294.067637 
L 358.880858 310.372487 
L 359.388639 178.898499 
L 359.896419 285.907503 
L 360.4042 228.440498 
L 360.91198 281.777957 
L 361.927541 229.473289 
L 362.435322 272.0135 
L 362.943102 262.116358 
L 363.450883 264.1169 
L 363.958663 219.413596 
L 364.466444 303.129273 
L 364.974225 223.741574 
L 365.482005 273.173986 
L 365.989786 237.24109 
L 366.497566 255.750907 
L 367.005347 284.129257 
L 367.513127 282.535608 
L 368.020908 295.750782 
L 368.528688 242.55893 
L 369.036469 299.703991 
L 370.05203 317.495626 
L 370.55981 317.815098 
L 371.067591 295.385031 
L 371.575371 280.665379 
L 372.083152 253.779534 
L 373.098713 307.259011 
L 373.606493 314.639462 
L 374.114274 286.830202 
L 374.622054 315.808238 
L 375.129835 306.182141 
L 375.637615 265.275589 
L 376.145396 316.924112 
L 376.653176 211.694913 
L 377.160957 308.690336 
L 377.668737 268.225772 
L 378.176518 315.266046 
L 378.684298 308.448283 
L 379.192079 207.880852 
L 379.699859 247.13602 
L 380.20764 306.183638 
L 380.71542 275.900328 
L 381.223201 275.322071 
L 381.730981 315.712522 
L 382.238762 262.081886 
L 382.746542 268.609642 
L 383.254323 289.953269 
L 383.762103 225.1369 
L 384.269884 293.407334 
L 384.777664 271.11902 
L 385.285445 279.078218 
L 385.793225 228.907298 
L 386.301006 258.559577 
L 386.808786 276.234571 
L 387.316567 306.311631 
L 387.824347 312.349171 
L 388.332128 285.798567 
L 388.839908 304.041303 
L 389.347689 314.5497 
L 389.855469 284.222591 
L 390.36325 272.201013 
L 390.87103 276.39524 
L 391.378811 271.316167 
L 391.886591 284.137791 
L 392.394372 306.947704 
L 392.902152 293.312836 
L 393.409933 302.074525 
L 393.917713 204.856963 
L 394.425494 297.460976 
L 394.933274 176.358028 
L 395.441055 275.474677 
L 395.948835 265.63615 
L 396.456616 289.08783 
L 396.964396 259.180652 
L 397.472177 314.067717 
L 397.979958 253.862495 
L 398.487738 297.800869 
L 398.995519 300.276401 
L 399.503299 254.350897 
L 400.01108 315.319154 
L 400.51886 306.608304 
L 401.026641 302.211977 
L 401.534421 294.703371 
L 402.042202 317.572776 
L 402.549982 224.575078 
L 403.057763 298.850188 
L 403.565543 286.081911 
L 404.073324 279.57356 
L 404.581104 258.359258 
L 405.088885 231.761189 
L 406.104446 299.120446 
L 406.612226 215.09696 
L 407.120007 282.215635 
L 407.627787 304.944876 
L 408.135568 312.720534 
L 408.643348 257.904444 
L 409.151129 306.89288 
L 409.658909 315.26379 
L 410.16669 302.766684 
L 410.67447 294.759192 
L 411.182251 306.420295 
L 411.690031 227.266751 
L 412.197812 288.434374 
L 412.705592 298.747107 
L 413.213373 246.342314 
L 413.721153 310.076604 
L 414.228934 313.690995 
L 414.736714 312.240045 
L 415.244495 317.427524 
L 415.752275 284.671783 
L 416.260056 182.334196 
L 416.767836 282.985912 
L 417.275617 301.399987 
L 417.783397 304.490374 
L 418.291178 298.563107 
L 418.798958 229.753444 
L 419.306739 309.443659 
L 419.814519 274.32873 
L 420.3223 299.585737 
L 420.83008 287.492874 
L 421.337861 316.084051 
L 421.845641 306.448962 
L 422.353422 224.948288 
L 422.861202 295.156443 
L 423.368983 290.065756 
L 423.876763 292.052477 
L 424.384544 274.176545 
L 424.892324 310.637288 
L 425.400105 262.903248 
L 425.907885 303.62707 
L 426.415666 267.353536 
L 426.923446 315.808759 
L 427.431227 289.711466 
L 427.939007 303.085843 
L 428.446788 293.555706 
L 428.954568 316.699073 
L 429.462349 308.342612 
L 429.97013 294.987112 
L 430.47791 307.042778 
L 430.985691 301.512765 
L 431.493471 266.643857 
L 432.001252 312.877693 
L 432.509032 315.950413 
L 433.016813 313.586458 
L 433.524593 277.294395 
L 434.032374 308.48657 
L 434.540154 193.142609 
L 435.047935 315.771923 
L 435.555715 288.733017 
L 436.063496 310.015146 
L 436.571276 277.417894 
L 437.079057 298.056603 
L 437.586837 267.394365 
L 438.094618 245.488266 
L 438.602398 298.20751 
L 439.110179 295.672997 
L 439.617959 263.881378 
L 440.12574 206.563832 
L 440.63352 316.91643 
L 441.141301 292.123633 
L 441.649081 209.861403 
L 442.156862 190.029965 
L 442.664642 315.503002 
L 443.172423 313.058854 
L 443.680203 301.744933 
L 444.187984 254.042074 
L 444.695764 241.920387 
L 445.203545 271.274542 
L 445.711325 261.689132 
L 446.219106 244.444694 
L 446.726886 243.422265 
L 447.234667 317.875801 
L 447.742447 225.411669 
L 448.250228 237.073719 
L 448.758008 305.564624 
L 449.265789 305.771051 
L 449.773569 310.275188 
L 450.28135 315.880196 
L 450.78913 318.078661 
L 451.296911 309.360452 
L 451.804691 307.598347 
L 452.820252 255.603889 
L 453.328033 317.837464 
L 453.835813 298.168197 
L 454.343594 261.825955 
L 454.851374 253.462563 
L 455.359155 248.936599 
L 455.866935 301.483956 
L 456.374716 315.851687 
L 456.882496 314.324437 
L 457.390277 193.099442 
L 457.898057 226.670174 
L 458.405838 288.491805 
L 458.913618 295.939074 
L 459.421399 296.825355 
L 459.929179 278.925508 
L 460.43696 291.76438 
L 460.94474 310.27491 
L 461.452521 306.102614 
L 461.960301 279.182481 
L 462.468082 314.31494 
L 462.975863 230.903319 
L 463.483643 311.058968 
L 463.991424 318.220197 
L 464.499204 316.203147 
L 465.006985 257.199013 
L 465.514765 307.769429 
L 466.022546 313.418529 
L 466.530326 258.181632 
L 467.038107 279.258556 
L 467.545887 281.561239 
L 468.053668 291.844349 
L 468.561448 291.968388 
L 469.069229 297.81289 
L 469.577009 276.596455 
L 470.08479 281.066727 
L 470.59257 240.749463 
L 471.100351 146.806561 
L 471.608131 302.112623 
L 472.115912 297.989636 
L 472.623692 286.003942 
L 473.131473 317.784027 
L 473.639253 284.986579 
L 474.147034 279.564028 
L 474.654814 240.479373 
L 475.162595 277.323472 
L 475.670375 287.807358 
L 476.178156 283.188712 
L 476.685936 136.147313 
L 477.193717 315.821458 
L 477.701497 289.556958 
L 478.209278 294.97099 
L 478.717058 295.1969 
L 479.224839 277.783116 
L 479.732619 291.949169 
L 480.2404 174.278473 
L 480.74818 283.463443 
L 482.271522 304.165307 
L 482.779302 288.560981 
L 483.287083 267.654466 
L 483.794863 315.092422 
L 484.302644 220.962208 
L 484.810424 316.272795 
L 485.318205 306.012885 
L 485.825985 312.501389 
L 486.333766 306.239775 
L 486.841546 316.299078 
L 487.349327 258.458257 
L 488.364888 294.514873 
L 488.872668 269.351534 
L 489.380449 217.610631 
L 489.888229 243.636308 
L 490.39601 252.05176 
L 490.90379 316.625986 
L 491.411571 310.049492 
L 491.919351 297.59205 
L 492.427132 239.682666 
L 492.934912 298.935553 
L 493.442693 315.954696 
L 493.950473 316.407722 
L 494.458254 289.833284 
L 494.966035 301.142939 
L 495.473815 278.41875 
L 495.981596 303.365333 
L 496.489376 293.795177 
L 496.997157 309.899702 
L 497.504937 284.91889 
L 498.012718 289.417112 
L 498.520498 303.573845 
L 499.028279 297.522537 
L 499.536059 297.28916 
L 500.04384 288.339189 
L 500.55162 317.279394 
L 501.059401 193.075392 
L 501.567181 269.12942 
L 502.074962 225.303668 
L 502.582742 292.18216 
L 503.090523 272.539483 
L 503.598303 311.717943 
L 504.106084 269.739674 
L 504.613864 255.460786 
L 505.121645 308.653465 
L 505.629425 310.867075 
L 506.137206 314.262645 
L 506.644986 310.080549 
L 507.152767 313.219561 
L 507.660547 313.347821 
L 508.168328 310.987811 
L 508.676108 259.04709 
L 509.183889 315.084995 
L 509.691669 304.546231 
L 510.19945 314.33575 
L 510.70723 288.679176 
L 511.215011 308.114379 
L 511.722791 316.847582 
L 512.230572 314.093179 
L 512.738352 267.519589 
L 513.246133 293.567046 
L 513.753913 293.944155 
L 514.261694 294.666715 
L 514.769474 257.393526 
L 515.277255 287.432145 
L 516.292816 314.883884 
L 516.800596 162.895456 
L 517.308377 246.510224 
L 517.816157 309.165192 
L 518.323938 285.323961 
L 518.831718 298.167216 
L 519.339499 273.942804 
L 519.847279 309.128757 
L 520.35506 303.138419 
L 520.86284 299.014294 
L 521.370621 168.976647 
L 521.878401 318.312588 
L 522.386182 241.499409 
L 522.893962 278.066583 
L 523.401743 283.570579 
L 523.909523 248.741145 
L 524.417304 311.96049 
L 524.925084 233.235895 
L 525.432865 286.344593 
L 525.940645 309.005944 
L 526.448426 257.970877 
L 526.956206 264.902648 
L 527.463987 306.609411 
L 527.971768 314.498732 
L 528.479548 316.615342 
L 528.987329 307.684311 
L 529.495109 306.724158 
L 530.00289 303.731027 
L 530.51067 302.078718 
L 531.018451 134.061929 
L 531.526231 289.467889 
L 532.034012 306.042393 
L 532.541792 228.880122 
L 533.049573 313.021289 
L 533.557353 291.037975 
L 534.065134 295.024477 
L 534.572914 283.461792 
L 535.080695 262.807982 
L 535.588475 308.01156 
L 536.096256 265.705074 
L 536.604036 316.700959 
L 537.111817 272.619132 
L 537.619597 279.413296 
L 538.127378 296.653083 
L 538.635158 259.483944 
L 539.142939 241.121235 
L 539.650719 186.785152 
L 540.1585 228.619188 
L 540.66628 247.054293 
L 541.174061 310.296096 
L 541.681841 310.819102 
L 542.189622 270.040033 
L 542.697402 313.948975 
L 543.205183 282.24107 
L 543.712963 259.715691 
L 544.220744 300.006149 
L 544.728524 311.303056 
L 545.236305 304.703121 
L 545.744085 264.667263 
L 546.251866 310.802658 
L 546.759646 306.666842 
L 547.267427 292.49618 
L 547.775207 315.111383 
L 548.282988 312.979004 
L 548.790768 318.202283 
L 549.298549 265.868224 
L 549.806329 314.415514 
L 550.31411 316.810663 
L 550.82189 199.986723 
L 551.329671 288.736494 
L 551.837451 266.182282 
L 552.345232 292.234615 
L 552.853012 167.524588 
L 553.360793 317.161486 
L 554.376354 310.794787 
L 554.884134 313.922911 
L 555.391915 290.90308 
L 555.899695 309.145053 
L 556.407476 307.015269 
L 556.915256 309.624329 
L 557.423037 248.448685 
L 557.930817 285.650303 
L 558.438598 263.980716 
L 558.946378 273.508615 
L 559.454159 318.534545 
L 559.961939 271.979656 
L 560.46972 312.203559 
L 560.977501 317.84586 
L 561.485281 270.64896 
L 561.993062 297.1809 
L 563.008623 316.212597 
L 563.516403 252.689341 
L 564.024184 313.275159 
L 565.039745 307.678014 
L 565.547525 265.081306 
L 566.055306 288.464208 
L 566.563086 301.738343 
L 567.070867 204.143233 
L 567.578647 291.089359 
L 568.086428 231.163357 
L 568.594208 250.10081 
L 569.101989 279.653801 
L 569.101989 279.653801 
" style="fill:none;stroke:#1f77b4;stroke-linecap:square;stroke-width:1.5;"/>
   </g>
   <g id="patch_3">
    <path d="M 36.465625 333.36 
L 36.465625 7.2 
" style="fill:none;stroke:#000000;stroke-linecap:square;stroke-linejoin:miter;stroke-width:0.8;"/>
   </g>
   <g id="patch_4">
    <path d="M 594.465625 333.36 
L 594.465625 7.2 
" style="fill:none;stroke:#000000;stroke-linecap:square;stroke-linejoin:miter;stroke-width:0.8;"/>
   </g>
   <g id="patch_5">
    <path d="M 36.465625 333.36 
L 594.465625 333.36 
" style="fill:none;stroke:#000000;stroke-linecap:square;stroke-linejoin:miter;stroke-width:0.8;"/>
   </g>
   <g id="patch_6">
    <path d="M 36.465625 7.2 
L 594.465625 7.2 
" style="fill:none;stroke:#000000;stroke-linecap:square;stroke-linejoin:miter;stroke-width:0.8;"/>
   </g>
  </g>
 </g>
 <defs>
  <clipPath id="pd0bd99de28">
   <rect height="326.16" width="558" x="36.465625" y="7.2"/>
  </clipPath>
 </defs>
</svg>
