<?xml version="1.0" encoding="utf-8" standalone="no"?>
<!DOCTYPE svg PUBLIC "-//W3C//DTD SVG 1.1//EN"
  "http://www.w3.org/Graphics/SVG/1.1/DTD/svg11.dtd">
<!-- Created with matplotlib (https://matplotlib.org/) -->
<svg height="205.514219pt" version="1.1" viewBox="0 0 912.168898 205.514219" width="912.168898pt" xmlns="http://www.w3.org/2000/svg" xmlns:xlink="http://www.w3.org/1999/xlink">
 <metadata>
  <rdf:RDF xmlns:cc="http://creativecommons.org/ns#" xmlns:dc="http://purl.org/dc/elements/1.1/" xmlns:rdf="http://www.w3.org/1999/02/22-rdf-syntax-ns#">
   <cc:Work>
    <dc:type rdf:resource="http://purl.org/dc/dcmitype/StillImage"/>
    <dc:date>2020-10-19T19:39:06.832690</dc:date>
    <dc:format>image/svg+xml</dc:format>
    <dc:creator>
     <cc:Agent>
      <dc:title>Matplotlib v3.3.2, https://matplotlib.org/</dc:title>
     </cc:Agent>
    </dc:creator>
   </cc:Work>
  </rdf:RDF>
 </metadata>
 <defs>
  <style type="text/css">*{stroke-linecap:butt;stroke-linejoin:round;}</style>
 </defs>
 <g id="figure_1">
  <g id="patch_1">
   <path d="M 0 205.514219 
L 912.168898 205.514219 
L 912.168898 0 
L 0 0 
z
" style="fill:#ffffff;"/>
  </g>
  <g id="axes_1">
   <g id="patch_2">
    <path d="M 44.224063 163.78 
L 845.723398 163.78 
L 845.723398 7.2 
L 44.224063 7.2 
z
" style="fill:#eaeaf2;"/>
   </g>
   <g id="matplotlib.axis_1">
    <g id="xtick_1">
     <g id="line2d_1">
      <path clip-path="url(#p3ad536bc5d)" d="M 44.224063 163.78 
L 44.224063 7.2 
" style="fill:none;stroke:#ffffff;stroke-linecap:round;"/>
     </g>
     <g id="text_1">
      <!-- 0 -->
      <g style="fill:#262626;" transform="translate(41.165547 181.153594)scale(0.11 -0.11)">
       <defs>
        <path d="M 4.15625 35.296875 
Q 4.15625 48 6.765625 55.734375 
Q 9.375 63.484375 14.515625 67.671875 
Q 19.671875 71.875 27.484375 71.875 
Q 33.25 71.875 37.59375 69.546875 
Q 41.9375 67.234375 44.765625 62.859375 
Q 47.609375 58.5 49.21875 52.21875 
Q 50.828125 45.953125 50.828125 35.296875 
Q 50.828125 22.703125 48.234375 14.96875 
Q 45.65625 7.234375 40.5 3 
Q 35.359375 -1.21875 27.484375 -1.21875 
Q 17.140625 -1.21875 11.234375 6.203125 
Q 4.15625 15.140625 4.15625 35.296875 
z
M 13.1875 35.296875 
Q 13.1875 17.671875 17.3125 11.828125 
Q 21.4375 6 27.484375 6 
Q 33.546875 6 37.671875 11.859375 
Q 41.796875 17.71875 41.796875 35.296875 
Q 41.796875 52.984375 37.671875 58.78125 
Q 33.546875 64.59375 27.390625 64.59375 
Q 21.34375 64.59375 17.71875 59.46875 
Q 13.1875 52.9375 13.1875 35.296875 
z
" id="ArialMT-48"/>
       </defs>
       <use xlink:href="#ArialMT-48"/>
      </g>
     </g>
    </g>
    <g id="xtick_2">
     <g id="line2d_2">
      <path clip-path="url(#p3ad536bc5d)" d="M 177.807285 163.78 
L 177.807285 7.2 
" style="fill:none;stroke:#ffffff;stroke-linecap:round;"/>
     </g>
     <g id="text_2">
      <!-- 5 -->
      <g style="fill:#262626;" transform="translate(174.74877 181.153594)scale(0.11 -0.11)">
       <defs>
        <path d="M 4.15625 18.75 
L 13.375 19.53125 
Q 14.40625 12.796875 18.140625 9.390625 
Q 21.875 6 27.15625 6 
Q 33.5 6 37.890625 10.78125 
Q 42.28125 15.578125 42.28125 23.484375 
Q 42.28125 31 38.0625 35.34375 
Q 33.84375 39.703125 27 39.703125 
Q 22.75 39.703125 19.328125 37.765625 
Q 15.921875 35.84375 13.96875 32.765625 
L 5.71875 33.84375 
L 12.640625 70.609375 
L 48.25 70.609375 
L 48.25 62.203125 
L 19.671875 62.203125 
L 15.828125 42.96875 
Q 22.265625 47.46875 29.34375 47.46875 
Q 38.71875 47.46875 45.15625 40.96875 
Q 51.609375 34.46875 51.609375 24.265625 
Q 51.609375 14.546875 45.953125 7.46875 
Q 39.0625 -1.21875 27.15625 -1.21875 
Q 17.390625 -1.21875 11.203125 4.25 
Q 5.03125 9.71875 4.15625 18.75 
z
" id="ArialMT-53"/>
       </defs>
       <use xlink:href="#ArialMT-53"/>
      </g>
     </g>
    </g>
    <g id="xtick_3">
     <g id="line2d_3">
      <path clip-path="url(#p3ad536bc5d)" d="M 311.390508 163.78 
L 311.390508 7.2 
" style="fill:none;stroke:#ffffff;stroke-linecap:round;"/>
     </g>
     <g id="text_3">
      <!-- 10 -->
      <g style="fill:#262626;" transform="translate(305.273477 181.153594)scale(0.11 -0.11)">
       <defs>
        <path d="M 37.25 0 
L 28.46875 0 
L 28.46875 56 
Q 25.296875 52.984375 20.140625 49.953125 
Q 14.984375 46.921875 10.890625 45.40625 
L 10.890625 53.90625 
Q 18.265625 57.375 23.78125 62.296875 
Q 29.296875 67.234375 31.59375 71.875 
L 37.25 71.875 
z
" id="ArialMT-49"/>
       </defs>
       <use xlink:href="#ArialMT-49"/>
       <use x="55.615234" xlink:href="#ArialMT-48"/>
      </g>
     </g>
    </g>
    <g id="xtick_4">
     <g id="line2d_4">
      <path clip-path="url(#p3ad536bc5d)" d="M 444.97373 163.78 
L 444.97373 7.2 
" style="fill:none;stroke:#ffffff;stroke-linecap:round;"/>
     </g>
     <g id="text_4">
      <!-- 15 -->
      <g style="fill:#262626;" transform="translate(438.856699 181.153594)scale(0.11 -0.11)">
       <use xlink:href="#ArialMT-49"/>
       <use x="55.615234" xlink:href="#ArialMT-53"/>
      </g>
     </g>
    </g>
    <g id="xtick_5">
     <g id="line2d_5">
      <path clip-path="url(#p3ad536bc5d)" d="M 578.556953 163.78 
L 578.556953 7.2 
" style="fill:none;stroke:#ffffff;stroke-linecap:round;"/>
     </g>
     <g id="text_5">
      <!-- 20 -->
      <g style="fill:#262626;" transform="translate(572.439922 181.153594)scale(0.11 -0.11)">
       <defs>
        <path d="M 50.34375 8.453125 
L 50.34375 0 
L 3.03125 0 
Q 2.9375 3.171875 4.046875 6.109375 
Q 5.859375 10.9375 9.828125 15.625 
Q 13.8125 20.3125 21.34375 26.46875 
Q 33.015625 36.03125 37.109375 41.625 
Q 41.21875 47.21875 41.21875 52.203125 
Q 41.21875 57.421875 37.46875 61 
Q 33.734375 64.59375 27.734375 64.59375 
Q 21.390625 64.59375 17.578125 60.78125 
Q 13.765625 56.984375 13.71875 50.25 
L 4.6875 51.171875 
Q 5.609375 61.28125 11.65625 66.578125 
Q 17.71875 71.875 27.9375 71.875 
Q 38.234375 71.875 44.234375 66.15625 
Q 50.25 60.453125 50.25 52 
Q 50.25 47.703125 48.484375 43.546875 
Q 46.734375 39.40625 42.65625 34.8125 
Q 38.578125 30.21875 29.109375 22.21875 
Q 21.1875 15.578125 18.9375 13.203125 
Q 16.703125 10.84375 15.234375 8.453125 
z
" id="ArialMT-50"/>
       </defs>
       <use xlink:href="#ArialMT-50"/>
       <use x="55.615234" xlink:href="#ArialMT-48"/>
      </g>
     </g>
    </g>
    <g id="xtick_6">
     <g id="line2d_6">
      <path clip-path="url(#p3ad536bc5d)" d="M 712.140176 163.78 
L 712.140176 7.2 
" style="fill:none;stroke:#ffffff;stroke-linecap:round;"/>
     </g>
     <g id="text_6">
      <!-- 25 -->
      <g style="fill:#262626;" transform="translate(706.023145 181.153594)scale(0.11 -0.11)">
       <use xlink:href="#ArialMT-50"/>
       <use x="55.615234" xlink:href="#ArialMT-53"/>
      </g>
     </g>
    </g>
    <g id="xtick_7">
     <g id="line2d_7">
      <path clip-path="url(#p3ad536bc5d)" d="M 845.723398 163.78 
L 845.723398 7.2 
" style="fill:none;stroke:#ffffff;stroke-linecap:round;"/>
     </g>
     <g id="text_7">
      <!-- 30 -->
      <g style="fill:#262626;" transform="translate(839.606367 181.153594)scale(0.11 -0.11)">
       <defs>
        <path d="M 4.203125 18.890625 
L 12.984375 20.0625 
Q 14.5 12.59375 18.140625 9.296875 
Q 21.78125 6 27 6 
Q 33.203125 6 37.46875 10.296875 
Q 41.75 14.59375 41.75 20.953125 
Q 41.75 27 37.796875 30.921875 
Q 33.84375 34.859375 27.734375 34.859375 
Q 25.25 34.859375 21.53125 33.890625 
L 22.515625 41.609375 
Q 23.390625 41.5 23.921875 41.5 
Q 29.546875 41.5 34.03125 44.421875 
Q 38.53125 47.359375 38.53125 53.46875 
Q 38.53125 58.296875 35.25 61.46875 
Q 31.984375 64.65625 26.8125 64.65625 
Q 21.6875 64.65625 18.265625 61.421875 
Q 14.84375 58.203125 13.875 51.765625 
L 5.078125 53.328125 
Q 6.6875 62.15625 12.390625 67.015625 
Q 18.109375 71.875 26.609375 71.875 
Q 32.46875 71.875 37.390625 69.359375 
Q 42.328125 66.84375 44.9375 62.5 
Q 47.5625 58.15625 47.5625 53.265625 
Q 47.5625 48.640625 45.0625 44.828125 
Q 42.578125 41.015625 37.703125 38.765625 
Q 44.046875 37.3125 47.5625 32.6875 
Q 51.078125 28.078125 51.078125 21.140625 
Q 51.078125 11.765625 44.234375 5.25 
Q 37.40625 -1.265625 26.953125 -1.265625 
Q 17.53125 -1.265625 11.296875 4.34375 
Q 5.078125 9.96875 4.203125 18.890625 
z
" id="ArialMT-51"/>
       </defs>
       <use xlink:href="#ArialMT-51"/>
       <use x="55.615234" xlink:href="#ArialMT-48"/>
      </g>
     </g>
    </g>
    <g id="text_8">
     <!-- Fare -->
     <g style="fill:#262626;" transform="translate(432.638105 195.929219)scale(0.12 -0.12)">
      <defs>
       <path d="M 8.203125 0 
L 8.203125 71.578125 
L 56.5 71.578125 
L 56.5 63.140625 
L 17.671875 63.140625 
L 17.671875 40.96875 
L 51.265625 40.96875 
L 51.265625 32.515625 
L 17.671875 32.515625 
L 17.671875 0 
z
" id="ArialMT-70"/>
       <path d="M 40.4375 6.390625 
Q 35.546875 2.25 31.03125 0.53125 
Q 26.515625 -1.171875 21.34375 -1.171875 
Q 12.796875 -1.171875 8.203125 3 
Q 3.609375 7.171875 3.609375 13.671875 
Q 3.609375 17.484375 5.34375 20.625 
Q 7.078125 23.78125 9.890625 25.6875 
Q 12.703125 27.59375 16.21875 28.5625 
Q 18.796875 29.25 24.03125 29.890625 
Q 34.671875 31.15625 39.703125 32.90625 
Q 39.75 34.71875 39.75 35.203125 
Q 39.75 40.578125 37.25 42.78125 
Q 33.890625 45.75 27.25 45.75 
Q 21.046875 45.75 18.09375 43.578125 
Q 15.140625 41.40625 13.71875 35.890625 
L 5.125 37.0625 
Q 6.296875 42.578125 8.984375 45.96875 
Q 11.671875 49.359375 16.75 51.1875 
Q 21.828125 53.03125 28.515625 53.03125 
Q 35.15625 53.03125 39.296875 51.46875 
Q 43.453125 49.90625 45.40625 47.53125 
Q 47.359375 45.171875 48.140625 41.546875 
Q 48.578125 39.3125 48.578125 33.453125 
L 48.578125 21.734375 
Q 48.578125 9.46875 49.140625 6.21875 
Q 49.703125 2.984375 51.375 0 
L 42.1875 0 
Q 40.828125 2.734375 40.4375 6.390625 
z
M 39.703125 26.03125 
Q 34.90625 24.078125 25.34375 22.703125 
Q 19.921875 21.921875 17.671875 20.9375 
Q 15.4375 19.96875 14.203125 18.09375 
Q 12.984375 16.21875 12.984375 13.921875 
Q 12.984375 10.40625 15.640625 8.0625 
Q 18.3125 5.71875 23.4375 5.71875 
Q 28.515625 5.71875 32.46875 7.9375 
Q 36.421875 10.15625 38.28125 14.015625 
Q 39.703125 17 39.703125 22.796875 
z
" id="ArialMT-97"/>
       <path d="M 6.5 0 
L 6.5 51.859375 
L 14.40625 51.859375 
L 14.40625 44 
Q 17.4375 49.515625 20 51.265625 
Q 22.5625 53.03125 25.640625 53.03125 
Q 30.078125 53.03125 34.671875 50.203125 
L 31.640625 42.046875 
Q 28.421875 43.953125 25.203125 43.953125 
Q 22.3125 43.953125 20.015625 42.21875 
Q 17.71875 40.484375 16.75 37.40625 
Q 15.28125 32.71875 15.28125 27.15625 
L 15.28125 0 
z
" id="ArialMT-114"/>
       <path d="M 42.09375 16.703125 
L 51.171875 15.578125 
Q 49.03125 7.625 43.21875 3.21875 
Q 37.40625 -1.171875 28.375 -1.171875 
Q 17 -1.171875 10.328125 5.828125 
Q 3.65625 12.84375 3.65625 25.484375 
Q 3.65625 38.578125 10.390625 45.796875 
Q 17.140625 53.03125 27.875 53.03125 
Q 38.28125 53.03125 44.875 45.953125 
Q 51.46875 38.875 51.46875 26.03125 
Q 51.46875 25.25 51.421875 23.6875 
L 12.75 23.6875 
Q 13.234375 15.140625 17.578125 10.59375 
Q 21.921875 6.0625 28.421875 6.0625 
Q 33.25 6.0625 36.671875 8.59375 
Q 40.09375 11.140625 42.09375 16.703125 
z
M 13.234375 30.90625 
L 42.1875 30.90625 
Q 41.609375 37.453125 38.875 40.71875 
Q 34.671875 45.796875 27.984375 45.796875 
Q 21.921875 45.796875 17.796875 41.75 
Q 13.671875 37.703125 13.234375 30.90625 
z
" id="ArialMT-101"/>
      </defs>
      <use xlink:href="#ArialMT-70"/>
      <use x="61.083984" xlink:href="#ArialMT-97"/>
      <use x="116.699219" xlink:href="#ArialMT-114"/>
      <use x="150" xlink:href="#ArialMT-101"/>
     </g>
    </g>
   </g>
   <g id="matplotlib.axis_2">
    <g id="ytick_1">
     <g id="line2d_8">
      <path clip-path="url(#p3ad536bc5d)" d="M 44.224063 163.78 
L 845.723398 163.78 
" style="fill:none;stroke:#ffffff;stroke-linecap:round;"/>
     </g>
     <g id="text_9">
      <!-- 0.000 -->
      <g style="fill:#262626;" transform="translate(7.2 167.716797)scale(0.11 -0.11)">
       <defs>
        <path d="M 9.078125 0 
L 9.078125 10.015625 
L 19.09375 10.015625 
L 19.09375 0 
z
" id="ArialMT-46"/>
       </defs>
       <use xlink:href="#ArialMT-48"/>
       <use x="55.615234" xlink:href="#ArialMT-46"/>
       <use x="83.398438" xlink:href="#ArialMT-48"/>
       <use x="139.013672" xlink:href="#ArialMT-48"/>
       <use x="194.628906" xlink:href="#ArialMT-48"/>
      </g>
     </g>
    </g>
    <g id="ytick_2">
     <g id="line2d_9">
      <path clip-path="url(#p3ad536bc5d)" d="M 44.224063 138.892658 
L 845.723398 138.892658 
" style="fill:none;stroke:#ffffff;stroke-linecap:round;"/>
     </g>
     <g id="text_10">
      <!-- 0.005 -->
      <g style="fill:#262626;" transform="translate(7.2 142.829455)scale(0.11 -0.11)">
       <use xlink:href="#ArialMT-48"/>
       <use x="55.615234" xlink:href="#ArialMT-46"/>
       <use x="83.398438" xlink:href="#ArialMT-48"/>
       <use x="139.013672" xlink:href="#ArialMT-48"/>
       <use x="194.628906" xlink:href="#ArialMT-53"/>
      </g>
     </g>
    </g>
    <g id="ytick_3">
     <g id="line2d_10">
      <path clip-path="url(#p3ad536bc5d)" d="M 44.224063 114.005316 
L 845.723398 114.005316 
" style="fill:none;stroke:#ffffff;stroke-linecap:round;"/>
     </g>
     <g id="text_11">
      <!-- 0.010 -->
      <g style="fill:#262626;" transform="translate(7.2 117.942113)scale(0.11 -0.11)">
       <use xlink:href="#ArialMT-48"/>
       <use x="55.615234" xlink:href="#ArialMT-46"/>
       <use x="83.398438" xlink:href="#ArialMT-48"/>
       <use x="139.013672" xlink:href="#ArialMT-49"/>
       <use x="194.628906" xlink:href="#ArialMT-48"/>
      </g>
     </g>
    </g>
    <g id="ytick_4">
     <g id="line2d_11">
      <path clip-path="url(#p3ad536bc5d)" d="M 44.224063 89.117974 
L 845.723398 89.117974 
" style="fill:none;stroke:#ffffff;stroke-linecap:round;"/>
     </g>
     <g id="text_12">
      <!-- 0.015 -->
      <g style="fill:#262626;" transform="translate(7.2 93.054771)scale(0.11 -0.11)">
       <use xlink:href="#ArialMT-48"/>
       <use x="55.615234" xlink:href="#ArialMT-46"/>
       <use x="83.398438" xlink:href="#ArialMT-48"/>
       <use x="139.013672" xlink:href="#ArialMT-49"/>
       <use x="194.628906" xlink:href="#ArialMT-53"/>
      </g>
     </g>
    </g>
    <g id="ytick_5">
     <g id="line2d_12">
      <path clip-path="url(#p3ad536bc5d)" d="M 44.224063 64.230633 
L 845.723398 64.230633 
" style="fill:none;stroke:#ffffff;stroke-linecap:round;"/>
     </g>
     <g id="text_13">
      <!-- 0.020 -->
      <g style="fill:#262626;" transform="translate(7.2 68.167429)scale(0.11 -0.11)">
       <use xlink:href="#ArialMT-48"/>
       <use x="55.615234" xlink:href="#ArialMT-46"/>
       <use x="83.398438" xlink:href="#ArialMT-48"/>
       <use x="139.013672" xlink:href="#ArialMT-50"/>
       <use x="194.628906" xlink:href="#ArialMT-48"/>
      </g>
     </g>
    </g>
    <g id="ytick_6">
     <g id="line2d_13">
      <path clip-path="url(#p3ad536bc5d)" d="M 44.224063 39.343291 
L 845.723398 39.343291 
" style="fill:none;stroke:#ffffff;stroke-linecap:round;"/>
     </g>
     <g id="text_14">
      <!-- 0.025 -->
      <g style="fill:#262626;" transform="translate(7.2 43.280088)scale(0.11 -0.11)">
       <use xlink:href="#ArialMT-48"/>
       <use x="55.615234" xlink:href="#ArialMT-46"/>
       <use x="83.398438" xlink:href="#ArialMT-48"/>
       <use x="139.013672" xlink:href="#ArialMT-50"/>
       <use x="194.628906" xlink:href="#ArialMT-53"/>
      </g>
     </g>
    </g>
    <g id="ytick_7">
     <g id="line2d_14">
      <path clip-path="url(#p3ad536bc5d)" d="M 44.224063 14.455949 
L 845.723398 14.455949 
" style="fill:none;stroke:#ffffff;stroke-linecap:round;"/>
     </g>
     <g id="text_15">
      <!-- 0.030 -->
      <g style="fill:#262626;" transform="translate(7.2 18.392746)scale(0.11 -0.11)">
       <use xlink:href="#ArialMT-48"/>
       <use x="55.615234" xlink:href="#ArialMT-46"/>
       <use x="83.398438" xlink:href="#ArialMT-48"/>
       <use x="139.013672" xlink:href="#ArialMT-51"/>
       <use x="194.628906" xlink:href="#ArialMT-48"/>
      </g>
     </g>
    </g>
   </g>
   <g id="PolyCollection_1">
    <path clip-path="url(#p3ad536bc5d)" d="M -668.227264 163.656737 
L -668.227264 163.78 
L -625.758017 163.78 
L -583.28877 163.78 
L -540.819523 163.78 
L -498.350276 163.78 
L -455.881029 163.78 
L -413.411782 163.78 
L -370.942535 163.78 
L -328.473288 163.78 
L -286.004041 163.78 
L -243.534794 163.78 
L -201.065547 163.78 
L -158.596299 163.78 
L -116.127052 163.78 
L -73.657805 163.78 
L -31.188558 163.78 
L 11.280689 163.78 
L 53.749936 163.78 
L 96.219183 163.78 
L 138.68843 163.78 
L 181.157677 163.78 
L 223.626924 163.78 
L 266.096171 163.78 
L 308.565418 163.78 
L 351.034665 163.78 
L 393.503912 163.78 
L 435.973159 163.78 
L 478.442406 163.78 
L 520.911654 163.78 
L 563.380901 163.78 
L 605.850148 163.78 
L 648.319395 163.78 
L 690.788642 163.78 
L 733.257889 163.78 
L 775.727136 163.78 
L 818.196383 163.78 
L 860.66563 163.78 
L 903.134877 163.78 
L 945.604124 163.78 
L 988.073371 163.78 
L 1030.542618 163.78 
L 1073.011865 163.78 
L 1115.481112 163.78 
L 1157.950359 163.78 
L 1200.419606 163.78 
L 1242.888854 163.78 
L 1285.358101 163.78 
L 1327.827348 163.78 
L 1370.296595 163.78 
L 1412.765842 163.78 
L 1455.235089 163.78 
L 1497.704336 163.78 
L 1540.173583 163.78 
L 1582.64283 163.78 
L 1625.112077 163.78 
L 1667.581324 163.78 
L 1710.050571 163.78 
L 1752.519818 163.78 
L 1794.989065 163.78 
L 1837.458312 163.78 
L 1879.927559 163.78 
L 1922.396807 163.78 
L 1964.866054 163.78 
L 2007.335301 163.78 
L 2049.804548 163.78 
L 2092.273795 163.78 
L 2134.743042 163.78 
L 2177.212289 163.78 
L 2219.681536 163.78 
L 2262.150783 163.78 
L 2304.62003 163.78 
L 2347.089277 163.78 
L 2389.558524 163.78 
L 2432.027771 163.78 
L 2474.497018 163.78 
L 2516.966265 163.78 
L 2559.435512 163.78 
L 2601.904759 163.78 
L 2644.374007 163.78 
L 2686.843254 163.78 
L 2729.312501 163.78 
L 2771.781748 163.78 
L 2814.250995 163.78 
L 2856.720242 163.78 
L 2899.189489 163.78 
L 2941.658736 163.78 
L 2984.127983 163.78 
L 3026.59723 163.78 
L 3069.066477 163.78 
L 3111.535724 163.78 
L 3154.004971 163.78 
L 3196.474218 163.78 
L 3238.943465 163.78 
L 3281.412712 163.78 
L 3323.88196 163.78 
L 3366.351207 163.78 
L 3408.820454 163.78 
L 3451.289701 163.78 
L 3493.758948 163.78 
L 3536.228195 163.78 
L 3578.697442 163.78 
L 3621.166689 163.78 
L 3663.635936 163.78 
L 3706.105183 163.78 
L 3748.57443 163.78 
L 3791.043677 163.78 
L 3833.512924 163.78 
L 3875.982171 163.78 
L 3918.451418 163.78 
L 3960.920665 163.78 
L 4003.389912 163.78 
L 4045.85916 163.78 
L 4088.328407 163.78 
L 4130.797654 163.78 
L 4173.266901 163.78 
L 4215.736148 163.78 
L 4258.205395 163.78 
L 4300.674642 163.78 
L 4343.143889 163.78 
L 4385.613136 163.78 
L 4428.082383 163.78 
L 4470.55163 163.78 
L 4513.020877 163.78 
L 4555.490124 163.78 
L 4597.959371 163.78 
L 4640.428618 163.78 
L 4682.897865 163.78 
L 4725.367113 163.78 
L 4767.83636 163.78 
L 4810.305607 163.78 
L 4852.774854 163.78 
L 4895.244101 163.78 
L 4937.713348 163.78 
L 4980.182595 163.78 
L 5022.651842 163.78 
L 5065.121089 163.78 
L 5107.590336 163.78 
L 5150.059583 163.78 
L 5192.52883 163.78 
L 5234.998077 163.78 
L 5277.467324 163.78 
L 5319.936571 163.78 
L 5362.405818 163.78 
L 5404.875066 163.78 
L 5447.344313 163.78 
L 5489.81356 163.78 
L 5532.282807 163.78 
L 5574.752054 163.78 
L 5617.221301 163.78 
L 5659.690548 163.78 
L 5702.159795 163.78 
L 5744.629042 163.78 
L 5787.098289 163.78 
L 5829.567536 163.78 
L 5872.036783 163.78 
L 5914.50603 163.78 
L 5956.975277 163.78 
L 5999.444524 163.78 
L 6041.913771 163.78 
L 6084.383018 163.78 
L 6126.852266 163.78 
L 6169.321513 163.78 
L 6211.79076 163.78 
L 6254.260007 163.78 
L 6296.729254 163.78 
L 6339.198501 163.78 
L 6381.667748 163.78 
L 6424.136995 163.78 
L 6466.606242 163.78 
L 6509.075489 163.78 
L 6551.544736 163.78 
L 6594.013983 163.78 
L 6636.48323 163.78 
L 6678.952477 163.78 
L 6721.421724 163.78 
L 6763.890971 163.78 
L 6806.360219 163.78 
L 6848.829466 163.78 
L 6891.298713 163.78 
L 6933.76796 163.78 
L 6976.237207 163.78 
L 7018.706454 163.78 
L 7061.175701 163.78 
L 7103.644948 163.78 
L 7146.114195 163.78 
L 7188.583442 163.78 
L 7231.052689 163.78 
L 7273.521936 163.78 
L 7315.991183 163.78 
L 7358.46043 163.78 
L 7400.929677 163.78 
L 7443.398924 163.78 
L 7485.868171 163.78 
L 7528.337419 163.78 
L 7570.806666 163.78 
L 7613.275913 163.78 
L 7655.74516 163.78 
L 7698.214407 163.78 
L 7740.683654 163.78 
L 7783.152901 163.78 
L 7783.152901 163.770954 
L 7783.152901 163.770954 
L 7740.683654 163.764774 
L 7698.214407 163.755175 
L 7655.74516 163.740795 
L 7613.275913 163.720027 
L 7570.806666 163.691125 
L 7528.337419 163.652406 
L 7485.868171 163.602519 
L 7443.398924 163.540776 
L 7400.929677 163.467488 
L 7358.46043 163.384226 
L 7315.991183 163.293941 
L 7273.521936 163.200857 
L 7231.052689 163.11012 
L 7188.583442 163.027224 
L 7146.114195 162.957302 
L 7103.644948 162.904406 
L 7061.175701 162.870948 
L 7018.706454 162.85741 
L 6976.237207 162.862401 
L 6933.76796 162.883039 
L 6891.298713 162.915555 
L 6848.829466 162.955971 
L 6806.360219 163.000671 
L 6763.890971 163.046745 
L 6721.421724 163.092052 
L 6678.952477 163.135032 
L 6636.48323 163.174371 
L 6594.013983 163.208659 
L 6551.544736 163.236181 
L 6509.075489 163.254906 
L 6466.606242 163.262716 
L 6424.136995 163.257798 
L 6381.667748 163.239104 
L 6339.198501 163.206752 
L 6296.729254 163.162254 
L 6254.260007 163.108507 
L 6211.79076 163.049538 
L 6169.321513 162.990041 
L 6126.852266 162.934817 
L 6084.383018 162.888203 
L 6041.913771 162.853628 
L 5999.444524 162.833347 
L 5956.975277 162.828387 
L 5914.50603 162.838678 
L 5872.036783 162.863307 
L 5829.567536 162.900815 
L 5787.098289 162.949443 
L 5744.629042 163.007307 
L 5702.159795 163.072463 
L 5659.690548 163.14291 
L 5617.221301 163.216565 
L 5574.752054 163.291259 
L 5532.282807 163.364791 
L 5489.81356 163.435041 
L 5447.344313 163.500121 
L 5404.875066 163.558529 
L 5362.405818 163.609272 
L 5319.936571 163.651913 
L 5277.467324 163.686555 
L 5234.998077 163.71375 
L 5192.52883 163.734368 
L 5150.059583 163.749448 
L 5107.590336 163.760059 
L 5065.121089 163.767179 
L 5022.651842 163.771614 
L 4980.182595 163.773938 
L 4937.713348 163.774447 
L 4895.244101 163.773125 
L 4852.774854 163.769602 
L 4810.305607 163.763115 
L 4767.83636 163.752461 
L 4725.367113 163.735979 
L 4682.897865 163.711576 
L 4640.428618 163.676837 
L 4597.959371 163.629236 
L 4555.490124 163.566475 
L 4513.020877 163.486933 
L 4470.55163 163.390166 
L 4428.082383 163.277391 
L 4385.613136 163.151824 
L 4343.143889 163.018754 
L 4300.674642 162.885282 
L 4258.205395 162.759674 
L 4215.736148 162.65041 
L 4173.266901 162.565059 
L 4130.797654 162.509199 
L 4088.328407 162.485607 
L 4045.85916 162.493897 
L 4003.389912 162.530696 
L 3960.920665 162.590323 
L 3918.451418 162.665799 
L 3875.982171 162.749967 
L 3833.512924 162.83646 
L 3791.043677 162.920326 
L 3748.57443 162.998197 
L 3706.105183 163.068036 
L 3663.635936 163.128582 
L 3621.166689 163.17869 
L 3578.697442 163.216763 
L 3536.228195 163.24044 
L 3493.758948 163.246637 
L 3451.289701 163.231944 
L 3408.820454 163.193302 
L 3366.351207 163.128824 
L 3323.88196 163.038598 
L 3281.412712 162.92529 
L 3238.943465 162.794401 
L 3196.474218 162.654068 
L 3154.004971 162.514393 
L 3111.535724 162.38633 
L 3069.066477 162.280281 
L 3026.59723 162.2046 
L 2984.127983 162.164237 
L 2941.658736 162.159754 
L 2899.189489 162.18686 
L 2856.720242 162.236561 
L 2814.250995 162.295852 
L 2771.781748 162.348852 
L 2729.312501 162.378168 
L 2686.843254 162.366308 
L 2644.374007 162.29698 
L 2601.904759 162.156205 
L 2559.435512 161.933208 
L 2516.966265 161.621159 
L 2474.497018 161.217782 
L 2432.027771 160.725893 
L 2389.558524 160.15381 
L 2347.089277 159.51555 
L 2304.62003 158.83068 
L 2262.150783 158.123631 
L 2219.681536 157.422395 
L 2177.212289 156.756523 
L 2134.743042 156.154534 
L 2092.273795 155.640952 
L 2049.804548 155.233316 
L 2007.335301 154.93963 
L 1964.866054 154.756693 
L 1922.396807 154.669728 
L 1879.927559 154.653511 
L 1837.458312 154.674961 
L 1794.989065 154.696883 
L 1752.519818 154.682244 
L 1710.050571 154.598233 
L 1667.581324 154.419314 
L 1625.112077 154.128618 
L 1582.64283 153.71735 
L 1540.173583 153.182253 
L 1497.704336 152.521633 
L 1455.235089 151.730742 
L 1412.765842 150.79756 
L 1370.296595 149.699963 
L 1327.827348 148.405081 
L 1285.358101 146.871221 
L 1242.888854 145.052228 
L 1200.419606 142.903546 
L 1157.950359 140.388737 
L 1115.481112 137.484826 
L 1073.011865 134.184738 
L 1030.542618 130.495394 
L 988.073371 126.430797 
L 945.604124 122.000664 
L 903.134877 117.196699 
L 860.66563 111.980107 
L 818.196383 106.275012 
L 775.727136 99.972479 
L 733.257889 92.948583 
L 690.788642 85.097164 
L 648.319395 76.374102 
L 605.850148 66.845724 
L 563.380901 56.730686 
L 520.911654 46.423339 
L 478.442406 36.488288 
L 435.973159 27.620571 
L 393.503912 20.573033 
L 351.034665 16.060398 
L 308.565418 14.65619 
L 266.096171 16.701969 
L 223.626924 22.24722 
L 181.157677 31.032498 
L 138.68843 42.519558 
L 96.219183 55.962353 
L 53.749936 70.504663 
L 11.280689 85.285602 
L -31.188558 99.5344 
L -73.657805 112.640081 
L -116.127052 124.188507 
L -158.596299 133.966643 
L -201.065547 141.939993 
L -243.534794 148.212727 
L -286.004041 152.980846 
L -328.473288 156.487208 
L -370.942535 158.984445 
L -413.411782 160.708587 
L -455.881029 161.863544 
L -498.350276 162.614759 
L -540.819523 163.089497 
L -583.28877 163.381155 
L -625.758017 163.555426 
L -668.227264 163.656737 
z
" style="fill:#4c72b0;fill-opacity:0.25;stroke:#4c72b0;"/>
   </g>
   <g id="PolyCollection_2">
    <path clip-path="url(#p3ad536bc5d)" d="M -1617.475859 163.686596 
L -1617.475859 163.78 
L -1531.992859 163.78 
L -1446.509859 163.78 
L -1361.026859 163.78 
L -1275.54386 163.78 
L -1190.06086 163.78 
L -1104.57786 163.78 
L -1019.09486 163.78 
L -933.61186 163.78 
L -848.128861 163.78 
L -762.645861 163.78 
L -677.162861 163.78 
L -591.679861 163.78 
L -506.196861 163.78 
L -420.713861 163.78 
L -335.230862 163.78 
L -249.747862 163.78 
L -164.264862 163.78 
L -78.781862 163.78 
L 6.701138 163.78 
L 92.184137 163.78 
L 177.667137 163.78 
L 263.150137 163.78 
L 348.633137 163.78 
L 434.116137 163.78 
L 519.599136 163.78 
L 605.082136 163.78 
L 690.565136 163.78 
L 776.048136 163.78 
L 861.531136 163.78 
L 947.014135 163.78 
L 1032.497135 163.78 
L 1117.980135 163.78 
L 1203.463135 163.78 
L 1288.946135 163.78 
L 1374.429135 163.78 
L 1459.912134 163.78 
L 1545.395134 163.78 
L 1630.878134 163.78 
L 1716.361134 163.78 
L 1801.844134 163.78 
L 1887.327133 163.78 
L 1972.810133 163.78 
L 2058.293133 163.78 
L 2143.776133 163.78 
L 2229.259133 163.78 
L 2314.742132 163.78 
L 2400.225132 163.78 
L 2485.708132 163.78 
L 2571.191132 163.78 
L 2656.674132 163.78 
L 2742.157131 163.78 
L 2827.640131 163.78 
L 2913.123131 163.78 
L 2998.606131 163.78 
L 3084.089131 163.78 
L 3169.57213 163.78 
L 3255.05513 163.78 
L 3340.53813 163.78 
L 3426.02113 163.78 
L 3511.50413 163.78 
L 3596.98713 163.78 
L 3682.470129 163.78 
L 3767.953129 163.78 
L 3853.436129 163.78 
L 3938.919129 163.78 
L 4024.402129 163.78 
L 4109.885128 163.78 
L 4195.368128 163.78 
L 4280.851128 163.78 
L 4366.334128 163.78 
L 4451.817128 163.78 
L 4537.300127 163.78 
L 4622.783127 163.78 
L 4708.266127 163.78 
L 4793.749127 163.78 
L 4879.232127 163.78 
L 4964.715126 163.78 
L 5050.198126 163.78 
L 5135.681126 163.78 
L 5221.164126 163.78 
L 5306.647126 163.78 
L 5392.130126 163.78 
L 5477.613125 163.78 
L 5563.096125 163.78 
L 5648.579125 163.78 
L 5734.062125 163.78 
L 5819.545125 163.78 
L 5905.028124 163.78 
L 5990.511124 163.78 
L 6075.994124 163.78 
L 6161.477124 163.78 
L 6246.960124 163.78 
L 6332.443123 163.78 
L 6417.926123 163.78 
L 6503.409123 163.78 
L 6588.892123 163.78 
L 6674.375123 163.78 
L 6759.858122 163.78 
L 6845.341122 163.78 
L 6930.824122 163.78 
L 7016.307122 163.78 
L 7101.790122 163.78 
L 7187.273122 163.78 
L 7272.756121 163.78 
L 7358.239121 163.78 
L 7443.722121 163.78 
L 7529.205121 163.78 
L 7614.688121 163.78 
L 7700.17112 163.78 
L 7785.65412 163.78 
L 7871.13712 163.78 
L 7956.62012 163.78 
L 8042.10312 163.78 
L 8127.586119 163.78 
L 8213.069119 163.78 
L 8298.552119 163.78 
L 8384.035119 163.78 
L 8469.518119 163.78 
L 8555.001118 163.78 
L 8640.484118 163.78 
L 8725.967118 163.78 
L 8811.450118 163.78 
L 8896.933118 163.78 
L 8982.416118 163.78 
L 9067.899117 163.78 
L 9153.382117 163.78 
L 9238.865117 163.78 
L 9324.348117 163.78 
L 9409.831117 163.78 
L 9495.314116 163.78 
L 9580.797116 163.78 
L 9666.280116 163.78 
L 9751.763116 163.78 
L 9837.246116 163.78 
L 9922.729115 163.78 
L 10008.212115 163.78 
L 10093.695115 163.78 
L 10179.178115 163.78 
L 10264.661115 163.78 
L 10350.144114 163.78 
L 10435.627114 163.78 
L 10521.110114 163.78 
L 10606.593114 163.78 
L 10692.076114 163.78 
L 10777.559113 163.78 
L 10863.042113 163.78 
L 10948.525113 163.78 
L 11034.008113 163.78 
L 11119.491113 163.78 
L 11204.974113 163.78 
L 11290.457112 163.78 
L 11375.940112 163.78 
L 11461.423112 163.78 
L 11546.906112 163.78 
L 11632.389112 163.78 
L 11717.872111 163.78 
L 11803.355111 163.78 
L 11888.838111 163.78 
L 11974.321111 163.78 
L 12059.804111 163.78 
L 12145.28711 163.78 
L 12230.77011 163.78 
L 12316.25311 163.78 
L 12401.73611 163.78 
L 12487.21911 163.78 
L 12572.702109 163.78 
L 12658.185109 163.78 
L 12743.668109 163.78 
L 12829.151109 163.78 
L 12914.634109 163.78 
L 13000.117109 163.78 
L 13085.600108 163.78 
L 13171.083108 163.78 
L 13256.566108 163.78 
L 13342.049108 163.78 
L 13427.532108 163.78 
L 13513.015107 163.78 
L 13598.498107 163.78 
L 13683.981107 163.78 
L 13769.464107 163.78 
L 13854.947107 163.78 
L 13940.430106 163.78 
L 14025.913106 163.78 
L 14111.396106 163.78 
L 14196.879106 163.78 
L 14282.362106 163.78 
L 14367.845105 163.78 
L 14453.328105 163.78 
L 14538.811105 163.78 
L 14624.294105 163.78 
L 14709.777105 163.78 
L 14795.260105 163.78 
L 14880.743104 163.78 
L 14966.226104 163.78 
L 15051.709104 163.78 
L 15137.192104 163.78 
L 15222.675104 163.78 
L 15308.158103 163.78 
L 15393.641103 163.78 
L 15393.641103 163.770667 
L 15393.641103 163.770667 
L 15308.158103 163.765347 
L 15222.675104 163.757535 
L 15137.192104 163.746371 
L 15051.709104 163.730844 
L 14966.226104 163.709837 
L 14880.743104 163.682211 
L 14795.260105 163.646916 
L 14709.777105 163.603143 
L 14624.294105 163.550506 
L 14538.811105 163.48921 
L 14453.328105 163.420216 
L 14367.845105 163.345329 
L 14282.362106 163.267214 
L 14196.879106 163.189299 
L 14111.396106 163.115561 
L 14025.913106 163.050208 
L 13940.430106 162.997293 
L 13854.947107 162.960299 
L 13769.464107 162.941761 
L 13683.981107 162.942979 
L 13598.498107 162.963867 
L 13513.015107 163.002963 
L 13427.532108 163.057598 
L 13342.049108 163.124199 
L 13256.566108 163.198672 
L 13171.083108 163.276816 
L 13085.600108 163.354706 
L 13000.117109 163.429 
L 12914.634109 163.497134 
L 12829.151109 163.557407 
L 12743.668109 163.60896 
L 12658.185109 163.651666 
L 12572.702109 163.685976 
L 12487.21911 163.712734 
L 12401.73611 163.73301 
L 12316.25311 163.747947 
L 12230.77011 163.75865 
L 12145.28711 163.766114 
L 12059.804111 163.771181 
L 11974.321111 163.774531 
L 11888.838111 163.776688 
L 11803.355111 163.778042 
L 11717.872111 163.778869 
L 11632.389112 163.779363 
L 11546.906112 163.779649 
L 11461.423112 163.779811 
L 11375.940112 163.779901 
L 11290.457112 163.779949 
L 11204.974113 163.779975 
L 11119.491113 163.779988 
L 11034.008113 163.779994 
L 10948.525113 163.779997 
L 10863.042113 163.779999 
L 10777.559113 163.779999 
L 10692.076114 163.78 
L 10606.593114 163.78 
L 10521.110114 163.78 
L 10435.627114 163.78 
L 10350.144114 163.78 
L 10264.661115 163.78 
L 10179.178115 163.78 
L 10093.695115 163.78 
L 10008.212115 163.779999 
L 9922.729115 163.779998 
L 9837.246116 163.779996 
L 9751.763116 163.779991 
L 9666.280116 163.779982 
L 9580.797116 163.779963 
L 9495.314116 163.779927 
L 9409.831117 163.779858 
L 9324.348117 163.779729 
L 9238.865117 163.779497 
L 9153.382117 163.779087 
L 9067.899117 163.778382 
L 8982.416118 163.777199 
L 8896.933118 163.775266 
L 8811.450118 163.772184 
L 8725.967118 163.767397 
L 8640.484118 163.760149 
L 8555.001118 163.749457 
L 8469.518119 163.734091 
L 8384.035119 163.712582 
L 8298.552119 163.683268 
L 8213.069119 163.644375 
L 8127.586119 163.594161 
L 8042.10312 163.531097 
L 7956.62012 163.454086 
L 7871.13712 163.362687 
L 7785.65412 163.257322 
L 7700.17112 163.139413 
L 7614.688121 163.011419 
L 7529.205121 162.876745 
L 7443.722121 162.739511 
L 7358.239121 162.604201 
L 7272.756121 162.475224 
L 7187.273122 162.356456 
L 7101.790122 162.25084 
L 7016.307122 162.160106 
L 6930.824122 162.084669 
L 6845.341122 162.02374 
L 6759.858122 161.975613 
L 6674.375123 161.938108 
L 6588.892123 161.909063 
L 6503.409123 161.886813 
L 6417.926123 161.870537 
L 6332.443123 161.860439 
L 6246.960124 161.857699 
L 6161.477124 161.864224 
L 6075.994124 161.882219 
L 5990.511124 161.913659 
L 5905.028124 161.959744 
L 5819.545125 162.020413 
L 5734.062125 162.094008 
L 5648.579125 162.17711 
L 5563.096125 162.264602 
L 5477.613125 162.349924 
L 5392.130126 162.425514 
L 5306.647126 162.48336 
L 5221.164126 162.515632 
L 5135.681126 162.515296 
L 5050.198126 162.476683 
L 4964.715126 162.395936 
L 4879.232127 162.271308 
L 4793.749127 162.103294 
L 4708.266127 161.894567 
L 4622.783127 161.649756 
L 4537.300127 161.375058 
L 4451.817128 161.07774 
L 4366.334128 160.765551 
L 4280.851128 160.446106 
L 4195.368128 160.126287 
L 4109.885128 159.81169 
L 4024.402129 159.506162 
L 3938.919129 159.211447 
L 3853.436129 158.926956 
L 3767.953129 158.649657 
L 3682.470129 158.374096 
L 3596.98713 158.092547 
L 3511.50413 157.795318 
L 3426.02113 157.471213 
L 3340.53813 157.108179 
L 3255.05513 156.69415 
L 3169.57213 156.218042 
L 3084.089131 155.670863 
L 2998.606131 155.04679 
L 2913.123131 154.344075 
L 2827.640131 153.565589 
L 2742.157131 152.718814 
L 2656.674132 151.815167 
L 2571.191132 150.868598 
L 2485.708132 149.893529 
L 2400.225132 148.902297 
L 2314.742132 147.90239 
L 2229.259133 146.893793 
L 2143.776133 145.86682 
L 2058.293133 144.80077 
L 1972.810133 143.66369 
L 1887.327133 142.413462 
L 1801.844134 141.000346 
L 1716.361134 139.371006 
L 1630.878134 137.47391 
L 1545.395134 135.265884 
L 1459.912134 132.719366 
L 1374.429135 129.829774 
L 1288.946135 126.622129 
L 1203.463135 123.156018 
L 1117.980135 119.527887 
L 1032.497135 115.869805 
L 947.014135 112.344146 
L 861.531136 109.134078 
L 776.048136 106.430354 
L 690.565136 104.41551 
L 605.082136 103.247108 
L 519.599136 103.042 
L 434.116137 103.863651 
L 348.633137 105.714281 
L 263.150137 108.533031 
L 177.667137 112.200528 
L 92.184137 116.549361 
L 6.701138 121.379135 
L -78.781862 126.474159 
L -164.264862 131.621532 
L -249.747862 136.627466 
L -335.230862 141.330096 
L -420.713861 145.60765 
L -506.196861 149.381644 
L -591.679861 152.615461 
L -677.162861 155.30923 
L -762.645861 157.492269 
L -848.128861 159.214434 
L -933.61186 160.537569 
L -1019.09486 161.527974 
L -1104.57786 162.250471 
L -1190.06086 162.764258 
L -1275.54386 163.120502 
L -1361.026859 163.361384 
L -1446.509859 163.520248 
L -1531.992859 163.622451 
L -1617.475859 163.686596 
z
" style="fill:#dd8452;fill-opacity:0.25;stroke:#dd8452;"/>
   </g>
   <g id="patch_3">
    <path d="M 44.224063 163.78 
L 44.224063 7.2 
" style="fill:none;stroke:#ffffff;stroke-linecap:square;stroke-linejoin:miter;stroke-width:1.25;"/>
   </g>
   <g id="patch_4">
    <path d="M 44.224063 163.78 
L 845.723398 163.78 
" style="fill:none;stroke:#ffffff;stroke-linecap:square;stroke-linejoin:miter;stroke-width:1.25;"/>
   </g>
  </g>
  <g id="legend_1">
   <g id="text_16">
    <!-- Survived -->
    <g style="fill:#262626;" transform="translate(855.583273 90.299453)scale(0.12 -0.12)">
     <defs>
      <path d="M 4.5 23 
L 13.421875 23.78125 
Q 14.0625 18.40625 16.375 14.96875 
Q 18.703125 11.53125 23.578125 9.40625 
Q 28.46875 7.28125 34.578125 7.28125 
Q 39.984375 7.28125 44.140625 8.890625 
Q 48.296875 10.5 50.3125 13.296875 
Q 52.34375 16.109375 52.34375 19.4375 
Q 52.34375 22.796875 50.390625 25.3125 
Q 48.4375 27.828125 43.953125 29.546875 
Q 41.0625 30.671875 31.203125 33.03125 
Q 21.34375 35.40625 17.390625 37.5 
Q 12.25 40.1875 9.734375 44.15625 
Q 7.234375 48.140625 7.234375 53.078125 
Q 7.234375 58.5 10.296875 63.203125 
Q 13.375 67.921875 19.28125 70.359375 
Q 25.203125 72.796875 32.421875 72.796875 
Q 40.375 72.796875 46.453125 70.234375 
Q 52.546875 67.671875 55.8125 62.6875 
Q 59.078125 57.71875 59.328125 51.421875 
L 50.25 50.734375 
Q 49.515625 57.515625 45.28125 60.984375 
Q 41.0625 64.453125 32.8125 64.453125 
Q 24.21875 64.453125 20.28125 61.296875 
Q 16.359375 58.15625 16.359375 53.71875 
Q 16.359375 49.859375 19.140625 47.359375 
Q 21.875 44.875 33.421875 42.265625 
Q 44.96875 39.65625 49.265625 37.703125 
Q 55.515625 34.8125 58.484375 30.390625 
Q 61.46875 25.984375 61.46875 20.21875 
Q 61.46875 14.5 58.203125 9.4375 
Q 54.9375 4.390625 48.796875 1.578125 
Q 42.671875 -1.21875 35.015625 -1.21875 
Q 25.296875 -1.21875 18.71875 1.609375 
Q 12.15625 4.4375 8.421875 10.125 
Q 4.6875 15.828125 4.5 23 
z
" id="ArialMT-83"/>
      <path d="M 40.578125 0 
L 40.578125 7.625 
Q 34.515625 -1.171875 24.125 -1.171875 
Q 19.53125 -1.171875 15.546875 0.578125 
Q 11.578125 2.34375 9.640625 5 
Q 7.71875 7.671875 6.9375 11.53125 
Q 6.390625 14.109375 6.390625 19.734375 
L 6.390625 51.859375 
L 15.1875 51.859375 
L 15.1875 23.09375 
Q 15.1875 16.21875 15.71875 13.8125 
Q 16.546875 10.359375 19.234375 8.375 
Q 21.921875 6.390625 25.875 6.390625 
Q 29.828125 6.390625 33.296875 8.421875 
Q 36.765625 10.453125 38.203125 13.9375 
Q 39.65625 17.4375 39.65625 24.078125 
L 39.65625 51.859375 
L 48.4375 51.859375 
L 48.4375 0 
z
" id="ArialMT-117"/>
      <path d="M 21 0 
L 1.265625 51.859375 
L 10.546875 51.859375 
L 21.6875 20.796875 
Q 23.484375 15.765625 25 10.359375 
Q 26.171875 14.453125 28.265625 20.21875 
L 39.796875 51.859375 
L 48.828125 51.859375 
L 29.203125 0 
z
" id="ArialMT-118"/>
      <path d="M 6.640625 61.46875 
L 6.640625 71.578125 
L 15.4375 71.578125 
L 15.4375 61.46875 
z
M 6.640625 0 
L 6.640625 51.859375 
L 15.4375 51.859375 
L 15.4375 0 
z
" id="ArialMT-105"/>
      <path d="M 40.234375 0 
L 40.234375 6.546875 
Q 35.296875 -1.171875 25.734375 -1.171875 
Q 19.53125 -1.171875 14.328125 2.25 
Q 9.125 5.671875 6.265625 11.796875 
Q 3.421875 17.921875 3.421875 25.875 
Q 3.421875 33.640625 6 39.96875 
Q 8.59375 46.296875 13.765625 49.65625 
Q 18.953125 53.03125 25.34375 53.03125 
Q 30.03125 53.03125 33.6875 51.046875 
Q 37.359375 49.078125 39.65625 45.90625 
L 39.65625 71.578125 
L 48.390625 71.578125 
L 48.390625 0 
z
M 12.453125 25.875 
Q 12.453125 15.921875 16.640625 10.984375 
Q 20.84375 6.0625 26.5625 6.0625 
Q 32.328125 6.0625 36.34375 10.765625 
Q 40.375 15.484375 40.375 25.140625 
Q 40.375 35.796875 36.265625 40.765625 
Q 32.171875 45.75 26.171875 45.75 
Q 20.3125 45.75 16.375 40.96875 
Q 12.453125 36.1875 12.453125 25.875 
z
" id="ArialMT-100"/>
     </defs>
     <use xlink:href="#ArialMT-83"/>
     <use x="66.699219" xlink:href="#ArialMT-117"/>
     <use x="122.314453" xlink:href="#ArialMT-114"/>
     <use x="155.615234" xlink:href="#ArialMT-118"/>
     <use x="205.615234" xlink:href="#ArialMT-105"/>
     <use x="227.832031" xlink:href="#ArialMT-118"/>
     <use x="277.832031" xlink:href="#ArialMT-101"/>
     <use x="333.447266" xlink:href="#ArialMT-100"/>
    </g>
   </g>
   <g id="patch_5">
    <path d="M 860.46757 106.058047 
L 882.46757 106.058047 
L 882.46757 98.358047 
L 860.46757 98.358047 
z
" style="fill:#4c72b0;fill-opacity:0.25;stroke:#4c72b0;stroke-linejoin:miter;"/>
   </g>
   <g id="text_17">
    <!-- 0 -->
    <g style="fill:#262626;" transform="translate(891.26757 106.058047)scale(0.11 -0.11)">
     <use xlink:href="#ArialMT-48"/>
    </g>
   </g>
   <g id="patch_6">
    <path d="M 860.46757 121.617891 
L 882.46757 121.617891 
L 882.46757 113.917891 
L 860.46757 113.917891 
z
" style="fill:#dd8452;fill-opacity:0.25;stroke:#dd8452;stroke-linejoin:miter;"/>
   </g>
   <g id="text_18">
    <!-- 1 -->
    <g style="fill:#262626;" transform="translate(891.26757 121.617891)scale(0.11 -0.11)">
     <use xlink:href="#ArialMT-49"/>
    </g>
   </g>
  </g>
 </g>
 <defs>
  <clipPath id="p3ad536bc5d">
   <rect height="156.58" width="801.499336" x="44.224063" y="7.2"/>
  </clipPath>
 </defs>
</svg>
