<?xml version="1.0" encoding="utf-8" standalone="no"?>
<!DOCTYPE svg PUBLIC "-//W3C//DTD SVG 1.1//EN"
  "http://www.w3.org/Graphics/SVG/1.1/DTD/svg11.dtd">
<!-- Created with matplotlib (https://matplotlib.org/) -->
<svg height="357.238125pt" version="1.1" viewBox="0 0 603.257812 357.238125" width="603.257812pt" xmlns="http://www.w3.org/2000/svg" xmlns:xlink="http://www.w3.org/1999/xlink">
 <metadata>
  <rdf:RDF xmlns:cc="http://creativecommons.org/ns#" xmlns:dc="http://purl.org/dc/elements/1.1/" xmlns:rdf="http://www.w3.org/1999/02/22-rdf-syntax-ns#">
   <cc:Work>
    <dc:type rdf:resource="http://purl.org/dc/dcmitype/StillImage"/>
    <dc:date>2020-10-21T20:53:53.164800</dc:date>
    <dc:format>image/svg+xml</dc:format>
    <dc:creator>
     <cc:Agent>
      <dc:title>Matplotlib v3.3.2, https://matplotlib.org/</dc:title>
     </cc:Agent>
    </dc:creator>
   </cc:Work>
  </rdf:RDF>
 </metadata>
 <defs>
  <style type="text/css">*{stroke-linecap:butt;stroke-linejoin:round;}</style>
 </defs>
 <g id="figure_1">
  <g id="patch_1">
   <path d="M 0 357.238125 
L 603.257812 357.238125 
L 603.257812 0 
L 0 0 
z
" style="fill:none;"/>
  </g>
  <g id="axes_1">
   <g id="patch_2">
    <path d="M 26.925 333.36 
L 584.925 333.36 
L 584.925 7.2 
L 26.925 7.2 
z
" style="fill:#ffffff;"/>
   </g>
   <g id="matplotlib.axis_1">
    <g id="xtick_1">
     <g id="line2d_1">
      <defs>
       <path d="M 0 0 
L 0 3.5 
" id="m559c152c23" style="stroke:#000000;stroke-width:0.8;"/>
      </defs>
      <g>
       <use style="stroke:#000000;stroke-width:0.8;" x="26.925" xlink:href="#m559c152c23" y="333.36"/>
      </g>
     </g>
     <g id="text_1">
      <!-- 0.00 -->
      <g transform="translate(15.792187 347.958438)scale(0.1 -0.1)">
       <defs>
        <path d="M 31.78125 66.40625 
Q 24.171875 66.40625 20.328125 58.90625 
Q 16.5 51.421875 16.5 36.375 
Q 16.5 21.390625 20.328125 13.890625 
Q 24.171875 6.390625 31.78125 6.390625 
Q 39.453125 6.390625 43.28125 13.890625 
Q 47.125 21.390625 47.125 36.375 
Q 47.125 51.421875 43.28125 58.90625 
Q 39.453125 66.40625 31.78125 66.40625 
z
M 31.78125 74.21875 
Q 44.046875 74.21875 50.515625 64.515625 
Q 56.984375 54.828125 56.984375 36.375 
Q 56.984375 17.96875 50.515625 8.265625 
Q 44.046875 -1.421875 31.78125 -1.421875 
Q 19.53125 -1.421875 13.0625 8.265625 
Q 6.59375 17.96875 6.59375 36.375 
Q 6.59375 54.828125 13.0625 64.515625 
Q 19.53125 74.21875 31.78125 74.21875 
z
" id="DejaVuSans-48"/>
        <path d="M 10.6875 12.40625 
L 21 12.40625 
L 21 0 
L 10.6875 0 
z
" id="DejaVuSans-46"/>
       </defs>
       <use xlink:href="#DejaVuSans-48"/>
       <use x="63.623047" xlink:href="#DejaVuSans-46"/>
       <use x="95.410156" xlink:href="#DejaVuSans-48"/>
       <use x="159.033203" xlink:href="#DejaVuSans-48"/>
      </g>
     </g>
    </g>
    <g id="xtick_2">
     <g id="line2d_2">
      <g>
       <use style="stroke:#000000;stroke-width:0.8;" x="96.675" xlink:href="#m559c152c23" y="333.36"/>
      </g>
     </g>
     <g id="text_2">
      <!-- 0.25 -->
      <g transform="translate(85.542187 347.958438)scale(0.1 -0.1)">
       <defs>
        <path d="M 19.1875 8.296875 
L 53.609375 8.296875 
L 53.609375 0 
L 7.328125 0 
L 7.328125 8.296875 
Q 12.9375 14.109375 22.625 23.890625 
Q 32.328125 33.6875 34.8125 36.53125 
Q 39.546875 41.84375 41.421875 45.53125 
Q 43.3125 49.21875 43.3125 52.78125 
Q 43.3125 58.59375 39.234375 62.25 
Q 35.15625 65.921875 28.609375 65.921875 
Q 23.96875 65.921875 18.8125 64.3125 
Q 13.671875 62.703125 7.8125 59.421875 
L 7.8125 69.390625 
Q 13.765625 71.78125 18.9375 73 
Q 24.125 74.21875 28.421875 74.21875 
Q 39.75 74.21875 46.484375 68.546875 
Q 53.21875 62.890625 53.21875 53.421875 
Q 53.21875 48.921875 51.53125 44.890625 
Q 49.859375 40.875 45.40625 35.40625 
Q 44.1875 33.984375 37.640625 27.21875 
Q 31.109375 20.453125 19.1875 8.296875 
z
" id="DejaVuSans-50"/>
        <path d="M 10.796875 72.90625 
L 49.515625 72.90625 
L 49.515625 64.59375 
L 19.828125 64.59375 
L 19.828125 46.734375 
Q 21.96875 47.46875 24.109375 47.828125 
Q 26.265625 48.1875 28.421875 48.1875 
Q 40.625 48.1875 47.75 41.5 
Q 54.890625 34.8125 54.890625 23.390625 
Q 54.890625 11.625 47.5625 5.09375 
Q 40.234375 -1.421875 26.90625 -1.421875 
Q 22.3125 -1.421875 17.546875 -0.640625 
Q 12.796875 0.140625 7.71875 1.703125 
L 7.71875 11.625 
Q 12.109375 9.234375 16.796875 8.0625 
Q 21.484375 6.890625 26.703125 6.890625 
Q 35.15625 6.890625 40.078125 11.328125 
Q 45.015625 15.765625 45.015625 23.390625 
Q 45.015625 31 40.078125 35.4375 
Q 35.15625 39.890625 26.703125 39.890625 
Q 22.75 39.890625 18.8125 39.015625 
Q 14.890625 38.140625 10.796875 36.28125 
z
" id="DejaVuSans-53"/>
       </defs>
       <use xlink:href="#DejaVuSans-48"/>
       <use x="63.623047" xlink:href="#DejaVuSans-46"/>
       <use x="95.410156" xlink:href="#DejaVuSans-50"/>
       <use x="159.033203" xlink:href="#DejaVuSans-53"/>
      </g>
     </g>
    </g>
    <g id="xtick_3">
     <g id="line2d_3">
      <g>
       <use style="stroke:#000000;stroke-width:0.8;" x="166.425" xlink:href="#m559c152c23" y="333.36"/>
      </g>
     </g>
     <g id="text_3">
      <!-- 0.50 -->
      <g transform="translate(155.292188 347.958438)scale(0.1 -0.1)">
       <use xlink:href="#DejaVuSans-48"/>
       <use x="63.623047" xlink:href="#DejaVuSans-46"/>
       <use x="95.410156" xlink:href="#DejaVuSans-53"/>
       <use x="159.033203" xlink:href="#DejaVuSans-48"/>
      </g>
     </g>
    </g>
    <g id="xtick_4">
     <g id="line2d_4">
      <g>
       <use style="stroke:#000000;stroke-width:0.8;" x="236.175" xlink:href="#m559c152c23" y="333.36"/>
      </g>
     </g>
     <g id="text_4">
      <!-- 0.75 -->
      <g transform="translate(225.042188 347.958438)scale(0.1 -0.1)">
       <defs>
        <path d="M 8.203125 72.90625 
L 55.078125 72.90625 
L 55.078125 68.703125 
L 28.609375 0 
L 18.3125 0 
L 43.21875 64.59375 
L 8.203125 64.59375 
z
" id="DejaVuSans-55"/>
       </defs>
       <use xlink:href="#DejaVuSans-48"/>
       <use x="63.623047" xlink:href="#DejaVuSans-46"/>
       <use x="95.410156" xlink:href="#DejaVuSans-55"/>
       <use x="159.033203" xlink:href="#DejaVuSans-53"/>
      </g>
     </g>
    </g>
    <g id="xtick_5">
     <g id="line2d_5">
      <g>
       <use style="stroke:#000000;stroke-width:0.8;" x="305.925" xlink:href="#m559c152c23" y="333.36"/>
      </g>
     </g>
     <g id="text_5">
      <!-- 1.00 -->
      <g transform="translate(294.792188 347.958438)scale(0.1 -0.1)">
       <defs>
        <path d="M 12.40625 8.296875 
L 28.515625 8.296875 
L 28.515625 63.921875 
L 10.984375 60.40625 
L 10.984375 69.390625 
L 28.421875 72.90625 
L 38.28125 72.90625 
L 38.28125 8.296875 
L 54.390625 8.296875 
L 54.390625 0 
L 12.40625 0 
z
" id="DejaVuSans-49"/>
       </defs>
       <use xlink:href="#DejaVuSans-49"/>
       <use x="63.623047" xlink:href="#DejaVuSans-46"/>
       <use x="95.410156" xlink:href="#DejaVuSans-48"/>
       <use x="159.033203" xlink:href="#DejaVuSans-48"/>
      </g>
     </g>
    </g>
    <g id="xtick_6">
     <g id="line2d_6">
      <g>
       <use style="stroke:#000000;stroke-width:0.8;" x="375.675" xlink:href="#m559c152c23" y="333.36"/>
      </g>
     </g>
     <g id="text_6">
      <!-- 1.25 -->
      <g transform="translate(364.542188 347.958438)scale(0.1 -0.1)">
       <use xlink:href="#DejaVuSans-49"/>
       <use x="63.623047" xlink:href="#DejaVuSans-46"/>
       <use x="95.410156" xlink:href="#DejaVuSans-50"/>
       <use x="159.033203" xlink:href="#DejaVuSans-53"/>
      </g>
     </g>
    </g>
    <g id="xtick_7">
     <g id="line2d_7">
      <g>
       <use style="stroke:#000000;stroke-width:0.8;" x="445.425" xlink:href="#m559c152c23" y="333.36"/>
      </g>
     </g>
     <g id="text_7">
      <!-- 1.50 -->
      <g transform="translate(434.292188 347.958438)scale(0.1 -0.1)">
       <use xlink:href="#DejaVuSans-49"/>
       <use x="63.623047" xlink:href="#DejaVuSans-46"/>
       <use x="95.410156" xlink:href="#DejaVuSans-53"/>
       <use x="159.033203" xlink:href="#DejaVuSans-48"/>
      </g>
     </g>
    </g>
    <g id="xtick_8">
     <g id="line2d_8">
      <g>
       <use style="stroke:#000000;stroke-width:0.8;" x="515.175" xlink:href="#m559c152c23" y="333.36"/>
      </g>
     </g>
     <g id="text_8">
      <!-- 1.75 -->
      <g transform="translate(504.042187 347.958438)scale(0.1 -0.1)">
       <use xlink:href="#DejaVuSans-49"/>
       <use x="63.623047" xlink:href="#DejaVuSans-46"/>
       <use x="95.410156" xlink:href="#DejaVuSans-55"/>
       <use x="159.033203" xlink:href="#DejaVuSans-53"/>
      </g>
     </g>
    </g>
    <g id="xtick_9">
     <g id="line2d_9">
      <g>
       <use style="stroke:#000000;stroke-width:0.8;" x="584.925" xlink:href="#m559c152c23" y="333.36"/>
      </g>
     </g>
     <g id="text_9">
      <!-- 2.00 -->
      <g transform="translate(573.792187 347.958438)scale(0.1 -0.1)">
       <use xlink:href="#DejaVuSans-50"/>
       <use x="63.623047" xlink:href="#DejaVuSans-46"/>
       <use x="95.410156" xlink:href="#DejaVuSans-48"/>
       <use x="159.033203" xlink:href="#DejaVuSans-48"/>
      </g>
     </g>
    </g>
   </g>
   <g id="matplotlib.axis_2">
    <g id="ytick_1">
     <g id="line2d_10">
      <defs>
       <path d="M 0 0 
L -3.5 0 
" id="mae8ea25b59" style="stroke:#000000;stroke-width:0.8;"/>
      </defs>
      <g>
       <use style="stroke:#000000;stroke-width:0.8;" x="26.925" xlink:href="#mae8ea25b59" y="333.36"/>
      </g>
     </g>
     <g id="text_10">
      <!-- 0 -->
      <g transform="translate(13.5625 337.159219)scale(0.1 -0.1)">
       <use xlink:href="#DejaVuSans-48"/>
      </g>
     </g>
    </g>
    <g id="ytick_2">
     <g id="line2d_11">
      <g>
       <use style="stroke:#000000;stroke-width:0.8;" x="26.925" xlink:href="#mae8ea25b59" y="289.872"/>
      </g>
     </g>
     <g id="text_11">
      <!-- 2 -->
      <g transform="translate(13.5625 293.671219)scale(0.1 -0.1)">
       <use xlink:href="#DejaVuSans-50"/>
      </g>
     </g>
    </g>
    <g id="ytick_3">
     <g id="line2d_12">
      <g>
       <use style="stroke:#000000;stroke-width:0.8;" x="26.925" xlink:href="#mae8ea25b59" y="246.384"/>
      </g>
     </g>
     <g id="text_12">
      <!-- 4 -->
      <g transform="translate(13.5625 250.183219)scale(0.1 -0.1)">
       <defs>
        <path d="M 37.796875 64.3125 
L 12.890625 25.390625 
L 37.796875 25.390625 
z
M 35.203125 72.90625 
L 47.609375 72.90625 
L 47.609375 25.390625 
L 58.015625 25.390625 
L 58.015625 17.1875 
L 47.609375 17.1875 
L 47.609375 0 
L 37.796875 0 
L 37.796875 17.1875 
L 4.890625 17.1875 
L 4.890625 26.703125 
z
" id="DejaVuSans-52"/>
       </defs>
       <use xlink:href="#DejaVuSans-52"/>
      </g>
     </g>
    </g>
    <g id="ytick_4">
     <g id="line2d_13">
      <g>
       <use style="stroke:#000000;stroke-width:0.8;" x="26.925" xlink:href="#mae8ea25b59" y="202.896"/>
      </g>
     </g>
     <g id="text_13">
      <!-- 6 -->
      <g transform="translate(13.5625 206.695219)scale(0.1 -0.1)">
       <defs>
        <path d="M 33.015625 40.375 
Q 26.375 40.375 22.484375 35.828125 
Q 18.609375 31.296875 18.609375 23.390625 
Q 18.609375 15.53125 22.484375 10.953125 
Q 26.375 6.390625 33.015625 6.390625 
Q 39.65625 6.390625 43.53125 10.953125 
Q 47.40625 15.53125 47.40625 23.390625 
Q 47.40625 31.296875 43.53125 35.828125 
Q 39.65625 40.375 33.015625 40.375 
z
M 52.59375 71.296875 
L 52.59375 62.3125 
Q 48.875 64.0625 45.09375 64.984375 
Q 41.3125 65.921875 37.59375 65.921875 
Q 27.828125 65.921875 22.671875 59.328125 
Q 17.53125 52.734375 16.796875 39.40625 
Q 19.671875 43.65625 24.015625 45.921875 
Q 28.375 48.1875 33.59375 48.1875 
Q 44.578125 48.1875 50.953125 41.515625 
Q 57.328125 34.859375 57.328125 23.390625 
Q 57.328125 12.15625 50.6875 5.359375 
Q 44.046875 -1.421875 33.015625 -1.421875 
Q 20.359375 -1.421875 13.671875 8.265625 
Q 6.984375 17.96875 6.984375 36.375 
Q 6.984375 53.65625 15.1875 63.9375 
Q 23.390625 74.21875 37.203125 74.21875 
Q 40.921875 74.21875 44.703125 73.484375 
Q 48.484375 72.75 52.59375 71.296875 
z
" id="DejaVuSans-54"/>
       </defs>
       <use xlink:href="#DejaVuSans-54"/>
      </g>
     </g>
    </g>
    <g id="ytick_5">
     <g id="line2d_14">
      <g>
       <use style="stroke:#000000;stroke-width:0.8;" x="26.925" xlink:href="#mae8ea25b59" y="159.408"/>
      </g>
     </g>
     <g id="text_14">
      <!-- 8 -->
      <g transform="translate(13.5625 163.207219)scale(0.1 -0.1)">
       <defs>
        <path d="M 31.78125 34.625 
Q 24.75 34.625 20.71875 30.859375 
Q 16.703125 27.09375 16.703125 20.515625 
Q 16.703125 13.921875 20.71875 10.15625 
Q 24.75 6.390625 31.78125 6.390625 
Q 38.8125 6.390625 42.859375 10.171875 
Q 46.921875 13.96875 46.921875 20.515625 
Q 46.921875 27.09375 42.890625 30.859375 
Q 38.875 34.625 31.78125 34.625 
z
M 21.921875 38.8125 
Q 15.578125 40.375 12.03125 44.71875 
Q 8.5 49.078125 8.5 55.328125 
Q 8.5 64.0625 14.71875 69.140625 
Q 20.953125 74.21875 31.78125 74.21875 
Q 42.671875 74.21875 48.875 69.140625 
Q 55.078125 64.0625 55.078125 55.328125 
Q 55.078125 49.078125 51.53125 44.71875 
Q 48 40.375 41.703125 38.8125 
Q 48.828125 37.15625 52.796875 32.3125 
Q 56.78125 27.484375 56.78125 20.515625 
Q 56.78125 9.90625 50.3125 4.234375 
Q 43.84375 -1.421875 31.78125 -1.421875 
Q 19.734375 -1.421875 13.25 4.234375 
Q 6.78125 9.90625 6.78125 20.515625 
Q 6.78125 27.484375 10.78125 32.3125 
Q 14.796875 37.15625 21.921875 38.8125 
z
M 18.3125 54.390625 
Q 18.3125 48.734375 21.84375 45.5625 
Q 25.390625 42.390625 31.78125 42.390625 
Q 38.140625 42.390625 41.71875 45.5625 
Q 45.3125 48.734375 45.3125 54.390625 
Q 45.3125 60.0625 41.71875 63.234375 
Q 38.140625 66.40625 31.78125 66.40625 
Q 25.390625 66.40625 21.84375 63.234375 
Q 18.3125 60.0625 18.3125 54.390625 
z
" id="DejaVuSans-56"/>
       </defs>
       <use xlink:href="#DejaVuSans-56"/>
      </g>
     </g>
    </g>
    <g id="ytick_6">
     <g id="line2d_15">
      <g>
       <use style="stroke:#000000;stroke-width:0.8;" x="26.925" xlink:href="#mae8ea25b59" y="115.92"/>
      </g>
     </g>
     <g id="text_15">
      <!-- 10 -->
      <g transform="translate(7.2 119.719219)scale(0.1 -0.1)">
       <use xlink:href="#DejaVuSans-49"/>
       <use x="63.623047" xlink:href="#DejaVuSans-48"/>
      </g>
     </g>
    </g>
    <g id="ytick_7">
     <g id="line2d_16">
      <g>
       <use style="stroke:#000000;stroke-width:0.8;" x="26.925" xlink:href="#mae8ea25b59" y="72.432"/>
      </g>
     </g>
     <g id="text_16">
      <!-- 12 -->
      <g transform="translate(7.2 76.231219)scale(0.1 -0.1)">
       <use xlink:href="#DejaVuSans-49"/>
       <use x="63.623047" xlink:href="#DejaVuSans-50"/>
      </g>
     </g>
    </g>
    <g id="ytick_8">
     <g id="line2d_17">
      <g>
       <use style="stroke:#000000;stroke-width:0.8;" x="26.925" xlink:href="#mae8ea25b59" y="28.944"/>
      </g>
     </g>
     <g id="text_17">
      <!-- 14 -->
      <g transform="translate(7.2 32.743219)scale(0.1 -0.1)">
       <use xlink:href="#DejaVuSans-49"/>
       <use x="63.623047" xlink:href="#DejaVuSans-52"/>
      </g>
     </g>
    </g>
   </g>
   <g id="line2d_18">
    <path clip-path="url(#paf42b3be6f)" d="M 26.925 246.099002 
L 584.925 112.9775 
" style="fill:none;stroke:#ff0000;stroke-dasharray:5.55,2.4;stroke-dashoffset:0;stroke-width:1.5;"/>
   </g>
   <g id="line2d_19">
    <defs>
     <path d="M 0 1.5 
C 0.397805 1.5 0.77937 1.341951 1.06066 1.06066 
C 1.341951 0.77937 1.5 0.397805 1.5 0 
C 1.5 -0.397805 1.341951 -0.77937 1.06066 -1.06066 
C 0.77937 -1.341951 0.397805 -1.5 0 -1.5 
C -0.397805 -1.5 -0.77937 -1.341951 -1.06066 -1.06066 
C -1.341951 -0.77937 -1.5 -0.397805 -1.5 0 
C -1.5 0.397805 -1.341951 0.77937 -1.06066 1.06066 
C -0.77937 1.341951 -0.397805 1.5 0 1.5 
z
" id="mb70d7c7cc9" style="stroke:#0000ff;"/>
    </defs>
    <g clip-path="url(#paf42b3be6f)">
     <use style="fill:#0000ff;stroke:#0000ff;" x="502.911517" xlink:href="#mb70d7c7cc9" y="151.601411"/>
     <use style="fill:#0000ff;stroke:#0000ff;" x="281.924585" xlink:href="#mb70d7c7cc9" y="197.469624"/>
     <use style="fill:#0000ff;stroke:#0000ff;" x="220.976894" xlink:href="#mb70d7c7cc9" y="206.737451"/>
     <use style="fill:#0000ff;stroke:#0000ff;" x="306.410815" xlink:href="#mb70d7c7cc9" y="174.925736"/>
     <use style="fill:#0000ff;stroke:#0000ff;" x="521.08227" xlink:href="#mb70d7c7cc9" y="193.792876"/>
     <use style="fill:#0000ff;stroke:#0000ff;" x="527.695162" xlink:href="#mb70d7c7cc9" y="132.545241"/>
     <use style="fill:#0000ff;stroke:#0000ff;" x="157.875657" xlink:href="#mb70d7c7cc9" y="191.714633"/>
     <use style="fill:#0000ff;stroke:#0000ff;" x="265.339039" xlink:href="#mb70d7c7cc9" y="183.228715"/>
     <use style="fill:#0000ff;stroke:#0000ff;" x="403.22056" xlink:href="#mb70d7c7cc9" y="133.711429"/>
     <use style="fill:#0000ff;stroke:#0000ff;" x="333.54108" xlink:href="#mb70d7c7cc9" y="203.296399"/>
     <use style="fill:#0000ff;stroke:#0000ff;" x="358.93245" xlink:href="#mb70d7c7cc9" y="143.821131"/>
     <use style="fill:#0000ff;stroke:#0000ff;" x="332.842427" xlink:href="#mb70d7c7cc9" y="144.879498"/>
     <use style="fill:#0000ff;stroke:#0000ff;" x="282.453031" xlink:href="#mb70d7c7cc9" y="212.503838"/>
     <use style="fill:#0000ff;stroke:#0000ff;" x="52.709663" xlink:href="#mb70d7c7cc9" y="238.209779"/>
     <use style="fill:#0000ff;stroke:#0000ff;" x="44.566599" xlink:href="#mb70d7c7cc9" y="227.855562"/>
     <use style="fill:#0000ff;stroke:#0000ff;" x="474.795062" xlink:href="#mb70d7c7cc9" y="94.607274"/>
     <use style="fill:#0000ff;stroke:#0000ff;" x="269.948937" xlink:href="#mb70d7c7cc9" y="204.682639"/>
     <use style="fill:#0000ff;stroke:#0000ff;" x="177.592206" xlink:href="#mb70d7c7cc9" y="260.574564"/>
     <use style="fill:#0000ff;stroke:#0000ff;" x="353.525533" xlink:href="#mb70d7c7cc9" y="166.491377"/>
     <use style="fill:#0000ff;stroke:#0000ff;" x="58.774817" xlink:href="#mb70d7c7cc9" y="280.633483"/>
     <use style="fill:#0000ff;stroke:#0000ff;" x="180.865902" xlink:href="#mb70d7c7cc9" y="192.095203"/>
     <use style="fill:#0000ff;stroke:#0000ff;" x="245.128946" xlink:href="#mb70d7c7cc9" y="197.214103"/>
     <use style="fill:#0000ff;stroke:#0000ff;" x="84.773291" xlink:href="#mb70d7c7cc9" y="253.609241"/>
     <use style="fill:#0000ff;stroke:#0000ff;" x="291.982394" xlink:href="#mb70d7c7cc9" y="199.590372"/>
     <use style="fill:#0000ff;stroke:#0000ff;" x="518.114796" xlink:href="#mb70d7c7cc9" y="108.3569"/>
     <use style="fill:#0000ff;stroke:#0000ff;" x="504.466512" xlink:href="#mb70d7c7cc9" y="109.941564"/>
     <use style="fill:#0000ff;stroke:#0000ff;" x="274.825642" xlink:href="#mb70d7c7cc9" y="218.461283"/>
     <use style="fill:#0000ff;stroke:#0000ff;" x="520.7924" xlink:href="#mb70d7c7cc9" y="153.940619"/>
     <use style="fill:#0000ff;stroke:#0000ff;" x="292.272484" xlink:href="#mb70d7c7cc9" y="212.867443"/>
     <use style="fill:#0000ff;stroke:#0000ff;" x="403.551518" xlink:href="#mb70d7c7cc9" y="180.263432"/>
     <use style="fill:#0000ff;stroke:#0000ff;" x="103.937531" xlink:href="#mb70d7c7cc9" y="209.777834"/>
     <use style="fill:#0000ff;stroke:#0000ff;" x="508.435242" xlink:href="#mb70d7c7cc9" y="106.961654"/>
     <use style="fill:#0000ff;stroke:#0000ff;" x="52.125311" xlink:href="#mb70d7c7cc9" y="240.005349"/>
     <use style="fill:#0000ff;stroke:#0000ff;" x="218.070416" xlink:href="#mb70d7c7cc9" y="180.784762"/>
     <use style="fill:#0000ff;stroke:#0000ff;" x="113.249892" xlink:href="#mb70d7c7cc9" y="217.877008"/>
     <use style="fill:#0000ff;stroke:#0000ff;" x="296.299418" xlink:href="#mb70d7c7cc9" y="203.271918"/>
     <use style="fill:#0000ff;stroke:#0000ff;" x="566.036027" xlink:href="#mb70d7c7cc9" y="92.876674"/>
     <use style="fill:#0000ff;stroke:#0000ff;" x="456.180488" xlink:href="#mb70d7c7cc9" y="111.495005"/>
     <use style="fill:#0000ff;stroke:#0000ff;" x="510.148476" xlink:href="#mb70d7c7cc9" y="157.346394"/>
     <use style="fill:#0000ff;stroke:#0000ff;" x="196.254608" xlink:href="#mb70d7c7cc9" y="187.436063"/>
     <use style="fill:#0000ff;stroke:#0000ff;" x="222.906288" xlink:href="#mb70d7c7cc9" y="164.685498"/>
     <use style="fill:#0000ff;stroke:#0000ff;" x="177.760608" xlink:href="#mb70d7c7cc9" y="209.073556"/>
     <use style="fill:#0000ff;stroke:#0000ff;" x="185.678515" xlink:href="#mb70d7c7cc9" y="179.597926"/>
     <use style="fill:#0000ff;stroke:#0000ff;" x="478.114213" xlink:href="#mb70d7c7cc9" y="154.152854"/>
     <use style="fill:#0000ff;stroke:#0000ff;" x="513.465693" xlink:href="#mb70d7c7cc9" y="127.915213"/>
     <use style="fill:#0000ff;stroke:#0000ff;" x="195.588451" xlink:href="#mb70d7c7cc9" y="157.851776"/>
     <use style="fill:#0000ff;stroke:#0000ff;" x="272.725523" xlink:href="#mb70d7c7cc9" y="174.616565"/>
     <use style="fill:#0000ff;stroke:#0000ff;" x="324.565502" xlink:href="#mb70d7c7cc9" y="159.606243"/>
     <use style="fill:#0000ff;stroke:#0000ff;" x="452.052077" xlink:href="#mb70d7c7cc9" y="168.045287"/>
     <use style="fill:#0000ff;stroke:#0000ff;" x="412.222019" xlink:href="#mb70d7c7cc9" y="166.214716"/>
     <use style="fill:#0000ff;stroke:#0000ff;" x="89.785328" xlink:href="#mb70d7c7cc9" y="195.754111"/>
     <use style="fill:#0000ff;stroke:#0000ff;" x="149.021009" xlink:href="#mb70d7c7cc9" y="202.326019"/>
     <use style="fill:#0000ff;stroke:#0000ff;" x="191.350478" xlink:href="#mb70d7c7cc9" y="188.355053"/>
     <use style="fill:#0000ff;stroke:#0000ff;" x="118.792199" xlink:href="#mb70d7c7cc9" y="260.507361"/>
     <use style="fill:#0000ff;stroke:#0000ff;" x="301.398641" xlink:href="#mb70d7c7cc9" y="237.772531"/>
     <use style="fill:#0000ff;stroke:#0000ff;" x="578.232401" xlink:href="#mb70d7c7cc9" y="91.712239"/>
     <use style="fill:#0000ff;stroke:#0000ff;" x="566.114068" xlink:href="#mb70d7c7cc9" y="85.41484"/>
     <use style="fill:#0000ff;stroke:#0000ff;" x="244.397976" xlink:href="#mb70d7c7cc9" y="157.948697"/>
     <use style="fill:#0000ff;stroke:#0000ff;" x="425.605391" xlink:href="#mb70d7c7cc9" y="181.716456"/>
     <use style="fill:#0000ff;stroke:#0000ff;" x="155.785647" xlink:href="#mb70d7c7cc9" y="248.904013"/>
     <use style="fill:#0000ff;stroke:#0000ff;" x="319.515879" xlink:href="#mb70d7c7cc9" y="164.234265"/>
     <use style="fill:#0000ff;stroke:#0000ff;" x="199.164076" xlink:href="#mb70d7c7cc9" y="206.911668"/>
     <use style="fill:#0000ff;stroke:#0000ff;" x="283.513453" xlink:href="#mb70d7c7cc9" y="161.752813"/>
     <use style="fill:#0000ff;stroke:#0000ff;" x="123.384115" xlink:href="#mb70d7c7cc9" y="225.431527"/>
     <use style="fill:#0000ff;stroke:#0000ff;" x="74.307348" xlink:href="#mb70d7c7cc9" y="225.072766"/>
     <use style="fill:#0000ff;stroke:#0000ff;" x="123.945747" xlink:href="#mb70d7c7cc9" y="214.941272"/>
     <use style="fill:#0000ff;stroke:#0000ff;" x="412.347987" xlink:href="#mb70d7c7cc9" y="168.907368"/>
     <use style="fill:#0000ff;stroke:#0000ff;" x="457.658545" xlink:href="#mb70d7c7cc9" y="148.377895"/>
     <use style="fill:#0000ff;stroke:#0000ff;" x="225.747113" xlink:href="#mb70d7c7cc9" y="208.602824"/>
     <use style="fill:#0000ff;stroke:#0000ff;" x="288.738828" xlink:href="#mb70d7c7cc9" y="195.237672"/>
     <use style="fill:#0000ff;stroke:#0000ff;" x="178.288676" xlink:href="#mb70d7c7cc9" y="209.891709"/>
     <use style="fill:#0000ff;stroke:#0000ff;" x="503.719947" xlink:href="#mb70d7c7cc9" y="118.421831"/>
     <use style="fill:#0000ff;stroke:#0000ff;" x="404.5744" xlink:href="#mb70d7c7cc9" y="186.951601"/>
     <use style="fill:#0000ff;stroke:#0000ff;" x="211.729445" xlink:href="#mb70d7c7cc9" y="248.327454"/>
     <use style="fill:#0000ff;stroke:#0000ff;" x="326.782644" xlink:href="#mb70d7c7cc9" y="154.201418"/>
     <use style="fill:#0000ff;stroke:#0000ff;" x="151.403729" xlink:href="#mb70d7c7cc9" y="213.349362"/>
     <use style="fill:#0000ff;stroke:#0000ff;" x="342.29276" xlink:href="#mb70d7c7cc9" y="193.154461"/>
     <use style="fill:#0000ff;stroke:#0000ff;" x="512.672958" xlink:href="#mb70d7c7cc9" y="121.549912"/>
     <use style="fill:#0000ff;stroke:#0000ff;" x="555.598438" xlink:href="#mb70d7c7cc9" y="133.309949"/>
     <use style="fill:#0000ff;stroke:#0000ff;" x="188.132752" xlink:href="#mb70d7c7cc9" y="237.786565"/>
     <use style="fill:#0000ff;stroke:#0000ff;" x="395.585393" xlink:href="#mb70d7c7cc9" y="145.693502"/>
     <use style="fill:#0000ff;stroke:#0000ff;" x="370.689737" xlink:href="#mb70d7c7cc9" y="146.077191"/>
     <use style="fill:#0000ff;stroke:#0000ff;" x="486.351555" xlink:href="#mb70d7c7cc9" y="135.763914"/>
     <use style="fill:#0000ff;stroke:#0000ff;" x="226.33834" xlink:href="#mb70d7c7cc9" y="202.734133"/>
     <use style="fill:#0000ff;stroke:#0000ff;" x="296.886797" xlink:href="#mb70d7c7cc9" y="138.232915"/>
     <use style="fill:#0000ff;stroke:#0000ff;" x="427.112189" xlink:href="#mb70d7c7cc9" y="157.735851"/>
     <use style="fill:#0000ff;stroke:#0000ff;" x="539.094893" xlink:href="#mb70d7c7cc9" y="106.57739"/>
     <use style="fill:#0000ff;stroke:#0000ff;" x="313.463367" xlink:href="#mb70d7c7cc9" y="196.276206"/>
     <use style="fill:#0000ff;stroke:#0000ff;" x="515.681127" xlink:href="#mb70d7c7cc9" y="93.545394"/>
     <use style="fill:#0000ff;stroke:#0000ff;" x="261.55924" xlink:href="#mb70d7c7cc9" y="171.207041"/>
     <use style="fill:#0000ff;stroke:#0000ff;" x="184.631025" xlink:href="#mb70d7c7cc9" y="206.365546"/>
     <use style="fill:#0000ff;stroke:#0000ff;" x="105.72057" xlink:href="#mb70d7c7cc9" y="228.313295"/>
     <use style="fill:#0000ff;stroke:#0000ff;" x="447.703449" xlink:href="#mb70d7c7cc9" y="165.247066"/>
     <use style="fill:#0000ff;stroke:#0000ff;" x="103.04197" xlink:href="#mb70d7c7cc9" y="213.924706"/>
     <use style="fill:#0000ff;stroke:#0000ff;" x="258.297618" xlink:href="#mb70d7c7cc9" y="138.193911"/>
     <use style="fill:#0000ff;stroke:#0000ff;" x="354.094344" xlink:href="#mb70d7c7cc9" y="178.777"/>
     <use style="fill:#0000ff;stroke:#0000ff;" x="323.286401" xlink:href="#mb70d7c7cc9" y="227.162964"/>
     <use style="fill:#0000ff;stroke:#0000ff;" x="220.267091" xlink:href="#mb70d7c7cc9" y="198.100938"/>
     <use style="fill:#0000ff;stroke:#0000ff;" x="399.177862" xlink:href="#mb70d7c7cc9" y="174.058375"/>
     <use style="fill:#0000ff;stroke:#0000ff;" x="168.838858" xlink:href="#mb70d7c7cc9" y="201.642185"/>
    </g>
   </g>
   <g id="patch_3">
    <path d="M 26.925 333.36 
L 26.925 7.2 
" style="fill:none;stroke:#000000;stroke-linecap:square;stroke-linejoin:miter;stroke-width:0.8;"/>
   </g>
   <g id="patch_4">
    <path d="M 584.925 333.36 
L 584.925 7.2 
" style="fill:none;stroke:#000000;stroke-linecap:square;stroke-linejoin:miter;stroke-width:0.8;"/>
   </g>
   <g id="patch_5">
    <path d="M 26.925 333.36 
L 584.925 333.36 
" style="fill:none;stroke:#000000;stroke-linecap:square;stroke-linejoin:miter;stroke-width:0.8;"/>
   </g>
   <g id="patch_6">
    <path d="M 26.925 7.2 
L 584.925 7.2 
" style="fill:none;stroke:#000000;stroke-linecap:square;stroke-linejoin:miter;stroke-width:0.8;"/>
   </g>
  </g>
 </g>
 <defs>
  <clipPath id="paf42b3be6f">
   <rect height="326.16" width="558" x="26.925" y="7.2"/>
  </clipPath>
 </defs>
</svg>
