<?xml version="1.0" encoding="UTF-8" standalone="no"?>
<!DOCTYPE svg PUBLIC "-//W3C//DTD SVG 1.1//EN"
 "http://www.w3.org/Graphics/SVG/1.1/DTD/svg11.dtd">
<!-- Generated by graphviz version 2.43.0 (0)
 -->
<!-- Title: Tree Pages: 1 -->
<svg width="359pt" height="300pt"
 viewBox="0.00 0.00 358.91 300.00" xmlns="http://www.w3.org/2000/svg" xmlns:xlink="http://www.w3.org/1999/xlink">
<g id="graph0" class="graph" transform="scale(1 1) rotate(0) translate(4 296)">
<title>Tree</title>
<polygon fill="white" stroke="transparent" points="-4,4 -4,-296 354.91,-296 354.91,4 -4,4"/>
<!-- 0 -->
<g id="node1" class="node">
<title>0</title>
<path fill="#ffffff" stroke="black" d="M213.6,-292C213.6,-292 66.31,-292 66.31,-292 60.31,-292 54.31,-286 54.31,-280 54.31,-280 54.31,-226 54.31,-226 54.31,-220 60.31,-214 66.31,-214 66.31,-214 213.6,-214 213.6,-214 219.6,-214 225.6,-220 225.6,-226 225.6,-226 225.6,-280 225.6,-280 225.6,-286 219.6,-292 213.6,-292"/>
<text text-anchor="middle" x="139.95" y="-276.8" font-family="Helvetica,sans-Serif" font-size="14.00">petal length (cm) &lt;= 2.45</text>
<text text-anchor="middle" x="139.95" y="-262.8" font-family="Helvetica,sans-Serif" font-size="14.00">gini = 0.667</text>
<text text-anchor="middle" x="139.95" y="-248.8" font-family="Helvetica,sans-Serif" font-size="14.00">samples = 150</text>
<text text-anchor="middle" x="139.95" y="-234.8" font-family="Helvetica,sans-Serif" font-size="14.00">value = [50, 50, 50]</text>
<text text-anchor="middle" x="139.95" y="-220.8" font-family="Helvetica,sans-Serif" font-size="14.00">class = setosa</text>
</g>
<!-- 1 -->
<g id="node2" class="node">
<title>1</title>
<path fill="#e58139" stroke="black" d="M107.86,-171C107.86,-171 12.05,-171 12.05,-171 6.05,-171 0.05,-165 0.05,-159 0.05,-159 0.05,-119 0.05,-119 0.05,-113 6.05,-107 12.05,-107 12.05,-107 107.86,-107 107.86,-107 113.86,-107 119.86,-113 119.86,-119 119.86,-119 119.86,-159 119.86,-159 119.86,-165 113.86,-171 107.86,-171"/>
<text text-anchor="middle" x="59.95" y="-155.8" font-family="Helvetica,sans-Serif" font-size="14.00">gini = 0.0</text>
<text text-anchor="middle" x="59.95" y="-141.8" font-family="Helvetica,sans-Serif" font-size="14.00">samples = 50</text>
<text text-anchor="middle" x="59.95" y="-127.8" font-family="Helvetica,sans-Serif" font-size="14.00">value = [50, 0, 0]</text>
<text text-anchor="middle" x="59.95" y="-113.8" font-family="Helvetica,sans-Serif" font-size="14.00">class = setosa</text>
</g>
<!-- 0&#45;&gt;1 -->
<g id="edge1" class="edge">
<title>0&#45;&gt;1</title>
<path fill="none" stroke="black" d="M112.65,-213.77C104.71,-202.66 96.03,-190.51 88.05,-179.33"/>
<polygon fill="black" stroke="black" points="90.76,-177.11 82.1,-171.01 85.07,-181.18 90.76,-177.11"/>
<text text-anchor="middle" x="77.99" y="-191.47" font-family="Helvetica,sans-Serif" font-size="14.00">True</text>
</g>
<!-- 2 -->
<g id="node3" class="node">
<title>2</title>
<path fill="#ffffff" stroke="black" d="M292.14,-178C292.14,-178 149.77,-178 149.77,-178 143.77,-178 137.77,-172 137.77,-166 137.77,-166 137.77,-112 137.77,-112 137.77,-106 143.77,-100 149.77,-100 149.77,-100 292.14,-100 292.14,-100 298.14,-100 304.14,-106 304.14,-112 304.14,-112 304.14,-166 304.14,-166 304.14,-172 298.14,-178 292.14,-178"/>
<text text-anchor="middle" x="220.95" y="-162.8" font-family="Helvetica,sans-Serif" font-size="14.00">petal width (cm) &lt;= 1.75</text>
<text text-anchor="middle" x="220.95" y="-148.8" font-family="Helvetica,sans-Serif" font-size="14.00">gini = 0.5</text>
<text text-anchor="middle" x="220.95" y="-134.8" font-family="Helvetica,sans-Serif" font-size="14.00">samples = 100</text>
<text text-anchor="middle" x="220.95" y="-120.8" font-family="Helvetica,sans-Serif" font-size="14.00">value = [0, 50, 50]</text>
<text text-anchor="middle" x="220.95" y="-106.8" font-family="Helvetica,sans-Serif" font-size="14.00">class = versicolor</text>
</g>
<!-- 0&#45;&gt;2 -->
<g id="edge2" class="edge">
<title>0&#45;&gt;2</title>
<path fill="none" stroke="black" d="M167.6,-213.77C173.99,-204.94 180.85,-195.45 187.46,-186.32"/>
<polygon fill="black" stroke="black" points="190.4,-188.21 193.43,-178.06 184.73,-184.11 190.4,-188.21"/>
<text text-anchor="middle" x="197.39" y="-198.54" font-family="Helvetica,sans-Serif" font-size="14.00">False</text>
</g>
<!-- 3 -->
<g id="node4" class="node">
<title>3</title>
<path fill="#4de88e" stroke="black" d="M200.71,-64C200.71,-64 101.2,-64 101.2,-64 95.2,-64 89.2,-58 89.2,-52 89.2,-52 89.2,-12 89.2,-12 89.2,-6 95.2,0 101.2,0 101.2,0 200.71,0 200.71,0 206.71,0 212.71,-6 212.71,-12 212.71,-12 212.71,-52 212.71,-52 212.71,-58 206.71,-64 200.71,-64"/>
<text text-anchor="middle" x="150.95" y="-48.8" font-family="Helvetica,sans-Serif" font-size="14.00">gini = 0.168</text>
<text text-anchor="middle" x="150.95" y="-34.8" font-family="Helvetica,sans-Serif" font-size="14.00">samples = 54</text>
<text text-anchor="middle" x="150.95" y="-20.8" font-family="Helvetica,sans-Serif" font-size="14.00">value = [0, 49, 5]</text>
<text text-anchor="middle" x="150.95" y="-6.8" font-family="Helvetica,sans-Serif" font-size="14.00">class = versicolor</text>
</g>
<!-- 2&#45;&gt;3 -->
<g id="edge3" class="edge">
<title>2&#45;&gt;3</title>
<path fill="none" stroke="black" d="M195.48,-99.8C189.56,-90.91 183.24,-81.43 177.28,-72.49"/>
<polygon fill="black" stroke="black" points="180.16,-70.5 171.7,-64.12 174.33,-74.38 180.16,-70.5"/>
</g>
<!-- 4 -->
<g id="node5" class="node">
<title>4</title>
<path fill="#843de6" stroke="black" d="M338.86,-64C338.86,-64 243.05,-64 243.05,-64 237.05,-64 231.05,-58 231.05,-52 231.05,-52 231.05,-12 231.05,-12 231.05,-6 237.05,0 243.05,0 243.05,0 338.86,0 338.86,0 344.86,0 350.86,-6 350.86,-12 350.86,-12 350.86,-52 350.86,-52 350.86,-58 344.86,-64 338.86,-64"/>
<text text-anchor="middle" x="290.95" y="-48.8" font-family="Helvetica,sans-Serif" font-size="14.00">gini = 0.043</text>
<text text-anchor="middle" x="290.95" y="-34.8" font-family="Helvetica,sans-Serif" font-size="14.00">samples = 46</text>
<text text-anchor="middle" x="290.95" y="-20.8" font-family="Helvetica,sans-Serif" font-size="14.00">value = [0, 1, 45]</text>
<text text-anchor="middle" x="290.95" y="-6.8" font-family="Helvetica,sans-Serif" font-size="14.00">class = virginica</text>
</g>
<!-- 2&#45;&gt;4 -->
<g id="edge4" class="edge">
<title>2&#45;&gt;4</title>
<path fill="none" stroke="black" d="M246.42,-99.8C252.35,-90.91 258.67,-81.43 264.63,-72.49"/>
<polygon fill="black" stroke="black" points="267.57,-74.38 270.21,-64.12 261.75,-70.5 267.57,-74.38"/>
</g>
</g>
</svg>
