<?xml version="1.0" encoding="utf-8" standalone="no"?>
<!DOCTYPE svg PUBLIC "-//W3C//DTD SVG 1.1//EN"
  "http://www.w3.org/Graphics/SVG/1.1/DTD/svg11.dtd">
<!-- Created with matplotlib (https://matplotlib.org/) -->
<svg height="205.514219pt" version="1.1" viewBox="0 0 912.168898 205.514219" width="912.168898pt" xmlns="http://www.w3.org/2000/svg" xmlns:xlink="http://www.w3.org/1999/xlink">
 <metadata>
  <rdf:RDF xmlns:cc="http://creativecommons.org/ns#" xmlns:dc="http://purl.org/dc/elements/1.1/" xmlns:rdf="http://www.w3.org/1999/02/22-rdf-syntax-ns#">
   <cc:Work>
    <dc:type rdf:resource="http://purl.org/dc/dcmitype/StillImage"/>
    <dc:date>2020-10-19T19:39:05.709774</dc:date>
    <dc:format>image/svg+xml</dc:format>
    <dc:creator>
     <cc:Agent>
      <dc:title>Matplotlib v3.3.2, https://matplotlib.org/</dc:title>
     </cc:Agent>
    </dc:creator>
   </cc:Work>
  </rdf:RDF>
 </metadata>
 <defs>
  <style type="text/css">*{stroke-linecap:butt;stroke-linejoin:round;}</style>
 </defs>
 <g id="figure_1">
  <g id="patch_1">
   <path d="M 0 205.514219 
L 912.168898 205.514219 
L 912.168898 0 
L 0 0 
z
" style="fill:#ffffff;"/>
  </g>
  <g id="axes_1">
   <g id="patch_2">
    <path d="M 44.224063 163.78 
L 845.723398 163.78 
L 845.723398 7.2 
L 44.224063 7.2 
z
" style="fill:#eaeaf2;"/>
   </g>
   <g id="matplotlib.axis_1">
    <g id="xtick_1">
     <g id="line2d_1">
      <path clip-path="url(#p3d46aad6fe)" d="M 44.224063 163.78 
L 44.224063 7.2 
" style="fill:none;stroke:#ffffff;stroke-linecap:round;"/>
     </g>
     <g id="text_1">
      <!-- 0 -->
      <g style="fill:#262626;" transform="translate(41.165547 181.153594)scale(0.11 -0.11)">
       <defs>
        <path d="M 4.15625 35.296875 
Q 4.15625 48 6.765625 55.734375 
Q 9.375 63.484375 14.515625 67.671875 
Q 19.671875 71.875 27.484375 71.875 
Q 33.25 71.875 37.59375 69.546875 
Q 41.9375 67.234375 44.765625 62.859375 
Q 47.609375 58.5 49.21875 52.21875 
Q 50.828125 45.953125 50.828125 35.296875 
Q 50.828125 22.703125 48.234375 14.96875 
Q 45.65625 7.234375 40.5 3 
Q 35.359375 -1.21875 27.484375 -1.21875 
Q 17.140625 -1.21875 11.234375 6.203125 
Q 4.15625 15.140625 4.15625 35.296875 
z
M 13.1875 35.296875 
Q 13.1875 17.671875 17.3125 11.828125 
Q 21.4375 6 27.484375 6 
Q 33.546875 6 37.671875 11.859375 
Q 41.796875 17.71875 41.796875 35.296875 
Q 41.796875 52.984375 37.671875 58.78125 
Q 33.546875 64.59375 27.390625 64.59375 
Q 21.34375 64.59375 17.71875 59.46875 
Q 13.1875 52.9375 13.1875 35.296875 
z
" id="ArialMT-48"/>
       </defs>
       <use xlink:href="#ArialMT-48"/>
      </g>
     </g>
    </g>
    <g id="xtick_2">
     <g id="line2d_2">
      <path clip-path="url(#p3d46aad6fe)" d="M 200.666314 163.78 
L 200.666314 7.2 
" style="fill:none;stroke:#ffffff;stroke-linecap:round;"/>
     </g>
     <g id="text_2">
      <!-- 100 -->
      <g style="fill:#262626;" transform="translate(191.490767 181.153594)scale(0.11 -0.11)">
       <defs>
        <path d="M 37.25 0 
L 28.46875 0 
L 28.46875 56 
Q 25.296875 52.984375 20.140625 49.953125 
Q 14.984375 46.921875 10.890625 45.40625 
L 10.890625 53.90625 
Q 18.265625 57.375 23.78125 62.296875 
Q 29.296875 67.234375 31.59375 71.875 
L 37.25 71.875 
z
" id="ArialMT-49"/>
       </defs>
       <use xlink:href="#ArialMT-49"/>
       <use x="55.615234" xlink:href="#ArialMT-48"/>
       <use x="111.230469" xlink:href="#ArialMT-48"/>
      </g>
     </g>
    </g>
    <g id="xtick_3">
     <g id="line2d_3">
      <path clip-path="url(#p3d46aad6fe)" d="M 357.108566 163.78 
L 357.108566 7.2 
" style="fill:none;stroke:#ffffff;stroke-linecap:round;"/>
     </g>
     <g id="text_3">
      <!-- 200 -->
      <g style="fill:#262626;" transform="translate(347.933019 181.153594)scale(0.11 -0.11)">
       <defs>
        <path d="M 50.34375 8.453125 
L 50.34375 0 
L 3.03125 0 
Q 2.9375 3.171875 4.046875 6.109375 
Q 5.859375 10.9375 9.828125 15.625 
Q 13.8125 20.3125 21.34375 26.46875 
Q 33.015625 36.03125 37.109375 41.625 
Q 41.21875 47.21875 41.21875 52.203125 
Q 41.21875 57.421875 37.46875 61 
Q 33.734375 64.59375 27.734375 64.59375 
Q 21.390625 64.59375 17.578125 60.78125 
Q 13.765625 56.984375 13.71875 50.25 
L 4.6875 51.171875 
Q 5.609375 61.28125 11.65625 66.578125 
Q 17.71875 71.875 27.9375 71.875 
Q 38.234375 71.875 44.234375 66.15625 
Q 50.25 60.453125 50.25 52 
Q 50.25 47.703125 48.484375 43.546875 
Q 46.734375 39.40625 42.65625 34.8125 
Q 38.578125 30.21875 29.109375 22.21875 
Q 21.1875 15.578125 18.9375 13.203125 
Q 16.703125 10.84375 15.234375 8.453125 
z
" id="ArialMT-50"/>
       </defs>
       <use xlink:href="#ArialMT-50"/>
       <use x="55.615234" xlink:href="#ArialMT-48"/>
       <use x="111.230469" xlink:href="#ArialMT-48"/>
      </g>
     </g>
    </g>
    <g id="xtick_4">
     <g id="line2d_4">
      <path clip-path="url(#p3d46aad6fe)" d="M 513.550817 163.78 
L 513.550817 7.2 
" style="fill:none;stroke:#ffffff;stroke-linecap:round;"/>
     </g>
     <g id="text_4">
      <!-- 300 -->
      <g style="fill:#262626;" transform="translate(504.37527 181.153594)scale(0.11 -0.11)">
       <defs>
        <path d="M 4.203125 18.890625 
L 12.984375 20.0625 
Q 14.5 12.59375 18.140625 9.296875 
Q 21.78125 6 27 6 
Q 33.203125 6 37.46875 10.296875 
Q 41.75 14.59375 41.75 20.953125 
Q 41.75 27 37.796875 30.921875 
Q 33.84375 34.859375 27.734375 34.859375 
Q 25.25 34.859375 21.53125 33.890625 
L 22.515625 41.609375 
Q 23.390625 41.5 23.921875 41.5 
Q 29.546875 41.5 34.03125 44.421875 
Q 38.53125 47.359375 38.53125 53.46875 
Q 38.53125 58.296875 35.25 61.46875 
Q 31.984375 64.65625 26.8125 64.65625 
Q 21.6875 64.65625 18.265625 61.421875 
Q 14.84375 58.203125 13.875 51.765625 
L 5.078125 53.328125 
Q 6.6875 62.15625 12.390625 67.015625 
Q 18.109375 71.875 26.609375 71.875 
Q 32.46875 71.875 37.390625 69.359375 
Q 42.328125 66.84375 44.9375 62.5 
Q 47.5625 58.15625 47.5625 53.265625 
Q 47.5625 48.640625 45.0625 44.828125 
Q 42.578125 41.015625 37.703125 38.765625 
Q 44.046875 37.3125 47.5625 32.6875 
Q 51.078125 28.078125 51.078125 21.140625 
Q 51.078125 11.765625 44.234375 5.25 
Q 37.40625 -1.265625 26.953125 -1.265625 
Q 17.53125 -1.265625 11.296875 4.34375 
Q 5.078125 9.96875 4.203125 18.890625 
z
" id="ArialMT-51"/>
       </defs>
       <use xlink:href="#ArialMT-51"/>
       <use x="55.615234" xlink:href="#ArialMT-48"/>
       <use x="111.230469" xlink:href="#ArialMT-48"/>
      </g>
     </g>
    </g>
    <g id="xtick_5">
     <g id="line2d_5">
      <path clip-path="url(#p3d46aad6fe)" d="M 669.993069 163.78 
L 669.993069 7.2 
" style="fill:none;stroke:#ffffff;stroke-linecap:round;"/>
     </g>
     <g id="text_5">
      <!-- 400 -->
      <g style="fill:#262626;" transform="translate(660.817522 181.153594)scale(0.11 -0.11)">
       <defs>
        <path d="M 32.328125 0 
L 32.328125 17.140625 
L 1.265625 17.140625 
L 1.265625 25.203125 
L 33.9375 71.578125 
L 41.109375 71.578125 
L 41.109375 25.203125 
L 50.78125 25.203125 
L 50.78125 17.140625 
L 41.109375 17.140625 
L 41.109375 0 
z
M 32.328125 25.203125 
L 32.328125 57.46875 
L 9.90625 25.203125 
z
" id="ArialMT-52"/>
       </defs>
       <use xlink:href="#ArialMT-52"/>
       <use x="55.615234" xlink:href="#ArialMT-48"/>
       <use x="111.230469" xlink:href="#ArialMT-48"/>
      </g>
     </g>
    </g>
    <g id="xtick_6">
     <g id="line2d_6">
      <path clip-path="url(#p3d46aad6fe)" d="M 826.43532 163.78 
L 826.43532 7.2 
" style="fill:none;stroke:#ffffff;stroke-linecap:round;"/>
     </g>
     <g id="text_6">
      <!-- 500 -->
      <g style="fill:#262626;" transform="translate(817.259773 181.153594)scale(0.11 -0.11)">
       <defs>
        <path d="M 4.15625 18.75 
L 13.375 19.53125 
Q 14.40625 12.796875 18.140625 9.390625 
Q 21.875 6 27.15625 6 
Q 33.5 6 37.890625 10.78125 
Q 42.28125 15.578125 42.28125 23.484375 
Q 42.28125 31 38.0625 35.34375 
Q 33.84375 39.703125 27 39.703125 
Q 22.75 39.703125 19.328125 37.765625 
Q 15.921875 35.84375 13.96875 32.765625 
L 5.71875 33.84375 
L 12.640625 70.609375 
L 48.25 70.609375 
L 48.25 62.203125 
L 19.671875 62.203125 
L 15.828125 42.96875 
Q 22.265625 47.46875 29.34375 47.46875 
Q 38.71875 47.46875 45.15625 40.96875 
Q 51.609375 34.46875 51.609375 24.265625 
Q 51.609375 14.546875 45.953125 7.46875 
Q 39.0625 -1.21875 27.15625 -1.21875 
Q 17.390625 -1.21875 11.203125 4.25 
Q 5.03125 9.71875 4.15625 18.75 
z
" id="ArialMT-53"/>
       </defs>
       <use xlink:href="#ArialMT-53"/>
       <use x="55.615234" xlink:href="#ArialMT-48"/>
       <use x="111.230469" xlink:href="#ArialMT-48"/>
      </g>
     </g>
    </g>
    <g id="text_7">
     <!-- Fare -->
     <g style="fill:#262626;" transform="translate(432.638105 195.929219)scale(0.12 -0.12)">
      <defs>
       <path d="M 8.203125 0 
L 8.203125 71.578125 
L 56.5 71.578125 
L 56.5 63.140625 
L 17.671875 63.140625 
L 17.671875 40.96875 
L 51.265625 40.96875 
L 51.265625 32.515625 
L 17.671875 32.515625 
L 17.671875 0 
z
" id="ArialMT-70"/>
       <path d="M 40.4375 6.390625 
Q 35.546875 2.25 31.03125 0.53125 
Q 26.515625 -1.171875 21.34375 -1.171875 
Q 12.796875 -1.171875 8.203125 3 
Q 3.609375 7.171875 3.609375 13.671875 
Q 3.609375 17.484375 5.34375 20.625 
Q 7.078125 23.78125 9.890625 25.6875 
Q 12.703125 27.59375 16.21875 28.5625 
Q 18.796875 29.25 24.03125 29.890625 
Q 34.671875 31.15625 39.703125 32.90625 
Q 39.75 34.71875 39.75 35.203125 
Q 39.75 40.578125 37.25 42.78125 
Q 33.890625 45.75 27.25 45.75 
Q 21.046875 45.75 18.09375 43.578125 
Q 15.140625 41.40625 13.71875 35.890625 
L 5.125 37.0625 
Q 6.296875 42.578125 8.984375 45.96875 
Q 11.671875 49.359375 16.75 51.1875 
Q 21.828125 53.03125 28.515625 53.03125 
Q 35.15625 53.03125 39.296875 51.46875 
Q 43.453125 49.90625 45.40625 47.53125 
Q 47.359375 45.171875 48.140625 41.546875 
Q 48.578125 39.3125 48.578125 33.453125 
L 48.578125 21.734375 
Q 48.578125 9.46875 49.140625 6.21875 
Q 49.703125 2.984375 51.375 0 
L 42.1875 0 
Q 40.828125 2.734375 40.4375 6.390625 
z
M 39.703125 26.03125 
Q 34.90625 24.078125 25.34375 22.703125 
Q 19.921875 21.921875 17.671875 20.9375 
Q 15.4375 19.96875 14.203125 18.09375 
Q 12.984375 16.21875 12.984375 13.921875 
Q 12.984375 10.40625 15.640625 8.0625 
Q 18.3125 5.71875 23.4375 5.71875 
Q 28.515625 5.71875 32.46875 7.9375 
Q 36.421875 10.15625 38.28125 14.015625 
Q 39.703125 17 39.703125 22.796875 
z
" id="ArialMT-97"/>
       <path d="M 6.5 0 
L 6.5 51.859375 
L 14.40625 51.859375 
L 14.40625 44 
Q 17.4375 49.515625 20 51.265625 
Q 22.5625 53.03125 25.640625 53.03125 
Q 30.078125 53.03125 34.671875 50.203125 
L 31.640625 42.046875 
Q 28.421875 43.953125 25.203125 43.953125 
Q 22.3125 43.953125 20.015625 42.21875 
Q 17.71875 40.484375 16.75 37.40625 
Q 15.28125 32.71875 15.28125 27.15625 
L 15.28125 0 
z
" id="ArialMT-114"/>
       <path d="M 42.09375 16.703125 
L 51.171875 15.578125 
Q 49.03125 7.625 43.21875 3.21875 
Q 37.40625 -1.171875 28.375 -1.171875 
Q 17 -1.171875 10.328125 5.828125 
Q 3.65625 12.84375 3.65625 25.484375 
Q 3.65625 38.578125 10.390625 45.796875 
Q 17.140625 53.03125 27.875 53.03125 
Q 38.28125 53.03125 44.875 45.953125 
Q 51.46875 38.875 51.46875 26.03125 
Q 51.46875 25.25 51.421875 23.6875 
L 12.75 23.6875 
Q 13.234375 15.140625 17.578125 10.59375 
Q 21.921875 6.0625 28.421875 6.0625 
Q 33.25 6.0625 36.671875 8.59375 
Q 40.09375 11.140625 42.09375 16.703125 
z
M 13.234375 30.90625 
L 42.1875 30.90625 
Q 41.609375 37.453125 38.875 40.71875 
Q 34.671875 45.796875 27.984375 45.796875 
Q 21.921875 45.796875 17.796875 41.75 
Q 13.671875 37.703125 13.234375 30.90625 
z
" id="ArialMT-101"/>
      </defs>
      <use xlink:href="#ArialMT-70"/>
      <use x="61.083984" xlink:href="#ArialMT-97"/>
      <use x="116.699219" xlink:href="#ArialMT-114"/>
      <use x="150" xlink:href="#ArialMT-101"/>
     </g>
    </g>
   </g>
   <g id="matplotlib.axis_2">
    <g id="ytick_1">
     <g id="line2d_7">
      <path clip-path="url(#p3d46aad6fe)" d="M 44.224063 163.78 
L 845.723398 163.78 
" style="fill:none;stroke:#ffffff;stroke-linecap:round;"/>
     </g>
     <g id="text_8">
      <!-- 0.000 -->
      <g style="fill:#262626;" transform="translate(7.2 167.716797)scale(0.11 -0.11)">
       <defs>
        <path d="M 9.078125 0 
L 9.078125 10.015625 
L 19.09375 10.015625 
L 19.09375 0 
z
" id="ArialMT-46"/>
       </defs>
       <use xlink:href="#ArialMT-48"/>
       <use x="55.615234" xlink:href="#ArialMT-46"/>
       <use x="83.398438" xlink:href="#ArialMT-48"/>
       <use x="139.013672" xlink:href="#ArialMT-48"/>
       <use x="194.628906" xlink:href="#ArialMT-48"/>
      </g>
     </g>
    </g>
    <g id="ytick_2">
     <g id="line2d_8">
      <path clip-path="url(#p3d46aad6fe)" d="M 44.224063 138.892658 
L 845.723398 138.892658 
" style="fill:none;stroke:#ffffff;stroke-linecap:round;"/>
     </g>
     <g id="text_9">
      <!-- 0.005 -->
      <g style="fill:#262626;" transform="translate(7.2 142.829455)scale(0.11 -0.11)">
       <use xlink:href="#ArialMT-48"/>
       <use x="55.615234" xlink:href="#ArialMT-46"/>
       <use x="83.398438" xlink:href="#ArialMT-48"/>
       <use x="139.013672" xlink:href="#ArialMT-48"/>
       <use x="194.628906" xlink:href="#ArialMT-53"/>
      </g>
     </g>
    </g>
    <g id="ytick_3">
     <g id="line2d_9">
      <path clip-path="url(#p3d46aad6fe)" d="M 44.224063 114.005316 
L 845.723398 114.005316 
" style="fill:none;stroke:#ffffff;stroke-linecap:round;"/>
     </g>
     <g id="text_10">
      <!-- 0.010 -->
      <g style="fill:#262626;" transform="translate(7.2 117.942113)scale(0.11 -0.11)">
       <use xlink:href="#ArialMT-48"/>
       <use x="55.615234" xlink:href="#ArialMT-46"/>
       <use x="83.398438" xlink:href="#ArialMT-48"/>
       <use x="139.013672" xlink:href="#ArialMT-49"/>
       <use x="194.628906" xlink:href="#ArialMT-48"/>
      </g>
     </g>
    </g>
    <g id="ytick_4">
     <g id="line2d_10">
      <path clip-path="url(#p3d46aad6fe)" d="M 44.224063 89.117974 
L 845.723398 89.117974 
" style="fill:none;stroke:#ffffff;stroke-linecap:round;"/>
     </g>
     <g id="text_11">
      <!-- 0.015 -->
      <g style="fill:#262626;" transform="translate(7.2 93.054771)scale(0.11 -0.11)">
       <use xlink:href="#ArialMT-48"/>
       <use x="55.615234" xlink:href="#ArialMT-46"/>
       <use x="83.398438" xlink:href="#ArialMT-48"/>
       <use x="139.013672" xlink:href="#ArialMT-49"/>
       <use x="194.628906" xlink:href="#ArialMT-53"/>
      </g>
     </g>
    </g>
    <g id="ytick_5">
     <g id="line2d_11">
      <path clip-path="url(#p3d46aad6fe)" d="M 44.224063 64.230633 
L 845.723398 64.230633 
" style="fill:none;stroke:#ffffff;stroke-linecap:round;"/>
     </g>
     <g id="text_12">
      <!-- 0.020 -->
      <g style="fill:#262626;" transform="translate(7.2 68.167429)scale(0.11 -0.11)">
       <use xlink:href="#ArialMT-48"/>
       <use x="55.615234" xlink:href="#ArialMT-46"/>
       <use x="83.398438" xlink:href="#ArialMT-48"/>
       <use x="139.013672" xlink:href="#ArialMT-50"/>
       <use x="194.628906" xlink:href="#ArialMT-48"/>
      </g>
     </g>
    </g>
    <g id="ytick_6">
     <g id="line2d_12">
      <path clip-path="url(#p3d46aad6fe)" d="M 44.224063 39.343291 
L 845.723398 39.343291 
" style="fill:none;stroke:#ffffff;stroke-linecap:round;"/>
     </g>
     <g id="text_13">
      <!-- 0.025 -->
      <g style="fill:#262626;" transform="translate(7.2 43.280088)scale(0.11 -0.11)">
       <use xlink:href="#ArialMT-48"/>
       <use x="55.615234" xlink:href="#ArialMT-46"/>
       <use x="83.398438" xlink:href="#ArialMT-48"/>
       <use x="139.013672" xlink:href="#ArialMT-50"/>
       <use x="194.628906" xlink:href="#ArialMT-53"/>
      </g>
     </g>
    </g>
    <g id="ytick_7">
     <g id="line2d_13">
      <path clip-path="url(#p3d46aad6fe)" d="M 44.224063 14.455949 
L 845.723398 14.455949 
" style="fill:none;stroke:#ffffff;stroke-linecap:round;"/>
     </g>
     <g id="text_14">
      <!-- 0.030 -->
      <g style="fill:#262626;" transform="translate(7.2 18.392746)scale(0.11 -0.11)">
       <use xlink:href="#ArialMT-48"/>
       <use x="55.615234" xlink:href="#ArialMT-46"/>
       <use x="83.398438" xlink:href="#ArialMT-48"/>
       <use x="139.013672" xlink:href="#ArialMT-51"/>
       <use x="194.628906" xlink:href="#ArialMT-48"/>
      </g>
     </g>
    </g>
   </g>
   <g id="PolyCollection_1">
    <defs>
     <path d="M 2.505691 -41.857482 
L 2.505691 -41.734219 
L 4.992525 -41.734219 
L 7.479358 -41.734219 
L 9.966192 -41.734219 
L 12.453025 -41.734219 
L 14.939859 -41.734219 
L 17.426692 -41.734219 
L 19.913526 -41.734219 
L 22.400359 -41.734219 
L 24.887193 -41.734219 
L 27.374026 -41.734219 
L 29.86086 -41.734219 
L 32.347693 -41.734219 
L 34.834527 -41.734219 
L 37.32136 -41.734219 
L 39.808194 -41.734219 
L 42.295027 -41.734219 
L 44.78186 -41.734219 
L 47.268694 -41.734219 
L 49.755527 -41.734219 
L 52.242361 -41.734219 
L 54.729194 -41.734219 
L 57.216028 -41.734219 
L 59.702861 -41.734219 
L 62.189695 -41.734219 
L 64.676528 -41.734219 
L 67.163362 -41.734219 
L 69.650195 -41.734219 
L 72.137029 -41.734219 
L 74.623862 -41.734219 
L 77.110696 -41.734219 
L 79.597529 -41.734219 
L 82.084363 -41.734219 
L 84.571196 -41.734219 
L 87.05803 -41.734219 
L 89.544863 -41.734219 
L 92.031697 -41.734219 
L 94.51853 -41.734219 
L 97.005364 -41.734219 
L 99.492197 -41.734219 
L 101.979031 -41.734219 
L 104.465864 -41.734219 
L 106.952698 -41.734219 
L 109.439531 -41.734219 
L 111.926365 -41.734219 
L 114.413198 -41.734219 
L 116.900032 -41.734219 
L 119.386865 -41.734219 
L 121.873699 -41.734219 
L 124.360532 -41.734219 
L 126.847366 -41.734219 
L 129.334199 -41.734219 
L 131.821033 -41.734219 
L 134.307866 -41.734219 
L 136.7947 -41.734219 
L 139.281533 -41.734219 
L 141.768367 -41.734219 
L 144.2552 -41.734219 
L 146.742034 -41.734219 
L 149.228867 -41.734219 
L 151.715701 -41.734219 
L 154.202534 -41.734219 
L 156.689367 -41.734219 
L 159.176201 -41.734219 
L 161.663034 -41.734219 
L 164.149868 -41.734219 
L 166.636701 -41.734219 
L 169.123535 -41.734219 
L 171.610368 -41.734219 
L 174.097202 -41.734219 
L 176.584035 -41.734219 
L 179.070869 -41.734219 
L 181.557702 -41.734219 
L 184.044536 -41.734219 
L 186.531369 -41.734219 
L 189.018203 -41.734219 
L 191.505036 -41.734219 
L 193.99187 -41.734219 
L 196.478703 -41.734219 
L 198.965537 -41.734219 
L 201.45237 -41.734219 
L 203.939204 -41.734219 
L 206.426037 -41.734219 
L 208.912871 -41.734219 
L 211.399704 -41.734219 
L 213.886538 -41.734219 
L 216.373371 -41.734219 
L 218.860205 -41.734219 
L 221.347038 -41.734219 
L 223.833872 -41.734219 
L 226.320705 -41.734219 
L 228.807539 -41.734219 
L 231.294372 -41.734219 
L 233.781206 -41.734219 
L 236.268039 -41.734219 
L 238.754873 -41.734219 
L 241.241706 -41.734219 
L 243.72854 -41.734219 
L 246.215373 -41.734219 
L 248.702207 -41.734219 
L 251.18904 -41.734219 
L 253.675874 -41.734219 
L 256.162707 -41.734219 
L 258.649541 -41.734219 
L 261.136374 -41.734219 
L 263.623208 -41.734219 
L 266.110041 -41.734219 
L 268.596874 -41.734219 
L 271.083708 -41.734219 
L 273.570541 -41.734219 
L 276.057375 -41.734219 
L 278.544208 -41.734219 
L 281.031042 -41.734219 
L 283.517875 -41.734219 
L 286.004709 -41.734219 
L 288.491542 -41.734219 
L 290.978376 -41.734219 
L 293.465209 -41.734219 
L 295.952043 -41.734219 
L 298.438876 -41.734219 
L 300.92571 -41.734219 
L 303.412543 -41.734219 
L 305.899377 -41.734219 
L 308.38621 -41.734219 
L 310.873044 -41.734219 
L 313.359877 -41.734219 
L 315.846711 -41.734219 
L 318.333544 -41.734219 
L 320.820378 -41.734219 
L 323.307211 -41.734219 
L 325.794045 -41.734219 
L 328.280878 -41.734219 
L 330.767712 -41.734219 
L 333.254545 -41.734219 
L 335.741379 -41.734219 
L 338.228212 -41.734219 
L 340.715046 -41.734219 
L 343.201879 -41.734219 
L 345.688713 -41.734219 
L 348.175546 -41.734219 
L 350.66238 -41.734219 
L 353.149213 -41.734219 
L 355.636047 -41.734219 
L 358.12288 -41.734219 
L 360.609714 -41.734219 
L 363.096547 -41.734219 
L 365.583381 -41.734219 
L 368.070214 -41.734219 
L 370.557048 -41.734219 
L 373.043881 -41.734219 
L 375.530714 -41.734219 
L 378.017548 -41.734219 
L 380.504381 -41.734219 
L 382.991215 -41.734219 
L 385.478048 -41.734219 
L 387.964882 -41.734219 
L 390.451715 -41.734219 
L 392.938549 -41.734219 
L 395.425382 -41.734219 
L 397.912216 -41.734219 
L 400.399049 -41.734219 
L 402.885883 -41.734219 
L 405.372716 -41.734219 
L 407.85955 -41.734219 
L 410.346383 -41.734219 
L 412.833217 -41.734219 
L 415.32005 -41.734219 
L 417.806884 -41.734219 
L 420.293717 -41.734219 
L 422.780551 -41.734219 
L 425.267384 -41.734219 
L 427.754218 -41.734219 
L 430.241051 -41.734219 
L 432.727885 -41.734219 
L 435.214718 -41.734219 
L 437.701552 -41.734219 
L 440.188385 -41.734219 
L 442.675219 -41.734219 
L 445.162052 -41.734219 
L 447.648886 -41.734219 
L 450.135719 -41.734219 
L 452.622553 -41.734219 
L 455.109386 -41.734219 
L 457.59622 -41.734219 
L 460.083053 -41.734219 
L 462.569887 -41.734219 
L 465.05672 -41.734219 
L 467.543554 -41.734219 
L 470.030387 -41.734219 
L 472.517221 -41.734219 
L 475.004054 -41.734219 
L 477.490888 -41.734219 
L 479.977721 -41.734219 
L 482.464555 -41.734219 
L 484.951388 -41.734219 
L 487.438221 -41.734219 
L 489.925055 -41.734219 
L 492.411888 -41.734219 
L 494.898722 -41.734219 
L 497.385555 -41.734219 
L 497.385555 -41.743265 
L 497.385555 -41.743265 
L 494.898722 -41.749445 
L 492.411888 -41.759044 
L 489.925055 -41.773423 
L 487.438221 -41.794192 
L 484.951388 -41.823094 
L 482.464555 -41.861812 
L 479.977721 -41.911699 
L 477.490888 -41.973442 
L 475.004054 -42.046731 
L 472.517221 -42.129993 
L 470.030387 -42.220278 
L 467.543554 -42.313362 
L 465.05672 -42.404099 
L 462.569887 -42.486994 
L 460.083053 -42.556917 
L 457.59622 -42.609813 
L 455.109386 -42.643271 
L 452.622553 -42.656809 
L 450.135719 -42.651818 
L 447.648886 -42.63118 
L 445.162052 -42.598664 
L 442.675219 -42.558248 
L 440.188385 -42.513548 
L 437.701552 -42.467474 
L 435.214718 -42.422167 
L 432.727885 -42.379187 
L 430.241051 -42.339848 
L 427.754218 -42.305559 
L 425.267384 -42.278038 
L 422.780551 -42.259313 
L 420.293717 -42.251503 
L 417.806884 -42.256421 
L 415.32005 -42.275114 
L 412.833217 -42.307466 
L 410.346383 -42.351965 
L 407.85955 -42.405712 
L 405.372716 -42.464681 
L 402.885883 -42.524177 
L 400.399049 -42.579402 
L 397.912216 -42.626016 
L 395.425382 -42.660591 
L 392.938549 -42.680871 
L 390.451715 -42.685832 
L 387.964882 -42.675541 
L 385.478048 -42.650911 
L 382.991215 -42.613404 
L 380.504381 -42.564775 
L 378.017548 -42.506912 
L 375.530714 -42.441756 
L 373.043881 -42.371309 
L 370.557048 -42.297654 
L 368.070214 -42.22296 
L 365.583381 -42.149428 
L 363.096547 -42.079178 
L 360.609714 -42.014098 
L 358.12288 -41.955689 
L 355.636047 -41.904947 
L 353.149213 -41.862305 
L 350.66238 -41.827664 
L 348.175546 -41.800469 
L 345.688713 -41.779851 
L 343.201879 -41.76477 
L 340.715046 -41.75416 
L 338.228212 -41.74704 
L 335.741379 -41.742604 
L 333.254545 -41.74028 
L 330.767712 -41.739772 
L 328.280878 -41.741094 
L 325.794045 -41.744617 
L 323.307211 -41.751104 
L 320.820378 -41.761758 
L 318.333544 -41.77824 
L 315.846711 -41.802642 
L 313.359877 -41.837381 
L 310.873044 -41.884983 
L 308.38621 -41.947744 
L 305.899377 -42.027286 
L 303.412543 -42.124053 
L 300.92571 -42.236827 
L 298.438876 -42.362395 
L 295.952043 -42.495464 
L 293.465209 -42.628937 
L 290.978376 -42.754545 
L 288.491542 -42.863809 
L 286.004709 -42.94916 
L 283.517875 -43.00502 
L 281.031042 -43.028612 
L 278.544208 -43.020322 
L 276.057375 -42.983522 
L 273.570541 -42.923895 
L 271.083708 -42.84842 
L 268.596874 -42.764252 
L 266.110041 -42.677759 
L 263.623208 -42.593892 
L 261.136374 -42.516021 
L 258.649541 -42.446183 
L 256.162707 -42.385637 
L 253.675874 -42.335529 
L 251.18904 -42.297456 
L 248.702207 -42.273779 
L 246.215373 -42.267582 
L 243.72854 -42.282275 
L 241.241706 -42.320917 
L 238.754873 -42.385395 
L 236.268039 -42.475621 
L 233.781206 -42.588928 
L 231.294372 -42.719818 
L 228.807539 -42.860151 
L 226.320705 -42.999826 
L 223.833872 -43.127889 
L 221.347038 -43.233938 
L 218.860205 -43.309619 
L 216.373371 -43.349981 
L 213.886538 -43.354465 
L 211.399704 -43.327358 
L 208.912871 -43.277658 
L 206.426037 -43.218367 
L 203.939204 -43.165367 
L 201.45237 -43.136051 
L 198.965537 -43.147911 
L 196.478703 -43.217239 
L 193.99187 -43.358014 
L 191.505036 -43.581011 
L 189.018203 -43.89306 
L 186.531369 -44.296437 
L 184.044536 -44.788325 
L 181.557702 -45.360409 
L 179.070869 -45.998668 
L 176.584035 -46.683539 
L 174.097202 -47.390588 
L 171.610368 -48.091824 
L 169.123535 -48.757696 
L 166.636701 -49.359685 
L 164.149868 -49.873267 
L 161.663034 -50.280902 
L 159.176201 -50.574589 
L 156.689367 -50.757526 
L 154.202534 -50.844491 
L 151.715701 -50.860708 
L 149.228867 -50.839258 
L 146.742034 -50.817335 
L 144.2552 -50.831975 
L 141.768367 -50.915986 
L 139.281533 -51.094905 
L 136.7947 -51.385601 
L 134.307866 -51.796869 
L 131.821033 -52.331965 
L 129.334199 -52.992586 
L 126.847366 -53.783476 
L 124.360532 -54.716659 
L 121.873699 -55.814256 
L 119.386865 -57.109138 
L 116.900032 -58.642998 
L 114.413198 -60.46199 
L 111.926365 -62.610672 
L 109.439531 -65.125481 
L 106.952698 -68.029392 
L 104.465864 -71.32948 
L 101.979031 -75.018824 
L 99.492197 -79.083422 
L 97.005364 -83.513555 
L 94.51853 -88.31752 
L 92.031697 -93.534111 
L 89.544863 -99.239207 
L 87.05803 -105.54174 
L 84.571196 -112.565636 
L 82.084363 -120.417055 
L 79.597529 -129.140117 
L 77.110696 -138.668494 
L 74.623862 -148.783532 
L 72.137029 -159.09088 
L 69.650195 -169.025931 
L 67.163362 -177.893648 
L 64.676528 -184.941186 
L 62.189695 -189.45382 
L 59.702861 -190.858028 
L 57.216028 -188.812249 
L 54.729194 -183.266999 
L 52.242361 -174.481721 
L 49.755527 -162.994661 
L 47.268694 -149.551866 
L 44.78186 -135.009555 
L 42.295027 -120.228617 
L 39.808194 -105.979819 
L 37.32136 -92.874138 
L 34.834527 -81.325712 
L 32.347693 -71.547575 
L 29.86086 -63.574226 
L 27.374026 -57.301492 
L 24.887193 -52.533373 
L 22.400359 -49.027011 
L 19.913526 -46.529774 
L 17.426692 -44.805632 
L 14.939859 -43.650675 
L 12.453025 -42.89946 
L 9.966192 -42.424722 
L 7.479358 -42.133064 
L 4.992525 -41.958793 
L 2.505691 -41.857482 
z
" id="mbdc954e7c4" style="stroke:#4c72b0;"/>
    </defs>
    <g clip-path="url(#p3d46aad6fe)">
     <use style="fill:#4c72b0;fill-opacity:0.25;stroke:#4c72b0;" x="0" xlink:href="#mbdc954e7c4" y="205.514219"/>
    </g>
   </g>
   <g id="PolyCollection_2">
    <path clip-path="url(#p3d46aad6fe)" d="M -53.078605 163.686596 
L -53.078605 163.78 
L -48.073054 163.78 
L -43.067502 163.78 
L -38.061951 163.78 
L -33.0564 163.78 
L -28.050849 163.78 
L -23.045298 163.78 
L -18.039747 163.78 
L -13.034196 163.78 
L -8.028645 163.78 
L -3.023094 163.78 
L 1.982457 163.78 
L 6.988009 163.78 
L 11.99356 163.78 
L 16.999111 163.78 
L 22.004662 163.78 
L 27.010213 163.78 
L 32.015764 163.78 
L 37.021315 163.78 
L 42.026866 163.78 
L 47.032417 163.78 
L 52.037969 163.78 
L 57.04352 163.78 
L 62.049071 163.78 
L 67.054622 163.78 
L 72.060173 163.78 
L 77.065724 163.78 
L 82.071275 163.78 
L 87.076826 163.78 
L 92.082377 163.78 
L 97.087929 163.78 
L 102.09348 163.78 
L 107.099031 163.78 
L 112.104582 163.78 
L 117.110133 163.78 
L 122.115684 163.78 
L 127.121235 163.78 
L 132.126786 163.78 
L 137.132337 163.78 
L 142.137888 163.78 
L 147.14344 163.78 
L 152.148991 163.78 
L 157.154542 163.78 
L 162.160093 163.78 
L 167.165644 163.78 
L 172.171195 163.78 
L 177.176746 163.78 
L 182.182297 163.78 
L 187.187848 163.78 
L 192.1934 163.78 
L 197.198951 163.78 
L 202.204502 163.78 
L 207.210053 163.78 
L 212.215604 163.78 
L 217.221155 163.78 
L 222.226706 163.78 
L 227.232257 163.78 
L 232.237808 163.78 
L 237.24336 163.78 
L 242.248911 163.78 
L 247.254462 163.78 
L 252.260013 163.78 
L 257.265564 163.78 
L 262.271115 163.78 
L 267.276666 163.78 
L 272.282217 163.78 
L 277.287768 163.78 
L 282.293319 163.78 
L 287.298871 163.78 
L 292.304422 163.78 
L 297.309973 163.78 
L 302.315524 163.78 
L 307.321075 163.78 
L 312.326626 163.78 
L 317.332177 163.78 
L 322.337728 163.78 
L 327.343279 163.78 
L 332.348831 163.78 
L 337.354382 163.78 
L 342.359933 163.78 
L 347.365484 163.78 
L 352.371035 163.78 
L 357.376586 163.78 
L 362.382137 163.78 
L 367.387688 163.78 
L 372.393239 163.78 
L 377.398791 163.78 
L 382.404342 163.78 
L 387.409893 163.78 
L 392.415444 163.78 
L 397.420995 163.78 
L 402.426546 163.78 
L 407.432097 163.78 
L 412.437648 163.78 
L 417.443199 163.78 
L 422.44875 163.78 
L 427.454302 163.78 
L 432.459853 163.78 
L 437.465404 163.78 
L 442.470955 163.78 
L 447.476506 163.78 
L 452.482057 163.78 
L 457.487608 163.78 
L 462.493159 163.78 
L 467.49871 163.78 
L 472.504262 163.78 
L 477.509813 163.78 
L 482.515364 163.78 
L 487.520915 163.78 
L 492.526466 163.78 
L 497.532017 163.78 
L 502.537568 163.78 
L 507.543119 163.78 
L 512.54867 163.78 
L 517.554222 163.78 
L 522.559773 163.78 
L 527.565324 163.78 
L 532.570875 163.78 
L 537.576426 163.78 
L 542.581977 163.78 
L 547.587528 163.78 
L 552.593079 163.78 
L 557.59863 163.78 
L 562.604181 163.78 
L 567.609733 163.78 
L 572.615284 163.78 
L 577.620835 163.78 
L 582.626386 163.78 
L 587.631937 163.78 
L 592.637488 163.78 
L 597.643039 163.78 
L 602.64859 163.78 
L 607.654141 163.78 
L 612.659693 163.78 
L 617.665244 163.78 
L 622.670795 163.78 
L 627.676346 163.78 
L 632.681897 163.78 
L 637.687448 163.78 
L 642.692999 163.78 
L 647.69855 163.78 
L 652.704101 163.78 
L 657.709653 163.78 
L 662.715204 163.78 
L 667.720755 163.78 
L 672.726306 163.78 
L 677.731857 163.78 
L 682.737408 163.78 
L 687.742959 163.78 
L 692.74851 163.78 
L 697.754061 163.78 
L 702.759612 163.78 
L 707.765164 163.78 
L 712.770715 163.78 
L 717.776266 163.78 
L 722.781817 163.78 
L 727.787368 163.78 
L 732.792919 163.78 
L 737.79847 163.78 
L 742.804021 163.78 
L 747.809572 163.78 
L 752.815124 163.78 
L 757.820675 163.78 
L 762.826226 163.78 
L 767.831777 163.78 
L 772.837328 163.78 
L 777.842879 163.78 
L 782.84843 163.78 
L 787.853981 163.78 
L 792.859532 163.78 
L 797.865084 163.78 
L 802.870635 163.78 
L 807.876186 163.78 
L 812.881737 163.78 
L 817.887288 163.78 
L 822.892839 163.78 
L 827.89839 163.78 
L 832.903941 163.78 
L 837.909492 163.78 
L 842.915043 163.78 
L 847.920595 163.78 
L 852.926146 163.78 
L 857.931697 163.78 
L 862.937248 163.78 
L 867.942799 163.78 
L 872.94835 163.78 
L 877.953901 163.78 
L 882.959452 163.78 
L 887.965003 163.78 
L 892.970555 163.78 
L 897.976106 163.78 
L 902.981657 163.78 
L 907.987208 163.78 
L 912.992759 163.78 
L 917.99831 163.78 
L 923.003861 163.78 
L 928.009412 163.78 
L 933.014963 163.78 
L 938.020515 163.78 
L 943.026066 163.78 
L 943.026066 163.770667 
L 943.026066 163.770667 
L 938.020515 163.765347 
L 933.014963 163.757535 
L 928.009412 163.746371 
L 923.003861 163.730844 
L 917.99831 163.709837 
L 912.992759 163.682211 
L 907.987208 163.646916 
L 902.981657 163.603143 
L 897.976106 163.550506 
L 892.970555 163.48921 
L 887.965003 163.420216 
L 882.959452 163.345329 
L 877.953901 163.267214 
L 872.94835 163.189299 
L 867.942799 163.115561 
L 862.937248 163.050208 
L 857.931697 162.997293 
L 852.926146 162.960299 
L 847.920595 162.941761 
L 842.915043 162.942979 
L 837.909492 162.963867 
L 832.903941 163.002963 
L 827.89839 163.057598 
L 822.892839 163.124199 
L 817.887288 163.198672 
L 812.881737 163.276816 
L 807.876186 163.354706 
L 802.870635 163.429 
L 797.865084 163.497134 
L 792.859532 163.557407 
L 787.853981 163.60896 
L 782.84843 163.651666 
L 777.842879 163.685976 
L 772.837328 163.712734 
L 767.831777 163.73301 
L 762.826226 163.747947 
L 757.820675 163.75865 
L 752.815124 163.766114 
L 747.809572 163.771181 
L 742.804021 163.774531 
L 737.79847 163.776688 
L 732.792919 163.778042 
L 727.787368 163.778869 
L 722.781817 163.779363 
L 717.776266 163.779649 
L 712.770715 163.779811 
L 707.765164 163.779901 
L 702.759612 163.779949 
L 697.754061 163.779975 
L 692.74851 163.779988 
L 687.742959 163.779994 
L 682.737408 163.779997 
L 677.731857 163.779999 
L 672.726306 163.779999 
L 667.720755 163.78 
L 662.715204 163.78 
L 657.709653 163.78 
L 652.704101 163.78 
L 647.69855 163.78 
L 642.692999 163.78 
L 637.687448 163.78 
L 632.681897 163.78 
L 627.676346 163.779999 
L 622.670795 163.779998 
L 617.665244 163.779996 
L 612.659693 163.779991 
L 607.654141 163.779982 
L 602.64859 163.779963 
L 597.643039 163.779927 
L 592.637488 163.779858 
L 587.631937 163.779729 
L 582.626386 163.779497 
L 577.620835 163.779087 
L 572.615284 163.778382 
L 567.609733 163.777199 
L 562.604181 163.775266 
L 557.59863 163.772184 
L 552.593079 163.767397 
L 547.587528 163.760149 
L 542.581977 163.749457 
L 537.576426 163.734091 
L 532.570875 163.712582 
L 527.565324 163.683268 
L 522.559773 163.644375 
L 517.554222 163.594161 
L 512.54867 163.531097 
L 507.543119 163.454086 
L 502.537568 163.362687 
L 497.532017 163.257322 
L 492.526466 163.139413 
L 487.520915 163.011419 
L 482.515364 162.876745 
L 477.509813 162.739511 
L 472.504262 162.604201 
L 467.49871 162.475224 
L 462.493159 162.356456 
L 457.487608 162.25084 
L 452.482057 162.160106 
L 447.476506 162.084669 
L 442.470955 162.02374 
L 437.465404 161.975613 
L 432.459853 161.938108 
L 427.454302 161.909063 
L 422.44875 161.886813 
L 417.443199 161.870537 
L 412.437648 161.860439 
L 407.432097 161.857699 
L 402.426546 161.864224 
L 397.420995 161.882219 
L 392.415444 161.913659 
L 387.409893 161.959744 
L 382.404342 162.020413 
L 377.398791 162.094008 
L 372.393239 162.17711 
L 367.387688 162.264602 
L 362.382137 162.349924 
L 357.376586 162.425514 
L 352.371035 162.48336 
L 347.365484 162.515632 
L 342.359933 162.515296 
L 337.354382 162.476683 
L 332.348831 162.395936 
L 327.343279 162.271308 
L 322.337728 162.103294 
L 317.332177 161.894567 
L 312.326626 161.649756 
L 307.321075 161.375058 
L 302.315524 161.07774 
L 297.309973 160.765551 
L 292.304422 160.446106 
L 287.298871 160.126287 
L 282.293319 159.81169 
L 277.287768 159.506162 
L 272.282217 159.211447 
L 267.276666 158.926956 
L 262.271115 158.649657 
L 257.265564 158.374096 
L 252.260013 158.092547 
L 247.254462 157.795318 
L 242.248911 157.471213 
L 237.24336 157.108179 
L 232.237808 156.69415 
L 227.232257 156.218042 
L 222.226706 155.670863 
L 217.221155 155.04679 
L 212.215604 154.344075 
L 207.210053 153.565589 
L 202.204502 152.718814 
L 197.198951 151.815167 
L 192.1934 150.868598 
L 187.187848 149.893529 
L 182.182297 148.902297 
L 177.176746 147.90239 
L 172.171195 146.893793 
L 167.165644 145.86682 
L 162.160093 144.80077 
L 157.154542 143.66369 
L 152.148991 142.413462 
L 147.14344 141.000346 
L 142.137888 139.371006 
L 137.132337 137.47391 
L 132.126786 135.265884 
L 127.121235 132.719366 
L 122.115684 129.829774 
L 117.110133 126.622129 
L 112.104582 123.156018 
L 107.099031 119.527887 
L 102.09348 115.869805 
L 97.087929 112.344146 
L 92.082377 109.134078 
L 87.076826 106.430354 
L 82.071275 104.41551 
L 77.065724 103.247108 
L 72.060173 103.042 
L 67.054622 103.863651 
L 62.049071 105.714281 
L 57.04352 108.533031 
L 52.037969 112.200528 
L 47.032417 116.549361 
L 42.026866 121.379135 
L 37.021315 126.474159 
L 32.015764 131.621532 
L 27.010213 136.627466 
L 22.004662 141.330096 
L 16.999111 145.60765 
L 11.99356 149.381644 
L 6.988009 152.615461 
L 1.982457 155.30923 
L -3.023094 157.492269 
L -8.028645 159.214434 
L -13.034196 160.537569 
L -18.039747 161.527974 
L -23.045298 162.250471 
L -28.050849 162.764258 
L -33.0564 163.120502 
L -38.061951 163.361384 
L -43.067502 163.520248 
L -48.073054 163.622451 
L -53.078605 163.686596 
z
" style="fill:#dd8452;fill-opacity:0.25;stroke:#dd8452;"/>
   </g>
   <g id="patch_3">
    <path d="M 44.224063 163.78 
L 44.224063 7.2 
" style="fill:none;stroke:#ffffff;stroke-linecap:square;stroke-linejoin:miter;stroke-width:1.25;"/>
   </g>
   <g id="patch_4">
    <path d="M 44.224063 163.78 
L 845.723398 163.78 
" style="fill:none;stroke:#ffffff;stroke-linecap:square;stroke-linejoin:miter;stroke-width:1.25;"/>
   </g>
  </g>
  <g id="legend_1">
   <g id="text_15">
    <!-- Survived -->
    <g style="fill:#262626;" transform="translate(855.583273 90.299453)scale(0.12 -0.12)">
     <defs>
      <path d="M 4.5 23 
L 13.421875 23.78125 
Q 14.0625 18.40625 16.375 14.96875 
Q 18.703125 11.53125 23.578125 9.40625 
Q 28.46875 7.28125 34.578125 7.28125 
Q 39.984375 7.28125 44.140625 8.890625 
Q 48.296875 10.5 50.3125 13.296875 
Q 52.34375 16.109375 52.34375 19.4375 
Q 52.34375 22.796875 50.390625 25.3125 
Q 48.4375 27.828125 43.953125 29.546875 
Q 41.0625 30.671875 31.203125 33.03125 
Q 21.34375 35.40625 17.390625 37.5 
Q 12.25 40.1875 9.734375 44.15625 
Q 7.234375 48.140625 7.234375 53.078125 
Q 7.234375 58.5 10.296875 63.203125 
Q 13.375 67.921875 19.28125 70.359375 
Q 25.203125 72.796875 32.421875 72.796875 
Q 40.375 72.796875 46.453125 70.234375 
Q 52.546875 67.671875 55.8125 62.6875 
Q 59.078125 57.71875 59.328125 51.421875 
L 50.25 50.734375 
Q 49.515625 57.515625 45.28125 60.984375 
Q 41.0625 64.453125 32.8125 64.453125 
Q 24.21875 64.453125 20.28125 61.296875 
Q 16.359375 58.15625 16.359375 53.71875 
Q 16.359375 49.859375 19.140625 47.359375 
Q 21.875 44.875 33.421875 42.265625 
Q 44.96875 39.65625 49.265625 37.703125 
Q 55.515625 34.8125 58.484375 30.390625 
Q 61.46875 25.984375 61.46875 20.21875 
Q 61.46875 14.5 58.203125 9.4375 
Q 54.9375 4.390625 48.796875 1.578125 
Q 42.671875 -1.21875 35.015625 -1.21875 
Q 25.296875 -1.21875 18.71875 1.609375 
Q 12.15625 4.4375 8.421875 10.125 
Q 4.6875 15.828125 4.5 23 
z
" id="ArialMT-83"/>
      <path d="M 40.578125 0 
L 40.578125 7.625 
Q 34.515625 -1.171875 24.125 -1.171875 
Q 19.53125 -1.171875 15.546875 0.578125 
Q 11.578125 2.34375 9.640625 5 
Q 7.71875 7.671875 6.9375 11.53125 
Q 6.390625 14.109375 6.390625 19.734375 
L 6.390625 51.859375 
L 15.1875 51.859375 
L 15.1875 23.09375 
Q 15.1875 16.21875 15.71875 13.8125 
Q 16.546875 10.359375 19.234375 8.375 
Q 21.921875 6.390625 25.875 6.390625 
Q 29.828125 6.390625 33.296875 8.421875 
Q 36.765625 10.453125 38.203125 13.9375 
Q 39.65625 17.4375 39.65625 24.078125 
L 39.65625 51.859375 
L 48.4375 51.859375 
L 48.4375 0 
z
" id="ArialMT-117"/>
      <path d="M 21 0 
L 1.265625 51.859375 
L 10.546875 51.859375 
L 21.6875 20.796875 
Q 23.484375 15.765625 25 10.359375 
Q 26.171875 14.453125 28.265625 20.21875 
L 39.796875 51.859375 
L 48.828125 51.859375 
L 29.203125 0 
z
" id="ArialMT-118"/>
      <path d="M 6.640625 61.46875 
L 6.640625 71.578125 
L 15.4375 71.578125 
L 15.4375 61.46875 
z
M 6.640625 0 
L 6.640625 51.859375 
L 15.4375 51.859375 
L 15.4375 0 
z
" id="ArialMT-105"/>
      <path d="M 40.234375 0 
L 40.234375 6.546875 
Q 35.296875 -1.171875 25.734375 -1.171875 
Q 19.53125 -1.171875 14.328125 2.25 
Q 9.125 5.671875 6.265625 11.796875 
Q 3.421875 17.921875 3.421875 25.875 
Q 3.421875 33.640625 6 39.96875 
Q 8.59375 46.296875 13.765625 49.65625 
Q 18.953125 53.03125 25.34375 53.03125 
Q 30.03125 53.03125 33.6875 51.046875 
Q 37.359375 49.078125 39.65625 45.90625 
L 39.65625 71.578125 
L 48.390625 71.578125 
L 48.390625 0 
z
M 12.453125 25.875 
Q 12.453125 15.921875 16.640625 10.984375 
Q 20.84375 6.0625 26.5625 6.0625 
Q 32.328125 6.0625 36.34375 10.765625 
Q 40.375 15.484375 40.375 25.140625 
Q 40.375 35.796875 36.265625 40.765625 
Q 32.171875 45.75 26.171875 45.75 
Q 20.3125 45.75 16.375 40.96875 
Q 12.453125 36.1875 12.453125 25.875 
z
" id="ArialMT-100"/>
     </defs>
     <use xlink:href="#ArialMT-83"/>
     <use x="66.699219" xlink:href="#ArialMT-117"/>
     <use x="122.314453" xlink:href="#ArialMT-114"/>
     <use x="155.615234" xlink:href="#ArialMT-118"/>
     <use x="205.615234" xlink:href="#ArialMT-105"/>
     <use x="227.832031" xlink:href="#ArialMT-118"/>
     <use x="277.832031" xlink:href="#ArialMT-101"/>
     <use x="333.447266" xlink:href="#ArialMT-100"/>
    </g>
   </g>
   <g id="patch_5">
    <path d="M 860.46757 106.058047 
L 882.46757 106.058047 
L 882.46757 98.358047 
L 860.46757 98.358047 
z
" style="fill:#4c72b0;fill-opacity:0.25;stroke:#4c72b0;stroke-linejoin:miter;"/>
   </g>
   <g id="text_16">
    <!-- 0 -->
    <g style="fill:#262626;" transform="translate(891.26757 106.058047)scale(0.11 -0.11)">
     <use xlink:href="#ArialMT-48"/>
    </g>
   </g>
   <g id="patch_6">
    <path d="M 860.46757 121.617891 
L 882.46757 121.617891 
L 882.46757 113.917891 
L 860.46757 113.917891 
z
" style="fill:#dd8452;fill-opacity:0.25;stroke:#dd8452;stroke-linejoin:miter;"/>
   </g>
   <g id="text_17">
    <!-- 1 -->
    <g style="fill:#262626;" transform="translate(891.26757 121.617891)scale(0.11 -0.11)">
     <use xlink:href="#ArialMT-49"/>
    </g>
   </g>
  </g>
 </g>
 <defs>
  <clipPath id="p3d46aad6fe">
   <rect height="156.58" width="801.499336" x="44.224063" y="7.2"/>
  </clipPath>
 </defs>
</svg>
