<?xml version="1.0" encoding="utf-8" standalone="no"?>
<!DOCTYPE svg PUBLIC "-//W3C//DTD SVG 1.1//EN"
  "http://www.w3.org/Graphics/SVG/1.1/DTD/svg11.dtd">
<!-- Created with matplotlib (https://matplotlib.org/) -->
<svg height="248.518125pt" version="1.1" viewBox="0 0 388.0125 248.518125" width="388.0125pt" xmlns="http://www.w3.org/2000/svg" xmlns:xlink="http://www.w3.org/1999/xlink">
 <metadata>
  <rdf:RDF xmlns:cc="http://creativecommons.org/ns#" xmlns:dc="http://purl.org/dc/elements/1.1/" xmlns:rdf="http://www.w3.org/1999/02/22-rdf-syntax-ns#">
   <cc:Work>
    <dc:type rdf:resource="http://purl.org/dc/dcmitype/StillImage"/>
    <dc:date>2020-10-22T19:44:16.561178</dc:date>
    <dc:format>image/svg+xml</dc:format>
    <dc:creator>
     <cc:Agent>
      <dc:title>Matplotlib v3.3.2, https://matplotlib.org/</dc:title>
     </cc:Agent>
    </dc:creator>
   </cc:Work>
  </rdf:RDF>
 </metadata>
 <defs>
  <style type="text/css">*{stroke-linecap:butt;stroke-linejoin:round;}</style>
 </defs>
 <g id="figure_1">
  <g id="patch_1">
   <path d="M 0 248.518125 
L 388.0125 248.518125 
L 388.0125 0 
L 0 0 
z
" style="fill:none;"/>
  </g>
  <g id="axes_1">
   <g id="patch_2">
    <path d="M 46.0125 224.64 
L 380.8125 224.64 
L 380.8125 7.2 
L 46.0125 7.2 
z
" style="fill:#ffffff;"/>
   </g>
   <g id="matplotlib.axis_1">
    <g id="xtick_1">
     <g id="line2d_1">
      <defs>
       <path d="M 0 0 
L 0 3.5 
" id="m4bd5c2f873" style="stroke:#000000;stroke-width:0.8;"/>
      </defs>
      <g>
       <use style="stroke:#000000;stroke-width:0.8;" x="61.230682" xlink:href="#m4bd5c2f873" y="224.64"/>
      </g>
     </g>
     <g id="text_1">
      <!-- 0 -->
      <g transform="translate(58.049432 239.238437)scale(0.1 -0.1)">
       <defs>
        <path d="M 31.78125 66.40625 
Q 24.171875 66.40625 20.328125 58.90625 
Q 16.5 51.421875 16.5 36.375 
Q 16.5 21.390625 20.328125 13.890625 
Q 24.171875 6.390625 31.78125 6.390625 
Q 39.453125 6.390625 43.28125 13.890625 
Q 47.125 21.390625 47.125 36.375 
Q 47.125 51.421875 43.28125 58.90625 
Q 39.453125 66.40625 31.78125 66.40625 
z
M 31.78125 74.21875 
Q 44.046875 74.21875 50.515625 64.515625 
Q 56.984375 54.828125 56.984375 36.375 
Q 56.984375 17.96875 50.515625 8.265625 
Q 44.046875 -1.421875 31.78125 -1.421875 
Q 19.53125 -1.421875 13.0625 8.265625 
Q 6.59375 17.96875 6.59375 36.375 
Q 6.59375 54.828125 13.0625 64.515625 
Q 19.53125 74.21875 31.78125 74.21875 
z
" id="DejaVuSans-48"/>
       </defs>
       <use xlink:href="#DejaVuSans-48"/>
      </g>
     </g>
    </g>
    <g id="xtick_2">
     <g id="line2d_2">
      <g>
       <use style="stroke:#000000;stroke-width:0.8;" x="100.251661" xlink:href="#m4bd5c2f873" y="224.64"/>
      </g>
     </g>
     <g id="text_2">
      <!-- 10 -->
      <g transform="translate(93.889161 239.238437)scale(0.1 -0.1)">
       <defs>
        <path d="M 12.40625 8.296875 
L 28.515625 8.296875 
L 28.515625 63.921875 
L 10.984375 60.40625 
L 10.984375 69.390625 
L 28.421875 72.90625 
L 38.28125 72.90625 
L 38.28125 8.296875 
L 54.390625 8.296875 
L 54.390625 0 
L 12.40625 0 
z
" id="DejaVuSans-49"/>
       </defs>
       <use xlink:href="#DejaVuSans-49"/>
       <use x="63.623047" xlink:href="#DejaVuSans-48"/>
      </g>
     </g>
    </g>
    <g id="xtick_3">
     <g id="line2d_3">
      <g>
       <use style="stroke:#000000;stroke-width:0.8;" x="139.27264" xlink:href="#m4bd5c2f873" y="224.64"/>
      </g>
     </g>
     <g id="text_3">
      <!-- 20 -->
      <g transform="translate(132.91014 239.238437)scale(0.1 -0.1)">
       <defs>
        <path d="M 19.1875 8.296875 
L 53.609375 8.296875 
L 53.609375 0 
L 7.328125 0 
L 7.328125 8.296875 
Q 12.9375 14.109375 22.625 23.890625 
Q 32.328125 33.6875 34.8125 36.53125 
Q 39.546875 41.84375 41.421875 45.53125 
Q 43.3125 49.21875 43.3125 52.78125 
Q 43.3125 58.59375 39.234375 62.25 
Q 35.15625 65.921875 28.609375 65.921875 
Q 23.96875 65.921875 18.8125 64.3125 
Q 13.671875 62.703125 7.8125 59.421875 
L 7.8125 69.390625 
Q 13.765625 71.78125 18.9375 73 
Q 24.125 74.21875 28.421875 74.21875 
Q 39.75 74.21875 46.484375 68.546875 
Q 53.21875 62.890625 53.21875 53.421875 
Q 53.21875 48.921875 51.53125 44.890625 
Q 49.859375 40.875 45.40625 35.40625 
Q 44.1875 33.984375 37.640625 27.21875 
Q 31.109375 20.453125 19.1875 8.296875 
z
" id="DejaVuSans-50"/>
       </defs>
       <use xlink:href="#DejaVuSans-50"/>
       <use x="63.623047" xlink:href="#DejaVuSans-48"/>
      </g>
     </g>
    </g>
    <g id="xtick_4">
     <g id="line2d_4">
      <g>
       <use style="stroke:#000000;stroke-width:0.8;" x="178.293619" xlink:href="#m4bd5c2f873" y="224.64"/>
      </g>
     </g>
     <g id="text_4">
      <!-- 30 -->
      <g transform="translate(171.931119 239.238437)scale(0.1 -0.1)">
       <defs>
        <path d="M 40.578125 39.3125 
Q 47.65625 37.796875 51.625 33 
Q 55.609375 28.21875 55.609375 21.1875 
Q 55.609375 10.40625 48.1875 4.484375 
Q 40.765625 -1.421875 27.09375 -1.421875 
Q 22.515625 -1.421875 17.65625 -0.515625 
Q 12.796875 0.390625 7.625 2.203125 
L 7.625 11.71875 
Q 11.71875 9.328125 16.59375 8.109375 
Q 21.484375 6.890625 26.8125 6.890625 
Q 36.078125 6.890625 40.9375 10.546875 
Q 45.796875 14.203125 45.796875 21.1875 
Q 45.796875 27.640625 41.28125 31.265625 
Q 36.765625 34.90625 28.71875 34.90625 
L 20.21875 34.90625 
L 20.21875 43.015625 
L 29.109375 43.015625 
Q 36.375 43.015625 40.234375 45.921875 
Q 44.09375 48.828125 44.09375 54.296875 
Q 44.09375 59.90625 40.109375 62.90625 
Q 36.140625 65.921875 28.71875 65.921875 
Q 24.65625 65.921875 20.015625 65.03125 
Q 15.375 64.15625 9.8125 62.3125 
L 9.8125 71.09375 
Q 15.4375 72.65625 20.34375 73.4375 
Q 25.25 74.21875 29.59375 74.21875 
Q 40.828125 74.21875 47.359375 69.109375 
Q 53.90625 64.015625 53.90625 55.328125 
Q 53.90625 49.265625 50.4375 45.09375 
Q 46.96875 40.921875 40.578125 39.3125 
z
" id="DejaVuSans-51"/>
       </defs>
       <use xlink:href="#DejaVuSans-51"/>
       <use x="63.623047" xlink:href="#DejaVuSans-48"/>
      </g>
     </g>
    </g>
    <g id="xtick_5">
     <g id="line2d_5">
      <g>
       <use style="stroke:#000000;stroke-width:0.8;" x="217.314598" xlink:href="#m4bd5c2f873" y="224.64"/>
      </g>
     </g>
     <g id="text_5">
      <!-- 40 -->
      <g transform="translate(210.952098 239.238437)scale(0.1 -0.1)">
       <defs>
        <path d="M 37.796875 64.3125 
L 12.890625 25.390625 
L 37.796875 25.390625 
z
M 35.203125 72.90625 
L 47.609375 72.90625 
L 47.609375 25.390625 
L 58.015625 25.390625 
L 58.015625 17.1875 
L 47.609375 17.1875 
L 47.609375 0 
L 37.796875 0 
L 37.796875 17.1875 
L 4.890625 17.1875 
L 4.890625 26.703125 
z
" id="DejaVuSans-52"/>
       </defs>
       <use xlink:href="#DejaVuSans-52"/>
       <use x="63.623047" xlink:href="#DejaVuSans-48"/>
      </g>
     </g>
    </g>
    <g id="xtick_6">
     <g id="line2d_6">
      <g>
       <use style="stroke:#000000;stroke-width:0.8;" x="256.335577" xlink:href="#m4bd5c2f873" y="224.64"/>
      </g>
     </g>
     <g id="text_6">
      <!-- 50 -->
      <g transform="translate(249.973077 239.238437)scale(0.1 -0.1)">
       <defs>
        <path d="M 10.796875 72.90625 
L 49.515625 72.90625 
L 49.515625 64.59375 
L 19.828125 64.59375 
L 19.828125 46.734375 
Q 21.96875 47.46875 24.109375 47.828125 
Q 26.265625 48.1875 28.421875 48.1875 
Q 40.625 48.1875 47.75 41.5 
Q 54.890625 34.8125 54.890625 23.390625 
Q 54.890625 11.625 47.5625 5.09375 
Q 40.234375 -1.421875 26.90625 -1.421875 
Q 22.3125 -1.421875 17.546875 -0.640625 
Q 12.796875 0.140625 7.71875 1.703125 
L 7.71875 11.625 
Q 12.109375 9.234375 16.796875 8.0625 
Q 21.484375 6.890625 26.703125 6.890625 
Q 35.15625 6.890625 40.078125 11.328125 
Q 45.015625 15.765625 45.015625 23.390625 
Q 45.015625 31 40.078125 35.4375 
Q 35.15625 39.890625 26.703125 39.890625 
Q 22.75 39.890625 18.8125 39.015625 
Q 14.890625 38.140625 10.796875 36.28125 
z
" id="DejaVuSans-53"/>
       </defs>
       <use xlink:href="#DejaVuSans-53"/>
       <use x="63.623047" xlink:href="#DejaVuSans-48"/>
      </g>
     </g>
    </g>
    <g id="xtick_7">
     <g id="line2d_7">
      <g>
       <use style="stroke:#000000;stroke-width:0.8;" x="295.356556" xlink:href="#m4bd5c2f873" y="224.64"/>
      </g>
     </g>
     <g id="text_7">
      <!-- 60 -->
      <g transform="translate(288.994056 239.238437)scale(0.1 -0.1)">
       <defs>
        <path d="M 33.015625 40.375 
Q 26.375 40.375 22.484375 35.828125 
Q 18.609375 31.296875 18.609375 23.390625 
Q 18.609375 15.53125 22.484375 10.953125 
Q 26.375 6.390625 33.015625 6.390625 
Q 39.65625 6.390625 43.53125 10.953125 
Q 47.40625 15.53125 47.40625 23.390625 
Q 47.40625 31.296875 43.53125 35.828125 
Q 39.65625 40.375 33.015625 40.375 
z
M 52.59375 71.296875 
L 52.59375 62.3125 
Q 48.875 64.0625 45.09375 64.984375 
Q 41.3125 65.921875 37.59375 65.921875 
Q 27.828125 65.921875 22.671875 59.328125 
Q 17.53125 52.734375 16.796875 39.40625 
Q 19.671875 43.65625 24.015625 45.921875 
Q 28.375 48.1875 33.59375 48.1875 
Q 44.578125 48.1875 50.953125 41.515625 
Q 57.328125 34.859375 57.328125 23.390625 
Q 57.328125 12.15625 50.6875 5.359375 
Q 44.046875 -1.421875 33.015625 -1.421875 
Q 20.359375 -1.421875 13.671875 8.265625 
Q 6.984375 17.96875 6.984375 36.375 
Q 6.984375 53.65625 15.1875 63.9375 
Q 23.390625 74.21875 37.203125 74.21875 
Q 40.921875 74.21875 44.703125 73.484375 
Q 48.484375 72.75 52.59375 71.296875 
z
" id="DejaVuSans-54"/>
       </defs>
       <use xlink:href="#DejaVuSans-54"/>
       <use x="63.623047" xlink:href="#DejaVuSans-48"/>
      </g>
     </g>
    </g>
    <g id="xtick_8">
     <g id="line2d_8">
      <g>
       <use style="stroke:#000000;stroke-width:0.8;" x="334.377535" xlink:href="#m4bd5c2f873" y="224.64"/>
      </g>
     </g>
     <g id="text_8">
      <!-- 70 -->
      <g transform="translate(328.015035 239.238437)scale(0.1 -0.1)">
       <defs>
        <path d="M 8.203125 72.90625 
L 55.078125 72.90625 
L 55.078125 68.703125 
L 28.609375 0 
L 18.3125 0 
L 43.21875 64.59375 
L 8.203125 64.59375 
z
" id="DejaVuSans-55"/>
       </defs>
       <use xlink:href="#DejaVuSans-55"/>
       <use x="63.623047" xlink:href="#DejaVuSans-48"/>
      </g>
     </g>
    </g>
    <g id="xtick_9">
     <g id="line2d_9">
      <g>
       <use style="stroke:#000000;stroke-width:0.8;" x="373.398514" xlink:href="#m4bd5c2f873" y="224.64"/>
      </g>
     </g>
     <g id="text_9">
      <!-- 80 -->
      <g transform="translate(367.036014 239.238437)scale(0.1 -0.1)">
       <defs>
        <path d="M 31.78125 34.625 
Q 24.75 34.625 20.71875 30.859375 
Q 16.703125 27.09375 16.703125 20.515625 
Q 16.703125 13.921875 20.71875 10.15625 
Q 24.75 6.390625 31.78125 6.390625 
Q 38.8125 6.390625 42.859375 10.171875 
Q 46.921875 13.96875 46.921875 20.515625 
Q 46.921875 27.09375 42.890625 30.859375 
Q 38.875 34.625 31.78125 34.625 
z
M 21.921875 38.8125 
Q 15.578125 40.375 12.03125 44.71875 
Q 8.5 49.078125 8.5 55.328125 
Q 8.5 64.0625 14.71875 69.140625 
Q 20.953125 74.21875 31.78125 74.21875 
Q 42.671875 74.21875 48.875 69.140625 
Q 55.078125 64.0625 55.078125 55.328125 
Q 55.078125 49.078125 51.53125 44.71875 
Q 48 40.375 41.703125 38.8125 
Q 48.828125 37.15625 52.796875 32.3125 
Q 56.78125 27.484375 56.78125 20.515625 
Q 56.78125 9.90625 50.3125 4.234375 
Q 43.84375 -1.421875 31.78125 -1.421875 
Q 19.734375 -1.421875 13.25 4.234375 
Q 6.78125 9.90625 6.78125 20.515625 
Q 6.78125 27.484375 10.78125 32.3125 
Q 14.796875 37.15625 21.921875 38.8125 
z
M 18.3125 54.390625 
Q 18.3125 48.734375 21.84375 45.5625 
Q 25.390625 42.390625 31.78125 42.390625 
Q 38.140625 42.390625 41.71875 45.5625 
Q 45.3125 48.734375 45.3125 54.390625 
Q 45.3125 60.0625 41.71875 63.234375 
Q 38.140625 66.40625 31.78125 66.40625 
Q 25.390625 66.40625 21.84375 63.234375 
Q 18.3125 60.0625 18.3125 54.390625 
z
" id="DejaVuSans-56"/>
       </defs>
       <use xlink:href="#DejaVuSans-56"/>
       <use x="63.623047" xlink:href="#DejaVuSans-48"/>
      </g>
     </g>
    </g>
   </g>
   <g id="matplotlib.axis_2">
    <g id="ytick_1">
     <g id="line2d_10">
      <defs>
       <path d="M 0 0 
L -3.5 0 
" id="m1618427af5" style="stroke:#000000;stroke-width:0.8;"/>
      </defs>
      <g>
       <use style="stroke:#000000;stroke-width:0.8;" x="46.0125" xlink:href="#m1618427af5" y="214.756364"/>
      </g>
     </g>
     <g id="text_10">
      <!-- 0 -->
      <g transform="translate(32.65 218.555582)scale(0.1 -0.1)">
       <use xlink:href="#DejaVuSans-48"/>
      </g>
     </g>
    </g>
    <g id="ytick_2">
     <g id="line2d_11">
      <g>
       <use style="stroke:#000000;stroke-width:0.8;" x="46.0125" xlink:href="#m1618427af5" y="177.986176"/>
      </g>
     </g>
     <g id="text_11">
      <!-- 5000 -->
      <g transform="translate(13.5625 181.785394)scale(0.1 -0.1)">
       <use xlink:href="#DejaVuSans-53"/>
       <use x="63.623047" xlink:href="#DejaVuSans-48"/>
       <use x="127.246094" xlink:href="#DejaVuSans-48"/>
       <use x="190.869141" xlink:href="#DejaVuSans-48"/>
      </g>
     </g>
    </g>
    <g id="ytick_3">
     <g id="line2d_12">
      <g>
       <use style="stroke:#000000;stroke-width:0.8;" x="46.0125" xlink:href="#m1618427af5" y="141.215988"/>
      </g>
     </g>
     <g id="text_12">
      <!-- 10000 -->
      <g transform="translate(7.2 145.015206)scale(0.1 -0.1)">
       <use xlink:href="#DejaVuSans-49"/>
       <use x="63.623047" xlink:href="#DejaVuSans-48"/>
       <use x="127.246094" xlink:href="#DejaVuSans-48"/>
       <use x="190.869141" xlink:href="#DejaVuSans-48"/>
       <use x="254.492188" xlink:href="#DejaVuSans-48"/>
      </g>
     </g>
    </g>
    <g id="ytick_4">
     <g id="line2d_13">
      <g>
       <use style="stroke:#000000;stroke-width:0.8;" x="46.0125" xlink:href="#m1618427af5" y="104.4458"/>
      </g>
     </g>
     <g id="text_13">
      <!-- 15000 -->
      <g transform="translate(7.2 108.245018)scale(0.1 -0.1)">
       <use xlink:href="#DejaVuSans-49"/>
       <use x="63.623047" xlink:href="#DejaVuSans-53"/>
       <use x="127.246094" xlink:href="#DejaVuSans-48"/>
       <use x="190.869141" xlink:href="#DejaVuSans-48"/>
       <use x="254.492188" xlink:href="#DejaVuSans-48"/>
      </g>
     </g>
    </g>
    <g id="ytick_5">
     <g id="line2d_14">
      <g>
       <use style="stroke:#000000;stroke-width:0.8;" x="46.0125" xlink:href="#m1618427af5" y="67.675612"/>
      </g>
     </g>
     <g id="text_14">
      <!-- 20000 -->
      <g transform="translate(7.2 71.47483)scale(0.1 -0.1)">
       <use xlink:href="#DejaVuSans-50"/>
       <use x="63.623047" xlink:href="#DejaVuSans-48"/>
       <use x="127.246094" xlink:href="#DejaVuSans-48"/>
       <use x="190.869141" xlink:href="#DejaVuSans-48"/>
       <use x="254.492188" xlink:href="#DejaVuSans-48"/>
      </g>
     </g>
    </g>
    <g id="ytick_6">
     <g id="line2d_15">
      <g>
       <use style="stroke:#000000;stroke-width:0.8;" x="46.0125" xlink:href="#m1618427af5" y="30.905424"/>
      </g>
     </g>
     <g id="text_15">
      <!-- 25000 -->
      <g transform="translate(7.2 34.704642)scale(0.1 -0.1)">
       <use xlink:href="#DejaVuSans-50"/>
       <use x="63.623047" xlink:href="#DejaVuSans-53"/>
       <use x="127.246094" xlink:href="#DejaVuSans-48"/>
       <use x="190.869141" xlink:href="#DejaVuSans-48"/>
       <use x="254.492188" xlink:href="#DejaVuSans-48"/>
      </g>
     </g>
    </g>
   </g>
   <g id="line2d_16">
    <path clip-path="url(#pb2d73f4c00)" d="M 61.230682 214.756364 
L 65.13278 214.756364 
L 69.034878 214.756364 
L 72.936976 214.756364 
L 76.839073 214.756364 
L 80.741171 214.756364 
L 84.643269 214.756364 
L 88.545367 214.756364 
L 92.447465 214.756364 
L 96.349563 214.756364 
L 100.251661 214.756364 
L 104.153759 214.751146 
L 108.055857 214.750752 
L 111.957955 214.750111 
L 115.860052 214.750281 
L 119.76215 214.750474 
L 123.664248 214.750251 
L 127.566346 214.750398 
L 131.468444 214.749758 
L 135.370542 214.749087 
L 139.27264 214.748975 
L 143.174738 214.748936 
L 147.076836 214.748831 
L 150.978934 214.74846 
L 154.881031 214.748419 
L 158.783129 214.748571 
L 162.685227 214.748699 
L 166.587325 214.748457 
L 170.489423 214.748587 
L 174.391521 214.748681 
L 178.293619 214.748541 
L 182.195717 214.748633 
L 186.097815 214.748578 
L 189.999913 214.748615 
L 193.90201 214.748519 
L 197.804108 214.748606 
L 201.706206 214.748597 
L 205.608304 214.748695 
L 209.510402 214.748737 
L 213.4125 214.748833 
L 217.314598 214.748904 
L 221.216696 214.748994 
L 225.118794 214.749034 
L 229.020892 214.749082 
L 232.92299 214.749027 
L 236.825087 214.749068 
L 240.727185 214.749022 
L 244.629283 214.748935 
L 248.531381 214.749009 
L 252.433479 214.749027 
L 256.335577 214.749089 
L 260.237675 214.749142 
L 264.139773 214.749162 
L 268.041871 214.749187 
L 271.943969 214.749251 
L 275.846066 214.749231 
L 279.748164 214.749286 
L 283.650262 214.749266 
L 287.55236 214.749325 
L 291.454458 214.749383 
L 295.356556 214.749412 
L 299.258654 214.749442 
L 303.160752 214.749488 
L 307.06285 214.749416 
L 310.964948 214.749429 
L 314.867045 214.74948 
L 318.769143 214.749494 
L 322.671241 214.749503 
L 326.573339 214.749534 
L 330.475437 214.74957 
L 334.377535 214.749584 
L 338.279633 214.749625 
L 342.181731 214.749669 
L 346.083829 214.7497 
L 349.985927 214.749744 
L 353.888024 214.749777 
L 357.790122 214.749771 
L 361.69222 214.749749 
L 365.594318 214.749704 
" style="fill:none;stroke:#ff0000;stroke-linecap:square;stroke-width:2;"/>
    <defs>
     <path d="M -3 0 
L 3 0 
M 0 3 
L 0 -3 
" id="mfd3ec9c943" style="stroke:#ff0000;"/>
    </defs>
    <g clip-path="url(#pb2d73f4c00)">
     <use style="fill:#ff0000;stroke:#ff0000;" x="61.230682" xlink:href="#mfd3ec9c943" y="214.756364"/>
     <use style="fill:#ff0000;stroke:#ff0000;" x="65.13278" xlink:href="#mfd3ec9c943" y="214.756364"/>
     <use style="fill:#ff0000;stroke:#ff0000;" x="69.034878" xlink:href="#mfd3ec9c943" y="214.756364"/>
     <use style="fill:#ff0000;stroke:#ff0000;" x="72.936976" xlink:href="#mfd3ec9c943" y="214.756364"/>
     <use style="fill:#ff0000;stroke:#ff0000;" x="76.839073" xlink:href="#mfd3ec9c943" y="214.756364"/>
     <use style="fill:#ff0000;stroke:#ff0000;" x="80.741171" xlink:href="#mfd3ec9c943" y="214.756364"/>
     <use style="fill:#ff0000;stroke:#ff0000;" x="84.643269" xlink:href="#mfd3ec9c943" y="214.756364"/>
     <use style="fill:#ff0000;stroke:#ff0000;" x="88.545367" xlink:href="#mfd3ec9c943" y="214.756364"/>
     <use style="fill:#ff0000;stroke:#ff0000;" x="92.447465" xlink:href="#mfd3ec9c943" y="214.756364"/>
     <use style="fill:#ff0000;stroke:#ff0000;" x="96.349563" xlink:href="#mfd3ec9c943" y="214.756364"/>
     <use style="fill:#ff0000;stroke:#ff0000;" x="100.251661" xlink:href="#mfd3ec9c943" y="214.756364"/>
     <use style="fill:#ff0000;stroke:#ff0000;" x="104.153759" xlink:href="#mfd3ec9c943" y="214.751146"/>
     <use style="fill:#ff0000;stroke:#ff0000;" x="108.055857" xlink:href="#mfd3ec9c943" y="214.750752"/>
     <use style="fill:#ff0000;stroke:#ff0000;" x="111.957955" xlink:href="#mfd3ec9c943" y="214.750111"/>
     <use style="fill:#ff0000;stroke:#ff0000;" x="115.860052" xlink:href="#mfd3ec9c943" y="214.750281"/>
     <use style="fill:#ff0000;stroke:#ff0000;" x="119.76215" xlink:href="#mfd3ec9c943" y="214.750474"/>
     <use style="fill:#ff0000;stroke:#ff0000;" x="123.664248" xlink:href="#mfd3ec9c943" y="214.750251"/>
     <use style="fill:#ff0000;stroke:#ff0000;" x="127.566346" xlink:href="#mfd3ec9c943" y="214.750398"/>
     <use style="fill:#ff0000;stroke:#ff0000;" x="131.468444" xlink:href="#mfd3ec9c943" y="214.749758"/>
     <use style="fill:#ff0000;stroke:#ff0000;" x="135.370542" xlink:href="#mfd3ec9c943" y="214.749087"/>
     <use style="fill:#ff0000;stroke:#ff0000;" x="139.27264" xlink:href="#mfd3ec9c943" y="214.748975"/>
     <use style="fill:#ff0000;stroke:#ff0000;" x="143.174738" xlink:href="#mfd3ec9c943" y="214.748936"/>
     <use style="fill:#ff0000;stroke:#ff0000;" x="147.076836" xlink:href="#mfd3ec9c943" y="214.748831"/>
     <use style="fill:#ff0000;stroke:#ff0000;" x="150.978934" xlink:href="#mfd3ec9c943" y="214.74846"/>
     <use style="fill:#ff0000;stroke:#ff0000;" x="154.881031" xlink:href="#mfd3ec9c943" y="214.748419"/>
     <use style="fill:#ff0000;stroke:#ff0000;" x="158.783129" xlink:href="#mfd3ec9c943" y="214.748571"/>
     <use style="fill:#ff0000;stroke:#ff0000;" x="162.685227" xlink:href="#mfd3ec9c943" y="214.748699"/>
     <use style="fill:#ff0000;stroke:#ff0000;" x="166.587325" xlink:href="#mfd3ec9c943" y="214.748457"/>
     <use style="fill:#ff0000;stroke:#ff0000;" x="170.489423" xlink:href="#mfd3ec9c943" y="214.748587"/>
     <use style="fill:#ff0000;stroke:#ff0000;" x="174.391521" xlink:href="#mfd3ec9c943" y="214.748681"/>
     <use style="fill:#ff0000;stroke:#ff0000;" x="178.293619" xlink:href="#mfd3ec9c943" y="214.748541"/>
     <use style="fill:#ff0000;stroke:#ff0000;" x="182.195717" xlink:href="#mfd3ec9c943" y="214.748633"/>
     <use style="fill:#ff0000;stroke:#ff0000;" x="186.097815" xlink:href="#mfd3ec9c943" y="214.748578"/>
     <use style="fill:#ff0000;stroke:#ff0000;" x="189.999913" xlink:href="#mfd3ec9c943" y="214.748615"/>
     <use style="fill:#ff0000;stroke:#ff0000;" x="193.90201" xlink:href="#mfd3ec9c943" y="214.748519"/>
     <use style="fill:#ff0000;stroke:#ff0000;" x="197.804108" xlink:href="#mfd3ec9c943" y="214.748606"/>
     <use style="fill:#ff0000;stroke:#ff0000;" x="201.706206" xlink:href="#mfd3ec9c943" y="214.748597"/>
     <use style="fill:#ff0000;stroke:#ff0000;" x="205.608304" xlink:href="#mfd3ec9c943" y="214.748695"/>
     <use style="fill:#ff0000;stroke:#ff0000;" x="209.510402" xlink:href="#mfd3ec9c943" y="214.748737"/>
     <use style="fill:#ff0000;stroke:#ff0000;" x="213.4125" xlink:href="#mfd3ec9c943" y="214.748833"/>
     <use style="fill:#ff0000;stroke:#ff0000;" x="217.314598" xlink:href="#mfd3ec9c943" y="214.748904"/>
     <use style="fill:#ff0000;stroke:#ff0000;" x="221.216696" xlink:href="#mfd3ec9c943" y="214.748994"/>
     <use style="fill:#ff0000;stroke:#ff0000;" x="225.118794" xlink:href="#mfd3ec9c943" y="214.749034"/>
     <use style="fill:#ff0000;stroke:#ff0000;" x="229.020892" xlink:href="#mfd3ec9c943" y="214.749082"/>
     <use style="fill:#ff0000;stroke:#ff0000;" x="232.92299" xlink:href="#mfd3ec9c943" y="214.749027"/>
     <use style="fill:#ff0000;stroke:#ff0000;" x="236.825087" xlink:href="#mfd3ec9c943" y="214.749068"/>
     <use style="fill:#ff0000;stroke:#ff0000;" x="240.727185" xlink:href="#mfd3ec9c943" y="214.749022"/>
     <use style="fill:#ff0000;stroke:#ff0000;" x="244.629283" xlink:href="#mfd3ec9c943" y="214.748935"/>
     <use style="fill:#ff0000;stroke:#ff0000;" x="248.531381" xlink:href="#mfd3ec9c943" y="214.749009"/>
     <use style="fill:#ff0000;stroke:#ff0000;" x="252.433479" xlink:href="#mfd3ec9c943" y="214.749027"/>
     <use style="fill:#ff0000;stroke:#ff0000;" x="256.335577" xlink:href="#mfd3ec9c943" y="214.749089"/>
     <use style="fill:#ff0000;stroke:#ff0000;" x="260.237675" xlink:href="#mfd3ec9c943" y="214.749142"/>
     <use style="fill:#ff0000;stroke:#ff0000;" x="264.139773" xlink:href="#mfd3ec9c943" y="214.749162"/>
     <use style="fill:#ff0000;stroke:#ff0000;" x="268.041871" xlink:href="#mfd3ec9c943" y="214.749187"/>
     <use style="fill:#ff0000;stroke:#ff0000;" x="271.943969" xlink:href="#mfd3ec9c943" y="214.749251"/>
     <use style="fill:#ff0000;stroke:#ff0000;" x="275.846066" xlink:href="#mfd3ec9c943" y="214.749231"/>
     <use style="fill:#ff0000;stroke:#ff0000;" x="279.748164" xlink:href="#mfd3ec9c943" y="214.749286"/>
     <use style="fill:#ff0000;stroke:#ff0000;" x="283.650262" xlink:href="#mfd3ec9c943" y="214.749266"/>
     <use style="fill:#ff0000;stroke:#ff0000;" x="287.55236" xlink:href="#mfd3ec9c943" y="214.749325"/>
     <use style="fill:#ff0000;stroke:#ff0000;" x="291.454458" xlink:href="#mfd3ec9c943" y="214.749383"/>
     <use style="fill:#ff0000;stroke:#ff0000;" x="295.356556" xlink:href="#mfd3ec9c943" y="214.749412"/>
     <use style="fill:#ff0000;stroke:#ff0000;" x="299.258654" xlink:href="#mfd3ec9c943" y="214.749442"/>
     <use style="fill:#ff0000;stroke:#ff0000;" x="303.160752" xlink:href="#mfd3ec9c943" y="214.749488"/>
     <use style="fill:#ff0000;stroke:#ff0000;" x="307.06285" xlink:href="#mfd3ec9c943" y="214.749416"/>
     <use style="fill:#ff0000;stroke:#ff0000;" x="310.964948" xlink:href="#mfd3ec9c943" y="214.749429"/>
     <use style="fill:#ff0000;stroke:#ff0000;" x="314.867045" xlink:href="#mfd3ec9c943" y="214.74948"/>
     <use style="fill:#ff0000;stroke:#ff0000;" x="318.769143" xlink:href="#mfd3ec9c943" y="214.749494"/>
     <use style="fill:#ff0000;stroke:#ff0000;" x="322.671241" xlink:href="#mfd3ec9c943" y="214.749503"/>
     <use style="fill:#ff0000;stroke:#ff0000;" x="326.573339" xlink:href="#mfd3ec9c943" y="214.749534"/>
     <use style="fill:#ff0000;stroke:#ff0000;" x="330.475437" xlink:href="#mfd3ec9c943" y="214.74957"/>
     <use style="fill:#ff0000;stroke:#ff0000;" x="334.377535" xlink:href="#mfd3ec9c943" y="214.749584"/>
     <use style="fill:#ff0000;stroke:#ff0000;" x="338.279633" xlink:href="#mfd3ec9c943" y="214.749625"/>
     <use style="fill:#ff0000;stroke:#ff0000;" x="342.181731" xlink:href="#mfd3ec9c943" y="214.749669"/>
     <use style="fill:#ff0000;stroke:#ff0000;" x="346.083829" xlink:href="#mfd3ec9c943" y="214.7497"/>
     <use style="fill:#ff0000;stroke:#ff0000;" x="349.985927" xlink:href="#mfd3ec9c943" y="214.749744"/>
     <use style="fill:#ff0000;stroke:#ff0000;" x="353.888024" xlink:href="#mfd3ec9c943" y="214.749777"/>
     <use style="fill:#ff0000;stroke:#ff0000;" x="357.790122" xlink:href="#mfd3ec9c943" y="214.749771"/>
     <use style="fill:#ff0000;stroke:#ff0000;" x="361.69222" xlink:href="#mfd3ec9c943" y="214.749749"/>
     <use style="fill:#ff0000;stroke:#ff0000;" x="365.594318" xlink:href="#mfd3ec9c943" y="214.749704"/>
    </g>
   </g>
   <g id="line2d_17">
    <path clip-path="url(#pb2d73f4c00)" d="M 61.230682 214.743881 
L 65.13278 214.742777 
L 69.034878 214.725636 
L 72.936976 108.500235 
L 76.839073 116.338141 
L 80.741171 128.738696 
L 84.643269 85.249395 
L 88.545367 187.450795 
L 92.447465 17.083636 
L 96.349563 47.49752 
L 100.251661 27.028394 
L 104.153759 192.038175 
L 108.055857 214.640868 
L 111.957955 214.736487 
L 115.860052 214.736688 
L 119.76215 214.736611 
L 123.664248 214.736034 
L 127.566346 214.734762 
L 131.468444 214.737608 
L 135.370542 214.741889 
L 139.27264 214.744121 
L 143.174738 214.742809 
L 147.076836 214.743648 
L 150.978934 214.740601 
L 154.881031 214.745149 
L 158.783129 214.745133 
L 162.685227 214.74452 
L 166.587325 214.745533 
L 170.489423 214.745268 
L 174.391521 214.745151 
L 178.293619 214.748741 
L 182.195717 214.748642 
L 186.097815 214.748783 
L 189.999913 214.748927 
L 193.90201 214.749182 
L 197.804108 214.749129 
L 201.706206 214.749191 
L 205.608304 214.749156 
L 209.510402 214.749207 
L 213.4125 214.749207 
L 217.314598 214.749235 
L 221.216696 214.749233 
L 225.118794 214.749343 
L 229.020892 214.749375 
L 232.92299 214.74909 
L 236.825087 214.749003 
L 240.727185 214.749105 
L 244.629283 214.749324 
L 248.531381 214.749352 
L 252.433479 214.749336 
L 256.335577 214.749294 
L 260.237675 214.749237 
L 264.139773 214.74934 
L 268.041871 214.74931 
L 271.943969 214.749322 
L 275.846066 214.749341 
L 279.748164 214.749375 
L 283.650262 214.749306 
L 287.55236 214.749291 
L 291.454458 214.749296 
L 295.356556 214.749248 
L 299.258654 214.749228 
L 303.160752 214.749217 
L 307.06285 214.749366 
L 310.964948 214.74933 
L 314.867045 214.749339 
L 318.769143 214.749369 
L 322.671241 214.749297 
L 326.573339 214.749248 
L 330.475437 214.749277 
L 334.377535 214.749286 
L 338.279633 214.749285 
L 342.181731 214.749285 
L 346.083829 214.749248 
L 349.985927 214.749245 
L 353.888024 214.749244 
L 357.790122 214.749294 
L 361.69222 214.749293 
L 365.594318 214.749209 
" style="fill:none;stroke:#0000ff;stroke-linecap:square;stroke-width:3;"/>
   </g>
   <g id="patch_3">
    <path d="M 46.0125 224.64 
L 46.0125 7.2 
" style="fill:none;stroke:#000000;stroke-linecap:square;stroke-linejoin:miter;stroke-width:0.8;"/>
   </g>
   <g id="patch_4">
    <path d="M 380.8125 224.64 
L 380.8125 7.2 
" style="fill:none;stroke:#000000;stroke-linecap:square;stroke-linejoin:miter;stroke-width:0.8;"/>
   </g>
   <g id="patch_5">
    <path d="M 46.0125 224.64 
L 380.8125 224.64 
" style="fill:none;stroke:#000000;stroke-linecap:square;stroke-linejoin:miter;stroke-width:0.8;"/>
   </g>
   <g id="patch_6">
    <path d="M 46.0125 7.2 
L 380.8125 7.2 
" style="fill:none;stroke:#000000;stroke-linecap:square;stroke-linejoin:miter;stroke-width:0.8;"/>
   </g>
   <g id="legend_1">
    <g id="patch_7">
     <path d="M 318.5375 44.55625 
L 373.8125 44.55625 
Q 375.8125 44.55625 375.8125 42.55625 
L 375.8125 14.2 
Q 375.8125 12.2 373.8125 12.2 
L 318.5375 12.2 
Q 316.5375 12.2 316.5375 14.2 
L 316.5375 42.55625 
Q 316.5375 44.55625 318.5375 44.55625 
z
" style="fill:#ffffff;opacity:0.8;stroke:#cccccc;stroke-linejoin:miter;"/>
    </g>
    <g id="line2d_18">
     <path d="M 320.5375 20.298437 
L 340.5375 20.298437 
" style="fill:none;stroke:#ff0000;stroke-linecap:square;stroke-width:2;"/>
    </g>
    <g id="line2d_19">
     <g>
      <use style="fill:#ff0000;stroke:#ff0000;" x="330.5375" xlink:href="#mfd3ec9c943" y="20.298437"/>
     </g>
    </g>
    <g id="text_16">
     <!-- train -->
     <g transform="translate(348.5375 23.798437)scale(0.1 -0.1)">
      <defs>
       <path d="M 18.3125 70.21875 
L 18.3125 54.6875 
L 36.8125 54.6875 
L 36.8125 47.703125 
L 18.3125 47.703125 
L 18.3125 18.015625 
Q 18.3125 11.328125 20.140625 9.421875 
Q 21.96875 7.515625 27.59375 7.515625 
L 36.8125 7.515625 
L 36.8125 0 
L 27.59375 0 
Q 17.1875 0 13.234375 3.875 
Q 9.28125 7.765625 9.28125 18.015625 
L 9.28125 47.703125 
L 2.6875 47.703125 
L 2.6875 54.6875 
L 9.28125 54.6875 
L 9.28125 70.21875 
z
" id="DejaVuSans-116"/>
       <path d="M 41.109375 46.296875 
Q 39.59375 47.171875 37.8125 47.578125 
Q 36.03125 48 33.890625 48 
Q 26.265625 48 22.1875 43.046875 
Q 18.109375 38.09375 18.109375 28.8125 
L 18.109375 0 
L 9.078125 0 
L 9.078125 54.6875 
L 18.109375 54.6875 
L 18.109375 46.1875 
Q 20.953125 51.171875 25.484375 53.578125 
Q 30.03125 56 36.53125 56 
Q 37.453125 56 38.578125 55.875 
Q 39.703125 55.765625 41.0625 55.515625 
z
" id="DejaVuSans-114"/>
       <path d="M 34.28125 27.484375 
Q 23.390625 27.484375 19.1875 25 
Q 14.984375 22.515625 14.984375 16.5 
Q 14.984375 11.71875 18.140625 8.90625 
Q 21.296875 6.109375 26.703125 6.109375 
Q 34.1875 6.109375 38.703125 11.40625 
Q 43.21875 16.703125 43.21875 25.484375 
L 43.21875 27.484375 
z
M 52.203125 31.203125 
L 52.203125 0 
L 43.21875 0 
L 43.21875 8.296875 
Q 40.140625 3.328125 35.546875 0.953125 
Q 30.953125 -1.421875 24.3125 -1.421875 
Q 15.921875 -1.421875 10.953125 3.296875 
Q 6 8.015625 6 15.921875 
Q 6 25.140625 12.171875 29.828125 
Q 18.359375 34.515625 30.609375 34.515625 
L 43.21875 34.515625 
L 43.21875 35.40625 
Q 43.21875 41.609375 39.140625 45 
Q 35.0625 48.390625 27.6875 48.390625 
Q 23 48.390625 18.546875 47.265625 
Q 14.109375 46.140625 10.015625 43.890625 
L 10.015625 52.203125 
Q 14.9375 54.109375 19.578125 55.046875 
Q 24.21875 56 28.609375 56 
Q 40.484375 56 46.34375 49.84375 
Q 52.203125 43.703125 52.203125 31.203125 
z
" id="DejaVuSans-97"/>
       <path d="M 9.421875 54.6875 
L 18.40625 54.6875 
L 18.40625 0 
L 9.421875 0 
z
M 9.421875 75.984375 
L 18.40625 75.984375 
L 18.40625 64.59375 
L 9.421875 64.59375 
z
" id="DejaVuSans-105"/>
       <path d="M 54.890625 33.015625 
L 54.890625 0 
L 45.90625 0 
L 45.90625 32.71875 
Q 45.90625 40.484375 42.875 44.328125 
Q 39.84375 48.1875 33.796875 48.1875 
Q 26.515625 48.1875 22.3125 43.546875 
Q 18.109375 38.921875 18.109375 30.90625 
L 18.109375 0 
L 9.078125 0 
L 9.078125 54.6875 
L 18.109375 54.6875 
L 18.109375 46.1875 
Q 21.34375 51.125 25.703125 53.5625 
Q 30.078125 56 35.796875 56 
Q 45.21875 56 50.046875 50.171875 
Q 54.890625 44.34375 54.890625 33.015625 
z
" id="DejaVuSans-110"/>
      </defs>
      <use xlink:href="#DejaVuSans-116"/>
      <use x="39.208984" xlink:href="#DejaVuSans-114"/>
      <use x="80.322266" xlink:href="#DejaVuSans-97"/>
      <use x="141.601562" xlink:href="#DejaVuSans-105"/>
      <use x="169.384766" xlink:href="#DejaVuSans-110"/>
     </g>
    </g>
    <g id="line2d_20">
     <path d="M 320.5375 34.976562 
L 340.5375 34.976562 
" style="fill:none;stroke:#0000ff;stroke-linecap:square;stroke-width:3;"/>
    </g>
    <g id="line2d_21"/>
    <g id="text_17">
     <!-- val -->
     <g transform="translate(348.5375 38.476562)scale(0.1 -0.1)">
      <defs>
       <path d="M 2.984375 54.6875 
L 12.5 54.6875 
L 29.59375 8.796875 
L 46.6875 54.6875 
L 56.203125 54.6875 
L 35.6875 0 
L 23.484375 0 
z
" id="DejaVuSans-118"/>
       <path d="M 9.421875 75.984375 
L 18.40625 75.984375 
L 18.40625 0 
L 9.421875 0 
z
" id="DejaVuSans-108"/>
      </defs>
      <use xlink:href="#DejaVuSans-118"/>
      <use x="59.179688" xlink:href="#DejaVuSans-97"/>
      <use x="120.458984" xlink:href="#DejaVuSans-108"/>
     </g>
    </g>
   </g>
  </g>
 </g>
 <defs>
  <clipPath id="pb2d73f4c00">
   <rect height="217.44" width="334.8" x="46.0125" y="7.2"/>
  </clipPath>
 </defs>
</svg>
