<?xml version="1.0" encoding="utf-8" standalone="no"?>
<!DOCTYPE svg PUBLIC "-//W3C//DTD SVG 1.1//EN"
  "http://www.w3.org/Graphics/SVG/1.1/DTD/svg11.dtd">
<!-- Created with matplotlib (https://matplotlib.org/) -->
<svg height="284.640938pt" version="1.1" viewBox="0 0 627.513125 284.640938" width="627.513125pt" xmlns="http://www.w3.org/2000/svg" xmlns:xlink="http://www.w3.org/1999/xlink">
 <metadata>
  <rdf:RDF xmlns:cc="http://creativecommons.org/ns#" xmlns:dc="http://purl.org/dc/elements/1.1/" xmlns:rdf="http://www.w3.org/1999/02/22-rdf-syntax-ns#">
   <cc:Work>
    <dc:type rdf:resource="http://purl.org/dc/dcmitype/StillImage"/>
    <dc:date>2021-02-19T18:32:09.029531</dc:date>
    <dc:format>image/svg+xml</dc:format>
    <dc:creator>
     <cc:Agent>
      <dc:title>Matplotlib v3.3.2, https://matplotlib.org/</dc:title>
     </cc:Agent>
    </dc:creator>
   </cc:Work>
  </rdf:RDF>
 </metadata>
 <defs>
  <style type="text/css">*{stroke-linecap:butt;stroke-linejoin:round;}</style>
 </defs>
 <g id="figure_1">
  <g id="patch_1">
   <path d="M 0 284.640938 
L 627.513125 284.640938 
L 627.513125 0 
L 0 0 
z
" style="fill:#ffffff;"/>
  </g>
  <g id="axes_1">
   <g id="patch_2">
    <path d="M 62.313125 241.277813 
L 315.949489 241.277813 
L 315.949489 23.837812 
L 62.313125 23.837812 
z
" style="fill:#e5e5e5;"/>
   </g>
   <g id="matplotlib.axis_1">
    <g id="xtick_1">
     <g id="line2d_1">
      <path clip-path="url(#p94fc37f439)" d="M 62.313125 241.277813 
L 62.313125 23.837812 
" style="fill:none;stroke:#ffffff;stroke-linecap:square;stroke-width:0.8;"/>
     </g>
     <g id="line2d_2">
      <defs>
       <path d="M 0 0 
L 0 3.5 
" id="m7f0c0a4707" style="stroke:#555555;stroke-width:0.8;"/>
      </defs>
      <g>
       <use style="fill:#555555;stroke:#555555;stroke-width:0.8;" x="62.313125" xlink:href="#m7f0c0a4707" y="241.277813"/>
      </g>
     </g>
     <g id="text_1">
      <!-- 0 -->
      <g style="fill:#555555;" transform="translate(59.131875 255.87625)scale(0.1 -0.1)">
       <defs>
        <path d="M 31.78125 66.40625 
Q 24.171875 66.40625 20.328125 58.90625 
Q 16.5 51.421875 16.5 36.375 
Q 16.5 21.390625 20.328125 13.890625 
Q 24.171875 6.390625 31.78125 6.390625 
Q 39.453125 6.390625 43.28125 13.890625 
Q 47.125 21.390625 47.125 36.375 
Q 47.125 51.421875 43.28125 58.90625 
Q 39.453125 66.40625 31.78125 66.40625 
z
M 31.78125 74.21875 
Q 44.046875 74.21875 50.515625 64.515625 
Q 56.984375 54.828125 56.984375 36.375 
Q 56.984375 17.96875 50.515625 8.265625 
Q 44.046875 -1.421875 31.78125 -1.421875 
Q 19.53125 -1.421875 13.0625 8.265625 
Q 6.59375 17.96875 6.59375 36.375 
Q 6.59375 54.828125 13.0625 64.515625 
Q 19.53125 74.21875 31.78125 74.21875 
z
" id="DejaVuSans-48"/>
       </defs>
       <use xlink:href="#DejaVuSans-48"/>
      </g>
     </g>
    </g>
    <g id="xtick_2">
     <g id="line2d_3">
      <path clip-path="url(#p94fc37f439)" d="M 104.585852 241.277813 
L 104.585852 23.837812 
" style="fill:none;stroke:#ffffff;stroke-linecap:square;stroke-width:0.8;"/>
     </g>
     <g id="line2d_4">
      <g>
       <use style="fill:#555555;stroke:#555555;stroke-width:0.8;" x="104.585852" xlink:href="#m7f0c0a4707" y="241.277813"/>
      </g>
     </g>
     <g id="text_2">
      <!-- 20 -->
      <g style="fill:#555555;" transform="translate(98.223352 255.87625)scale(0.1 -0.1)">
       <defs>
        <path d="M 19.1875 8.296875 
L 53.609375 8.296875 
L 53.609375 0 
L 7.328125 0 
L 7.328125 8.296875 
Q 12.9375 14.109375 22.625 23.890625 
Q 32.328125 33.6875 34.8125 36.53125 
Q 39.546875 41.84375 41.421875 45.53125 
Q 43.3125 49.21875 43.3125 52.78125 
Q 43.3125 58.59375 39.234375 62.25 
Q 35.15625 65.921875 28.609375 65.921875 
Q 23.96875 65.921875 18.8125 64.3125 
Q 13.671875 62.703125 7.8125 59.421875 
L 7.8125 69.390625 
Q 13.765625 71.78125 18.9375 73 
Q 24.125 74.21875 28.421875 74.21875 
Q 39.75 74.21875 46.484375 68.546875 
Q 53.21875 62.890625 53.21875 53.421875 
Q 53.21875 48.921875 51.53125 44.890625 
Q 49.859375 40.875 45.40625 35.40625 
Q 44.1875 33.984375 37.640625 27.21875 
Q 31.109375 20.453125 19.1875 8.296875 
z
" id="DejaVuSans-50"/>
       </defs>
       <use xlink:href="#DejaVuSans-50"/>
       <use x="63.623047" xlink:href="#DejaVuSans-48"/>
      </g>
     </g>
    </g>
    <g id="xtick_3">
     <g id="line2d_5">
      <path clip-path="url(#p94fc37f439)" d="M 146.85858 241.277813 
L 146.85858 23.837812 
" style="fill:none;stroke:#ffffff;stroke-linecap:square;stroke-width:0.8;"/>
     </g>
     <g id="line2d_6">
      <g>
       <use style="fill:#555555;stroke:#555555;stroke-width:0.8;" x="146.85858" xlink:href="#m7f0c0a4707" y="241.277813"/>
      </g>
     </g>
     <g id="text_3">
      <!-- 40 -->
      <g style="fill:#555555;" transform="translate(140.49608 255.87625)scale(0.1 -0.1)">
       <defs>
        <path d="M 37.796875 64.3125 
L 12.890625 25.390625 
L 37.796875 25.390625 
z
M 35.203125 72.90625 
L 47.609375 72.90625 
L 47.609375 25.390625 
L 58.015625 25.390625 
L 58.015625 17.1875 
L 47.609375 17.1875 
L 47.609375 0 
L 37.796875 0 
L 37.796875 17.1875 
L 4.890625 17.1875 
L 4.890625 26.703125 
z
" id="DejaVuSans-52"/>
       </defs>
       <use xlink:href="#DejaVuSans-52"/>
       <use x="63.623047" xlink:href="#DejaVuSans-48"/>
      </g>
     </g>
    </g>
    <g id="xtick_4">
     <g id="line2d_7">
      <path clip-path="url(#p94fc37f439)" d="M 189.131307 241.277813 
L 189.131307 23.837812 
" style="fill:none;stroke:#ffffff;stroke-linecap:square;stroke-width:0.8;"/>
     </g>
     <g id="line2d_8">
      <g>
       <use style="fill:#555555;stroke:#555555;stroke-width:0.8;" x="189.131307" xlink:href="#m7f0c0a4707" y="241.277813"/>
      </g>
     </g>
     <g id="text_4">
      <!-- 60 -->
      <g style="fill:#555555;" transform="translate(182.768807 255.87625)scale(0.1 -0.1)">
       <defs>
        <path d="M 33.015625 40.375 
Q 26.375 40.375 22.484375 35.828125 
Q 18.609375 31.296875 18.609375 23.390625 
Q 18.609375 15.53125 22.484375 10.953125 
Q 26.375 6.390625 33.015625 6.390625 
Q 39.65625 6.390625 43.53125 10.953125 
Q 47.40625 15.53125 47.40625 23.390625 
Q 47.40625 31.296875 43.53125 35.828125 
Q 39.65625 40.375 33.015625 40.375 
z
M 52.59375 71.296875 
L 52.59375 62.3125 
Q 48.875 64.0625 45.09375 64.984375 
Q 41.3125 65.921875 37.59375 65.921875 
Q 27.828125 65.921875 22.671875 59.328125 
Q 17.53125 52.734375 16.796875 39.40625 
Q 19.671875 43.65625 24.015625 45.921875 
Q 28.375 48.1875 33.59375 48.1875 
Q 44.578125 48.1875 50.953125 41.515625 
Q 57.328125 34.859375 57.328125 23.390625 
Q 57.328125 12.15625 50.6875 5.359375 
Q 44.046875 -1.421875 33.015625 -1.421875 
Q 20.359375 -1.421875 13.671875 8.265625 
Q 6.984375 17.96875 6.984375 36.375 
Q 6.984375 53.65625 15.1875 63.9375 
Q 23.390625 74.21875 37.203125 74.21875 
Q 40.921875 74.21875 44.703125 73.484375 
Q 48.484375 72.75 52.59375 71.296875 
z
" id="DejaVuSans-54"/>
       </defs>
       <use xlink:href="#DejaVuSans-54"/>
       <use x="63.623047" xlink:href="#DejaVuSans-48"/>
      </g>
     </g>
    </g>
    <g id="xtick_5">
     <g id="line2d_9">
      <path clip-path="url(#p94fc37f439)" d="M 231.404034 241.277813 
L 231.404034 23.837812 
" style="fill:none;stroke:#ffffff;stroke-linecap:square;stroke-width:0.8;"/>
     </g>
     <g id="line2d_10">
      <g>
       <use style="fill:#555555;stroke:#555555;stroke-width:0.8;" x="231.404034" xlink:href="#m7f0c0a4707" y="241.277813"/>
      </g>
     </g>
     <g id="text_5">
      <!-- 80 -->
      <g style="fill:#555555;" transform="translate(225.041534 255.87625)scale(0.1 -0.1)">
       <defs>
        <path d="M 31.78125 34.625 
Q 24.75 34.625 20.71875 30.859375 
Q 16.703125 27.09375 16.703125 20.515625 
Q 16.703125 13.921875 20.71875 10.15625 
Q 24.75 6.390625 31.78125 6.390625 
Q 38.8125 6.390625 42.859375 10.171875 
Q 46.921875 13.96875 46.921875 20.515625 
Q 46.921875 27.09375 42.890625 30.859375 
Q 38.875 34.625 31.78125 34.625 
z
M 21.921875 38.8125 
Q 15.578125 40.375 12.03125 44.71875 
Q 8.5 49.078125 8.5 55.328125 
Q 8.5 64.0625 14.71875 69.140625 
Q 20.953125 74.21875 31.78125 74.21875 
Q 42.671875 74.21875 48.875 69.140625 
Q 55.078125 64.0625 55.078125 55.328125 
Q 55.078125 49.078125 51.53125 44.71875 
Q 48 40.375 41.703125 38.8125 
Q 48.828125 37.15625 52.796875 32.3125 
Q 56.78125 27.484375 56.78125 20.515625 
Q 56.78125 9.90625 50.3125 4.234375 
Q 43.84375 -1.421875 31.78125 -1.421875 
Q 19.734375 -1.421875 13.25 4.234375 
Q 6.78125 9.90625 6.78125 20.515625 
Q 6.78125 27.484375 10.78125 32.3125 
Q 14.796875 37.15625 21.921875 38.8125 
z
M 18.3125 54.390625 
Q 18.3125 48.734375 21.84375 45.5625 
Q 25.390625 42.390625 31.78125 42.390625 
Q 38.140625 42.390625 41.71875 45.5625 
Q 45.3125 48.734375 45.3125 54.390625 
Q 45.3125 60.0625 41.71875 63.234375 
Q 38.140625 66.40625 31.78125 66.40625 
Q 25.390625 66.40625 21.84375 63.234375 
Q 18.3125 60.0625 18.3125 54.390625 
z
" id="DejaVuSans-56"/>
       </defs>
       <use xlink:href="#DejaVuSans-56"/>
       <use x="63.623047" xlink:href="#DejaVuSans-48"/>
      </g>
     </g>
    </g>
    <g id="xtick_6">
     <g id="line2d_11">
      <path clip-path="url(#p94fc37f439)" d="M 273.676761 241.277813 
L 273.676761 23.837812 
" style="fill:none;stroke:#ffffff;stroke-linecap:square;stroke-width:0.8;"/>
     </g>
     <g id="line2d_12">
      <g>
       <use style="fill:#555555;stroke:#555555;stroke-width:0.8;" x="273.676761" xlink:href="#m7f0c0a4707" y="241.277813"/>
      </g>
     </g>
     <g id="text_6">
      <!-- 100 -->
      <g style="fill:#555555;" transform="translate(264.133011 255.87625)scale(0.1 -0.1)">
       <defs>
        <path d="M 12.40625 8.296875 
L 28.515625 8.296875 
L 28.515625 63.921875 
L 10.984375 60.40625 
L 10.984375 69.390625 
L 28.421875 72.90625 
L 38.28125 72.90625 
L 38.28125 8.296875 
L 54.390625 8.296875 
L 54.390625 0 
L 12.40625 0 
z
" id="DejaVuSans-49"/>
       </defs>
       <use xlink:href="#DejaVuSans-49"/>
       <use x="63.623047" xlink:href="#DejaVuSans-48"/>
       <use x="127.246094" xlink:href="#DejaVuSans-48"/>
      </g>
     </g>
    </g>
    <g id="xtick_7">
     <g id="line2d_13">
      <path clip-path="url(#p94fc37f439)" d="M 315.949489 241.277813 
L 315.949489 23.837812 
" style="fill:none;stroke:#ffffff;stroke-linecap:square;stroke-width:0.8;"/>
     </g>
     <g id="line2d_14">
      <g>
       <use style="fill:#555555;stroke:#555555;stroke-width:0.8;" x="315.949489" xlink:href="#m7f0c0a4707" y="241.277813"/>
      </g>
     </g>
     <g id="text_7">
      <!-- 120 -->
      <g style="fill:#555555;" transform="translate(306.405739 255.87625)scale(0.1 -0.1)">
       <use xlink:href="#DejaVuSans-49"/>
       <use x="63.623047" xlink:href="#DejaVuSans-50"/>
       <use x="127.246094" xlink:href="#DejaVuSans-48"/>
      </g>
     </g>
    </g>
    <g id="text_8">
     <!-- Number of trees -->
     <g style="fill:#555555;" transform="translate(140.237869 271.074063)scale(0.12 -0.12)">
      <defs>
       <path d="M 9.8125 72.90625 
L 23.09375 72.90625 
L 55.421875 11.921875 
L 55.421875 72.90625 
L 64.984375 72.90625 
L 64.984375 0 
L 51.703125 0 
L 19.390625 60.984375 
L 19.390625 0 
L 9.8125 0 
z
" id="DejaVuSans-78"/>
       <path d="M 8.5 21.578125 
L 8.5 54.6875 
L 17.484375 54.6875 
L 17.484375 21.921875 
Q 17.484375 14.15625 20.5 10.265625 
Q 23.53125 6.390625 29.59375 6.390625 
Q 36.859375 6.390625 41.078125 11.03125 
Q 45.3125 15.671875 45.3125 23.6875 
L 45.3125 54.6875 
L 54.296875 54.6875 
L 54.296875 0 
L 45.3125 0 
L 45.3125 8.40625 
Q 42.046875 3.421875 37.71875 1 
Q 33.40625 -1.421875 27.6875 -1.421875 
Q 18.265625 -1.421875 13.375 4.4375 
Q 8.5 10.296875 8.5 21.578125 
z
M 31.109375 56 
z
" id="DejaVuSans-117"/>
       <path d="M 52 44.1875 
Q 55.375 50.25 60.0625 53.125 
Q 64.75 56 71.09375 56 
Q 79.640625 56 84.28125 50.015625 
Q 88.921875 44.046875 88.921875 33.015625 
L 88.921875 0 
L 79.890625 0 
L 79.890625 32.71875 
Q 79.890625 40.578125 77.09375 44.375 
Q 74.3125 48.1875 68.609375 48.1875 
Q 61.625 48.1875 57.5625 43.546875 
Q 53.515625 38.921875 53.515625 30.90625 
L 53.515625 0 
L 44.484375 0 
L 44.484375 32.71875 
Q 44.484375 40.625 41.703125 44.40625 
Q 38.921875 48.1875 33.109375 48.1875 
Q 26.21875 48.1875 22.15625 43.53125 
Q 18.109375 38.875 18.109375 30.90625 
L 18.109375 0 
L 9.078125 0 
L 9.078125 54.6875 
L 18.109375 54.6875 
L 18.109375 46.1875 
Q 21.1875 51.21875 25.484375 53.609375 
Q 29.78125 56 35.6875 56 
Q 41.65625 56 45.828125 52.96875 
Q 50 49.953125 52 44.1875 
z
" id="DejaVuSans-109"/>
       <path d="M 48.6875 27.296875 
Q 48.6875 37.203125 44.609375 42.84375 
Q 40.53125 48.484375 33.40625 48.484375 
Q 26.265625 48.484375 22.1875 42.84375 
Q 18.109375 37.203125 18.109375 27.296875 
Q 18.109375 17.390625 22.1875 11.75 
Q 26.265625 6.109375 33.40625 6.109375 
Q 40.53125 6.109375 44.609375 11.75 
Q 48.6875 17.390625 48.6875 27.296875 
z
M 18.109375 46.390625 
Q 20.953125 51.265625 25.265625 53.625 
Q 29.59375 56 35.59375 56 
Q 45.5625 56 51.78125 48.09375 
Q 58.015625 40.1875 58.015625 27.296875 
Q 58.015625 14.40625 51.78125 6.484375 
Q 45.5625 -1.421875 35.59375 -1.421875 
Q 29.59375 -1.421875 25.265625 0.953125 
Q 20.953125 3.328125 18.109375 8.203125 
L 18.109375 0 
L 9.078125 0 
L 9.078125 75.984375 
L 18.109375 75.984375 
z
" id="DejaVuSans-98"/>
       <path d="M 56.203125 29.59375 
L 56.203125 25.203125 
L 14.890625 25.203125 
Q 15.484375 15.921875 20.484375 11.0625 
Q 25.484375 6.203125 34.421875 6.203125 
Q 39.59375 6.203125 44.453125 7.46875 
Q 49.3125 8.734375 54.109375 11.28125 
L 54.109375 2.78125 
Q 49.265625 0.734375 44.1875 -0.34375 
Q 39.109375 -1.421875 33.890625 -1.421875 
Q 20.796875 -1.421875 13.15625 6.1875 
Q 5.515625 13.8125 5.515625 26.8125 
Q 5.515625 40.234375 12.765625 48.109375 
Q 20.015625 56 32.328125 56 
Q 43.359375 56 49.78125 48.890625 
Q 56.203125 41.796875 56.203125 29.59375 
z
M 47.21875 32.234375 
Q 47.125 39.59375 43.09375 43.984375 
Q 39.0625 48.390625 32.421875 48.390625 
Q 24.90625 48.390625 20.390625 44.140625 
Q 15.875 39.890625 15.1875 32.171875 
z
" id="DejaVuSans-101"/>
       <path d="M 41.109375 46.296875 
Q 39.59375 47.171875 37.8125 47.578125 
Q 36.03125 48 33.890625 48 
Q 26.265625 48 22.1875 43.046875 
Q 18.109375 38.09375 18.109375 28.8125 
L 18.109375 0 
L 9.078125 0 
L 9.078125 54.6875 
L 18.109375 54.6875 
L 18.109375 46.1875 
Q 20.953125 51.171875 25.484375 53.578125 
Q 30.03125 56 36.53125 56 
Q 37.453125 56 38.578125 55.875 
Q 39.703125 55.765625 41.0625 55.515625 
z
" id="DejaVuSans-114"/>
       <path id="DejaVuSans-32"/>
       <path d="M 30.609375 48.390625 
Q 23.390625 48.390625 19.1875 42.75 
Q 14.984375 37.109375 14.984375 27.296875 
Q 14.984375 17.484375 19.15625 11.84375 
Q 23.34375 6.203125 30.609375 6.203125 
Q 37.796875 6.203125 41.984375 11.859375 
Q 46.1875 17.53125 46.1875 27.296875 
Q 46.1875 37.015625 41.984375 42.703125 
Q 37.796875 48.390625 30.609375 48.390625 
z
M 30.609375 56 
Q 42.328125 56 49.015625 48.375 
Q 55.71875 40.765625 55.71875 27.296875 
Q 55.71875 13.875 49.015625 6.21875 
Q 42.328125 -1.421875 30.609375 -1.421875 
Q 18.84375 -1.421875 12.171875 6.21875 
Q 5.515625 13.875 5.515625 27.296875 
Q 5.515625 40.765625 12.171875 48.375 
Q 18.84375 56 30.609375 56 
z
" id="DejaVuSans-111"/>
       <path d="M 37.109375 75.984375 
L 37.109375 68.5 
L 28.515625 68.5 
Q 23.6875 68.5 21.796875 66.546875 
Q 19.921875 64.59375 19.921875 59.515625 
L 19.921875 54.6875 
L 34.71875 54.6875 
L 34.71875 47.703125 
L 19.921875 47.703125 
L 19.921875 0 
L 10.890625 0 
L 10.890625 47.703125 
L 2.296875 47.703125 
L 2.296875 54.6875 
L 10.890625 54.6875 
L 10.890625 58.5 
Q 10.890625 67.625 15.140625 71.796875 
Q 19.390625 75.984375 28.609375 75.984375 
z
" id="DejaVuSans-102"/>
       <path d="M 18.3125 70.21875 
L 18.3125 54.6875 
L 36.8125 54.6875 
L 36.8125 47.703125 
L 18.3125 47.703125 
L 18.3125 18.015625 
Q 18.3125 11.328125 20.140625 9.421875 
Q 21.96875 7.515625 27.59375 7.515625 
L 36.8125 7.515625 
L 36.8125 0 
L 27.59375 0 
Q 17.1875 0 13.234375 3.875 
Q 9.28125 7.765625 9.28125 18.015625 
L 9.28125 47.703125 
L 2.6875 47.703125 
L 2.6875 54.6875 
L 9.28125 54.6875 
L 9.28125 70.21875 
z
" id="DejaVuSans-116"/>
       <path d="M 44.28125 53.078125 
L 44.28125 44.578125 
Q 40.484375 46.53125 36.375 47.5 
Q 32.28125 48.484375 27.875 48.484375 
Q 21.1875 48.484375 17.84375 46.4375 
Q 14.5 44.390625 14.5 40.28125 
Q 14.5 37.15625 16.890625 35.375 
Q 19.28125 33.59375 26.515625 31.984375 
L 29.59375 31.296875 
Q 39.15625 29.25 43.1875 25.515625 
Q 47.21875 21.78125 47.21875 15.09375 
Q 47.21875 7.46875 41.1875 3.015625 
Q 35.15625 -1.421875 24.609375 -1.421875 
Q 20.21875 -1.421875 15.453125 -0.5625 
Q 10.6875 0.296875 5.421875 2 
L 5.421875 11.28125 
Q 10.40625 8.6875 15.234375 7.390625 
Q 20.0625 6.109375 24.8125 6.109375 
Q 31.15625 6.109375 34.5625 8.28125 
Q 37.984375 10.453125 37.984375 14.40625 
Q 37.984375 18.0625 35.515625 20.015625 
Q 33.0625 21.96875 24.703125 23.78125 
L 21.578125 24.515625 
Q 13.234375 26.265625 9.515625 29.90625 
Q 5.8125 33.546875 5.8125 39.890625 
Q 5.8125 47.609375 11.28125 51.796875 
Q 16.75 56 26.8125 56 
Q 31.78125 56 36.171875 55.265625 
Q 40.578125 54.546875 44.28125 53.078125 
z
" id="DejaVuSans-115"/>
      </defs>
      <use xlink:href="#DejaVuSans-78"/>
      <use x="74.804688" xlink:href="#DejaVuSans-117"/>
      <use x="138.183594" xlink:href="#DejaVuSans-109"/>
      <use x="235.595703" xlink:href="#DejaVuSans-98"/>
      <use x="299.072266" xlink:href="#DejaVuSans-101"/>
      <use x="360.595703" xlink:href="#DejaVuSans-114"/>
      <use x="401.708984" xlink:href="#DejaVuSans-32"/>
      <use x="433.496094" xlink:href="#DejaVuSans-111"/>
      <use x="494.677734" xlink:href="#DejaVuSans-102"/>
      <use x="529.882812" xlink:href="#DejaVuSans-32"/>
      <use x="561.669922" xlink:href="#DejaVuSans-116"/>
      <use x="600.878906" xlink:href="#DejaVuSans-114"/>
      <use x="639.742188" xlink:href="#DejaVuSans-101"/>
      <use x="701.265625" xlink:href="#DejaVuSans-101"/>
      <use x="762.789062" xlink:href="#DejaVuSans-115"/>
     </g>
    </g>
   </g>
   <g id="matplotlib.axis_2">
    <g id="ytick_1">
     <g id="line2d_15">
      <path clip-path="url(#p94fc37f439)" d="M 62.313125 241.277813 
L 315.949489 241.277813 
" style="fill:none;stroke:#ffffff;stroke-linecap:square;stroke-width:0.8;"/>
     </g>
     <g id="line2d_16">
      <defs>
       <path d="M 0 0 
L -3.5 0 
" id="m817e1ec1a6" style="stroke:#555555;stroke-width:0.8;"/>
      </defs>
      <g>
       <use style="fill:#555555;stroke:#555555;stroke-width:0.8;" x="62.313125" xlink:href="#m817e1ec1a6" y="241.277813"/>
      </g>
     </g>
     <g id="text_9">
      <!-- 0.000 -->
      <g style="fill:#555555;" transform="translate(26.685 245.077031)scale(0.1 -0.1)">
       <defs>
        <path d="M 10.6875 12.40625 
L 21 12.40625 
L 21 0 
L 10.6875 0 
z
" id="DejaVuSans-46"/>
       </defs>
       <use xlink:href="#DejaVuSans-48"/>
       <use x="63.623047" xlink:href="#DejaVuSans-46"/>
       <use x="95.410156" xlink:href="#DejaVuSans-48"/>
       <use x="159.033203" xlink:href="#DejaVuSans-48"/>
       <use x="222.65625" xlink:href="#DejaVuSans-48"/>
      </g>
     </g>
    </g>
    <g id="ytick_2">
     <g id="line2d_17">
      <path clip-path="url(#p94fc37f439)" d="M 62.313125 197.789813 
L 315.949489 197.789813 
" style="fill:none;stroke:#ffffff;stroke-linecap:square;stroke-width:0.8;"/>
     </g>
     <g id="line2d_18">
      <g>
       <use style="fill:#555555;stroke:#555555;stroke-width:0.8;" x="62.313125" xlink:href="#m817e1ec1a6" y="197.789813"/>
      </g>
     </g>
     <g id="text_10">
      <!-- 0.002 -->
      <g style="fill:#555555;" transform="translate(26.685 201.589031)scale(0.1 -0.1)">
       <use xlink:href="#DejaVuSans-48"/>
       <use x="63.623047" xlink:href="#DejaVuSans-46"/>
       <use x="95.410156" xlink:href="#DejaVuSans-48"/>
       <use x="159.033203" xlink:href="#DejaVuSans-48"/>
       <use x="222.65625" xlink:href="#DejaVuSans-50"/>
      </g>
     </g>
    </g>
    <g id="ytick_3">
     <g id="line2d_19">
      <path clip-path="url(#p94fc37f439)" d="M 62.313125 154.301812 
L 315.949489 154.301812 
" style="fill:none;stroke:#ffffff;stroke-linecap:square;stroke-width:0.8;"/>
     </g>
     <g id="line2d_20">
      <g>
       <use style="fill:#555555;stroke:#555555;stroke-width:0.8;" x="62.313125" xlink:href="#m817e1ec1a6" y="154.301812"/>
      </g>
     </g>
     <g id="text_11">
      <!-- 0.004 -->
      <g style="fill:#555555;" transform="translate(26.685 158.101031)scale(0.1 -0.1)">
       <use xlink:href="#DejaVuSans-48"/>
       <use x="63.623047" xlink:href="#DejaVuSans-46"/>
       <use x="95.410156" xlink:href="#DejaVuSans-48"/>
       <use x="159.033203" xlink:href="#DejaVuSans-48"/>
       <use x="222.65625" xlink:href="#DejaVuSans-52"/>
      </g>
     </g>
    </g>
    <g id="ytick_4">
     <g id="line2d_21">
      <path clip-path="url(#p94fc37f439)" d="M 62.313125 110.813812 
L 315.949489 110.813812 
" style="fill:none;stroke:#ffffff;stroke-linecap:square;stroke-width:0.8;"/>
     </g>
     <g id="line2d_22">
      <g>
       <use style="fill:#555555;stroke:#555555;stroke-width:0.8;" x="62.313125" xlink:href="#m817e1ec1a6" y="110.813812"/>
      </g>
     </g>
     <g id="text_12">
      <!-- 0.006 -->
      <g style="fill:#555555;" transform="translate(26.685 114.613031)scale(0.1 -0.1)">
       <use xlink:href="#DejaVuSans-48"/>
       <use x="63.623047" xlink:href="#DejaVuSans-46"/>
       <use x="95.410156" xlink:href="#DejaVuSans-48"/>
       <use x="159.033203" xlink:href="#DejaVuSans-48"/>
       <use x="222.65625" xlink:href="#DejaVuSans-54"/>
      </g>
     </g>
    </g>
    <g id="ytick_5">
     <g id="line2d_23">
      <path clip-path="url(#p94fc37f439)" d="M 62.313125 67.325812 
L 315.949489 67.325812 
" style="fill:none;stroke:#ffffff;stroke-linecap:square;stroke-width:0.8;"/>
     </g>
     <g id="line2d_24">
      <g>
       <use style="fill:#555555;stroke:#555555;stroke-width:0.8;" x="62.313125" xlink:href="#m817e1ec1a6" y="67.325812"/>
      </g>
     </g>
     <g id="text_13">
      <!-- 0.008 -->
      <g style="fill:#555555;" transform="translate(26.685 71.125031)scale(0.1 -0.1)">
       <use xlink:href="#DejaVuSans-48"/>
       <use x="63.623047" xlink:href="#DejaVuSans-46"/>
       <use x="95.410156" xlink:href="#DejaVuSans-48"/>
       <use x="159.033203" xlink:href="#DejaVuSans-48"/>
       <use x="222.65625" xlink:href="#DejaVuSans-56"/>
      </g>
     </g>
    </g>
    <g id="ytick_6">
     <g id="line2d_25">
      <path clip-path="url(#p94fc37f439)" d="M 62.313125 23.837812 
L 315.949489 23.837812 
" style="fill:none;stroke:#ffffff;stroke-linecap:square;stroke-width:0.8;"/>
     </g>
     <g id="line2d_26">
      <g>
       <use style="fill:#555555;stroke:#555555;stroke-width:0.8;" x="62.313125" xlink:href="#m817e1ec1a6" y="23.837812"/>
      </g>
     </g>
     <g id="text_14">
      <!-- 0.010 -->
      <g style="fill:#555555;" transform="translate(26.685 27.637031)scale(0.1 -0.1)">
       <use xlink:href="#DejaVuSans-48"/>
       <use x="63.623047" xlink:href="#DejaVuSans-46"/>
       <use x="95.410156" xlink:href="#DejaVuSans-48"/>
       <use x="159.033203" xlink:href="#DejaVuSans-49"/>
       <use x="222.65625" xlink:href="#DejaVuSans-48"/>
      </g>
     </g>
    </g>
    <g id="text_15">
     <!-- Error -->
     <g style="fill:#555555;" transform="translate(19.3575 152.054062)rotate(-90)scale(0.16 -0.16)">
      <defs>
       <path d="M 9.8125 72.90625 
L 55.90625 72.90625 
L 55.90625 64.59375 
L 19.671875 64.59375 
L 19.671875 43.015625 
L 54.390625 43.015625 
L 54.390625 34.71875 
L 19.671875 34.71875 
L 19.671875 8.296875 
L 56.78125 8.296875 
L 56.78125 0 
L 9.8125 0 
z
" id="DejaVuSans-69"/>
      </defs>
      <use xlink:href="#DejaVuSans-69"/>
      <use x="63.183594" xlink:href="#DejaVuSans-114"/>
      <use x="102.546875" xlink:href="#DejaVuSans-114"/>
      <use x="141.410156" xlink:href="#DejaVuSans-111"/>
      <use x="202.591797" xlink:href="#DejaVuSans-114"/>
     </g>
    </g>
   </g>
   <g id="line2d_27">
    <path clip-path="url(#p94fc37f439)" d="M 80.108101 -1 
L 81.335852 17.568245 
L 83.449489 37.074077 
L 85.563125 54.152728 
L 87.676761 72.858502 
L 89.790398 87.252639 
L 91.904034 94.151469 
L 94.01767 108.288414 
L 100.35858 130.976165 
L 102.472216 136.560311 
L 104.585852 146.526334 
L 106.699489 150.10812 
L 108.813125 155.017902 
L 110.926761 157.643529 
L 113.040398 159.806578 
L 115.154034 164.501711 
L 117.26767 165.874983 
L 119.381307 167.60332 
L 121.494943 171.170356 
L 123.60858 171.95112 
L 125.722216 172.433022 
L 127.835852 174.474223 
L 129.949489 175.503968 
L 134.176761 176.974252 
L 136.290398 178.457784 
L 138.404034 178.547119 
L 140.51767 178.43127 
L 142.631307 179.596217 
L 144.744943 180.065974 
L 146.85858 180.266175 
L 148.972216 181.050814 
L 153.199489 180.851577 
L 155.313125 181.649554 
L 157.426761 181.791129 
L 159.540398 181.626544 
L 161.654034 181.917018 
L 165.881307 181.57567 
L 167.994943 181.764431 
L 170.10858 182.123234 
L 174.335852 182.144846 
L 176.449489 181.998077 
L 178.563125 182.28953 
L 180.676761 182.145999 
L 182.790398 182.278079 
L 184.904034 182.087867 
L 187.01767 182.273053 
L 191.244943 181.97197 
L 197.585852 181.789919 
L 199.699489 181.603674 
L 210.26767 181.452006 
L 212.381307 181.347826 
L 214.494943 180.333054 
L 218.722216 180.248988 
L 220.835852 180.068995 
L 222.949489 180.12923 
L 229.290398 179.854059 
L 231.404034 180.031966 
L 246.199489 180.045128 
L 248.313125 179.859401 
L 250.426761 179.862203 
L 254.654034 179.433149 
L 258.881307 179.482762 
L 260.994943 179.225663 
L 263.10858 179.086617 
L 265.222216 179.086614 
L 267.335852 179.242123 
L 273.676761 178.757555 
L 282.131307 178.632207 
L 284.244943 178.464867 
L 286.35858 177.531033 
L 294.813125 177.484503 
L 296.926761 177.329405 
L 301.154034 177.35767 
L 303.26767 177.498389 
L 305.381307 177.332638 
L 307.494943 177.294089 
L 309.60858 177.106642 
L 311.722216 176.240258 
L 324.404034 176.180609 
L 326.51767 176.691453 
L 332.85858 176.636175 
L 334.972216 176.537017 
L 337.085852 176.555831 
L 339.199489 176.96923 
L 341.313125 177.176178 
L 343.426761 177.158315 
L 345.540398 176.973211 
L 347.654034 176.173002 
L 349.76767 176.015895 
L 351.881307 176.123936 
L 364.563125 176.095059 
L 366.676761 175.862982 
L 368.790398 176.198059 
L 370.904034 176.193666 
L 373.01767 176.047438 
L 375.131307 175.312653 
L 379.35858 175.350546 
L 385.699489 175.442826 
L 387.813125 175.343841 
L 396.26767 175.353574 
L 398.381307 175.137925 
L 404.722216 175.208918 
L 408.949489 175.173623 
L 413.176761 174.83576 
L 415.290398 174.677427 
L 417.404034 174.81201 
L 425.85858 174.734408 
L 432.199489 174.719318 
L 434.313125 174.721877 
L 436.426761 174.841233 
L 442.76767 174.490796 
L 444.881307 174.054904 
L 449.10858 173.987084 
L 453.335852 173.995473 
L 455.449489 173.860772 
L 457.563125 173.939517 
L 459.676761 173.268755 
L 468.131307 173.238045 
L 470.244943 173.432126 
L 472.35858 173.307212 
L 474.472216 172.902823 
L 478.699489 172.812398 
L 480.813125 172.817379 
L 482.926761 172.280522 
L 482.926761 172.280522 
" style="fill:none;stroke:#0000ff;stroke-linecap:square;stroke-width:1.5;"/>
    <defs>
     <path d="M 0 1.5 
C 0.397805 1.5 0.77937 1.341951 1.06066 1.06066 
C 1.341951 0.77937 1.5 0.397805 1.5 0 
C 1.5 -0.397805 1.341951 -0.77937 1.06066 -1.06066 
C 0.77937 -1.341951 0.397805 -1.5 0 -1.5 
C -0.397805 -1.5 -0.77937 -1.341951 -1.06066 -1.06066 
C -1.341951 -0.77937 -1.5 -0.397805 -1.5 0 
C -1.5 0.397805 -1.341951 0.77937 -1.06066 1.06066 
C -0.77937 1.341951 -0.397805 1.5 0 1.5 
z
" id="m1fb4e0fa33" style="stroke:#0000ff;"/>
    </defs>
    <g clip-path="url(#p94fc37f439)">
     <use style="fill:#0000ff;stroke:#0000ff;" x="80.108101" xlink:href="#m1fb4e0fa33" y="-1"/>
     <use style="fill:#0000ff;stroke:#0000ff;" x="81.335852" xlink:href="#m1fb4e0fa33" y="17.568245"/>
     <use style="fill:#0000ff;stroke:#0000ff;" x="83.449489" xlink:href="#m1fb4e0fa33" y="37.074077"/>
     <use style="fill:#0000ff;stroke:#0000ff;" x="85.563125" xlink:href="#m1fb4e0fa33" y="54.152728"/>
     <use style="fill:#0000ff;stroke:#0000ff;" x="87.676761" xlink:href="#m1fb4e0fa33" y="72.858502"/>
     <use style="fill:#0000ff;stroke:#0000ff;" x="89.790398" xlink:href="#m1fb4e0fa33" y="87.252639"/>
     <use style="fill:#0000ff;stroke:#0000ff;" x="91.904034" xlink:href="#m1fb4e0fa33" y="94.151469"/>
     <use style="fill:#0000ff;stroke:#0000ff;" x="94.01767" xlink:href="#m1fb4e0fa33" y="108.288414"/>
     <use style="fill:#0000ff;stroke:#0000ff;" x="96.131307" xlink:href="#m1fb4e0fa33" y="115.810154"/>
     <use style="fill:#0000ff;stroke:#0000ff;" x="98.244943" xlink:href="#m1fb4e0fa33" y="123.504669"/>
     <use style="fill:#0000ff;stroke:#0000ff;" x="100.35858" xlink:href="#m1fb4e0fa33" y="130.976165"/>
     <use style="fill:#0000ff;stroke:#0000ff;" x="102.472216" xlink:href="#m1fb4e0fa33" y="136.560311"/>
     <use style="fill:#0000ff;stroke:#0000ff;" x="104.585852" xlink:href="#m1fb4e0fa33" y="146.526334"/>
     <use style="fill:#0000ff;stroke:#0000ff;" x="106.699489" xlink:href="#m1fb4e0fa33" y="150.10812"/>
     <use style="fill:#0000ff;stroke:#0000ff;" x="108.813125" xlink:href="#m1fb4e0fa33" y="155.017902"/>
     <use style="fill:#0000ff;stroke:#0000ff;" x="110.926761" xlink:href="#m1fb4e0fa33" y="157.643529"/>
     <use style="fill:#0000ff;stroke:#0000ff;" x="113.040398" xlink:href="#m1fb4e0fa33" y="159.806578"/>
     <use style="fill:#0000ff;stroke:#0000ff;" x="115.154034" xlink:href="#m1fb4e0fa33" y="164.501711"/>
     <use style="fill:#0000ff;stroke:#0000ff;" x="117.26767" xlink:href="#m1fb4e0fa33" y="165.874983"/>
     <use style="fill:#0000ff;stroke:#0000ff;" x="119.381307" xlink:href="#m1fb4e0fa33" y="167.60332"/>
     <use style="fill:#0000ff;stroke:#0000ff;" x="121.494943" xlink:href="#m1fb4e0fa33" y="171.170356"/>
     <use style="fill:#0000ff;stroke:#0000ff;" x="123.60858" xlink:href="#m1fb4e0fa33" y="171.95112"/>
     <use style="fill:#0000ff;stroke:#0000ff;" x="125.722216" xlink:href="#m1fb4e0fa33" y="172.433022"/>
     <use style="fill:#0000ff;stroke:#0000ff;" x="127.835852" xlink:href="#m1fb4e0fa33" y="174.474223"/>
     <use style="fill:#0000ff;stroke:#0000ff;" x="129.949489" xlink:href="#m1fb4e0fa33" y="175.503968"/>
     <use style="fill:#0000ff;stroke:#0000ff;" x="132.063125" xlink:href="#m1fb4e0fa33" y="176.239568"/>
     <use style="fill:#0000ff;stroke:#0000ff;" x="134.176761" xlink:href="#m1fb4e0fa33" y="176.974252"/>
     <use style="fill:#0000ff;stroke:#0000ff;" x="136.290398" xlink:href="#m1fb4e0fa33" y="178.457784"/>
     <use style="fill:#0000ff;stroke:#0000ff;" x="138.404034" xlink:href="#m1fb4e0fa33" y="178.547119"/>
     <use style="fill:#0000ff;stroke:#0000ff;" x="140.51767" xlink:href="#m1fb4e0fa33" y="178.43127"/>
     <use style="fill:#0000ff;stroke:#0000ff;" x="142.631307" xlink:href="#m1fb4e0fa33" y="179.596217"/>
     <use style="fill:#0000ff;stroke:#0000ff;" x="144.744943" xlink:href="#m1fb4e0fa33" y="180.065974"/>
     <use style="fill:#0000ff;stroke:#0000ff;" x="146.85858" xlink:href="#m1fb4e0fa33" y="180.266175"/>
     <use style="fill:#0000ff;stroke:#0000ff;" x="148.972216" xlink:href="#m1fb4e0fa33" y="181.050814"/>
     <use style="fill:#0000ff;stroke:#0000ff;" x="151.085852" xlink:href="#m1fb4e0fa33" y="180.935252"/>
     <use style="fill:#0000ff;stroke:#0000ff;" x="153.199489" xlink:href="#m1fb4e0fa33" y="180.851577"/>
     <use style="fill:#0000ff;stroke:#0000ff;" x="155.313125" xlink:href="#m1fb4e0fa33" y="181.649554"/>
     <use style="fill:#0000ff;stroke:#0000ff;" x="157.426761" xlink:href="#m1fb4e0fa33" y="181.791129"/>
     <use style="fill:#0000ff;stroke:#0000ff;" x="159.540398" xlink:href="#m1fb4e0fa33" y="181.626544"/>
     <use style="fill:#0000ff;stroke:#0000ff;" x="161.654034" xlink:href="#m1fb4e0fa33" y="181.917018"/>
     <use style="fill:#0000ff;stroke:#0000ff;" x="163.76767" xlink:href="#m1fb4e0fa33" y="181.700817"/>
     <use style="fill:#0000ff;stroke:#0000ff;" x="165.881307" xlink:href="#m1fb4e0fa33" y="181.57567"/>
     <use style="fill:#0000ff;stroke:#0000ff;" x="167.994943" xlink:href="#m1fb4e0fa33" y="181.764431"/>
     <use style="fill:#0000ff;stroke:#0000ff;" x="170.10858" xlink:href="#m1fb4e0fa33" y="182.123234"/>
     <use style="fill:#0000ff;stroke:#0000ff;" x="172.222216" xlink:href="#m1fb4e0fa33" y="182.185402"/>
     <use style="fill:#0000ff;stroke:#0000ff;" x="174.335852" xlink:href="#m1fb4e0fa33" y="182.144846"/>
     <use style="fill:#0000ff;stroke:#0000ff;" x="176.449489" xlink:href="#m1fb4e0fa33" y="181.998077"/>
     <use style="fill:#0000ff;stroke:#0000ff;" x="178.563125" xlink:href="#m1fb4e0fa33" y="182.28953"/>
     <use style="fill:#0000ff;stroke:#0000ff;" x="180.676761" xlink:href="#m1fb4e0fa33" y="182.145999"/>
     <use style="fill:#0000ff;stroke:#0000ff;" x="182.790398" xlink:href="#m1fb4e0fa33" y="182.278079"/>
     <use style="fill:#0000ff;stroke:#0000ff;" x="184.904034" xlink:href="#m1fb4e0fa33" y="182.087867"/>
     <use style="fill:#0000ff;stroke:#0000ff;" x="187.01767" xlink:href="#m1fb4e0fa33" y="182.273053"/>
     <use style="fill:#0000ff;stroke:#0000ff;" x="189.131307" xlink:href="#m1fb4e0fa33" y="182.103901"/>
     <use style="fill:#0000ff;stroke:#0000ff;" x="191.244943" xlink:href="#m1fb4e0fa33" y="181.97197"/>
     <use style="fill:#0000ff;stroke:#0000ff;" x="193.35858" xlink:href="#m1fb4e0fa33" y="181.916372"/>
     <use style="fill:#0000ff;stroke:#0000ff;" x="195.472216" xlink:href="#m1fb4e0fa33" y="181.918675"/>
     <use style="fill:#0000ff;stroke:#0000ff;" x="197.585852" xlink:href="#m1fb4e0fa33" y="181.789919"/>
     <use style="fill:#0000ff;stroke:#0000ff;" x="199.699489" xlink:href="#m1fb4e0fa33" y="181.603674"/>
     <use style="fill:#0000ff;stroke:#0000ff;" x="201.813125" xlink:href="#m1fb4e0fa33" y="181.587864"/>
     <use style="fill:#0000ff;stroke:#0000ff;" x="203.926761" xlink:href="#m1fb4e0fa33" y="181.608683"/>
     <use style="fill:#0000ff;stroke:#0000ff;" x="206.040398" xlink:href="#m1fb4e0fa33" y="181.657785"/>
     <use style="fill:#0000ff;stroke:#0000ff;" x="208.154034" xlink:href="#m1fb4e0fa33" y="181.522751"/>
     <use style="fill:#0000ff;stroke:#0000ff;" x="210.26767" xlink:href="#m1fb4e0fa33" y="181.452006"/>
     <use style="fill:#0000ff;stroke:#0000ff;" x="212.381307" xlink:href="#m1fb4e0fa33" y="181.347826"/>
     <use style="fill:#0000ff;stroke:#0000ff;" x="214.494943" xlink:href="#m1fb4e0fa33" y="180.333054"/>
     <use style="fill:#0000ff;stroke:#0000ff;" x="216.60858" xlink:href="#m1fb4e0fa33" y="180.319825"/>
     <use style="fill:#0000ff;stroke:#0000ff;" x="218.722216" xlink:href="#m1fb4e0fa33" y="180.248988"/>
     <use style="fill:#0000ff;stroke:#0000ff;" x="220.835852" xlink:href="#m1fb4e0fa33" y="180.068995"/>
     <use style="fill:#0000ff;stroke:#0000ff;" x="222.949489" xlink:href="#m1fb4e0fa33" y="180.12923"/>
     <use style="fill:#0000ff;stroke:#0000ff;" x="225.063125" xlink:href="#m1fb4e0fa33" y="180.016796"/>
     <use style="fill:#0000ff;stroke:#0000ff;" x="227.176761" xlink:href="#m1fb4e0fa33" y="180.013303"/>
     <use style="fill:#0000ff;stroke:#0000ff;" x="229.290398" xlink:href="#m1fb4e0fa33" y="179.854059"/>
     <use style="fill:#0000ff;stroke:#0000ff;" x="231.404034" xlink:href="#m1fb4e0fa33" y="180.031966"/>
     <use style="fill:#0000ff;stroke:#0000ff;" x="233.51767" xlink:href="#m1fb4e0fa33" y="180.033448"/>
     <use style="fill:#0000ff;stroke:#0000ff;" x="235.631307" xlink:href="#m1fb4e0fa33" y="180.019798"/>
     <use style="fill:#0000ff;stroke:#0000ff;" x="237.744943" xlink:href="#m1fb4e0fa33" y="180.059828"/>
     <use style="fill:#0000ff;stroke:#0000ff;" x="239.85858" xlink:href="#m1fb4e0fa33" y="180.060658"/>
     <use style="fill:#0000ff;stroke:#0000ff;" x="241.972216" xlink:href="#m1fb4e0fa33" y="180.063355"/>
     <use style="fill:#0000ff;stroke:#0000ff;" x="244.085852" xlink:href="#m1fb4e0fa33" y="180.003367"/>
     <use style="fill:#0000ff;stroke:#0000ff;" x="246.199489" xlink:href="#m1fb4e0fa33" y="180.045128"/>
     <use style="fill:#0000ff;stroke:#0000ff;" x="248.313125" xlink:href="#m1fb4e0fa33" y="179.859401"/>
     <use style="fill:#0000ff;stroke:#0000ff;" x="250.426761" xlink:href="#m1fb4e0fa33" y="179.862203"/>
     <use style="fill:#0000ff;stroke:#0000ff;" x="252.540398" xlink:href="#m1fb4e0fa33" y="179.691173"/>
     <use style="fill:#0000ff;stroke:#0000ff;" x="254.654034" xlink:href="#m1fb4e0fa33" y="179.433149"/>
     <use style="fill:#0000ff;stroke:#0000ff;" x="256.76767" xlink:href="#m1fb4e0fa33" y="179.482153"/>
     <use style="fill:#0000ff;stroke:#0000ff;" x="258.881307" xlink:href="#m1fb4e0fa33" y="179.482762"/>
     <use style="fill:#0000ff;stroke:#0000ff;" x="260.994943" xlink:href="#m1fb4e0fa33" y="179.225663"/>
     <use style="fill:#0000ff;stroke:#0000ff;" x="263.10858" xlink:href="#m1fb4e0fa33" y="179.086617"/>
     <use style="fill:#0000ff;stroke:#0000ff;" x="265.222216" xlink:href="#m1fb4e0fa33" y="179.086614"/>
     <use style="fill:#0000ff;stroke:#0000ff;" x="267.335852" xlink:href="#m1fb4e0fa33" y="179.242123"/>
     <use style="fill:#0000ff;stroke:#0000ff;" x="269.449489" xlink:href="#m1fb4e0fa33" y="179.068835"/>
     <use style="fill:#0000ff;stroke:#0000ff;" x="271.563125" xlink:href="#m1fb4e0fa33" y="178.811183"/>
     <use style="fill:#0000ff;stroke:#0000ff;" x="273.676761" xlink:href="#m1fb4e0fa33" y="178.757555"/>
     <use style="fill:#0000ff;stroke:#0000ff;" x="275.790398" xlink:href="#m1fb4e0fa33" y="178.744447"/>
     <use style="fill:#0000ff;stroke:#0000ff;" x="277.904034" xlink:href="#m1fb4e0fa33" y="178.76067"/>
     <use style="fill:#0000ff;stroke:#0000ff;" x="280.01767" xlink:href="#m1fb4e0fa33" y="178.685505"/>
     <use style="fill:#0000ff;stroke:#0000ff;" x="282.131307" xlink:href="#m1fb4e0fa33" y="178.632207"/>
     <use style="fill:#0000ff;stroke:#0000ff;" x="284.244943" xlink:href="#m1fb4e0fa33" y="178.464867"/>
     <use style="fill:#0000ff;stroke:#0000ff;" x="286.35858" xlink:href="#m1fb4e0fa33" y="177.531033"/>
     <use style="fill:#0000ff;stroke:#0000ff;" x="288.472216" xlink:href="#m1fb4e0fa33" y="177.523506"/>
     <use style="fill:#0000ff;stroke:#0000ff;" x="290.585852" xlink:href="#m1fb4e0fa33" y="177.521624"/>
     <use style="fill:#0000ff;stroke:#0000ff;" x="292.699489" xlink:href="#m1fb4e0fa33" y="177.420367"/>
     <use style="fill:#0000ff;stroke:#0000ff;" x="294.813125" xlink:href="#m1fb4e0fa33" y="177.484503"/>
     <use style="fill:#0000ff;stroke:#0000ff;" x="296.926761" xlink:href="#m1fb4e0fa33" y="177.329405"/>
     <use style="fill:#0000ff;stroke:#0000ff;" x="299.040398" xlink:href="#m1fb4e0fa33" y="177.307324"/>
     <use style="fill:#0000ff;stroke:#0000ff;" x="301.154034" xlink:href="#m1fb4e0fa33" y="177.35767"/>
     <use style="fill:#0000ff;stroke:#0000ff;" x="303.26767" xlink:href="#m1fb4e0fa33" y="177.498389"/>
     <use style="fill:#0000ff;stroke:#0000ff;" x="305.381307" xlink:href="#m1fb4e0fa33" y="177.332638"/>
     <use style="fill:#0000ff;stroke:#0000ff;" x="307.494943" xlink:href="#m1fb4e0fa33" y="177.294089"/>
     <use style="fill:#0000ff;stroke:#0000ff;" x="309.60858" xlink:href="#m1fb4e0fa33" y="177.106642"/>
     <use style="fill:#0000ff;stroke:#0000ff;" x="311.722216" xlink:href="#m1fb4e0fa33" y="176.240258"/>
     <use style="fill:#0000ff;stroke:#0000ff;" x="313.835852" xlink:href="#m1fb4e0fa33" y="176.22229"/>
     <use style="fill:#0000ff;stroke:#0000ff;" x="315.949489" xlink:href="#m1fb4e0fa33" y="176.180708"/>
     <use style="fill:#0000ff;stroke:#0000ff;" x="318.063125" xlink:href="#m1fb4e0fa33" y="176.208897"/>
     <use style="fill:#0000ff;stroke:#0000ff;" x="320.176761" xlink:href="#m1fb4e0fa33" y="176.197252"/>
     <use style="fill:#0000ff;stroke:#0000ff;" x="322.290398" xlink:href="#m1fb4e0fa33" y="176.246584"/>
     <use style="fill:#0000ff;stroke:#0000ff;" x="324.404034" xlink:href="#m1fb4e0fa33" y="176.180609"/>
     <use style="fill:#0000ff;stroke:#0000ff;" x="326.51767" xlink:href="#m1fb4e0fa33" y="176.691453"/>
     <use style="fill:#0000ff;stroke:#0000ff;" x="328.631307" xlink:href="#m1fb4e0fa33" y="176.685136"/>
     <use style="fill:#0000ff;stroke:#0000ff;" x="330.744943" xlink:href="#m1fb4e0fa33" y="176.673324"/>
     <use style="fill:#0000ff;stroke:#0000ff;" x="332.85858" xlink:href="#m1fb4e0fa33" y="176.636175"/>
     <use style="fill:#0000ff;stroke:#0000ff;" x="334.972216" xlink:href="#m1fb4e0fa33" y="176.537017"/>
     <use style="fill:#0000ff;stroke:#0000ff;" x="337.085852" xlink:href="#m1fb4e0fa33" y="176.555831"/>
     <use style="fill:#0000ff;stroke:#0000ff;" x="339.199489" xlink:href="#m1fb4e0fa33" y="176.96923"/>
     <use style="fill:#0000ff;stroke:#0000ff;" x="341.313125" xlink:href="#m1fb4e0fa33" y="177.176178"/>
     <use style="fill:#0000ff;stroke:#0000ff;" x="343.426761" xlink:href="#m1fb4e0fa33" y="177.158315"/>
     <use style="fill:#0000ff;stroke:#0000ff;" x="345.540398" xlink:href="#m1fb4e0fa33" y="176.973211"/>
     <use style="fill:#0000ff;stroke:#0000ff;" x="347.654034" xlink:href="#m1fb4e0fa33" y="176.173002"/>
     <use style="fill:#0000ff;stroke:#0000ff;" x="349.76767" xlink:href="#m1fb4e0fa33" y="176.015895"/>
     <use style="fill:#0000ff;stroke:#0000ff;" x="351.881307" xlink:href="#m1fb4e0fa33" y="176.123936"/>
     <use style="fill:#0000ff;stroke:#0000ff;" x="353.994943" xlink:href="#m1fb4e0fa33" y="176.114741"/>
     <use style="fill:#0000ff;stroke:#0000ff;" x="356.10858" xlink:href="#m1fb4e0fa33" y="176.077836"/>
     <use style="fill:#0000ff;stroke:#0000ff;" x="358.222216" xlink:href="#m1fb4e0fa33" y="176.128375"/>
     <use style="fill:#0000ff;stroke:#0000ff;" x="360.335852" xlink:href="#m1fb4e0fa33" y="176.109118"/>
     <use style="fill:#0000ff;stroke:#0000ff;" x="362.449489" xlink:href="#m1fb4e0fa33" y="176.129135"/>
     <use style="fill:#0000ff;stroke:#0000ff;" x="364.563125" xlink:href="#m1fb4e0fa33" y="176.095059"/>
     <use style="fill:#0000ff;stroke:#0000ff;" x="366.676761" xlink:href="#m1fb4e0fa33" y="175.862982"/>
     <use style="fill:#0000ff;stroke:#0000ff;" x="368.790398" xlink:href="#m1fb4e0fa33" y="176.198059"/>
     <use style="fill:#0000ff;stroke:#0000ff;" x="370.904034" xlink:href="#m1fb4e0fa33" y="176.193666"/>
     <use style="fill:#0000ff;stroke:#0000ff;" x="373.01767" xlink:href="#m1fb4e0fa33" y="176.047438"/>
     <use style="fill:#0000ff;stroke:#0000ff;" x="375.131307" xlink:href="#m1fb4e0fa33" y="175.312653"/>
     <use style="fill:#0000ff;stroke:#0000ff;" x="377.244943" xlink:href="#m1fb4e0fa33" y="175.302828"/>
     <use style="fill:#0000ff;stroke:#0000ff;" x="379.35858" xlink:href="#m1fb4e0fa33" y="175.350546"/>
     <use style="fill:#0000ff;stroke:#0000ff;" x="381.472216" xlink:href="#m1fb4e0fa33" y="175.407808"/>
     <use style="fill:#0000ff;stroke:#0000ff;" x="383.585852" xlink:href="#m1fb4e0fa33" y="175.427903"/>
     <use style="fill:#0000ff;stroke:#0000ff;" x="385.699489" xlink:href="#m1fb4e0fa33" y="175.442826"/>
     <use style="fill:#0000ff;stroke:#0000ff;" x="387.813125" xlink:href="#m1fb4e0fa33" y="175.343841"/>
     <use style="fill:#0000ff;stroke:#0000ff;" x="389.926761" xlink:href="#m1fb4e0fa33" y="175.368077"/>
     <use style="fill:#0000ff;stroke:#0000ff;" x="392.040398" xlink:href="#m1fb4e0fa33" y="175.329256"/>
     <use style="fill:#0000ff;stroke:#0000ff;" x="394.154034" xlink:href="#m1fb4e0fa33" y="175.34358"/>
     <use style="fill:#0000ff;stroke:#0000ff;" x="396.26767" xlink:href="#m1fb4e0fa33" y="175.353574"/>
     <use style="fill:#0000ff;stroke:#0000ff;" x="398.381307" xlink:href="#m1fb4e0fa33" y="175.137925"/>
     <use style="fill:#0000ff;stroke:#0000ff;" x="400.494943" xlink:href="#m1fb4e0fa33" y="175.187735"/>
     <use style="fill:#0000ff;stroke:#0000ff;" x="402.60858" xlink:href="#m1fb4e0fa33" y="175.196513"/>
     <use style="fill:#0000ff;stroke:#0000ff;" x="404.722216" xlink:href="#m1fb4e0fa33" y="175.208918"/>
     <use style="fill:#0000ff;stroke:#0000ff;" x="406.835852" xlink:href="#m1fb4e0fa33" y="175.213894"/>
     <use style="fill:#0000ff;stroke:#0000ff;" x="408.949489" xlink:href="#m1fb4e0fa33" y="175.173623"/>
     <use style="fill:#0000ff;stroke:#0000ff;" x="411.063125" xlink:href="#m1fb4e0fa33" y="175.059932"/>
     <use style="fill:#0000ff;stroke:#0000ff;" x="413.176761" xlink:href="#m1fb4e0fa33" y="174.83576"/>
     <use style="fill:#0000ff;stroke:#0000ff;" x="415.290398" xlink:href="#m1fb4e0fa33" y="174.677427"/>
     <use style="fill:#0000ff;stroke:#0000ff;" x="417.404034" xlink:href="#m1fb4e0fa33" y="174.81201"/>
     <use style="fill:#0000ff;stroke:#0000ff;" x="419.51767" xlink:href="#m1fb4e0fa33" y="174.817506"/>
     <use style="fill:#0000ff;stroke:#0000ff;" x="421.631307" xlink:href="#m1fb4e0fa33" y="174.819349"/>
     <use style="fill:#0000ff;stroke:#0000ff;" x="423.744943" xlink:href="#m1fb4e0fa33" y="174.828596"/>
     <use style="fill:#0000ff;stroke:#0000ff;" x="425.85858" xlink:href="#m1fb4e0fa33" y="174.734408"/>
     <use style="fill:#0000ff;stroke:#0000ff;" x="427.972216" xlink:href="#m1fb4e0fa33" y="174.696486"/>
     <use style="fill:#0000ff;stroke:#0000ff;" x="430.085852" xlink:href="#m1fb4e0fa33" y="174.726526"/>
     <use style="fill:#0000ff;stroke:#0000ff;" x="432.199489" xlink:href="#m1fb4e0fa33" y="174.719318"/>
     <use style="fill:#0000ff;stroke:#0000ff;" x="434.313125" xlink:href="#m1fb4e0fa33" y="174.721877"/>
     <use style="fill:#0000ff;stroke:#0000ff;" x="436.426761" xlink:href="#m1fb4e0fa33" y="174.841233"/>
     <use style="fill:#0000ff;stroke:#0000ff;" x="438.540398" xlink:href="#m1fb4e0fa33" y="174.700003"/>
     <use style="fill:#0000ff;stroke:#0000ff;" x="440.654034" xlink:href="#m1fb4e0fa33" y="174.490992"/>
     <use style="fill:#0000ff;stroke:#0000ff;" x="442.76767" xlink:href="#m1fb4e0fa33" y="174.490796"/>
     <use style="fill:#0000ff;stroke:#0000ff;" x="444.881307" xlink:href="#m1fb4e0fa33" y="174.054904"/>
     <use style="fill:#0000ff;stroke:#0000ff;" x="446.994943" xlink:href="#m1fb4e0fa33" y="174.007448"/>
     <use style="fill:#0000ff;stroke:#0000ff;" x="449.10858" xlink:href="#m1fb4e0fa33" y="173.987084"/>
     <use style="fill:#0000ff;stroke:#0000ff;" x="451.222216" xlink:href="#m1fb4e0fa33" y="174.028917"/>
     <use style="fill:#0000ff;stroke:#0000ff;" x="453.335852" xlink:href="#m1fb4e0fa33" y="173.995473"/>
     <use style="fill:#0000ff;stroke:#0000ff;" x="455.449489" xlink:href="#m1fb4e0fa33" y="173.860772"/>
     <use style="fill:#0000ff;stroke:#0000ff;" x="457.563125" xlink:href="#m1fb4e0fa33" y="173.939517"/>
     <use style="fill:#0000ff;stroke:#0000ff;" x="459.676761" xlink:href="#m1fb4e0fa33" y="173.268755"/>
     <use style="fill:#0000ff;stroke:#0000ff;" x="461.790398" xlink:href="#m1fb4e0fa33" y="173.236243"/>
     <use style="fill:#0000ff;stroke:#0000ff;" x="463.904034" xlink:href="#m1fb4e0fa33" y="173.230841"/>
     <use style="fill:#0000ff;stroke:#0000ff;" x="466.01767" xlink:href="#m1fb4e0fa33" y="173.243927"/>
     <use style="fill:#0000ff;stroke:#0000ff;" x="468.131307" xlink:href="#m1fb4e0fa33" y="173.238045"/>
     <use style="fill:#0000ff;stroke:#0000ff;" x="470.244943" xlink:href="#m1fb4e0fa33" y="173.432126"/>
     <use style="fill:#0000ff;stroke:#0000ff;" x="472.35858" xlink:href="#m1fb4e0fa33" y="173.307212"/>
     <use style="fill:#0000ff;stroke:#0000ff;" x="474.472216" xlink:href="#m1fb4e0fa33" y="172.902823"/>
     <use style="fill:#0000ff;stroke:#0000ff;" x="476.585852" xlink:href="#m1fb4e0fa33" y="172.807228"/>
     <use style="fill:#0000ff;stroke:#0000ff;" x="478.699489" xlink:href="#m1fb4e0fa33" y="172.812398"/>
     <use style="fill:#0000ff;stroke:#0000ff;" x="480.813125" xlink:href="#m1fb4e0fa33" y="172.817379"/>
     <use style="fill:#0000ff;stroke:#0000ff;" x="482.926761" xlink:href="#m1fb4e0fa33" y="172.280522"/>
    </g>
   </g>
   <g id="line2d_28">
    <path clip-path="url(#p94fc37f439)" d="M 180.676761 241.277813 
L 180.676761 182.28953 
" style="fill:none;stroke:#000000;stroke-dasharray:5.55,2.4;stroke-dashoffset:0;stroke-width:1.5;"/>
   </g>
   <g id="line2d_29">
    <path clip-path="url(#p94fc37f439)" d="M 62.313125 182.28953 
L 315.949489 182.28953 
" style="fill:none;stroke:#000000;stroke-dasharray:5.55,2.4;stroke-dashoffset:0;stroke-width:1.5;"/>
   </g>
   <g id="line2d_30">
    <defs>
     <path d="M 0 3 
C 0.795609 3 1.55874 2.683901 2.12132 2.12132 
C 2.683901 1.55874 3 0.795609 3 0 
C 3 -0.795609 2.683901 -1.55874 2.12132 -2.12132 
C 1.55874 -2.683901 0.795609 -3 0 -3 
C -0.795609 -3 -1.55874 -2.683901 -2.12132 -2.12132 
C -2.683901 -1.55874 -3 -0.795609 -3 0 
C -3 0.795609 -2.683901 1.55874 -2.12132 2.12132 
C -1.55874 2.683901 -0.795609 3 0 3 
z
" id="mcbc6b2279b" style="stroke:#000000;"/>
    </defs>
    <g clip-path="url(#p94fc37f439)">
     <use style="stroke:#000000;" x="180.676761" xlink:href="#mcbc6b2279b" y="182.28953"/>
    </g>
   </g>
   <g id="patch_3">
    <path d="M 62.313125 241.277813 
L 62.313125 23.837812 
" style="fill:none;stroke:#ffffff;stroke-linecap:square;stroke-linejoin:miter;"/>
   </g>
   <g id="patch_4">
    <path d="M 315.949489 241.277813 
L 315.949489 23.837812 
" style="fill:none;stroke:#ffffff;stroke-linecap:square;stroke-linejoin:miter;"/>
   </g>
   <g id="patch_5">
    <path d="M 62.313125 241.277813 
L 315.949489 241.277813 
" style="fill:none;stroke:#ffffff;stroke-linecap:square;stroke-linejoin:miter;"/>
   </g>
   <g id="patch_6">
    <path d="M 62.313125 23.837812 
L 315.949489 23.837812 
" style="fill:none;stroke:#ffffff;stroke-linecap:square;stroke-linejoin:miter;"/>
   </g>
   <g id="text_16">
    <!-- Minimum -->
    <g transform="translate(148.238324 170.491873)scale(0.14 -0.14)">
     <defs>
      <path d="M 9.8125 72.90625 
L 24.515625 72.90625 
L 43.109375 23.296875 
L 61.8125 72.90625 
L 76.515625 72.90625 
L 76.515625 0 
L 66.890625 0 
L 66.890625 64.015625 
L 48.09375 14.015625 
L 38.1875 14.015625 
L 19.390625 64.015625 
L 19.390625 0 
L 9.8125 0 
z
" id="DejaVuSans-77"/>
      <path d="M 9.421875 54.6875 
L 18.40625 54.6875 
L 18.40625 0 
L 9.421875 0 
z
M 9.421875 75.984375 
L 18.40625 75.984375 
L 18.40625 64.59375 
L 9.421875 64.59375 
z
" id="DejaVuSans-105"/>
      <path d="M 54.890625 33.015625 
L 54.890625 0 
L 45.90625 0 
L 45.90625 32.71875 
Q 45.90625 40.484375 42.875 44.328125 
Q 39.84375 48.1875 33.796875 48.1875 
Q 26.515625 48.1875 22.3125 43.546875 
Q 18.109375 38.921875 18.109375 30.90625 
L 18.109375 0 
L 9.078125 0 
L 9.078125 54.6875 
L 18.109375 54.6875 
L 18.109375 46.1875 
Q 21.34375 51.125 25.703125 53.5625 
Q 30.078125 56 35.796875 56 
Q 45.21875 56 50.046875 50.171875 
Q 54.890625 44.34375 54.890625 33.015625 
z
" id="DejaVuSans-110"/>
     </defs>
     <use xlink:href="#DejaVuSans-77"/>
     <use x="86.279297" xlink:href="#DejaVuSans-105"/>
     <use x="114.0625" xlink:href="#DejaVuSans-110"/>
     <use x="177.441406" xlink:href="#DejaVuSans-105"/>
     <use x="205.224609" xlink:href="#DejaVuSans-109"/>
     <use x="302.636719" xlink:href="#DejaVuSans-117"/>
     <use x="366.015625" xlink:href="#DejaVuSans-109"/>
    </g>
   </g>
   <g id="text_17">
    <!-- Validation error -->
    <g transform="translate(135.396463 17.837812)scale(0.14 -0.14)">
     <defs>
      <path d="M 28.609375 0 
L 0.78125 72.90625 
L 11.078125 72.90625 
L 34.1875 11.53125 
L 57.328125 72.90625 
L 67.578125 72.90625 
L 39.796875 0 
z
" id="DejaVuSans-86"/>
      <path d="M 34.28125 27.484375 
Q 23.390625 27.484375 19.1875 25 
Q 14.984375 22.515625 14.984375 16.5 
Q 14.984375 11.71875 18.140625 8.90625 
Q 21.296875 6.109375 26.703125 6.109375 
Q 34.1875 6.109375 38.703125 11.40625 
Q 43.21875 16.703125 43.21875 25.484375 
L 43.21875 27.484375 
z
M 52.203125 31.203125 
L 52.203125 0 
L 43.21875 0 
L 43.21875 8.296875 
Q 40.140625 3.328125 35.546875 0.953125 
Q 30.953125 -1.421875 24.3125 -1.421875 
Q 15.921875 -1.421875 10.953125 3.296875 
Q 6 8.015625 6 15.921875 
Q 6 25.140625 12.171875 29.828125 
Q 18.359375 34.515625 30.609375 34.515625 
L 43.21875 34.515625 
L 43.21875 35.40625 
Q 43.21875 41.609375 39.140625 45 
Q 35.0625 48.390625 27.6875 48.390625 
Q 23 48.390625 18.546875 47.265625 
Q 14.109375 46.140625 10.015625 43.890625 
L 10.015625 52.203125 
Q 14.9375 54.109375 19.578125 55.046875 
Q 24.21875 56 28.609375 56 
Q 40.484375 56 46.34375 49.84375 
Q 52.203125 43.703125 52.203125 31.203125 
z
" id="DejaVuSans-97"/>
      <path d="M 9.421875 75.984375 
L 18.40625 75.984375 
L 18.40625 0 
L 9.421875 0 
z
" id="DejaVuSans-108"/>
      <path d="M 45.40625 46.390625 
L 45.40625 75.984375 
L 54.390625 75.984375 
L 54.390625 0 
L 45.40625 0 
L 45.40625 8.203125 
Q 42.578125 3.328125 38.25 0.953125 
Q 33.9375 -1.421875 27.875 -1.421875 
Q 17.96875 -1.421875 11.734375 6.484375 
Q 5.515625 14.40625 5.515625 27.296875 
Q 5.515625 40.1875 11.734375 48.09375 
Q 17.96875 56 27.875 56 
Q 33.9375 56 38.25 53.625 
Q 42.578125 51.265625 45.40625 46.390625 
z
M 14.796875 27.296875 
Q 14.796875 17.390625 18.875 11.75 
Q 22.953125 6.109375 30.078125 6.109375 
Q 37.203125 6.109375 41.296875 11.75 
Q 45.40625 17.390625 45.40625 27.296875 
Q 45.40625 37.203125 41.296875 42.84375 
Q 37.203125 48.484375 30.078125 48.484375 
Q 22.953125 48.484375 18.875 42.84375 
Q 14.796875 37.203125 14.796875 27.296875 
z
" id="DejaVuSans-100"/>
     </defs>
     <use xlink:href="#DejaVuSans-86"/>
     <use x="60.658203" xlink:href="#DejaVuSans-97"/>
     <use x="121.9375" xlink:href="#DejaVuSans-108"/>
     <use x="149.720703" xlink:href="#DejaVuSans-105"/>
     <use x="177.503906" xlink:href="#DejaVuSans-100"/>
     <use x="240.980469" xlink:href="#DejaVuSans-97"/>
     <use x="302.259766" xlink:href="#DejaVuSans-116"/>
     <use x="341.46875" xlink:href="#DejaVuSans-105"/>
     <use x="369.251953" xlink:href="#DejaVuSans-111"/>
     <use x="430.433594" xlink:href="#DejaVuSans-110"/>
     <use x="493.8125" xlink:href="#DejaVuSans-32"/>
     <use x="525.599609" xlink:href="#DejaVuSans-101"/>
     <use x="587.123047" xlink:href="#DejaVuSans-114"/>
     <use x="626.486328" xlink:href="#DejaVuSans-114"/>
     <use x="665.349609" xlink:href="#DejaVuSans-111"/>
     <use x="726.53125" xlink:href="#DejaVuSans-114"/>
    </g>
   </g>
  </g>
  <g id="axes_2">
   <g id="patch_7">
    <path d="M 366.676761 241.277813 
L 620.313125 241.277813 
L 620.313125 23.837812 
L 366.676761 23.837812 
z
" style="fill:#e5e5e5;"/>
   </g>
   <g id="matplotlib.axis_3">
    <g id="xtick_8">
     <g id="line2d_31">
      <path clip-path="url(#pbb1e0dde90)" d="M 392.040398 241.277813 
L 392.040398 23.837812 
" style="fill:none;stroke:#ffffff;stroke-linecap:square;stroke-width:0.8;"/>
     </g>
     <g id="line2d_32">
      <g>
       <use style="fill:#555555;stroke:#555555;stroke-width:0.8;" x="392.040398" xlink:href="#m7f0c0a4707" y="241.277813"/>
      </g>
     </g>
     <g id="text_18">
      <!-- 0.4 -->
      <g style="fill:#555555;" transform="translate(379.898991 255.87625)scale(0.1 -0.1)">
       <defs>
        <path d="M 10.59375 35.5 
L 73.1875 35.5 
L 73.1875 27.203125 
L 10.59375 27.203125 
z
" id="DejaVuSans-8722"/>
       </defs>
       <use xlink:href="#DejaVuSans-8722"/>
       <use x="83.789062" xlink:href="#DejaVuSans-48"/>
       <use x="147.412109" xlink:href="#DejaVuSans-46"/>
       <use x="179.199219" xlink:href="#DejaVuSans-52"/>
      </g>
     </g>
    </g>
    <g id="xtick_9">
     <g id="line2d_33">
      <path clip-path="url(#pbb1e0dde90)" d="M 442.76767 241.277813 
L 442.76767 23.837812 
" style="fill:none;stroke:#ffffff;stroke-linecap:square;stroke-width:0.8;"/>
     </g>
     <g id="line2d_34">
      <g>
       <use style="fill:#555555;stroke:#555555;stroke-width:0.8;" x="442.76767" xlink:href="#m7f0c0a4707" y="241.277813"/>
      </g>
     </g>
     <g id="text_19">
      <!-- 0.2 -->
      <g style="fill:#555555;" transform="translate(430.626264 255.87625)scale(0.1 -0.1)">
       <use xlink:href="#DejaVuSans-8722"/>
       <use x="83.789062" xlink:href="#DejaVuSans-48"/>
       <use x="147.412109" xlink:href="#DejaVuSans-46"/>
       <use x="179.199219" xlink:href="#DejaVuSans-50"/>
      </g>
     </g>
    </g>
    <g id="xtick_10">
     <g id="line2d_35">
      <path clip-path="url(#pbb1e0dde90)" d="M 493.494943 241.277813 
L 493.494943 23.837812 
" style="fill:none;stroke:#ffffff;stroke-linecap:square;stroke-width:0.8;"/>
     </g>
     <g id="line2d_36">
      <g>
       <use style="fill:#555555;stroke:#555555;stroke-width:0.8;" x="493.494943" xlink:href="#m7f0c0a4707" y="241.277813"/>
      </g>
     </g>
     <g id="text_20">
      <!-- 0.0 -->
      <g style="fill:#555555;" transform="translate(485.543381 255.87625)scale(0.1 -0.1)">
       <use xlink:href="#DejaVuSans-48"/>
       <use x="63.623047" xlink:href="#DejaVuSans-46"/>
       <use x="95.410156" xlink:href="#DejaVuSans-48"/>
      </g>
     </g>
    </g>
    <g id="xtick_11">
     <g id="line2d_37">
      <path clip-path="url(#pbb1e0dde90)" d="M 544.222216 241.277813 
L 544.222216 23.837812 
" style="fill:none;stroke:#ffffff;stroke-linecap:square;stroke-width:0.8;"/>
     </g>
     <g id="line2d_38">
      <g>
       <use style="fill:#555555;stroke:#555555;stroke-width:0.8;" x="544.222216" xlink:href="#m7f0c0a4707" y="241.277813"/>
      </g>
     </g>
     <g id="text_21">
      <!-- 0.2 -->
      <g style="fill:#555555;" transform="translate(536.270653 255.87625)scale(0.1 -0.1)">
       <use xlink:href="#DejaVuSans-48"/>
       <use x="63.623047" xlink:href="#DejaVuSans-46"/>
       <use x="95.410156" xlink:href="#DejaVuSans-50"/>
      </g>
     </g>
    </g>
    <g id="xtick_12">
     <g id="line2d_39">
      <path clip-path="url(#pbb1e0dde90)" d="M 594.949489 241.277813 
L 594.949489 23.837812 
" style="fill:none;stroke:#ffffff;stroke-linecap:square;stroke-width:0.8;"/>
     </g>
     <g id="line2d_40">
      <g>
       <use style="fill:#555555;stroke:#555555;stroke-width:0.8;" x="594.949489" xlink:href="#m7f0c0a4707" y="241.277813"/>
      </g>
     </g>
     <g id="text_22">
      <!-- 0.4 -->
      <g style="fill:#555555;" transform="translate(586.997926 255.87625)scale(0.1 -0.1)">
       <use xlink:href="#DejaVuSans-48"/>
       <use x="63.623047" xlink:href="#DejaVuSans-46"/>
       <use x="95.410156" xlink:href="#DejaVuSans-52"/>
      </g>
     </g>
    </g>
    <g id="text_23">
     <!-- $x_1$ -->
     <g style="fill:#555555;" transform="translate(484.934943 274.113438)scale(0.16 -0.16)">
      <defs>
       <path d="M 60.015625 54.6875 
L 34.90625 27.875 
L 50.296875 0 
L 39.984375 0 
L 28.421875 21.6875 
L 8.296875 0 
L -2.59375 0 
L 24.3125 28.8125 
L 10.015625 54.6875 
L 20.3125 54.6875 
L 30.8125 34.90625 
L 49.125 54.6875 
z
" id="DejaVuSans-Oblique-120"/>
      </defs>
      <use transform="translate(0 0.3125)" xlink:href="#DejaVuSans-Oblique-120"/>
      <use transform="translate(59.179688 -16.09375)scale(0.7)" xlink:href="#DejaVuSans-49"/>
     </g>
    </g>
   </g>
   <g id="matplotlib.axis_4">
    <g id="ytick_7">
     <g id="line2d_41">
      <path clip-path="url(#pbb1e0dde90)" d="M 366.676761 241.277813 
L 620.313125 241.277813 
" style="fill:none;stroke:#ffffff;stroke-linecap:square;stroke-width:0.8;"/>
     </g>
     <g id="line2d_42">
      <g>
       <use style="fill:#555555;stroke:#555555;stroke-width:0.8;" x="366.676761" xlink:href="#m817e1ec1a6" y="241.277813"/>
      </g>
     </g>
     <g id="text_24">
      <!-- 0.1 -->
      <g style="fill:#555555;" transform="translate(335.393949 245.077031)scale(0.1 -0.1)">
       <use xlink:href="#DejaVuSans-8722"/>
       <use x="83.789062" xlink:href="#DejaVuSans-48"/>
       <use x="147.412109" xlink:href="#DejaVuSans-46"/>
       <use x="179.199219" xlink:href="#DejaVuSans-49"/>
      </g>
     </g>
    </g>
    <g id="ytick_8">
     <g id="line2d_43">
      <path clip-path="url(#pbb1e0dde90)" d="M 366.676761 217.117813 
L 620.313125 217.117813 
" style="fill:none;stroke:#ffffff;stroke-linecap:square;stroke-width:0.8;"/>
     </g>
     <g id="line2d_44">
      <g>
       <use style="fill:#555555;stroke:#555555;stroke-width:0.8;" x="366.676761" xlink:href="#m817e1ec1a6" y="217.117813"/>
      </g>
     </g>
     <g id="text_25">
      <!-- 0.0 -->
      <g style="fill:#555555;" transform="translate(343.773636 220.917031)scale(0.1 -0.1)">
       <use xlink:href="#DejaVuSans-48"/>
       <use x="63.623047" xlink:href="#DejaVuSans-46"/>
       <use x="95.410156" xlink:href="#DejaVuSans-48"/>
      </g>
     </g>
    </g>
    <g id="ytick_9">
     <g id="line2d_45">
      <path clip-path="url(#pbb1e0dde90)" d="M 366.676761 192.957813 
L 620.313125 192.957813 
" style="fill:none;stroke:#ffffff;stroke-linecap:square;stroke-width:0.8;"/>
     </g>
     <g id="line2d_46">
      <g>
       <use style="fill:#555555;stroke:#555555;stroke-width:0.8;" x="366.676761" xlink:href="#m817e1ec1a6" y="192.957813"/>
      </g>
     </g>
     <g id="text_26">
      <!-- 0.1 -->
      <g style="fill:#555555;" transform="translate(343.773636 196.757031)scale(0.1 -0.1)">
       <use xlink:href="#DejaVuSans-48"/>
       <use x="63.623047" xlink:href="#DejaVuSans-46"/>
       <use x="95.410156" xlink:href="#DejaVuSans-49"/>
      </g>
     </g>
    </g>
    <g id="ytick_10">
     <g id="line2d_47">
      <path clip-path="url(#pbb1e0dde90)" d="M 366.676761 168.797812 
L 620.313125 168.797812 
" style="fill:none;stroke:#ffffff;stroke-linecap:square;stroke-width:0.8;"/>
     </g>
     <g id="line2d_48">
      <g>
       <use style="fill:#555555;stroke:#555555;stroke-width:0.8;" x="366.676761" xlink:href="#m817e1ec1a6" y="168.797812"/>
      </g>
     </g>
     <g id="text_27">
      <!-- 0.2 -->
      <g style="fill:#555555;" transform="translate(343.773636 172.597031)scale(0.1 -0.1)">
       <use xlink:href="#DejaVuSans-48"/>
       <use x="63.623047" xlink:href="#DejaVuSans-46"/>
       <use x="95.410156" xlink:href="#DejaVuSans-50"/>
      </g>
     </g>
    </g>
    <g id="ytick_11">
     <g id="line2d_49">
      <path clip-path="url(#pbb1e0dde90)" d="M 366.676761 144.637812 
L 620.313125 144.637812 
" style="fill:none;stroke:#ffffff;stroke-linecap:square;stroke-width:0.8;"/>
     </g>
     <g id="line2d_50">
      <g>
       <use style="fill:#555555;stroke:#555555;stroke-width:0.8;" x="366.676761" xlink:href="#m817e1ec1a6" y="144.637812"/>
      </g>
     </g>
     <g id="text_28">
      <!-- 0.3 -->
      <g style="fill:#555555;" transform="translate(343.773636 148.437031)scale(0.1 -0.1)">
       <defs>
        <path d="M 40.578125 39.3125 
Q 47.65625 37.796875 51.625 33 
Q 55.609375 28.21875 55.609375 21.1875 
Q 55.609375 10.40625 48.1875 4.484375 
Q 40.765625 -1.421875 27.09375 -1.421875 
Q 22.515625 -1.421875 17.65625 -0.515625 
Q 12.796875 0.390625 7.625 2.203125 
L 7.625 11.71875 
Q 11.71875 9.328125 16.59375 8.109375 
Q 21.484375 6.890625 26.8125 6.890625 
Q 36.078125 6.890625 40.9375 10.546875 
Q 45.796875 14.203125 45.796875 21.1875 
Q 45.796875 27.640625 41.28125 31.265625 
Q 36.765625 34.90625 28.71875 34.90625 
L 20.21875 34.90625 
L 20.21875 43.015625 
L 29.109375 43.015625 
Q 36.375 43.015625 40.234375 45.921875 
Q 44.09375 48.828125 44.09375 54.296875 
Q 44.09375 59.90625 40.109375 62.90625 
Q 36.140625 65.921875 28.71875 65.921875 
Q 24.65625 65.921875 20.015625 65.03125 
Q 15.375 64.15625 9.8125 62.3125 
L 9.8125 71.09375 
Q 15.4375 72.65625 20.34375 73.4375 
Q 25.25 74.21875 29.59375 74.21875 
Q 40.828125 74.21875 47.359375 69.109375 
Q 53.90625 64.015625 53.90625 55.328125 
Q 53.90625 49.265625 50.4375 45.09375 
Q 46.96875 40.921875 40.578125 39.3125 
z
" id="DejaVuSans-51"/>
       </defs>
       <use xlink:href="#DejaVuSans-48"/>
       <use x="63.623047" xlink:href="#DejaVuSans-46"/>
       <use x="95.410156" xlink:href="#DejaVuSans-51"/>
      </g>
     </g>
    </g>
    <g id="ytick_12">
     <g id="line2d_51">
      <path clip-path="url(#pbb1e0dde90)" d="M 366.676761 120.477812 
L 620.313125 120.477812 
" style="fill:none;stroke:#ffffff;stroke-linecap:square;stroke-width:0.8;"/>
     </g>
     <g id="line2d_52">
      <g>
       <use style="fill:#555555;stroke:#555555;stroke-width:0.8;" x="366.676761" xlink:href="#m817e1ec1a6" y="120.477812"/>
      </g>
     </g>
     <g id="text_29">
      <!-- 0.4 -->
      <g style="fill:#555555;" transform="translate(343.773636 124.277031)scale(0.1 -0.1)">
       <use xlink:href="#DejaVuSans-48"/>
       <use x="63.623047" xlink:href="#DejaVuSans-46"/>
       <use x="95.410156" xlink:href="#DejaVuSans-52"/>
      </g>
     </g>
    </g>
    <g id="ytick_13">
     <g id="line2d_53">
      <path clip-path="url(#pbb1e0dde90)" d="M 366.676761 96.317812 
L 620.313125 96.317812 
" style="fill:none;stroke:#ffffff;stroke-linecap:square;stroke-width:0.8;"/>
     </g>
     <g id="line2d_54">
      <g>
       <use style="fill:#555555;stroke:#555555;stroke-width:0.8;" x="366.676761" xlink:href="#m817e1ec1a6" y="96.317812"/>
      </g>
     </g>
     <g id="text_30">
      <!-- 0.5 -->
      <g style="fill:#555555;" transform="translate(343.773636 100.117031)scale(0.1 -0.1)">
       <defs>
        <path d="M 10.796875 72.90625 
L 49.515625 72.90625 
L 49.515625 64.59375 
L 19.828125 64.59375 
L 19.828125 46.734375 
Q 21.96875 47.46875 24.109375 47.828125 
Q 26.265625 48.1875 28.421875 48.1875 
Q 40.625 48.1875 47.75 41.5 
Q 54.890625 34.8125 54.890625 23.390625 
Q 54.890625 11.625 47.5625 5.09375 
Q 40.234375 -1.421875 26.90625 -1.421875 
Q 22.3125 -1.421875 17.546875 -0.640625 
Q 12.796875 0.140625 7.71875 1.703125 
L 7.71875 11.625 
Q 12.109375 9.234375 16.796875 8.0625 
Q 21.484375 6.890625 26.703125 6.890625 
Q 35.15625 6.890625 40.078125 11.328125 
Q 45.015625 15.765625 45.015625 23.390625 
Q 45.015625 31 40.078125 35.4375 
Q 35.15625 39.890625 26.703125 39.890625 
Q 22.75 39.890625 18.8125 39.015625 
Q 14.890625 38.140625 10.796875 36.28125 
z
" id="DejaVuSans-53"/>
       </defs>
       <use xlink:href="#DejaVuSans-48"/>
       <use x="63.623047" xlink:href="#DejaVuSans-46"/>
       <use x="95.410156" xlink:href="#DejaVuSans-53"/>
      </g>
     </g>
    </g>
    <g id="ytick_14">
     <g id="line2d_55">
      <path clip-path="url(#pbb1e0dde90)" d="M 366.676761 72.157812 
L 620.313125 72.157812 
" style="fill:none;stroke:#ffffff;stroke-linecap:square;stroke-width:0.8;"/>
     </g>
     <g id="line2d_56">
      <g>
       <use style="fill:#555555;stroke:#555555;stroke-width:0.8;" x="366.676761" xlink:href="#m817e1ec1a6" y="72.157812"/>
      </g>
     </g>
     <g id="text_31">
      <!-- 0.6 -->
      <g style="fill:#555555;" transform="translate(343.773636 75.957031)scale(0.1 -0.1)">
       <use xlink:href="#DejaVuSans-48"/>
       <use x="63.623047" xlink:href="#DejaVuSans-46"/>
       <use x="95.410156" xlink:href="#DejaVuSans-54"/>
      </g>
     </g>
    </g>
    <g id="ytick_15">
     <g id="line2d_57">
      <path clip-path="url(#pbb1e0dde90)" d="M 366.676761 47.997812 
L 620.313125 47.997812 
" style="fill:none;stroke:#ffffff;stroke-linecap:square;stroke-width:0.8;"/>
     </g>
     <g id="line2d_58">
      <g>
       <use style="fill:#555555;stroke:#555555;stroke-width:0.8;" x="366.676761" xlink:href="#m817e1ec1a6" y="47.997812"/>
      </g>
     </g>
     <g id="text_32">
      <!-- 0.7 -->
      <g style="fill:#555555;" transform="translate(343.773636 51.797031)scale(0.1 -0.1)">
       <defs>
        <path d="M 8.203125 72.90625 
L 55.078125 72.90625 
L 55.078125 68.703125 
L 28.609375 0 
L 18.3125 0 
L 43.21875 64.59375 
L 8.203125 64.59375 
z
" id="DejaVuSans-55"/>
       </defs>
       <use xlink:href="#DejaVuSans-48"/>
       <use x="63.623047" xlink:href="#DejaVuSans-46"/>
       <use x="95.410156" xlink:href="#DejaVuSans-55"/>
      </g>
     </g>
    </g>
    <g id="ytick_16">
     <g id="line2d_59">
      <path clip-path="url(#pbb1e0dde90)" d="M 366.676761 23.837812 
L 620.313125 23.837812 
" style="fill:none;stroke:#ffffff;stroke-linecap:square;stroke-width:0.8;"/>
     </g>
     <g id="line2d_60">
      <g>
       <use style="fill:#555555;stroke:#555555;stroke-width:0.8;" x="366.676761" xlink:href="#m817e1ec1a6" y="23.837812"/>
      </g>
     </g>
     <g id="text_33">
      <!-- 0.8 -->
      <g style="fill:#555555;" transform="translate(343.773636 27.637031)scale(0.1 -0.1)">
       <use xlink:href="#DejaVuSans-48"/>
       <use x="63.623047" xlink:href="#DejaVuSans-46"/>
       <use x="95.410156" xlink:href="#DejaVuSans-56"/>
      </g>
     </g>
    </g>
    <g id="text_34">
     <!-- $y$ -->
     <g style="fill:#555555;" transform="translate(326.593949 129.197812)scale(0.16 -0.16)">
      <defs>
       <path d="M 24.8125 -5.078125 
Q 18.5625 -15.578125 14.625 -18.1875 
Q 10.6875 -20.796875 4.59375 -20.796875 
L -2.484375 -20.796875 
L -0.984375 -13.28125 
L 4.203125 -13.28125 
Q 7.953125 -13.28125 10.59375 -11.234375 
Q 13.234375 -9.1875 16.5 -3.21875 
L 19.28125 2 
L 7.171875 54.6875 
L 16.703125 54.6875 
L 25.78125 12.796875 
L 50.875 54.6875 
L 60.296875 54.6875 
z
" id="DejaVuSans-Oblique-121"/>
      </defs>
      <use transform="translate(0 0.3125)" xlink:href="#DejaVuSans-Oblique-121"/>
     </g>
    </g>
   </g>
   <g id="line2d_61">
    <g clip-path="url(#pbb1e0dde90)">
     <use style="fill:#0000ff;stroke:#0000ff;" x="461.673755" xlink:href="#m1fb4e0fa33" y="204.6578"/>
     <use style="fill:#0000ff;stroke:#0000ff;" x="607.812481" xlink:href="#m1fb4e0fa33" y="73.491495"/>
     <use style="fill:#0000ff;stroke:#0000ff;" x="552.337043" xlink:href="#m1fb4e0fa33" y="176.999745"/>
     <use style="fill:#0000ff;stroke:#0000ff;" x="518.518322" xlink:href="#m1fb4e0fa33" y="234.072807"/>
     <use style="fill:#0000ff;stroke:#0000ff;" x="406.248762" xlink:href="#m1fb4e0fa33" y="134.010811"/>
     <use style="fill:#0000ff;stroke:#0000ff;" x="406.242644" xlink:href="#m1fb4e0fa33" y="127.031227"/>
     <use style="fill:#0000ff;stroke:#0000ff;" x="381.408878" xlink:href="#m1fb4e0fa33" y="57.718592"/>
     <use style="fill:#0000ff;stroke:#0000ff;" x="586.370529" xlink:href="#m1fb4e0fa33" y="126.193731"/>
     <use style="fill:#0000ff;stroke:#0000ff;" x="519.141387" xlink:href="#m1fb4e0fa33" y="219.473882"/>
     <use style="fill:#0000ff;stroke:#0000ff;" x="546.269715" xlink:href="#m1fb4e0fa33" y="191.799403"/>
     <use style="fill:#0000ff;stroke:#0000ff;" x="371.897738" xlink:href="#m1fb4e0fa33" y="39.472283"/>
     <use style="fill:#0000ff;stroke:#0000ff;" x="612.681169" xlink:href="#m1fb4e0fa33" y="53.099592"/>
     <use style="fill:#0000ff;stroke:#0000ff;" x="577.814486" xlink:href="#m1fb4e0fa33" y="143.41379"/>
     <use style="fill:#0000ff;stroke:#0000ff;" x="420.533681" xlink:href="#m1fb4e0fa33" y="150.941221"/>
     <use style="fill:#0000ff;stroke:#0000ff;" x="412.794185" xlink:href="#m1fb4e0fa33" y="142.569733"/>
     <use style="fill:#0000ff;stroke:#0000ff;" x="413.194814" xlink:href="#m1fb4e0fa33" y="132.767917"/>
     <use style="fill:#0000ff;stroke:#0000ff;" x="443.843658" xlink:href="#m1fb4e0fa33" y="197.823481"/>
     <use style="fill:#0000ff;stroke:#0000ff;" x="499.774074" xlink:href="#m1fb4e0fa33" y="220.631755"/>
     <use style="fill:#0000ff;stroke:#0000ff;" x="476.233725" xlink:href="#m1fb4e0fa33" y="218.497582"/>
     <use style="fill:#0000ff;stroke:#0000ff;" x="440.543061" xlink:href="#m1fb4e0fa33" y="203.206468"/>
     <use style="fill:#0000ff;stroke:#0000ff;" x="521.864905" xlink:href="#m1fb4e0fa33" y="204.472656"/>
     <use style="fill:#0000ff;stroke:#0000ff;" x="402.057477" xlink:href="#m1fb4e0fa33" y="119.765867"/>
     <use style="fill:#0000ff;stroke:#0000ff;" x="440.775268" xlink:href="#m1fb4e0fa33" y="185.741894"/>
     <use style="fill:#0000ff;stroke:#0000ff;" x="459.599447" xlink:href="#m1fb4e0fa33" y="207.007308"/>
     <use style="fill:#0000ff;stroke:#0000ff;" x="482.352694" xlink:href="#m1fb4e0fa33" y="232.816738"/>
     <use style="fill:#0000ff;stroke:#0000ff;" x="565.825937" xlink:href="#m1fb4e0fa33" y="163.25461"/>
     <use style="fill:#0000ff;stroke:#0000ff;" x="417.321293" xlink:href="#m1fb4e0fa33" y="155.883861"/>
     <use style="fill:#0000ff;stroke:#0000ff;" x="497.105314" xlink:href="#m1fb4e0fa33" y="226.662463"/>
     <use style="fill:#0000ff;stroke:#0000ff;" x="516.934638" xlink:href="#m1fb4e0fa33" y="212.876024"/>
     <use style="fill:#0000ff;stroke:#0000ff;" x="378.458275" xlink:href="#m1fb4e0fa33" y="63.140279"/>
     <use style="fill:#0000ff;stroke:#0000ff;" x="520.772228" xlink:href="#m1fb4e0fa33" y="185.949726"/>
     <use style="fill:#0000ff;stroke:#0000ff;" x="409.92788" xlink:href="#m1fb4e0fa33" y="136.328717"/>
     <use style="fill:#0000ff;stroke:#0000ff;" x="383.176211" xlink:href="#m1fb4e0fa33" y="76.888855"/>
     <use style="fill:#0000ff;stroke:#0000ff;" x="607.348639" xlink:href="#m1fb4e0fa33" y="71.971205"/>
     <use style="fill:#0000ff;stroke:#0000ff;" x="611.596159" xlink:href="#m1fb4e0fa33" y="83.150369"/>
     <use style="fill:#0000ff;stroke:#0000ff;" x="571.715725" xlink:href="#m1fb4e0fa33" y="148.503152"/>
     <use style="fill:#0000ff;stroke:#0000ff;" x="443.93789" xlink:href="#m1fb4e0fa33" y="188.720427"/>
     <use style="fill:#0000ff;stroke:#0000ff;" x="391.449961" xlink:href="#m1fb4e0fa33" y="70.040119"/>
     <use style="fill:#0000ff;stroke:#0000ff;" x="540.223138" xlink:href="#m1fb4e0fa33" y="194.84051"/>
     <use style="fill:#0000ff;stroke:#0000ff;" x="478.315439" xlink:href="#m1fb4e0fa33" y="210.879087"/>
     <use style="fill:#0000ff;stroke:#0000ff;" x="397.630095" xlink:href="#m1fb4e0fa33" y="113.995757"/>
     <use style="fill:#0000ff;stroke:#0000ff;" x="492.271632" xlink:href="#m1fb4e0fa33" y="231.218583"/>
     <use style="fill:#0000ff;stroke:#0000ff;" x="375.398941" xlink:href="#m1fb4e0fa33" y="46.180186"/>
     <use style="fill:#0000ff;stroke:#0000ff;" x="597.313482" xlink:href="#m1fb4e0fa33" y="86.599156"/>
     <use style="fill:#0000ff;stroke:#0000ff;" x="432.312775" xlink:href="#m1fb4e0fa33" y="165.388138"/>
     <use style="fill:#0000ff;stroke:#0000ff;" x="534.716504" xlink:href="#m1fb4e0fa33" y="208.958713"/>
     <use style="fill:#0000ff;stroke:#0000ff;" x="445.738025" xlink:href="#m1fb4e0fa33" y="174.475927"/>
     <use style="fill:#0000ff;stroke:#0000ff;" x="498.584923" xlink:href="#m1fb4e0fa33" y="233.760278"/>
     <use style="fill:#0000ff;stroke:#0000ff;" x="505.342369" xlink:href="#m1fb4e0fa33" y="208.447174"/>
     <use style="fill:#0000ff;stroke:#0000ff;" x="413.562573" xlink:href="#m1fb4e0fa33" y="118.672354"/>
     <use style="fill:#0000ff;stroke:#0000ff;" x="612.598681" xlink:href="#m1fb4e0fa33" y="69.258044"/>
     <use style="fill:#0000ff;stroke:#0000ff;" x="563.278632" xlink:href="#m1fb4e0fa33" y="169.092728"/>
     <use style="fill:#0000ff;stroke:#0000ff;" x="604.967857" xlink:href="#m1fb4e0fa33" y="75.912149"/>
     <use style="fill:#0000ff;stroke:#0000ff;" x="593.637517" xlink:href="#m1fb4e0fa33" y="110.211715"/>
     <use style="fill:#0000ff;stroke:#0000ff;" x="518.325938" xlink:href="#m1fb4e0fa33" y="228.903049"/>
     <use style="fill:#0000ff;stroke:#0000ff;" x="600.49759" xlink:href="#m1fb4e0fa33" y="87.291211"/>
     <use style="fill:#0000ff;stroke:#0000ff;" x="389.121678" xlink:href="#m1fb4e0fa33" y="107.213954"/>
     <use style="fill:#0000ff;stroke:#0000ff;" x="416.385142" xlink:href="#m1fb4e0fa33" y="144.406147"/>
     <use style="fill:#0000ff;stroke:#0000ff;" x="378.148046" xlink:href="#m1fb4e0fa33" y="78.322612"/>
     <use style="fill:#0000ff;stroke:#0000ff;" x="449.192363" xlink:href="#m1fb4e0fa33" y="176.281324"/>
     <use style="fill:#0000ff;stroke:#0000ff;" x="465.259456" xlink:href="#m1fb4e0fa33" y="217.59725"/>
     <use style="fill:#0000ff;stroke:#0000ff;" x="435.500743" xlink:href="#m1fb4e0fa33" y="183.114855"/>
     <use style="fill:#0000ff;stroke:#0000ff;" x="576.87473" xlink:href="#m1fb4e0fa33" y="128.962584"/>
     <use style="fill:#0000ff;stroke:#0000ff;" x="457.162378" xlink:href="#m1fb4e0fa33" y="217.114041"/>
     <use style="fill:#0000ff;stroke:#0000ff;" x="437.931969" xlink:href="#m1fb4e0fa33" y="179.58717"/>
     <use style="fill:#0000ff;stroke:#0000ff;" x="504.324222" xlink:href="#m1fb4e0fa33" y="200.00625"/>
     <use style="fill:#0000ff;stroke:#0000ff;" x="402.420269" xlink:href="#m1fb4e0fa33" y="143.083823"/>
     <use style="fill:#0000ff;stroke:#0000ff;" x="570.143086" xlink:href="#m1fb4e0fa33" y="148.696514"/>
     <use style="fill:#0000ff;stroke:#0000ff;" x="385.585516" xlink:href="#m1fb4e0fa33" y="82.784443"/>
     <use style="fill:#0000ff;stroke:#0000ff;" x="616.987175" xlink:href="#m1fb4e0fa33" y="35.853109"/>
     <use style="fill:#0000ff;stroke:#0000ff;" x="562.546116" xlink:href="#m1fb4e0fa33" y="178.34002"/>
     <use style="fill:#0000ff;stroke:#0000ff;" x="417.078284" xlink:href="#m1fb4e0fa33" y="167.277208"/>
     <use style="fill:#0000ff;stroke:#0000ff;" x="368.077371" xlink:href="#m1fb4e0fa33" y="33.593087"/>
     <use style="fill:#0000ff;stroke:#0000ff;" x="573.507433" xlink:href="#m1fb4e0fa33" y="141.401104"/>
     <use style="fill:#0000ff;stroke:#0000ff;" x="545.961488" xlink:href="#m1fb4e0fa33" y="183.077695"/>
     <use style="fill:#0000ff;stroke:#0000ff;" x="551.579489" xlink:href="#m1fb4e0fa33" y="174.921102"/>
     <use style="fill:#0000ff;stroke:#0000ff;" x="562.298967" xlink:href="#m1fb4e0fa33" y="171.996218"/>
     <use style="fill:#0000ff;stroke:#0000ff;" x="385.457178" xlink:href="#m1fb4e0fa33" y="82.805955"/>
     <use style="fill:#0000ff;stroke:#0000ff;" x="457.596705" xlink:href="#m1fb4e0fa33" y="199.05834"/>
     <use style="fill:#0000ff;stroke:#0000ff;" x="396.065368" xlink:href="#m1fb4e0fa33" y="118.798169"/>
     <use style="fill:#0000ff;stroke:#0000ff;" x="585.591176" xlink:href="#m1fb4e0fa33" y="99.018654"/>
     <use style="fill:#0000ff;stroke:#0000ff;" x="524.767832" xlink:href="#m1fb4e0fa33" y="200.375191"/>
     <use style="fill:#0000ff;stroke:#0000ff;" x="450.604533" xlink:href="#m1fb4e0fa33" y="210.782756"/>
     <use style="fill:#0000ff;stroke:#0000ff;" x="382.79747" xlink:href="#m1fb4e0fa33" y="71.125789"/>
     <use style="fill:#0000ff;stroke:#0000ff;" x="445.553187" xlink:href="#m1fb4e0fa33" y="202.996543"/>
     <use style="fill:#0000ff;stroke:#0000ff;" x="449.155077" xlink:href="#m1fb4e0fa33" y="185.459311"/>
     <use style="fill:#0000ff;stroke:#0000ff;" x="551.731419" xlink:href="#m1fb4e0fa33" y="164.911249"/>
     <use style="fill:#0000ff;stroke:#0000ff;" x="528.38452" xlink:href="#m1fb4e0fa33" y="213.316947"/>
     <use style="fill:#0000ff;stroke:#0000ff;" x="591.706175" xlink:href="#m1fb4e0fa33" y="96.808277"/>
     <use style="fill:#0000ff;stroke:#0000ff;" x="486.447638" xlink:href="#m1fb4e0fa33" y="211.571866"/>
     <use style="fill:#0000ff;stroke:#0000ff;" x="397.010211" xlink:href="#m1fb4e0fa33" y="102.302578"/>
     <use style="fill:#0000ff;stroke:#0000ff;" x="547.581576" xlink:href="#m1fb4e0fa33" y="161.245477"/>
     <use style="fill:#0000ff;stroke:#0000ff;" x="559.639515" xlink:href="#m1fb4e0fa33" y="170.789293"/>
     <use style="fill:#0000ff;stroke:#0000ff;" x="509.037069" xlink:href="#m1fb4e0fa33" y="223.501398"/>
     <use style="fill:#0000ff;stroke:#0000ff;" x="562.222073" xlink:href="#m1fb4e0fa33" y="174.646002"/>
     <use style="fill:#0000ff;stroke:#0000ff;" x="491.921281" xlink:href="#m1fb4e0fa33" y="226.9449"/>
     <use style="fill:#0000ff;stroke:#0000ff;" x="499.260815" xlink:href="#m1fb4e0fa33" y="217.674638"/>
     <use style="fill:#0000ff;stroke:#0000ff;" x="475.116711" xlink:href="#m1fb4e0fa33" y="209.191276"/>
     <use style="fill:#0000ff;stroke:#0000ff;" x="373.123976" xlink:href="#m1fb4e0fa33" y="50.530854"/>
     <use style="fill:#0000ff;stroke:#0000ff;" x="394.041951" xlink:href="#m1fb4e0fa33" y="95.688067"/>
    </g>
   </g>
   <g id="line2d_62">
    <path clip-path="url(#pbb1e0dde90)" d="M 366.676761 40.046108 
L 369.726497 40.046108 
L 370.234787 42.479034 
L 372.267944 42.479034 
L 372.776233 50.364598 
L 376.334258 50.364598 
L 376.842547 69.887341 
L 379.383994 69.887341 
L 379.892283 68.959209 
L 381.925441 68.959209 
L 382.43373 77.456844 
L 393.616095 77.456844 
L 394.124384 111.354913 
L 397.17412 111.354913 
L 397.682409 114.792352 
L 401.748723 114.792352 
L 402.257013 127.171593 
L 405.815038 127.171593 
L 406.323327 133.385109 
L 412.931088 133.385109 
L 413.439378 132.603291 
L 414.964245 132.603291 
L 415.472535 145.647898 
L 416.489113 145.647898 
L 416.997403 161.569394 
L 424.621742 161.569394 
L 425.130032 166.548636 
L 433.77095 166.548636 
L 434.279239 181.785754 
L 438.853843 181.785754 
L 439.362132 193.337689 
L 446.986472 193.337689 
L 447.494761 191.99895 
L 449.019629 191.99895 
L 449.527918 190.501481 
L 450.036208 209.363954 
L 461.218572 209.363954 
L 461.726862 213.298411 
L 475.450673 213.298411 
L 475.958962 214.625621 
L 480.025277 214.625621 
L 480.533566 218.240677 
L 518.655264 218.240677 
L 519.163553 217.618444 
L 519.671842 217.618444 
L 520.180132 200.582413 
L 521.19671 200.582413 
L 521.705 203.865805 
L 537.461968 203.865805 
L 537.970257 195.189289 
L 543.053151 195.189289 
L 543.56144 187.426679 
L 548.644333 187.426679 
L 549.152622 173.435008 
L 566.942748 173.435008 
L 567.451037 148.634155 
L 572.53393 148.634155 
L 573.04222 144.942062 
L 575.075377 144.942062 
L 575.583666 135.334475 
L 581.683138 135.334475 
L 582.191427 112.845549 
L 588.799188 112.845549 
L 589.307477 104.459967 
L 595.406949 104.459967 
L 595.915238 87.976086 
L 602.522999 87.976086 
L 603.031289 78.6984 
L 611.672207 78.6984 
L 612.180496 55.959567 
L 614.721943 55.959567 
L 615.230232 42.193259 
L 620.313125 42.193259 
L 620.313125 42.193259 
" style="fill:none;stroke:#ff0000;stroke-linecap:square;stroke-width:2;"/>
   </g>
   <g id="patch_8">
    <path d="M 366.676761 241.277813 
L 366.676761 23.837812 
" style="fill:none;stroke:#ffffff;stroke-linecap:square;stroke-linejoin:miter;"/>
   </g>
   <g id="patch_9">
    <path d="M 620.313125 241.277813 
L 620.313125 23.837812 
" style="fill:none;stroke:#ffffff;stroke-linecap:square;stroke-linejoin:miter;"/>
   </g>
   <g id="patch_10">
    <path d="M 366.676761 241.277813 
L 620.313125 241.277813 
" style="fill:none;stroke:#ffffff;stroke-linecap:square;stroke-linejoin:miter;"/>
   </g>
   <g id="patch_11">
    <path d="M 366.676761 23.837812 
L 620.313125 23.837812 
" style="fill:none;stroke:#ffffff;stroke-linecap:square;stroke-linejoin:miter;"/>
   </g>
   <g id="text_35">
    <!-- Best model (56 trees) -->
    <g transform="translate(417.427912 17.837812)scale(0.14 -0.14)">
     <defs>
      <path d="M 19.671875 34.8125 
L 19.671875 8.109375 
L 35.5 8.109375 
Q 43.453125 8.109375 47.28125 11.40625 
Q 51.125 14.703125 51.125 21.484375 
Q 51.125 28.328125 47.28125 31.5625 
Q 43.453125 34.8125 35.5 34.8125 
z
M 19.671875 64.796875 
L 19.671875 42.828125 
L 34.28125 42.828125 
Q 41.5 42.828125 45.03125 45.53125 
Q 48.578125 48.25 48.578125 53.8125 
Q 48.578125 59.328125 45.03125 62.0625 
Q 41.5 64.796875 34.28125 64.796875 
z
M 9.8125 72.90625 
L 35.015625 72.90625 
Q 46.296875 72.90625 52.390625 68.21875 
Q 58.5 63.53125 58.5 54.890625 
Q 58.5 48.1875 55.375 44.234375 
Q 52.25 40.28125 46.1875 39.3125 
Q 53.46875 37.75 57.5 32.78125 
Q 61.53125 27.828125 61.53125 20.40625 
Q 61.53125 10.640625 54.890625 5.3125 
Q 48.25 0 35.984375 0 
L 9.8125 0 
z
" id="DejaVuSans-66"/>
      <path d="M 31 75.875 
Q 24.46875 64.65625 21.28125 53.65625 
Q 18.109375 42.671875 18.109375 31.390625 
Q 18.109375 20.125 21.3125 9.0625 
Q 24.515625 -2 31 -13.1875 
L 23.1875 -13.1875 
Q 15.875 -1.703125 12.234375 9.375 
Q 8.59375 20.453125 8.59375 31.390625 
Q 8.59375 42.28125 12.203125 53.3125 
Q 15.828125 64.359375 23.1875 75.875 
z
" id="DejaVuSans-40"/>
      <path d="M 8.015625 75.875 
L 15.828125 75.875 
Q 23.140625 64.359375 26.78125 53.3125 
Q 30.421875 42.28125 30.421875 31.390625 
Q 30.421875 20.453125 26.78125 9.375 
Q 23.140625 -1.703125 15.828125 -13.1875 
L 8.015625 -13.1875 
Q 14.5 -2 17.703125 9.0625 
Q 20.90625 20.125 20.90625 31.390625 
Q 20.90625 42.671875 17.703125 53.65625 
Q 14.5 64.65625 8.015625 75.875 
z
" id="DejaVuSans-41"/>
     </defs>
     <use xlink:href="#DejaVuSans-66"/>
     <use x="68.603516" xlink:href="#DejaVuSans-101"/>
     <use x="130.126953" xlink:href="#DejaVuSans-115"/>
     <use x="182.226562" xlink:href="#DejaVuSans-116"/>
     <use x="221.435547" xlink:href="#DejaVuSans-32"/>
     <use x="253.222656" xlink:href="#DejaVuSans-109"/>
     <use x="350.634766" xlink:href="#DejaVuSans-111"/>
     <use x="411.816406" xlink:href="#DejaVuSans-100"/>
     <use x="475.292969" xlink:href="#DejaVuSans-101"/>
     <use x="536.816406" xlink:href="#DejaVuSans-108"/>
     <use x="564.599609" xlink:href="#DejaVuSans-32"/>
     <use x="596.386719" xlink:href="#DejaVuSans-40"/>
     <use x="635.400391" xlink:href="#DejaVuSans-53"/>
     <use x="699.023438" xlink:href="#DejaVuSans-54"/>
     <use x="762.646484" xlink:href="#DejaVuSans-32"/>
     <use x="794.433594" xlink:href="#DejaVuSans-116"/>
     <use x="833.642578" xlink:href="#DejaVuSans-114"/>
     <use x="872.505859" xlink:href="#DejaVuSans-101"/>
     <use x="934.029297" xlink:href="#DejaVuSans-101"/>
     <use x="995.552734" xlink:href="#DejaVuSans-115"/>
     <use x="1047.652344" xlink:href="#DejaVuSans-41"/>
    </g>
   </g>
  </g>
 </g>
 <defs>
  <clipPath id="p94fc37f439">
   <rect height="217.44" width="253.636364" x="62.313125" y="23.837812"/>
  </clipPath>
  <clipPath id="pbb1e0dde90">
   <rect height="217.44" width="253.636364" x="366.676761" y="23.837812"/>
  </clipPath>
 </defs>
</svg>
