<?xml version="1.0" encoding="utf-8" standalone="no"?>
<!DOCTYPE svg PUBLIC "-//W3C//DTD SVG 1.1//EN"
  "http://www.w3.org/Graphics/SVG/1.1/DTD/svg11.dtd">
<!-- Created with matplotlib (https://matplotlib.org/) -->
<svg height="370.91625pt" version="1.1" viewBox="0 0 608.98125 370.91625" width="608.98125pt" xmlns="http://www.w3.org/2000/svg" xmlns:xlink="http://www.w3.org/1999/xlink">
 <metadata>
  <rdf:RDF xmlns:cc="http://creativecommons.org/ns#" xmlns:dc="http://purl.org/dc/elements/1.1/" xmlns:rdf="http://www.w3.org/1999/02/22-rdf-syntax-ns#">
   <cc:Work>
    <dc:type rdf:resource="http://purl.org/dc/dcmitype/StillImage"/>
    <dc:date>2020-10-06T18:38:17.950709</dc:date>
    <dc:format>image/svg+xml</dc:format>
    <dc:creator>
     <cc:Agent>
      <dc:title>Matplotlib v3.3.2, https://matplotlib.org/</dc:title>
     </cc:Agent>
    </dc:creator>
   </cc:Work>
  </rdf:RDF>
 </metadata>
 <defs>
  <style type="text/css">*{stroke-linecap:butt;stroke-linejoin:round;}</style>
 </defs>
 <g id="figure_1">
  <g id="patch_1">
   <path d="M 0 370.91625 
L 608.98125 370.91625 
L 608.98125 0 
L 0 0 
z
" style="fill:none;"/>
  </g>
  <g id="axes_1">
   <g id="patch_2">
    <path d="M 43.78125 333.36 
L 601.78125 333.36 
L 601.78125 7.2 
L 43.78125 7.2 
z
" style="fill:#ffffff;"/>
   </g>
   <g id="matplotlib.axis_1">
    <g id="xtick_1">
     <g id="line2d_1">
      <defs>
       <path d="M 0 0 
L 0 3.5 
" id="m00356a6b3d" style="stroke:#000000;stroke-width:0.8;"/>
      </defs>
      <g>
       <use style="stroke:#000000;stroke-width:0.8;" x="69.144886" xlink:href="#m00356a6b3d" y="333.36"/>
      </g>
     </g>
     <g id="text_1">
      <!-- 0.0 -->
      <g transform="translate(61.193324 347.958438)scale(0.1 -0.1)">
       <defs>
        <path d="M 31.78125 66.40625 
Q 24.171875 66.40625 20.328125 58.90625 
Q 16.5 51.421875 16.5 36.375 
Q 16.5 21.390625 20.328125 13.890625 
Q 24.171875 6.390625 31.78125 6.390625 
Q 39.453125 6.390625 43.28125 13.890625 
Q 47.125 21.390625 47.125 36.375 
Q 47.125 51.421875 43.28125 58.90625 
Q 39.453125 66.40625 31.78125 66.40625 
z
M 31.78125 74.21875 
Q 44.046875 74.21875 50.515625 64.515625 
Q 56.984375 54.828125 56.984375 36.375 
Q 56.984375 17.96875 50.515625 8.265625 
Q 44.046875 -1.421875 31.78125 -1.421875 
Q 19.53125 -1.421875 13.0625 8.265625 
Q 6.59375 17.96875 6.59375 36.375 
Q 6.59375 54.828125 13.0625 64.515625 
Q 19.53125 74.21875 31.78125 74.21875 
z
" id="DejaVuSans-48"/>
        <path d="M 10.6875 12.40625 
L 21 12.40625 
L 21 0 
L 10.6875 0 
z
" id="DejaVuSans-46"/>
       </defs>
       <use xlink:href="#DejaVuSans-48"/>
       <use x="63.623047" xlink:href="#DejaVuSans-46"/>
       <use x="95.410156" xlink:href="#DejaVuSans-48"/>
      </g>
     </g>
    </g>
    <g id="xtick_2">
     <g id="line2d_2">
      <g>
       <use style="stroke:#000000;stroke-width:0.8;" x="170.599432" xlink:href="#m00356a6b3d" y="333.36"/>
      </g>
     </g>
     <g id="text_2">
      <!-- 0.2 -->
      <g transform="translate(162.647869 347.958438)scale(0.1 -0.1)">
       <defs>
        <path d="M 19.1875 8.296875 
L 53.609375 8.296875 
L 53.609375 0 
L 7.328125 0 
L 7.328125 8.296875 
Q 12.9375 14.109375 22.625 23.890625 
Q 32.328125 33.6875 34.8125 36.53125 
Q 39.546875 41.84375 41.421875 45.53125 
Q 43.3125 49.21875 43.3125 52.78125 
Q 43.3125 58.59375 39.234375 62.25 
Q 35.15625 65.921875 28.609375 65.921875 
Q 23.96875 65.921875 18.8125 64.3125 
Q 13.671875 62.703125 7.8125 59.421875 
L 7.8125 69.390625 
Q 13.765625 71.78125 18.9375 73 
Q 24.125 74.21875 28.421875 74.21875 
Q 39.75 74.21875 46.484375 68.546875 
Q 53.21875 62.890625 53.21875 53.421875 
Q 53.21875 48.921875 51.53125 44.890625 
Q 49.859375 40.875 45.40625 35.40625 
Q 44.1875 33.984375 37.640625 27.21875 
Q 31.109375 20.453125 19.1875 8.296875 
z
" id="DejaVuSans-50"/>
       </defs>
       <use xlink:href="#DejaVuSans-48"/>
       <use x="63.623047" xlink:href="#DejaVuSans-46"/>
       <use x="95.410156" xlink:href="#DejaVuSans-50"/>
      </g>
     </g>
    </g>
    <g id="xtick_3">
     <g id="line2d_3">
      <g>
       <use style="stroke:#000000;stroke-width:0.8;" x="272.053977" xlink:href="#m00356a6b3d" y="333.36"/>
      </g>
     </g>
     <g id="text_3">
      <!-- 0.4 -->
      <g transform="translate(264.102415 347.958438)scale(0.1 -0.1)">
       <defs>
        <path d="M 37.796875 64.3125 
L 12.890625 25.390625 
L 37.796875 25.390625 
z
M 35.203125 72.90625 
L 47.609375 72.90625 
L 47.609375 25.390625 
L 58.015625 25.390625 
L 58.015625 17.1875 
L 47.609375 17.1875 
L 47.609375 0 
L 37.796875 0 
L 37.796875 17.1875 
L 4.890625 17.1875 
L 4.890625 26.703125 
z
" id="DejaVuSans-52"/>
       </defs>
       <use xlink:href="#DejaVuSans-48"/>
       <use x="63.623047" xlink:href="#DejaVuSans-46"/>
       <use x="95.410156" xlink:href="#DejaVuSans-52"/>
      </g>
     </g>
    </g>
    <g id="xtick_4">
     <g id="line2d_4">
      <g>
       <use style="stroke:#000000;stroke-width:0.8;" x="373.508523" xlink:href="#m00356a6b3d" y="333.36"/>
      </g>
     </g>
     <g id="text_4">
      <!-- 0.6 -->
      <g transform="translate(365.55696 347.958438)scale(0.1 -0.1)">
       <defs>
        <path d="M 33.015625 40.375 
Q 26.375 40.375 22.484375 35.828125 
Q 18.609375 31.296875 18.609375 23.390625 
Q 18.609375 15.53125 22.484375 10.953125 
Q 26.375 6.390625 33.015625 6.390625 
Q 39.65625 6.390625 43.53125 10.953125 
Q 47.40625 15.53125 47.40625 23.390625 
Q 47.40625 31.296875 43.53125 35.828125 
Q 39.65625 40.375 33.015625 40.375 
z
M 52.59375 71.296875 
L 52.59375 62.3125 
Q 48.875 64.0625 45.09375 64.984375 
Q 41.3125 65.921875 37.59375 65.921875 
Q 27.828125 65.921875 22.671875 59.328125 
Q 17.53125 52.734375 16.796875 39.40625 
Q 19.671875 43.65625 24.015625 45.921875 
Q 28.375 48.1875 33.59375 48.1875 
Q 44.578125 48.1875 50.953125 41.515625 
Q 57.328125 34.859375 57.328125 23.390625 
Q 57.328125 12.15625 50.6875 5.359375 
Q 44.046875 -1.421875 33.015625 -1.421875 
Q 20.359375 -1.421875 13.671875 8.265625 
Q 6.984375 17.96875 6.984375 36.375 
Q 6.984375 53.65625 15.1875 63.9375 
Q 23.390625 74.21875 37.203125 74.21875 
Q 40.921875 74.21875 44.703125 73.484375 
Q 48.484375 72.75 52.59375 71.296875 
z
" id="DejaVuSans-54"/>
       </defs>
       <use xlink:href="#DejaVuSans-48"/>
       <use x="63.623047" xlink:href="#DejaVuSans-46"/>
       <use x="95.410156" xlink:href="#DejaVuSans-54"/>
      </g>
     </g>
    </g>
    <g id="xtick_5">
     <g id="line2d_5">
      <g>
       <use style="stroke:#000000;stroke-width:0.8;" x="474.963068" xlink:href="#m00356a6b3d" y="333.36"/>
      </g>
     </g>
     <g id="text_5">
      <!-- 0.8 -->
      <g transform="translate(467.011506 347.958438)scale(0.1 -0.1)">
       <defs>
        <path d="M 31.78125 34.625 
Q 24.75 34.625 20.71875 30.859375 
Q 16.703125 27.09375 16.703125 20.515625 
Q 16.703125 13.921875 20.71875 10.15625 
Q 24.75 6.390625 31.78125 6.390625 
Q 38.8125 6.390625 42.859375 10.171875 
Q 46.921875 13.96875 46.921875 20.515625 
Q 46.921875 27.09375 42.890625 30.859375 
Q 38.875 34.625 31.78125 34.625 
z
M 21.921875 38.8125 
Q 15.578125 40.375 12.03125 44.71875 
Q 8.5 49.078125 8.5 55.328125 
Q 8.5 64.0625 14.71875 69.140625 
Q 20.953125 74.21875 31.78125 74.21875 
Q 42.671875 74.21875 48.875 69.140625 
Q 55.078125 64.0625 55.078125 55.328125 
Q 55.078125 49.078125 51.53125 44.71875 
Q 48 40.375 41.703125 38.8125 
Q 48.828125 37.15625 52.796875 32.3125 
Q 56.78125 27.484375 56.78125 20.515625 
Q 56.78125 9.90625 50.3125 4.234375 
Q 43.84375 -1.421875 31.78125 -1.421875 
Q 19.734375 -1.421875 13.25 4.234375 
Q 6.78125 9.90625 6.78125 20.515625 
Q 6.78125 27.484375 10.78125 32.3125 
Q 14.796875 37.15625 21.921875 38.8125 
z
M 18.3125 54.390625 
Q 18.3125 48.734375 21.84375 45.5625 
Q 25.390625 42.390625 31.78125 42.390625 
Q 38.140625 42.390625 41.71875 45.5625 
Q 45.3125 48.734375 45.3125 54.390625 
Q 45.3125 60.0625 41.71875 63.234375 
Q 38.140625 66.40625 31.78125 66.40625 
Q 25.390625 66.40625 21.84375 63.234375 
Q 18.3125 60.0625 18.3125 54.390625 
z
" id="DejaVuSans-56"/>
       </defs>
       <use xlink:href="#DejaVuSans-48"/>
       <use x="63.623047" xlink:href="#DejaVuSans-46"/>
       <use x="95.410156" xlink:href="#DejaVuSans-56"/>
      </g>
     </g>
    </g>
    <g id="xtick_6">
     <g id="line2d_6">
      <g>
       <use style="stroke:#000000;stroke-width:0.8;" x="576.417614" xlink:href="#m00356a6b3d" y="333.36"/>
      </g>
     </g>
     <g id="text_6">
      <!-- 1.0 -->
      <g transform="translate(568.466051 347.958438)scale(0.1 -0.1)">
       <defs>
        <path d="M 12.40625 8.296875 
L 28.515625 8.296875 
L 28.515625 63.921875 
L 10.984375 60.40625 
L 10.984375 69.390625 
L 28.421875 72.90625 
L 38.28125 72.90625 
L 38.28125 8.296875 
L 54.390625 8.296875 
L 54.390625 0 
L 12.40625 0 
z
" id="DejaVuSans-49"/>
       </defs>
       <use xlink:href="#DejaVuSans-49"/>
       <use x="63.623047" xlink:href="#DejaVuSans-46"/>
       <use x="95.410156" xlink:href="#DejaVuSans-48"/>
      </g>
     </g>
    </g>
    <g id="text_7">
     <!-- False Positive Rate -->
     <g transform="translate(276.314844 361.636562)scale(0.1 -0.1)">
      <defs>
       <path d="M 9.8125 72.90625 
L 51.703125 72.90625 
L 51.703125 64.59375 
L 19.671875 64.59375 
L 19.671875 43.109375 
L 48.578125 43.109375 
L 48.578125 34.8125 
L 19.671875 34.8125 
L 19.671875 0 
L 9.8125 0 
z
" id="DejaVuSans-70"/>
       <path d="M 34.28125 27.484375 
Q 23.390625 27.484375 19.1875 25 
Q 14.984375 22.515625 14.984375 16.5 
Q 14.984375 11.71875 18.140625 8.90625 
Q 21.296875 6.109375 26.703125 6.109375 
Q 34.1875 6.109375 38.703125 11.40625 
Q 43.21875 16.703125 43.21875 25.484375 
L 43.21875 27.484375 
z
M 52.203125 31.203125 
L 52.203125 0 
L 43.21875 0 
L 43.21875 8.296875 
Q 40.140625 3.328125 35.546875 0.953125 
Q 30.953125 -1.421875 24.3125 -1.421875 
Q 15.921875 -1.421875 10.953125 3.296875 
Q 6 8.015625 6 15.921875 
Q 6 25.140625 12.171875 29.828125 
Q 18.359375 34.515625 30.609375 34.515625 
L 43.21875 34.515625 
L 43.21875 35.40625 
Q 43.21875 41.609375 39.140625 45 
Q 35.0625 48.390625 27.6875 48.390625 
Q 23 48.390625 18.546875 47.265625 
Q 14.109375 46.140625 10.015625 43.890625 
L 10.015625 52.203125 
Q 14.9375 54.109375 19.578125 55.046875 
Q 24.21875 56 28.609375 56 
Q 40.484375 56 46.34375 49.84375 
Q 52.203125 43.703125 52.203125 31.203125 
z
" id="DejaVuSans-97"/>
       <path d="M 9.421875 75.984375 
L 18.40625 75.984375 
L 18.40625 0 
L 9.421875 0 
z
" id="DejaVuSans-108"/>
       <path d="M 44.28125 53.078125 
L 44.28125 44.578125 
Q 40.484375 46.53125 36.375 47.5 
Q 32.28125 48.484375 27.875 48.484375 
Q 21.1875 48.484375 17.84375 46.4375 
Q 14.5 44.390625 14.5 40.28125 
Q 14.5 37.15625 16.890625 35.375 
Q 19.28125 33.59375 26.515625 31.984375 
L 29.59375 31.296875 
Q 39.15625 29.25 43.1875 25.515625 
Q 47.21875 21.78125 47.21875 15.09375 
Q 47.21875 7.46875 41.1875 3.015625 
Q 35.15625 -1.421875 24.609375 -1.421875 
Q 20.21875 -1.421875 15.453125 -0.5625 
Q 10.6875 0.296875 5.421875 2 
L 5.421875 11.28125 
Q 10.40625 8.6875 15.234375 7.390625 
Q 20.0625 6.109375 24.8125 6.109375 
Q 31.15625 6.109375 34.5625 8.28125 
Q 37.984375 10.453125 37.984375 14.40625 
Q 37.984375 18.0625 35.515625 20.015625 
Q 33.0625 21.96875 24.703125 23.78125 
L 21.578125 24.515625 
Q 13.234375 26.265625 9.515625 29.90625 
Q 5.8125 33.546875 5.8125 39.890625 
Q 5.8125 47.609375 11.28125 51.796875 
Q 16.75 56 26.8125 56 
Q 31.78125 56 36.171875 55.265625 
Q 40.578125 54.546875 44.28125 53.078125 
z
" id="DejaVuSans-115"/>
       <path d="M 56.203125 29.59375 
L 56.203125 25.203125 
L 14.890625 25.203125 
Q 15.484375 15.921875 20.484375 11.0625 
Q 25.484375 6.203125 34.421875 6.203125 
Q 39.59375 6.203125 44.453125 7.46875 
Q 49.3125 8.734375 54.109375 11.28125 
L 54.109375 2.78125 
Q 49.265625 0.734375 44.1875 -0.34375 
Q 39.109375 -1.421875 33.890625 -1.421875 
Q 20.796875 -1.421875 13.15625 6.1875 
Q 5.515625 13.8125 5.515625 26.8125 
Q 5.515625 40.234375 12.765625 48.109375 
Q 20.015625 56 32.328125 56 
Q 43.359375 56 49.78125 48.890625 
Q 56.203125 41.796875 56.203125 29.59375 
z
M 47.21875 32.234375 
Q 47.125 39.59375 43.09375 43.984375 
Q 39.0625 48.390625 32.421875 48.390625 
Q 24.90625 48.390625 20.390625 44.140625 
Q 15.875 39.890625 15.1875 32.171875 
z
" id="DejaVuSans-101"/>
       <path id="DejaVuSans-32"/>
       <path d="M 19.671875 64.796875 
L 19.671875 37.40625 
L 32.078125 37.40625 
Q 38.96875 37.40625 42.71875 40.96875 
Q 46.484375 44.53125 46.484375 51.125 
Q 46.484375 57.671875 42.71875 61.234375 
Q 38.96875 64.796875 32.078125 64.796875 
z
M 9.8125 72.90625 
L 32.078125 72.90625 
Q 44.34375 72.90625 50.609375 67.359375 
Q 56.890625 61.8125 56.890625 51.125 
Q 56.890625 40.328125 50.609375 34.8125 
Q 44.34375 29.296875 32.078125 29.296875 
L 19.671875 29.296875 
L 19.671875 0 
L 9.8125 0 
z
" id="DejaVuSans-80"/>
       <path d="M 30.609375 48.390625 
Q 23.390625 48.390625 19.1875 42.75 
Q 14.984375 37.109375 14.984375 27.296875 
Q 14.984375 17.484375 19.15625 11.84375 
Q 23.34375 6.203125 30.609375 6.203125 
Q 37.796875 6.203125 41.984375 11.859375 
Q 46.1875 17.53125 46.1875 27.296875 
Q 46.1875 37.015625 41.984375 42.703125 
Q 37.796875 48.390625 30.609375 48.390625 
z
M 30.609375 56 
Q 42.328125 56 49.015625 48.375 
Q 55.71875 40.765625 55.71875 27.296875 
Q 55.71875 13.875 49.015625 6.21875 
Q 42.328125 -1.421875 30.609375 -1.421875 
Q 18.84375 -1.421875 12.171875 6.21875 
Q 5.515625 13.875 5.515625 27.296875 
Q 5.515625 40.765625 12.171875 48.375 
Q 18.84375 56 30.609375 56 
z
" id="DejaVuSans-111"/>
       <path d="M 9.421875 54.6875 
L 18.40625 54.6875 
L 18.40625 0 
L 9.421875 0 
z
M 9.421875 75.984375 
L 18.40625 75.984375 
L 18.40625 64.59375 
L 9.421875 64.59375 
z
" id="DejaVuSans-105"/>
       <path d="M 18.3125 70.21875 
L 18.3125 54.6875 
L 36.8125 54.6875 
L 36.8125 47.703125 
L 18.3125 47.703125 
L 18.3125 18.015625 
Q 18.3125 11.328125 20.140625 9.421875 
Q 21.96875 7.515625 27.59375 7.515625 
L 36.8125 7.515625 
L 36.8125 0 
L 27.59375 0 
Q 17.1875 0 13.234375 3.875 
Q 9.28125 7.765625 9.28125 18.015625 
L 9.28125 47.703125 
L 2.6875 47.703125 
L 2.6875 54.6875 
L 9.28125 54.6875 
L 9.28125 70.21875 
z
" id="DejaVuSans-116"/>
       <path d="M 2.984375 54.6875 
L 12.5 54.6875 
L 29.59375 8.796875 
L 46.6875 54.6875 
L 56.203125 54.6875 
L 35.6875 0 
L 23.484375 0 
z
" id="DejaVuSans-118"/>
       <path d="M 44.390625 34.1875 
Q 47.5625 33.109375 50.5625 29.59375 
Q 53.5625 26.078125 56.59375 19.921875 
L 66.609375 0 
L 56 0 
L 46.6875 18.703125 
Q 43.0625 26.03125 39.671875 28.421875 
Q 36.28125 30.8125 30.421875 30.8125 
L 19.671875 30.8125 
L 19.671875 0 
L 9.8125 0 
L 9.8125 72.90625 
L 32.078125 72.90625 
Q 44.578125 72.90625 50.734375 67.671875 
Q 56.890625 62.453125 56.890625 51.90625 
Q 56.890625 45.015625 53.6875 40.46875 
Q 50.484375 35.9375 44.390625 34.1875 
z
M 19.671875 64.796875 
L 19.671875 38.921875 
L 32.078125 38.921875 
Q 39.203125 38.921875 42.84375 42.21875 
Q 46.484375 45.515625 46.484375 51.90625 
Q 46.484375 58.296875 42.84375 61.546875 
Q 39.203125 64.796875 32.078125 64.796875 
z
" id="DejaVuSans-82"/>
      </defs>
      <use xlink:href="#DejaVuSans-70"/>
      <use x="48.394531" xlink:href="#DejaVuSans-97"/>
      <use x="109.673828" xlink:href="#DejaVuSans-108"/>
      <use x="137.457031" xlink:href="#DejaVuSans-115"/>
      <use x="189.556641" xlink:href="#DejaVuSans-101"/>
      <use x="251.080078" xlink:href="#DejaVuSans-32"/>
      <use x="282.867188" xlink:href="#DejaVuSans-80"/>
      <use x="339.544922" xlink:href="#DejaVuSans-111"/>
      <use x="400.726562" xlink:href="#DejaVuSans-115"/>
      <use x="452.826172" xlink:href="#DejaVuSans-105"/>
      <use x="480.609375" xlink:href="#DejaVuSans-116"/>
      <use x="519.818359" xlink:href="#DejaVuSans-105"/>
      <use x="547.601562" xlink:href="#DejaVuSans-118"/>
      <use x="606.78125" xlink:href="#DejaVuSans-101"/>
      <use x="668.304688" xlink:href="#DejaVuSans-32"/>
      <use x="700.091797" xlink:href="#DejaVuSans-82"/>
      <use x="767.324219" xlink:href="#DejaVuSans-97"/>
      <use x="828.603516" xlink:href="#DejaVuSans-116"/>
      <use x="867.8125" xlink:href="#DejaVuSans-101"/>
     </g>
    </g>
   </g>
   <g id="matplotlib.axis_2">
    <g id="ytick_1">
     <g id="line2d_7">
      <defs>
       <path d="M 0 0 
L -3.5 0 
" id="m4dc1b2824a" style="stroke:#000000;stroke-width:0.8;"/>
      </defs>
      <g>
       <use style="stroke:#000000;stroke-width:0.8;" x="43.78125" xlink:href="#m4dc1b2824a" y="318.534545"/>
      </g>
     </g>
     <g id="text_8">
      <!-- 0.0 -->
      <g transform="translate(20.878125 322.333764)scale(0.1 -0.1)">
       <use xlink:href="#DejaVuSans-48"/>
       <use x="63.623047" xlink:href="#DejaVuSans-46"/>
       <use x="95.410156" xlink:href="#DejaVuSans-48"/>
      </g>
     </g>
    </g>
    <g id="ytick_2">
     <g id="line2d_8">
      <g>
       <use style="stroke:#000000;stroke-width:0.8;" x="43.78125" xlink:href="#m4dc1b2824a" y="259.232727"/>
      </g>
     </g>
     <g id="text_9">
      <!-- 0.2 -->
      <g transform="translate(20.878125 263.031946)scale(0.1 -0.1)">
       <use xlink:href="#DejaVuSans-48"/>
       <use x="63.623047" xlink:href="#DejaVuSans-46"/>
       <use x="95.410156" xlink:href="#DejaVuSans-50"/>
      </g>
     </g>
    </g>
    <g id="ytick_3">
     <g id="line2d_9">
      <g>
       <use style="stroke:#000000;stroke-width:0.8;" x="43.78125" xlink:href="#m4dc1b2824a" y="199.930909"/>
      </g>
     </g>
     <g id="text_10">
      <!-- 0.4 -->
      <g transform="translate(20.878125 203.730128)scale(0.1 -0.1)">
       <use xlink:href="#DejaVuSans-48"/>
       <use x="63.623047" xlink:href="#DejaVuSans-46"/>
       <use x="95.410156" xlink:href="#DejaVuSans-52"/>
      </g>
     </g>
    </g>
    <g id="ytick_4">
     <g id="line2d_10">
      <g>
       <use style="stroke:#000000;stroke-width:0.8;" x="43.78125" xlink:href="#m4dc1b2824a" y="140.629091"/>
      </g>
     </g>
     <g id="text_11">
      <!-- 0.6 -->
      <g transform="translate(20.878125 144.42831)scale(0.1 -0.1)">
       <use xlink:href="#DejaVuSans-48"/>
       <use x="63.623047" xlink:href="#DejaVuSans-46"/>
       <use x="95.410156" xlink:href="#DejaVuSans-54"/>
      </g>
     </g>
    </g>
    <g id="ytick_5">
     <g id="line2d_11">
      <g>
       <use style="stroke:#000000;stroke-width:0.8;" x="43.78125" xlink:href="#m4dc1b2824a" y="81.327273"/>
      </g>
     </g>
     <g id="text_12">
      <!-- 0.8 -->
      <g transform="translate(20.878125 85.126491)scale(0.1 -0.1)">
       <use xlink:href="#DejaVuSans-48"/>
       <use x="63.623047" xlink:href="#DejaVuSans-46"/>
       <use x="95.410156" xlink:href="#DejaVuSans-56"/>
      </g>
     </g>
    </g>
    <g id="ytick_6">
     <g id="line2d_12">
      <g>
       <use style="stroke:#000000;stroke-width:0.8;" x="43.78125" xlink:href="#m4dc1b2824a" y="22.025455"/>
      </g>
     </g>
     <g id="text_13">
      <!-- 1.0 -->
      <g transform="translate(20.878125 25.824673)scale(0.1 -0.1)">
       <use xlink:href="#DejaVuSans-49"/>
       <use x="63.623047" xlink:href="#DejaVuSans-46"/>
       <use x="95.410156" xlink:href="#DejaVuSans-48"/>
      </g>
     </g>
    </g>
    <g id="text_14">
     <!-- True Postitive Rate -->
     <g transform="translate(14.798438 216.769844)rotate(-90)scale(0.1 -0.1)">
      <defs>
       <path d="M -0.296875 72.90625 
L 61.375 72.90625 
L 61.375 64.59375 
L 35.5 64.59375 
L 35.5 0 
L 25.59375 0 
L 25.59375 64.59375 
L -0.296875 64.59375 
z
" id="DejaVuSans-84"/>
       <path d="M 41.109375 46.296875 
Q 39.59375 47.171875 37.8125 47.578125 
Q 36.03125 48 33.890625 48 
Q 26.265625 48 22.1875 43.046875 
Q 18.109375 38.09375 18.109375 28.8125 
L 18.109375 0 
L 9.078125 0 
L 9.078125 54.6875 
L 18.109375 54.6875 
L 18.109375 46.1875 
Q 20.953125 51.171875 25.484375 53.578125 
Q 30.03125 56 36.53125 56 
Q 37.453125 56 38.578125 55.875 
Q 39.703125 55.765625 41.0625 55.515625 
z
" id="DejaVuSans-114"/>
       <path d="M 8.5 21.578125 
L 8.5 54.6875 
L 17.484375 54.6875 
L 17.484375 21.921875 
Q 17.484375 14.15625 20.5 10.265625 
Q 23.53125 6.390625 29.59375 6.390625 
Q 36.859375 6.390625 41.078125 11.03125 
Q 45.3125 15.671875 45.3125 23.6875 
L 45.3125 54.6875 
L 54.296875 54.6875 
L 54.296875 0 
L 45.3125 0 
L 45.3125 8.40625 
Q 42.046875 3.421875 37.71875 1 
Q 33.40625 -1.421875 27.6875 -1.421875 
Q 18.265625 -1.421875 13.375 4.4375 
Q 8.5 10.296875 8.5 21.578125 
z
M 31.109375 56 
z
" id="DejaVuSans-117"/>
      </defs>
      <use xlink:href="#DejaVuSans-84"/>
      <use x="46.333984" xlink:href="#DejaVuSans-114"/>
      <use x="87.447266" xlink:href="#DejaVuSans-117"/>
      <use x="150.826172" xlink:href="#DejaVuSans-101"/>
      <use x="212.349609" xlink:href="#DejaVuSans-32"/>
      <use x="244.136719" xlink:href="#DejaVuSans-80"/>
      <use x="300.814453" xlink:href="#DejaVuSans-111"/>
      <use x="361.996094" xlink:href="#DejaVuSans-115"/>
      <use x="414.095703" xlink:href="#DejaVuSans-116"/>
      <use x="453.304688" xlink:href="#DejaVuSans-105"/>
      <use x="481.087891" xlink:href="#DejaVuSans-116"/>
      <use x="520.296875" xlink:href="#DejaVuSans-105"/>
      <use x="548.080078" xlink:href="#DejaVuSans-118"/>
      <use x="607.259766" xlink:href="#DejaVuSans-101"/>
      <use x="668.783203" xlink:href="#DejaVuSans-32"/>
      <use x="700.570312" xlink:href="#DejaVuSans-82"/>
      <use x="767.802734" xlink:href="#DejaVuSans-97"/>
      <use x="829.082031" xlink:href="#DejaVuSans-116"/>
      <use x="868.291016" xlink:href="#DejaVuSans-101"/>
     </g>
    </g>
   </g>
   <g id="line2d_13">
    <path clip-path="url(#p393dc8a27a)" d="M 69.144886 318.534545 
L 69.248122 301.339112 
L 69.257507 301.339112 
L 69.360743 295.956193 
L 69.370128 295.956193 
L 69.473364 291.669795 
L 69.482749 291.669795 
L 69.585985 286.336718 
L 69.61414 286.286877 
L 69.717376 283.545576 
L 69.726761 283.545576 
L 69.829997 280.654749 
L 69.848767 280.555065 
L 69.942618 278.810601 
L 69.961388 278.810601 
L 70.064624 277.265504 
L 70.074009 277.265504 
L 70.177245 273.975943 
L 70.196015 273.975943 
L 70.299251 272.53053 
L 70.308636 272.53053 
L 70.411872 270.536856 
L 70.430642 270.536856 
L 70.533878 268.094606 
L 70.552648 268.044764 
L 70.646498 266.3003 
L 70.665269 266.3003 
L 70.730964 264.605677 
L 70.77789 264.605677 
L 70.87174 262.562162 
L 70.937436 262.462478 
L 71.040672 260.61833 
L 71.068827 260.61833 
L 71.172063 259.52181 
L 71.209603 259.422126 
L 71.312839 258.524973 
L 71.322224 258.524973 
L 71.416075 257.07956 
L 71.44423 256.979876 
L 71.547466 256.331932 
L 71.575621 256.232249 
L 71.678857 254.687152 
L 71.688242 254.687152 
L 71.791478 253.590631 
L 71.810248 253.490948 
L 71.904099 252.294744 
L 71.941639 252.244902 
L 72.044875 250.949014 
L 72.05426 250.949014 
L 72.157496 250.201386 
L 72.185651 250.201386 
L 72.288887 249.403917 
L 72.298272 249.403917 
L 72.392123 248.058187 
L 72.420278 247.958504 
L 72.523514 246.662616 
L 72.542284 246.662616 
L 72.636135 245.516254 
L 72.66429 245.41657 
L 72.767526 244.270208 
L 72.805066 244.170524 
L 72.908302 242.924478 
L 72.936457 242.924478 
L 73.039693 241.578748 
L 73.049078 241.578748 
L 73.152314 240.53207 
L 73.161699 240.53207 
L 73.246164 239.634917 
L 73.283705 239.634917 
L 73.386941 238.837447 
L 73.415096 238.737764 
L 73.499561 237.641243 
L 73.537102 237.641243 
L 73.640338 236.245672 
L 73.668493 236.145988 
L 73.771729 234.949784 
L 73.799884 234.949784 
L 73.90312 233.803422 
L 73.931275 233.75358 
L 74.025126 233.005952 
L 74.053281 232.906269 
L 74.156517 231.211646 
L 74.165902 231.211646 
L 74.269138 230.314493 
L 74.297293 230.21481 
L 74.391144 229.168131 
L 74.409914 229.168131 
L 74.51315 228.021769 
L 74.541305 227.922085 
L 74.635156 227.423667 
L 74.691466 227.323983 
L 74.775932 226.327146 
L 74.813472 226.327146 
L 74.916708 224.881733 
L 74.935478 224.782049 
L 75.038714 223.685529 
L 75.076254 223.585845 
L 75.17949 221.990906 
L 75.235801 221.891223 
L 75.320266 221.143595 
L 75.357806 221.043911 
L 75.451657 219.448973 
L 75.470427 219.448973 
L 75.573663 218.252769 
L 75.583048 218.252769 
L 75.686284 217.056564 
L 75.705054 217.056564 
L 75.78952 216.558146 
L 75.836445 216.458462 
L 75.930296 215.810518 
L 75.949066 215.810518 
L 76.052302 214.664156 
L 76.099227 214.564473 
L 76.202463 213.168901 
L 76.249389 213.069217 
L 76.352625 212.172064 
L 76.36201 212.172064 
L 76.427705 211.125386 
L 76.493401 211.075544 
L 76.596636 210.128549 
L 76.634177 210.028865 
L 76.737413 209.33108 
L 76.793723 209.281238 
L 76.887574 208.433927 
L 76.934499 208.384085 
L 77.037735 207.387248 
L 77.06589 207.337406 
L 77.159741 206.938671 
L 77.206666 206.88883 
L 77.309902 205.891993 
L 77.338057 205.792309 
L 77.441293 204.895156 
L 77.450678 204.895156 
L 77.553914 203.64911 
L 77.572684 203.64911 
L 77.67592 202.303381 
L 77.69469 202.253539 
L 77.797926 201.406227 
L 77.816696 201.356386 
L 77.919932 200.808125 
L 77.957472 200.758284 
L 78.060708 199.960814 
L 78.070093 199.960814 
L 78.173329 198.814452 
L 78.220255 198.814452 
L 78.32349 197.767773 
L 78.361031 197.767773 
L 78.436111 196.920462 
L 78.473652 196.920462 
L 78.576887 195.22584 
L 78.614428 195.126156 
L 78.717664 194.129319 
L 78.727049 194.129319 
L 78.830284 193.381692 
L 78.85844 193.282008 
L 78.95229 192.78359 
L 79.027371 192.683906 
L 79.121222 192.235329 
L 79.139992 192.235329 
L 79.243228 191.238493 
L 79.261998 191.238493 
L 79.365234 190.34134 
L 79.384004 190.241656 
L 79.46847 189.294661 
L 79.50601 189.294661 
L 79.571705 188.796243 
L 79.628016 188.696559 
L 79.731252 187.550197 
L 79.740637 187.550197 
L 79.834488 186.802569 
L 79.872028 186.752727 
L 79.975264 185.805732 
L 80.022189 185.706049 
L 80.125425 184.65937 
L 80.162965 184.609528 
L 80.256816 183.56285 
L 80.275586 183.56285 
L 80.378822 182.566013 
L 80.406977 182.516171 
L 80.472673 182.067595 
L 80.519598 182.067595 
L 80.622834 180.821549 
L 80.641604 180.721865 
L 80.74484 180.372972 
L 80.76361 180.372972 
L 80.866846 179.475819 
L 80.913771 179.425977 
L 81.017007 178.130089 
L 81.045162 178.080248 
L 81.148398 177.382462 
L 81.157783 177.382462 
L 81.251634 176.78436 
L 81.279789 176.734518 
L 81.364255 175.98689 
L 81.401795 175.98689 
L 81.505031 175.338946 
L 81.542571 175.239263 
L 81.627037 174.491635 
L 81.702118 174.441793 
L 81.795968 173.744008 
L 81.880434 173.694166 
L 81.94613 172.547804 
L 82.03998 172.44812 
L 82.143216 171.850018 
L 82.161986 171.800176 
L 82.265222 170.803339 
L 82.330918 170.803339 
L 82.434154 169.656977 
L 82.452924 169.557293 
L 82.546774 169.058875 
L 82.57493 168.959191 
L 82.659395 168.610298 
L 82.715706 168.510615 
L 82.818942 167.762987 
L 82.856482 167.762987 
L 82.950333 166.965518 
L 82.997258 166.915676 
L 83.091109 165.968681 
L 83.166189 165.868997 
L 83.269425 165.270895 
L 83.297581 165.171212 
L 83.391431 164.872161 
L 83.447742 164.772477 
L 83.522822 164.024849 
L 83.597903 163.925166 
L 83.701139 163.526431 
L 83.729294 163.476589 
L 83.83253 162.67912 
L 83.8513 162.579436 
L 83.954536 161.781967 
L 83.982691 161.682283 
L 84.057772 161.433074 
L 84.104697 161.383232 
L 84.198548 160.78513 
L 84.236088 160.735288 
L 84.329939 159.788293 
L 84.386249 159.738451 
L 84.470715 158.990824 
L 84.49887 158.990824 
L 84.602106 158.542247 
L 84.686572 158.442564 
L 84.789808 157.993987 
L 84.808578 157.993987 
L 84.902428 157.545411 
L 84.958739 157.495569 
L 85.05259 156.249523 
L 85.099515 156.149839 
L 85.202751 155.601579 
L 85.240291 155.601579 
L 85.343527 154.903793 
L 85.371682 154.853951 
L 85.446763 154.505058 
L 85.503073 154.405375 
L 85.596924 153.807273 
L 85.66262 153.757431 
L 85.747085 152.959961 
L 85.850321 152.860278 
L 85.953557 152.411701 
L 86.019252 152.312018 
L 86.122488 151.963125 
L 86.150644 151.863441 
L 86.244494 151.365023 
L 86.29142 151.265339 
L 86.394656 150.816762 
L 86.413426 150.766921 
L 86.516662 149.869768 
L 86.554202 149.770084 
L 86.657438 149.421191 
L 86.676208 149.371349 
L 86.779444 148.773247 
L 86.816984 148.673563 
L 86.92022 147.726569 
L 86.9953 147.626885 
L 87.032841 147.178308 
L 87.145462 147.078625 
L 87.248697 146.081788 
L 87.295623 145.982104 
L 87.398859 145.084951 
L 87.464554 144.985268 
L 87.558405 144.586533 
L 87.6241 144.536691 
L 87.727336 143.938589 
L 87.783647 143.838905 
L 87.868112 143.539854 
L 87.915038 143.490012 
L 87.990118 142.692543 
L 88.055814 142.642701 
L 88.130895 142.194125 
L 88.224745 142.094441 
L 88.327981 141.197288 
L 88.346751 141.147446 
L 88.449987 140.200451 
L 88.478142 140.100767 
L 88.581378 139.35314 
L 88.609533 139.253456 
L 88.712769 138.55567 
L 88.75031 138.505829 
L 88.853545 137.857885 
L 88.891086 137.808043 
L 88.994321 137.359466 
L 89.003707 137.359466 
L 89.097557 136.861048 
L 89.182023 136.761364 
L 89.285259 136.262946 
L 89.322799 136.163262 
L 89.426035 135.315951 
L 89.510501 135.216267 
L 89.613736 134.717849 
L 89.623122 134.717849 
L 89.698202 134.069905 
L 89.735742 134.069905 
L 89.838978 132.873701 
L 89.867134 132.774017 
L 89.970369 132.126073 
L 90.02668 132.02639 
L 90.111146 131.577813 
L 90.186226 131.47813 
L 90.289462 130.730502 
L 90.355157 130.630818 
L 90.458393 130.232084 
L 90.495934 130.1324 
L 90.599169 129.534298 
L 90.67425 129.434614 
L 90.768101 128.936196 
L 90.852566 128.836512 
L 90.946417 127.989201 
L 90.965187 127.989201 
L 91.068423 127.092048 
L 91.087193 127.092048 
L 91.190429 126.543788 
L 91.218584 126.543788 
L 91.32182 125.447267 
L 91.331205 125.447267 
L 91.434441 124.998691 
L 91.528292 124.899007 
L 91.631528 124.500272 
L 91.659683 124.400589 
L 91.753534 123.90217 
L 91.819229 123.802487 
L 91.91308 123.35391 
L 91.941235 123.304068 
L 92.044471 122.80565 
L 92.063241 122.755808 
L 92.128937 122.506599 
L 92.194632 122.406915 
L 92.279098 121.709129 
L 92.326023 121.609446 
L 92.401104 121.061186 
L 92.476185 120.961502 
L 92.56065 120.712293 
L 92.616961 120.612609 
L 92.710811 120.114191 
L 92.776507 120.014507 
L 92.860973 119.366563 
L 92.954823 119.316721 
L 93.048674 118.868145 
L 93.0956 118.818303 
L 93.198835 118.220201 
L 93.226991 118.220201 
L 93.330226 117.522415 
L 93.348997 117.422731 
L 93.442847 117.12368 
L 93.471003 117.073839 
L 93.574238 116.276369 
L 93.611779 116.176685 
L 93.696244 115.578583 
L 93.78071 115.4789 
L 93.883946 114.93064 
L 93.940256 114.830956 
L 94.034107 114.183012 
L 94.090418 114.083328 
L 94.165498 113.784277 
L 94.231194 113.784277 
L 94.325044 113.236017 
L 94.400125 113.136333 
L 94.484591 112.737599 
L 94.540901 112.637915 
L 94.634752 112.23918 
L 94.728603 112.139497 
L 94.831839 111.840446 
L 94.850609 111.790604 
L 94.944459 111.441711 
L 94.972615 111.441711 
L 95.075851 110.993134 
L 95.141546 110.893451 
L 95.197857 110.5944 
L 95.310477 110.494716 
L 95.404328 110.245507 
L 95.441869 110.195665 
L 95.516949 109.846772 
L 95.601415 109.747088 
L 95.704651 109.24867 
L 95.742191 109.24867 
L 95.826657 108.849935 
L 95.920507 108.750252 
L 96.004973 108.201991 
L 96.098824 108.201991 
L 96.20206 107.853099 
L 96.248985 107.753415 
L 96.342836 107.205155 
L 96.389761 107.105471 
L 96.464842 106.706736 
L 96.511767 106.706736 
L 96.615003 106.058792 
L 96.746394 106.008951 
L 96.84963 105.759741 
L 96.92471 105.660058 
L 96.990406 105.311165 
L 97.065487 105.211481 
L 97.149952 105.061956 
L 97.196878 105.012114 
L 97.300113 104.762905 
L 97.347039 104.663221 
L 97.375194 104.36417 
L 97.53474 104.264486 
L 97.637976 103.915593 
L 97.806908 103.81591 
L 97.872603 103.616542 
L 97.928914 103.566701 
L 98.032149 103.068282 
L 98.126 102.968599 
L 98.126 102.918757 
L 98.276161 102.819073 
L 98.332472 102.520022 
L 98.398167 102.520022 
L 98.501403 101.92192 
L 98.623409 101.822236 
L 98.707875 101.423502 
L 98.764185 101.323818 
L 98.858036 100.974925 
L 98.876806 100.974925 
L 98.980042 100.476507 
L 99.017582 100.426665 
L 99.092663 100.02793 
L 99.224054 99.928246 
L 99.317905 99.47967 
L 99.468066 99.379986 
L 99.561917 99.080935 
L 99.627612 98.981252 
L 99.655768 98.881568 
L 99.759003 98.781884 
L 99.815314 98.582517 
L 99.909165 98.482833 
L 99.97486 97.934573 
L 100.087481 97.884731 
L 100.162562 97.58568 
L 100.265797 97.535838 
L 100.369033 97.087262 
L 100.387803 97.03742 
L 100.491039 96.638685 
L 100.52858 96.588843 
L 100.631815 96.23995 
L 100.725666 96.190109 
L 100.828902 95.791374 
L 101.016603 95.69169 
L 101.101069 95.043746 
L 101.185535 94.993905 
L 101.279386 94.445644 
L 101.335696 94.395803 
L 101.420162 94.146593 
L 101.523398 94.04691 
L 101.617248 93.498649 
L 101.701714 93.398966 
L 101.795565 93.099915 
L 101.833105 93.000231 
L 101.898801 92.751022 
L 102.011422 92.751022 
L 102.114657 92.252603 
L 102.152198 92.252603 
L 102.236663 92.003394 
L 102.283589 91.903711 
L 102.339899 91.60466 
L 102.536986 91.504976 
L 102.630837 91.056399 
L 102.668377 91.056399 
L 102.762228 90.707507 
L 102.827923 90.657665 
L 102.921774 90.358614 
L 102.978084 90.25893 
L 103.071935 89.810353 
L 103.109475 89.760512 
L 103.193941 89.311935 
L 103.400413 89.212251 
L 103.484878 88.763675 
L 103.597499 88.663991 
L 103.644425 88.36494 
L 103.766431 88.265256 
L 103.869666 88.016047 
L 103.916592 87.916364 
L 103.991672 87.617313 
L 104.094908 87.517629 
L 104.179374 87.26842 
L 104.26384 87.218578 
L 104.35769 86.969369 
L 104.395231 86.919527 
L 104.451541 86.570634 
L 104.582932 86.47095 
L 104.676783 85.872848 
L 104.714323 85.773165 
L 104.817559 85.424272 
L 104.87387 85.324588 
L 104.920795 85.025537 
L 105.108496 84.925853 
L 105.183577 84.726486 
L 105.277428 84.626802 
L 105.352508 84.27791 
L 105.408819 84.178226 
L 105.474514 83.978858 
L 105.55898 83.879175 
L 105.634061 83.729649 
L 105.849917 83.629966 
L 105.943768 83.330915 
L 106.037619 83.231231 
L 106.1127 83.031864 
L 106.16901 82.93218 
L 106.215935 82.682971 
L 106.431792 82.583287 
L 106.535028 82.284236 
L 106.628879 82.184552 
L 106.666419 81.835659 
L 106.929201 81.735976 
L 106.994897 81.337241 
L 107.210753 81.237557 
L 107.295219 80.888665 
L 107.40784 80.788981 
L 107.501691 80.639455 
L 107.651852 80.539772 
L 107.755088 80.240721 
L 107.877094 80.141037 
L 107.970945 79.841986 
L 108.03664 79.742302 
L 108.05541 79.642619 
L 108.149261 79.642619 
L 108.205571 79.393409 
L 108.299422 79.293726 
L 108.374503 78.894991 
L 108.440198 78.845149 
L 108.524664 78.59594 
L 108.618515 78.496256 
L 108.64667 78.396573 
L 108.787446 78.296889 
L 108.871912 78.097522 
L 108.975148 77.997838 
L 109.050228 77.798471 
L 109.209775 77.698787 
L 109.303625 77.449578 
L 109.341166 77.349894 
L 109.444401 77.200369 
L 109.754109 77.100685 
L 109.772879 77.001001 
L 109.8855 77.001001 
L 109.969966 76.751792 
L 110.195208 76.652108 
L 110.204593 76.402899 
L 110.420449 76.303216 
L 110.523685 76.054006 
L 110.767697 75.954323 
L 110.870933 75.754955 
L 111.293261 75.655272 
L 111.396497 75.406062 
L 111.480963 75.306379 
L 111.584199 74.80796 
L 111.724975 74.708277 
L 111.73436 74.608593 
L 112.006527 74.508909 
L 112.062838 74.359384 
L 112.156688 74.2597 
L 112.156688 74.209858 
L 112.372545 74.160017 
L 112.466396 73.860965 
L 112.569632 73.761282 
L 112.635327 73.462231 
L 112.823029 73.362547 
L 112.869954 73.262863 
L 113.095196 73.16318 
L 113.198432 72.864129 
L 113.292283 72.814287 
L 113.395518 72.36571 
L 113.508139 72.266027 
L 113.508139 72.216185 
L 113.883542 72.116501 
L 113.968008 71.966976 
L 114.090014 71.867292 
L 114.183865 71.667925 
L 114.399721 71.568241 
L 114.502957 71.319032 
L 114.78451 71.219348 
L 114.850205 71.019981 
L 114.953441 70.970139 
L 115.037907 70.671088 
L 115.310074 70.571404 
L 115.403925 70.372037 
L 115.788713 70.272353 
L 115.854408 70.17267 
L 116.04211 70.072986 
L 116.145346 69.92346 
L 116.333047 69.823777 
L 116.361202 69.724093 
L 116.633369 69.624409 
L 116.633369 69.574567 
L 116.924307 69.474884 
L 116.924307 69.425042 
L 117.224629 69.325358 
L 117.29971 69.125991 
L 117.384176 69.076149 
L 117.459256 68.926624 
L 117.693883 68.82694 
L 117.693883 68.777098 
L 118.069286 68.677414 
L 118.144367 68.328522 
L 118.256988 68.228838 
L 118.294528 68.129154 
L 118.472844 68.02947 
L 118.547925 67.879945 
L 118.623006 67.780261 
L 118.669931 67.680578 
L 118.904558 67.580894 
L 118.979638 67.331685 
L 119.092259 67.232001 
L 119.195495 67.032634 
L 119.20488 67.032634 
L 119.308116 66.633899 
L 119.467662 66.534215 
L 119.523973 66.185323 
L 119.683519 66.135481 
L 119.77737 65.786588 
L 120.115233 65.686904 
L 120.134003 65.58722 
L 120.340474 65.487537 
L 120.40617 65.338011 
L 120.659567 65.238328 
L 120.687722 65.088802 
L 120.922349 65.088802 
L 120.931734 64.889435 
L 121.222671 64.789751 
L 121.260212 64.590384 
L 121.400988 64.4907 
L 121.429143 64.391016 
L 121.579304 64.291333 
L 121.68254 64.042124 
L 121.889012 63.94244 
L 121.973478 63.792914 
L 122.048558 63.693231 
L 122.086098 63.493863 
L 122.189334 63.39418 
L 122.245645 63.244654 
L 122.442731 63.14497 
L 122.508427 62.995445 
L 122.658588 62.895761 
L 122.733669 62.796078 
L 122.88383 62.696394 
L 122.94014 62.59671 
L 123.015221 62.546868 
L 123.015221 62.447185 
L 123.240463 62.347501 
L 123.259233 62.247817 
L 123.400009 62.148134 
L 123.400009 62.098292 
L 123.672176 61.998608 
L 123.719102 61.849083 
L 123.831723 61.749399 
L 123.831723 61.699557 
L 124.066349 61.599873 
L 124.1602 61.300822 
L 124.282206 61.201139 
L 124.282206 61.151297 
L 124.516833 61.051613 
L 124.610684 60.902088 
L 124.685764 60.852246 
L 124.77023 60.652879 
L 125.051782 60.553195 
L 125.089323 60.453511 
L 125.427185 60.353828 
L 125.521036 60.254144 
L 125.633657 60.15446 
L 125.699353 60.054777 
L 125.821359 59.955093 
L 125.915209 59.6062 
L 126.00906 59.506516 
L 126.00906 59.456674 
L 126.384463 59.356991 
L 126.487699 59.207465 
L 126.61909 59.107782 
L 126.61909 59.05794 
L 126.816177 58.958256 
L 126.853717 58.758889 
L 127.097729 58.659205 
L 127.182195 58.50968 
L 127.28543 58.409996 
L 127.341741 58.160787 
L 127.576368 58.061103 
L 127.595138 57.961419 
L 127.923616 57.861736 
L 127.979926 57.662368 
L 128.421025 57.562685 
L 128.48672 57.463001 
L 128.683807 57.363317 
L 128.702577 57.263634 
L 128.852738 57.213792 
L 128.955974 57.064266 
L 129.087365 56.964583 
L 129.162446 56.765215 
L 129.378302 56.665532 
L 129.481538 56.516006 
L 129.631699 56.416322 
L 129.716165 56.167113 
L 129.800631 56.06743 
L 129.800631 56.017588 
L 129.978947 55.917904 
L 130.082183 55.718537 
L 130.157264 55.618853 
L 130.213574 55.369644 
L 130.401276 55.26996 
L 130.504511 55.120435 
L 130.635902 55.020751 
L 130.664058 54.921067 
L 131.142697 54.821384 
L 131.142697 54.771542 
L 131.358553 54.671858 
L 131.358553 54.622016 
L 131.696416 54.522333 
L 131.762112 54.422649 
L 131.968583 54.322965 
L 132.071819 53.874389 
L 132.212595 53.774705 
L 132.297061 53.575338 
L 132.531688 53.475654 
L 132.531688 53.425812 
L 132.935246 53.326128 
L 132.982171 53.076919 
L 133.141718 52.977236 
L 133.179258 52.82771 
L 133.366959 52.728026 
L 133.366959 52.678185 
L 133.573431 52.578501 
L 133.592201 52.478817 
L 134.117766 52.379134 
L 134.192846 52.179766 
L 134.709025 52.080083 
L 134.765336 51.980399 
L 135.121969 51.880715 
L 135.140739 51.781031 
L 135.34721 51.681348 
L 135.34721 51.631506 
L 135.86339 51.531822 
L 135.93847 51.382297 
L 136.191867 51.282613 
L 136.285718 51.133088 
L 136.576655 51.033404 
L 136.623581 50.883878 
L 136.726817 50.834037 
L 136.801897 50.684511 
L 137.045909 50.584827 
L 137.045909 50.534986 
L 138.050112 50.435302 
L 138.050112 50.38546 
L 138.369205 50.285776 
L 138.41613 50.136251 
L 138.528751 50.036567 
L 138.566291 49.936884 
L 139.04493 49.8372 
L 139.04493 49.787358 
L 139.401563 49.687674 
L 139.486029 49.587991 
L 139.65496 49.488307 
L 139.65496 49.438465 
L 140.114829 49.338781 
L 140.114829 49.28894 
L 140.762399 49.189256 
L 140.762399 49.139414 
L 141.287963 49.03973 
L 141.391199 48.940047 
L 141.672751 48.840363 
L 141.682137 48.640996 
L 142.010614 48.541312 
L 142.104465 48.391787 
L 142.470483 48.292103 
L 142.526793 48.042894 
L 142.967892 47.94321 
L 143.014817 47.843526 
L 143.240059 47.743843 
L 143.240059 47.644159 
L 143.793779 47.544475 
L 143.793779 47.494633 
L 144.122256 47.39495 
L 144.178567 47.245424 
L 144.469504 47.145741 
L 144.469504 47.095899 
L 145.098304 46.996215 
L 145.173385 46.896531 
L 145.558173 46.796848 
L 145.558173 46.747006 
L 146.290209 46.647322 
L 146.337134 46.497797 
L 146.965934 46.398113 
L 147.041015 46.298429 
L 147.6792 46.198746 
L 147.6792 46.148904 
L 147.941982 46.099062 
L 148.045218 45.800011 
L 148.139069 45.700327 
L 148.139069 45.650485 
L 148.739713 45.550802 
L 148.739713 45.50096 
L 148.983725 45.401276 
L 148.983725 45.351434 
L 149.377899 45.251751 
L 149.415439 45.152067 
L 149.574985 45.052383 
L 149.650066 44.9527 
L 149.884693 44.853016 
L 149.884693 44.803174 
L 150.485338 44.703491 
L 150.485338 44.653649 
L 150.935821 44.553965 
L 150.982747 44.454281 
L 151.292454 44.354598 
L 151.292454 44.304756 
L 151.592776 44.205072 
L 151.639702 44.055547 
L 152.099571 43.955863 
L 152.099571 43.906021 
L 152.409278 43.806338 
L 152.493744 43.656812 
L 152.859762 43.557128 
L 152.934842 43.407603 
L 153.24455 43.307919 
L 153.30086 43.208235 
L 153.695033 43.108552 
L 153.695033 43.05871 
L 154.605386 42.959026 
L 154.605386 42.909184 
L 154.915093 42.809501 
L 154.915093 42.759659 
L 155.506353 42.659975 
L 155.506353 42.610133 
L 155.731595 42.51045 
L 155.816061 42.410766 
L 156.041302 42.311082 
L 156.041302 42.261241 
L 156.782723 42.161557 
L 156.829649 42.061873 
L 157.148741 41.96219 
L 157.242592 41.862506 
L 157.862007 41.762822 
L 157.862007 41.71298 
L 158.331261 41.613297 
L 158.406341 41.513613 
L 158.819285 41.413929 
L 158.819285 41.364087 
L 159.232228 41.264404 
L 159.241613 41.16472 
L 159.767177 41.065036 
L 159.870413 40.965353 
L 160.273972 40.865669 
L 160.339667 40.716144 
L 161.212479 40.61646 
L 161.212479 40.566618 
L 161.944515 40.466934 
L 161.944515 40.417093 
L 162.432539 40.317409 
L 162.441924 40.217725 
L 163.098879 40.118042 
L 163.13642 40.018358 
L 163.708909 39.918674 
L 163.708909 39.868832 
L 164.206318 39.769149 
L 164.234473 39.669465 
L 165.510844 39.569781 
L 165.510844 39.519939 
L 166.055178 39.420256 
L 166.120874 39.320572 
L 166.805984 39.220888 
L 166.899835 39.021521 
L 167.294008 38.921837 
L 167.294008 38.871996 
L 167.46294 38.772312 
L 167.46294 38.72247 
L 168.79562 38.622786 
L 168.889471 38.473261 
L 169.339955 38.373577 
L 169.377495 38.273894 
L 169.874904 38.17421 
L 169.874904 38.074526 
L 170.68202 37.974843 
L 170.68202 37.925001 
L 171.076194 37.825317 
L 171.076194 37.775475 
L 172.258713 37.725633 
L 172.258713 37.62595 
L 172.615346 37.526266 
L 172.615346 37.476424 
L 173.797866 37.37674 
L 173.797866 37.326899 
L 174.726988 37.227215 
L 174.726988 37.177373 
L 175.787502 37.077689 
L 175.787502 37.027848 
L 176.20983 36.928164 
L 176.24737 36.82848 
L 176.575848 36.728797 
L 176.575848 36.678955 
L 177.608206 36.579271 
L 177.655132 36.479587 
L 178.03992 36.379904 
L 178.03992 36.330062 
L 178.565484 36.230378 
L 178.565484 36.180536 
L 179.87001 36.080853 
L 179.92632 35.981169 
L 180.996219 35.881485 
L 180.996219 35.831644 
L 181.362237 35.73196 
L 181.362237 35.682118 
L 182.094273 35.582434 
L 182.094273 35.532592 
L 182.826308 35.432909 
L 182.920159 35.333225 
L 183.764816 35.233541 
L 183.764816 35.1837 
L 184.440541 35.084016 
L 184.440541 35.034174 
L 186.674189 34.93449 
L 186.777425 34.834807 
L 187.443766 34.735123 
L 187.443766 34.685281 
L 188.532434 34.585598 
L 188.63567 34.485914 
L 189.499097 34.38623 
L 189.499097 34.336388 
L 190.052817 34.236705 
L 190.052817 34.186863 
L 191.03825 34.087179 
L 191.03825 34.037337 
L 191.610739 33.937654 
L 191.657665 33.83797 
L 192.877725 33.738286 
L 192.877725 33.688445 
L 193.422059 33.588761 
L 193.506525 33.489077 
L 194.904901 33.389393 
L 194.904901 33.339552 
L 197.044698 33.239868 
L 197.044698 33.190026 
L 197.767349 33.090342 
L 197.767349 33.040501 
L 199.222036 32.940817 
L 199.222036 32.890975 
L 199.907146 32.791291 
L 199.907146 32.74145 
L 201.314908 32.641766 
L 201.343063 32.542082 
L 204.355672 32.442399 
L 204.355672 32.392557 
L 206.504854 32.292873 
L 206.598705 32.193189 
L 207.84692 32.093506 
L 207.84692 32.043664 
L 209.442383 31.94398 
L 209.442383 31.894138 
L 213.111948 31.794455 
L 213.111948 31.744613 
L 213.599972 31.644929 
L 213.599972 31.595087 
L 214.68864 31.495404 
L 214.726181 31.39572 
L 215.974396 31.296036 
L 215.974396 31.246194 
L 217.870181 31.146511 
L 217.870181 31.096669 
L 220.000593 30.996985 
L 220.038134 30.897302 
L 222.243626 30.797618 
L 222.337477 30.697934 
L 222.966277 30.598251 
L 223.013203 30.498567 
L 224.880833 30.398883 
L 224.937143 30.2992 
L 228.597323 30.199516 
L 228.597323 30.149674 
L 231.38469 30.04999 
L 231.38469 30.000149 
L 232.980153 29.900465 
L 232.980153 29.850623 
L 234.41607 29.750939 
L 234.41607 29.701098 
L 235.251341 29.601414 
L 235.251341 29.551572 
L 235.67367 29.451888 
L 235.67367 29.402046 
L 237.053276 29.302363 
L 237.053276 29.252521 
L 238.442267 29.152837 
L 238.451652 29.053154 
L 241.201479 28.95347 
L 241.29533 28.853786 
L 243.172345 28.754103 
L 243.172345 28.704261 
L 244.43933 28.604577 
L 244.43933 28.554735 
L 246.21311 28.455052 
L 246.21311 28.40521 
L 249.056788 28.305526 
L 249.056788 28.255684 
L 251.384287 28.156001 
L 251.384287 28.106159 
L 252.219558 28.006475 
L 252.219558 27.956633 
L 253.0736 27.85695 
L 253.0736 27.807108 
L 253.439618 27.707424 
L 253.439618 27.657582 
L 254.631523 27.557899 
L 254.631523 27.508057 
L 258.714031 27.408373 
L 258.723416 27.308689 
L 262.214664 27.209006 
L 262.214664 27.159164 
L 265.368049 27.05948 
L 265.368049 27.009638 
L 267.911405 26.909955 
L 267.911405 26.860113 
L 269.337936 26.760429 
L 269.337936 26.710587 
L 270.154438 26.610904 
L 270.154438 26.561062 
L 270.698772 26.461378 
L 270.698772 26.411536 
L 271.740516 26.361694 
L 271.740516 26.262011 
L 275.053447 26.162327 
L 275.053447 26.112485 
L 279.745985 26.012802 
L 279.745985 25.96296 
L 285.330105 25.863276 
L 285.330105 25.813434 
L 291.205163 25.713751 
L 291.205163 25.663909 
L 293.786059 25.564225 
L 293.786059 25.514383 
L 298.075038 25.414699 
L 298.075038 25.364858 
L 301.050107 25.265174 
L 301.050107 25.215332 
L 302.823886 25.115648 
L 302.823886 25.065807 
L 310.031625 24.966123 
L 310.031625 24.916281 
L 316.676258 24.816597 
L 316.676258 24.766756 
L 319.93288 24.667072 
L 319.93288 24.61723 
L 321.847435 24.517546 
L 321.89436 24.417863 
L 327.394015 24.318179 
L 327.394015 24.268337 
L 328.632845 24.168654 
L 328.632845 24.118812 
L 331.063579 24.019128 
L 331.063579 23.969286 
L 336.403687 23.869603 
L 336.403687 23.819761 
L 341.837646 23.720077 
L 341.837646 23.670235 
L 345.741838 23.570552 
L 345.741838 23.52071 
L 357.632729 23.421026 
L 357.632729 23.371184 
L 370.968921 23.2715 
L 370.968921 23.221659 
L 387.477269 23.121975 
L 387.477269 23.072133 
L 424.276151 22.972449 
L 424.276151 22.922608 
L 439.076416 22.822924 
L 439.076416 22.773082 
L 444.341443 22.673398 
L 444.341443 22.623557 
L 472.994079 22.523873 
L 472.994079 22.474031 
L 483.026725 22.374347 
L 483.026725 22.324506 
L 503.777128 22.224822 
L 503.777128 22.17498 
L 557.844549 22.075296 
L 557.844549 22.025455 
L 576.417614 22.025455 
L 576.417614 22.025455 
" style="fill:none;stroke:#0000ff;stroke-dasharray:1.5,2.475;stroke-dashoffset:0;stroke-width:1.5;"/>
   </g>
   <g id="line2d_14">
    <path clip-path="url(#p393dc8a27a)" d="M 69.144886 318.534545 
L 69.144886 314.547198 
L 69.144886 307.419816 
L 69.144886 299.295596 
L 69.144886 289.028178 
L 69.144886 280.305856 
L 69.144886 271.234642 
L 69.144886 262.51232 
L 69.144886 253.092213 
L 69.144886 243.373055 
L 69.144886 234.600891 
L 69.154271 224.981417 
L 69.154271 217.156248 
L 69.163657 209.779656 
L 69.163657 202.702115 
L 69.163657 196.422044 
L 69.163657 189.643554 
L 69.163657 183.612692 
L 69.163657 177.282778 
L 69.163657 172.099227 
L 69.173042 166.865834 
L 69.182427 161.034339 
L 69.191812 156.000314 
L 69.191812 150.667237 
L 69.191812 145.832579 
L 69.191812 141.197288 
L 69.191812 136.761364 
L 69.219967 132.774017 
L 69.219967 129.185405 
L 69.219967 124.948849 
L 69.219967 121.45992 
L 69.219967 118.170359 
L 69.238737 114.880798 
L 69.238737 111.342027 
L 69.257507 108.201991 
L 69.266892 105.410849 
L 69.285662 102.769231 
L 69.304433 99.778721 
L 69.313818 97.087262 
L 69.323203 94.794537 
L 69.388898 92.003394 
L 69.426439 89.012884 
L 69.445209 85.424272 
L 69.510904 83.380756 
L 69.53906 81.088032 
L 69.5766 78.546098 
L 69.642295 76.751792 
L 69.698606 74.359384 
L 69.811227 72.415552 
L 69.876922 70.820613 
L 69.952003 68.876782 
L 70.083394 67.232001 
L 70.22417 65.786588 
L 70.336791 64.042124 
L 70.411872 61.948766 
L 70.562033 60.852246 
L 70.684039 59.107782 
L 70.85297 57.662368 
L 71.050057 56.366481 
L 71.247143 54.921067 
L 71.453615 53.724863 
L 71.575621 52.129924 
L 71.772708 50.684511 
L 72.007334 49.538149 
L 72.241961 47.94321 
L 72.551669 46.896531 
L 72.833221 46.099062 
L 73.208624 44.902858 
L 73.612182 43.856179 
L 73.94066 42.410766 
L 74.428684 41.314246 
L 74.916708 40.566618 
L 75.432887 39.519939 
L 75.939681 38.822154 
L 76.446475 38.323735 
L 77.206666 37.576108 
L 77.835466 36.678955 
L 78.680123 35.831644 
L 79.581091 34.436072 
L 80.500828 33.439235 
L 81.842894 32.841133 
L 83.24127 31.993822 
L 84.761652 31.146511 
L 86.469736 30.548409 
L 88.637689 29.850623 
L 90.73056 29.451888 
L 93.302071 28.903628 
L 96.389761 28.355368 
L 99.852854 27.508057 
L 103.63504 26.959796 
L 108.402658 26.51122 
L 113.433059 25.913118 
L 119.749215 25.315016 
L 127.548213 24.766756 
L 137.242996 24.019128 
L 149.60314 23.52071 
L 165.182366 23.121975 
L 186.148625 22.822924 
L 217.748175 22.424189 
L 266.01562 22.17498 
L 353.428215 22.125138 
L 576.417614 22.025455 
" style="fill:none;stroke:#1f77b4;stroke-linecap:square;stroke-width:1.5;"/>
   </g>
   <g id="patch_3">
    <path d="M 43.78125 333.36 
L 43.78125 7.2 
" style="fill:none;stroke:#000000;stroke-linecap:square;stroke-linejoin:miter;stroke-width:0.8;"/>
   </g>
   <g id="patch_4">
    <path d="M 601.78125 333.36 
L 601.78125 7.2 
" style="fill:none;stroke:#000000;stroke-linecap:square;stroke-linejoin:miter;stroke-width:0.8;"/>
   </g>
   <g id="patch_5">
    <path d="M 43.78125 333.36 
L 601.78125 333.36 
" style="fill:none;stroke:#000000;stroke-linecap:square;stroke-linejoin:miter;stroke-width:0.8;"/>
   </g>
   <g id="patch_6">
    <path d="M 43.78125 7.2 
L 601.78125 7.2 
" style="fill:none;stroke:#000000;stroke-linecap:square;stroke-linejoin:miter;stroke-width:0.8;"/>
   </g>
   <g id="legend_1">
    <g id="patch_7">
     <path d="M 487.529688 328.36 
L 594.78125 328.36 
Q 596.78125 328.36 596.78125 326.36 
L 596.78125 298.00375 
Q 596.78125 296.00375 594.78125 296.00375 
L 487.529688 296.00375 
Q 485.529688 296.00375 485.529688 298.00375 
L 485.529688 326.36 
Q 485.529688 328.36 487.529688 328.36 
z
" style="fill:#ffffff;opacity:0.8;stroke:#cccccc;stroke-linejoin:miter;"/>
    </g>
    <g id="line2d_15">
     <path d="M 489.529688 304.102188 
L 509.529688 304.102188 
" style="fill:none;stroke:#0000ff;stroke-dasharray:1.5,2.475;stroke-dashoffset:0;stroke-width:1.5;"/>
    </g>
    <g id="line2d_16"/>
    <g id="text_15">
     <!-- SGD -->
     <g transform="translate(517.529688 307.602188)scale(0.1 -0.1)">
      <defs>
       <path d="M 53.515625 70.515625 
L 53.515625 60.890625 
Q 47.90625 63.578125 42.921875 64.890625 
Q 37.9375 66.21875 33.296875 66.21875 
Q 25.25 66.21875 20.875 63.09375 
Q 16.5 59.96875 16.5 54.203125 
Q 16.5 49.359375 19.40625 46.890625 
Q 22.3125 44.4375 30.421875 42.921875 
L 36.375 41.703125 
Q 47.40625 39.59375 52.65625 34.296875 
Q 57.90625 29 57.90625 20.125 
Q 57.90625 9.515625 50.796875 4.046875 
Q 43.703125 -1.421875 29.984375 -1.421875 
Q 24.8125 -1.421875 18.96875 -0.25 
Q 13.140625 0.921875 6.890625 3.21875 
L 6.890625 13.375 
Q 12.890625 10.015625 18.65625 8.296875 
Q 24.421875 6.59375 29.984375 6.59375 
Q 38.421875 6.59375 43.015625 9.90625 
Q 47.609375 13.234375 47.609375 19.390625 
Q 47.609375 24.75 44.3125 27.78125 
Q 41.015625 30.8125 33.5 32.328125 
L 27.484375 33.5 
Q 16.453125 35.6875 11.515625 40.375 
Q 6.59375 45.0625 6.59375 53.421875 
Q 6.59375 63.09375 13.40625 68.65625 
Q 20.21875 74.21875 32.171875 74.21875 
Q 37.3125 74.21875 42.625 73.28125 
Q 47.953125 72.359375 53.515625 70.515625 
z
" id="DejaVuSans-83"/>
       <path d="M 59.515625 10.40625 
L 59.515625 29.984375 
L 43.40625 29.984375 
L 43.40625 38.09375 
L 69.28125 38.09375 
L 69.28125 6.78125 
Q 63.578125 2.734375 56.6875 0.65625 
Q 49.8125 -1.421875 42 -1.421875 
Q 24.90625 -1.421875 15.25 8.5625 
Q 5.609375 18.5625 5.609375 36.375 
Q 5.609375 54.25 15.25 64.234375 
Q 24.90625 74.21875 42 74.21875 
Q 49.125 74.21875 55.546875 72.453125 
Q 61.96875 70.703125 67.390625 67.28125 
L 67.390625 56.78125 
Q 61.921875 61.421875 55.765625 63.765625 
Q 49.609375 66.109375 42.828125 66.109375 
Q 29.4375 66.109375 22.71875 58.640625 
Q 16.015625 51.171875 16.015625 36.375 
Q 16.015625 21.625 22.71875 14.15625 
Q 29.4375 6.6875 42.828125 6.6875 
Q 48.046875 6.6875 52.140625 7.59375 
Q 56.25 8.5 59.515625 10.40625 
z
" id="DejaVuSans-71"/>
       <path d="M 19.671875 64.796875 
L 19.671875 8.109375 
L 31.59375 8.109375 
Q 46.6875 8.109375 53.6875 14.9375 
Q 60.6875 21.78125 60.6875 36.53125 
Q 60.6875 51.171875 53.6875 57.984375 
Q 46.6875 64.796875 31.59375 64.796875 
z
M 9.8125 72.90625 
L 30.078125 72.90625 
Q 51.265625 72.90625 61.171875 64.09375 
Q 71.09375 55.28125 71.09375 36.53125 
Q 71.09375 17.671875 61.125 8.828125 
Q 51.171875 0 30.078125 0 
L 9.8125 0 
z
" id="DejaVuSans-68"/>
      </defs>
      <use xlink:href="#DejaVuSans-83"/>
      <use x="63.476562" xlink:href="#DejaVuSans-71"/>
      <use x="140.966797" xlink:href="#DejaVuSans-68"/>
     </g>
    </g>
    <g id="line2d_17">
     <path d="M 489.529688 318.780312 
L 509.529688 318.780312 
" style="fill:none;stroke:#1f77b4;stroke-linecap:square;stroke-width:1.5;"/>
    </g>
    <g id="line2d_18"/>
    <g id="text_16">
     <!-- Random Forest -->
     <g transform="translate(517.529688 322.280312)scale(0.1 -0.1)">
      <defs>
       <path d="M 54.890625 33.015625 
L 54.890625 0 
L 45.90625 0 
L 45.90625 32.71875 
Q 45.90625 40.484375 42.875 44.328125 
Q 39.84375 48.1875 33.796875 48.1875 
Q 26.515625 48.1875 22.3125 43.546875 
Q 18.109375 38.921875 18.109375 30.90625 
L 18.109375 0 
L 9.078125 0 
L 9.078125 54.6875 
L 18.109375 54.6875 
L 18.109375 46.1875 
Q 21.34375 51.125 25.703125 53.5625 
Q 30.078125 56 35.796875 56 
Q 45.21875 56 50.046875 50.171875 
Q 54.890625 44.34375 54.890625 33.015625 
z
" id="DejaVuSans-110"/>
       <path d="M 45.40625 46.390625 
L 45.40625 75.984375 
L 54.390625 75.984375 
L 54.390625 0 
L 45.40625 0 
L 45.40625 8.203125 
Q 42.578125 3.328125 38.25 0.953125 
Q 33.9375 -1.421875 27.875 -1.421875 
Q 17.96875 -1.421875 11.734375 6.484375 
Q 5.515625 14.40625 5.515625 27.296875 
Q 5.515625 40.1875 11.734375 48.09375 
Q 17.96875 56 27.875 56 
Q 33.9375 56 38.25 53.625 
Q 42.578125 51.265625 45.40625 46.390625 
z
M 14.796875 27.296875 
Q 14.796875 17.390625 18.875 11.75 
Q 22.953125 6.109375 30.078125 6.109375 
Q 37.203125 6.109375 41.296875 11.75 
Q 45.40625 17.390625 45.40625 27.296875 
Q 45.40625 37.203125 41.296875 42.84375 
Q 37.203125 48.484375 30.078125 48.484375 
Q 22.953125 48.484375 18.875 42.84375 
Q 14.796875 37.203125 14.796875 27.296875 
z
" id="DejaVuSans-100"/>
       <path d="M 52 44.1875 
Q 55.375 50.25 60.0625 53.125 
Q 64.75 56 71.09375 56 
Q 79.640625 56 84.28125 50.015625 
Q 88.921875 44.046875 88.921875 33.015625 
L 88.921875 0 
L 79.890625 0 
L 79.890625 32.71875 
Q 79.890625 40.578125 77.09375 44.375 
Q 74.3125 48.1875 68.609375 48.1875 
Q 61.625 48.1875 57.5625 43.546875 
Q 53.515625 38.921875 53.515625 30.90625 
L 53.515625 0 
L 44.484375 0 
L 44.484375 32.71875 
Q 44.484375 40.625 41.703125 44.40625 
Q 38.921875 48.1875 33.109375 48.1875 
Q 26.21875 48.1875 22.15625 43.53125 
Q 18.109375 38.875 18.109375 30.90625 
L 18.109375 0 
L 9.078125 0 
L 9.078125 54.6875 
L 18.109375 54.6875 
L 18.109375 46.1875 
Q 21.1875 51.21875 25.484375 53.609375 
Q 29.78125 56 35.6875 56 
Q 41.65625 56 45.828125 52.96875 
Q 50 49.953125 52 44.1875 
z
" id="DejaVuSans-109"/>
      </defs>
      <use xlink:href="#DejaVuSans-82"/>
      <use x="67.232422" xlink:href="#DejaVuSans-97"/>
      <use x="128.511719" xlink:href="#DejaVuSans-110"/>
      <use x="191.890625" xlink:href="#DejaVuSans-100"/>
      <use x="255.367188" xlink:href="#DejaVuSans-111"/>
      <use x="316.548828" xlink:href="#DejaVuSans-109"/>
      <use x="413.960938" xlink:href="#DejaVuSans-32"/>
      <use x="445.748047" xlink:href="#DejaVuSans-70"/>
      <use x="499.642578" xlink:href="#DejaVuSans-111"/>
      <use x="560.824219" xlink:href="#DejaVuSans-114"/>
      <use x="599.6875" xlink:href="#DejaVuSans-101"/>
      <use x="661.210938" xlink:href="#DejaVuSans-115"/>
      <use x="713.310547" xlink:href="#DejaVuSans-116"/>
     </g>
    </g>
   </g>
  </g>
 </g>
 <defs>
  <clipPath id="p393dc8a27a">
   <rect height="326.16" width="558" x="43.78125" y="7.2"/>
  </clipPath>
 </defs>
</svg>
