<?xml version="1.0" encoding="utf-8" standalone="no"?>
<!DOCTYPE svg PUBLIC "-//W3C//DTD SVG 1.1//EN"
  "http://www.w3.org/Graphics/SVG/1.1/DTD/svg11.dtd">
<!-- Created with matplotlib (https://matplotlib.org/) -->
<svg height="345.288262pt" version="1.1" viewBox="0 0 374.084183 345.288262" width="374.084183pt" xmlns="http://www.w3.org/2000/svg" xmlns:xlink="http://www.w3.org/1999/xlink">
 <metadata>
  <rdf:RDF xmlns:cc="http://creativecommons.org/ns#" xmlns:dc="http://purl.org/dc/elements/1.1/" xmlns:rdf="http://www.w3.org/1999/02/22-rdf-syntax-ns#">
   <cc:Work>
    <dc:type rdf:resource="http://purl.org/dc/dcmitype/StillImage"/>
    <dc:date>2020-11-15T23:37:48.198350</dc:date>
    <dc:format>image/svg+xml</dc:format>
    <dc:creator>
     <cc:Agent>
      <dc:title>Matplotlib v3.3.2, https://matplotlib.org/</dc:title>
     </cc:Agent>
    </dc:creator>
   </cc:Work>
  </rdf:RDF>
 </metadata>
 <defs>
  <style type="text/css">*{stroke-linecap:butt;stroke-linejoin:round;}</style>
 </defs>
 <g id="figure_1">
  <g id="patch_1">
   <path d="M 0 345.288262 
L 374.084183 345.288262 
L 374.084183 0 
L 0 0 
z
" style="fill:none;"/>
  </g>
  <g id="patch_2">
   <path d="M 7.2 333.36 
L 333.36 333.36 
L 333.36 7.2 
L 7.2 7.2 
z
" style="fill:#ffffff;"/>
  </g>
  <g id="pane3d_1">
   <g id="patch_3">
    <path d="M 31.827329 252.939397 
L 139.536013 162.655842 
L 138.038759 32.450817 
L 25.17566 114.813166 
" style="fill:#f2f2f2;opacity:0.5;stroke:#f2f2f2;stroke-linejoin:miter;"/>
   </g>
  </g>
  <g id="pane3d_2">
   <g id="patch_4">
    <path d="M 139.536013 162.655842 
L 312.37002 212.891864 
L 318.537857 78.202076 
L 138.038759 32.450817 
" style="fill:#e6e6e6;opacity:0.5;stroke:#e6e6e6;stroke-linejoin:miter;"/>
   </g>
  </g>
  <g id="pane3d_3">
   <g id="patch_5">
    <path d="M 31.827329 252.939397 
L 215.039818 312.776595 
L 312.37002 212.891864 
L 139.536013 162.655842 
" style="fill:#ececec;opacity:0.5;stroke:#ececec;stroke-linejoin:miter;"/>
   </g>
  </g>
  <g id="axis3d_1">
   <g id="line2d_1">
    <path d="M 31.827329 252.939397 
L 215.039818 312.776595 
" style="fill:none;stroke:#000000;stroke-linecap:square;stroke-width:0.8;"/>
   </g>
   <g id="text_1">
    <!-- Petal length -->
    <g transform="translate(60.904466 307.321062)rotate(-341.912962)scale(0.15 -0.15)">
     <defs>
      <path d="M 19.671875 64.796875 
L 19.671875 37.40625 
L 32.078125 37.40625 
Q 38.96875 37.40625 42.71875 40.96875 
Q 46.484375 44.53125 46.484375 51.125 
Q 46.484375 57.671875 42.71875 61.234375 
Q 38.96875 64.796875 32.078125 64.796875 
z
M 9.8125 72.90625 
L 32.078125 72.90625 
Q 44.34375 72.90625 50.609375 67.359375 
Q 56.890625 61.8125 56.890625 51.125 
Q 56.890625 40.328125 50.609375 34.8125 
Q 44.34375 29.296875 32.078125 29.296875 
L 19.671875 29.296875 
L 19.671875 0 
L 9.8125 0 
z
" id="DejaVuSans-80"/>
      <path d="M 56.203125 29.59375 
L 56.203125 25.203125 
L 14.890625 25.203125 
Q 15.484375 15.921875 20.484375 11.0625 
Q 25.484375 6.203125 34.421875 6.203125 
Q 39.59375 6.203125 44.453125 7.46875 
Q 49.3125 8.734375 54.109375 11.28125 
L 54.109375 2.78125 
Q 49.265625 0.734375 44.1875 -0.34375 
Q 39.109375 -1.421875 33.890625 -1.421875 
Q 20.796875 -1.421875 13.15625 6.1875 
Q 5.515625 13.8125 5.515625 26.8125 
Q 5.515625 40.234375 12.765625 48.109375 
Q 20.015625 56 32.328125 56 
Q 43.359375 56 49.78125 48.890625 
Q 56.203125 41.796875 56.203125 29.59375 
z
M 47.21875 32.234375 
Q 47.125 39.59375 43.09375 43.984375 
Q 39.0625 48.390625 32.421875 48.390625 
Q 24.90625 48.390625 20.390625 44.140625 
Q 15.875 39.890625 15.1875 32.171875 
z
" id="DejaVuSans-101"/>
      <path d="M 18.3125 70.21875 
L 18.3125 54.6875 
L 36.8125 54.6875 
L 36.8125 47.703125 
L 18.3125 47.703125 
L 18.3125 18.015625 
Q 18.3125 11.328125 20.140625 9.421875 
Q 21.96875 7.515625 27.59375 7.515625 
L 36.8125 7.515625 
L 36.8125 0 
L 27.59375 0 
Q 17.1875 0 13.234375 3.875 
Q 9.28125 7.765625 9.28125 18.015625 
L 9.28125 47.703125 
L 2.6875 47.703125 
L 2.6875 54.6875 
L 9.28125 54.6875 
L 9.28125 70.21875 
z
" id="DejaVuSans-116"/>
      <path d="M 34.28125 27.484375 
Q 23.390625 27.484375 19.1875 25 
Q 14.984375 22.515625 14.984375 16.5 
Q 14.984375 11.71875 18.140625 8.90625 
Q 21.296875 6.109375 26.703125 6.109375 
Q 34.1875 6.109375 38.703125 11.40625 
Q 43.21875 16.703125 43.21875 25.484375 
L 43.21875 27.484375 
z
M 52.203125 31.203125 
L 52.203125 0 
L 43.21875 0 
L 43.21875 8.296875 
Q 40.140625 3.328125 35.546875 0.953125 
Q 30.953125 -1.421875 24.3125 -1.421875 
Q 15.921875 -1.421875 10.953125 3.296875 
Q 6 8.015625 6 15.921875 
Q 6 25.140625 12.171875 29.828125 
Q 18.359375 34.515625 30.609375 34.515625 
L 43.21875 34.515625 
L 43.21875 35.40625 
Q 43.21875 41.609375 39.140625 45 
Q 35.0625 48.390625 27.6875 48.390625 
Q 23 48.390625 18.546875 47.265625 
Q 14.109375 46.140625 10.015625 43.890625 
L 10.015625 52.203125 
Q 14.9375 54.109375 19.578125 55.046875 
Q 24.21875 56 28.609375 56 
Q 40.484375 56 46.34375 49.84375 
Q 52.203125 43.703125 52.203125 31.203125 
z
" id="DejaVuSans-97"/>
      <path d="M 9.421875 75.984375 
L 18.40625 75.984375 
L 18.40625 0 
L 9.421875 0 
z
" id="DejaVuSans-108"/>
      <path id="DejaVuSans-32"/>
      <path d="M 54.890625 33.015625 
L 54.890625 0 
L 45.90625 0 
L 45.90625 32.71875 
Q 45.90625 40.484375 42.875 44.328125 
Q 39.84375 48.1875 33.796875 48.1875 
Q 26.515625 48.1875 22.3125 43.546875 
Q 18.109375 38.921875 18.109375 30.90625 
L 18.109375 0 
L 9.078125 0 
L 9.078125 54.6875 
L 18.109375 54.6875 
L 18.109375 46.1875 
Q 21.34375 51.125 25.703125 53.5625 
Q 30.078125 56 35.796875 56 
Q 45.21875 56 50.046875 50.171875 
Q 54.890625 44.34375 54.890625 33.015625 
z
" id="DejaVuSans-110"/>
      <path d="M 45.40625 27.984375 
Q 45.40625 37.75 41.375 43.109375 
Q 37.359375 48.484375 30.078125 48.484375 
Q 22.859375 48.484375 18.828125 43.109375 
Q 14.796875 37.75 14.796875 27.984375 
Q 14.796875 18.265625 18.828125 12.890625 
Q 22.859375 7.515625 30.078125 7.515625 
Q 37.359375 7.515625 41.375 12.890625 
Q 45.40625 18.265625 45.40625 27.984375 
z
M 54.390625 6.78125 
Q 54.390625 -7.171875 48.1875 -13.984375 
Q 42 -20.796875 29.203125 -20.796875 
Q 24.46875 -20.796875 20.265625 -20.09375 
Q 16.0625 -19.390625 12.109375 -17.921875 
L 12.109375 -9.1875 
Q 16.0625 -11.328125 19.921875 -12.34375 
Q 23.78125 -13.375 27.78125 -13.375 
Q 36.625 -13.375 41.015625 -8.765625 
Q 45.40625 -4.15625 45.40625 5.171875 
L 45.40625 9.625 
Q 42.625 4.78125 38.28125 2.390625 
Q 33.9375 0 27.875 0 
Q 17.828125 0 11.671875 7.65625 
Q 5.515625 15.328125 5.515625 27.984375 
Q 5.515625 40.671875 11.671875 48.328125 
Q 17.828125 56 27.875 56 
Q 33.9375 56 38.28125 53.609375 
Q 42.625 51.21875 45.40625 46.390625 
L 45.40625 54.6875 
L 54.390625 54.6875 
z
" id="DejaVuSans-103"/>
      <path d="M 54.890625 33.015625 
L 54.890625 0 
L 45.90625 0 
L 45.90625 32.71875 
Q 45.90625 40.484375 42.875 44.328125 
Q 39.84375 48.1875 33.796875 48.1875 
Q 26.515625 48.1875 22.3125 43.546875 
Q 18.109375 38.921875 18.109375 30.90625 
L 18.109375 0 
L 9.078125 0 
L 9.078125 75.984375 
L 18.109375 75.984375 
L 18.109375 46.1875 
Q 21.34375 51.125 25.703125 53.5625 
Q 30.078125 56 35.796875 56 
Q 45.21875 56 50.046875 50.171875 
Q 54.890625 44.34375 54.890625 33.015625 
z
" id="DejaVuSans-104"/>
     </defs>
     <use xlink:href="#DejaVuSans-80"/>
     <use x="56.677734" xlink:href="#DejaVuSans-101"/>
     <use x="118.201172" xlink:href="#DejaVuSans-116"/>
     <use x="157.410156" xlink:href="#DejaVuSans-97"/>
     <use x="218.689453" xlink:href="#DejaVuSans-108"/>
     <use x="246.472656" xlink:href="#DejaVuSans-32"/>
     <use x="278.259766" xlink:href="#DejaVuSans-108"/>
     <use x="306.042969" xlink:href="#DejaVuSans-101"/>
     <use x="367.566406" xlink:href="#DejaVuSans-110"/>
     <use x="430.945312" xlink:href="#DejaVuSans-103"/>
     <use x="494.421875" xlink:href="#DejaVuSans-116"/>
     <use x="533.630859" xlink:href="#DejaVuSans-104"/>
    </g>
   </g>
   <g id="Line3DCollection_1">
    <path d="M 35.306915 254.075829 
L 142.832738 163.61407 
L 141.474569 33.321694 
" style="fill:none;stroke:#b0b0b0;stroke-width:0.8;"/>
    <path d="M 56.335671 260.943821 
L 162.744589 169.401659 
L 162.23236 38.583189 
" style="fill:none;stroke:#b0b0b0;stroke-width:0.8;"/>
    <path d="M 77.627204 267.897636 
L 182.884678 175.255587 
L 183.23835 43.907596 
" style="fill:none;stroke:#b0b0b0;stroke-width:0.8;"/>
    <path d="M 99.186472 274.938892 
L 203.256952 181.177003 
L 204.49702 49.296048 
" style="fill:none;stroke:#b0b0b0;stroke-width:0.8;"/>
    <path d="M 121.018556 282.069251 
L 223.865448 187.16708 
L 226.012954 54.749711 
" style="fill:none;stroke:#b0b0b0;stroke-width:0.8;"/>
    <path d="M 143.128668 289.290414 
L 244.714301 193.227018 
L 247.790853 60.269773 
" style="fill:none;stroke:#b0b0b0;stroke-width:0.8;"/>
    <path d="M 165.522153 296.604126 
L 265.807738 199.358047 
L 269.835528 65.857456 
" style="fill:none;stroke:#b0b0b0;stroke-width:0.8;"/>
    <path d="M 188.204493 304.012178 
L 287.15009 205.561426 
L 292.151913 71.514009 
" style="fill:none;stroke:#b0b0b0;stroke-width:0.8;"/>
    <path d="M 211.181315 311.516408 
L 308.745789 211.838444 
L 314.745062 77.240714 
" style="fill:none;stroke:#b0b0b0;stroke-width:0.8;"/>
   </g>
   <g id="xtick_1">
    <g id="line2d_2">
     <path d="M 36.243073 253.288237 
L 33.430591 255.654386 
" style="fill:none;stroke:#000000;stroke-linecap:square;stroke-width:0.8;"/>
    </g>
    <g id="text_2">
     <!-- 4.00 -->
     <g transform="translate(16.644104 277.331374)scale(0.1 -0.1)">
      <defs>
       <path d="M 37.796875 64.3125 
L 12.890625 25.390625 
L 37.796875 25.390625 
z
M 35.203125 72.90625 
L 47.609375 72.90625 
L 47.609375 25.390625 
L 58.015625 25.390625 
L 58.015625 17.1875 
L 47.609375 17.1875 
L 47.609375 0 
L 37.796875 0 
L 37.796875 17.1875 
L 4.890625 17.1875 
L 4.890625 26.703125 
z
" id="DejaVuSans-52"/>
       <path d="M 10.6875 12.40625 
L 21 12.40625 
L 21 0 
L 10.6875 0 
z
" id="DejaVuSans-46"/>
       <path d="M 31.78125 66.40625 
Q 24.171875 66.40625 20.328125 58.90625 
Q 16.5 51.421875 16.5 36.375 
Q 16.5 21.390625 20.328125 13.890625 
Q 24.171875 6.390625 31.78125 6.390625 
Q 39.453125 6.390625 43.28125 13.890625 
Q 47.125 21.390625 47.125 36.375 
Q 47.125 51.421875 43.28125 58.90625 
Q 39.453125 66.40625 31.78125 66.40625 
z
M 31.78125 74.21875 
Q 44.046875 74.21875 50.515625 64.515625 
Q 56.984375 54.828125 56.984375 36.375 
Q 56.984375 17.96875 50.515625 8.265625 
Q 44.046875 -1.421875 31.78125 -1.421875 
Q 19.53125 -1.421875 13.0625 8.265625 
Q 6.59375 17.96875 6.59375 36.375 
Q 6.59375 54.828125 13.0625 64.515625 
Q 19.53125 74.21875 31.78125 74.21875 
z
" id="DejaVuSans-48"/>
      </defs>
      <use xlink:href="#DejaVuSans-52"/>
      <use x="63.623047" xlink:href="#DejaVuSans-46"/>
      <use x="95.410156" xlink:href="#DejaVuSans-48"/>
      <use x="159.033203" xlink:href="#DejaVuSans-48"/>
     </g>
    </g>
   </g>
   <g id="xtick_2">
    <g id="line2d_3">
     <path d="M 57.262571 260.146421 
L 54.477877 262.542056 
" style="fill:none;stroke:#000000;stroke-linecap:square;stroke-width:0.8;"/>
    </g>
    <g id="text_3">
     <!-- 4.25 -->
     <g transform="translate(37.689948 284.317779)scale(0.1 -0.1)">
      <defs>
       <path d="M 19.1875 8.296875 
L 53.609375 8.296875 
L 53.609375 0 
L 7.328125 0 
L 7.328125 8.296875 
Q 12.9375 14.109375 22.625 23.890625 
Q 32.328125 33.6875 34.8125 36.53125 
Q 39.546875 41.84375 41.421875 45.53125 
Q 43.3125 49.21875 43.3125 52.78125 
Q 43.3125 58.59375 39.234375 62.25 
Q 35.15625 65.921875 28.609375 65.921875 
Q 23.96875 65.921875 18.8125 64.3125 
Q 13.671875 62.703125 7.8125 59.421875 
L 7.8125 69.390625 
Q 13.765625 71.78125 18.9375 73 
Q 24.125 74.21875 28.421875 74.21875 
Q 39.75 74.21875 46.484375 68.546875 
Q 53.21875 62.890625 53.21875 53.421875 
Q 53.21875 48.921875 51.53125 44.890625 
Q 49.859375 40.875 45.40625 35.40625 
Q 44.1875 33.984375 37.640625 27.21875 
Q 31.109375 20.453125 19.1875 8.296875 
z
" id="DejaVuSans-50"/>
       <path d="M 10.796875 72.90625 
L 49.515625 72.90625 
L 49.515625 64.59375 
L 19.828125 64.59375 
L 19.828125 46.734375 
Q 21.96875 47.46875 24.109375 47.828125 
Q 26.265625 48.1875 28.421875 48.1875 
Q 40.625 48.1875 47.75 41.5 
Q 54.890625 34.8125 54.890625 23.390625 
Q 54.890625 11.625 47.5625 5.09375 
Q 40.234375 -1.421875 26.90625 -1.421875 
Q 22.3125 -1.421875 17.546875 -0.640625 
Q 12.796875 0.140625 7.71875 1.703125 
L 7.71875 11.625 
Q 12.109375 9.234375 16.796875 8.0625 
Q 21.484375 6.890625 26.703125 6.890625 
Q 35.15625 6.890625 40.078125 11.328125 
Q 45.015625 15.765625 45.015625 23.390625 
Q 45.015625 31 40.078125 35.4375 
Q 35.15625 39.890625 26.703125 39.890625 
Q 22.75 39.890625 18.8125 39.015625 
Q 14.890625 38.140625 10.796875 36.28125 
z
" id="DejaVuSans-53"/>
      </defs>
      <use xlink:href="#DejaVuSans-52"/>
      <use x="63.623047" xlink:href="#DejaVuSans-46"/>
      <use x="95.410156" xlink:href="#DejaVuSans-50"/>
      <use x="159.033203" xlink:href="#DejaVuSans-53"/>
     </g>
    </g>
   </g>
   <g id="xtick_3">
    <g id="line2d_4">
     <path d="M 78.544541 267.090244 
L 75.788552 269.515919 
" style="fill:none;stroke:#000000;stroke-linecap:square;stroke-width:0.8;"/>
    </g>
    <g id="text_4">
     <!-- 4.50 -->
     <g transform="translate(58.999589 291.391754)scale(0.1 -0.1)">
      <use xlink:href="#DejaVuSans-52"/>
      <use x="63.623047" xlink:href="#DejaVuSans-46"/>
      <use x="95.410156" xlink:href="#DejaVuSans-53"/>
      <use x="159.033203" xlink:href="#DejaVuSans-48"/>
     </g>
    </g>
   </g>
   <g id="xtick_4">
    <g id="line2d_5">
     <path d="M 100.093932 274.12132 
L 97.367593 276.577604 
" style="fill:none;stroke:#000000;stroke-linecap:square;stroke-width:0.8;"/>
    </g>
    <g id="text_5">
     <!-- 4.75 -->
     <g transform="translate(80.578018 298.554956)scale(0.1 -0.1)">
      <defs>
       <path d="M 8.203125 72.90625 
L 55.078125 72.90625 
L 55.078125 68.703125 
L 28.609375 0 
L 18.3125 0 
L 43.21875 64.59375 
L 8.203125 64.59375 
z
" id="DejaVuSans-55"/>
      </defs>
      <use xlink:href="#DejaVuSans-52"/>
      <use x="63.623047" xlink:href="#DejaVuSans-46"/>
      <use x="95.410156" xlink:href="#DejaVuSans-55"/>
      <use x="159.033203" xlink:href="#DejaVuSans-53"/>
     </g>
    </g>
   </g>
   <g id="xtick_5">
    <g id="line2d_6">
     <path d="M 121.915815 281.241304 
L 119.220099 283.728781 
" style="fill:none;stroke:#000000;stroke-linecap:square;stroke-width:0.8;"/>
    </g>
    <g id="text_6">
     <!-- 5.00 -->
     <g transform="translate(102.430352 305.809084)scale(0.1 -0.1)">
      <use xlink:href="#DejaVuSans-53"/>
      <use x="63.623047" xlink:href="#DejaVuSans-46"/>
      <use x="95.410156" xlink:href="#DejaVuSans-48"/>
      <use x="159.033203" xlink:href="#DejaVuSans-48"/>
     </g>
    </g>
   </g>
   <g id="xtick_6">
    <g id="line2d_7">
     <path d="M 144.015391 288.451893 
L 141.351303 290.97116 
" style="fill:none;stroke:#000000;stroke-linecap:square;stroke-width:0.8;"/>
    </g>
    <g id="text_7">
     <!-- 5.25 -->
     <g transform="translate(124.561841 313.15588)scale(0.1 -0.1)">
      <use xlink:href="#DejaVuSans-53"/>
      <use x="63.623047" xlink:href="#DejaVuSans-46"/>
      <use x="95.410156" xlink:href="#DejaVuSans-50"/>
      <use x="159.033203" xlink:href="#DejaVuSans-53"/>
     </g>
    </g>
   </g>
   <g id="xtick_7">
    <g id="line2d_8">
     <path d="M 166.397996 295.754828 
L 163.766571 298.306498 
" style="fill:none;stroke:#000000;stroke-linecap:square;stroke-width:0.8;"/>
    </g>
    <g id="text_8">
     <!-- 5.50 -->
     <g transform="translate(146.977867 320.597132)scale(0.1 -0.1)">
      <use xlink:href="#DejaVuSans-53"/>
      <use x="63.623047" xlink:href="#DejaVuSans-46"/>
      <use x="95.410156" xlink:href="#DejaVuSans-53"/>
      <use x="159.033203" xlink:href="#DejaVuSans-48"/>
     </g>
    </g>
   </g>
   <g id="xtick_8">
    <g id="line2d_9">
     <path d="M 189.069102 303.151894 
L 186.471407 305.736597 
" style="fill:none;stroke:#000000;stroke-linecap:square;stroke-width:0.8;"/>
    </g>
    <g id="text_9">
     <!-- 5.75 -->
     <g transform="translate(169.683954 328.134672)scale(0.1 -0.1)">
      <use xlink:href="#DejaVuSans-53"/>
      <use x="63.623047" xlink:href="#DejaVuSans-46"/>
      <use x="95.410156" xlink:href="#DejaVuSans-55"/>
      <use x="159.033203" xlink:href="#DejaVuSans-53"/>
     </g>
    </g>
   </g>
   <g id="xtick_9">
    <g id="line2d_10">
     <path d="M 212.034322 310.644922 
L 209.471458 313.263304 
" style="fill:none;stroke:#000000;stroke-linecap:square;stroke-width:0.8;"/>
    </g>
    <g id="text_10">
     <!-- 6.00 -->
     <g transform="translate(192.685767 335.770383)scale(0.1 -0.1)">
      <defs>
       <path d="M 33.015625 40.375 
Q 26.375 40.375 22.484375 35.828125 
Q 18.609375 31.296875 18.609375 23.390625 
Q 18.609375 15.53125 22.484375 10.953125 
Q 26.375 6.390625 33.015625 6.390625 
Q 39.65625 6.390625 43.53125 10.953125 
Q 47.40625 15.53125 47.40625 23.390625 
Q 47.40625 31.296875 43.53125 35.828125 
Q 39.65625 40.375 33.015625 40.375 
z
M 52.59375 71.296875 
L 52.59375 62.3125 
Q 48.875 64.0625 45.09375 64.984375 
Q 41.3125 65.921875 37.59375 65.921875 
Q 27.828125 65.921875 22.671875 59.328125 
Q 17.53125 52.734375 16.796875 39.40625 
Q 19.671875 43.65625 24.015625 45.921875 
Q 28.375 48.1875 33.59375 48.1875 
Q 44.578125 48.1875 50.953125 41.515625 
Q 57.328125 34.859375 57.328125 23.390625 
Q 57.328125 12.15625 50.6875 5.359375 
Q 44.046875 -1.421875 33.015625 -1.421875 
Q 20.359375 -1.421875 13.671875 8.265625 
Q 6.984375 17.96875 6.984375 36.375 
Q 6.984375 53.65625 15.1875 63.9375 
Q 23.390625 74.21875 37.203125 74.21875 
Q 40.921875 74.21875 44.703125 73.484375 
Q 48.484375 72.75 52.59375 71.296875 
z
" id="DejaVuSans-54"/>
      </defs>
      <use xlink:href="#DejaVuSans-54"/>
      <use x="63.623047" xlink:href="#DejaVuSans-46"/>
      <use x="95.410156" xlink:href="#DejaVuSans-48"/>
      <use x="159.033203" xlink:href="#DejaVuSans-48"/>
     </g>
    </g>
   </g>
  </g>
  <g id="axis3d_2">
   <g id="line2d_11">
    <path d="M 312.37002 212.891864 
L 215.039818 312.776595 
" style="fill:none;stroke:#000000;stroke-linecap:square;stroke-width:0.8;"/>
   </g>
   <g id="text_11">
    <!-- Petal width -->
    <g transform="translate(266.821691 321.243001)rotate(-45.742112)scale(0.15 -0.15)">
     <defs>
      <path d="M 4.203125 54.6875 
L 13.1875 54.6875 
L 24.421875 12.015625 
L 35.59375 54.6875 
L 46.1875 54.6875 
L 57.421875 12.015625 
L 68.609375 54.6875 
L 77.59375 54.6875 
L 63.28125 0 
L 52.6875 0 
L 40.921875 44.828125 
L 29.109375 0 
L 18.5 0 
z
" id="DejaVuSans-119"/>
      <path d="M 9.421875 54.6875 
L 18.40625 54.6875 
L 18.40625 0 
L 9.421875 0 
z
M 9.421875 75.984375 
L 18.40625 75.984375 
L 18.40625 64.59375 
L 9.421875 64.59375 
z
" id="DejaVuSans-105"/>
      <path d="M 45.40625 46.390625 
L 45.40625 75.984375 
L 54.390625 75.984375 
L 54.390625 0 
L 45.40625 0 
L 45.40625 8.203125 
Q 42.578125 3.328125 38.25 0.953125 
Q 33.9375 -1.421875 27.875 -1.421875 
Q 17.96875 -1.421875 11.734375 6.484375 
Q 5.515625 14.40625 5.515625 27.296875 
Q 5.515625 40.1875 11.734375 48.09375 
Q 17.96875 56 27.875 56 
Q 33.9375 56 38.25 53.625 
Q 42.578125 51.265625 45.40625 46.390625 
z
M 14.796875 27.296875 
Q 14.796875 17.390625 18.875 11.75 
Q 22.953125 6.109375 30.078125 6.109375 
Q 37.203125 6.109375 41.296875 11.75 
Q 45.40625 17.390625 45.40625 27.296875 
Q 45.40625 37.203125 41.296875 42.84375 
Q 37.203125 48.484375 30.078125 48.484375 
Q 22.953125 48.484375 18.875 42.84375 
Q 14.796875 37.203125 14.796875 27.296875 
z
" id="DejaVuSans-100"/>
     </defs>
     <use xlink:href="#DejaVuSans-80"/>
     <use x="56.677734" xlink:href="#DejaVuSans-101"/>
     <use x="118.201172" xlink:href="#DejaVuSans-116"/>
     <use x="157.410156" xlink:href="#DejaVuSans-97"/>
     <use x="218.689453" xlink:href="#DejaVuSans-108"/>
     <use x="246.472656" xlink:href="#DejaVuSans-32"/>
     <use x="278.259766" xlink:href="#DejaVuSans-119"/>
     <use x="360.046875" xlink:href="#DejaVuSans-105"/>
     <use x="387.830078" xlink:href="#DejaVuSans-100"/>
     <use x="451.306641" xlink:href="#DejaVuSans-116"/>
     <use x="490.515625" xlink:href="#DejaVuSans-104"/>
    </g>
   </g>
   <g id="Line3DCollection_2">
    <path d="M 39.333996 104.481058 
L 45.294253 241.651154 
L 227.256198 300.239584 
" style="fill:none;stroke:#b0b0b0;stroke-width:0.8;"/>
    <path d="M 53.66559 94.022513 
L 58.939028 230.213833 
L 239.620143 287.551135 
" style="fill:none;stroke:#b0b0b0;stroke-width:0.8;"/>
    <path d="M 67.687163 83.790207 
L 72.301368 219.013255 
L 251.714754 275.139089 
" style="fill:none;stroke:#b0b0b0;stroke-width:0.8;"/>
    <path d="M 81.408667 73.776879 
L 85.389951 208.042145 
L 263.548736 262.994512 
" style="fill:none;stroke:#b0b0b0;stroke-width:0.8;"/>
    <path d="M 94.839633 63.975572 
L 98.213107 197.293522 
L 275.130424 251.108852 
" style="fill:none;stroke:#b0b0b0;stroke-width:0.8;"/>
    <path d="M 107.989191 54.379623 
L 110.778826 186.760686 
L 286.4678 239.473914 
" style="fill:none;stroke:#b0b0b0;stroke-width:0.8;"/>
    <path d="M 120.866094 44.982646 
L 123.094786 176.437205 
L 297.568516 228.081849 
" style="fill:none;stroke:#b0b0b0;stroke-width:0.8;"/>
    <path d="M 133.478735 35.778515 
L 135.168359 166.316897 
L 308.439904 216.92513 
" style="fill:none;stroke:#b0b0b0;stroke-width:0.8;"/>
   </g>
   <g id="xtick_10">
    <g id="line2d_12">
     <path d="M 225.723177 299.745979 
L 230.326186 301.228064 
" style="fill:none;stroke:#000000;stroke-linecap:square;stroke-width:0.8;"/>
    </g>
    <g id="text_12">
     <!-- 1.00 -->
     <g transform="translate(228.942658 321.191856)scale(0.1 -0.1)">
      <defs>
       <path d="M 12.40625 8.296875 
L 28.515625 8.296875 
L 28.515625 63.921875 
L 10.984375 60.40625 
L 10.984375 69.390625 
L 28.421875 72.90625 
L 38.28125 72.90625 
L 38.28125 8.296875 
L 54.390625 8.296875 
L 54.390625 0 
L 12.40625 0 
z
" id="DejaVuSans-49"/>
      </defs>
      <use xlink:href="#DejaVuSans-49"/>
      <use x="63.623047" xlink:href="#DejaVuSans-46"/>
      <use x="95.410156" xlink:href="#DejaVuSans-48"/>
      <use x="159.033203" xlink:href="#DejaVuSans-48"/>
     </g>
    </g>
   </g>
   <g id="xtick_11">
    <g id="line2d_13">
     <path d="M 238.098758 287.068339 
L 242.666786 288.517956 
" style="fill:none;stroke:#000000;stroke-linecap:square;stroke-width:0.8;"/>
    </g>
    <g id="text_13">
     <!-- 1.25 -->
     <g transform="translate(241.171315 308.350185)scale(0.1 -0.1)">
      <use xlink:href="#DejaVuSans-49"/>
      <use x="63.623047" xlink:href="#DejaVuSans-46"/>
      <use x="95.410156" xlink:href="#DejaVuSans-50"/>
      <use x="159.033203" xlink:href="#DejaVuSans-53"/>
     </g>
    </g>
   </g>
   <g id="xtick_12">
    <g id="line2d_14">
     <path d="M 250.204864 274.666751 
L 254.738335 276.084955 
" style="fill:none;stroke:#000000;stroke-linecap:square;stroke-width:0.8;"/>
    </g>
    <g id="text_14">
     <!-- 1.50 -->
     <g transform="translate(253.133458 295.788388)scale(0.1 -0.1)">
      <use xlink:href="#DejaVuSans-49"/>
      <use x="63.623047" xlink:href="#DejaVuSans-46"/>
      <use x="95.410156" xlink:href="#DejaVuSans-53"/>
      <use x="159.033203" xlink:href="#DejaVuSans-48"/>
     </g>
    </g>
   </g>
   <g id="xtick_13">
    <g id="line2d_15">
     <path d="M 262.050202 262.532296 
L 266.549535 263.920097 
" style="fill:none;stroke:#000000;stroke-linecap:square;stroke-width:0.8;"/>
    </g>
    <g id="text_15">
     <!-- 1.75 -->
     <g transform="translate(264.837706 283.497416)scale(0.1 -0.1)">
      <use xlink:href="#DejaVuSans-49"/>
      <use x="63.623047" xlink:href="#DejaVuSans-46"/>
      <use x="95.410156" xlink:href="#DejaVuSans-55"/>
      <use x="159.033203" xlink:href="#DejaVuSans-53"/>
     </g>
    </g>
   </g>
   <g id="xtick_14">
    <g id="line2d_16">
     <path d="M 273.643107 250.656434 
L 278.108721 252.0148 
" style="fill:none;stroke:#000000;stroke-linecap:square;stroke-width:0.8;"/>
    </g>
    <g id="text_16">
     <!-- 2.00 -->
     <g transform="translate(276.292309 271.468601)scale(0.1 -0.1)">
      <use xlink:href="#DejaVuSans-50"/>
      <use x="63.623047" xlink:href="#DejaVuSans-46"/>
      <use x="95.410156" xlink:href="#DejaVuSans-48"/>
      <use x="159.033203" xlink:href="#DejaVuSans-48"/>
     </g>
    </g>
   </g>
   <g id="xtick_15">
    <g id="line2d_17">
     <path d="M 284.991564 239.030988 
L 289.423872 240.360845 
" style="fill:none;stroke:#000000;stroke-linecap:square;stroke-width:0.8;"/>
    </g>
    <g id="text_17">
     <!-- 2.25 -->
     <g transform="translate(287.50517 259.693647)scale(0.1 -0.1)">
      <use xlink:href="#DejaVuSans-50"/>
      <use x="63.623047" xlink:href="#DejaVuSans-46"/>
      <use x="95.410156" xlink:href="#DejaVuSans-50"/>
      <use x="159.033203" xlink:href="#DejaVuSans-53"/>
     </g>
    </g>
   </g>
   <g id="xtick_16">
    <g id="line2d_18">
     <path d="M 296.103224 227.648119 
L 300.502635 228.950355 
" style="fill:none;stroke:#000000;stroke-linecap:square;stroke-width:0.8;"/>
    </g>
    <g id="text_18">
     <!-- 2.50 -->
     <g transform="translate(298.483864 248.1646)scale(0.1 -0.1)">
      <use xlink:href="#DejaVuSans-50"/>
      <use x="63.623047" xlink:href="#DejaVuSans-46"/>
      <use x="95.410156" xlink:href="#DejaVuSans-53"/>
      <use x="159.033203" xlink:href="#DejaVuSans-48"/>
     </g>
    </g>
   </g>
   <g id="xtick_17">
    <g id="line2d_19">
     <path d="M 306.985421 216.500312 
L 311.352343 217.77578 
" style="fill:none;stroke:#000000;stroke-linecap:square;stroke-width:0.8;"/>
    </g>
    <g id="text_19">
     <!-- 2.75 -->
     <g transform="translate(309.235648 236.873837)scale(0.1 -0.1)">
      <use xlink:href="#DejaVuSans-50"/>
      <use x="63.623047" xlink:href="#DejaVuSans-46"/>
      <use x="95.410156" xlink:href="#DejaVuSans-55"/>
      <use x="159.033203" xlink:href="#DejaVuSans-53"/>
     </g>
    </g>
   </g>
  </g>
  <g id="axis3d_3">
   <g id="line2d_20">
    <path d="M 312.37002 212.891864 
L 318.537857 78.202076 
" style="fill:none;stroke:#000000;stroke-linecap:square;stroke-width:0.8;"/>
   </g>
   <g id="text_20">
    <!-- $h = \mathbf{w}^T \mathbf{x} + b$ -->
    <g transform="translate(358.401826 193.619358)rotate(-87.378092)scale(0.18 -0.18)">
     <defs>
      <path d="M 55.71875 33.015625 
L 49.3125 0 
L 40.28125 0 
L 46.6875 32.671875 
Q 47.125 34.96875 47.359375 36.71875 
Q 47.609375 38.484375 47.609375 39.5 
Q 47.609375 43.609375 45.015625 45.890625 
Q 42.4375 48.1875 37.796875 48.1875 
Q 30.5625 48.1875 25.265625 43.296875 
Q 19.96875 38.421875 18.40625 30.328125 
L 12.5 0 
L 3.515625 0 
L 18.3125 75.984375 
L 27.296875 75.984375 
L 21.484375 46.09375 
Q 24.90625 50.6875 30.21875 53.34375 
Q 35.546875 56 41.40625 56 
Q 48.640625 56 52.609375 52.09375 
Q 56.59375 48.1875 56.59375 41.109375 
Q 56.59375 39.359375 56.375 37.359375 
Q 56.15625 35.359375 55.71875 33.015625 
z
" id="DejaVuSans-Oblique-104"/>
      <path d="M 10.59375 45.40625 
L 73.1875 45.40625 
L 73.1875 37.203125 
L 10.59375 37.203125 
z
M 10.59375 25.484375 
L 73.1875 25.484375 
L 73.1875 17.1875 
L 10.59375 17.1875 
z
" id="DejaVuSans-61"/>
      <path d="M 3.515625 54.6875 
L 20.515625 54.6875 
L 29.6875 17 
L 38.921875 54.6875 
L 53.515625 54.6875 
L 62.703125 17.390625 
L 71.921875 54.6875 
L 88.921875 54.6875 
L 74.515625 0 
L 55.421875 0 
L 46.1875 37.59375 
L 37.015625 0 
L 17.921875 0 
z
" id="DejaVuSans-Bold-119"/>
      <path d="M 5.90625 72.90625 
L 67.578125 72.90625 
L 66.015625 64.59375 
L 39.984375 64.59375 
L 27.484375 0 
L 17.578125 0 
L 30.078125 64.59375 
L 4.296875 64.59375 
z
" id="DejaVuSans-Oblique-84"/>
      <path d="M 22.21875 27.984375 
L 2.484375 54.6875 
L 21 54.6875 
L 32.171875 38.484375 
L 43.5 54.6875 
L 62.015625 54.6875 
L 42.28125 28.078125 
L 62.984375 0 
L 44.484375 0 
L 32.171875 17.28125 
L 20.015625 0 
L 1.515625 0 
z
" id="DejaVuSans-Bold-120"/>
      <path d="M 46 62.703125 
L 46 35.5 
L 73.1875 35.5 
L 73.1875 27.203125 
L 46 27.203125 
L 46 0 
L 37.796875 0 
L 37.796875 27.203125 
L 10.59375 27.203125 
L 10.59375 35.5 
L 37.796875 35.5 
L 37.796875 62.703125 
z
" id="DejaVuSans-43"/>
      <path d="M 49.515625 33.40625 
Q 49.515625 40.484375 46.265625 44.484375 
Q 43.015625 48.484375 37.3125 48.484375 
Q 33.15625 48.484375 29.515625 46.453125 
Q 25.875 44.4375 23.1875 40.578125 
Q 20.359375 36.53125 18.71875 31.171875 
Q 17.09375 25.828125 17.09375 20.515625 
Q 17.09375 13.765625 20.28125 9.9375 
Q 23.484375 6.109375 29.109375 6.109375 
Q 33.34375 6.109375 36.953125 8.078125 
Q 40.578125 10.0625 43.3125 13.921875 
Q 46.09375 17.921875 47.796875 23.234375 
Q 49.515625 28.5625 49.515625 33.40625 
z
M 21.578125 46.390625 
Q 24.90625 50.875 29.90625 53.4375 
Q 34.90625 56 40.375 56 
Q 48.78125 56 53.734375 50.328125 
Q 58.6875 44.671875 58.6875 35.015625 
Q 58.6875 27.09375 55.78125 19.671875 
Q 52.875 12.25 47.515625 6.5 
Q 44 2.6875 39.40625 0.625 
Q 34.8125 -1.421875 29.78125 -1.421875 
Q 24.46875 -1.421875 20.5625 1.015625 
Q 16.65625 3.46875 14.203125 8.296875 
L 12.59375 0 
L 3.609375 0 
L 18.40625 75.984375 
L 27.390625 75.984375 
z
" id="DejaVuSans-Oblique-98"/>
     </defs>
     <use transform="translate(0 0.684375)" xlink:href="#DejaVuSans-Oblique-104"/>
     <use transform="translate(82.861328 0.684375)" xlink:href="#DejaVuSans-61"/>
     <use transform="translate(186.132812 0.684375)" xlink:href="#DejaVuSans-Bold-119"/>
     <use transform="translate(279.472656 38.965625)scale(0.7)" xlink:href="#DejaVuSans-Oblique-84"/>
     <use transform="translate(324.96582 0.684375)" xlink:href="#DejaVuSans-Bold-120"/>
     <use transform="translate(408.950195 0.684375)" xlink:href="#DejaVuSans-43"/>
     <use transform="translate(512.22168 0.684375)" xlink:href="#DejaVuSans-Oblique-98"/>
    </g>
   </g>
   <g id="Line3DCollection_3">
    <path d="M 312.606713 207.723104 
L 139.478439 157.649032 
L 31.572483 247.647349 
" style="fill:none;stroke:#b0b0b0;stroke-width:0.8;"/>
    <path d="M 313.246595 193.749714 
L 139.322837 144.117529 
L 30.883359 233.337236 
" style="fill:none;stroke:#b0b0b0;stroke-width:0.8;"/>
    <path d="M 313.892442 179.646059 
L 139.165855 130.465894 
L 30.187566 218.888645 
" style="fill:none;stroke:#b0b0b0;stroke-width:0.8;"/>
    <path d="M 314.544338 165.41031 
L 139.007472 116.692521 
L 29.485007 204.299555 
" style="fill:none;stroke:#b0b0b0;stroke-width:0.8;"/>
    <path d="M 315.202369 151.040601 
L 138.84767 102.795773 
L 28.775583 189.567908 
" style="fill:none;stroke:#b0b0b0;stroke-width:0.8;"/>
    <path d="M 315.866621 136.535033 
L 138.686431 88.773985 
L 28.059193 174.691604 
" style="fill:none;stroke:#b0b0b0;stroke-width:0.8;"/>
    <path d="M 316.537183 121.89167 
L 138.523734 74.625462 
L 27.335734 159.668501 
" style="fill:none;stroke:#b0b0b0;stroke-width:0.8;"/>
    <path d="M 317.214146 107.10854 
L 138.35956 60.348479 
L 26.6051 144.496417 
" style="fill:none;stroke:#b0b0b0;stroke-width:0.8;"/>
    <path d="M 317.897601 92.18363 
L 138.193889 45.941277 
L 25.867184 129.173123 
" style="fill:none;stroke:#b0b0b0;stroke-width:0.8;"/>
   </g>
   <g id="xtick_18">
    <g id="line2d_21">
     <path d="M 311.153573 207.302811 
L 315.516455 208.564692 
" style="fill:none;stroke:#000000;stroke-linecap:square;stroke-width:0.8;"/>
    </g>
    <g id="text_21">
     <!-- −3 -->
     <g transform="translate(323.525069 212.723308)scale(0.1 -0.1)">
      <defs>
       <path d="M 10.59375 35.5 
L 73.1875 35.5 
L 73.1875 27.203125 
L 10.59375 27.203125 
z
" id="DejaVuSans-8722"/>
       <path d="M 40.578125 39.3125 
Q 47.65625 37.796875 51.625 33 
Q 55.609375 28.21875 55.609375 21.1875 
Q 55.609375 10.40625 48.1875 4.484375 
Q 40.765625 -1.421875 27.09375 -1.421875 
Q 22.515625 -1.421875 17.65625 -0.515625 
Q 12.796875 0.390625 7.625 2.203125 
L 7.625 11.71875 
Q 11.71875 9.328125 16.59375 8.109375 
Q 21.484375 6.890625 26.8125 6.890625 
Q 36.078125 6.890625 40.9375 10.546875 
Q 45.796875 14.203125 45.796875 21.1875 
Q 45.796875 27.640625 41.28125 31.265625 
Q 36.765625 34.90625 28.71875 34.90625 
L 20.21875 34.90625 
L 20.21875 43.015625 
L 29.109375 43.015625 
Q 36.375 43.015625 40.234375 45.921875 
Q 44.09375 48.828125 44.09375 54.296875 
Q 44.09375 59.90625 40.109375 62.90625 
Q 36.140625 65.921875 28.71875 65.921875 
Q 24.65625 65.921875 20.015625 65.03125 
Q 15.375 64.15625 9.8125 62.3125 
L 9.8125 71.09375 
Q 15.4375 72.65625 20.34375 73.4375 
Q 25.25 74.21875 29.59375 74.21875 
Q 40.828125 74.21875 47.359375 69.109375 
Q 53.90625 64.015625 53.90625 55.328125 
Q 53.90625 49.265625 50.4375 45.09375 
Q 46.96875 40.921875 40.578125 39.3125 
z
" id="DejaVuSans-51"/>
      </defs>
      <use xlink:href="#DejaVuSans-8722"/>
      <use x="83.789062" xlink:href="#DejaVuSans-51"/>
     </g>
    </g>
   </g>
   <g id="xtick_19">
    <g id="line2d_22">
     <path d="M 311.786461 193.333039 
L 316.170358 194.584061 
" style="fill:none;stroke:#000000;stroke-linecap:square;stroke-width:0.8;"/>
    </g>
    <g id="text_22">
     <!-- −2 -->
     <g transform="translate(324.24802 198.772312)scale(0.1 -0.1)">
      <use xlink:href="#DejaVuSans-8722"/>
      <use x="83.789062" xlink:href="#DejaVuSans-50"/>
     </g>
    </g>
   </g>
   <g id="xtick_20">
    <g id="line2d_23">
     <path d="M 312.425246 179.233089 
L 316.830362 180.472993 
" style="fill:none;stroke:#000000;stroke-linecap:square;stroke-width:0.8;"/>
    </g>
    <g id="text_23">
     <!-- −1 -->
     <g transform="translate(324.977695 184.691581)scale(0.1 -0.1)">
      <use xlink:href="#DejaVuSans-8722"/>
      <use x="83.789062" xlink:href="#DejaVuSans-49"/>
     </g>
    </g>
   </g>
   <g id="xtick_21">
    <g id="line2d_24">
     <path d="M 313.070012 165.001131 
L 317.496553 166.229655 
" style="fill:none;stroke:#000000;stroke-linecap:square;stroke-width:0.8;"/>
    </g>
    <g id="text_24">
     <!-- 0 -->
     <g transform="translate(329.90403 170.479298)scale(0.1 -0.1)">
      <use xlink:href="#DejaVuSans-48"/>
     </g>
    </g>
   </g>
   <g id="xtick_22">
    <g id="line2d_25">
     <path d="M 313.720843 150.635304 
L 318.169017 151.852178 
" style="fill:none;stroke:#000000;stroke-linecap:square;stroke-width:0.8;"/>
    </g>
    <g id="text_25">
     <!-- 1 -->
     <g transform="translate(330.647435 156.13361)scale(0.1 -0.1)">
      <use xlink:href="#DejaVuSans-49"/>
     </g>
    </g>
   </g>
   <g id="xtick_23">
    <g id="line2d_26">
     <path d="M 314.377825 136.13371 
L 318.847845 137.338658 
" style="fill:none;stroke:#000000;stroke-linecap:square;stroke-width:0.8;"/>
    </g>
    <g id="text_26">
     <!-- 2 -->
     <g transform="translate(331.397851 141.652631)scale(0.1 -0.1)">
      <use xlink:href="#DejaVuSans-50"/>
     </g>
    </g>
   </g>
   <g id="xtick_24">
    <g id="line2d_27">
     <path d="M 315.041045 121.494415 
L 319.533126 122.687154 
" style="fill:none;stroke:#000000;stroke-linecap:square;stroke-width:0.8;"/>
    </g>
    <g id="text_27">
     <!-- 3 -->
     <g transform="translate(332.155377 127.034437)scale(0.1 -0.1)">
      <use xlink:href="#DejaVuSans-51"/>
     </g>
    </g>
   </g>
   <g id="xtick_25">
    <g id="line2d_28">
     <path d="M 315.710593 106.715448 
L 320.224954 107.895691 
" style="fill:none;stroke:#000000;stroke-linecap:square;stroke-width:0.8;"/>
    </g>
    <g id="text_28">
     <!-- 4 -->
     <g transform="translate(332.920116 112.27707)scale(0.1 -0.1)">
      <use xlink:href="#DejaVuSans-52"/>
     </g>
    </g>
   </g>
   <g id="xtick_26">
    <g id="line2d_29">
     <path d="M 316.386559 91.794801 
L 320.923422 92.962251 
" style="fill:none;stroke:#000000;stroke-linecap:square;stroke-width:0.8;"/>
    </g>
    <g id="text_29">
     <!-- 5 -->
     <g transform="translate(333.69217 97.378531)scale(0.1 -0.1)">
      <use xlink:href="#DejaVuSans-53"/>
     </g>
    </g>
   </g>
  </g>
  <g id="axes_1">
   <g id="line2d_30">
    <path clip-path="url(#pfbd7cacdbf)" d="M 91.956246 158.08416 
L 98.185893 162.648118 
L 104.472091 167.253507 
L 110.815614 171.900893 
L 117.217248 176.590853 
L 123.677797 181.323974 
L 130.198077 186.100856 
L 136.77892 190.922108 
L 143.421175 195.788351 
L 150.125705 200.700218 
L 156.89339 205.658353 
L 163.725127 210.663414 
L 170.621828 215.71607 
L 177.584426 220.817002 
L 184.613869 225.966906 
L 191.711124 231.166491 
L 198.877178 236.416479 
L 206.113036 241.717607 
L 213.419722 247.070625 
L 220.798282 252.476299 
" style="fill:none;stroke:#000000;stroke-linecap:square;stroke-width:2;"/>
   </g>
   <g id="line2d_31">
    <path clip-path="url(#pfbd7cacdbf)" d="M 108.716565 144.627549 
L 114.937566 149.070447 
L 121.21428 153.553134 
L 127.547459 158.076147 
L 133.937868 162.640033 
L 140.386287 167.245349 
L 146.893509 171.89266 
L 153.460343 176.582544 
L 160.087611 181.315589 
L 166.776151 186.092393 
L 173.526817 190.913566 
L 180.340478 195.779729 
L 187.218021 200.691515 
L 194.160349 205.649569 
L 201.16838 210.654546 
L 208.243052 215.707117 
L 215.38532 220.807963 
L 222.596158 225.957781 
L 229.876557 231.157278 
L 237.22753 236.407176 
" style="fill:none;stroke:#000000;stroke-dasharray:7.4,3.2;stroke-dashoffset:0;stroke-width:2;"/>
   </g>
   <g id="line2d_32">
    <path clip-path="url(#pfbd7cacdbf)" d="M 74.737138 171.909126 
L 80.973568 176.599161 
L 87.267392 181.332359 
L 93.619406 186.109319 
L 100.030422 190.93065 
L 106.501265 195.796973 
L 113.032776 200.708921 
L 119.625813 205.667138 
L 126.281249 210.672282 
L 132.999974 215.725022 
L 139.782895 220.82604 
L 146.630937 225.976032 
L 153.545042 231.175705 
L 160.526171 236.425783 
L 167.575303 241.727001 
L 174.693436 247.080112 
L 181.881589 252.485879 
L 189.1408 257.945085 
L 196.472127 263.458526 
L 203.876651 269.027013 
" style="fill:none;stroke:#000000;stroke-dasharray:7.4,3.2;stroke-dashoffset:0;stroke-width:2;"/>
   </g>
   <g id="line2d_33">
    <defs>
     <path d="M 0 -3 
L -3 3 
L 3 3 
z
" id="m4fc6da6f63" style="stroke:#008000;stroke-linejoin:miter;"/>
    </defs>
    <g clip-path="url(#pfbd7cacdbf)">
     <use style="fill:#008000;stroke:#008000;stroke-linejoin:miter;" x="188.341023" xlink:href="#m4fc6da6f63" y="182.627609"/>
     <use style="fill:#008000;stroke:#008000;stroke-linejoin:miter;" x="268.629638" xlink:href="#m4fc6da6f63" y="194.278006"/>
     <use style="fill:#008000;stroke:#008000;stroke-linejoin:miter;" x="227.495952" xlink:href="#m4fc6da6f63" y="200.013583"/>
     <use style="fill:#008000;stroke:#008000;stroke-linejoin:miter;" x="264.322082" xlink:href="#m4fc6da6f63" y="187.229556"/>
     <use style="fill:#008000;stroke:#008000;stroke-linejoin:miter;" x="126.709016" xlink:href="#m4fc6da6f63" y="176.226561"/>
     <use style="fill:#008000;stroke:#008000;stroke-linejoin:miter;" x="245.452018" xlink:href="#m4fc6da6f63" y="205.291862"/>
     <use style="fill:#008000;stroke:#008000;stroke-linejoin:miter;" x="193.259568" xlink:href="#m4fc6da6f63" y="178.247021"/>
     <use style="fill:#008000;stroke:#008000;stroke-linejoin:miter;" x="205.805692" xlink:href="#m4fc6da6f63" y="187.732446"/>
     <use style="fill:#008000;stroke:#008000;stroke-linejoin:miter;" x="233.036583" xlink:href="#m4fc6da6f63" y="183.990523"/>
     <use style="fill:#008000;stroke:#008000;stroke-linejoin:miter;" x="184.616003" xlink:href="#m4fc6da6f63" y="175.734737"/>
     <use style="fill:#008000;stroke:#008000;stroke-linejoin:miter;" x="212.524187" xlink:href="#m4fc6da6f63" y="161.089434"/>
     <use style="fill:#008000;stroke:#008000;stroke-linejoin:miter;" x="225.033867" xlink:href="#m4fc6da6f63" y="170.26015"/>
     <use style="fill:#008000;stroke:#008000;stroke-linejoin:miter;" x="218.584982" xlink:href="#m4fc6da6f63" y="197.394156"/>
     <use style="fill:#008000;stroke:#008000;stroke-linejoin:miter;" x="159.473627" xlink:href="#m4fc6da6f63" y="197.906934"/>
     <use style="fill:#008000;stroke:#008000;stroke-linejoin:miter;" x="260.072175" xlink:href="#m4fc6da6f63" y="180.275437"/>
     <use style="fill:#008000;stroke:#008000;stroke-linejoin:miter;" x="176.01449" xlink:href="#m4fc6da6f63" y="173.234675"/>
     <use style="fill:#008000;stroke:#008000;stroke-linejoin:miter;" x="166.037314" xlink:href="#m4fc6da6f63" y="181.947495"/>
     <use style="fill:#008000;stroke:#008000;stroke-linejoin:miter;" x="250.745187" xlink:href="#m4fc6da6f63" y="189.108852"/>
     <use style="fill:#008000;stroke:#008000;stroke-linejoin:miter;" x="157.429398" xlink:href="#m4fc6da6f63" y="179.417154"/>
     <use style="fill:#008000;stroke:#008000;stroke-linejoin:miter;" x="166.037314" xlink:href="#m4fc6da6f63" y="181.947495"/>
     <use style="fill:#008000;stroke:#008000;stroke-linejoin:miter;" x="241.869067" xlink:href="#m4fc6da6f63" y="186.543381"/>
     <use style="fill:#008000;stroke:#008000;stroke-linejoin:miter;" x="235.768854" xlink:href="#m4fc6da6f63" y="214.560524"/>
     <use style="fill:#008000;stroke:#008000;stroke-linejoin:miter;" x="246.578659" xlink:href="#m4fc6da6f63" y="182.129643"/>
     <use style="fill:#008000;stroke:#008000;stroke-linejoin:miter;" x="168.241341" xlink:href="#m4fc6da6f63" y="200.528924"/>
     <use style="fill:#008000;stroke:#008000;stroke-linejoin:miter;" x="207.741616" xlink:href="#m4fc6da6f63" y="218.526959"/>
     <use style="fill:#008000;stroke:#008000;stroke-linejoin:miter;" x="255.878766" xlink:href="#m4fc6da6f63" y="173.413766"/>
     <use style="fill:#008000;stroke:#008000;stroke-linejoin:miter;" x="218.584982" xlink:href="#m4fc6da6f63" y="197.394156"/>
     <use style="fill:#008000;stroke:#008000;stroke-linejoin:miter;" x="157.429398" xlink:href="#m4fc6da6f63" y="179.417154"/>
     <use style="fill:#008000;stroke:#008000;stroke-linejoin:miter;" x="224.247414" xlink:href="#m4fc6da6f63" y="181.450184"/>
     <use style="fill:#008000;stroke:#008000;stroke-linejoin:miter;" x="255.878766" xlink:href="#m4fc6da6f63" y="173.413766"/>
     <use style="fill:#008000;stroke:#008000;stroke-linejoin:miter;" x="207.768439" xlink:href="#m4fc6da6f63" y="165.325031"/>
     <use style="fill:#008000;stroke:#008000;stroke-linejoin:miter;" x="188.341023" xlink:href="#m4fc6da6f63" y="182.627609"/>
     <use style="fill:#008000;stroke:#008000;stroke-linejoin:miter;" x="277.850051" xlink:href="#m4fc6da6f63" y="185.357033"/>
     <use style="fill:#008000;stroke:#008000;stroke-linejoin:miter;" x="269.242223" xlink:href="#m4fc6da6f63" y="171.590655"/>
     <use style="fill:#008000;stroke:#008000;stroke-linejoin:miter;" x="216.380265" xlink:href="#m4fc6da6f63" y="167.78662"/>
     <use style="fill:#008000;stroke:#008000;stroke-linejoin:miter;" x="179.672841" xlink:href="#m4fc6da6f63" y="180.093941"/>
     <use style="fill:#008000;stroke:#008000;stroke-linejoin:miter;" x="201.945494" xlink:href="#m4fc6da6f63" y="180.771617"/>
     <use style="fill:#008000;stroke:#008000;stroke-linejoin:miter;" x="233.729549" xlink:href="#m4fc6da6f63" y="172.745708"/>
     <use style="fill:#008000;stroke:#008000;stroke-linejoin:miter;" x="183.380473" xlink:href="#m4fc6da6f63" y="187.045607"/>
    </g>
   </g>
   <g id="line2d_34">
    <defs>
     <path d="M -3 3 
L 3 3 
L 3 -3 
L -3 -3 
z
" id="m23841ca651" style="stroke:#0000ff;stroke-linejoin:miter;"/>
    </defs>
    <g clip-path="url(#pfbd7cacdbf)">
     <use style="fill:#0000ff;stroke:#0000ff;stroke-linejoin:miter;" x="128.197836" xlink:href="#m23841ca651" y="194.601108"/>
     <use style="fill:#0000ff;stroke:#0000ff;stroke-linejoin:miter;" x="116.282231" xlink:href="#m23841ca651" y="184.990524"/>
     <use style="fill:#0000ff;stroke:#0000ff;stroke-linejoin:miter;" x="150.749486" xlink:href="#m23841ca651" y="195.297975"/>
     <use style="fill:#0000ff;stroke:#0000ff;stroke-linejoin:miter;" x="124.835284" xlink:href="#m23841ca651" y="187.548319"/>
     <use style="fill:#0000ff;stroke:#0000ff;stroke-linejoin:miter;" x="105.676178" xlink:href="#m23841ca651" y="193.905167"/>
     <use style="fill:#0000ff;stroke:#0000ff;stroke-linejoin:miter;" x="138.618801" xlink:href="#m23841ca651" y="185.674648"/>
     <use style="fill:#0000ff;stroke:#0000ff;stroke-linejoin:miter;" x="114.276555" xlink:href="#m23841ca651" y="196.507183"/>
     <use style="fill:#0000ff;stroke:#0000ff;stroke-linejoin:miter;" x="90.873755" xlink:href="#m23841ca651" y="177.392106"/>
     <use style="fill:#0000ff;stroke:#0000ff;stroke-linejoin:miter;" x="128.197836" xlink:href="#m23841ca651" y="194.601108"/>
     <use style="fill:#0000ff;stroke:#0000ff;stroke-linejoin:miter;" x="102.467513" xlink:href="#m23841ca651" y="186.861724"/>
     <use style="fill:#0000ff;stroke:#0000ff;stroke-linejoin:miter;" x="116.282231" xlink:href="#m23841ca651" y="184.990524"/>
     <use style="fill:#0000ff;stroke:#0000ff;stroke-linejoin:miter;" x="55.164259" xlink:href="#m23841ca651" y="197.019094"/>
     <use style="fill:#0000ff;stroke:#0000ff;stroke-linejoin:miter;" x="116.282231" xlink:href="#m23841ca651" y="184.990524"/>
     <use style="fill:#0000ff;stroke:#0000ff;stroke-linejoin:miter;" x="157.429398" xlink:href="#m23841ca651" y="179.417154"/>
     <use style="fill:#0000ff;stroke:#0000ff;stroke-linejoin:miter;" x="150.749486" xlink:href="#m23841ca651" y="195.297975"/>
     <use style="fill:#0000ff;stroke:#0000ff;stroke-linejoin:miter;" x="117.596028" xlink:href="#m23841ca651" y="203.682476"/>
     <use style="fill:#0000ff;stroke:#0000ff;stroke-linejoin:miter;" x="88.602848" xlink:href="#m23841ca651" y="188.739688"/>
     <use style="fill:#0000ff;stroke:#0000ff;stroke-linejoin:miter;" x="102.467513" xlink:href="#m23841ca651" y="186.861724"/>
     <use style="fill:#0000ff;stroke:#0000ff;stroke-linejoin:miter;" x="136.860017" xlink:href="#m23841ca651" y="197.206592"/>
     <use style="fill:#0000ff;stroke:#0000ff;stroke-linejoin:miter;" x="169.659642" xlink:href="#m23841ca651" y="188.924237"/>
     <use style="fill:#0000ff;stroke:#0000ff;stroke-linejoin:miter;" x="116.282231" xlink:href="#m23841ca651" y="184.990524"/>
     <use style="fill:#0000ff;stroke:#0000ff;stroke-linejoin:miter;" x="173.331187" xlink:href="#m23841ca651" y="195.995771"/>
     <use style="fill:#0000ff;stroke:#0000ff;stroke-linejoin:miter;" x="116.282231" xlink:href="#m23841ca651" y="184.990524"/>
     <use style="fill:#0000ff;stroke:#0000ff;stroke-linejoin:miter;" x="121.517747" xlink:href="#m23841ca651" y="180.589947"/>
     <use style="fill:#0000ff;stroke:#0000ff;stroke-linejoin:miter;" x="133.430634" xlink:href="#m23841ca651" y="190.118763"/>
     <use style="fill:#0000ff;stroke:#0000ff;stroke-linejoin:miter;" x="97.118381" xlink:href="#m23841ca651" y="191.316034"/>
     <use style="fill:#0000ff;stroke:#0000ff;stroke-linejoin:miter;" x="71.69733" xlink:href="#m23841ca651" y="183.624979"/>
     <use style="fill:#0000ff;stroke:#0000ff;stroke-linejoin:miter;" x="91.723182" xlink:href="#m23841ca651" y="195.808706"/>
     <use style="fill:#0000ff;stroke:#0000ff;stroke-linejoin:miter;" x="119.57857" xlink:href="#m23841ca651" y="192.008532"/>
     <use style="fill:#0000ff;stroke:#0000ff;stroke-linejoin:miter;" x="80.129268" xlink:href="#m23841ca651" y="186.176034"/>
     <use style="fill:#0000ff;stroke:#0000ff;stroke-linejoin:miter;" x="74.687967" xlink:href="#m23841ca651" y="190.624454"/>
     <use style="fill:#0000ff;stroke:#0000ff;stroke-linejoin:miter;" x="80.129268" xlink:href="#m23841ca651" y="186.176034"/>
     <use style="fill:#0000ff;stroke:#0000ff;stroke-linejoin:miter;" x="88.602848" xlink:href="#m23841ca651" y="188.739688"/>
     <use style="fill:#0000ff;stroke:#0000ff;stroke-linejoin:miter;" x="71.69733" xlink:href="#m23841ca651" y="183.624979"/>
    </g>
   </g>
   <g id="Line3DCollection_4">
    <path clip-path="url(#pfbd7cacdbf)" d="M 37.522858 249.468225 
L 46.253126 250.251474 
L 55.041323 251.03992 
L 63.888028 251.833615 
L 72.793829 252.632612 
L 81.759317 253.436964 
L 90.785097 254.246725 
L 99.871777 255.06195 
L 109.019977 255.882694 
L 118.230323 256.709013 
L 127.503451 257.540966 
L 136.840005 258.378608 
L 146.240637 259.222 
L 155.70601 260.0712 
L 165.236796 260.926268 
L 174.833673 261.787266 
L 184.497332 262.654255 
L 194.228473 263.527299 
L 204.027805 264.40646 
L 213.896048 265.291804 
" style="fill:none;stroke:#000000;stroke-opacity:0.3;stroke-width:1.5;"/>
    <path clip-path="url(#pfbd7cacdbf)" d="M 43.195327 239.94515 
L 51.91855 240.694691 
L 60.699485 241.449191 
L 69.538706 242.208699 
L 78.436797 242.973265 
L 87.394345 243.74294 
L 96.411951 244.517776 
L 105.490219 245.297824 
L 114.629764 246.083137 
L 123.831209 246.873769 
L 133.095184 247.669774 
L 142.422329 248.471207 
L 151.813292 249.278124 
L 161.268731 250.09058 
L 170.789312 250.908634 
L 180.37571 251.732343 
L 190.028611 252.561766 
L 199.748708 253.396963 
L 209.536705 254.237995 
L 219.393318 255.084922 
" style="fill:none;stroke:#000000;stroke-opacity:0.3;stroke-width:1.5;"/>
    <path clip-path="url(#pfbd7cacdbf)" d="M 48.834546 230.477895 
L 57.550657 231.19411 
L 66.324262 231.915049 
L 75.155934 232.64076 
L 84.046248 233.37129 
L 92.995793 234.106686 
L 102.005161 234.846998 
L 111.074955 235.592276 
L 120.205784 236.342569 
L 129.398267 237.097928 
L 138.65303 237.858404 
L 147.970708 238.624051 
L 157.351946 239.39492 
L 166.797395 240.171066 
L 176.307717 240.952542 
L 185.883583 241.739404 
L 195.525673 242.531708 
L 205.234676 243.32951 
L 215.011291 244.132868 
L 224.856226 244.94184 
" style="fill:none;stroke:#000000;stroke-opacity:0.3;stroke-width:1.5;"/>
    <path clip-path="url(#pfbd7cacdbf)" d="M 54.440806 221.065972 
L 63.149739 221.749238 
L 71.91595 222.436997 
L 80.740006 223.129295 
L 89.622482 223.826176 
L 98.563959 224.527686 
L 107.565028 225.233871 
L 116.626287 225.944779 
L 125.74834 226.660456 
L 134.931803 227.380951 
L 144.177296 228.106313 
L 153.485452 228.836591 
L 162.856908 229.571836 
L 172.292313 230.312097 
L 181.792324 231.057428 
L 191.357607 231.807879 
L 200.988836 232.563504 
L 210.686696 233.324357 
L 220.45188 234.090491 
L 230.285093 234.861963 
" style="fill:none;stroke:#000000;stroke-opacity:0.3;stroke-width:1.5;"/>
    <path clip-path="url(#pfbd7cacdbf)" d="M 60.014396 211.708896 
L 68.716086 212.359585 
L 77.474838 213.01454 
L 86.291216 213.673804 
L 95.165791 214.33742 
L 104.09914 215.005431 
L 113.09185 215.677881 
L 122.144514 216.354814 
L 131.257733 217.036276 
L 140.432118 217.722311 
L 149.668286 218.412966 
L 158.966863 219.108288 
L 168.328485 219.808324 
L 177.753794 220.513122 
L 187.243443 221.222732 
L 196.798092 221.937202 
L 206.418412 222.656583 
L 216.105082 223.380926 
L 225.858791 224.110281 
L 235.680237 224.844701 
" style="fill:none;stroke:#000000;stroke-opacity:0.3;stroke-width:1.5;"/>
    <path clip-path="url(#pfbd7cacdbf)" d="M 65.555601 202.40619 
L 74.249984 203.024668 
L 83.001215 203.64719 
L 91.809853 204.273795 
L 100.676466 204.904525 
L 109.601627 205.539419 
L 118.585919 206.17852 
L 127.629931 206.821869 
L 136.734259 207.469509 
L 145.899511 208.121482 
L 155.126299 208.777833 
L 164.415245 209.438605 
L 173.76698 210.103844 
L 183.182142 210.773595 
L 192.661378 211.447904 
L 202.205346 212.126817 
L 211.814709 212.810382 
L 221.490144 213.498648 
L 231.232333 214.191662 
L 241.04197 214.889474 
" style="fill:none;stroke:#000000;stroke-opacity:0.3;stroke-width:1.5;"/>
    <path clip-path="url(#pfbd7cacdbf)" d="M 71.064702 193.157381 
L 79.751716 193.744011 
L 88.495365 194.334466 
L 97.296204 194.928782 
L 106.154795 195.526998 
L 115.07171 196.129154 
L 124.047527 196.735286 
L 133.08283 197.345436 
L 142.178213 197.959643 
L 151.334277 198.577947 
L 160.551632 199.200391 
L 169.830895 199.827015 
L 179.172692 200.457862 
L 188.577657 201.092975 
L 198.046433 201.732397 
L 207.579672 202.376172 
L 217.178034 203.024345 
L 226.842189 203.676961 
L 236.572815 204.334065 
L 246.370602 204.995705 
" style="fill:none;stroke:#000000;stroke-opacity:0.3;stroke-width:1.5;"/>
    <path clip-path="url(#pfbd7cacdbf)" d="M 76.541977 183.962002 
L 85.221562 184.517142 
L 93.957569 185.07589 
L 102.750549 185.638282 
L 111.601062 186.204355 
L 120.509674 186.774143 
L 129.476959 187.347683 
L 138.503499 187.925014 
L 147.589882 188.506172 
L 156.736706 189.091196 
L 165.944577 189.680124 
L 175.214106 190.272996 
L 184.545916 190.869852 
L 193.940636 191.470731 
L 203.398906 192.075674 
L 212.92137 192.684724 
L 222.508687 193.297921 
L 232.161519 193.915309 
L 241.880542 194.53693 
L 251.666438 195.162829 
" style="fill:none;stroke:#000000;stroke-opacity:0.3;stroke-width:1.5;"/>
    <path clip-path="url(#pfbd7cacdbf)" d="M 81.9877 174.819592 
L 90.659798 175.343594 
L 99.388105 175.870993 
L 108.17317 176.401821 
L 117.015548 176.936113 
L 125.915801 177.473901 
L 134.8745 178.015221 
L 143.892223 178.560108 
L 152.969554 179.108596 
L 162.107087 179.660722 
L 171.305423 180.216522 
L 180.56517 180.776032 
L 189.886945 181.339291 
L 199.271374 181.906335 
L 208.719091 182.477203 
L 218.230738 183.051935 
L 227.806965 183.630568 
L 237.448434 184.213144 
L 247.155814 184.799702 
L 256.929781 185.390284 
" style="fill:none;stroke:#000000;stroke-opacity:0.3;stroke-width:1.5;"/>
    <path clip-path="url(#pfbd7cacdbf)" d="M 87.402145 165.729693 
L 96.066698 166.222907 
L 104.787248 166.719308 
L 113.564341 167.218928 
L 122.398529 167.721798 
L 131.29037 168.22795 
L 140.24043 168.737416 
L 149.249284 169.250228 
L 158.317512 169.766421 
L 167.445704 170.286026 
L 176.634456 170.809079 
L 185.884372 171.335614 
L 195.196067 171.865665 
L 204.570159 172.399268 
L 214.00728 172.936459 
L 223.508066 173.477274 
L 233.073164 174.021749 
L 242.703229 174.569923 
L 252.398926 175.121833 
L 262.160928 175.677517 
" style="fill:none;stroke:#000000;stroke-opacity:0.3;stroke-width:1.5;"/>
    <path clip-path="url(#pfbd7cacdbf)" d="M 92.78558 156.691855 
L 101.44253 157.154625 
L 110.155269 157.620376 
L 118.924336 158.089139 
L 127.75028 158.560942 
L 136.633656 159.035815 
L 145.575026 159.513788 
L 154.57496 159.994892 
L 163.634036 160.479157 
L 172.752838 160.966616 
L 181.931958 161.457298 
L 191.171999 161.951237 
L 200.473566 162.448466 
L 209.837279 162.949016 
L 219.26376 163.452921 
L 228.753644 163.960216 
L 238.307573 164.470935 
L 247.926196 164.985111 
L 257.610174 165.502782 
L 267.360174 166.023982 
" style="fill:none;stroke:#000000;stroke-opacity:0.3;stroke-width:1.5;"/>
    <path clip-path="url(#pfbd7cacdbf)" d="M 98.13827 147.705632 
L 106.787564 148.138297 
L 115.492436 148.573742 
L 124.253424 149.011993 
L 133.071072 149.453079 
L 141.945931 149.897027 
L 150.878561 150.343865 
L 159.869526 150.793621 
L 168.919401 151.246324 
L 178.028766 151.702002 
L 187.198209 152.160686 
L 196.428328 152.622405 
L 205.719726 153.08719 
L 215.073015 153.55507 
L 224.488817 154.026078 
L 233.967759 154.500244 
L 243.510479 154.9776 
L 253.117623 155.458179 
L 262.789846 155.942014 
L 272.52781 156.429137 
" style="fill:none;stroke:#000000;stroke-opacity:0.3;stroke-width:1.5;"/>
    <path clip-path="url(#pfbd7cacdbf)" d="M 103.460477 138.770584 
L 112.102061 139.173479 
L 120.799015 139.578955 
L 129.551872 139.987038 
L 138.361173 140.397753 
L 147.227466 140.811124 
L 156.151306 141.227179 
L 165.133254 141.645943 
L 174.173881 142.067442 
L 183.273763 142.491705 
L 192.433485 142.918757 
L 201.653638 143.348626 
L 210.934823 143.781341 
L 220.277649 144.21693 
L 229.68273 144.655422 
L 239.150691 145.096845 
L 248.682166 145.541229 
L 258.277795 145.988605 
L 267.938228 146.439001 
L 277.664124 146.89245 
" style="fill:none;stroke:#000000;stroke-opacity:0.3;stroke-width:1.5;"/>
    <path clip-path="url(#pfbd7cacdbf)" d="M 108.752463 129.886273 
L 117.386284 130.25973 
L 126.075267 130.635573 
L 134.819943 131.013825 
L 143.620847 131.394509 
L 152.478525 131.777648 
L 161.393527 132.163268 
L 170.366412 132.551391 
L 179.397746 132.942042 
L 188.4881 133.335246 
L 197.638056 133.731028 
L 206.848202 134.129414 
L 216.119134 134.530429 
L 225.451455 134.9341 
L 234.845778 135.340452 
L 244.302721 135.749513 
L 253.822914 136.16131 
L 263.406993 136.57587 
L 273.055603 136.993222 
L 282.769398 137.413393 
" style="fill:none;stroke:#000000;stroke-opacity:0.3;stroke-width:1.5;"/>
    <path clip-path="url(#pfbd7cacdbf)" d="M 114.014482 121.05227 
L 122.64049 121.396615 
L 131.321453 121.743154 
L 140.057897 122.091908 
L 148.850357 122.442899 
L 157.699372 122.796147 
L 166.605491 123.151674 
L 175.569267 123.509503 
L 184.591262 123.869656 
L 193.672046 124.232156 
L 202.812194 124.597026 
L 212.012292 124.964289 
L 221.27293 125.333968 
L 230.594708 125.706089 
L 239.978234 126.080674 
L 249.424123 126.457749 
L 258.933 126.837338 
L 268.505495 127.219467 
L 278.14225 127.604161 
L 287.843915 127.991446 
" style="fill:none;stroke:#000000;stroke-opacity:0.3;stroke-width:1.5;"/>
    <path clip-path="url(#pfbd7cacdbf)" d="M 119.24679 112.268147 
L 127.864935 112.583704 
L 136.537828 112.901266 
L 145.265993 113.220851 
L 154.049961 113.54248 
L 162.890267 113.866172 
L 171.787456 114.191946 
L 180.742079 114.519824 
L 189.754693 114.849824 
L 198.825864 115.181969 
L 207.956164 115.516279 
L 217.146173 115.852775 
L 226.396479 116.191479 
L 235.707677 116.532413 
L 245.08037 116.875598 
L 254.515171 117.221057 
L 264.012697 117.568813 
L 273.573577 117.918889 
L 283.198446 118.271308 
L 292.88795 118.626093 
" style="fill:none;stroke:#000000;stroke-opacity:0.3;stroke-width:1.5;"/>
    <path clip-path="url(#pfbd7cacdbf)" d="M 124.449637 103.533484 
L 133.059869 103.820572 
L 141.724646 104.109478 
L 150.444485 104.40022 
L 159.219915 104.692815 
L 168.051467 104.987282 
L 176.939683 105.283638 
L 185.88511 105.581902 
L 194.888301 105.882092 
L 203.949817 106.184226 
L 213.070229 106.488324 
L 222.250111 106.794405 
L 231.490047 107.102488 
L 240.790629 107.412594 
L 250.152455 107.724741 
L 259.576132 108.038951 
L 269.062275 108.355244 
L 278.611509 108.67364 
L 288.224463 108.99416 
L 297.901778 109.316827 
" style="fill:none;stroke:#000000;stroke-opacity:0.3;stroke-width:1.5;"/>
    <path clip-path="url(#pfbd7cacdbf)" d="M 129.623271 94.847865 
L 138.225544 95.106797 
L 146.882156 95.367366 
L 155.593624 95.629585 
L 164.360471 95.893471 
L 173.183226 96.15904 
L 182.062426 96.426308 
L 190.998614 96.695292 
L 199.992341 96.966007 
L 209.044165 97.238472 
L 218.154649 97.512701 
L 227.324367 97.788714 
L 236.553897 98.066527 
L 245.843827 98.346159 
L 255.194751 98.627626 
L 264.607273 98.910947 
L 274.082003 99.196141 
L 283.619559 99.483226 
L 293.22057 99.772221 
L 302.885669 100.063145 
" style="fill:none;stroke:#000000;stroke-opacity:0.3;stroke-width:1.5;"/>
    <path clip-path="url(#pfbd7cacdbf)" d="M 134.767937 86.210877 
L 143.362205 86.441965 
L 152.010608 86.674509 
L 160.71366 86.908523 
L 169.47188 87.14402 
L 178.285795 87.381014 
L 187.155937 87.61952 
L 196.082847 87.859553 
L 205.067071 88.101127 
L 214.109162 88.344257 
L 223.209682 88.588958 
L 232.369198 88.835245 
L 241.588287 89.083134 
L 250.867531 89.33264 
L 260.207522 89.58378 
L 269.608857 89.83657 
L 279.072143 90.091025 
L 288.597994 90.347162 
L 298.187033 90.604999 
L 307.839891 90.864551 
" style="fill:none;stroke:#000000;stroke-opacity:0.3;stroke-width:1.5;"/>
    <path clip-path="url(#pfbd7cacdbf)" d="M 139.883878 77.622113 
L 148.470095 77.825664 
L 157.110245 78.030494 
L 165.804838 78.236614 
L 174.55439 78.444038 
L 183.359423 78.652776 
L 192.220467 78.862843 
L 201.138058 79.07425 
L 210.11274 79.28701 
L 219.145061 79.501137 
L 228.23558 79.716644 
L 237.384861 79.933544 
L 246.593475 80.15185 
L 255.862001 80.371576 
L 265.191025 80.592737 
L 274.581143 80.815346 
L 284.032956 81.039418 
L 293.547074 81.264967 
L 303.124116 81.492007 
L 312.764707 81.720554 
" style="fill:none;stroke:#000000;stroke-opacity:0.3;stroke-width:1.5;"/>
    <path clip-path="url(#pfbd7cacdbf)" d="M 37.522858 249.468225 
L 43.195327 239.94515 
L 48.834546 230.477895 
L 54.440806 221.065972 
L 60.014396 211.708896 
L 65.555601 202.40619 
L 71.064702 193.157381 
L 76.541977 183.962002 
L 81.9877 174.819592 
L 87.402145 165.729693 
L 92.78558 156.691855 
L 98.13827 147.705632 
L 103.460477 138.770584 
L 108.752463 129.886273 
L 114.014482 121.05227 
L 119.24679 112.268147 
L 124.449637 103.533484 
L 129.623271 94.847865 
L 134.767937 86.210877 
L 139.883878 77.622113 
" style="fill:none;stroke:#000000;stroke-opacity:0.3;stroke-width:1.5;"/>
    <path clip-path="url(#pfbd7cacdbf)" d="M 46.253126 250.251474 
L 51.91855 240.694691 
L 57.550657 231.19411 
L 63.149739 221.749238 
L 68.716086 212.359585 
L 74.249984 203.024668 
L 79.751716 193.744011 
L 85.221562 184.517142 
L 90.659798 175.343594 
L 96.066698 166.222907 
L 101.44253 157.154625 
L 106.787564 148.138297 
L 112.102061 139.173479 
L 117.386284 130.25973 
L 122.64049 121.396615 
L 127.864935 112.583704 
L 133.059869 103.820572 
L 138.225544 95.106797 
L 143.362205 86.441965 
L 148.470095 77.825664 
" style="fill:none;stroke:#000000;stroke-opacity:0.3;stroke-width:1.5;"/>
    <path clip-path="url(#pfbd7cacdbf)" d="M 55.041323 251.03992 
L 60.699485 241.449191 
L 66.324262 231.915049 
L 71.91595 222.436997 
L 77.474838 213.01454 
L 83.001215 203.64719 
L 88.495365 194.334466 
L 93.957569 185.07589 
L 99.388105 175.870993 
L 104.787248 166.719308 
L 110.155269 157.620376 
L 115.492436 148.573742 
L 120.799015 139.578955 
L 126.075267 130.635573 
L 131.321453 121.743154 
L 136.537828 112.901266 
L 141.724646 104.109478 
L 146.882156 95.367366 
L 152.010608 86.674509 
L 157.110245 78.030494 
" style="fill:none;stroke:#000000;stroke-opacity:0.3;stroke-width:1.5;"/>
    <path clip-path="url(#pfbd7cacdbf)" d="M 63.888028 251.833615 
L 69.538706 242.208699 
L 75.155934 232.64076 
L 80.740006 223.129295 
L 86.291216 213.673804 
L 91.809853 204.273795 
L 97.296204 194.928782 
L 102.750549 185.638282 
L 108.17317 176.401821 
L 113.564341 167.218928 
L 118.924336 158.089139 
L 124.253424 149.011993 
L 129.551872 139.987038 
L 134.819943 131.013825 
L 140.057897 122.091908 
L 145.265993 113.220851 
L 150.444485 104.40022 
L 155.593624 95.629585 
L 160.71366 86.908523 
L 165.804838 78.236614 
" style="fill:none;stroke:#000000;stroke-opacity:0.3;stroke-width:1.5;"/>
    <path clip-path="url(#pfbd7cacdbf)" d="M 72.793829 252.632612 
L 78.436797 242.973265 
L 84.046248 233.37129 
L 89.622482 223.826176 
L 95.165791 214.33742 
L 100.676466 204.904525 
L 106.154795 195.526998 
L 111.601062 186.204355 
L 117.015548 176.936113 
L 122.398529 167.721798 
L 127.75028 158.560942 
L 133.071072 149.453079 
L 138.361173 140.397753 
L 143.620847 131.394509 
L 148.850357 122.442899 
L 154.049961 113.54248 
L 159.219915 104.692815 
L 164.360471 95.893471 
L 169.47188 87.14402 
L 174.55439 78.444038 
" style="fill:none;stroke:#000000;stroke-opacity:0.3;stroke-width:1.5;"/>
    <path clip-path="url(#pfbd7cacdbf)" d="M 81.759317 253.436964 
L 87.394345 243.74294 
L 92.995793 234.106686 
L 98.563959 224.527686 
L 104.09914 215.005431 
L 109.601627 205.539419 
L 115.07171 196.129154 
L 120.509674 186.774143 
L 125.915801 177.473901 
L 131.29037 168.22795 
L 136.633656 159.035815 
L 141.945931 149.897027 
L 147.227466 140.811124 
L 152.478525 131.777648 
L 157.699372 122.796147 
L 162.890267 113.866172 
L 168.051467 104.987282 
L 173.183226 96.15904 
L 178.285795 87.381014 
L 183.359423 78.652776 
" style="fill:none;stroke:#000000;stroke-opacity:0.3;stroke-width:1.5;"/>
    <path clip-path="url(#pfbd7cacdbf)" d="M 90.785097 254.246725 
L 96.411951 244.517776 
L 102.005161 234.846998 
L 107.565028 225.233871 
L 113.09185 215.677881 
L 118.585919 206.17852 
L 124.047527 196.735286 
L 129.476959 187.347683 
L 134.8745 178.015221 
L 140.24043 168.737416 
L 145.575026 159.513788 
L 150.878561 150.343865 
L 156.151306 141.227179 
L 161.393527 132.163268 
L 166.605491 123.151674 
L 171.787456 114.191946 
L 176.939683 105.283638 
L 182.062426 96.426308 
L 187.155937 87.61952 
L 192.220467 78.862843 
" style="fill:none;stroke:#000000;stroke-opacity:0.3;stroke-width:1.5;"/>
    <path clip-path="url(#pfbd7cacdbf)" d="M 99.871777 255.06195 
L 105.490219 245.297824 
L 111.074955 235.592276 
L 116.626287 225.944779 
L 122.144514 216.354814 
L 127.629931 206.821869 
L 133.08283 197.345436 
L 138.503499 187.925014 
L 143.892223 178.560108 
L 149.249284 169.250228 
L 154.57496 159.994892 
L 159.869526 150.793621 
L 165.133254 141.645943 
L 170.366412 132.551391 
L 175.569267 123.509503 
L 180.742079 114.519824 
L 185.88511 105.581902 
L 190.998614 96.695292 
L 196.082847 87.859553 
L 201.138058 79.07425 
" style="fill:none;stroke:#000000;stroke-opacity:0.3;stroke-width:1.5;"/>
    <path clip-path="url(#pfbd7cacdbf)" d="M 109.019977 255.882694 
L 114.629764 246.083137 
L 120.205784 236.342569 
L 125.74834 226.660456 
L 131.257733 217.036276 
L 136.734259 207.469509 
L 142.178213 197.959643 
L 147.589882 188.506172 
L 152.969554 179.108596 
L 158.317512 169.766421 
L 163.634036 160.479157 
L 168.919401 151.246324 
L 174.173881 142.067442 
L 179.397746 132.942042 
L 184.591262 123.869656 
L 189.754693 114.849824 
L 194.888301 105.882092 
L 199.992341 96.966007 
L 205.067071 88.101127 
L 210.11274 79.28701 
" style="fill:none;stroke:#000000;stroke-opacity:0.3;stroke-width:1.5;"/>
    <path clip-path="url(#pfbd7cacdbf)" d="M 118.230323 256.709013 
L 123.831209 246.873769 
L 129.398267 237.097928 
L 134.931803 227.380951 
L 140.432118 217.722311 
L 145.899511 208.121482 
L 151.334277 198.577947 
L 156.736706 189.091196 
L 162.107087 179.660722 
L 167.445704 170.286026 
L 172.752838 160.966616 
L 178.028766 151.702002 
L 183.273763 142.491705 
L 188.4881 133.335246 
L 193.672046 124.232156 
L 198.825864 115.181969 
L 203.949817 106.184226 
L 209.044165 97.238472 
L 214.109162 88.344257 
L 219.145061 79.501137 
" style="fill:none;stroke:#000000;stroke-opacity:0.3;stroke-width:1.5;"/>
    <path clip-path="url(#pfbd7cacdbf)" d="M 127.503451 257.540966 
L 133.095184 247.669774 
L 138.65303 237.858404 
L 144.177296 228.106313 
L 149.668286 218.412966 
L 155.126299 208.777833 
L 160.551632 199.200391 
L 165.944577 189.680124 
L 171.305423 180.216522 
L 176.634456 170.809079 
L 181.931958 161.457298 
L 187.198209 152.160686 
L 192.433485 142.918757 
L 197.638056 133.731028 
L 202.812194 124.597026 
L 207.956164 115.516279 
L 213.070229 106.488324 
L 218.154649 97.512701 
L 223.209682 88.588958 
L 228.23558 79.716644 
" style="fill:none;stroke:#000000;stroke-opacity:0.3;stroke-width:1.5;"/>
    <path clip-path="url(#pfbd7cacdbf)" d="M 136.840005 258.378608 
L 142.422329 248.471207 
L 147.970708 238.624051 
L 153.485452 228.836591 
L 158.966863 219.108288 
L 164.415245 209.438605 
L 169.830895 199.827015 
L 175.214106 190.272996 
L 180.56517 180.776032 
L 185.884372 171.335614 
L 191.171999 161.951237 
L 196.428328 152.622405 
L 201.653638 143.348626 
L 206.848202 134.129414 
L 212.012292 124.964289 
L 217.146173 115.852775 
L 222.250111 106.794405 
L 227.324367 97.788714 
L 232.369198 88.835245 
L 237.384861 79.933544 
" style="fill:none;stroke:#000000;stroke-opacity:0.3;stroke-width:1.5;"/>
    <path clip-path="url(#pfbd7cacdbf)" d="M 146.240637 259.222 
L 151.813292 249.278124 
L 157.351946 239.39492 
L 162.856908 229.571836 
L 168.328485 219.808324 
L 173.76698 210.103844 
L 179.172692 200.457862 
L 184.545916 190.869852 
L 189.886945 181.339291 
L 195.196067 171.865665 
L 200.473566 162.448466 
L 205.719726 153.08719 
L 210.934823 143.781341 
L 216.119134 134.530429 
L 221.27293 125.333968 
L 226.396479 116.191479 
L 231.490047 107.102488 
L 236.553897 98.066527 
L 241.588287 89.083134 
L 246.593475 80.15185 
" style="fill:none;stroke:#000000;stroke-opacity:0.3;stroke-width:1.5;"/>
    <path clip-path="url(#pfbd7cacdbf)" d="M 155.70601 260.0712 
L 161.268731 250.09058 
L 166.797395 240.171066 
L 172.292313 230.312097 
L 177.753794 220.513122 
L 183.182142 210.773595 
L 188.577657 201.092975 
L 193.940636 191.470731 
L 199.271374 181.906335 
L 204.570159 172.399268 
L 209.837279 162.949016 
L 215.073015 153.55507 
L 220.277649 144.21693 
L 225.451455 134.9341 
L 230.594708 125.706089 
L 235.707677 116.532413 
L 240.790629 107.412594 
L 245.843827 98.346159 
L 250.867531 89.33264 
L 255.862001 80.371576 
" style="fill:none;stroke:#000000;stroke-opacity:0.3;stroke-width:1.5;"/>
    <path clip-path="url(#pfbd7cacdbf)" d="M 165.236796 260.926268 
L 170.789312 250.908634 
L 176.307717 240.952542 
L 181.792324 231.057428 
L 187.243443 221.222732 
L 192.661378 211.447904 
L 198.046433 201.732397 
L 203.398906 192.075674 
L 208.719091 182.477203 
L 214.00728 172.936459 
L 219.26376 163.452921 
L 224.488817 154.026078 
L 229.68273 144.655422 
L 234.845778 135.340452 
L 239.978234 126.080674 
L 245.08037 116.875598 
L 250.152455 107.724741 
L 255.194751 98.627626 
L 260.207522 89.58378 
L 265.191025 80.592737 
" style="fill:none;stroke:#000000;stroke-opacity:0.3;stroke-width:1.5;"/>
    <path clip-path="url(#pfbd7cacdbf)" d="M 174.833673 261.787266 
L 180.37571 251.732343 
L 185.883583 241.739404 
L 191.357607 231.807879 
L 196.798092 221.937202 
L 202.205346 212.126817 
L 207.579672 202.376172 
L 212.92137 192.684724 
L 218.230738 183.051935 
L 223.508066 173.477274 
L 228.753644 163.960216 
L 233.967759 154.500244 
L 239.150691 145.096845 
L 244.302721 135.749513 
L 249.424123 126.457749 
L 254.515171 117.221057 
L 259.576132 108.038951 
L 264.607273 98.910947 
L 269.608857 89.83657 
L 274.581143 80.815346 
" style="fill:none;stroke:#000000;stroke-opacity:0.3;stroke-width:1.5;"/>
    <path clip-path="url(#pfbd7cacdbf)" d="M 184.497332 262.654255 
L 190.028611 252.561766 
L 195.525673 242.531708 
L 200.988836 232.563504 
L 206.418412 222.656583 
L 211.814709 212.810382 
L 217.178034 203.024345 
L 222.508687 193.297921 
L 227.806965 183.630568 
L 233.073164 174.021749 
L 238.307573 164.470935 
L 243.510479 154.9776 
L 248.682166 145.541229 
L 253.822914 136.16131 
L 258.933 126.837338 
L 264.012697 117.568813 
L 269.062275 108.355244 
L 274.082003 99.196141 
L 279.072143 90.091025 
L 284.032956 81.039418 
" style="fill:none;stroke:#000000;stroke-opacity:0.3;stroke-width:1.5;"/>
    <path clip-path="url(#pfbd7cacdbf)" d="M 194.228473 263.527299 
L 199.748708 253.396963 
L 205.234676 243.32951 
L 210.686696 233.324357 
L 216.105082 223.380926 
L 221.490144 213.498648 
L 226.842189 203.676961 
L 232.161519 193.915309 
L 237.448434 184.213144 
L 242.703229 174.569923 
L 247.926196 164.985111 
L 253.117623 155.458179 
L 258.277795 145.988605 
L 263.406993 136.57587 
L 268.505495 127.219467 
L 273.573577 117.918889 
L 278.611509 108.67364 
L 283.619559 99.483226 
L 288.597994 90.347162 
L 293.547074 81.264967 
" style="fill:none;stroke:#000000;stroke-opacity:0.3;stroke-width:1.5;"/>
    <path clip-path="url(#pfbd7cacdbf)" d="M 204.027805 264.40646 
L 209.536705 254.237995 
L 215.011291 244.132868 
L 220.45188 234.090491 
L 225.858791 224.110281 
L 231.232333 214.191662 
L 236.572815 204.334065 
L 241.880542 194.53693 
L 247.155814 184.799702 
L 252.398926 175.121833 
L 257.610174 165.502782 
L 262.789846 155.942014 
L 267.938228 146.439001 
L 273.055603 136.993222 
L 278.14225 127.604161 
L 283.198446 118.271308 
L 288.224463 108.99416 
L 293.22057 99.772221 
L 298.187033 90.604999 
L 303.124116 81.492007 
" style="fill:none;stroke:#000000;stroke-opacity:0.3;stroke-width:1.5;"/>
    <path clip-path="url(#pfbd7cacdbf)" d="M 213.896048 265.291804 
L 219.393318 255.084922 
L 224.856226 244.94184 
L 230.285093 234.861963 
L 235.680237 224.844701 
L 241.04197 214.889474 
L 246.370602 204.995705 
L 251.666438 195.162829 
L 256.929781 185.390284 
L 262.160928 175.677517 
L 267.360174 166.023982 
L 272.52781 156.429137 
L 277.664124 146.89245 
L 282.769398 137.413393 
L 287.843915 127.991446 
L 292.88795 118.626093 
L 297.901778 109.316827 
L 302.885669 100.063145 
L 307.839891 90.864551 
L 312.764707 81.720554 
" style="fill:none;stroke:#000000;stroke-opacity:0.3;stroke-width:1.5;"/>
   </g>
   <g id="text_30">
    <!-- Decision function $h$ -->
    <g transform="translate(166.570182 88.128283)scale(0.15 -0.15)">
     <defs>
      <path d="M 19.671875 64.796875 
L 19.671875 8.109375 
L 31.59375 8.109375 
Q 46.6875 8.109375 53.6875 14.9375 
Q 60.6875 21.78125 60.6875 36.53125 
Q 60.6875 51.171875 53.6875 57.984375 
Q 46.6875 64.796875 31.59375 64.796875 
z
M 9.8125 72.90625 
L 30.078125 72.90625 
Q 51.265625 72.90625 61.171875 64.09375 
Q 71.09375 55.28125 71.09375 36.53125 
Q 71.09375 17.671875 61.125 8.828125 
Q 51.171875 0 30.078125 0 
L 9.8125 0 
z
" id="DejaVuSans-68"/>
      <path d="M 48.78125 52.59375 
L 48.78125 44.1875 
Q 44.96875 46.296875 41.140625 47.34375 
Q 37.3125 48.390625 33.40625 48.390625 
Q 24.65625 48.390625 19.8125 42.84375 
Q 14.984375 37.3125 14.984375 27.296875 
Q 14.984375 17.28125 19.8125 11.734375 
Q 24.65625 6.203125 33.40625 6.203125 
Q 37.3125 6.203125 41.140625 7.25 
Q 44.96875 8.296875 48.78125 10.40625 
L 48.78125 2.09375 
Q 45.015625 0.34375 40.984375 -0.53125 
Q 36.96875 -1.421875 32.421875 -1.421875 
Q 20.0625 -1.421875 12.78125 6.34375 
Q 5.515625 14.109375 5.515625 27.296875 
Q 5.515625 40.671875 12.859375 48.328125 
Q 20.21875 56 33.015625 56 
Q 37.15625 56 41.109375 55.140625 
Q 45.0625 54.296875 48.78125 52.59375 
z
" id="DejaVuSans-99"/>
      <path d="M 44.28125 53.078125 
L 44.28125 44.578125 
Q 40.484375 46.53125 36.375 47.5 
Q 32.28125 48.484375 27.875 48.484375 
Q 21.1875 48.484375 17.84375 46.4375 
Q 14.5 44.390625 14.5 40.28125 
Q 14.5 37.15625 16.890625 35.375 
Q 19.28125 33.59375 26.515625 31.984375 
L 29.59375 31.296875 
Q 39.15625 29.25 43.1875 25.515625 
Q 47.21875 21.78125 47.21875 15.09375 
Q 47.21875 7.46875 41.1875 3.015625 
Q 35.15625 -1.421875 24.609375 -1.421875 
Q 20.21875 -1.421875 15.453125 -0.5625 
Q 10.6875 0.296875 5.421875 2 
L 5.421875 11.28125 
Q 10.40625 8.6875 15.234375 7.390625 
Q 20.0625 6.109375 24.8125 6.109375 
Q 31.15625 6.109375 34.5625 8.28125 
Q 37.984375 10.453125 37.984375 14.40625 
Q 37.984375 18.0625 35.515625 20.015625 
Q 33.0625 21.96875 24.703125 23.78125 
L 21.578125 24.515625 
Q 13.234375 26.265625 9.515625 29.90625 
Q 5.8125 33.546875 5.8125 39.890625 
Q 5.8125 47.609375 11.28125 51.796875 
Q 16.75 56 26.8125 56 
Q 31.78125 56 36.171875 55.265625 
Q 40.578125 54.546875 44.28125 53.078125 
z
" id="DejaVuSans-115"/>
      <path d="M 30.609375 48.390625 
Q 23.390625 48.390625 19.1875 42.75 
Q 14.984375 37.109375 14.984375 27.296875 
Q 14.984375 17.484375 19.15625 11.84375 
Q 23.34375 6.203125 30.609375 6.203125 
Q 37.796875 6.203125 41.984375 11.859375 
Q 46.1875 17.53125 46.1875 27.296875 
Q 46.1875 37.015625 41.984375 42.703125 
Q 37.796875 48.390625 30.609375 48.390625 
z
M 30.609375 56 
Q 42.328125 56 49.015625 48.375 
Q 55.71875 40.765625 55.71875 27.296875 
Q 55.71875 13.875 49.015625 6.21875 
Q 42.328125 -1.421875 30.609375 -1.421875 
Q 18.84375 -1.421875 12.171875 6.21875 
Q 5.515625 13.875 5.515625 27.296875 
Q 5.515625 40.765625 12.171875 48.375 
Q 18.84375 56 30.609375 56 
z
" id="DejaVuSans-111"/>
      <path d="M 37.109375 75.984375 
L 37.109375 68.5 
L 28.515625 68.5 
Q 23.6875 68.5 21.796875 66.546875 
Q 19.921875 64.59375 19.921875 59.515625 
L 19.921875 54.6875 
L 34.71875 54.6875 
L 34.71875 47.703125 
L 19.921875 47.703125 
L 19.921875 0 
L 10.890625 0 
L 10.890625 47.703125 
L 2.296875 47.703125 
L 2.296875 54.6875 
L 10.890625 54.6875 
L 10.890625 58.5 
Q 10.890625 67.625 15.140625 71.796875 
Q 19.390625 75.984375 28.609375 75.984375 
z
" id="DejaVuSans-102"/>
      <path d="M 8.5 21.578125 
L 8.5 54.6875 
L 17.484375 54.6875 
L 17.484375 21.921875 
Q 17.484375 14.15625 20.5 10.265625 
Q 23.53125 6.390625 29.59375 6.390625 
Q 36.859375 6.390625 41.078125 11.03125 
Q 45.3125 15.671875 45.3125 23.6875 
L 45.3125 54.6875 
L 54.296875 54.6875 
L 54.296875 0 
L 45.3125 0 
L 45.3125 8.40625 
Q 42.046875 3.421875 37.71875 1 
Q 33.40625 -1.421875 27.6875 -1.421875 
Q 18.265625 -1.421875 13.375 4.4375 
Q 8.5 10.296875 8.5 21.578125 
z
M 31.109375 56 
z
" id="DejaVuSans-117"/>
     </defs>
     <use transform="translate(0 0.015625)" xlink:href="#DejaVuSans-68"/>
     <use transform="translate(77.001953 0.015625)" xlink:href="#DejaVuSans-101"/>
     <use transform="translate(138.525391 0.015625)" xlink:href="#DejaVuSans-99"/>
     <use transform="translate(193.505859 0.015625)" xlink:href="#DejaVuSans-105"/>
     <use transform="translate(221.289062 0.015625)" xlink:href="#DejaVuSans-115"/>
     <use transform="translate(273.388672 0.015625)" xlink:href="#DejaVuSans-105"/>
     <use transform="translate(301.171875 0.015625)" xlink:href="#DejaVuSans-111"/>
     <use transform="translate(362.353516 0.015625)" xlink:href="#DejaVuSans-110"/>
     <use transform="translate(425.732422 0.015625)" xlink:href="#DejaVuSans-32"/>
     <use transform="translate(457.519531 0.015625)" xlink:href="#DejaVuSans-102"/>
     <use transform="translate(492.724609 0.015625)" xlink:href="#DejaVuSans-117"/>
     <use transform="translate(556.103516 0.015625)" xlink:href="#DejaVuSans-110"/>
     <use transform="translate(619.482422 0.015625)" xlink:href="#DejaVuSans-99"/>
     <use transform="translate(674.462891 0.015625)" xlink:href="#DejaVuSans-116"/>
     <use transform="translate(713.671875 0.015625)" xlink:href="#DejaVuSans-105"/>
     <use transform="translate(741.455078 0.015625)" xlink:href="#DejaVuSans-111"/>
     <use transform="translate(802.636719 0.015625)" xlink:href="#DejaVuSans-110"/>
     <use transform="translate(866.015625 0.015625)" xlink:href="#DejaVuSans-32"/>
     <use transform="translate(897.802734 0.015625)" xlink:href="#DejaVuSans-Oblique-104"/>
    </g>
   </g>
   <g id="Poly3DCollection_1">
    <path clip-path="url(#pfbd7cacdbf)" d="M 35.39959 203.492657 
L 44.351269 206.282498 
L 53.350395 209.087125 
L 62.397345 211.906657 
L 71.492502 214.741212 
L 80.636252 217.590913 
L 89.828986 220.455879 
L 99.071098 223.336234 
L 108.362987 226.232103 
L 117.705057 229.143611 
L 127.097715 232.070884 
L 136.541373 235.014053 
L 146.036448 237.973245 
L 155.58336 240.948593 
L 165.182536 243.940229 
L 174.834406 246.948288 
L 184.539404 249.972904 
L 194.297971 253.014215 
L 204.110551 256.07236 
L 213.977595 259.147479 
L 219.412213 253.831986 
L 224.795083 248.567107 
L 230.126941 243.352122 
L 235.408508 238.186326 
L 240.640492 233.069025 
L 245.823589 227.99954 
L 250.958481 222.977204 
L 256.045836 218.001362 
L 261.086312 213.071371 
L 266.080554 208.186602 
L 271.029196 203.346433 
L 275.932858 198.550258 
L 280.792151 193.797479 
L 285.607676 189.08751 
L 290.380019 184.419774 
L 295.109761 179.793707 
L 299.797468 175.208754 
L 304.443699 170.664367 
L 309.049001 166.160012 
L 299.764441 163.577443 
L 290.526862 161.007942 
L 281.335909 158.45141 
L 272.191228 155.907749 
L 263.092472 153.376863 
L 254.039296 150.858655 
L 245.031358 148.35303 
L 236.068319 145.859894 
L 227.149845 143.379154 
L 218.275604 140.910718 
L 209.445268 138.454495 
L 200.658513 136.010394 
L 191.915015 133.578325 
L 183.214457 131.1582 
L 174.556522 128.749932 
L 165.9409 126.353432 
L 157.367279 123.968616 
L 148.835354 121.595398 
L 140.344821 119.233693 
L 135.240869 123.33158 
L 130.093665 127.464194 
L 124.902658 131.631976 
L 119.667285 135.835379 
L 114.386975 140.074861 
L 109.061148 144.350889 
L 103.689212 148.663936 
L 98.270565 153.014487 
L 92.804597 157.403032 
L 87.290684 161.83007 
L 81.728192 166.296112 
L 76.116478 170.801674 
L 70.454884 175.347284 
L 64.742742 179.933477 
L 58.979374 184.5608 
L 53.164085 189.229809 
L 47.296172 193.941069 
L 41.374918 198.695156 
z
" style="fill:#0000c3;fill-opacity:0.2;"/>
   </g>
   <g id="legend_1">
    <g id="patch_6">
     <path d="M 18.4 66.97 
L 129.28 66.97 
Q 132.48 66.97 132.48 63.77 
L 132.48 18.4 
Q 132.48 15.2 129.28 15.2 
L 18.4 15.2 
Q 15.2 15.2 15.2 18.4 
L 15.2 63.77 
Q 15.2 66.97 18.4 66.97 
z
" style="fill:#ffffff;opacity:0.8;stroke:#cccccc;stroke-linejoin:miter;"/>
    </g>
    <g id="line2d_35">
     <path d="M 21.6 28.1575 
L 53.6 28.1575 
" style="fill:none;stroke:#000000;stroke-linecap:square;stroke-width:2;"/>
    </g>
    <g id="line2d_36"/>
    <g id="text_31">
     <!-- $h=0$ -->
     <g transform="translate(66.4 33.7575)scale(0.16 -0.16)">
      <use transform="translate(0 0.015625)" xlink:href="#DejaVuSans-Oblique-104"/>
      <use transform="translate(82.861328 0.015625)" xlink:href="#DejaVuSans-61"/>
      <use transform="translate(186.132812 0.015625)" xlink:href="#DejaVuSans-48"/>
     </g>
    </g>
    <g id="line2d_37">
     <path d="M 21.6 51.6425 
L 53.6 51.6425 
" style="fill:none;stroke:#000000;stroke-dasharray:7.4,3.2;stroke-dashoffset:0;stroke-width:2;"/>
    </g>
    <g id="line2d_38"/>
    <g id="text_32">
     <!-- $h=\pm 1$ -->
     <g transform="translate(66.4 57.2425)scale(0.16 -0.16)">
      <defs>
       <path d="M 46 62.703125 
L 46 43.796875 
L 73.1875 43.796875 
L 73.1875 35.5 
L 46 35.5 
L 46 16.609375 
L 37.796875 16.609375 
L 37.796875 35.5 
L 10.59375 35.5 
L 10.59375 43.796875 
L 37.796875 43.796875 
L 37.796875 62.703125 
z
M 10.59375 8.296875 
L 73.1875 8.296875 
L 73.1875 0 
L 10.59375 0 
z
" id="DejaVuSans-177"/>
      </defs>
      <use transform="translate(0 0.015625)" xlink:href="#DejaVuSans-Oblique-104"/>
      <use transform="translate(82.861328 0.015625)" xlink:href="#DejaVuSans-61"/>
      <use transform="translate(205.615234 0.015625)" xlink:href="#DejaVuSans-177"/>
      <use transform="translate(308.886719 0.015625)" xlink:href="#DejaVuSans-49"/>
     </g>
    </g>
   </g>
  </g>
 </g>
 <defs>
  <clipPath id="pfbd7cacdbf">
   <rect height="326.16" width="326.16" x="7.2" y="7.2"/>
  </clipPath>
 </defs>
</svg>
