<?xml version="1.0" encoding="utf-8" standalone="no"?>
<!DOCTYPE svg PUBLIC "-//W3C//DTD SVG 1.1//EN"
  "http://www.w3.org/Graphics/SVG/1.1/DTD/svg11.dtd">
<!-- Created with matplotlib (https://matplotlib.org/) -->
<svg height="374.715469pt" version="1.1" viewBox="0 0 595.303125 374.715469" width="595.303125pt" xmlns="http://www.w3.org/2000/svg" xmlns:xlink="http://www.w3.org/1999/xlink">
 <metadata>
  <rdf:RDF xmlns:cc="http://creativecommons.org/ns#" xmlns:dc="http://purl.org/dc/elements/1.1/" xmlns:rdf="http://www.w3.org/1999/02/22-rdf-syntax-ns#">
   <cc:Work>
    <dc:type rdf:resource="http://purl.org/dc/dcmitype/StillImage"/>
    <dc:date>2020-10-06T16:41:12.885499</dc:date>
    <dc:format>image/svg+xml</dc:format>
    <dc:creator>
     <cc:Agent>
      <dc:title>Matplotlib v3.3.2, https://matplotlib.org/</dc:title>
     </cc:Agent>
    </dc:creator>
   </cc:Work>
  </rdf:RDF>
 </metadata>
 <defs>
  <style type="text/css">*{stroke-linecap:butt;stroke-linejoin:round;}</style>
 </defs>
 <g id="figure_1">
  <g id="patch_1">
   <path d="M -0 374.715469 
L 595.303125 374.715469 
L 595.303125 0 
L -0 0 
z
" style="fill:none;"/>
  </g>
  <g id="axes_1">
   <g id="patch_2">
    <path d="M 30.103125 337.159219 
L 588.103125 337.159219 
L 588.103125 10.999219 
L 30.103125 10.999219 
z
" style="fill:#ffffff;"/>
   </g>
   <g id="matplotlib.axis_1">
    <g id="xtick_1">
     <g id="line2d_1">
      <defs>
       <path d="M 0 0 
L 0 3.5 
" id="m937f01557b" style="stroke:#000000;stroke-width:0.8;"/>
      </defs>
      <g>
       <use style="stroke:#000000;stroke-width:0.8;" x="72.329404" xlink:href="#m937f01557b" y="337.159219"/>
      </g>
     </g>
     <g id="text_1">
      <!-- −60000 -->
      <g transform="translate(52.23331 351.757656)scale(0.1 -0.1)">
       <defs>
        <path d="M 10.59375 35.5 
L 73.1875 35.5 
L 73.1875 27.203125 
L 10.59375 27.203125 
z
" id="DejaVuSans-8722"/>
        <path d="M 33.015625 40.375 
Q 26.375 40.375 22.484375 35.828125 
Q 18.609375 31.296875 18.609375 23.390625 
Q 18.609375 15.53125 22.484375 10.953125 
Q 26.375 6.390625 33.015625 6.390625 
Q 39.65625 6.390625 43.53125 10.953125 
Q 47.40625 15.53125 47.40625 23.390625 
Q 47.40625 31.296875 43.53125 35.828125 
Q 39.65625 40.375 33.015625 40.375 
z
M 52.59375 71.296875 
L 52.59375 62.3125 
Q 48.875 64.0625 45.09375 64.984375 
Q 41.3125 65.921875 37.59375 65.921875 
Q 27.828125 65.921875 22.671875 59.328125 
Q 17.53125 52.734375 16.796875 39.40625 
Q 19.671875 43.65625 24.015625 45.921875 
Q 28.375 48.1875 33.59375 48.1875 
Q 44.578125 48.1875 50.953125 41.515625 
Q 57.328125 34.859375 57.328125 23.390625 
Q 57.328125 12.15625 50.6875 5.359375 
Q 44.046875 -1.421875 33.015625 -1.421875 
Q 20.359375 -1.421875 13.671875 8.265625 
Q 6.984375 17.96875 6.984375 36.375 
Q 6.984375 53.65625 15.1875 63.9375 
Q 23.390625 74.21875 37.203125 74.21875 
Q 40.921875 74.21875 44.703125 73.484375 
Q 48.484375 72.75 52.59375 71.296875 
z
" id="DejaVuSans-54"/>
        <path d="M 31.78125 66.40625 
Q 24.171875 66.40625 20.328125 58.90625 
Q 16.5 51.421875 16.5 36.375 
Q 16.5 21.390625 20.328125 13.890625 
Q 24.171875 6.390625 31.78125 6.390625 
Q 39.453125 6.390625 43.28125 13.890625 
Q 47.125 21.390625 47.125 36.375 
Q 47.125 51.421875 43.28125 58.90625 
Q 39.453125 66.40625 31.78125 66.40625 
z
M 31.78125 74.21875 
Q 44.046875 74.21875 50.515625 64.515625 
Q 56.984375 54.828125 56.984375 36.375 
Q 56.984375 17.96875 50.515625 8.265625 
Q 44.046875 -1.421875 31.78125 -1.421875 
Q 19.53125 -1.421875 13.0625 8.265625 
Q 6.59375 17.96875 6.59375 36.375 
Q 6.59375 54.828125 13.0625 64.515625 
Q 19.53125 74.21875 31.78125 74.21875 
z
" id="DejaVuSans-48"/>
       </defs>
       <use xlink:href="#DejaVuSans-8722"/>
       <use x="83.789062" xlink:href="#DejaVuSans-54"/>
       <use x="147.412109" xlink:href="#DejaVuSans-48"/>
       <use x="211.035156" xlink:href="#DejaVuSans-48"/>
       <use x="274.658203" xlink:href="#DejaVuSans-48"/>
       <use x="338.28125" xlink:href="#DejaVuSans-48"/>
      </g>
     </g>
    </g>
    <g id="xtick_2">
     <g id="line2d_2">
      <g>
       <use style="stroke:#000000;stroke-width:0.8;" x="161.704005" xlink:href="#m937f01557b" y="337.159219"/>
      </g>
     </g>
     <g id="text_2">
      <!-- −40000 -->
      <g transform="translate(141.607911 351.757656)scale(0.1 -0.1)">
       <defs>
        <path d="M 37.796875 64.3125 
L 12.890625 25.390625 
L 37.796875 25.390625 
z
M 35.203125 72.90625 
L 47.609375 72.90625 
L 47.609375 25.390625 
L 58.015625 25.390625 
L 58.015625 17.1875 
L 47.609375 17.1875 
L 47.609375 0 
L 37.796875 0 
L 37.796875 17.1875 
L 4.890625 17.1875 
L 4.890625 26.703125 
z
" id="DejaVuSans-52"/>
       </defs>
       <use xlink:href="#DejaVuSans-8722"/>
       <use x="83.789062" xlink:href="#DejaVuSans-52"/>
       <use x="147.412109" xlink:href="#DejaVuSans-48"/>
       <use x="211.035156" xlink:href="#DejaVuSans-48"/>
       <use x="274.658203" xlink:href="#DejaVuSans-48"/>
       <use x="338.28125" xlink:href="#DejaVuSans-48"/>
      </g>
     </g>
    </g>
    <g id="xtick_3">
     <g id="line2d_3">
      <g>
       <use style="stroke:#000000;stroke-width:0.8;" x="251.078606" xlink:href="#m937f01557b" y="337.159219"/>
      </g>
     </g>
     <g id="text_3">
      <!-- −20000 -->
      <g transform="translate(230.982512 351.757656)scale(0.1 -0.1)">
       <defs>
        <path d="M 19.1875 8.296875 
L 53.609375 8.296875 
L 53.609375 0 
L 7.328125 0 
L 7.328125 8.296875 
Q 12.9375 14.109375 22.625 23.890625 
Q 32.328125 33.6875 34.8125 36.53125 
Q 39.546875 41.84375 41.421875 45.53125 
Q 43.3125 49.21875 43.3125 52.78125 
Q 43.3125 58.59375 39.234375 62.25 
Q 35.15625 65.921875 28.609375 65.921875 
Q 23.96875 65.921875 18.8125 64.3125 
Q 13.671875 62.703125 7.8125 59.421875 
L 7.8125 69.390625 
Q 13.765625 71.78125 18.9375 73 
Q 24.125 74.21875 28.421875 74.21875 
Q 39.75 74.21875 46.484375 68.546875 
Q 53.21875 62.890625 53.21875 53.421875 
Q 53.21875 48.921875 51.53125 44.890625 
Q 49.859375 40.875 45.40625 35.40625 
Q 44.1875 33.984375 37.640625 27.21875 
Q 31.109375 20.453125 19.1875 8.296875 
z
" id="DejaVuSans-50"/>
       </defs>
       <use xlink:href="#DejaVuSans-8722"/>
       <use x="83.789062" xlink:href="#DejaVuSans-50"/>
       <use x="147.412109" xlink:href="#DejaVuSans-48"/>
       <use x="211.035156" xlink:href="#DejaVuSans-48"/>
       <use x="274.658203" xlink:href="#DejaVuSans-48"/>
       <use x="338.28125" xlink:href="#DejaVuSans-48"/>
      </g>
     </g>
    </g>
    <g id="xtick_4">
     <g id="line2d_4">
      <g>
       <use style="stroke:#000000;stroke-width:0.8;" x="340.453207" xlink:href="#m937f01557b" y="337.159219"/>
      </g>
     </g>
     <g id="text_4">
      <!-- 0 -->
      <g transform="translate(337.271957 351.757656)scale(0.1 -0.1)">
       <use xlink:href="#DejaVuSans-48"/>
      </g>
     </g>
    </g>
    <g id="xtick_5">
     <g id="line2d_5">
      <g>
       <use style="stroke:#000000;stroke-width:0.8;" x="429.827808" xlink:href="#m937f01557b" y="337.159219"/>
      </g>
     </g>
     <g id="text_5">
      <!-- 20000 -->
      <g transform="translate(413.921558 351.757656)scale(0.1 -0.1)">
       <use xlink:href="#DejaVuSans-50"/>
       <use x="63.623047" xlink:href="#DejaVuSans-48"/>
       <use x="127.246094" xlink:href="#DejaVuSans-48"/>
       <use x="190.869141" xlink:href="#DejaVuSans-48"/>
       <use x="254.492188" xlink:href="#DejaVuSans-48"/>
      </g>
     </g>
    </g>
    <g id="xtick_6">
     <g id="line2d_6">
      <g>
       <use style="stroke:#000000;stroke-width:0.8;" x="519.202409" xlink:href="#m937f01557b" y="337.159219"/>
      </g>
     </g>
     <g id="text_6">
      <!-- 40000 -->
      <g transform="translate(503.296159 351.757656)scale(0.1 -0.1)">
       <use xlink:href="#DejaVuSans-52"/>
       <use x="63.623047" xlink:href="#DejaVuSans-48"/>
       <use x="127.246094" xlink:href="#DejaVuSans-48"/>
       <use x="190.869141" xlink:href="#DejaVuSans-48"/>
       <use x="254.492188" xlink:href="#DejaVuSans-48"/>
      </g>
     </g>
    </g>
    <g id="text_7">
     <!-- Threshold -->
     <g transform="translate(284.464844 365.435781)scale(0.1 -0.1)">
      <defs>
       <path d="M -0.296875 72.90625 
L 61.375 72.90625 
L 61.375 64.59375 
L 35.5 64.59375 
L 35.5 0 
L 25.59375 0 
L 25.59375 64.59375 
L -0.296875 64.59375 
z
" id="DejaVuSans-84"/>
       <path d="M 54.890625 33.015625 
L 54.890625 0 
L 45.90625 0 
L 45.90625 32.71875 
Q 45.90625 40.484375 42.875 44.328125 
Q 39.84375 48.1875 33.796875 48.1875 
Q 26.515625 48.1875 22.3125 43.546875 
Q 18.109375 38.921875 18.109375 30.90625 
L 18.109375 0 
L 9.078125 0 
L 9.078125 75.984375 
L 18.109375 75.984375 
L 18.109375 46.1875 
Q 21.34375 51.125 25.703125 53.5625 
Q 30.078125 56 35.796875 56 
Q 45.21875 56 50.046875 50.171875 
Q 54.890625 44.34375 54.890625 33.015625 
z
" id="DejaVuSans-104"/>
       <path d="M 41.109375 46.296875 
Q 39.59375 47.171875 37.8125 47.578125 
Q 36.03125 48 33.890625 48 
Q 26.265625 48 22.1875 43.046875 
Q 18.109375 38.09375 18.109375 28.8125 
L 18.109375 0 
L 9.078125 0 
L 9.078125 54.6875 
L 18.109375 54.6875 
L 18.109375 46.1875 
Q 20.953125 51.171875 25.484375 53.578125 
Q 30.03125 56 36.53125 56 
Q 37.453125 56 38.578125 55.875 
Q 39.703125 55.765625 41.0625 55.515625 
z
" id="DejaVuSans-114"/>
       <path d="M 56.203125 29.59375 
L 56.203125 25.203125 
L 14.890625 25.203125 
Q 15.484375 15.921875 20.484375 11.0625 
Q 25.484375 6.203125 34.421875 6.203125 
Q 39.59375 6.203125 44.453125 7.46875 
Q 49.3125 8.734375 54.109375 11.28125 
L 54.109375 2.78125 
Q 49.265625 0.734375 44.1875 -0.34375 
Q 39.109375 -1.421875 33.890625 -1.421875 
Q 20.796875 -1.421875 13.15625 6.1875 
Q 5.515625 13.8125 5.515625 26.8125 
Q 5.515625 40.234375 12.765625 48.109375 
Q 20.015625 56 32.328125 56 
Q 43.359375 56 49.78125 48.890625 
Q 56.203125 41.796875 56.203125 29.59375 
z
M 47.21875 32.234375 
Q 47.125 39.59375 43.09375 43.984375 
Q 39.0625 48.390625 32.421875 48.390625 
Q 24.90625 48.390625 20.390625 44.140625 
Q 15.875 39.890625 15.1875 32.171875 
z
" id="DejaVuSans-101"/>
       <path d="M 44.28125 53.078125 
L 44.28125 44.578125 
Q 40.484375 46.53125 36.375 47.5 
Q 32.28125 48.484375 27.875 48.484375 
Q 21.1875 48.484375 17.84375 46.4375 
Q 14.5 44.390625 14.5 40.28125 
Q 14.5 37.15625 16.890625 35.375 
Q 19.28125 33.59375 26.515625 31.984375 
L 29.59375 31.296875 
Q 39.15625 29.25 43.1875 25.515625 
Q 47.21875 21.78125 47.21875 15.09375 
Q 47.21875 7.46875 41.1875 3.015625 
Q 35.15625 -1.421875 24.609375 -1.421875 
Q 20.21875 -1.421875 15.453125 -0.5625 
Q 10.6875 0.296875 5.421875 2 
L 5.421875 11.28125 
Q 10.40625 8.6875 15.234375 7.390625 
Q 20.0625 6.109375 24.8125 6.109375 
Q 31.15625 6.109375 34.5625 8.28125 
Q 37.984375 10.453125 37.984375 14.40625 
Q 37.984375 18.0625 35.515625 20.015625 
Q 33.0625 21.96875 24.703125 23.78125 
L 21.578125 24.515625 
Q 13.234375 26.265625 9.515625 29.90625 
Q 5.8125 33.546875 5.8125 39.890625 
Q 5.8125 47.609375 11.28125 51.796875 
Q 16.75 56 26.8125 56 
Q 31.78125 56 36.171875 55.265625 
Q 40.578125 54.546875 44.28125 53.078125 
z
" id="DejaVuSans-115"/>
       <path d="M 30.609375 48.390625 
Q 23.390625 48.390625 19.1875 42.75 
Q 14.984375 37.109375 14.984375 27.296875 
Q 14.984375 17.484375 19.15625 11.84375 
Q 23.34375 6.203125 30.609375 6.203125 
Q 37.796875 6.203125 41.984375 11.859375 
Q 46.1875 17.53125 46.1875 27.296875 
Q 46.1875 37.015625 41.984375 42.703125 
Q 37.796875 48.390625 30.609375 48.390625 
z
M 30.609375 56 
Q 42.328125 56 49.015625 48.375 
Q 55.71875 40.765625 55.71875 27.296875 
Q 55.71875 13.875 49.015625 6.21875 
Q 42.328125 -1.421875 30.609375 -1.421875 
Q 18.84375 -1.421875 12.171875 6.21875 
Q 5.515625 13.875 5.515625 27.296875 
Q 5.515625 40.765625 12.171875 48.375 
Q 18.84375 56 30.609375 56 
z
" id="DejaVuSans-111"/>
       <path d="M 9.421875 75.984375 
L 18.40625 75.984375 
L 18.40625 0 
L 9.421875 0 
z
" id="DejaVuSans-108"/>
       <path d="M 45.40625 46.390625 
L 45.40625 75.984375 
L 54.390625 75.984375 
L 54.390625 0 
L 45.40625 0 
L 45.40625 8.203125 
Q 42.578125 3.328125 38.25 0.953125 
Q 33.9375 -1.421875 27.875 -1.421875 
Q 17.96875 -1.421875 11.734375 6.484375 
Q 5.515625 14.40625 5.515625 27.296875 
Q 5.515625 40.1875 11.734375 48.09375 
Q 17.96875 56 27.875 56 
Q 33.9375 56 38.25 53.625 
Q 42.578125 51.265625 45.40625 46.390625 
z
M 14.796875 27.296875 
Q 14.796875 17.390625 18.875 11.75 
Q 22.953125 6.109375 30.078125 6.109375 
Q 37.203125 6.109375 41.296875 11.75 
Q 45.40625 17.390625 45.40625 27.296875 
Q 45.40625 37.203125 41.296875 42.84375 
Q 37.203125 48.484375 30.078125 48.484375 
Q 22.953125 48.484375 18.875 42.84375 
Q 14.796875 37.203125 14.796875 27.296875 
z
" id="DejaVuSans-100"/>
      </defs>
      <use xlink:href="#DejaVuSans-84"/>
      <use x="61.083984" xlink:href="#DejaVuSans-104"/>
      <use x="124.462891" xlink:href="#DejaVuSans-114"/>
      <use x="163.326172" xlink:href="#DejaVuSans-101"/>
      <use x="224.849609" xlink:href="#DejaVuSans-115"/>
      <use x="276.949219" xlink:href="#DejaVuSans-104"/>
      <use x="340.328125" xlink:href="#DejaVuSans-111"/>
      <use x="401.509766" xlink:href="#DejaVuSans-108"/>
      <use x="429.292969" xlink:href="#DejaVuSans-100"/>
     </g>
    </g>
   </g>
   <g id="matplotlib.axis_2">
    <g id="ytick_1">
     <g id="line2d_7">
      <defs>
       <path d="M 0 0 
L -3.5 0 
" id="m480f95d3d0" style="stroke:#000000;stroke-width:0.8;"/>
      </defs>
      <g>
       <use style="stroke:#000000;stroke-width:0.8;" x="30.103125" xlink:href="#m480f95d3d0" y="337.159219"/>
      </g>
     </g>
     <g id="text_8">
      <!-- 0.0 -->
      <g transform="translate(7.2 340.958438)scale(0.1 -0.1)">
       <defs>
        <path d="M 10.6875 12.40625 
L 21 12.40625 
L 21 0 
L 10.6875 0 
z
" id="DejaVuSans-46"/>
       </defs>
       <use xlink:href="#DejaVuSans-48"/>
       <use x="63.623047" xlink:href="#DejaVuSans-46"/>
       <use x="95.410156" xlink:href="#DejaVuSans-48"/>
      </g>
     </g>
    </g>
    <g id="ytick_2">
     <g id="line2d_8">
      <g>
       <use style="stroke:#000000;stroke-width:0.8;" x="30.103125" xlink:href="#m480f95d3d0" y="271.927219"/>
      </g>
     </g>
     <g id="text_9">
      <!-- 0.2 -->
      <g transform="translate(7.2 275.726437)scale(0.1 -0.1)">
       <use xlink:href="#DejaVuSans-48"/>
       <use x="63.623047" xlink:href="#DejaVuSans-46"/>
       <use x="95.410156" xlink:href="#DejaVuSans-50"/>
      </g>
     </g>
    </g>
    <g id="ytick_3">
     <g id="line2d_9">
      <g>
       <use style="stroke:#000000;stroke-width:0.8;" x="30.103125" xlink:href="#m480f95d3d0" y="206.695219"/>
      </g>
     </g>
     <g id="text_10">
      <!-- 0.4 -->
      <g transform="translate(7.2 210.494437)scale(0.1 -0.1)">
       <use xlink:href="#DejaVuSans-48"/>
       <use x="63.623047" xlink:href="#DejaVuSans-46"/>
       <use x="95.410156" xlink:href="#DejaVuSans-52"/>
      </g>
     </g>
    </g>
    <g id="ytick_4">
     <g id="line2d_10">
      <g>
       <use style="stroke:#000000;stroke-width:0.8;" x="30.103125" xlink:href="#m480f95d3d0" y="141.463219"/>
      </g>
     </g>
     <g id="text_11">
      <!-- 0.6 -->
      <g transform="translate(7.2 145.262437)scale(0.1 -0.1)">
       <use xlink:href="#DejaVuSans-48"/>
       <use x="63.623047" xlink:href="#DejaVuSans-46"/>
       <use x="95.410156" xlink:href="#DejaVuSans-54"/>
      </g>
     </g>
    </g>
    <g id="ytick_5">
     <g id="line2d_11">
      <g>
       <use style="stroke:#000000;stroke-width:0.8;" x="30.103125" xlink:href="#m480f95d3d0" y="76.231219"/>
      </g>
     </g>
     <g id="text_12">
      <!-- 0.8 -->
      <g transform="translate(7.2 80.030437)scale(0.1 -0.1)">
       <defs>
        <path d="M 31.78125 34.625 
Q 24.75 34.625 20.71875 30.859375 
Q 16.703125 27.09375 16.703125 20.515625 
Q 16.703125 13.921875 20.71875 10.15625 
Q 24.75 6.390625 31.78125 6.390625 
Q 38.8125 6.390625 42.859375 10.171875 
Q 46.921875 13.96875 46.921875 20.515625 
Q 46.921875 27.09375 42.890625 30.859375 
Q 38.875 34.625 31.78125 34.625 
z
M 21.921875 38.8125 
Q 15.578125 40.375 12.03125 44.71875 
Q 8.5 49.078125 8.5 55.328125 
Q 8.5 64.0625 14.71875 69.140625 
Q 20.953125 74.21875 31.78125 74.21875 
Q 42.671875 74.21875 48.875 69.140625 
Q 55.078125 64.0625 55.078125 55.328125 
Q 55.078125 49.078125 51.53125 44.71875 
Q 48 40.375 41.703125 38.8125 
Q 48.828125 37.15625 52.796875 32.3125 
Q 56.78125 27.484375 56.78125 20.515625 
Q 56.78125 9.90625 50.3125 4.234375 
Q 43.84375 -1.421875 31.78125 -1.421875 
Q 19.734375 -1.421875 13.25 4.234375 
Q 6.78125 9.90625 6.78125 20.515625 
Q 6.78125 27.484375 10.78125 32.3125 
Q 14.796875 37.15625 21.921875 38.8125 
z
M 18.3125 54.390625 
Q 18.3125 48.734375 21.84375 45.5625 
Q 25.390625 42.390625 31.78125 42.390625 
Q 38.140625 42.390625 41.71875 45.5625 
Q 45.3125 48.734375 45.3125 54.390625 
Q 45.3125 60.0625 41.71875 63.234375 
Q 38.140625 66.40625 31.78125 66.40625 
Q 25.390625 66.40625 21.84375 63.234375 
Q 18.3125 60.0625 18.3125 54.390625 
z
" id="DejaVuSans-56"/>
       </defs>
       <use xlink:href="#DejaVuSans-48"/>
       <use x="63.623047" xlink:href="#DejaVuSans-46"/>
       <use x="95.410156" xlink:href="#DejaVuSans-56"/>
      </g>
     </g>
    </g>
    <g id="ytick_6">
     <g id="line2d_12">
      <g>
       <use style="stroke:#000000;stroke-width:0.8;" x="30.103125" xlink:href="#m480f95d3d0" y="10.999219"/>
      </g>
     </g>
     <g id="text_13">
      <!-- 1.0 -->
      <g transform="translate(7.2 14.798437)scale(0.1 -0.1)">
       <defs>
        <path d="M 12.40625 8.296875 
L 28.515625 8.296875 
L 28.515625 63.921875 
L 10.984375 60.40625 
L 10.984375 69.390625 
L 28.421875 72.90625 
L 38.28125 72.90625 
L 38.28125 8.296875 
L 54.390625 8.296875 
L 54.390625 0 
L 12.40625 0 
z
" id="DejaVuSans-49"/>
       </defs>
       <use xlink:href="#DejaVuSans-49"/>
       <use x="63.623047" xlink:href="#DejaVuSans-46"/>
       <use x="95.410156" xlink:href="#DejaVuSans-48"/>
      </g>
     </g>
    </g>
   </g>
   <g id="line2d_13">
    <path clip-path="url(#p19141f435a)" d="M 55.466761 303.717433 
L 56.317726 303.706911 
L 66.486181 303.558005 
L 67.872608 303.524799 
L 77.117614 303.330079 
L 79.515891 303.273945 
L 88.511396 303.086477 
L 91.225503 303.024127 
L 100.674621 302.763281 
L 109.61034 302.484789 
L 134.727262 301.51777 
L 135.420036 301.482376 
L 139.014918 301.295065 
L 143.246571 301.087006 
L 146.509123 300.934106 
L 147.673206 300.869053 
L 162.550665 299.929059 
L 162.64935 299.921194 
L 165.555528 299.709026 
L 169.418788 299.381418 
L 172.033383 299.145591 
L 172.635213 299.083624 
L 180.837149 298.325357 
L 181.097021 298.301219 
L 182.867489 298.11046 
L 197.729131 296.390935 
L 199.985603 296.094442 
L 201.748791 295.850952 
L 217.872844 293.145318 
L 218.267565 293.066062 
L 219.253679 292.881741 
L 219.709143 292.77709 
L 220.617088 292.599173 
L 220.780607 292.568353 
L 222.947905 292.117678 
L 236.844195 288.679291 
L 237.01828 288.636708 
L 237.021366 288.643676 
L 237.495161 288.505699 
L 237.80969 288.422289 
L 239.122563 288.016706 
L 239.239209 287.976691 
L 240.346467 287.616139 
L 240.815284 287.451777 
L 241.579267 287.196076 
L 241.78823 287.145656 
L 243.142973 286.749734 
L 243.685869 286.586153 
L 243.793238 286.551719 
L 244.311993 286.388747 
L 244.432736 286.359381 
L 244.819225 286.234865 
L 244.821268 286.242119 
L 244.920001 286.207203 
L 245.768477 285.93565 
L 246.707936 285.603464 
L 247.265313 285.432288 
L 247.387142 285.390704 
L 249.712562 284.603725 
L 250.278267 284.404463 
L 250.437018 284.355419 
L 253.806232 283.080877 
L 253.926447 283.035401 
L 254.730849 282.734855 
L 255.237883 282.556252 
L 256.008354 282.225151 
L 256.520663 282.022559 
L 256.68123 281.979846 
L 258.219682 281.347207 
L 259.04383 280.982732 
L 259.869207 280.679601 
L 260.001339 280.614998 
L 260.647611 280.297697 
L 260.888178 280.157668 
L 261.209098 280.03384 
L 261.605048 279.868573 
L 261.906612 279.73997 
L 262.380908 279.555083 
L 264.163303 278.699474 
L 264.611908 278.519021 
L 265.490649 278.046103 
L 265.665144 277.944153 
L 266.028038 277.75755 
L 269.650064 275.653091 
L 269.769932 275.584091 
L 272.716473 273.933001 
L 272.830265 273.857898 
L 276.954914 271.13124 
L 277.125662 270.982971 
L 277.402401 270.767167 
L 277.599363 270.591789 
L 277.998681 270.317367 
L 278.142483 270.216589 
L 278.388625 270.007621 
L 278.544915 269.89674 
L 278.883608 269.619119 
L 279.388885 269.227548 
L 279.633114 269.033592 
L 279.805961 268.892631 
L 279.970039 268.738855 
L 283.252468 265.97447 
L 283.393023 265.855156 
L 283.581146 265.725817 
L 284.061381 265.261354 
L 284.186957 265.133707 
L 284.8664 264.44007 
L 285.069865 264.203526 
L 285.250898 264.038209 
L 287.242726 262.07981 
L 287.393775 261.911394 
L 287.939324 261.291397 
L 287.942705 261.301392 
L 288.026283 261.210403 
L 288.218538 261.022531 
L 288.499421 260.716084 
L 288.667005 260.569709 
L 290.808002 258.079815 
L 290.928133 257.981067 
L 291.221148 257.652755 
L 291.223578 257.656435 
L 291.467495 257.351772 
L 291.626591 257.166814 
L 291.766999 256.983804 
L 291.883608 256.844499 
L 292.013845 256.691337 
L 293.361653 255.069638 
L 293.54391 254.865535 
L 293.736406 254.602599 
L 295.072809 252.727419 
L 295.073541 252.738243 
L 295.17143 252.608972 
L 295.315185 252.407481 
L 295.48404 252.155221 
L 295.486074 252.166097 
L 295.571106 252.034274 
L 295.571443 252.045165 
L 295.789686 251.769818 
L 298.815698 247.0041 
L 298.984491 246.702501 
L 299.089725 246.528571 
L 299.221874 246.26502 
L 299.347072 246.077767 
L 299.490856 245.827427 
L 299.49348 245.838868 
L 299.570059 245.678422 
L 299.787668 245.275278 
L 299.799554 245.277755 
L 299.901607 245.126748 
L 301.765718 241.898366 
L 301.904064 241.707102 
L 302.058875 241.415639 
L 302.268031 240.973929 
L 302.389799 240.764299 
L 302.96862 239.626555 
L 303.242113 239.132989 
L 304.139638 237.455535 
L 304.257833 237.205265 
L 304.408419 236.922624 
L 304.665148 236.414885 
L 304.78443 236.206621 
L 304.926999 236.000238 
L 305.898632 233.92151 
L 306.002443 233.779446 
L 306.219248 233.282998 
L 306.356117 233.033624 
L 306.359584 233.040251 
L 306.605029 232.530733 
L 306.707446 232.312838 
L 306.831781 232.052718 
L 307.230784 231.175921 
L 307.232421 231.188546 
L 307.310705 230.957129 
L 307.513349 230.454994 
L 307.708424 230.054278 
L 307.9339 229.530225 
L 308.080069 229.196783 
L 308.080152 229.20956 
L 308.180898 228.981797 
L 308.392175 228.413533 
L 308.567232 228.078451 
L 308.68665 227.773692 
L 308.821632 227.525769 
L 309.085394 226.868007 
L 309.238042 226.575223 
L 309.247262 226.587858 
L 309.323231 226.421275 
L 309.630705 225.714622 
L 309.886855 225.141859 
L 310.590483 223.407449 
L 310.784853 222.966553 
L 310.791303 222.979792 
L 310.79244 222.993033 
L 310.879411 222.800172 
L 310.955099 222.604465 
L 311.172306 222.168359 
L 311.411629 221.598193 
L 311.549947 221.294762 
L 311.90893 220.379435 
L 312.024685 220.089579 
L 312.257758 219.481754 
L 312.260404 219.487627 
L 312.449639 219.012017 
L 312.601191 218.567187 
L 314.243074 214.028309 
L 314.244823 214.033763 
L 314.357093 213.718967 
L 314.659432 212.852068 
L 315.374697 211.214662 
L 315.594916 210.632625 
L 315.708605 210.388467 
L 315.829918 209.966549 
L 315.830068 209.980684 
L 316.052601 209.39457 
L 316.397467 208.520811 
L 316.40232 208.554284 
L 316.468959 208.321893 
L 316.654537 207.709581 
L 316.661161 207.723875 
L 316.715684 207.587507 
L 316.888055 207.067047 
L 316.987596 206.766929 
L 317.119932 206.344973 
L 317.124999 206.34972 
L 317.422197 205.417962 
L 317.625399 204.816428 
L 317.737428 204.359746 
L 317.907129 203.977628 
L 318.026935 203.735714 
L 318.633359 202.164594 
L 318.768209 201.78954 
L 320.390806 196.897589 
L 320.390916 196.92744 
L 320.498091 196.532262 
L 320.717363 195.950814 
L 321.001747 194.898792 
L 321.009715 194.913814 
L 321.047912 194.750956 
L 321.189083 194.221321 
L 321.191716 194.236379 
L 321.258485 194.052858 
L 321.280512 194.067937 
L 321.307484 193.961777 
L 321.417811 193.753388 
L 321.448276 193.768491 
L 321.459084 193.783596 
L 321.496942 193.653136 
L 321.717471 193.055258 
L 321.758425 193.074217 
L 321.827364 192.921782 
L 321.831803 192.936959 
L 321.89924 192.774553 
L 322.009239 192.408804 
L 322.146919 192.01939 
L 322.38401 191.33125 
L 322.658292 190.719468 
L 322.980076 189.773228 
L 322.662946 190.722305 
L 322.995497 189.791339 
L 323.181288 189.348565 
L 323.305128 188.855732 
L 323.506443 188.304044 
L 323.509869 188.319526 
L 323.57165 188.090116 
L 324.039297 186.844013 
L 324.228906 186.404948 
L 324.234651 186.440587 
L 324.496407 185.69227 
L 324.698182 185.049253 
L 324.7103 185.064949 
L 324.714265 185.080647 
L 324.785061 184.908002 
L 324.92784 184.438202 
L 324.933644 184.455826 
L 325.644733 182.441522 
L 325.655549 182.457391 
L 325.691997 182.315582 
L 326.357381 180.763455 
L 326.47297 180.413769 
L 326.825866 179.413103 
L 326.99067 178.937719 
L 327.005264 178.953808 
L 327.023718 178.84764 
L 327.05915 178.854048 
L 327.201237 178.53856 
L 327.062558 178.854965 
L 327.203153 178.539419 
L 327.241451 178.604854 
L 327.2765 178.452771 
L 327.287238 178.485936 
L 327.422255 178.077595 
L 327.563583 177.711679 
L 327.568364 177.712385 
L 327.739168 177.190519 
L 329.361321 171.758805 
L 329.420453 171.572353 
L 329.637151 170.849912 
L 329.640914 170.8664 
L 329.701738 170.642409 
L 329.820743 170.259144 
L 330.141076 169.370066 
L 330.315605 168.842941 
L 330.365213 168.647802 
L 330.484949 168.320208 
L 330.59367 167.849507 
L 330.676511 167.575443 
L 330.722145 167.669961 
L 330.723809 167.68665 
L 330.801106 167.353911 
L 330.99657 166.640236 
L 331.006364 166.656943 
L 331.045556 166.525486 
L 331.51867 165.064568 
L 331.528458 165.114878 
L 331.633064 164.731364 
L 331.763841 164.217238 
L 331.963001 163.695848 
L 331.966271 163.71267 
L 332.018516 163.476048 
L 332.174713 162.995059 
L 332.29525 162.635646 
L 332.322821 162.664346 
L 332.362843 162.542428 
L 332.468026 162.353798 
L 332.857318 161.511957 
L 333.002593 161.051298 
L 333.005716 161.068303 
L 333.012114 161.085312 
L 333.056047 160.899541 
L 333.168231 160.577435 
L 333.184864 160.608443 
L 333.21218 160.383774 
L 333.332749 159.99096 
L 333.336216 160.008033 
L 333.474674 159.639062 
L 333.627185 159.240069 
L 333.740119 159.016969 
L 333.74253 159.034102 
L 333.82569 158.830671 
L 334.020721 158.265401 
L 334.663317 156.764935 
L 334.681818 156.795493 
L 334.835676 156.456843 
L 334.94206 156.072184 
L 334.94772 156.089578 
L 335.016757 155.954865 
L 335.168133 155.534873 
L 335.180009 155.552323 
L 335.20603 155.416166 
L 335.213768 155.411654 
L 335.701775 154.50483 
L 336.073035 153.711846 
L 336.209902 153.388305 
L 336.392881 152.903432 
L 336.592294 152.421277 
L 336.410585 152.915855 
L 336.598636 152.451387 
L 336.614519 152.469171 
L 336.642541 152.347531 
L 336.751699 152.000189 
L 336.755354 152.035813 
L 336.993717 151.793966 
L 336.997867 151.811849 
L 337.002197 151.829737 
L 337.07005 151.694876 
L 337.114756 151.476538 
L 337.258102 151.01466 
L 337.413448 150.6683 
L 337.546361 150.463637 
L 337.441846 150.686166 
L 337.561099 150.535609 
L 337.561924 150.553614 
L 337.645985 150.185023 
L 337.651852 150.196857 
L 337.925886 149.393383 
L 337.929831 149.411477 
L 337.997152 149.213471 
L 338.123625 148.691189 
L 338.162883 148.707399 
L 338.177029 148.608044 
L 338.276746 148.304771 
L 338.288549 148.316117 
L 338.634132 147.488665 
L 338.635705 147.525218 
L 338.658635 147.598383 
L 338.690294 147.413287 
L 338.702285 147.442746 
L 338.868795 146.976154 
L 339.230443 145.896116 
L 339.24208 145.906815 
L 339.341258 145.617669 
L 339.606343 144.622655 
L 339.752379 144.150679 
L 339.89106 143.652151 
L 339.999432 143.577177 
L 339.939957 143.720759 
L 339.99996 143.595698 
L 340.731183 142.105944 
L 340.742068 142.124669 
L 340.774637 141.985298 
L 340.784732 141.994849 
L 340.814192 142.051063 
L 340.856269 141.91142 
L 341.316177 140.65847 
L 341.348585 140.714406 
L 341.348952 140.733257 
L 341.447396 140.283582 
L 341.695156 139.757932 
L 341.713938 139.776845 
L 341.728352 139.64056 
L 341.828179 139.473383 
L 341.742455 139.649353 
L 341.839352 139.549157 
L 341.851869 139.568114 
L 341.861953 139.393126 
L 341.868932 139.401841 
L 341.973984 139.043634 
L 342.117451 138.766716 
L 341.997959 139.060852 
L 342.122049 138.804861 
L 342.325885 138.448294 
L 342.328809 138.467422 
L 342.347317 138.486556 
L 342.382761 138.394746 
L 342.420482 138.302716 
L 342.46315 138.43466 
L 342.480646 138.383174 
L 342.495881 138.402393 
L 342.532214 138.271559 
L 342.538058 138.279968 
L 342.691705 138.059122 
L 342.710433 138.078399 
L 342.712214 138.097683 
L 342.799115 137.869552 
L 342.80259 137.888863 
L 343.305133 137.084219 
L 343.305598 137.103679 
L 343.330329 137.123146 
L 343.347398 137.019018 
L 343.360399 137.027039 
L 343.600397 136.347582 
L 343.626965 136.406238 
L 343.630953 136.445373 
L 343.71219 136.252832 
L 343.844981 135.936647 
L 343.884716 135.971618 
L 343.886701 135.991287 
L 343.975419 135.764933 
L 343.994448 135.792213 
L 344.05979 135.648323 
L 344.059889 135.668027 
L 344.399446 134.691695 
L 344.409103 134.711482 
L 344.443171 134.536759 
L 344.450749 134.556547 
L 344.527923 134.514502 
L 344.517837 134.644652 
L 344.568914 134.561361 
L 344.615486 134.649818 
L 344.593093 134.51046 
L 344.668448 134.533504 
L 344.784953 134.339698 
L 344.791069 134.399679 
L 344.797613 134.439699 
L 344.853284 134.282297 
L 344.889372 134.303609 
L 344.972475 134.35358 
L 344.943229 134.266011 
L 344.99015 134.274386 
L 345.138591 133.844258 
L 345.033417 134.288658 
L 345.171258 133.911731 
L 345.367959 133.497844 
L 345.467854 133.315972 
L 345.46924 133.336237 
L 345.905134 132.488346 
L 345.974508 132.329204 
L 345.916744 132.494777 
L 346.021486 132.403219 
L 346.035508 132.423661 
L 346.073055 132.306115 
L 346.111257 132.180542 
L 346.17026 132.350817 
L 346.180221 132.336698 
L 346.230868 132.445887 
L 346.280461 132.285125 
L 346.366499 132.095206 
L 346.382943 132.136431 
L 346.436255 132.231751 
L 346.474907 132.083891 
L 346.593022 131.751619 
L 346.608013 131.855145 
L 346.85297 131.415396 
L 346.866066 131.436193 
L 346.891436 131.483907 
L 346.905652 131.398015 
L 346.936706 131.383244 
L 347.054398 131.029271 
L 347.309557 130.499953 
L 347.338585 130.60454 
L 347.407992 130.42519 
L 347.504121 130.187418 
L 347.426658 130.430831 
L 347.564799 130.240509 
L 347.575571 130.282562 
L 347.620063 130.147581 
L 347.672702 130.185274 
L 347.831957 130.040371 
L 347.840271 130.061537 
L 347.880519 130.209915 
L 347.937063 130.009828 
L 347.944543 130.031046 
L 348.057321 129.95856 
L 348.0051 130.07443 
L 348.060752 129.979863 
L 348.093 130.03358 
L 348.162332 129.799995 
L 348.345287 129.270542 
L 348.363798 129.275724 
L 348.410741 129.243288 
L 348.445658 129.35563 
L 348.447371 129.377087 
L 348.526647 129.106966 
L 348.534742 129.128441 
L 348.704987 128.588639 
L 348.706091 128.610152 
L 348.746663 128.619922 
L 348.771406 128.543506 
L 348.913599 128.046878 
L 348.969152 127.807489 
L 349.050638 127.851579 
L 349.079417 127.916521 
L 349.1279 127.76583 
L 349.129566 127.787493 
L 349.20652 127.831746 
L 349.248238 127.68027 
L 349.291721 127.754516 
L 349.317771 127.602485 
L 349.561653 127.099422 
L 349.57729 127.186814 
L 349.582434 127.230559 
L 349.600672 127.054643 
L 349.676277 127.093199 
L 349.898718 126.745411 
L 349.899299 126.767416 
L 350.914842 124.781899 
L 351.047355 124.234062 
L 351.056928 124.323276 
L 351.12895 124.311813 
L 351.147634 124.250113 
L 351.387823 123.676212 
L 351.401001 123.698626 
L 351.414141 123.721049 
L 351.434637 123.593573 
L 351.444057 123.615993 
L 351.828567 122.661752 
L 351.864346 122.797237 
L 351.881618 122.668901 
L 351.981823 122.876603 
L 352.003002 122.922063 
L 352.012004 122.747816 
L 352.020122 122.793279 
L 352.151544 122.315716 
L 352.155149 122.338443 
L 352.408481 121.819872 
L 352.434811 121.865449 
L 352.448293 121.688216 
L 352.563274 121.24669 
L 352.598028 121.315067 
L 352.644653 121.181114 
L 352.652663 121.203911 
L 352.836864 120.784212 
L 352.872434 120.877264 
L 353.395037 119.719219 
L 353.490496 119.811865 
L 353.497305 119.835051 
L 353.564302 119.672777 
L 353.569202 119.719219 
L 353.674527 119.532615 
L 353.688645 119.579206 
L 353.710955 119.39203 
L 353.73419 119.438651 
L 353.905266 118.849835 
L 353.947744 118.731496 
L 354.002591 118.846439 
L 354.290745 117.981413 
L 354.291982 118.004843 
L 354.308298 118.028283 
L 354.326864 117.907616 
L 354.351252 117.929884 
L 354.584904 117.462222 
L 354.587458 117.48574 
L 354.628857 117.553482 
L 354.662505 117.382449 
L 354.67445 117.308576 
L 354.74664 117.425038 
L 354.768123 117.351012 
L 354.958669 116.946494 
L 354.968252 116.993919 
L 354.968937 117.017647 
L 355.054932 116.741257 
L 355.076498 116.765004 
L 355.087507 116.640163 
L 355.18764 116.361545 
L 355.207573 116.385302 
L 355.219571 116.259611 
L 355.244703 116.257268 
L 355.392714 115.897128 
L 355.496189 115.984751 
L 355.524354 115.907955 
L 355.552431 115.80718 
L 355.596465 115.974529 
L 355.603601 115.99848 
L 355.618935 115.769829 
L 355.670211 115.887019 
L 355.81832 115.541529 
L 355.821903 115.589661 
L 355.848987 115.637837 
L 355.85867 115.508762 
L 355.872363 115.505849 
L 355.999557 115.079961 
L 356.006494 115.104104 
L 356.032732 115.152424 
L 356.09655 115.046077 
L 356.189758 114.597614 
L 356.224445 114.642403 
L 356.367408 114.822611 
L 356.387424 114.690376 
L 356.456292 114.348435 
L 356.568381 114.175423 
L 356.49837 114.368976 
L 356.570476 114.199785 
L 356.576548 114.22416 
L 356.645621 114.058059 
L 356.815249 113.637524 
L 356.82042 113.686411 
L 356.830759 113.710872 
L 356.853064 113.517768 
L 356.856628 113.542241 
L 356.965655 113.173592 
L 356.998353 113.193408 
L 357.064606 112.835887 
L 357.071064 112.727831 
L 357.165954 112.914366 
L 357.495673 112.141522 
L 357.502909 112.191017 
L 357.514763 112.215783 
L 357.554686 112.07526 
L 357.572855 112.124807 
L 357.639238 111.972585 
L 357.671767 112.022228 
L 357.692254 111.966871 
L 357.759621 112.085516 
L 357.800073 112.235162 
L 357.863797 112.01296 
L 357.869681 112.087859 
L 357.8797 112.11285 
L 357.902803 111.890087 
L 357.908455 111.91506 
L 358.050884 111.66188 
L 358.057493 111.68692 
L 358.297389 111.041267 
L 358.352063 111.217353 
L 358.435704 111.293008 
L 358.444041 111.179279 
L 358.468842 111.00847 
L 358.582407 111.102843 
L 358.585887 111.128115 
L 358.674796 110.962137 
L 358.91329 110.395605 
L 358.944879 110.497185 
L 359.378558 110.019607 
L 359.383818 110.04522 
L 359.444094 110.173484 
L 359.471206 110.022646 
L 359.56408 109.899895 
L 359.499604 110.143724 
L 359.579259 110.002971 
L 359.588294 110.028773 
L 359.60895 109.876839 
L 359.627295 109.902643 
L 360.019932 109.33762 
L 360.022647 109.415502 
L 360.033689 109.44149 
L 360.064133 109.286927 
L 360.181271 108.985716 
L 360.218428 109.003193 
L 360.298051 109.029722 
L 360.246762 108.933963 
L 360.313751 108.995039 
L 360.322978 108.81241 
L 360.419724 108.969572 
L 360.427261 108.995831 
L 360.441129 108.838467 
L 360.492643 108.882271 
L 360.598209 108.469292 
L 360.636583 108.186976 
L 360.703364 108.370944 
L 360.745103 108.397282 
L 360.750723 108.335388 
L 360.874293 107.977695 
L 360.89582 108.056905 
L 360.902805 108.109783 
L 360.96786 107.857234 
L 360.980331 107.73176 
L 361.065626 107.934257 
L 361.133163 107.924547 
L 361.134966 107.86157 
L 361.238981 107.515953 
L 361.276784 107.569219 
L 361.297747 107.469078 
L 361.359597 107.395414 
L 361.368018 107.502136 
L 361.382863 107.491983 
L 361.424058 107.562127 
L 361.692088 106.654546 
L 361.808866 106.25923 
L 361.75848 106.686249 
L 361.815208 106.286041 
L 361.824791 106.312867 
L 361.851592 106.117731 
L 361.861705 106.14454 
L 361.994501 105.794944 
L 362.008446 105.809952 
L 362.198669 105.604151 
L 362.237326 105.672867 
L 362.244548 105.699817 
L 362.314261 105.555866 
L 362.368402 105.651764 
L 362.408666 105.519436 
L 362.507582 105.377033 
L 362.516751 105.404107 
L 362.570071 105.418886 
L 362.546935 105.364684 
L 362.581947 105.352313 
L 362.602845 105.206538 
L 362.686953 105.411478 
L 362.74373 105.332117 
L 362.810638 105.428866 
L 362.8142 105.294607 
L 362.913764 105.473803 
L 362.917261 105.406472 
L 362.924576 105.433916 
L 362.988895 105.273904 
L 363.114406 104.951631 
L 363.115763 104.979143 
L 363.161506 105.063571 
L 363.142419 104.925647 
L 363.175821 104.927165 
L 363.287627 104.750988 
L 363.298454 104.778635 
L 363.319095 104.833978 
L 363.358493 104.655798 
L 363.378187 104.711167 
L 363.487129 104.53324 
L 363.452996 104.725576 
L 363.488775 104.560987 
L 363.505833 104.61653 
L 363.519246 104.409272 
L 363.651073 104.17391 
L 363.72608 104.341061 
L 363.673432 104.118288 
L 363.778478 104.257542 
L 363.894794 103.879219 
L 363.900047 103.907186 
L 364.011312 103.624717 
L 363.925256 103.920895 
L 364.017688 103.652709 
L 364.116774 103.750351 
L 364.119902 103.679643 
L 364.320477 103.123021 
L 364.324399 103.151099 
L 364.357485 103.179194 
L 364.361263 103.107837 
L 364.500469 102.672296 
L 364.521962 102.700434 
L 364.566551 102.65659 
L 364.671017 102.508846 
L 364.700583 102.521143 
L 364.749844 102.416747 
L 364.777103 102.558216 
L 364.985733 102.259051 
L 365.013408 102.287463 
L 365.333599 102.43062 
L 365.472494 102.08524 
L 365.537421 102.109399 
L 365.776667 101.697227 
L 365.79246 101.841743 
L 365.817403 101.870701 
L 365.833106 101.749544 
L 365.885655 101.489049 
L 365.942722 101.663124 
L 366.02 101.867059 
L 366.068969 101.774122 
L 366.210885 101.054388 
L 366.211457 101.083514 
L 366.330811 100.835901 
L 366.405296 100.46267 
L 366.432527 100.491755 
L 366.462487 100.520858 
L 366.47581 100.443877 
L 366.564335 100.299871 
L 366.585656 100.387277 
L 366.593118 100.416451 
L 366.632953 100.19443 
L 366.649482 100.252823 
L 366.743577 99.981149 
L 366.751865 100.039613 
L 366.798325 100.068874 
L 366.808664 99.97146 
L 366.889306 99.560644 
L 366.906889 99.589872 
L 367.06468 99.676672 
L 367.190325 99.241508 
L 367.272453 98.953699 
L 367.325217 99.021022 
L 367.356229 99.109309 
L 367.4073 98.870303 
L 367.413422 98.929158 
L 367.58308 98.275287 
L 367.602214 98.304673 
L 367.603165 98.224224 
L 367.651977 98.253612 
L 367.720514 97.945795 
L 367.746736 98.004662 
L 367.776647 98.063609 
L 367.792759 97.960467 
L 367.83517 97.827552 
L 367.910356 97.834744 
L 367.934291 97.893836 
L 367.945209 97.760445 
L 368.051791 97.276676 
L 368.08344 97.365226 
L 368.201548 97.408114 
L 368.202942 97.32581 
L 368.285617 97.24992 
L 368.306819 97.398475 
L 368.435349 97.209902 
L 368.450852 97.239661 
L 368.500893 97.388762 
L 368.57052 97.229323 
L 368.686696 97.015702 
L 368.699061 97.0456 
L 368.728646 97.075519 
L 368.748633 96.992012 
L 368.853809 96.525113 
L 368.874011 96.584879 
L 368.919882 96.416645 
L 369.004647 96.517478 
L 369.013265 96.547505 
L 369.031082 96.383821 
L 369.074832 96.413876 
L 369.152099 96.304372 
L 369.187748 96.339812 
L 369.209805 96.49075 
L 369.25118 96.179913 
L 369.345618 96.215321 
L 369.672128 95.702408 
L 369.693267 95.793782 
L 369.726349 95.854807 
L 369.752808 95.537445 
L 369.753576 95.567931 
L 370.104155 94.236108 
L 370.114484 94.266509 
L 370.172972 94.357844 
L 370.177333 94.269036 
L 370.188468 94.180163 
L 370.274294 94.302084 
L 370.353835 94.368546 
L 370.325192 94.215518 
L 370.366171 94.30987 
L 370.48749 93.776044 
L 370.523209 93.837338 
L 370.586989 93.929449 
L 370.615038 93.86999 
L 370.742801 93.600543 
L 370.768901 93.662025 
L 370.810524 93.694521 
L 370.823663 93.543631 
L 370.842878 93.574454 
L 370.86229 93.240835 
L 370.944611 93.580676 
L 370.952932 93.48914 
L 371.043133 93.277137 
L 371.075106 93.432555 
L 371.143619 93.466512 
L 371.087333 93.27937 
L 371.187493 93.436623 
L 371.262354 93.159767 
L 371.273106 93.222341 
L 371.381318 93.442105 
L 371.387058 93.473596 
L 371.447021 93.256946 
L 371.566613 92.914979 
L 371.576481 92.946449 
L 371.604966 92.758665 
L 371.651344 92.916137 
L 371.779875 92.318243 
L 371.803402 92.381257 
L 371.830236 92.222927 
L 371.874773 92.285989 
L 371.946963 92.444073 
L 372.014767 92.571033 
L 372.041744 92.411812 
L 372.060928 92.539219 
L 372.119821 92.187063 
L 372.184759 92.2824 
L 372.205173 92.314414 
L 372.231069 92.153383 
L 372.249033 92.217435 
L 372.718427 91.427607 
L 372.768241 91.52447 
L 372.796549 91.589175 
L 372.832086 91.456394 
L 372.857758 91.35748 
L 372.891911 91.519558 
L 372.950645 91.552052 
L 372.967658 91.51791 
L 373.074833 91.11797 
L 373.08963 91.15046 
L 373.175949 91.248086 
L 373.186286 91.14594 
L 373.230742 91.276578 
L 373.24436 91.076021 
L 373.328902 90.670872 
L 373.432358 90.929877 
L 373.483059 90.688331 
L 373.560497 90.072406 
L 373.592441 90.137999 
L 373.645107 89.657348 
L 373.692931 89.821219 
L 373.843077 89.408301 
L 373.931424 89.086162 
L 373.987889 89.151699 
L 373.989524 89.047581 
L 374.056283 88.695582 
L 374.10725 88.793808 
L 374.169989 88.95807 
L 374.247247 88.846972 
L 374.372313 88.630004 
L 374.374857 88.662954 
L 374.390807 88.728938 
L 374.394696 88.517688 
L 374.419524 88.550661 
L 374.504076 88.583661 
L 374.523145 88.477839 
L 374.622211 88.18531 
L 374.624177 88.218296 
L 374.740854 88.343335 
L 374.744455 88.236593 
L 374.868491 88.04046 
L 374.923856 88.106932 
L 374.938001 87.999443 
L 375.155242 86.999045 
L 375.189844 87.098477 
L 375.294106 87.322374 
L 375.302916 87.212844 
L 375.388661 87.084078 
L 375.34209 87.236969 
L 375.40404 87.184675 
L 375.47419 87.098415 
L 375.498617 87.233163 
L 375.613351 86.847009 
L 375.615728 86.880749 
L 375.789973 87.074071 
L 375.790295 86.962276 
L 375.863448 86.840186 
L 375.901042 86.94226 
L 375.903715 86.976346 
L 375.981233 86.707073 
L 375.994198 86.741145 
L 376.237177 85.879872 
L 376.281015 86.016019 
L 376.307081 85.787499 
L 376.366065 85.855612 
L 376.383919 85.741123 
L 376.601008 85.208099 
L 376.676117 85.412908 
L 376.703083 85.447152 
L 376.706925 85.331263 
L 376.829183 84.989219 
L 376.851472 85.057792 
L 376.969884 84.843905 
L 376.986786 84.91263 
L 377.031755 85.085002 
L 377.042549 84.884132 
L 377.166843 84.396687 
L 377.210752 84.346937 
L 377.261867 84.415873 
L 377.354005 84.112008 
L 377.370908 84.215665 
L 377.488466 84.389081 
L 377.502397 84.304027 
L 377.616049 83.82502 
L 377.724717 83.999161 
L 377.752918 83.878032 
L 377.872416 83.444373 
L 377.881776 83.479219 
L 377.997909 83.618939 
L 378.044104 83.531664 
L 378.205602 82.934653 
L 378.228501 83.004459 
L 378.297592 83.179569 
L 378.301827 83.002377 
L 378.317422 82.789438 
L 378.41313 82.805481 
L 378.655546 81.854667 
L 378.674016 81.924544 
L 378.736181 82.064713 
L 378.747985 81.938616 
L 378.82517 81.686047 
L 378.924304 81.283946 
L 378.964841 81.388796 
L 378.97891 81.423816 
L 379.025152 81.296521 
L 379.058232 80.98365 
L 379.070876 81.053564 
L 379.161859 81.193813 
L 379.168588 81.065638 
L 379.254096 80.914038 
L 379.350667 81.031557 
L 379.353726 80.902396 
L 379.496688 80.013746 
L 379.541088 80.119219 
L 379.740569 80.270662 
L 379.905579 79.655647 
L 380.032846 79.735417 
L 380.08722 79.371268 
L 380.161207 79.521652 
L 380.229163 79.592993 
L 380.23666 79.458844 
L 380.251305 79.190126 
L 380.325614 79.261306 
L 380.412773 78.757209 
L 380.429215 78.792685 
L 380.525383 78.598924 
L 380.587778 78.741464 
L 380.659675 78.68303 
L 380.721563 78.444818 
L 380.743962 78.552272 
L 380.793451 78.588167 
L 380.924314 78.042251 
L 380.965363 78.149807 
L 380.973907 78.185736 
L 381.017926 77.944171 
L 381.051316 78.051972 
L 381.144319 77.813666 
L 381.161261 77.885781 
L 381.195699 77.745785 
L 381.254764 77.817943 
L 381.300702 77.854081 
L 381.404777 77.363842 
L 381.411111 77.39987 
L 381.508162 77.04795 
L 381.56258 77.192083 
L 381.65535 77.228214 
L 381.763633 76.803429 
L 381.826772 76.839526 
L 381.868225 76.911838 
L 381.880509 76.768845 
L 381.96123 76.554505 
L 381.97128 76.590624 
L 382.081323 76.626782 
L 382.139876 76.375298 
L 382.196686 76.483776 
L 382.357346 76.158819 
L 382.370186 76.194999 
L 382.485108 76.34012 
L 382.490663 76.194898 
L 382.566396 76.303982 
L 382.608599 76.340424 
L 382.720411 75.500328 
L 382.726577 75.536483 
L 382.781343 75.645193 
L 382.795612 75.498275 
L 382.818838 75.570827 
L 382.925717 75.607165 
L 382.935743 75.312458 
L 383.024403 75.567092 
L 383.173995 75.079629 
L 383.275987 75.152697 
L 383.399674 74.699425 
L 383.422371 74.772476 
L 383.46721 74.621938 
L 383.517799 74.241981 
L 383.574413 74.387869 
L 383.736263 74.644801 
L 383.815022 74.450787 
L 383.836102 74.524568 
L 383.939514 74.635561 
L 384.448267 72.830498 
L 384.499843 72.940584 
L 384.547194 72.783684 
L 384.645084 72.85715 
L 384.893308 71.529813 
L 385.019953 71.661827 
L 385.054213 71.340791 
L 385.135134 71.523755 
L 385.198745 71.362568 
L 385.25951 71.472653 
L 385.262155 71.509438 
L 385.310399 71.060389 
L 385.349805 71.097034 
L 385.433832 70.482499 
L 385.453468 70.59191 
L 385.516205 70.701725 
L 385.630251 70.081807 
L 385.708585 70.264386 
L 385.720653 70.301037 
L 385.734039 70.135902 
L 385.801012 69.675646 
L 385.888197 69.858211 
L 385.902861 69.89486 
L 385.927639 69.72834 
L 385.945216 69.801614 
L 386.02217 69.540757 
L 386.034095 69.577391 
L 386.153488 69.68757 
L 386.27076 69.028947 
L 386.343532 69.065582 
L 386.370583 68.726652 
L 386.480936 68.836331 
L 386.50147 68.872983 
L 386.51281 68.702859 
L 386.570686 68.81284 
L 386.988181 67.768236 
L 387.051186 67.841251 
L 387.086972 67.777555 
L 387.153042 67.961185 
L 387.275255 67.547738 
L 387.307631 67.584482 
L 387.471652 67.695 
L 387.557837 67.241048 
L 387.589174 67.35147 
L 387.629912 67.425326 
L 387.697289 67.071345 
L 387.770799 67.255914 
L 387.802299 67.292974 
L 387.967626 66.973872 
L 388.028506 67.047864 
L 388.05609 66.869219 
L 388.109445 66.906194 
L 388.177097 66.980292 
L 388.266954 66.515814 
L 388.350637 66.589738 
L 388.411274 65.686032 
L 388.472073 65.795845 
L 388.535596 65.869299 
L 388.799413 64.919057 
L 388.808127 64.955465 
L 388.827972 64.991921 
L 389.007874 64.213631 
L 389.012949 64.027953 
L 389.082424 64.172643 
L 389.154267 64.281679 
L 389.17682 64.095033 
L 389.267276 64.204208 
L 389.337662 64.350476 
L 389.358998 64.16285 
L 389.380563 64.272768 
L 389.435714 64.309508 
L 389.537044 63.437971 
L 389.569292 63.547219 
L 389.692462 63.693592 
L 389.789906 63.503024 
L 389.862723 63.576302 
L 389.899834 63.613018 
L 390.025566 63.148223 
L 390.064374 63.184819 
L 390.164159 62.799753 
L 390.27256 62.401113 
L 390.364747 62.510324 
L 390.506529 61.838393 
L 390.528565 61.910865 
L 390.53792 61.71454 
L 390.69735 61.033799 
L 391.030982 59.923219 
L 391.052597 59.994226 
L 391.062891 60.029807 
L 391.06651 59.828405 
L 391.139604 60.006484 
L 391.345973 58.928682 
L 391.421221 59.034565 
L 391.421739 58.829609 
L 391.532062 59.077619 
L 391.5663 59.220497 
L 391.615223 59.013851 
L 391.711914 58.498248 
L 391.713846 58.569301 
L 391.961168 58.891689 
L 392.001905 58.681992 
L 392.027881 58.471979 
L 392.099796 58.54369 
L 392.169976 58.333096 
L 392.226611 58.40476 
L 392.279993 58.440673 
L 392.449565 57.73556 
L 392.468759 57.77121 
L 392.476274 57.557936 
L 392.658436 56.731977 
L 392.687089 56.802552 
L 392.76117 56.908824 
L 392.803578 56.545223 
L 392.856862 56.687001 
L 393.133555 56.90133 
L 393.270682 56.199345 
L 393.281324 56.234963 
L 393.334617 56.378001 
L 393.369939 56.155864 
L 393.385246 56.191618 
L 393.456964 56.263295 
L 393.580911 56.040362 
L 393.642156 56.147858 
L 393.668623 56.183805 
L 393.78717 55.060801 
L 393.790979 55.096051 
L 393.83085 55.166719 
L 393.888396 54.714082 
L 394.158191 54.854871 
L 394.16318 54.62739 
L 394.257387 54.733112 
L 394.27515 54.768467 
L 394.292905 54.539995 
L 394.383658 54.645934 
L 394.608334 54.966866 
L 394.645033 54.505013 
L 394.704581 54.540644 
L 394.786333 54.576334 
L 394.85957 54.344518 
L 394.920261 54.487219 
L 395.096776 54.666921 
L 395.137416 54.000413 
L 395.279082 54.071843 
L 395.375757 53.470805 
L 395.39076 53.506286 
L 395.417737 53.577428 
L 395.563281 53.13734 
L 395.580893 53.279219 
L 395.672448 53.457917 
L 395.707181 52.977474 
L 395.771545 53.120136 
L 395.82465 53.155953 
L 395.838553 52.707659 
L 395.935936 52.850374 
L 396.180218 53.066287 
L 396.26684 52.612736 
L 396.366196 52.829097 
L 396.681974 53.23166 
L 396.831414 52.843999 
L 396.859052 52.880802 
L 396.978174 52.489537 
L 397.101352 52.526221 
L 397.105659 52.274334 
L 397.206855 52.568631 
L 397.369905 52.717358 
L 397.519086 51.842678 
L 397.671564 51.400593 
L 397.684289 51.437155 
L 397.78276 51.620964 
L 397.91096 50.425153 
L 397.93689 50.497494 
L 397.968666 50.570101 
L 398.0562 50.042313 
L 398.098466 50.150465 
L 398.213942 50.295604 
L 398.252231 49.762896 
L 398.359775 49.871174 
L 398.468653 49.980059 
L 398.626833 49.389049 
L 398.662959 49.497802 
L 398.674326 49.53419 
L 398.696727 49.262076 
L 398.724937 49.334612 
L 398.903231 49.517162 
L 398.981329 49.627528 
L 399.032691 49.352641 
L 399.092926 49.426115 
L 399.291423 49.573911 
L 399.367975 49.056461 
L 399.44165 49.093196 
L 399.623732 49.277938 
L 399.642846 48.998442 
L 399.72383 49.072371 
L 399.807548 48.791858 
L 399.829145 48.828692 
L 399.948106 48.865599 
L 400.088262 47.736143 
L 400.10524 47.77216 
L 400.125569 47.488169 
L 400.176707 47.559927 
L 400.322502 47.668094 
L 400.327274 47.382318 
L 400.387178 47.41827 
L 400.451149 47.131682 
L 400.494728 47.167456 
L 400.654891 47.311266 
L 400.767472 46.224499 
L 400.812642 46.259759 
L 400.832389 45.968277 
L 400.917341 46.073711 
L 401.093338 46.358003 
L 401.105982 46.063073 
L 401.150893 46.205899 
L 401.339319 46.422334 
L 401.404621 46.531552 
L 401.434833 46.232552 
L 401.565758 45.70426 
L 401.642873 45.100834 
L 401.669501 45.136172 
L 401.836845 45.349751 
L 401.907181 45.566018 
L 401.907583 45.259723 
L 401.928362 45.33185 
L 402.317481 45.660218 
L 402.366198 45.734043 
L 402.381084 45.423355 
L 402.415996 45.496911 
L 402.522072 45.64497 
L 402.643177 45.83184 
L 402.666633 45.517232 
L 402.757777 45.591946 
L 402.848447 45.629425 
L 403.055353 44.715432 
L 403.181962 44.862825 
L 403.224747 44.937006 
L 403.258809 43.973636 
L 403.277923 44.009912 
L 403.387894 43.68706 
L 403.462301 43.795418 
L 403.53015 43.977619 
L 403.638218 44.051067 
L 403.741747 43.140406 
L 403.762201 43.176438 
L 403.77639 43.212552 
L 403.794655 42.882275 
L 403.864291 42.954084 
L 404.042915 43.098676 
L 404.098861 42.431872 
L 404.130949 42.46755 
L 404.20952 42.53915 
L 404.233334 42.203592 
L 404.305706 42.274835 
L 404.646019 42.526768 
L 404.650362 42.56309 
L 404.683504 42.223302 
L 404.930906 42.514097 
L 405.036696 41.552849 
L 405.075754 41.624571 
L 405.240581 39.982631 
L 405.300057 40.017012 
L 405.39079 40.155357 
L 405.406883 40.225025 
L 405.455153 39.582268 
L 405.679207 39.789642 
L 405.679984 39.42963 
L 405.718729 39.464091 
L 405.79621 39.533265 
L 405.905413 39.17119 
L 405.989364 39.239902 
L 406.308546 39.623891 
L 406.360221 39.255654 
L 406.544082 39.396234 
L 406.645734 39.467049 
L 406.759637 39.573937 
L 406.862647 39.002855 
L 407.022542 39.109333 
L 407.075433 38.421588 
L 407.195465 37.658529 
L 407.343869 37.829861 
L 407.37165 37.864392 
L 407.421172 37.478703 
L 407.493971 37.547126 
L 407.717434 37.685037 
L 407.736413 37.719739 
L 407.846242 36.714856 
L 407.869519 36.816633 
L 407.873174 36.419879 
L 407.9622 36.554916 
L 408.056516 36.622974 
L 408.147839 35.417614 
L 408.167184 35.483079 
L 408.205882 35.515944 
L 408.229949 35.110509 
L 408.309976 35.208126 
L 408.365011 35.306536 
L 408.452232 34.518239 
L 408.78254 34.679328 
L 408.878562 34.264404 
L 408.947126 34.296362 
L 409.171518 34.457476 
L 409.359597 34.653779 
L 409.640373 34.786484 
L 409.743294 34.361803 
L 409.818122 34.427613 
L 409.96716 34.728406 
L 409.969814 34.296362 
L 410.073923 34.363116 
L 410.116341 34.396636 
L 410.202257 33.119738 
L 410.204894 33.151704 
L 410.554055 33.248159 
L 410.672774 32.457113 
L 410.692093 32.488531 
L 411.1297 32.77548 
L 411.280204 32.323201 
L 411.340269 32.38676 
L 411.607339 32.547327 
L 411.707356 32.710323 
L 411.731518 32.249037 
L 411.772836 32.313626 
L 412.007979 32.47683 
L 412.0146 32.009525 
L 412.109711 32.106646 
L 412.760014 32.777788 
L 412.961406 31.906911 
L 413.014913 32.007914 
L 413.315992 32.247427 
L 413.464887 32.38676 
L 413.466728 31.886312 
L 413.498029 31.955133 
L 413.789627 32.164344 
L 413.866456 32.235012 
L 413.871996 31.725105 
L 413.960013 31.759822 
L 414.338921 31.970589 
L 414.370616 31.45332 
L 414.441261 31.488047 
L 414.66543 31.663465 
L 414.732117 31.805977 
L 414.760113 31.278597 
L 414.857342 31.348889 
L 415.033822 31.419671 
L 415.055714 30.887024 
L 415.201669 30.921732 
L 415.227252 30.386352 
L 415.303974 30.454377 
L 415.504937 30.522881 
L 415.513417 29.982076 
L 415.615981 30.219362 
L 415.743243 28.566185 
L 415.796151 28.629489 
L 416.307146 28.854693 
L 416.401212 28.291065 
L 416.47805 28.354522 
L 416.824575 28.74526 
L 416.902745 28.165535 
L 416.985846 28.262886 
L 417.302589 28.394419 
L 417.304448 27.805173 
L 417.378954 27.837307 
L 417.638633 28.06573 
L 417.760578 28.199062 
L 418.189759 28.506813 
L 418.195567 27.891968 
L 418.244374 27.925686 
L 418.539037 28.130855 
L 418.670754 28.305668 
L 418.778379 27.039874 
L 418.891915 27.105885 
L 419.285201 27.409785 
L 419.376676 26.759051 
L 419.441727 26.926353 
L 419.699352 27.166633 
L 419.820377 27.378433 
L 419.860319 26.700575 
L 419.941375 26.769592 
L 420.319577 27.123983 
L 420.339155 26.425705 
L 420.438019 26.495508 
L 421.131446 26.965093 
L 421.17851 26.24034 
L 421.283522 26.311895 
L 421.528681 26.530647 
L 421.615616 25.78929 
L 421.700308 25.89595 
L 422.064312 26.150906 
L 422.111975 26.188042 
L 422.159182 25.423985 
L 422.256849 25.459514 
L 423.020108 26.014257 
L 423.084409 24.48387 
L 423.095516 24.518804 
L 423.19984 23.706751 
L 423.89877 23.976407 
L 423.960293 23.143474 
L 424.800031 23.40748 
L 424.832754 22.55257 
L 424.9128 22.64779 
L 425.117123 22.744593 
L 425.223252 21.871219 
L 425.258557 21.931956 
L 425.387561 21.96258 
L 425.395183 21.077196 
L 425.646606 21.220757 
L 426.837875 21.904264 
L 426.870713 19.976099 
L 426.887048 20.031342 
L 428.968837 20.655271 
L 429.155404 20.816744 
L 429.194704 20.849689 
L 429.707727 21.017785 
L 429.747911 21.086641 
L 430.07871 21.227233 
L 430.806744 21.751746 
L 430.862306 21.831101 
L 431.520785 22.034707 
L 431.570369 22.076351 
L 431.933684 20.882855 
L 432.019914 20.958303 
L 433.413271 21.606048 
L 433.531767 21.692989 
L 433.580395 20.394774 
L 433.667322 20.472746 
L 434.006752 20.673456 
L 434.215355 20.882855 
L 434.531124 21.057016 
L 434.56793 21.10152 
L 434.771556 19.696819 
L 434.826636 19.774824 
L 434.9522 19.894491 
L 435.018199 18.445794 
L 435.615897 18.728129 
L 436.015134 18.915724 
L 436.616344 19.153219 
L 436.631088 19.194194 
L 437.278371 19.405404 
L 438.018593 20.009164 
L 438.59699 20.212778 
L 438.681182 20.318076 
L 439.22574 20.59216 
L 439.819069 21.004127 
L 440.42749 21.320738 
L 440.685946 21.588829 
L 441.335015 21.799219 
L 442.335051 22.483726 
L 442.606079 22.81661 
L 443.116923 23.079219 
L 443.578477 23.448074 
L 444.483134 23.739844 
L 444.635603 24.045619 
L 444.648765 21.520509 
L 444.983639 21.606048 
L 445.08177 19.019547 
L 445.127065 19.153219 
L 445.942955 19.362296 
L 446.278847 19.582377 
L 446.562671 19.735647 
L 446.589871 16.875976 
L 446.699717 16.983806 
L 447.006318 17.153181 
L 447.164131 17.332423 
L 447.280893 17.522419 
L 447.677226 17.724167 
L 447.987464 18.089654 
L 448.215896 14.583395 
L 448.231873 14.623219 
L 449.990038 15.025885 
L 450.958317 15.180757 
L 451.163677 15.290798 
L 453.164794 15.658647 
L 453.632961 15.867278 
L 454.747311 16.095469 
L 455.647634 16.527354 
L 457.11992 16.721324 
L 457.72516 16.929401 
L 458.288841 17.153181 
L 458.798326 17.394513 
L 459.659332 17.655545 
L 460.210877 18.089654 
L 461.057327 18.247219 
L 461.132145 18.411946 
L 461.577365 18.584335 
L 462.578608 18.764933 
L 462.725644 19.153219 
L 462.835768 19.362296 
L 464.105652 19.582377 
L 464.186976 19.814354 
L 465.608418 20.318076 
L 465.672317 10.999219 
L 562.739489 10.999219 
L 562.739489 10.999219 
" style="fill:none;stroke:#0000ff;stroke-dasharray:5.55,2.4;stroke-dashoffset:0;stroke-width:1.5;"/>
   </g>
   <g id="line2d_14">
    <path clip-path="url(#p19141f435a)" d="M 55.466761 10.999219 
L 55.611113 11.054045 
L 160.728679 11.163697 
L 160.819887 11.218523 
L 179.853914 11.328175 
L 179.969927 11.383001 
L 187.642568 11.492653 
L 187.757749 11.547479 
L 207.285961 11.657131 
L 207.396289 11.711957 
L 210.365721 11.821609 
L 210.471097 11.876435 
L 218.829512 11.986087 
L 218.934898 12.040913 
L 237.01828 12.150565 
L 237.131236 12.205391 
L 244.174406 12.315043 
L 244.282933 12.369869 
L 250.07975 12.479521 
L 250.188532 12.534347 
L 255.051101 12.643999 
L 255.159883 12.698825 
L 256.644814 12.808477 
L 256.755715 12.863303 
L 258.825967 12.972956 
L 258.938601 13.027782 
L 260.876506 13.137434 
L 260.98508 13.247086 
L 262.04833 13.356738 
L 262.1538 13.46639 
L 264.153363 13.576042 
L 264.256863 13.630868 
L 264.557549 13.74052 
L 264.666658 13.795346 
L 265.313329 13.904998 
L 265.428461 13.959824 
L 267.030033 14.069476 
L 267.13862 14.124302 
L 269.788735 14.233954 
L 269.906043 14.28878 
L 271.469872 14.398432 
L 271.581479 14.508084 
L 272.559635 14.617736 
L 272.670596 14.672562 
L 273.976659 14.782214 
L 274.081538 14.83704 
L 275.314627 14.946692 
L 275.427283 15.056344 
L 277.222308 15.165996 
L 277.334733 15.220822 
L 278.989224 15.330474 
L 279.101688 15.440126 
L 280.483299 15.549779 
L 280.59177 15.604605 
L 281.455976 15.714257 
L 281.567591 15.769083 
L 281.893757 15.878735 
L 282.005652 16.043213 
L 282.217809 16.152865 
L 282.325042 16.262517 
L 282.951569 16.372169 
L 283.063779 16.426995 
L 283.433996 16.536647 
L 283.543632 16.591473 
L 285.146634 16.701125 
L 285.257915 16.810777 
L 285.41072 16.920429 
L 285.51979 16.975255 
L 286.643472 17.084907 
L 286.751744 17.194559 
L 286.807566 17.304211 
L 286.916648 17.359037 
L 287.085467 17.468689 
L 287.196314 17.578341 
L 287.312574 17.633167 
L 287.7093 17.742819 
L 287.818534 17.797645 
L 288.546817 17.907297 
L 288.65322 18.016949 
L 289.257131 18.126602 
L 289.369292 18.236254 
L 289.746288 18.345906 
L 289.86618 18.455558 
L 290.309697 18.56521 
L 290.41645 18.620036 
L 291.146118 18.729688 
L 291.267158 18.894166 
L 291.564972 19.003818 
L 291.675859 19.058644 
L 291.973817 19.168296 
L 292.096844 19.3876 
L 292.290693 19.497252 
L 292.403246 19.606904 
L 293.034824 19.716556 
L 293.151034 19.826208 
L 293.911166 19.93586 
L 294.020673 19.990686 
L 294.933754 20.100338 
L 295.061629 20.20999 
L 295.48404 20.319642 
L 295.602406 20.538946 
L 296.021239 20.648598 
L 296.146393 20.758251 
L 296.724746 20.867903 
L 296.836219 20.977555 
L 296.972673 21.087207 
L 297.079284 21.142033 
L 297.674707 21.251685 
L 297.797724 21.470989 
L 298.033559 21.580641 
L 298.141497 21.745119 
L 299.07719 21.854771 
L 299.188912 21.909597 
L 299.490856 22.019249 
L 299.604641 22.128901 
L 299.850449 22.238553 
L 299.958161 22.348205 
L 300.450881 22.457857 
L 300.562764 22.512683 
L 301.260784 22.622335 
L 301.37085 22.677161 
L 301.653338 22.786813 
L 301.775806 22.841639 
L 301.865064 22.951291 
L 301.974535 23.115769 
L 302.346122 23.225421 
L 302.466498 23.335074 
L 303.012816 23.444726 
L 303.132629 23.554378 
L 303.414572 23.66403 
L 303.526967 23.773682 
L 303.842116 23.883334 
L 303.955014 24.157464 
L 304.08284 24.267116 
L 304.193637 24.321942 
L 304.394702 24.431594 
L 304.516142 24.596072 
L 304.719307 24.705724 
L 304.858636 24.925028 
L 305.226764 25.03468 
L 305.341105 25.199158 
L 305.874938 25.30881 
L 305.989587 25.473288 
L 306.244162 25.58294 
L 306.377885 25.747418 
L 306.5619 25.85707 
L 306.67504 26.021549 
L 306.81857 26.131201 
L 306.927671 26.240853 
L 307.124391 26.350505 
L 307.247227 26.514983 
L 307.552855 26.624635 
L 307.668187 26.843939 
L 307.747723 26.953591 
L 307.86411 27.063243 
L 308.050768 27.172895 
L 308.157377 27.392199 
L 308.302548 27.611503 
L 308.65981 27.721155 
L 308.773628 27.830807 
L 309.020629 27.940459 
L 309.131937 28.104937 
L 309.238603 28.214589 
L 309.355847 28.269415 
L 309.599345 28.379067 
L 309.714162 28.48872 
L 309.929751 28.598372 
L 310.045305 28.817676 
L 310.116913 28.927328 
L 310.234557 29.091806 
L 310.287373 29.201458 
L 310.396865 29.31111 
L 310.610616 29.420762 
L 310.737177 29.694892 
L 310.784853 29.804544 
L 310.905757 29.914196 
L 311.003466 30.023848 
L 311.136521 30.188326 
L 311.419334 30.297978 
L 311.530587 30.40763 
L 311.677116 30.517282 
L 311.790266 30.68176 
L 311.918833 30.791412 
L 312.048562 30.95589 
L 312.114281 31.065543 
L 312.221183 31.230021 
L 312.388755 31.339673 
L 312.500112 31.449325 
L 312.711303 31.558977 
L 312.841031 31.778281 
L 312.912959 31.887933 
L 313.026285 32.052411 
L 313.105689 32.162063 
L 313.284297 32.491019 
L 313.39599 32.600671 
L 313.508236 32.819975 
L 313.652871 32.929627 
L 313.766095 33.203757 
L 313.938358 33.313409 
L 314.081311 33.752018 
L 314.2146 33.86167 
L 314.344219 34.026148 
L 314.533944 34.1358 
L 314.652694 34.300278 
L 314.741988 34.40993 
L 314.855675 34.68406 
L 314.973321 34.903364 
L 315.023751 35.013016 
L 315.135508 35.23232 
L 315.261376 35.341972 
L 315.376407 35.561276 
L 315.441279 35.670928 
L 315.560776 35.890232 
L 315.680883 35.999884 
L 315.792158 36.05471 
L 315.829918 36.164362 
L 315.939218 36.438493 
L 316.013247 36.548145 
L 316.126121 36.822275 
L 316.202708 36.931927 
L 316.321549 37.041579 
L 316.34939 37.151231 
L 316.470153 37.535013 
L 316.595999 37.644665 
L 316.715684 37.809143 
L 316.895704 37.918795 
L 317.059812 38.138099 
L 317.202351 38.247751 
L 317.317225 38.467055 
L 317.427489 38.576707 
L 317.454151 38.686359 
L 317.575408 38.96049 
L 317.657813 39.070142 
L 317.778662 39.179794 
L 317.805299 39.289446 
L 317.955613 39.50875 
L 318.083555 39.618402 
L 318.246248 40.111836 
L 318.342439 40.221488 
L 318.497972 40.60527 
L 318.550421 40.714922 
L 318.659924 40.824574 
L 318.819781 40.934226 
L 318.93663 41.098704 
L 319.055407 41.208356 
L 319.165496 41.482487 
L 319.266201 41.592139 
L 319.42388 41.921095 
L 319.489789 42.030747 
L 319.669807 42.304877 
L 319.965775 42.414529 
L 320.075509 42.743485 
L 320.101335 42.853137 
L 320.22244 43.127267 
L 320.267613 43.236919 
L 320.37472 43.456223 
L 320.547173 43.565875 
L 320.691819 43.894831 
L 320.772429 44.004484 
L 320.886578 44.114136 
L 320.940696 44.223788 
L 321.062717 44.497918 
L 321.115371 44.60757 
L 321.221791 44.8817 
L 321.250078 44.991352 
L 321.363983 45.320308 
L 321.485164 45.539612 
L 321.600463 45.649264 
L 321.717678 45.923394 
L 321.749838 46.033046 
L 321.86507 46.636133 
L 321.964122 46.745785 
L 322.080683 47.019915 
L 322.263809 47.129567 
L 322.373523 47.513349 
L 322.461114 47.623001 
L 322.564627 48.171261 
L 322.605415 48.280913 
L 322.714853 48.664695 
L 322.749134 48.774347 
L 322.862372 49.103303 
L 322.900806 49.212956 
L 323.041926 49.761216 
L 323.124066 49.870868 
L 323.280918 50.090172 
L 323.334426 50.199824 
L 323.453905 50.52878 
L 323.557132 50.638432 
L 323.694429 51.296344 
L 323.797023 51.405996 
L 323.90761 51.844605 
L 323.964792 51.954257 
L 324.087427 52.173561 
L 324.148385 52.283213 
L 324.598097 53.379733 
L 324.649083 53.489385 
L 324.81223 53.982819 
L 324.886751 54.092471 
L 325.000785 54.53108 
L 326.601016 58.643031 
L 326.64392 58.752683 
L 326.755452 59.081639 
L 326.907068 59.191291 
L 327.052569 59.90403 
L 327.076838 60.013682 
L 327.176051 60.232986 
L 327.214596 60.342638 
L 327.453826 61.329506 
L 327.509966 61.439158 
L 327.66108 61.82294 
L 327.687557 61.932592 
L 327.798107 62.371201 
L 327.849705 62.480853 
L 327.970345 62.754983 
L 328.015441 62.864635 
L 328.121875 63.138765 
L 328.257033 63.248417 
L 328.369024 63.467721 
L 328.451447 63.577373 
L 328.573963 63.851503 
L 328.655477 63.961155 
L 328.765321 64.070807 
L 328.849118 64.180459 
L 329.090198 64.893198 
L 329.131573 65.00285 
L 329.301561 65.441458 
L 329.437337 65.55111 
L 329.573443 66.044544 
L 329.688597 66.154196 
L 329.842015 66.537978 
L 329.857628 66.64763 
L 330.007219 67.250716 
L 330.082192 67.360369 
L 330.211765 67.963455 
L 330.25308 68.073107 
L 330.365837 68.402063 
L 330.400902 68.511715 
L 330.522215 68.840671 
L 330.596675 68.950323 
L 330.741389 69.772713 
L 330.764734 69.882365 
L 330.885582 70.046844 
L 331.011637 70.156496 
L 331.138611 70.430626 
L 331.185151 70.540278 
L 331.312801 70.92406 
L 331.622466 71.636798 
L 331.732471 71.691624 
L 331.794104 71.801276 
L 331.925161 72.349536 
L 331.963001 72.459188 
L 332.105105 73.007449 
L 332.178721 73.117101 
L 332.370493 74.213621 
L 332.429441 74.323273 
L 332.555807 74.652229 
L 332.62647 74.761881 
L 333.035203 76.077706 
L 333.158512 76.461488 
L 333.1771 76.57114 
L 333.321004 77.174226 
L 333.354058 77.283878 
L 333.461092 77.667661 
L 333.559457 77.777313 
L 333.679105 78.380399 
L 333.760455 78.490051 
L 333.881116 78.873833 
L 333.991737 78.983485 
L 334.105825 79.476919 
L 334.315822 80.29931 
L 334.34601 80.408962 
L 334.494642 81.341004 
L 334.640482 81.998916 
L 334.663317 82.108568 
L 335.243527 84.466087 
L 335.287434 84.575739 
L 335.410863 85.014347 
L 335.451643 85.123999 
L 335.567972 85.891564 
L 335.612813 86.001216 
L 335.723151 86.22052 
L 336.329843 88.578039 
L 336.442481 89.235951 
L 336.572467 90.003515 
L 336.595384 90.113167 
L 336.708947 90.551775 
L 336.852225 90.990384 
L 336.870559 91.100036 
L 336.991202 91.812774 
L 337.018029 91.922426 
L 337.134078 92.14173 
L 337.285964 92.744816 
L 337.48371 93.731685 
L 337.549625 93.841337 
L 337.692886 94.499249 
L 337.902156 95.595769 
L 338.299885 97.295376 
L 338.434471 98.06294 
L 338.681287 99.378765 
L 338.701889 99.488417 
L 338.808076 99.872199 
L 339.220715 101.078372 
L 339.260857 101.188024 
L 339.383756 101.571806 
L 339.395451 101.681458 
L 339.652657 102.942456 
L 339.827082 103.381064 
L 339.882506 103.490716 
L 340.026587 104.422759 
L 340.094876 104.696889 
L 340.2087 105.409627 
L 340.220326 105.519279 
L 340.36424 105.793409 
L 340.370171 105.903061 
L 340.600008 107.054408 
L 340.655081 107.16406 
L 340.820317 107.876798 
L 340.883778 107.98645 
L 341.071285 108.699188 
L 341.096048 108.808841 
L 341.269004 109.466753 
L 341.316177 109.576405 
L 341.437594 110.234317 
L 341.487538 110.343969 
L 341.993225 112.865966 
L 342.193419 113.962487 
L 342.718443 116.703788 
L 342.832775 117.197222 
L 342.838984 117.306874 
L 343.000859 117.964786 
L 343.113122 118.074438 
L 343.12825 118.18409 
L 343.253868 119.00648 
L 343.291797 119.116133 
L 343.403183 119.609567 
L 343.424157 119.719219 
L 343.784217 121.747782 
L 343.852275 122.076738 
L 343.979472 122.515346 
L 343.998357 122.624998 
L 344.125538 123.228084 
L 344.131349 123.337736 
L 344.322146 124.160126 
L 344.349472 124.269779 
L 344.838371 127.120732 
L 344.87439 127.230384 
L 344.99015 128.272078 
L 345.016863 128.38173 
L 345.156167 129.094468 
L 345.21767 129.20412 
L 345.361632 129.916859 
L 345.533796 130.519945 
L 345.591523 130.629597 
L 345.703357 131.177857 
L 345.91677 132.219552 
L 347.064303 137.647328 
L 347.081786 137.75698 
L 347.262841 138.524544 
L 347.312497 138.634196 
L 347.900376 141.759279 
L 347.947951 141.868931 
L 348.000576 142.252713 
L 348.157641 143.184756 
L 348.211906 143.294408 
L 348.326746 143.787842 
L 348.996962 146.748447 
L 349.138912 147.516011 
L 349.366014 148.667358 
L 349.408543 148.77701 
L 349.526235 149.270444 
L 350.630342 153.930656 
L 350.685014 154.040308 
L 350.815253 154.369264 
L 351.147634 155.959219 
L 351.176808 156.068871 
L 352.023417 160.016344 
L 352.131452 160.235648 
L 352.184206 160.3453 
L 352.295136 160.838735 
L 352.358367 160.948387 
L 352.607214 161.661125 
L 352.667502 161.770777 
L 352.84477 162.812471 
L 352.977169 163.689688 
L 353.008273 163.79934 
L 353.152746 164.402426 
L 353.196751 164.512078 
L 353.366139 165.060338 
L 353.397734 165.16999 
L 353.582266 166.211685 
L 353.651393 166.321337 
L 353.841016 167.198553 
L 353.88566 167.308205 
L 354.174549 168.62403 
L 354.230985 168.733682 
L 354.364556 169.227116 
L 354.421592 169.336768 
L 354.624744 170.26881 
L 354.74664 170.871897 
L 354.788254 170.981549 
L 354.915871 171.529809 
L 354.953928 171.639461 
L 355.054932 172.132895 
L 355.443064 173.393893 
L 355.610164 174.216284 
L 355.623517 174.325936 
L 357.339301 181.891927 
L 357.478079 182.495013 
L 357.502909 182.604665 
L 358.083219 184.852532 
L 358.119283 184.962184 
L 358.239039 185.510444 
L 358.271351 185.620096 
L 358.595467 186.716617 
L 358.639846 186.826269 
L 358.81514 187.539007 
L 358.868673 187.648659 
L 359.06357 188.361397 
L 359.17615 188.800005 
L 359.42812 189.677222 
L 359.579259 190.609264 
L 359.772079 191.157524 
L 359.810029 191.267176 
L 359.958585 191.815437 
L 360.075153 192.254045 
L 360.249173 193.021609 
L 360.332522 193.460217 
L 360.553852 194.447086 
L 360.636583 194.556738 
L 360.874293 195.543606 
L 361.032735 196.5853 
L 361.150607 196.914257 
L 361.368633 197.681821 
L 361.653307 198.833167 
L 361.717526 198.942819 
L 361.99702 199.655558 
L 362.116657 199.874862 
L 362.159352 199.984514 
L 362.368402 200.916556 
L 362.445927 201.026208 
L 362.581947 201.519642 
L 362.602845 201.629294 
L 362.967086 203.328901 
L 363.115763 203.877161 
L 364.157834 207.660157 
L 364.22184 207.769809 
L 364.368528 208.153591 
L 364.44499 208.427721 
L 364.594332 208.866329 
L 364.641818 208.975981 
L 364.759757 209.633893 
L 366.310634 214.513409 
L 366.344822 214.623061 
L 366.476272 214.842365 
L 366.625071 215.3358 
L 366.751865 215.829234 
L 366.906889 216.15819 
L 369.025538 222.0794 
L 369.154276 222.35353 
L 369.205998 222.737313 
L 369.32925 223.011443 
L 370.188468 225.53344 
L 370.297525 225.862396 
L 370.426308 226.410656 
L 370.464981 226.520308 
L 370.651658 227.013742 
L 370.84502 227.507176 
L 371.447021 230.029173 
L 371.506556 230.138825 
L 371.745329 230.851564 
L 371.823588 230.961216 
L 371.977067 231.619128 
L 372.008673 231.72878 
L 372.227463 232.715648 
L 372.314219 232.8253 
L 372.505103 233.483213 
L 372.611929 233.921821 
L 373.030336 235.073167 
L 373.08963 235.182819 
L 373.232069 235.73108 
L 373.27834 235.840732 
L 373.405304 236.114862 
L 373.753393 237.37586 
L 373.86421 237.485512 
L 374.034864 237.92412 
L 374.080748 238.033772 
L 374.808347 239.788205 
L 375.012427 240.281639 
L 375.132471 240.391291 
L 375.253857 241.158856 
L 375.335755 241.487812 
L 375.552352 242.419854 
L 375.961699 243.571201 
L 376.022202 243.680853 
L 376.108691 243.790505 
L 376.147999 243.900157 
L 376.260079 244.174287 
L 376.383919 244.393591 
L 376.501825 244.503243 
L 376.722581 245.215981 
L 376.768941 245.325633 
L 377.111729 246.531806 
L 377.210752 246.641458 
L 377.326526 246.915588 
L 377.379094 247.244544 
L 377.486547 247.409022 
L 377.603945 247.902456 
L 377.684603 248.012108 
L 377.801957 248.286238 
L 377.825417 248.39589 
L 378.352108 249.656889 
L 378.506919 249.821367 
L 378.608909 249.931019 
L 378.747985 250.369627 
L 378.862366 250.479279 
L 379.312997 251.520974 
L 379.430054 252.12406 
L 379.51785 252.233712 
L 381.56258 257.058402 
L 381.735348 257.277706 
L 381.97128 257.661488 
L 382.179088 257.880792 
L 382.385118 258.209748 
L 382.529456 258.483878 
L 383.061799 259.470747 
L 383.30115 259.909355 
L 383.357534 260.019007 
L 383.763955 261.005875 
L 383.982146 261.444484 
L 384.130058 261.718614 
L 384.225223 261.828266 
L 384.308933 261.992744 
L 384.416947 262.102396 
L 384.58215 262.376526 
L 384.855635 262.760308 
L 384.990153 263.14409 
L 385.310399 263.802002 
L 385.700459 264.514741 
L 385.861444 264.898523 
L 386.51281 265.995043 
L 386.732609 266.488477 
L 386.827024 266.598129 
L 387.044851 266.707782 
L 387.195799 267.201216 
L 387.589174 267.859128 
L 387.900592 268.352562 
L 388.05609 268.462214 
L 388.488291 269.0653 
L 389.120981 269.942517 
L 389.24399 270.161821 
L 389.692462 271.148689 
L 389.862723 271.258341 
L 391.441585 273.780338 
L 391.5663 274.273772 
L 391.679712 274.383424 
L 392.099796 275.150989 
L 392.226611 275.260641 
L 392.576541 275.754075 
L 392.766629 276.247509 
L 393.00147 276.795769 
L 393.179743 276.960247 
L 393.385246 277.508508 
L 393.736597 277.837464 
L 393.802578 277.947116 
L 393.888396 278.001942 
L 394.125737 278.16642 
L 395.137416 279.756375 
L 395.31327 279.920853 
L 395.495102 280.194983 
L 396.905688 282.99111 
L 397.111369 283.100762 
L 397.394397 283.758674 
L 397.474452 283.868326 
L 398.662959 285.951715 
L 398.814884 286.171019 
L 399.163911 286.774105 
L 399.829145 287.432018 
L 400.241437 287.706148 
L 400.327274 287.8158 
L 400.941583 288.528538 
L 401.123067 289.021972 
L 401.434833 289.625058 
L 401.642873 289.73471 
L 402.757777 291.872925 
L 403.204293 292.256707 
L 403.277923 292.366359 
L 403.435217 292.476011 
L 403.990444 293.353228 
L 404.305706 293.73701 
L 404.635055 294.065966 
L 404.769877 294.394922 
L 405.068132 294.778704 
L 405.168443 294.998008 
L 405.36871 295.107661 
L 405.530714 295.546269 
L 405.718729 295.875225 
L 406.155496 296.313833 
L 406.266164 296.587963 
L 407.493971 298.177918 
L 407.705192 298.342396 
L 407.9622 299.10996 
L 408.364466 299.65822 
L 408.452232 299.767872 
L 409.0612 300.151654 
L 409.185253 300.425785 
L 409.949199 301.412653 
L 410.139752 301.741609 
L 410.406688 301.851261 
L 410.554055 301.960913 
L 410.627435 302.070565 
L 410.907899 302.509173 
L 411.494472 302.838129 
L 411.620876 303.11226 
L 412.145677 303.93465 
L 412.28435 304.20878 
L 414.370616 306.840429 
L 414.66543 307.169385 
L 414.857342 307.498341 
L 415.532673 307.936949 
L 415.650178 308.265906 
L 415.796151 308.375558 
L 416.225555 308.649688 
L 416.307146 308.75934 
L 416.47805 308.868992 
L 417.143088 309.85586 
L 417.542485 310.075164 
L 417.638633 310.349294 
L 417.760578 310.568598 
L 417.958343 310.842729 
L 418.127245 311.007207 
L 418.545765 311.500641 
L 418.670754 311.719945 
L 418.891915 311.829597 
L 419.146037 312.158553 
L 419.285201 312.323031 
L 419.395226 312.432683 
L 419.507735 312.651987 
L 419.731297 313.145421 
L 419.941375 313.419552 
L 420.739956 314.351594 
L 421.034958 314.570898 
L 421.323071 315.009506 
L 422.305933 315.941549 
L 422.473012 316.106027 
L 422.596038 316.270505 
L 423.027122 316.709113 
L 423.095516 316.873591 
L 423.388525 316.983243 
L 423.60845 317.092895 
L 424.368599 317.476677 
L 424.627832 317.641155 
L 424.980336 317.970111 
L 425.69728 318.573198 
L 425.717645 318.628024 
L 425.960579 318.792502 
L 426.064161 319.011806 
L 426.20522 319.176284 
L 426.47111 319.450414 
L 426.870713 319.724544 
L 426.999476 319.889022 
L 428.458198 320.546934 
L 428.772493 320.766238 
L 428.848732 320.87589 
L 428.982008 321.040369 
L 429.194704 321.314499 
L 429.585532 321.478977 
L 429.747911 321.698281 
L 430.040948 321.862759 
L 430.288108 322.027237 
L 430.697041 322.356193 
L 430.806744 322.685149 
L 430.862306 322.794801 
L 431.460701 323.014105 
L 431.570369 323.123757 
L 432.019914 323.233409 
L 433.612725 324.275104 
L 434.56793 325.15232 
L 434.826636 325.261972 
L 435.615897 325.865058 
L 436.015134 326.139188 
L 436.59212 326.413319 
L 436.631088 326.522971 
L 437.055863 326.687449 
L 437.073368 326.742275 
L 437.32464 326.906753 
L 437.681736 327.235709 
L 437.750031 327.400187 
L 439.22574 328.112925 
L 439.819069 328.496707 
L 440.501513 328.825664 
L 440.685946 328.990142 
L 441.463403 329.209446 
L 441.544155 329.319098 
L 442.202562 329.593228 
L 442.423925 329.757706 
L 442.428697 329.812532 
L 446.589871 331.183182 
L 446.699717 331.292834 
L 447.006318 331.457313 
L 447.164131 331.621791 
L 447.280893 331.786269 
L 447.677226 331.950747 
L 447.987464 332.224877 
L 448.386111 332.334529 
L 449.588951 332.608659 
L 449.613623 332.718311 
L 452.729886 333.266571 
L 453.304628 333.431049 
L 455.293781 333.869657 
L 455.647634 333.97931 
L 457.72516 334.198614 
L 458.484103 334.363092 
L 461.577365 334.856526 
L 462.725644 335.021004 
L 462.835768 335.07583 
L 465.672317 335.295134 
L 467.421574 335.514438 
L 467.535763 335.569264 
L 469.55418 335.788568 
L 469.723564 335.843394 
L 471.614478 336.007872 
L 475.634808 336.336828 
L 481.980835 336.501306 
L 484.699157 336.665785 
L 501.585473 336.994741 
L 514.667158 337.049567 
L 562.739489 337.104393 
L 562.739489 337.104393 
" style="fill:none;stroke:#008000;stroke-linecap:square;stroke-width:1.5;"/>
   </g>
   <g id="patch_3">
    <path d="M 30.103125 337.159219 
L 30.103125 10.999219 
" style="fill:none;stroke:#000000;stroke-linecap:square;stroke-linejoin:miter;stroke-width:0.8;"/>
   </g>
   <g id="patch_4">
    <path d="M 588.103125 337.159219 
L 588.103125 10.999219 
" style="fill:none;stroke:#000000;stroke-linecap:square;stroke-linejoin:miter;stroke-width:0.8;"/>
   </g>
   <g id="patch_5">
    <path d="M 30.103125 337.159219 
L 588.103125 337.159219 
" style="fill:none;stroke:#000000;stroke-linecap:square;stroke-linejoin:miter;stroke-width:0.8;"/>
   </g>
   <g id="patch_6">
    <path d="M 30.103125 10.999219 
L 588.103125 10.999219 
" style="fill:none;stroke:#000000;stroke-linecap:square;stroke-linejoin:miter;stroke-width:0.8;"/>
   </g>
   <g id="legend_1">
    <g id="patch_7">
     <path d="M 37.103125 48.355469 
L 113.717188 48.355469 
Q 115.717188 48.355469 115.717188 46.355469 
L 115.717188 17.999219 
Q 115.717188 15.999219 113.717188 15.999219 
L 37.103125 15.999219 
Q 35.103125 15.999219 35.103125 17.999219 
L 35.103125 46.355469 
Q 35.103125 48.355469 37.103125 48.355469 
z
" style="fill:#ffffff;opacity:0.8;stroke:#cccccc;stroke-linejoin:miter;"/>
    </g>
    <g id="line2d_15">
     <path d="M 39.103125 24.097656 
L 59.103125 24.097656 
" style="fill:none;stroke:#0000ff;stroke-dasharray:5.55,2.4;stroke-dashoffset:0;stroke-width:1.5;"/>
    </g>
    <g id="line2d_16"/>
    <g id="text_14">
     <!-- Precision -->
     <g transform="translate(67.103125 27.597656)scale(0.1 -0.1)">
      <defs>
       <path d="M 19.671875 64.796875 
L 19.671875 37.40625 
L 32.078125 37.40625 
Q 38.96875 37.40625 42.71875 40.96875 
Q 46.484375 44.53125 46.484375 51.125 
Q 46.484375 57.671875 42.71875 61.234375 
Q 38.96875 64.796875 32.078125 64.796875 
z
M 9.8125 72.90625 
L 32.078125 72.90625 
Q 44.34375 72.90625 50.609375 67.359375 
Q 56.890625 61.8125 56.890625 51.125 
Q 56.890625 40.328125 50.609375 34.8125 
Q 44.34375 29.296875 32.078125 29.296875 
L 19.671875 29.296875 
L 19.671875 0 
L 9.8125 0 
z
" id="DejaVuSans-80"/>
       <path d="M 48.78125 52.59375 
L 48.78125 44.1875 
Q 44.96875 46.296875 41.140625 47.34375 
Q 37.3125 48.390625 33.40625 48.390625 
Q 24.65625 48.390625 19.8125 42.84375 
Q 14.984375 37.3125 14.984375 27.296875 
Q 14.984375 17.28125 19.8125 11.734375 
Q 24.65625 6.203125 33.40625 6.203125 
Q 37.3125 6.203125 41.140625 7.25 
Q 44.96875 8.296875 48.78125 10.40625 
L 48.78125 2.09375 
Q 45.015625 0.34375 40.984375 -0.53125 
Q 36.96875 -1.421875 32.421875 -1.421875 
Q 20.0625 -1.421875 12.78125 6.34375 
Q 5.515625 14.109375 5.515625 27.296875 
Q 5.515625 40.671875 12.859375 48.328125 
Q 20.21875 56 33.015625 56 
Q 37.15625 56 41.109375 55.140625 
Q 45.0625 54.296875 48.78125 52.59375 
z
" id="DejaVuSans-99"/>
       <path d="M 9.421875 54.6875 
L 18.40625 54.6875 
L 18.40625 0 
L 9.421875 0 
z
M 9.421875 75.984375 
L 18.40625 75.984375 
L 18.40625 64.59375 
L 9.421875 64.59375 
z
" id="DejaVuSans-105"/>
       <path d="M 54.890625 33.015625 
L 54.890625 0 
L 45.90625 0 
L 45.90625 32.71875 
Q 45.90625 40.484375 42.875 44.328125 
Q 39.84375 48.1875 33.796875 48.1875 
Q 26.515625 48.1875 22.3125 43.546875 
Q 18.109375 38.921875 18.109375 30.90625 
L 18.109375 0 
L 9.078125 0 
L 9.078125 54.6875 
L 18.109375 54.6875 
L 18.109375 46.1875 
Q 21.34375 51.125 25.703125 53.5625 
Q 30.078125 56 35.796875 56 
Q 45.21875 56 50.046875 50.171875 
Q 54.890625 44.34375 54.890625 33.015625 
z
" id="DejaVuSans-110"/>
      </defs>
      <use xlink:href="#DejaVuSans-80"/>
      <use x="58.552734" xlink:href="#DejaVuSans-114"/>
      <use x="97.416016" xlink:href="#DejaVuSans-101"/>
      <use x="158.939453" xlink:href="#DejaVuSans-99"/>
      <use x="213.919922" xlink:href="#DejaVuSans-105"/>
      <use x="241.703125" xlink:href="#DejaVuSans-115"/>
      <use x="293.802734" xlink:href="#DejaVuSans-105"/>
      <use x="321.585938" xlink:href="#DejaVuSans-111"/>
      <use x="382.767578" xlink:href="#DejaVuSans-110"/>
     </g>
    </g>
    <g id="line2d_17">
     <path d="M 39.103125 38.775781 
L 59.103125 38.775781 
" style="fill:none;stroke:#008000;stroke-linecap:square;stroke-width:1.5;"/>
    </g>
    <g id="line2d_18"/>
    <g id="text_15">
     <!-- Recall -->
     <g transform="translate(67.103125 42.275781)scale(0.1 -0.1)">
      <defs>
       <path d="M 44.390625 34.1875 
Q 47.5625 33.109375 50.5625 29.59375 
Q 53.5625 26.078125 56.59375 19.921875 
L 66.609375 0 
L 56 0 
L 46.6875 18.703125 
Q 43.0625 26.03125 39.671875 28.421875 
Q 36.28125 30.8125 30.421875 30.8125 
L 19.671875 30.8125 
L 19.671875 0 
L 9.8125 0 
L 9.8125 72.90625 
L 32.078125 72.90625 
Q 44.578125 72.90625 50.734375 67.671875 
Q 56.890625 62.453125 56.890625 51.90625 
Q 56.890625 45.015625 53.6875 40.46875 
Q 50.484375 35.9375 44.390625 34.1875 
z
M 19.671875 64.796875 
L 19.671875 38.921875 
L 32.078125 38.921875 
Q 39.203125 38.921875 42.84375 42.21875 
Q 46.484375 45.515625 46.484375 51.90625 
Q 46.484375 58.296875 42.84375 61.546875 
Q 39.203125 64.796875 32.078125 64.796875 
z
" id="DejaVuSans-82"/>
       <path d="M 34.28125 27.484375 
Q 23.390625 27.484375 19.1875 25 
Q 14.984375 22.515625 14.984375 16.5 
Q 14.984375 11.71875 18.140625 8.90625 
Q 21.296875 6.109375 26.703125 6.109375 
Q 34.1875 6.109375 38.703125 11.40625 
Q 43.21875 16.703125 43.21875 25.484375 
L 43.21875 27.484375 
z
M 52.203125 31.203125 
L 52.203125 0 
L 43.21875 0 
L 43.21875 8.296875 
Q 40.140625 3.328125 35.546875 0.953125 
Q 30.953125 -1.421875 24.3125 -1.421875 
Q 15.921875 -1.421875 10.953125 3.296875 
Q 6 8.015625 6 15.921875 
Q 6 25.140625 12.171875 29.828125 
Q 18.359375 34.515625 30.609375 34.515625 
L 43.21875 34.515625 
L 43.21875 35.40625 
Q 43.21875 41.609375 39.140625 45 
Q 35.0625 48.390625 27.6875 48.390625 
Q 23 48.390625 18.546875 47.265625 
Q 14.109375 46.140625 10.015625 43.890625 
L 10.015625 52.203125 
Q 14.9375 54.109375 19.578125 55.046875 
Q 24.21875 56 28.609375 56 
Q 40.484375 56 46.34375 49.84375 
Q 52.203125 43.703125 52.203125 31.203125 
z
" id="DejaVuSans-97"/>
      </defs>
      <use xlink:href="#DejaVuSans-82"/>
      <use x="64.982422" xlink:href="#DejaVuSans-101"/>
      <use x="126.505859" xlink:href="#DejaVuSans-99"/>
      <use x="181.486328" xlink:href="#DejaVuSans-97"/>
      <use x="242.765625" xlink:href="#DejaVuSans-108"/>
      <use x="270.548828" xlink:href="#DejaVuSans-108"/>
     </g>
    </g>
   </g>
  </g>
 </g>
 <defs>
  <clipPath id="p19141f435a">
   <rect height="326.16" width="558" x="30.103125" y="10.999219"/>
  </clipPath>
 </defs>
</svg>
