<?xml version="1.0" encoding="utf-8" standalone="no"?>
<!DOCTYPE svg PUBLIC "-//W3C//DTD SVG 1.1//EN"
  "http://www.w3.org/Graphics/SVG/1.1/DTD/svg11.dtd">
<!-- Created with matplotlib (https://matplotlib.org/) -->
<svg height="205.654844pt" version="1.1" viewBox="0 0 912.437631 205.654844" width="912.437631pt" xmlns="http://www.w3.org/2000/svg" xmlns:xlink="http://www.w3.org/1999/xlink">
 <metadata>
  <rdf:RDF xmlns:cc="http://creativecommons.org/ns#" xmlns:dc="http://purl.org/dc/elements/1.1/" xmlns:rdf="http://www.w3.org/1999/02/22-rdf-syntax-ns#">
   <cc:Work>
    <dc:type rdf:resource="http://purl.org/dc/dcmitype/StillImage"/>
    <dc:date>2020-10-19T19:39:02.894423</dc:date>
    <dc:format>image/svg+xml</dc:format>
    <dc:creator>
     <cc:Agent>
      <dc:title>Matplotlib v3.3.2, https://matplotlib.org/</dc:title>
     </cc:Agent>
    </dc:creator>
   </cc:Work>
  </rdf:RDF>
 </metadata>
 <defs>
  <style type="text/css">*{stroke-linecap:butt;stroke-linejoin:round;}</style>
 </defs>
 <g id="figure_1">
  <g id="patch_1">
   <path d="M 0 205.654844 
L 912.437631 205.654844 
L 912.437631 0 
L 0 0 
z
" style="fill:#ffffff;"/>
  </g>
  <g id="axes_1">
   <g id="patch_2">
    <path d="M 38.107031 163.78 
L 845.992131 163.78 
L 845.992131 7.2 
L 38.107031 7.2 
z
" style="fill:#eaeaf2;"/>
   </g>
   <g id="matplotlib.axis_1">
    <g id="xtick_1">
     <g id="line2d_1">
      <path clip-path="url(#pe774f9ccab)" d="M 38.107031 163.78 
L 38.107031 7.2 
" style="fill:none;stroke:#ffffff;stroke-linecap:round;"/>
     </g>
     <g id="text_1">
      <!-- 60.0 -->
      <g style="fill:#262626;" transform="translate(27.403516 181.153594)scale(0.11 -0.11)">
       <defs>
        <path d="M 49.75 54.046875 
L 41.015625 53.375 
Q 39.84375 58.546875 37.703125 60.890625 
Q 34.125 64.65625 28.90625 64.65625 
Q 24.703125 64.65625 21.53125 62.3125 
Q 17.390625 59.28125 14.984375 53.46875 
Q 12.59375 47.65625 12.5 36.921875 
Q 15.671875 41.75 20.265625 44.09375 
Q 24.859375 46.4375 29.890625 46.4375 
Q 38.671875 46.4375 44.84375 39.96875 
Q 51.03125 33.5 51.03125 23.25 
Q 51.03125 16.5 48.125 10.71875 
Q 45.21875 4.9375 40.140625 1.859375 
Q 35.0625 -1.21875 28.609375 -1.21875 
Q 17.625 -1.21875 10.6875 6.859375 
Q 3.765625 14.9375 3.765625 33.5 
Q 3.765625 54.25 11.421875 63.671875 
Q 18.109375 71.875 29.4375 71.875 
Q 37.890625 71.875 43.28125 67.140625 
Q 48.6875 62.40625 49.75 54.046875 
z
M 13.875 23.1875 
Q 13.875 18.65625 15.796875 14.5 
Q 17.71875 10.359375 21.1875 8.171875 
Q 24.65625 6 28.46875 6 
Q 34.03125 6 38.03125 10.484375 
Q 42.046875 14.984375 42.046875 22.703125 
Q 42.046875 30.125 38.078125 34.390625 
Q 34.125 38.671875 28.125 38.671875 
Q 22.171875 38.671875 18.015625 34.390625 
Q 13.875 30.125 13.875 23.1875 
z
" id="ArialMT-54"/>
        <path d="M 4.15625 35.296875 
Q 4.15625 48 6.765625 55.734375 
Q 9.375 63.484375 14.515625 67.671875 
Q 19.671875 71.875 27.484375 71.875 
Q 33.25 71.875 37.59375 69.546875 
Q 41.9375 67.234375 44.765625 62.859375 
Q 47.609375 58.5 49.21875 52.21875 
Q 50.828125 45.953125 50.828125 35.296875 
Q 50.828125 22.703125 48.234375 14.96875 
Q 45.65625 7.234375 40.5 3 
Q 35.359375 -1.21875 27.484375 -1.21875 
Q 17.140625 -1.21875 11.234375 6.203125 
Q 4.15625 15.140625 4.15625 35.296875 
z
M 13.1875 35.296875 
Q 13.1875 17.671875 17.3125 11.828125 
Q 21.4375 6 27.484375 6 
Q 33.546875 6 37.671875 11.859375 
Q 41.796875 17.71875 41.796875 35.296875 
Q 41.796875 52.984375 37.671875 58.78125 
Q 33.546875 64.59375 27.390625 64.59375 
Q 21.34375 64.59375 17.71875 59.46875 
Q 13.1875 52.9375 13.1875 35.296875 
z
" id="ArialMT-48"/>
        <path d="M 9.078125 0 
L 9.078125 10.015625 
L 19.09375 10.015625 
L 19.09375 0 
z
" id="ArialMT-46"/>
       </defs>
       <use xlink:href="#ArialMT-54"/>
       <use x="55.615234" xlink:href="#ArialMT-48"/>
       <use x="111.230469" xlink:href="#ArialMT-46"/>
       <use x="139.013672" xlink:href="#ArialMT-48"/>
      </g>
     </g>
    </g>
    <g id="xtick_2">
     <g id="line2d_2">
      <path clip-path="url(#pe774f9ccab)" d="M 139.092669 163.78 
L 139.092669 7.2 
" style="fill:none;stroke:#ffffff;stroke-linecap:round;"/>
     </g>
     <g id="text_2">
      <!-- 62.5 -->
      <g style="fill:#262626;" transform="translate(128.389153 181.153594)scale(0.11 -0.11)">
       <defs>
        <path d="M 50.34375 8.453125 
L 50.34375 0 
L 3.03125 0 
Q 2.9375 3.171875 4.046875 6.109375 
Q 5.859375 10.9375 9.828125 15.625 
Q 13.8125 20.3125 21.34375 26.46875 
Q 33.015625 36.03125 37.109375 41.625 
Q 41.21875 47.21875 41.21875 52.203125 
Q 41.21875 57.421875 37.46875 61 
Q 33.734375 64.59375 27.734375 64.59375 
Q 21.390625 64.59375 17.578125 60.78125 
Q 13.765625 56.984375 13.71875 50.25 
L 4.6875 51.171875 
Q 5.609375 61.28125 11.65625 66.578125 
Q 17.71875 71.875 27.9375 71.875 
Q 38.234375 71.875 44.234375 66.15625 
Q 50.25 60.453125 50.25 52 
Q 50.25 47.703125 48.484375 43.546875 
Q 46.734375 39.40625 42.65625 34.8125 
Q 38.578125 30.21875 29.109375 22.21875 
Q 21.1875 15.578125 18.9375 13.203125 
Q 16.703125 10.84375 15.234375 8.453125 
z
" id="ArialMT-50"/>
        <path d="M 4.15625 18.75 
L 13.375 19.53125 
Q 14.40625 12.796875 18.140625 9.390625 
Q 21.875 6 27.15625 6 
Q 33.5 6 37.890625 10.78125 
Q 42.28125 15.578125 42.28125 23.484375 
Q 42.28125 31 38.0625 35.34375 
Q 33.84375 39.703125 27 39.703125 
Q 22.75 39.703125 19.328125 37.765625 
Q 15.921875 35.84375 13.96875 32.765625 
L 5.71875 33.84375 
L 12.640625 70.609375 
L 48.25 70.609375 
L 48.25 62.203125 
L 19.671875 62.203125 
L 15.828125 42.96875 
Q 22.265625 47.46875 29.34375 47.46875 
Q 38.71875 47.46875 45.15625 40.96875 
Q 51.609375 34.46875 51.609375 24.265625 
Q 51.609375 14.546875 45.953125 7.46875 
Q 39.0625 -1.21875 27.15625 -1.21875 
Q 17.390625 -1.21875 11.203125 4.25 
Q 5.03125 9.71875 4.15625 18.75 
z
" id="ArialMT-53"/>
       </defs>
       <use xlink:href="#ArialMT-54"/>
       <use x="55.615234" xlink:href="#ArialMT-50"/>
       <use x="111.230469" xlink:href="#ArialMT-46"/>
       <use x="139.013672" xlink:href="#ArialMT-53"/>
      </g>
     </g>
    </g>
    <g id="xtick_3">
     <g id="line2d_3">
      <path clip-path="url(#pe774f9ccab)" d="M 240.078306 163.78 
L 240.078306 7.2 
" style="fill:none;stroke:#ffffff;stroke-linecap:round;"/>
     </g>
     <g id="text_3">
      <!-- 65.0 -->
      <g style="fill:#262626;" transform="translate(229.374791 181.153594)scale(0.11 -0.11)">
       <use xlink:href="#ArialMT-54"/>
       <use x="55.615234" xlink:href="#ArialMT-53"/>
       <use x="111.230469" xlink:href="#ArialMT-46"/>
       <use x="139.013672" xlink:href="#ArialMT-48"/>
      </g>
     </g>
    </g>
    <g id="xtick_4">
     <g id="line2d_4">
      <path clip-path="url(#pe774f9ccab)" d="M 341.063944 163.78 
L 341.063944 7.2 
" style="fill:none;stroke:#ffffff;stroke-linecap:round;"/>
     </g>
     <g id="text_4">
      <!-- 67.5 -->
      <g style="fill:#262626;" transform="translate(330.360428 181.153594)scale(0.11 -0.11)">
       <defs>
        <path d="M 4.734375 62.203125 
L 4.734375 70.65625 
L 51.078125 70.65625 
L 51.078125 63.8125 
Q 44.234375 56.546875 37.515625 44.484375 
Q 30.8125 32.421875 27.15625 19.671875 
Q 24.515625 10.6875 23.78125 0 
L 14.75 0 
Q 14.890625 8.453125 18.0625 20.40625 
Q 21.234375 32.375 27.171875 43.484375 
Q 33.109375 54.59375 39.796875 62.203125 
z
" id="ArialMT-55"/>
       </defs>
       <use xlink:href="#ArialMT-54"/>
       <use x="55.615234" xlink:href="#ArialMT-55"/>
       <use x="111.230469" xlink:href="#ArialMT-46"/>
       <use x="139.013672" xlink:href="#ArialMT-53"/>
      </g>
     </g>
    </g>
    <g id="xtick_5">
     <g id="line2d_5">
      <path clip-path="url(#pe774f9ccab)" d="M 442.049581 163.78 
L 442.049581 7.2 
" style="fill:none;stroke:#ffffff;stroke-linecap:round;"/>
     </g>
     <g id="text_5">
      <!-- 70.0 -->
      <g style="fill:#262626;" transform="translate(431.346066 181.153594)scale(0.11 -0.11)">
       <use xlink:href="#ArialMT-55"/>
       <use x="55.615234" xlink:href="#ArialMT-48"/>
       <use x="111.230469" xlink:href="#ArialMT-46"/>
       <use x="139.013672" xlink:href="#ArialMT-48"/>
      </g>
     </g>
    </g>
    <g id="xtick_6">
     <g id="line2d_6">
      <path clip-path="url(#pe774f9ccab)" d="M 543.035219 163.78 
L 543.035219 7.2 
" style="fill:none;stroke:#ffffff;stroke-linecap:round;"/>
     </g>
     <g id="text_6">
      <!-- 72.5 -->
      <g style="fill:#262626;" transform="translate(532.331703 181.153594)scale(0.11 -0.11)">
       <use xlink:href="#ArialMT-55"/>
       <use x="55.615234" xlink:href="#ArialMT-50"/>
       <use x="111.230469" xlink:href="#ArialMT-46"/>
       <use x="139.013672" xlink:href="#ArialMT-53"/>
      </g>
     </g>
    </g>
    <g id="xtick_7">
     <g id="line2d_7">
      <path clip-path="url(#pe774f9ccab)" d="M 644.020856 163.78 
L 644.020856 7.2 
" style="fill:none;stroke:#ffffff;stroke-linecap:round;"/>
     </g>
     <g id="text_7">
      <!-- 75.0 -->
      <g style="fill:#262626;" transform="translate(633.31734 181.153594)scale(0.11 -0.11)">
       <use xlink:href="#ArialMT-55"/>
       <use x="55.615234" xlink:href="#ArialMT-53"/>
       <use x="111.230469" xlink:href="#ArialMT-46"/>
       <use x="139.013672" xlink:href="#ArialMT-48"/>
      </g>
     </g>
    </g>
    <g id="xtick_8">
     <g id="line2d_8">
      <path clip-path="url(#pe774f9ccab)" d="M 745.006494 163.78 
L 745.006494 7.2 
" style="fill:none;stroke:#ffffff;stroke-linecap:round;"/>
     </g>
     <g id="text_8">
      <!-- 77.5 -->
      <g style="fill:#262626;" transform="translate(734.302978 181.153594)scale(0.11 -0.11)">
       <use xlink:href="#ArialMT-55"/>
       <use x="55.615234" xlink:href="#ArialMT-55"/>
       <use x="111.230469" xlink:href="#ArialMT-46"/>
       <use x="139.013672" xlink:href="#ArialMT-53"/>
      </g>
     </g>
    </g>
    <g id="xtick_9">
     <g id="line2d_9">
      <path clip-path="url(#pe774f9ccab)" d="M 845.992131 163.78 
L 845.992131 7.2 
" style="fill:none;stroke:#ffffff;stroke-linecap:round;"/>
     </g>
     <g id="text_9">
      <!-- 80.0 -->
      <g style="fill:#262626;" transform="translate(835.288615 181.153594)scale(0.11 -0.11)">
       <defs>
        <path d="M 17.671875 38.8125 
Q 12.203125 40.828125 9.5625 44.53125 
Q 6.9375 48.25 6.9375 53.421875 
Q 6.9375 61.234375 12.546875 66.546875 
Q 18.171875 71.875 27.484375 71.875 
Q 36.859375 71.875 42.578125 66.421875 
Q 48.296875 60.984375 48.296875 53.171875 
Q 48.296875 48.1875 45.671875 44.5 
Q 43.0625 40.828125 37.75 38.8125 
Q 44.34375 36.671875 47.78125 31.875 
Q 51.21875 27.09375 51.21875 20.453125 
Q 51.21875 11.28125 44.71875 5.03125 
Q 38.234375 -1.21875 27.640625 -1.21875 
Q 17.046875 -1.21875 10.546875 5.046875 
Q 4.046875 11.328125 4.046875 20.703125 
Q 4.046875 27.6875 7.59375 32.390625 
Q 11.140625 37.109375 17.671875 38.8125 
z
M 15.921875 53.71875 
Q 15.921875 48.640625 19.1875 45.40625 
Q 22.46875 42.1875 27.6875 42.1875 
Q 32.765625 42.1875 36.015625 45.375 
Q 39.265625 48.578125 39.265625 53.21875 
Q 39.265625 58.0625 35.90625 61.359375 
Q 32.5625 64.65625 27.59375 64.65625 
Q 22.5625 64.65625 19.234375 61.421875 
Q 15.921875 58.203125 15.921875 53.71875 
z
M 13.09375 20.65625 
Q 13.09375 16.890625 14.875 13.375 
Q 16.65625 9.859375 20.171875 7.921875 
Q 23.6875 6 27.734375 6 
Q 34.03125 6 38.125 10.046875 
Q 42.234375 14.109375 42.234375 20.359375 
Q 42.234375 26.703125 38.015625 30.859375 
Q 33.796875 35.015625 27.4375 35.015625 
Q 21.234375 35.015625 17.15625 30.90625 
Q 13.09375 26.8125 13.09375 20.65625 
z
" id="ArialMT-56"/>
       </defs>
       <use xlink:href="#ArialMT-56"/>
       <use x="55.615234" xlink:href="#ArialMT-48"/>
       <use x="111.230469" xlink:href="#ArialMT-46"/>
       <use x="139.013672" xlink:href="#ArialMT-48"/>
      </g>
     </g>
    </g>
    <g id="text_10">
     <!-- Age -->
     <g style="fill:#262626;" transform="translate(431.374269 195.929219)scale(0.12 -0.12)">
      <defs>
       <path d="M -0.140625 0 
L 27.34375 71.578125 
L 37.546875 71.578125 
L 66.84375 0 
L 56.0625 0 
L 47.703125 21.6875 
L 17.78125 21.6875 
L 9.90625 0 
z
M 20.515625 29.390625 
L 44.78125 29.390625 
L 37.3125 49.21875 
Q 33.890625 58.25 32.234375 64.0625 
Q 30.859375 57.171875 28.375 50.390625 
z
" id="ArialMT-65"/>
       <path d="M 4.984375 -4.296875 
L 13.53125 -5.5625 
Q 14.0625 -9.515625 16.5 -11.328125 
Q 19.78125 -13.765625 25.4375 -13.765625 
Q 31.546875 -13.765625 34.859375 -11.328125 
Q 38.1875 -8.890625 39.359375 -4.5 
Q 40.046875 -1.8125 39.984375 6.78125 
Q 34.234375 0 25.640625 0 
Q 14.9375 0 9.078125 7.71875 
Q 3.21875 15.4375 3.21875 26.21875 
Q 3.21875 33.640625 5.90625 39.90625 
Q 8.59375 46.1875 13.6875 49.609375 
Q 18.796875 53.03125 25.6875 53.03125 
Q 34.859375 53.03125 40.828125 45.609375 
L 40.828125 51.859375 
L 48.921875 51.859375 
L 48.921875 7.03125 
Q 48.921875 -5.078125 46.453125 -10.125 
Q 44 -15.1875 38.640625 -18.109375 
Q 33.296875 -21.046875 25.484375 -21.046875 
Q 16.21875 -21.046875 10.5 -16.875 
Q 4.78125 -12.703125 4.984375 -4.296875 
z
M 12.25 26.859375 
Q 12.25 16.65625 16.296875 11.96875 
Q 20.359375 7.28125 26.46875 7.28125 
Q 32.515625 7.28125 36.609375 11.9375 
Q 40.71875 16.609375 40.71875 26.5625 
Q 40.71875 36.078125 36.5 40.90625 
Q 32.28125 45.75 26.3125 45.75 
Q 20.453125 45.75 16.34375 40.984375 
Q 12.25 36.234375 12.25 26.859375 
z
" id="ArialMT-103"/>
       <path d="M 42.09375 16.703125 
L 51.171875 15.578125 
Q 49.03125 7.625 43.21875 3.21875 
Q 37.40625 -1.171875 28.375 -1.171875 
Q 17 -1.171875 10.328125 5.828125 
Q 3.65625 12.84375 3.65625 25.484375 
Q 3.65625 38.578125 10.390625 45.796875 
Q 17.140625 53.03125 27.875 53.03125 
Q 38.28125 53.03125 44.875 45.953125 
Q 51.46875 38.875 51.46875 26.03125 
Q 51.46875 25.25 51.421875 23.6875 
L 12.75 23.6875 
Q 13.234375 15.140625 17.578125 10.59375 
Q 21.921875 6.0625 28.421875 6.0625 
Q 33.25 6.0625 36.671875 8.59375 
Q 40.09375 11.140625 42.09375 16.703125 
z
M 13.234375 30.90625 
L 42.1875 30.90625 
Q 41.609375 37.453125 38.875 40.71875 
Q 34.671875 45.796875 27.984375 45.796875 
Q 21.921875 45.796875 17.796875 41.75 
Q 13.671875 37.703125 13.234375 30.90625 
z
" id="ArialMT-101"/>
      </defs>
      <use xlink:href="#ArialMT-65"/>
      <use x="66.699219" xlink:href="#ArialMT-103"/>
      <use x="122.314453" xlink:href="#ArialMT-101"/>
     </g>
    </g>
   </g>
   <g id="matplotlib.axis_2">
    <g id="ytick_1">
     <g id="line2d_10">
      <path clip-path="url(#pe774f9ccab)" d="M 38.107031 163.78 
L 845.992131 163.78 
" style="fill:none;stroke:#ffffff;stroke-linecap:round;"/>
     </g>
     <g id="text_11">
      <!-- 0.00 -->
      <g style="fill:#262626;" transform="translate(7.2 167.716797)scale(0.11 -0.11)">
       <use xlink:href="#ArialMT-48"/>
       <use x="55.615234" xlink:href="#ArialMT-46"/>
       <use x="83.398438" xlink:href="#ArialMT-48"/>
       <use x="139.013672" xlink:href="#ArialMT-48"/>
      </g>
     </g>
    </g>
    <g id="ytick_2">
     <g id="line2d_11">
      <path clip-path="url(#pe774f9ccab)" d="M 38.107031 129.745952 
L 845.992131 129.745952 
" style="fill:none;stroke:#ffffff;stroke-linecap:round;"/>
     </g>
     <g id="text_12">
      <!-- 0.01 -->
      <g style="fill:#262626;" transform="translate(7.2 133.682749)scale(0.11 -0.11)">
       <defs>
        <path d="M 37.25 0 
L 28.46875 0 
L 28.46875 56 
Q 25.296875 52.984375 20.140625 49.953125 
Q 14.984375 46.921875 10.890625 45.40625 
L 10.890625 53.90625 
Q 18.265625 57.375 23.78125 62.296875 
Q 29.296875 67.234375 31.59375 71.875 
L 37.25 71.875 
z
" id="ArialMT-49"/>
       </defs>
       <use xlink:href="#ArialMT-48"/>
       <use x="55.615234" xlink:href="#ArialMT-46"/>
       <use x="83.398438" xlink:href="#ArialMT-48"/>
       <use x="139.013672" xlink:href="#ArialMT-49"/>
      </g>
     </g>
    </g>
    <g id="ytick_3">
     <g id="line2d_12">
      <path clip-path="url(#pe774f9ccab)" d="M 38.107031 95.711904 
L 845.992131 95.711904 
" style="fill:none;stroke:#ffffff;stroke-linecap:round;"/>
     </g>
     <g id="text_13">
      <!-- 0.02 -->
      <g style="fill:#262626;" transform="translate(7.2 99.648701)scale(0.11 -0.11)">
       <use xlink:href="#ArialMT-48"/>
       <use x="55.615234" xlink:href="#ArialMT-46"/>
       <use x="83.398438" xlink:href="#ArialMT-48"/>
       <use x="139.013672" xlink:href="#ArialMT-50"/>
      </g>
     </g>
    </g>
    <g id="ytick_4">
     <g id="line2d_13">
      <path clip-path="url(#pe774f9ccab)" d="M 38.107031 61.677855 
L 845.992131 61.677855 
" style="fill:none;stroke:#ffffff;stroke-linecap:round;"/>
     </g>
     <g id="text_14">
      <!-- 0.03 -->
      <g style="fill:#262626;" transform="translate(7.2 65.614652)scale(0.11 -0.11)">
       <defs>
        <path d="M 4.203125 18.890625 
L 12.984375 20.0625 
Q 14.5 12.59375 18.140625 9.296875 
Q 21.78125 6 27 6 
Q 33.203125 6 37.46875 10.296875 
Q 41.75 14.59375 41.75 20.953125 
Q 41.75 27 37.796875 30.921875 
Q 33.84375 34.859375 27.734375 34.859375 
Q 25.25 34.859375 21.53125 33.890625 
L 22.515625 41.609375 
Q 23.390625 41.5 23.921875 41.5 
Q 29.546875 41.5 34.03125 44.421875 
Q 38.53125 47.359375 38.53125 53.46875 
Q 38.53125 58.296875 35.25 61.46875 
Q 31.984375 64.65625 26.8125 64.65625 
Q 21.6875 64.65625 18.265625 61.421875 
Q 14.84375 58.203125 13.875 51.765625 
L 5.078125 53.328125 
Q 6.6875 62.15625 12.390625 67.015625 
Q 18.109375 71.875 26.609375 71.875 
Q 32.46875 71.875 37.390625 69.359375 
Q 42.328125 66.84375 44.9375 62.5 
Q 47.5625 58.15625 47.5625 53.265625 
Q 47.5625 48.640625 45.0625 44.828125 
Q 42.578125 41.015625 37.703125 38.765625 
Q 44.046875 37.3125 47.5625 32.6875 
Q 51.078125 28.078125 51.078125 21.140625 
Q 51.078125 11.765625 44.234375 5.25 
Q 37.40625 -1.265625 26.953125 -1.265625 
Q 17.53125 -1.265625 11.296875 4.34375 
Q 5.078125 9.96875 4.203125 18.890625 
z
" id="ArialMT-51"/>
       </defs>
       <use xlink:href="#ArialMT-48"/>
       <use x="55.615234" xlink:href="#ArialMT-46"/>
       <use x="83.398438" xlink:href="#ArialMT-48"/>
       <use x="139.013672" xlink:href="#ArialMT-51"/>
      </g>
     </g>
    </g>
    <g id="ytick_5">
     <g id="line2d_14">
      <path clip-path="url(#pe774f9ccab)" d="M 38.107031 27.643807 
L 845.992131 27.643807 
" style="fill:none;stroke:#ffffff;stroke-linecap:round;"/>
     </g>
     <g id="text_15">
      <!-- 0.04 -->
      <g style="fill:#262626;" transform="translate(7.2 31.580604)scale(0.11 -0.11)">
       <defs>
        <path d="M 32.328125 0 
L 32.328125 17.140625 
L 1.265625 17.140625 
L 1.265625 25.203125 
L 33.9375 71.578125 
L 41.109375 71.578125 
L 41.109375 25.203125 
L 50.78125 25.203125 
L 50.78125 17.140625 
L 41.109375 17.140625 
L 41.109375 0 
z
M 32.328125 25.203125 
L 32.328125 57.46875 
L 9.90625 25.203125 
z
" id="ArialMT-52"/>
       </defs>
       <use xlink:href="#ArialMT-48"/>
       <use x="55.615234" xlink:href="#ArialMT-46"/>
       <use x="83.398438" xlink:href="#ArialMT-48"/>
       <use x="139.013672" xlink:href="#ArialMT-52"/>
      </g>
     </g>
    </g>
   </g>
   <g id="PolyCollection_1">
    <path clip-path="url(#pe774f9ccab)" d="M -2779.156531 163.739684 
L -2779.156531 163.78 
L -2759.976704 163.78 
L -2740.796876 163.78 
L -2721.617049 163.78 
L -2702.437222 163.78 
L -2683.257394 163.78 
L -2664.077567 163.78 
L -2644.897739 163.78 
L -2625.717912 163.78 
L -2606.538085 163.78 
L -2587.358257 163.78 
L -2568.17843 163.78 
L -2548.998602 163.78 
L -2529.818775 163.78 
L -2510.638948 163.78 
L -2491.45912 163.78 
L -2472.279293 163.78 
L -2453.099466 163.78 
L -2433.919638 163.78 
L -2414.739811 163.78 
L -2395.559983 163.78 
L -2376.380156 163.78 
L -2357.200329 163.78 
L -2338.020501 163.78 
L -2318.840674 163.78 
L -2299.660846 163.78 
L -2280.481019 163.78 
L -2261.301192 163.78 
L -2242.121364 163.78 
L -2222.941537 163.78 
L -2203.761709 163.78 
L -2184.581882 163.78 
L -2165.402055 163.78 
L -2146.222227 163.78 
L -2127.0424 163.78 
L -2107.862573 163.78 
L -2088.682745 163.78 
L -2069.502918 163.78 
L -2050.32309 163.78 
L -2031.143263 163.78 
L -2011.963436 163.78 
L -1992.783608 163.78 
L -1973.603781 163.78 
L -1954.423953 163.78 
L -1935.244126 163.78 
L -1916.064299 163.78 
L -1896.884471 163.78 
L -1877.704644 163.78 
L -1858.524817 163.78 
L -1839.344989 163.78 
L -1820.165162 163.78 
L -1800.985334 163.78 
L -1781.805507 163.78 
L -1762.62568 163.78 
L -1743.445852 163.78 
L -1724.266025 163.78 
L -1705.086197 163.78 
L -1685.90637 163.78 
L -1666.726543 163.78 
L -1647.546715 163.78 
L -1628.366888 163.78 
L -1609.18706 163.78 
L -1590.007233 163.78 
L -1570.827406 163.78 
L -1551.647578 163.78 
L -1532.467751 163.78 
L -1513.287924 163.78 
L -1494.108096 163.78 
L -1474.928269 163.78 
L -1455.748441 163.78 
L -1436.568614 163.78 
L -1417.388787 163.78 
L -1398.208959 163.78 
L -1379.029132 163.78 
L -1359.849304 163.78 
L -1340.669477 163.78 
L -1321.48965 163.78 
L -1302.309822 163.78 
L -1283.129995 163.78 
L -1263.950167 163.78 
L -1244.77034 163.78 
L -1225.590513 163.78 
L -1206.410685 163.78 
L -1187.230858 163.78 
L -1168.051031 163.78 
L -1148.871203 163.78 
L -1129.691376 163.78 
L -1110.511548 163.78 
L -1091.331721 163.78 
L -1072.151894 163.78 
L -1052.972066 163.78 
L -1033.792239 163.78 
L -1014.612411 163.78 
L -995.432584 163.78 
L -976.252757 163.78 
L -957.072929 163.78 
L -937.893102 163.78 
L -918.713275 163.78 
L -899.533447 163.78 
L -880.35362 163.78 
L -861.173792 163.78 
L -841.993965 163.78 
L -822.814138 163.78 
L -803.63431 163.78 
L -784.454483 163.78 
L -765.274655 163.78 
L -746.094828 163.78 
L -726.915001 163.78 
L -707.735173 163.78 
L -688.555346 163.78 
L -669.375518 163.78 
L -650.195691 163.78 
L -631.015864 163.78 
L -611.836036 163.78 
L -592.656209 163.78 
L -573.476382 163.78 
L -554.296554 163.78 
L -535.116727 163.78 
L -515.936899 163.78 
L -496.757072 163.78 
L -477.577245 163.78 
L -458.397417 163.78 
L -439.21759 163.78 
L -420.037762 163.78 
L -400.857935 163.78 
L -381.678108 163.78 
L -362.49828 163.78 
L -343.318453 163.78 
L -324.138626 163.78 
L -304.958798 163.78 
L -285.778971 163.78 
L -266.599143 163.78 
L -247.419316 163.78 
L -228.239489 163.78 
L -209.059661 163.78 
L -189.879834 163.78 
L -170.700006 163.78 
L -151.520179 163.78 
L -132.340352 163.78 
L -113.160524 163.78 
L -93.980697 163.78 
L -74.800869 163.78 
L -55.621042 163.78 
L -36.441215 163.78 
L -17.261387 163.78 
L 1.91844 163.78 
L 21.098267 163.78 
L 40.278095 163.78 
L 59.457922 163.78 
L 78.63775 163.78 
L 97.817577 163.78 
L 116.997404 163.78 
L 136.177232 163.78 
L 155.357059 163.78 
L 174.536887 163.78 
L 193.716714 163.78 
L 212.896541 163.78 
L 232.076369 163.78 
L 251.256196 163.78 
L 270.436023 163.78 
L 289.615851 163.78 
L 308.795678 163.78 
L 327.975506 163.78 
L 347.155333 163.78 
L 366.33516 163.78 
L 385.514988 163.78 
L 404.694815 163.78 
L 423.874643 163.78 
L 443.05447 163.78 
L 462.234297 163.78 
L 481.414125 163.78 
L 500.593952 163.78 
L 519.77378 163.78 
L 538.953607 163.78 
L 558.133434 163.78 
L 577.313262 163.78 
L 596.493089 163.78 
L 615.672916 163.78 
L 634.852744 163.78 
L 654.032571 163.78 
L 673.212399 163.78 
L 692.392226 163.78 
L 711.572053 163.78 
L 730.751881 163.78 
L 749.931708 163.78 
L 769.111536 163.78 
L 788.291363 163.78 
L 807.47119 163.78 
L 826.651018 163.78 
L 845.830845 163.78 
L 865.010673 163.78 
L 884.1905 163.78 
L 903.370327 163.78 
L 922.550155 163.78 
L 941.729982 163.78 
L 960.909809 163.78 
L 980.089637 163.78 
L 999.269464 163.78 
L 1018.449292 163.78 
L 1037.629119 163.78 
L 1037.629119 163.77091 
L 1037.629119 163.77091 
L 1018.449292 163.766316 
L 999.269464 163.759716 
L 980.089637 163.750385 
L 960.909809 163.737405 
L 941.729982 163.719637 
L 922.550155 163.695696 
L 903.370327 163.663942 
L 884.1905 163.62248 
L 865.010673 163.569176 
L 845.830845 163.501704 
L 826.651018 163.417611 
L 807.47119 163.314421 
L 788.291363 163.189759 
L 769.111536 163.04151 
L 749.931708 162.867999 
L 730.751881 162.668178 
L 711.572053 162.44181 
L 692.392226 162.189626 
L 673.212399 161.913439 
L 654.032571 161.616178 
L 634.852744 161.301839 
L 615.672916 160.975324 
L 596.493089 160.642174 
L 577.313262 160.308196 
L 558.133434 159.979022 
L 538.953607 159.65963 
L 519.77378 159.353881 
L 500.593952 159.064126 
L 481.414125 158.790949 
L 462.234297 158.533066 
L 443.05447 158.287427 
L 423.874643 158.049504 
L 404.694815 157.813744 
L 385.514988 157.574139 
L 366.33516 157.324839 
L 347.155333 157.060743 
L 327.975506 156.777985 
L 308.795678 156.474288 
L 289.615851 156.149117 
L 270.436023 155.803659 
L 251.256196 155.440625 
L 232.076369 155.063919 
L 212.896541 154.67823 
L 193.716714 154.288576 
L 174.536887 153.899874 
L 155.357059 153.516554 
L 136.177232 153.142244 
L 116.997404 152.779541 
L 97.817577 152.429874 
L 78.63775 152.093431 
L 59.457922 151.769175 
L 40.278095 151.454898 
L 21.098267 151.147343 
L 1.91844 150.842348 
L -17.261387 150.535028 
L -36.441215 150.21998 
L -55.621042 149.891491 
L -74.800869 149.543757 
L -93.980697 149.171091 
L -113.160524 148.768116 
L -132.340352 148.329932 
L -151.520179 147.852263 
L -170.700006 147.331562 
L -189.879834 146.76509 
L -209.059661 146.150968 
L -228.239489 145.488201 
L -247.419316 144.776695 
L -266.599143 144.017259 
L -285.778971 143.211613 
L -304.958798 142.362401 
L -324.138626 141.473204 
L -343.318453 140.548545 
L -362.49828 139.593877 
L -381.678108 138.61552 
L -400.857935 137.620534 
L -420.037762 136.616499 
L -439.21759 135.611205 
L -458.397417 134.612237 
L -477.577245 133.626494 
L -496.757072 132.659665 
L -515.936899 131.715713 
L -535.116727 130.796429 
L -554.296554 129.90108 
L -573.476382 129.026198 
L -592.656209 128.165502 
L -611.836036 127.309928 
L -631.015864 126.447723 
L -650.195691 125.564512 
L -669.375518 124.643286 
L -688.555346 123.664218 
L -707.735173 122.604272 
L -726.915001 121.436609 
L -746.094828 120.129841 
L -765.274655 118.64725 
L -784.454483 116.946161 
L -803.63431 114.977701 
L -822.814138 112.687229 
L -841.993965 110.015705 
L -861.173792 106.902254 
L -880.35362 103.288064 
L -899.533447 99.121651 
L -918.713275 94.365279 
L -937.893102 89.002147 
L -957.072929 83.043683 
L -976.252757 76.536089 
L -995.432584 69.565171 
L -1014.612411 62.258454 
L -1033.792239 54.783746 
L -1052.972066 47.343606 
L -1072.151894 40.165611 
L -1091.331721 33.488878 
L -1110.511548 27.54782 
L -1129.691376 22.554624 
L -1148.871203 18.682256 
L -1168.051031 16.0499 
L -1187.230858 14.712569 
L -1206.410685 14.65619 
L -1225.590513 15.798873 
L -1244.77034 17.998305 
L -1263.950167 21.064492 
L -1283.129995 24.776449 
L -1302.309822 28.900992 
L -1321.48965 33.211653 
L -1340.669477 37.505795 
L -1359.849304 41.618366 
L -1379.029132 45.431209 
L -1398.208959 48.877422 
L -1417.388787 51.940845 
L -1436.568614 54.651245 
L -1455.748441 57.076107 
L -1474.928269 59.310188 
L -1494.108096 61.464013 
L -1513.287924 63.652414 
L -1532.467751 65.984079 
L -1551.647578 68.552781 
L -1570.827406 71.430754 
L -1590.007233 74.664419 
L -1609.18706 78.272443 
L -1628.366888 82.245952 
L -1647.546715 86.550598 
L -1666.726543 91.130109 
L -1685.90637 95.910899 
L -1705.086197 100.807364 
L -1724.266025 105.727451 
L -1743.445852 110.578182 
L -1762.62568 115.27082 
L -1781.805507 119.725444 
L -1800.985334 123.874702 
L -1820.165162 127.666612 
L -1839.344989 131.066287 
L -1858.524817 134.056533 
L -1877.704644 136.637329 
L -1896.884471 138.824277 
L -1916.064299 140.646151 
L -1935.244126 142.141777 
L -1954.423953 143.356513 
L -1973.603781 144.338629 
L -1992.783608 145.135904 
L -2011.963436 145.792722 
L -2031.143263 146.347907 
L -2050.32309 146.833412 
L -2069.502918 147.273933 
L -2088.682745 147.687341 
L -2107.862573 148.085803 
L -2127.0424 148.477324 
L -2146.222227 148.867443 
L -2165.402055 149.260829 
L -2184.581882 149.662508 
L -2203.761709 150.078598 
L -2222.941537 150.516465 
L -2242.121364 150.984329 
L -2261.301192 151.490441 
L -2280.481019 152.042 
L -2299.660846 152.644023 
L -2318.840674 153.298361 
L -2338.020501 154.00304 
L -2357.200329 154.752028 
L -2376.380156 155.535459 
L -2395.559983 156.340299 
L -2414.739811 157.151339 
L -2433.919638 157.952394 
L -2453.099466 158.727544 
L -2472.279293 159.462289 
L -2491.45912 160.144482 
L -2510.638948 160.764968 
L -2529.818775 161.317901 
L -2548.998602 161.800743 
L -2568.17843 162.213991 
L -2587.358257 162.560707 
L -2606.538085 162.845926 
L -2625.717912 163.076018 
L -2644.897739 163.258079 
L -2664.077567 163.399397 
L -2683.257394 163.507018 
L -2702.437222 163.587443 
L -2721.617049 163.646425 
L -2740.796876 163.68888 
L -2759.976704 163.718877 
L -2779.156531 163.739684 
z
" style="fill:#4c72b0;fill-opacity:0.25;stroke:#4c72b0;"/>
   </g>
   <g id="PolyCollection_2">
    <path clip-path="url(#pe774f9ccab)" d="M -2898.071848 163.667099 
L -2898.071848 163.78 
L -2876.596706 163.78 
L -2855.121565 163.78 
L -2833.646423 163.78 
L -2812.171282 163.78 
L -2790.69614 163.78 
L -2769.220999 163.78 
L -2747.745858 163.78 
L -2726.270716 163.78 
L -2704.795575 163.78 
L -2683.320433 163.78 
L -2661.845292 163.78 
L -2640.37015 163.78 
L -2618.895009 163.78 
L -2597.419868 163.78 
L -2575.944726 163.78 
L -2554.469585 163.78 
L -2532.994443 163.78 
L -2511.519302 163.78 
L -2490.04416 163.78 
L -2468.569019 163.78 
L -2447.093877 163.78 
L -2425.618736 163.78 
L -2404.143595 163.78 
L -2382.668453 163.78 
L -2361.193312 163.78 
L -2339.71817 163.78 
L -2318.243029 163.78 
L -2296.767887 163.78 
L -2275.292746 163.78 
L -2253.817605 163.78 
L -2232.342463 163.78 
L -2210.867322 163.78 
L -2189.39218 163.78 
L -2167.917039 163.78 
L -2146.441897 163.78 
L -2124.966756 163.78 
L -2103.491615 163.78 
L -2082.016473 163.78 
L -2060.541332 163.78 
L -2039.06619 163.78 
L -2017.591049 163.78 
L -1996.115907 163.78 
L -1974.640766 163.78 
L -1953.165625 163.78 
L -1931.690483 163.78 
L -1910.215342 163.78 
L -1888.7402 163.78 
L -1867.265059 163.78 
L -1845.789917 163.78 
L -1824.314776 163.78 
L -1802.839635 163.78 
L -1781.364493 163.78 
L -1759.889352 163.78 
L -1738.41421 163.78 
L -1716.939069 163.78 
L -1695.463927 163.78 
L -1673.988786 163.78 
L -1652.513644 163.78 
L -1631.038503 163.78 
L -1609.563362 163.78 
L -1588.08822 163.78 
L -1566.613079 163.78 
L -1545.137937 163.78 
L -1523.662796 163.78 
L -1502.187654 163.78 
L -1480.712513 163.78 
L -1459.237372 163.78 
L -1437.76223 163.78 
L -1416.287089 163.78 
L -1394.811947 163.78 
L -1373.336806 163.78 
L -1351.861664 163.78 
L -1330.386523 163.78 
L -1308.911382 163.78 
L -1287.43624 163.78 
L -1265.961099 163.78 
L -1244.485957 163.78 
L -1223.010816 163.78 
L -1201.535674 163.78 
L -1180.060533 163.78 
L -1158.585392 163.78 
L -1137.11025 163.78 
L -1115.635109 163.78 
L -1094.159967 163.78 
L -1072.684826 163.78 
L -1051.209684 163.78 
L -1029.734543 163.78 
L -1008.259402 163.78 
L -986.78426 163.78 
L -965.309119 163.78 
L -943.833977 163.78 
L -922.358836 163.78 
L -900.883694 163.78 
L -879.408553 163.78 
L -857.933411 163.78 
L -836.45827 163.78 
L -814.983129 163.78 
L -793.507987 163.78 
L -772.032846 163.78 
L -750.557704 163.78 
L -729.082563 163.78 
L -707.607421 163.78 
L -686.13228 163.78 
L -664.657139 163.78 
L -643.181997 163.78 
L -621.706856 163.78 
L -600.231714 163.78 
L -578.756573 163.78 
L -557.281431 163.78 
L -535.80629 163.78 
L -514.331149 163.78 
L -492.856007 163.78 
L -471.380866 163.78 
L -449.905724 163.78 
L -428.430583 163.78 
L -406.955441 163.78 
L -385.4803 163.78 
L -364.005159 163.78 
L -342.530017 163.78 
L -321.054876 163.78 
L -299.579734 163.78 
L -278.104593 163.78 
L -256.629451 163.78 
L -235.15431 163.78 
L -213.679168 163.78 
L -192.204027 163.78 
L -170.728886 163.78 
L -149.253744 163.78 
L -127.778603 163.78 
L -106.303461 163.78 
L -84.82832 163.78 
L -63.353178 163.78 
L -41.878037 163.78 
L -20.402896 163.78 
L 1.072246 163.78 
L 22.547387 163.78 
L 44.022529 163.78 
L 65.49767 163.78 
L 86.972812 163.78 
L 108.447953 163.78 
L 129.923094 163.78 
L 151.398236 163.78 
L 172.873377 163.78 
L 194.348519 163.78 
L 215.82366 163.78 
L 237.298802 163.78 
L 258.773943 163.78 
L 280.249084 163.78 
L 301.724226 163.78 
L 323.199367 163.78 
L 344.674509 163.78 
L 366.14965 163.78 
L 387.624792 163.78 
L 409.099933 163.78 
L 430.575074 163.78 
L 452.050216 163.78 
L 473.525357 163.78 
L 495.000499 163.78 
L 516.47564 163.78 
L 537.950782 163.78 
L 559.425923 163.78 
L 580.901065 163.78 
L 602.376206 163.78 
L 623.851347 163.78 
L 645.326489 163.78 
L 666.80163 163.78 
L 688.276772 163.78 
L 709.751913 163.78 
L 731.227055 163.78 
L 752.702196 163.78 
L 774.177337 163.78 
L 795.652479 163.78 
L 817.12762 163.78 
L 838.602762 163.78 
L 860.077903 163.78 
L 881.553045 163.78 
L 903.028186 163.78 
L 924.503327 163.78 
L 945.978469 163.78 
L 967.45361 163.78 
L 988.928752 163.78 
L 1010.403893 163.78 
L 1031.879035 163.78 
L 1053.354176 163.78 
L 1074.829317 163.78 
L 1096.304459 163.78 
L 1117.7796 163.78 
L 1139.254742 163.78 
L 1160.729883 163.78 
L 1182.205025 163.78 
L 1203.680166 163.78 
L 1225.155307 163.78 
L 1246.630449 163.78 
L 1268.10559 163.78 
L 1289.580732 163.78 
L 1311.055873 163.78 
L 1332.531015 163.78 
L 1354.006156 163.78 
L 1375.481298 163.78 
L 1375.481298 163.769906 
L 1375.481298 163.769906 
L 1354.006156 163.765567 
L 1332.531015 163.759665 
L 1311.055873 163.75177 
L 1289.580732 163.741387 
L 1268.10559 163.727961 
L 1246.630449 163.710898 
L 1225.155307 163.689588 
L 1203.680166 163.663445 
L 1182.205025 163.63195 
L 1160.729883 163.594709 
L 1139.254742 163.551507 
L 1117.7796 163.502374 
L 1096.304459 163.447632 
L 1074.829317 163.387943 
L 1053.354176 163.324331 
L 1031.879035 163.258178 
L 1010.403893 163.191199 
L 988.928752 163.125382 
L 967.45361 163.062892 
L 945.978469 163.005964 
L 924.503327 162.956763 
L 903.028186 162.917248 
L 881.553045 162.889036 
L 860.077903 162.873275 
L 838.602762 162.870556 
L 817.12762 162.880849 
L 795.652479 162.90348 
L 774.177337 162.937146 
L 752.702196 162.979966 
L 731.227055 163.029553 
L 709.751913 163.083105 
L 688.276772 163.137497 
L 666.80163 163.189372 
L 645.326489 163.235206 
L 623.851347 163.271364 
L 602.376206 163.294128 
L 580.901065 163.299712 
L 559.425923 163.284267 
L 537.950782 163.243891 
L 516.47564 163.174647 
L 495.000499 163.072613 
L 473.525357 162.933961 
L 452.050216 162.755076 
L 430.575074 162.53271 
L 409.099933 162.264164 
L 387.624792 161.947482 
L 366.14965 161.581638 
L 344.674509 161.166699 
L 323.199367 160.703931 
L 301.724226 160.195831 
L 280.249084 159.646075 
L 258.773943 159.059367 
L 237.298802 158.441192 
L 215.82366 157.797488 
L 194.348519 157.134263 
L 172.873377 156.45717 
L 151.398236 155.7711 
L 129.923094 155.07981 
L 108.447953 154.385635 
L 86.972812 153.689302 
L 65.49767 152.989875 
L 44.022529 152.28485 
L 22.547387 151.57038 
L 1.072246 150.841637 
L -20.402896 150.093278 
L -41.878037 149.319992 
L -63.353178 148.517079 
L -84.82832 147.681029 
L -106.303461 146.81004 
L -127.778603 145.904449 
L -149.253744 144.967006 
L -170.728886 144.002978 
L -192.204027 143.020045 
L -213.679168 142.027976 
L -235.15431 141.038079 
L -256.629451 140.062468 
L -278.104593 139.113163 
L -299.579734 138.201094 
L -321.054876 137.335073 
L -342.530017 136.520817 
L -364.005159 135.7601 
L -385.4803 135.050099 
L -406.955441 134.383005 
L -428.430583 133.745917 
L -449.905724 133.121042 
L -471.380866 132.486191 
L -492.856007 131.815519 
L -514.331149 131.080479 
L -535.80629 130.250914 
L -557.281431 129.296239 
L -578.756573 128.186654 
L -600.231714 126.894345 
L -621.706856 125.394646 
L -643.181997 123.667135 
L -664.657139 121.696647 
L -686.13228 119.474188 
L -707.607421 116.997728 
L -729.082563 114.272818 
L -750.557704 111.313014 
L -772.032846 108.140026 
L -793.507987 104.783554 
L -814.983129 101.280767 
L -836.45827 97.675391 
L -857.933411 94.016434 
L -879.408553 90.356559 
L -900.883694 86.750198 
L -922.358836 83.251504 
L -943.833977 79.912247 
L -965.309119 76.779788 
L -986.78426 73.895244 
L -1008.259402 71.291939 
L -1029.734543 68.994224 
L -1051.209684 67.016698 
L -1072.684826 65.363882 
L -1094.159967 64.030334 
L -1115.635109 63.001216 
L -1137.11025 62.253293 
L -1158.585392 61.756361 
L -1180.060533 61.475058 
L -1201.535674 61.371025 
L -1223.010816 61.405333 
L -1244.485957 61.541076 
L -1265.961099 61.745984 
L -1287.43624 61.99487 
L -1308.911382 62.271735 
L -1330.386523 62.571315 
L -1351.861664 62.899907 
L -1373.336806 63.275337 
L -1394.811947 63.726016 
L -1416.287089 64.289101 
L -1437.76223 65.007868 
L -1459.237372 65.928493 
L -1480.712513 67.096493 
L -1502.187654 68.553104 
L -1523.662796 70.331908 
L -1545.137937 72.455964 
L -1566.613079 74.93567 
L -1588.08822 77.767485 
L -1609.563362 80.933582 
L -1631.038503 84.402394 
L -1652.513644 88.129958 
L -1673.988786 92.061913 
L -1695.463927 96.135942 
L -1716.939069 100.284481 
L -1738.41421 104.437489 
L -1759.889352 108.525132 
L -1781.364493 112.480236 
L -1802.839635 116.240442 
L -1824.314776 119.750004 
L -1845.789917 122.961216 
L -1867.265059 125.835489 
L -1888.7402 128.3441 
L -1910.215342 130.468647 
L -1931.690483 132.201249 
L -1953.165625 133.544526 
L -1974.640766 134.511369 
L -1996.115907 135.124516 
L -2017.591049 135.41593 
L -2039.06619 135.425966 
L -2060.541332 135.20232 
L -2082.016473 134.798725 
L -2103.491615 134.27341 
L -2124.966756 133.68731 
L -2146.441897 133.10206 
L -2167.917039 132.577834 
L -2189.39218 132.171088 
L -2210.867322 131.932335 
L -2232.342463 131.904065 
L -2253.817605 132.118941 
L -2275.292746 132.598419 
L -2296.767887 133.351894 
L -2318.243029 134.376461 
L -2339.71817 135.65734 
L -2361.193312 137.168936 
L -2382.668453 138.876503 
L -2404.143595 140.738263 
L -2425.618736 142.707862 
L -2447.093877 144.736957 
L -2468.569019 146.77777 
L -2490.04416 148.785422 
L -2511.519302 150.719898 
L -2532.994443 152.547541 
L -2554.469585 154.24201 
L -2575.944726 155.784685 
L -2597.419868 157.164566 
L -2618.895009 158.377729 
L -2640.37015 159.42644 
L -2661.845292 160.318051 
L -2683.320433 161.063776 
L -2704.795575 161.677467 
L -2726.270716 162.174472 
L -2747.745858 162.570631 
L -2769.220999 162.881463 
L -2790.69614 163.121553 
L -2812.171282 163.304131 
L -2833.646423 163.440835 
L -2855.121565 163.541621 
L -2876.596706 163.61479 
L -2898.071848 163.667099 
z
" style="fill:#dd8452;fill-opacity:0.25;stroke:#dd8452;"/>
   </g>
   <g id="patch_3">
    <path d="M 38.107031 163.78 
L 38.107031 7.2 
" style="fill:none;stroke:#ffffff;stroke-linecap:square;stroke-linejoin:miter;stroke-width:1.25;"/>
   </g>
   <g id="patch_4">
    <path d="M 38.107031 163.78 
L 845.992131 163.78 
" style="fill:none;stroke:#ffffff;stroke-linecap:square;stroke-linejoin:miter;stroke-width:1.25;"/>
   </g>
  </g>
  <g id="legend_1">
   <g id="text_16">
    <!-- Survived -->
    <g style="fill:#262626;" transform="translate(855.852006 90.369766)scale(0.12 -0.12)">
     <defs>
      <path d="M 4.5 23 
L 13.421875 23.78125 
Q 14.0625 18.40625 16.375 14.96875 
Q 18.703125 11.53125 23.578125 9.40625 
Q 28.46875 7.28125 34.578125 7.28125 
Q 39.984375 7.28125 44.140625 8.890625 
Q 48.296875 10.5 50.3125 13.296875 
Q 52.34375 16.109375 52.34375 19.4375 
Q 52.34375 22.796875 50.390625 25.3125 
Q 48.4375 27.828125 43.953125 29.546875 
Q 41.0625 30.671875 31.203125 33.03125 
Q 21.34375 35.40625 17.390625 37.5 
Q 12.25 40.1875 9.734375 44.15625 
Q 7.234375 48.140625 7.234375 53.078125 
Q 7.234375 58.5 10.296875 63.203125 
Q 13.375 67.921875 19.28125 70.359375 
Q 25.203125 72.796875 32.421875 72.796875 
Q 40.375 72.796875 46.453125 70.234375 
Q 52.546875 67.671875 55.8125 62.6875 
Q 59.078125 57.71875 59.328125 51.421875 
L 50.25 50.734375 
Q 49.515625 57.515625 45.28125 60.984375 
Q 41.0625 64.453125 32.8125 64.453125 
Q 24.21875 64.453125 20.28125 61.296875 
Q 16.359375 58.15625 16.359375 53.71875 
Q 16.359375 49.859375 19.140625 47.359375 
Q 21.875 44.875 33.421875 42.265625 
Q 44.96875 39.65625 49.265625 37.703125 
Q 55.515625 34.8125 58.484375 30.390625 
Q 61.46875 25.984375 61.46875 20.21875 
Q 61.46875 14.5 58.203125 9.4375 
Q 54.9375 4.390625 48.796875 1.578125 
Q 42.671875 -1.21875 35.015625 -1.21875 
Q 25.296875 -1.21875 18.71875 1.609375 
Q 12.15625 4.4375 8.421875 10.125 
Q 4.6875 15.828125 4.5 23 
z
" id="ArialMT-83"/>
      <path d="M 40.578125 0 
L 40.578125 7.625 
Q 34.515625 -1.171875 24.125 -1.171875 
Q 19.53125 -1.171875 15.546875 0.578125 
Q 11.578125 2.34375 9.640625 5 
Q 7.71875 7.671875 6.9375 11.53125 
Q 6.390625 14.109375 6.390625 19.734375 
L 6.390625 51.859375 
L 15.1875 51.859375 
L 15.1875 23.09375 
Q 15.1875 16.21875 15.71875 13.8125 
Q 16.546875 10.359375 19.234375 8.375 
Q 21.921875 6.390625 25.875 6.390625 
Q 29.828125 6.390625 33.296875 8.421875 
Q 36.765625 10.453125 38.203125 13.9375 
Q 39.65625 17.4375 39.65625 24.078125 
L 39.65625 51.859375 
L 48.4375 51.859375 
L 48.4375 0 
z
" id="ArialMT-117"/>
      <path d="M 6.5 0 
L 6.5 51.859375 
L 14.40625 51.859375 
L 14.40625 44 
Q 17.4375 49.515625 20 51.265625 
Q 22.5625 53.03125 25.640625 53.03125 
Q 30.078125 53.03125 34.671875 50.203125 
L 31.640625 42.046875 
Q 28.421875 43.953125 25.203125 43.953125 
Q 22.3125 43.953125 20.015625 42.21875 
Q 17.71875 40.484375 16.75 37.40625 
Q 15.28125 32.71875 15.28125 27.15625 
L 15.28125 0 
z
" id="ArialMT-114"/>
      <path d="M 21 0 
L 1.265625 51.859375 
L 10.546875 51.859375 
L 21.6875 20.796875 
Q 23.484375 15.765625 25 10.359375 
Q 26.171875 14.453125 28.265625 20.21875 
L 39.796875 51.859375 
L 48.828125 51.859375 
L 29.203125 0 
z
" id="ArialMT-118"/>
      <path d="M 6.640625 61.46875 
L 6.640625 71.578125 
L 15.4375 71.578125 
L 15.4375 61.46875 
z
M 6.640625 0 
L 6.640625 51.859375 
L 15.4375 51.859375 
L 15.4375 0 
z
" id="ArialMT-105"/>
      <path d="M 40.234375 0 
L 40.234375 6.546875 
Q 35.296875 -1.171875 25.734375 -1.171875 
Q 19.53125 -1.171875 14.328125 2.25 
Q 9.125 5.671875 6.265625 11.796875 
Q 3.421875 17.921875 3.421875 25.875 
Q 3.421875 33.640625 6 39.96875 
Q 8.59375 46.296875 13.765625 49.65625 
Q 18.953125 53.03125 25.34375 53.03125 
Q 30.03125 53.03125 33.6875 51.046875 
Q 37.359375 49.078125 39.65625 45.90625 
L 39.65625 71.578125 
L 48.390625 71.578125 
L 48.390625 0 
z
M 12.453125 25.875 
Q 12.453125 15.921875 16.640625 10.984375 
Q 20.84375 6.0625 26.5625 6.0625 
Q 32.328125 6.0625 36.34375 10.765625 
Q 40.375 15.484375 40.375 25.140625 
Q 40.375 35.796875 36.265625 40.765625 
Q 32.171875 45.75 26.171875 45.75 
Q 20.3125 45.75 16.375 40.96875 
Q 12.453125 36.1875 12.453125 25.875 
z
" id="ArialMT-100"/>
     </defs>
     <use xlink:href="#ArialMT-83"/>
     <use x="66.699219" xlink:href="#ArialMT-117"/>
     <use x="122.314453" xlink:href="#ArialMT-114"/>
     <use x="155.615234" xlink:href="#ArialMT-118"/>
     <use x="205.615234" xlink:href="#ArialMT-105"/>
     <use x="227.832031" xlink:href="#ArialMT-118"/>
     <use x="277.832031" xlink:href="#ArialMT-101"/>
     <use x="333.447266" xlink:href="#ArialMT-100"/>
    </g>
   </g>
   <g id="patch_5">
    <path d="M 860.736303 106.128359 
L 882.736303 106.128359 
L 882.736303 98.428359 
L 860.736303 98.428359 
z
" style="fill:#4c72b0;fill-opacity:0.25;stroke:#4c72b0;stroke-linejoin:miter;"/>
   </g>
   <g id="text_17">
    <!-- 0 -->
    <g style="fill:#262626;" transform="translate(891.536303 106.128359)scale(0.11 -0.11)">
     <use xlink:href="#ArialMT-48"/>
    </g>
   </g>
   <g id="patch_6">
    <path d="M 860.736303 121.688203 
L 882.736303 121.688203 
L 882.736303 113.988203 
L 860.736303 113.988203 
z
" style="fill:#dd8452;fill-opacity:0.25;stroke:#dd8452;stroke-linejoin:miter;"/>
   </g>
   <g id="text_18">
    <!-- 1 -->
    <g style="fill:#262626;" transform="translate(891.536303 121.688203)scale(0.11 -0.11)">
     <use xlink:href="#ArialMT-49"/>
    </g>
   </g>
  </g>
 </g>
 <defs>
  <clipPath id="pe774f9ccab">
   <rect height="156.58" width="807.8851" x="38.107031" y="7.2"/>
  </clipPath>
 </defs>
</svg>
