<?xml version="1.0" encoding="utf-8" standalone="no"?>
<!DOCTYPE svg PUBLIC "-//W3C//DTD SVG 1.1//EN"
  "http://www.w3.org/Graphics/SVG/1.1/DTD/svg11.dtd">
<!-- Created with matplotlib (https://matplotlib.org/) -->
<svg height="289.615937pt" version="1.1" viewBox="0 0 553.676562 289.615937" width="553.676562pt" xmlns="http://www.w3.org/2000/svg" xmlns:xlink="http://www.w3.org/1999/xlink">
 <metadata>
  <rdf:RDF xmlns:cc="http://creativecommons.org/ns#" xmlns:dc="http://purl.org/dc/elements/1.1/" xmlns:rdf="http://www.w3.org/1999/02/22-rdf-syntax-ns#">
   <cc:Work>
    <dc:type rdf:resource="http://purl.org/dc/dcmitype/StillImage"/>
    <dc:date>2020-11-11T23:32:38.837238</dc:date>
    <dc:format>image/svg+xml</dc:format>
    <dc:creator>
     <cc:Agent>
      <dc:title>Matplotlib v3.3.2, https://matplotlib.org/</dc:title>
     </cc:Agent>
    </dc:creator>
   </cc:Work>
  </rdf:RDF>
 </metadata>
 <defs>
  <style type="text/css">*{stroke-linecap:butt;stroke-linejoin:round;}</style>
 </defs>
 <g id="figure_1">
  <g id="patch_1">
   <path d="M 0 289.615937 
L 553.676562 289.615937 
L 553.676562 0 
L 0 0 
z
" style="fill:none;"/>
  </g>
  <g id="axes_1">
   <g id="patch_2">
    <path d="M 36.325 244.317187 
L 264.597727 244.317187 
L 264.597727 26.877187 
L 36.325 26.877187 
z
" style="fill:#ffffff;"/>
   </g>
   <g id="PathCollection_1">
    <defs>
     <path d="M 0 5.477226 
C 1.452577 5.477226 2.845856 4.900111 3.872983 3.872983 
C 4.900111 2.845856 5.477226 1.452577 5.477226 0 
C 5.477226 -1.452577 4.900111 -2.845856 3.872983 -3.872983 
C 2.845856 -4.900111 1.452577 -5.477226 0 -5.477226 
C -1.452577 -5.477226 -2.845856 -4.900111 -3.872983 -3.872983 
C -4.900111 -2.845856 -5.477226 -1.452577 -5.477226 0 
C -5.477226 1.452577 -4.900111 2.845856 -3.872983 3.872983 
C -2.845856 4.900111 -1.452577 5.477226 0 5.477226 
z
" id="m8b2cdebf84" style="stroke:#ffaaaa;"/>
    </defs>
    <g clip-path="url(#pd1c26380b6)">
     <use style="fill:#ffaaaa;stroke:#ffaaaa;" x="314.068089" xlink:href="#m8b2cdebf84" y="-1"/>
     <use style="fill:#ffaaaa;stroke:#ffaaaa;" x="160.176661" xlink:href="#m8b2cdebf84" y="102.141179"/>
     <use style="fill:#ffaaaa;stroke:#ffaaaa;" x="-1" xlink:href="#m8b2cdebf84" y="210.674572"/>
     <use style="fill:#ffaaaa;stroke:#ffaaaa;" x="-1" xlink:href="#m8b2cdebf84" y="211.301271"/>
     <use style="fill:#ffaaaa;stroke:#ffaaaa;" x="108.059096" xlink:href="#m8b2cdebf84" y="138.613708"/>
     <use style="fill:#ffaaaa;stroke:#ffaaaa;" x="-1" xlink:href="#m8b2cdebf84" y="203.673739"/>
     <use style="fill:#ffaaaa;stroke:#ffaaaa;" x="-1" xlink:href="#m8b2cdebf84" y="254.424574"/>
     <use style="fill:#ffaaaa;stroke:#ffaaaa;" x="33.243952" xlink:href="#m8b2cdebf84" y="179.169155"/>
    </g>
   </g>
   <g id="matplotlib.axis_1">
    <g id="xtick_1">
     <g id="line2d_1">
      <defs>
       <path d="M 0 0 
L 0 3.5 
" id="m6c1125f973" style="stroke:#000000;stroke-width:0.8;"/>
      </defs>
      <g>
       <use style="stroke:#000000;stroke-width:0.8;" x="36.325" xlink:href="#m6c1125f973" y="244.317187"/>
      </g>
     </g>
     <g id="text_1">
      <!-- 0.0 -->
      <g transform="translate(28.373438 258.915625)scale(0.1 -0.1)">
       <defs>
        <path d="M 31.78125 66.40625 
Q 24.171875 66.40625 20.328125 58.90625 
Q 16.5 51.421875 16.5 36.375 
Q 16.5 21.390625 20.328125 13.890625 
Q 24.171875 6.390625 31.78125 6.390625 
Q 39.453125 6.390625 43.28125 13.890625 
Q 47.125 21.390625 47.125 36.375 
Q 47.125 51.421875 43.28125 58.90625 
Q 39.453125 66.40625 31.78125 66.40625 
z
M 31.78125 74.21875 
Q 44.046875 74.21875 50.515625 64.515625 
Q 56.984375 54.828125 56.984375 36.375 
Q 56.984375 17.96875 50.515625 8.265625 
Q 44.046875 -1.421875 31.78125 -1.421875 
Q 19.53125 -1.421875 13.0625 8.265625 
Q 6.59375 17.96875 6.59375 36.375 
Q 6.59375 54.828125 13.0625 64.515625 
Q 19.53125 74.21875 31.78125 74.21875 
z
" id="DejaVuSans-48"/>
        <path d="M 10.6875 12.40625 
L 21 12.40625 
L 21 0 
L 10.6875 0 
z
" id="DejaVuSans-46"/>
       </defs>
       <use xlink:href="#DejaVuSans-48"/>
       <use x="63.623047" xlink:href="#DejaVuSans-46"/>
       <use x="95.410156" xlink:href="#DejaVuSans-48"/>
      </g>
     </g>
    </g>
    <g id="xtick_2">
     <g id="line2d_2">
      <g>
       <use style="stroke:#000000;stroke-width:0.8;" x="93.393182" xlink:href="#m6c1125f973" y="244.317187"/>
      </g>
     </g>
     <g id="text_2">
      <!-- 0.5 -->
      <g transform="translate(85.441619 258.915625)scale(0.1 -0.1)">
       <defs>
        <path d="M 10.796875 72.90625 
L 49.515625 72.90625 
L 49.515625 64.59375 
L 19.828125 64.59375 
L 19.828125 46.734375 
Q 21.96875 47.46875 24.109375 47.828125 
Q 26.265625 48.1875 28.421875 48.1875 
Q 40.625 48.1875 47.75 41.5 
Q 54.890625 34.8125 54.890625 23.390625 
Q 54.890625 11.625 47.5625 5.09375 
Q 40.234375 -1.421875 26.90625 -1.421875 
Q 22.3125 -1.421875 17.546875 -0.640625 
Q 12.796875 0.140625 7.71875 1.703125 
L 7.71875 11.625 
Q 12.109375 9.234375 16.796875 8.0625 
Q 21.484375 6.890625 26.703125 6.890625 
Q 35.15625 6.890625 40.078125 11.328125 
Q 45.015625 15.765625 45.015625 23.390625 
Q 45.015625 31 40.078125 35.4375 
Q 35.15625 39.890625 26.703125 39.890625 
Q 22.75 39.890625 18.8125 39.015625 
Q 14.890625 38.140625 10.796875 36.28125 
z
" id="DejaVuSans-53"/>
       </defs>
       <use xlink:href="#DejaVuSans-48"/>
       <use x="63.623047" xlink:href="#DejaVuSans-46"/>
       <use x="95.410156" xlink:href="#DejaVuSans-53"/>
      </g>
     </g>
    </g>
    <g id="xtick_3">
     <g id="line2d_3">
      <g>
       <use style="stroke:#000000;stroke-width:0.8;" x="150.461364" xlink:href="#m6c1125f973" y="244.317187"/>
      </g>
     </g>
     <g id="text_3">
      <!-- 1.0 -->
      <g transform="translate(142.509801 258.915625)scale(0.1 -0.1)">
       <defs>
        <path d="M 12.40625 8.296875 
L 28.515625 8.296875 
L 28.515625 63.921875 
L 10.984375 60.40625 
L 10.984375 69.390625 
L 28.421875 72.90625 
L 38.28125 72.90625 
L 38.28125 8.296875 
L 54.390625 8.296875 
L 54.390625 0 
L 12.40625 0 
z
" id="DejaVuSans-49"/>
       </defs>
       <use xlink:href="#DejaVuSans-49"/>
       <use x="63.623047" xlink:href="#DejaVuSans-46"/>
       <use x="95.410156" xlink:href="#DejaVuSans-48"/>
      </g>
     </g>
    </g>
    <g id="xtick_4">
     <g id="line2d_4">
      <g>
       <use style="stroke:#000000;stroke-width:0.8;" x="207.529545" xlink:href="#m6c1125f973" y="244.317187"/>
      </g>
     </g>
     <g id="text_4">
      <!-- 1.5 -->
      <g transform="translate(199.577983 258.915625)scale(0.1 -0.1)">
       <use xlink:href="#DejaVuSans-49"/>
       <use x="63.623047" xlink:href="#DejaVuSans-46"/>
       <use x="95.410156" xlink:href="#DejaVuSans-53"/>
      </g>
     </g>
    </g>
    <g id="xtick_5">
     <g id="line2d_5">
      <g>
       <use style="stroke:#000000;stroke-width:0.8;" x="264.597727" xlink:href="#m6c1125f973" y="244.317187"/>
      </g>
     </g>
     <g id="text_5">
      <!-- 2.0 -->
      <g transform="translate(256.646165 258.915625)scale(0.1 -0.1)">
       <defs>
        <path d="M 19.1875 8.296875 
L 53.609375 8.296875 
L 53.609375 0 
L 7.328125 0 
L 7.328125 8.296875 
Q 12.9375 14.109375 22.625 23.890625 
Q 32.328125 33.6875 34.8125 36.53125 
Q 39.546875 41.84375 41.421875 45.53125 
Q 43.3125 49.21875 43.3125 52.78125 
Q 43.3125 58.59375 39.234375 62.25 
Q 35.15625 65.921875 28.609375 65.921875 
Q 23.96875 65.921875 18.8125 64.3125 
Q 13.671875 62.703125 7.8125 59.421875 
L 7.8125 69.390625 
Q 13.765625 71.78125 18.9375 73 
Q 24.125 74.21875 28.421875 74.21875 
Q 39.75 74.21875 46.484375 68.546875 
Q 53.21875 62.890625 53.21875 53.421875 
Q 53.21875 48.921875 51.53125 44.890625 
Q 49.859375 40.875 45.40625 35.40625 
Q 44.1875 33.984375 37.640625 27.21875 
Q 31.109375 20.453125 19.1875 8.296875 
z
" id="DejaVuSans-50"/>
       </defs>
       <use xlink:href="#DejaVuSans-50"/>
       <use x="63.623047" xlink:href="#DejaVuSans-46"/>
       <use x="95.410156" xlink:href="#DejaVuSans-48"/>
      </g>
     </g>
    </g>
    <g id="text_6">
     <!-- $x_1$ -->
     <g transform="translate(140.831364 278.6725)scale(0.18 -0.18)">
      <defs>
       <path d="M 60.015625 54.6875 
L 34.90625 27.875 
L 50.296875 0 
L 39.984375 0 
L 28.421875 21.6875 
L 8.296875 0 
L -2.59375 0 
L 24.3125 28.8125 
L 10.015625 54.6875 
L 20.3125 54.6875 
L 30.8125 34.90625 
L 49.125 54.6875 
z
" id="DejaVuSans-Oblique-120"/>
      </defs>
      <use transform="translate(0 0.3125)" xlink:href="#DejaVuSans-Oblique-120"/>
      <use transform="translate(59.179688 -16.09375)scale(0.7)" xlink:href="#DejaVuSans-49"/>
     </g>
    </g>
   </g>
   <g id="matplotlib.axis_2">
    <g id="ytick_1">
     <g id="line2d_6">
      <defs>
       <path d="M 0 0 
L -3.5 0 
" id="md7913322f9" style="stroke:#000000;stroke-width:0.8;"/>
      </defs>
      <g>
       <use style="stroke:#000000;stroke-width:0.8;" x="36.325" xlink:href="#md7913322f9" y="244.317187"/>
      </g>
     </g>
     <g id="text_7">
      <!-- 3 -->
      <g transform="translate(22.9625 248.116406)scale(0.1 -0.1)">
       <defs>
        <path d="M 40.578125 39.3125 
Q 47.65625 37.796875 51.625 33 
Q 55.609375 28.21875 55.609375 21.1875 
Q 55.609375 10.40625 48.1875 4.484375 
Q 40.765625 -1.421875 27.09375 -1.421875 
Q 22.515625 -1.421875 17.65625 -0.515625 
Q 12.796875 0.390625 7.625 2.203125 
L 7.625 11.71875 
Q 11.71875 9.328125 16.59375 8.109375 
Q 21.484375 6.890625 26.8125 6.890625 
Q 36.078125 6.890625 40.9375 10.546875 
Q 45.796875 14.203125 45.796875 21.1875 
Q 45.796875 27.640625 41.28125 31.265625 
Q 36.765625 34.90625 28.71875 34.90625 
L 20.21875 34.90625 
L 20.21875 43.015625 
L 29.109375 43.015625 
Q 36.375 43.015625 40.234375 45.921875 
Q 44.09375 48.828125 44.09375 54.296875 
Q 44.09375 59.90625 40.109375 62.90625 
Q 36.140625 65.921875 28.71875 65.921875 
Q 24.65625 65.921875 20.015625 65.03125 
Q 15.375 64.15625 9.8125 62.3125 
L 9.8125 71.09375 
Q 15.4375 72.65625 20.34375 73.4375 
Q 25.25 74.21875 29.59375 74.21875 
Q 40.828125 74.21875 47.359375 69.109375 
Q 53.90625 64.015625 53.90625 55.328125 
Q 53.90625 49.265625 50.4375 45.09375 
Q 46.96875 40.921875 40.578125 39.3125 
z
" id="DejaVuSans-51"/>
       </defs>
       <use xlink:href="#DejaVuSans-51"/>
      </g>
     </g>
    </g>
    <g id="ytick_2">
     <g id="line2d_7">
      <g>
       <use style="stroke:#000000;stroke-width:0.8;" x="36.325" xlink:href="#md7913322f9" y="217.137187"/>
      </g>
     </g>
     <g id="text_8">
      <!-- 4 -->
      <g transform="translate(22.9625 220.936406)scale(0.1 -0.1)">
       <defs>
        <path d="M 37.796875 64.3125 
L 12.890625 25.390625 
L 37.796875 25.390625 
z
M 35.203125 72.90625 
L 47.609375 72.90625 
L 47.609375 25.390625 
L 58.015625 25.390625 
L 58.015625 17.1875 
L 47.609375 17.1875 
L 47.609375 0 
L 37.796875 0 
L 37.796875 17.1875 
L 4.890625 17.1875 
L 4.890625 26.703125 
z
" id="DejaVuSans-52"/>
       </defs>
       <use xlink:href="#DejaVuSans-52"/>
      </g>
     </g>
    </g>
    <g id="ytick_3">
     <g id="line2d_8">
      <g>
       <use style="stroke:#000000;stroke-width:0.8;" x="36.325" xlink:href="#md7913322f9" y="189.957187"/>
      </g>
     </g>
     <g id="text_9">
      <!-- 5 -->
      <g transform="translate(22.9625 193.756406)scale(0.1 -0.1)">
       <use xlink:href="#DejaVuSans-53"/>
      </g>
     </g>
    </g>
    <g id="ytick_4">
     <g id="line2d_9">
      <g>
       <use style="stroke:#000000;stroke-width:0.8;" x="36.325" xlink:href="#md7913322f9" y="162.777187"/>
      </g>
     </g>
     <g id="text_10">
      <!-- 6 -->
      <g transform="translate(22.9625 166.576406)scale(0.1 -0.1)">
       <defs>
        <path d="M 33.015625 40.375 
Q 26.375 40.375 22.484375 35.828125 
Q 18.609375 31.296875 18.609375 23.390625 
Q 18.609375 15.53125 22.484375 10.953125 
Q 26.375 6.390625 33.015625 6.390625 
Q 39.65625 6.390625 43.53125 10.953125 
Q 47.40625 15.53125 47.40625 23.390625 
Q 47.40625 31.296875 43.53125 35.828125 
Q 39.65625 40.375 33.015625 40.375 
z
M 52.59375 71.296875 
L 52.59375 62.3125 
Q 48.875 64.0625 45.09375 64.984375 
Q 41.3125 65.921875 37.59375 65.921875 
Q 27.828125 65.921875 22.671875 59.328125 
Q 17.53125 52.734375 16.796875 39.40625 
Q 19.671875 43.65625 24.015625 45.921875 
Q 28.375 48.1875 33.59375 48.1875 
Q 44.578125 48.1875 50.953125 41.515625 
Q 57.328125 34.859375 57.328125 23.390625 
Q 57.328125 12.15625 50.6875 5.359375 
Q 44.046875 -1.421875 33.015625 -1.421875 
Q 20.359375 -1.421875 13.671875 8.265625 
Q 6.984375 17.96875 6.984375 36.375 
Q 6.984375 53.65625 15.1875 63.9375 
Q 23.390625 74.21875 37.203125 74.21875 
Q 40.921875 74.21875 44.703125 73.484375 
Q 48.484375 72.75 52.59375 71.296875 
z
" id="DejaVuSans-54"/>
       </defs>
       <use xlink:href="#DejaVuSans-54"/>
      </g>
     </g>
    </g>
    <g id="ytick_5">
     <g id="line2d_10">
      <g>
       <use style="stroke:#000000;stroke-width:0.8;" x="36.325" xlink:href="#md7913322f9" y="135.597187"/>
      </g>
     </g>
     <g id="text_11">
      <!-- 7 -->
      <g transform="translate(22.9625 139.396406)scale(0.1 -0.1)">
       <defs>
        <path d="M 8.203125 72.90625 
L 55.078125 72.90625 
L 55.078125 68.703125 
L 28.609375 0 
L 18.3125 0 
L 43.21875 64.59375 
L 8.203125 64.59375 
z
" id="DejaVuSans-55"/>
       </defs>
       <use xlink:href="#DejaVuSans-55"/>
      </g>
     </g>
    </g>
    <g id="ytick_6">
     <g id="line2d_11">
      <g>
       <use style="stroke:#000000;stroke-width:0.8;" x="36.325" xlink:href="#md7913322f9" y="108.417187"/>
      </g>
     </g>
     <g id="text_12">
      <!-- 8 -->
      <g transform="translate(22.9625 112.216406)scale(0.1 -0.1)">
       <defs>
        <path d="M 31.78125 34.625 
Q 24.75 34.625 20.71875 30.859375 
Q 16.703125 27.09375 16.703125 20.515625 
Q 16.703125 13.921875 20.71875 10.15625 
Q 24.75 6.390625 31.78125 6.390625 
Q 38.8125 6.390625 42.859375 10.171875 
Q 46.921875 13.96875 46.921875 20.515625 
Q 46.921875 27.09375 42.890625 30.859375 
Q 38.875 34.625 31.78125 34.625 
z
M 21.921875 38.8125 
Q 15.578125 40.375 12.03125 44.71875 
Q 8.5 49.078125 8.5 55.328125 
Q 8.5 64.0625 14.71875 69.140625 
Q 20.953125 74.21875 31.78125 74.21875 
Q 42.671875 74.21875 48.875 69.140625 
Q 55.078125 64.0625 55.078125 55.328125 
Q 55.078125 49.078125 51.53125 44.71875 
Q 48 40.375 41.703125 38.8125 
Q 48.828125 37.15625 52.796875 32.3125 
Q 56.78125 27.484375 56.78125 20.515625 
Q 56.78125 9.90625 50.3125 4.234375 
Q 43.84375 -1.421875 31.78125 -1.421875 
Q 19.734375 -1.421875 13.25 4.234375 
Q 6.78125 9.90625 6.78125 20.515625 
Q 6.78125 27.484375 10.78125 32.3125 
Q 14.796875 37.15625 21.921875 38.8125 
z
M 18.3125 54.390625 
Q 18.3125 48.734375 21.84375 45.5625 
Q 25.390625 42.390625 31.78125 42.390625 
Q 38.140625 42.390625 41.71875 45.5625 
Q 45.3125 48.734375 45.3125 54.390625 
Q 45.3125 60.0625 41.71875 63.234375 
Q 38.140625 66.40625 31.78125 66.40625 
Q 25.390625 66.40625 21.84375 63.234375 
Q 18.3125 60.0625 18.3125 54.390625 
z
" id="DejaVuSans-56"/>
       </defs>
       <use xlink:href="#DejaVuSans-56"/>
      </g>
     </g>
    </g>
    <g id="ytick_7">
     <g id="line2d_12">
      <g>
       <use style="stroke:#000000;stroke-width:0.8;" x="36.325" xlink:href="#md7913322f9" y="81.237187"/>
      </g>
     </g>
     <g id="text_13">
      <!-- 9 -->
      <g transform="translate(22.9625 85.036406)scale(0.1 -0.1)">
       <defs>
        <path d="M 10.984375 1.515625 
L 10.984375 10.5 
Q 14.703125 8.734375 18.5 7.8125 
Q 22.3125 6.890625 25.984375 6.890625 
Q 35.75 6.890625 40.890625 13.453125 
Q 46.046875 20.015625 46.78125 33.40625 
Q 43.953125 29.203125 39.59375 26.953125 
Q 35.25 24.703125 29.984375 24.703125 
Q 19.046875 24.703125 12.671875 31.3125 
Q 6.296875 37.9375 6.296875 49.421875 
Q 6.296875 60.640625 12.9375 67.421875 
Q 19.578125 74.21875 30.609375 74.21875 
Q 43.265625 74.21875 49.921875 64.515625 
Q 56.59375 54.828125 56.59375 36.375 
Q 56.59375 19.140625 48.40625 8.859375 
Q 40.234375 -1.421875 26.421875 -1.421875 
Q 22.703125 -1.421875 18.890625 -0.6875 
Q 15.09375 0.046875 10.984375 1.515625 
z
M 30.609375 32.421875 
Q 37.25 32.421875 41.125 36.953125 
Q 45.015625 41.5 45.015625 49.421875 
Q 45.015625 57.28125 41.125 61.84375 
Q 37.25 66.40625 30.609375 66.40625 
Q 23.96875 66.40625 20.09375 61.84375 
Q 16.21875 57.28125 16.21875 49.421875 
Q 16.21875 41.5 20.09375 36.953125 
Q 23.96875 32.421875 30.609375 32.421875 
z
" id="DejaVuSans-57"/>
       </defs>
       <use xlink:href="#DejaVuSans-57"/>
      </g>
     </g>
    </g>
    <g id="ytick_8">
     <g id="line2d_13">
      <g>
       <use style="stroke:#000000;stroke-width:0.8;" x="36.325" xlink:href="#md7913322f9" y="54.057187"/>
      </g>
     </g>
     <g id="text_14">
      <!-- 10 -->
      <g transform="translate(16.6 57.856406)scale(0.1 -0.1)">
       <use xlink:href="#DejaVuSans-49"/>
       <use x="63.623047" xlink:href="#DejaVuSans-48"/>
      </g>
     </g>
    </g>
    <g id="ytick_9">
     <g id="line2d_14">
      <g>
       <use style="stroke:#000000;stroke-width:0.8;" x="36.325" xlink:href="#md7913322f9" y="26.877187"/>
      </g>
     </g>
     <g id="text_15">
      <!-- 11 -->
      <g transform="translate(16.6 30.676406)scale(0.1 -0.1)">
       <use xlink:href="#DejaVuSans-49"/>
       <use x="63.623047" xlink:href="#DejaVuSans-49"/>
      </g>
     </g>
    </g>
    <g id="text_16">
     <!-- $y$ -->
     <g transform="translate(7.2 131.817187)scale(0.18 -0.18)">
      <defs>
       <path d="M 24.8125 -5.078125 
Q 18.5625 -15.578125 14.625 -18.1875 
Q 10.6875 -20.796875 4.59375 -20.796875 
L -2.484375 -20.796875 
L -0.984375 -13.28125 
L 4.203125 -13.28125 
Q 7.953125 -13.28125 10.59375 -11.234375 
Q 13.234375 -9.1875 16.5 -3.21875 
L 19.28125 2 
L 7.171875 54.6875 
L 16.703125 54.6875 
L 25.78125 12.796875 
L 50.875 54.6875 
L 60.296875 54.6875 
z
" id="DejaVuSans-Oblique-121"/>
      </defs>
      <use transform="translate(0 0.3125)" xlink:href="#DejaVuSans-Oblique-121"/>
     </g>
    </g>
   </g>
   <g id="line2d_15">
    <path clip-path="url(#pd1c26380b6)" d="M 36.325 227.904436 
L 38.630785 226.345956 
L 40.93657 224.787476 
L 43.242355 223.228997 
L 45.54814 221.670517 
L 47.853926 220.112037 
L 50.159711 218.553557 
L 52.465496 216.995078 
L 54.771281 215.436598 
L 57.077066 213.878118 
L 59.382851 212.319639 
L 61.688636 210.761159 
L 63.994421 209.202679 
L 66.300207 207.6442 
L 68.605992 206.08572 
L 70.911777 204.52724 
L 73.217562 202.96876 
L 75.523347 201.410281 
L 77.829132 199.851801 
L 80.134917 198.293321 
L 82.440702 196.734842 
L 84.746488 195.176362 
L 87.052273 193.617882 
L 89.358058 192.059403 
L 91.663843 190.500923 
L 93.969628 188.942443 
L 96.275413 187.383963 
L 98.581198 185.825484 
L 100.886983 184.267004 
L 103.192769 182.708524 
L 105.498554 181.150045 
L 107.804339 179.591565 
L 110.110124 178.033085 
L 112.415909 176.474606 
L 114.721694 174.916126 
L 117.027479 173.357646 
L 119.333264 171.799166 
L 121.63905 170.240687 
L 123.944835 168.682207 
L 126.25062 167.123727 
L 128.556405 165.565248 
L 130.86219 164.006768 
L 133.167975 162.448288 
L 135.47376 160.889809 
L 137.779545 159.331329 
L 140.085331 157.772849 
L 142.391116 156.214369 
L 144.696901 154.65589 
L 147.002686 153.09741 
L 149.308471 151.53893 
L 151.614256 149.980451 
L 153.920041 148.421971 
L 156.225826 146.863491 
L 158.531612 145.305012 
L 160.837397 143.746532 
L 163.143182 142.188052 
L 165.448967 140.629572 
L 167.754752 139.071093 
L 170.060537 137.512613 
L 172.366322 135.954133 
L 174.672107 134.395654 
L 176.977893 132.837174 
L 179.283678 131.278694 
L 181.589463 129.720215 
L 183.895248 128.161735 
L 186.201033 126.603255 
L 188.506818 125.044775 
L 190.812603 123.486296 
L 193.118388 121.927816 
L 195.424174 120.369336 
L 197.729959 118.810857 
L 200.035744 117.252377 
L 202.341529 115.693897 
L 204.647314 114.135418 
L 206.953099 112.576938 
L 209.258884 111.018458 
L 211.564669 109.459978 
L 213.870455 107.901499 
L 216.17624 106.343019 
L 218.482025 104.784539 
L 220.78781 103.22606 
L 223.093595 101.66758 
L 225.39938 100.1091 
L 227.705165 98.550621 
L 230.01095 96.992141 
L 232.316736 95.433661 
L 234.622521 93.875181 
L 236.928306 92.316702 
L 239.234091 90.758222 
L 241.539876 89.199742 
L 243.845661 87.641263 
L 246.151446 86.082783 
L 248.457231 84.524303 
L 250.763017 82.965824 
L 253.068802 81.407344 
L 255.374587 79.848864 
L 257.680372 78.290384 
L 259.986157 76.731905 
L 262.291942 75.173425 
L 264.597727 73.614945 
" style="fill:none;stroke:#000000;stroke-linecap:square;stroke-width:2;"/>
   </g>
   <g id="line2d_16">
    <path clip-path="url(#pd1c26380b6)" d="M 36.325 187.134436 
L 38.630785 185.575956 
L 40.93657 184.017476 
L 43.242355 182.458997 
L 45.54814 180.900517 
L 47.853926 179.342037 
L 50.159711 177.783557 
L 52.465496 176.225078 
L 54.771281 174.666598 
L 57.077066 173.108118 
L 59.382851 171.549639 
L 61.688636 169.991159 
L 63.994421 168.432679 
L 66.300207 166.8742 
L 68.605992 165.31572 
L 70.911777 163.75724 
L 73.217562 162.19876 
L 75.523347 160.640281 
L 77.829132 159.081801 
L 80.134917 157.523321 
L 82.440702 155.964842 
L 84.746488 154.406362 
L 87.052273 152.847882 
L 89.358058 151.289403 
L 91.663843 149.730923 
L 93.969628 148.172443 
L 96.275413 146.613963 
L 98.581198 145.055484 
L 100.886983 143.497004 
L 103.192769 141.938524 
L 105.498554 140.380045 
L 107.804339 138.821565 
L 110.110124 137.263085 
L 112.415909 135.704606 
L 114.721694 134.146126 
L 117.027479 132.587646 
L 119.333264 131.029166 
L 121.63905 129.470687 
L 123.944835 127.912207 
L 126.25062 126.353727 
L 128.556405 124.795248 
L 130.86219 123.236768 
L 133.167975 121.678288 
L 135.47376 120.119809 
L 137.779545 118.561329 
L 140.085331 117.002849 
L 142.391116 115.444369 
L 144.696901 113.88589 
L 147.002686 112.32741 
L 149.308471 110.76893 
L 151.614256 109.210451 
L 153.920041 107.651971 
L 156.225826 106.093491 
L 158.531612 104.535012 
L 160.837397 102.976532 
L 163.143182 101.418052 
L 165.448967 99.859572 
L 167.754752 98.301093 
L 170.060537 96.742613 
L 172.366322 95.184133 
L 174.672107 93.625654 
L 176.977893 92.067174 
L 179.283678 90.508694 
L 181.589463 88.950215 
L 183.895248 87.391735 
L 186.201033 85.833255 
L 188.506818 84.274775 
L 190.812603 82.716296 
L 193.118388 81.157816 
L 195.424174 79.599336 
L 197.729959 78.040857 
L 200.035744 76.482377 
L 202.341529 74.923897 
L 204.647314 73.365418 
L 206.953099 71.806938 
L 209.258884 70.248458 
L 211.564669 68.689978 
L 213.870455 67.131499 
L 216.17624 65.573019 
L 218.482025 64.014539 
L 220.78781 62.45606 
L 223.093595 60.89758 
L 225.39938 59.3391 
L 227.705165 57.780621 
L 230.01095 56.222141 
L 232.316736 54.663661 
L 234.622521 53.105181 
L 236.928306 51.546702 
L 239.234091 49.988222 
L 241.539876 48.429742 
L 243.845661 46.871263 
L 246.151446 45.312783 
L 248.457231 43.754303 
L 250.763017 42.195824 
L 253.068802 40.637344 
L 255.374587 39.078864 
L 257.680372 37.520384 
L 259.986157 35.961905 
L 262.291942 34.403425 
L 264.597727 32.844945 
" style="fill:none;stroke:#000000;stroke-dasharray:5.55,2.4;stroke-dashoffset:0;stroke-width:1.5;"/>
   </g>
   <g id="line2d_17">
    <path clip-path="url(#pd1c26380b6)" d="M 36.325 268.674436 
L 38.630785 267.115956 
L 40.93657 265.557476 
L 43.242355 263.998997 
L 45.54814 262.440517 
L 47.853926 260.882037 
L 50.159711 259.323557 
L 52.465496 257.765078 
L 54.771281 256.206598 
L 57.077066 254.648118 
L 59.382851 253.089639 
L 61.688636 251.531159 
L 63.994421 249.972679 
L 66.300207 248.4142 
L 68.605992 246.85572 
L 70.911777 245.29724 
L 73.217562 243.73876 
L 75.523347 242.180281 
L 77.829132 240.621801 
L 80.134917 239.063321 
L 82.440702 237.504842 
L 84.746488 235.946362 
L 87.052273 234.387882 
L 89.358058 232.829403 
L 91.663843 231.270923 
L 93.969628 229.712443 
L 96.275413 228.153963 
L 98.581198 226.595484 
L 100.886983 225.037004 
L 103.192769 223.478524 
L 105.498554 221.920045 
L 107.804339 220.361565 
L 110.110124 218.803085 
L 112.415909 217.244606 
L 114.721694 215.686126 
L 117.027479 214.127646 
L 119.333264 212.569166 
L 121.63905 211.010687 
L 123.944835 209.452207 
L 126.25062 207.893727 
L 128.556405 206.335248 
L 130.86219 204.776768 
L 133.167975 203.218288 
L 135.47376 201.659809 
L 137.779545 200.101329 
L 140.085331 198.542849 
L 142.391116 196.984369 
L 144.696901 195.42589 
L 147.002686 193.86741 
L 149.308471 192.30893 
L 151.614256 190.750451 
L 153.920041 189.191971 
L 156.225826 187.633491 
L 158.531612 186.075012 
L 160.837397 184.516532 
L 163.143182 182.958052 
L 165.448967 181.399572 
L 167.754752 179.841093 
L 170.060537 178.282613 
L 172.366322 176.724133 
L 174.672107 175.165654 
L 176.977893 173.607174 
L 179.283678 172.048694 
L 181.589463 170.490215 
L 183.895248 168.931735 
L 186.201033 167.373255 
L 188.506818 165.814775 
L 190.812603 164.256296 
L 193.118388 162.697816 
L 195.424174 161.139336 
L 197.729959 159.580857 
L 200.035744 158.022377 
L 202.341529 156.463897 
L 204.647314 154.905418 
L 206.953099 153.346938 
L 209.258884 151.788458 
L 211.564669 150.229978 
L 213.870455 148.671499 
L 216.17624 147.113019 
L 218.482025 145.554539 
L 220.78781 143.99606 
L 223.093595 142.43758 
L 225.39938 140.8791 
L 227.705165 139.320621 
L 230.01095 137.762141 
L 232.316736 136.203661 
L 234.622521 134.645181 
L 236.928306 133.086702 
L 239.234091 131.528222 
L 241.539876 129.969742 
L 243.845661 128.411263 
L 246.151446 126.852783 
L 248.457231 125.294303 
L 250.763017 123.735824 
L 253.068802 122.177344 
L 255.374587 120.618864 
L 257.680372 119.060384 
L 259.986157 117.501905 
L 262.291942 115.943425 
L 264.597727 114.384945 
" style="fill:none;stroke:#000000;stroke-dasharray:5.55,2.4;stroke-dashoffset:0;stroke-width:1.5;"/>
   </g>
   <g id="line2d_18">
    <defs>
     <path d="M 0 3 
C 0.795609 3 1.55874 2.683901 2.12132 2.12132 
C 2.683901 1.55874 3 0.795609 3 0 
C 3 -0.795609 2.683901 -1.55874 2.12132 -2.12132 
C 1.55874 -2.683901 0.795609 -3 0 -3 
C -0.795609 -3 -1.55874 -2.683901 -2.12132 -2.12132 
C -2.683901 -1.55874 -3 -0.795609 -3 0 
C -3 0.795609 -2.683901 1.55874 -2.12132 2.12132 
C -1.55874 2.683901 -0.795609 3 0 3 
z
" id="m972f727c04" style="stroke:#0000ff;"/>
    </defs>
    <g clip-path="url(#pd1c26380b6)">
     <use style="fill:#0000ff;stroke:#0000ff;" x="149.711294" xlink:href="#m972f727c04" y="127.324441"/>
     <use style="fill:#0000ff;stroke:#0000ff;" x="4.763031" xlink:href="#m972f727c04" y="250.151866"/>
     <use style="fill:#0000ff;stroke:#0000ff;" x="184.174629" xlink:href="#m972f727c04" y="129.910881"/>
     <use style="fill:#0000ff;stroke:#0000ff;" x="331.316777" xlink:href="#m972f727c04" y="-1"/>
     <use style="fill:#0000ff;stroke:#0000ff;" x="315.675976" xlink:href="#m972f727c04" y="-1"/>
     <use style="fill:#0000ff;stroke:#0000ff;" x="-1" xlink:href="#m972f727c04" y="216.238116"/>
     <use style="fill:#0000ff;stroke:#0000ff;" x="-1" xlink:href="#m972f727c04" y="220.364557"/>
     <use style="fill:#0000ff;stroke:#0000ff;" x="369.079381" xlink:href="#m972f727c04" y="-1"/>
     <use style="fill:#0000ff;stroke:#0000ff;" x="370.757327" xlink:href="#m972f727c04" y="-1"/>
     <use style="fill:#0000ff;stroke:#0000ff;" x="211.509419" xlink:href="#m972f727c04" y="100.388324"/>
     <use style="fill:#0000ff;stroke:#0000ff;" x="-1" xlink:href="#m972f727c04" y="239.104852"/>
     <use style="fill:#0000ff;stroke:#0000ff;" x="-1" xlink:href="#m972f727c04" y="229.504552"/>
     <use style="fill:#0000ff;stroke:#0000ff;" x="160.176661" xlink:href="#m972f727c04" y="102.141179"/>
     <use style="fill:#0000ff;stroke:#0000ff;" x="-1" xlink:href="#m972f727c04" y="245.038798"/>
     <use style="fill:#0000ff;stroke:#0000ff;" x="-1" xlink:href="#m972f727c04" y="259.535163"/>
     <use style="fill:#0000ff;stroke:#0000ff;" x="91.558388" xlink:href="#m972f727c04" y="207.748165"/>
     <use style="fill:#0000ff;stroke:#0000ff;" x="-1" xlink:href="#m972f727c04" y="274.332228"/>
     <use style="fill:#0000ff;stroke:#0000ff;" x="-1" xlink:href="#m972f727c04" y="227.05065"/>
     <use style="fill:#0000ff;stroke:#0000ff;" x="108.059096" xlink:href="#m972f727c04" y="138.613708"/>
     <use style="fill:#0000ff;stroke:#0000ff;" x="-1" xlink:href="#m972f727c04" y="223.346002"/>
     <use style="fill:#0000ff;stroke:#0000ff;" x="-1" xlink:href="#m972f727c04" y="249.466132"/>
     <use style="fill:#0000ff;stroke:#0000ff;" x="330.282207" xlink:href="#m972f727c04" y="-1"/>
     <use style="fill:#0000ff;stroke:#0000ff;" x="322.278682" xlink:href="#m972f727c04" y="-1"/>
     <use style="fill:#0000ff;stroke:#0000ff;" x="-1" xlink:href="#m972f727c04" y="203.175962"/>
     <use style="fill:#0000ff;stroke:#0000ff;" x="-1" xlink:href="#m972f727c04" y="211.079928"/>
     <use style="fill:#0000ff;stroke:#0000ff;" x="51.739847" xlink:href="#m972f727c04" y="207.09844"/>
     <use style="fill:#0000ff;stroke:#0000ff;" x="-1" xlink:href="#m972f727c04" y="238.04132"/>
     <use style="fill:#0000ff;stroke:#0000ff;" x="-1" xlink:href="#m972f727c04" y="260.638153"/>
     <use style="fill:#0000ff;stroke:#0000ff;" x="61.645602" xlink:href="#m972f727c04" y="176.708622"/>
     <use style="fill:#0000ff;stroke:#0000ff;" x="-1" xlink:href="#m972f727c04" y="225.806854"/>
     <use style="fill:#0000ff;stroke:#0000ff;" x="-1" xlink:href="#m972f727c04" y="248.223525"/>
     <use style="fill:#0000ff;stroke:#0000ff;" x="122.086611" xlink:href="#m972f727c04" y="163.995374"/>
     <use style="fill:#0000ff;stroke:#0000ff;" x="-1" xlink:href="#m972f727c04" y="246.063729"/>
     <use style="fill:#0000ff;stroke:#0000ff;" x="-1" xlink:href="#m972f727c04" y="246.973805"/>
     <use style="fill:#0000ff;stroke:#0000ff;" x="333.018976" xlink:href="#m972f727c04" y="-1"/>
     <use style="fill:#0000ff;stroke:#0000ff;" x="313.495485" xlink:href="#m972f727c04" y="-1"/>
     <use style="fill:#0000ff;stroke:#0000ff;" x="33.243952" xlink:href="#m972f727c04" y="179.169155"/>
     <use style="fill:#0000ff;stroke:#0000ff;" x="-1" xlink:href="#m972f727c04" y="211.427791"/>
     <use style="fill:#0000ff;stroke:#0000ff;" x="-1" xlink:href="#m972f727c04" y="261.640528"/>
     <use style="fill:#0000ff;stroke:#0000ff;" x="224.08957" xlink:href="#m972f727c04" y="104.971419"/>
     <use style="fill:#0000ff;stroke:#0000ff;" x="-1" xlink:href="#m972f727c04" y="261.754203"/>
     <use style="fill:#0000ff;stroke:#0000ff;" x="-1" xlink:href="#m972f727c04" y="228.954158"/>
     <use style="fill:#0000ff;stroke:#0000ff;" x="84.002862" xlink:href="#m972f727c04" y="158.195083"/>
     <use style="fill:#0000ff;stroke:#0000ff;" x="-1" xlink:href="#m972f727c04" y="221.659917"/>
     <use style="fill:#0000ff;stroke:#0000ff;" x="-1" xlink:href="#m972f727c04" y="236.550922"/>
     <use style="fill:#0000ff;stroke:#0000ff;" x="81.263051" xlink:href="#m972f727c04" y="171.082448"/>
     <use style="fill:#0000ff;stroke:#0000ff;" x="204.89678" xlink:href="#m972f727c04" y="94.06949"/>
     <use style="fill:#0000ff;stroke:#0000ff;" x="75.443705" xlink:href="#m972f727c04" y="162.862677"/>
     <use style="fill:#0000ff;stroke:#0000ff;" x="9.925651" xlink:href="#m972f727c04" y="255.078912"/>
     <use style="fill:#0000ff;stroke:#0000ff;" x="-1" xlink:href="#m972f727c04" y="260.258087"/>
     <use style="fill:#0000ff;stroke:#0000ff;" x="-1" xlink:href="#m972f727c04" y="235.940519"/>
     <use style="fill:#0000ff;stroke:#0000ff;" x="277.637174" xlink:href="#m972f727c04" y="37.646213"/>
     <use style="fill:#0000ff;stroke:#0000ff;" x="114.763684" xlink:href="#m972f727c04" y="160.960933"/>
     <use style="fill:#0000ff;stroke:#0000ff;" x="-1" xlink:href="#m972f727c04" y="245.231854"/>
    </g>
   </g>
   <g id="patch_3">
    <path d="M 36.325 244.317187 
L 36.325 26.877187 
" style="fill:none;stroke:#000000;stroke-linecap:square;stroke-linejoin:miter;stroke-width:0.8;"/>
   </g>
   <g id="patch_4">
    <path d="M 264.597727 244.317187 
L 264.597727 26.877187 
" style="fill:none;stroke:#000000;stroke-linecap:square;stroke-linejoin:miter;stroke-width:0.8;"/>
   </g>
   <g id="patch_5">
    <path d="M 36.325 244.317187 
L 264.597727 244.317187 
" style="fill:none;stroke:#000000;stroke-linecap:square;stroke-linejoin:miter;stroke-width:0.8;"/>
   </g>
   <g id="patch_6">
    <path d="M 36.325 26.877187 
L 264.597727 26.877187 
" style="fill:none;stroke:#000000;stroke-linecap:square;stroke-linejoin:miter;stroke-width:0.8;"/>
   </g>
   <g id="patch_7">
    <path d="M 150.461364 187.85694 
Q 150.461364 171.147911 150.461364 154.438881 
" style="fill:none;stroke:#000000;stroke-linecap:round;stroke-width:1.5;"/>
    <path d="M 152.461364 183.85694 
L 150.461364 187.85694 
L 148.461364 183.85694 
" style="fill:none;stroke:#000000;stroke-linecap:round;stroke-width:1.5;"/>
    <path d="M 148.461364 158.438881 
L 150.461364 154.438881 
L 152.461364 158.438881 
" style="fill:none;stroke:#000000;stroke-linecap:round;stroke-width:1.5;"/>
   </g>
   <g id="text_17">
    <!-- $\epsilon$ -->
    <g transform="translate(140.189091 173.649187)scale(0.2 -0.2)">
     <defs>
      <path d="M 19.734375 29.5 
Q 14.453125 30.671875 12.15625 33.84375 
Q 10.453125 36.078125 10.453125 39.109375 
Q 10.453125 47.40625 18.359375 52.25 
Q 24.609375 56.0625 34.1875 56.0625 
Q 37.890625 56.0625 41.9375 55.46875 
Q 46 54.890625 50.53125 53.71875 
L 48.96875 45.5625 
Q 44.484375 46.96875 40.71875 47.609375 
Q 36.859375 48.25 33.40625 48.25 
Q 27.59375 48.25 23.78125 46 
Q 19.1875 43.3125 19.1875 39.40625 
Q 19.1875 36.8125 21.578125 35.015625 
Q 24.421875 32.859375 30.078125 32.859375 
L 37.640625 32.859375 
L 36.234375 25.4375 
L 29 25.4375 
Q 22.265625 25.4375 18.3125 22.953125 
Q 12.9375 19.578125 12.9375 14.3125 
Q 12.9375 10.984375 15.828125 8.796875 
Q 19.4375 6.0625 26.8125 6.0625 
Q 31.34375 6.0625 35.6875 6.9375 
Q 40.046875 7.859375 43.84375 9.671875 
L 42.1875 1.3125 
Q 37.546875 -0.046875 33.296875 -0.734375 
Q 29.046875 -1.421875 25.140625 -1.421875 
Q 13.53125 -1.421875 8.0625 3.03125 
Q 3.90625 6.453125 3.90625 12.203125 
Q 3.90625 19.96875 9.375 24.75 
Q 13.421875 28.328125 19.734375 29.5 
z
" id="DejaVuSans-Oblique-949"/>
     </defs>
     <use transform="translate(0 0.9375)" xlink:href="#DejaVuSans-Oblique-949"/>
    </g>
   </g>
   <g id="text_18">
    <!-- $\epsilon=1.5$ -->
    <g transform="translate(120.221364 20.877187)scale(0.18 -0.18)">
     <defs>
      <path d="M 10.59375 45.40625 
L 73.1875 45.40625 
L 73.1875 37.203125 
L 10.59375 37.203125 
z
M 10.59375 25.484375 
L 73.1875 25.484375 
L 73.1875 17.1875 
L 10.59375 17.1875 
z
" id="DejaVuSans-61"/>
     </defs>
     <use transform="translate(0 0.09375)" xlink:href="#DejaVuSans-Oblique-949"/>
     <use transform="translate(73.535156 0.09375)" xlink:href="#DejaVuSans-61"/>
     <use transform="translate(176.806641 0.09375)" xlink:href="#DejaVuSans-49"/>
     <use transform="translate(240.429688 0.09375)" xlink:href="#DejaVuSans-46"/>
     <use transform="translate(272.216797 0.09375)" xlink:href="#DejaVuSans-53"/>
    </g>
   </g>
   <g id="legend_1">
    <g id="patch_8">
     <path d="M 48.925 70.617188 
L 117.325 70.617188 
Q 120.925 70.617188 120.925 67.017188 
L 120.925 39.477187 
Q 120.925 35.877187 117.325 35.877187 
L 48.925 35.877187 
Q 45.325 35.877187 45.325 39.477187 
L 45.325 67.017188 
Q 45.325 70.617188 48.925 70.617188 
z
" style="fill:#ffffff;opacity:0.8;stroke:#cccccc;stroke-linejoin:miter;"/>
    </g>
    <g id="line2d_19">
     <path d="M 52.525 53.337188 
L 88.525 53.337188 
" style="fill:none;stroke:#000000;stroke-linecap:square;stroke-width:2;"/>
    </g>
    <g id="line2d_20"/>
    <g id="text_19">
     <!-- $\hat{y}$ -->
     <g transform="translate(102.925 59.637188)scale(0.18 -0.18)">
      <defs>
       <path d="M -28.609375 79.984375 
L -21.390625 79.984375 
L -9.421875 61.625 
L -16.21875 61.625 
L -25 73.578125 
L -33.796875 61.625 
L -40.578125 61.625 
z
M -25 56 
z
" id="DejaVuSans-770"/>
      </defs>
      <use transform="translate(62.373047 12.015625)" xlink:href="#DejaVuSans-770"/>
      <use transform="translate(0 0.828125)" xlink:href="#DejaVuSans-Oblique-121"/>
     </g>
    </g>
   </g>
  </g>
  <g id="axes_2">
   <g id="patch_9">
    <path d="M 310.252273 244.317187 
L 538.525 244.317187 
L 538.525 26.877187 
L 310.252273 26.877187 
z
" style="fill:#ffffff;"/>
   </g>
   <g id="PathCollection_2">
    <g clip-path="url(#pc1697a6470)">
     <use style="fill:#ffaaaa;stroke:#ffaaaa;" x="458.101902" xlink:href="#m8b2cdebf84" y="129.910881"/>
     <use style="fill:#ffaaaa;stroke:#ffaaaa;" x="605.244049" xlink:href="#m8b2cdebf84" y="-1"/>
     <use style="fill:#ffaaaa;stroke:#ffaaaa;" x="589.603249" xlink:href="#m8b2cdebf84" y="-1"/>
     <use style="fill:#ffaaaa;stroke:#ffaaaa;" x="256.801443" xlink:href="#m8b2cdebf84" y="227.300353"/>
     <use style="fill:#ffaaaa;stroke:#ffaaaa;" x="256.805191" xlink:href="#m8b2cdebf84" y="230.008049"/>
     <use style="fill:#ffaaaa;stroke:#ffaaaa;" x="643.006654" xlink:href="#m8b2cdebf84" y="-1"/>
     <use style="fill:#ffaaaa;stroke:#ffaaaa;" x="637.953075" xlink:href="#m8b2cdebf84" y="-1"/>
     <use style="fill:#ffaaaa;stroke:#ffaaaa;" x="434.103934" xlink:href="#m8b2cdebf84" y="102.141179"/>
     <use style="fill:#ffaaaa;stroke:#ffaaaa;" x="365.48566" xlink:href="#m8b2cdebf84" y="207.748165"/>
     <use style="fill:#ffaaaa;stroke:#ffaaaa;" x="-1" xlink:href="#m8b2cdebf84" y="471.388286"/>
     <use style="fill:#ffaaaa;stroke:#ffaaaa;" x="-1" xlink:href="#m8b2cdebf84" y="412.820202"/>
     <use style="fill:#ffaaaa;stroke:#ffaaaa;" x="181.897365" xlink:href="#m8b2cdebf84" y="271.972434"/>
     <use style="fill:#ffaaaa;stroke:#ffaaaa;" x="381.986368" xlink:href="#m8b2cdebf84" y="138.613708"/>
     <use style="fill:#ffaaaa;stroke:#ffaaaa;" x="-1" xlink:href="#m8b2cdebf84" y="455.766481"/>
     <use style="fill:#ffaaaa;stroke:#ffaaaa;" x="-1" xlink:href="#m8b2cdebf84" y="454.5927"/>
     <use style="fill:#ffaaaa;stroke:#ffaaaa;" x="258.713701" xlink:href="#m8b2cdebf84" y="212.152953"/>
     <use style="fill:#ffaaaa;stroke:#ffaaaa;" x="-1" xlink:href="#m8b2cdebf84" y="397.008411"/>
     <use style="fill:#ffaaaa;stroke:#ffaaaa;" x="-1" xlink:href="#m8b2cdebf84" y="404.882574"/>
     <use style="fill:#ffaaaa;stroke:#ffaaaa;" x="185.984544" xlink:href="#m8b2cdebf84" y="377.119794"/>
     <use style="fill:#ffaaaa;stroke:#ffaaaa;" x="335.572875" xlink:href="#m8b2cdebf84" y="176.708622"/>
     <use style="fill:#ffaaaa;stroke:#ffaaaa;" x="243.666545" xlink:href="#m8b2cdebf84" y="318.728727"/>
     <use style="fill:#ffaaaa;stroke:#ffaaaa;" x="622.212469" xlink:href="#m8b2cdebf84" y="-1"/>
     <use style="fill:#ffaaaa;stroke:#ffaaaa;" x="587.422757" xlink:href="#m8b2cdebf84" y="-1"/>
     <use style="fill:#ffaaaa;stroke:#ffaaaa;" x="307.171224" xlink:href="#m8b2cdebf84" y="179.169155"/>
     <use style="fill:#ffaaaa;stroke:#ffaaaa;" x="498.016843" xlink:href="#m8b2cdebf84" y="104.971419"/>
     <use style="fill:#ffaaaa;stroke:#ffaaaa;" x="357.930135" xlink:href="#m8b2cdebf84" y="158.195083"/>
     <use style="fill:#ffaaaa;stroke:#ffaaaa;" x="7.063621" xlink:href="#m8b2cdebf84" y="448.136651"/>
     <use style="fill:#ffaaaa;stroke:#ffaaaa;" x="355.190324" xlink:href="#m8b2cdebf84" y="171.082448"/>
     <use style="fill:#ffaaaa;stroke:#ffaaaa;" x="349.370978" xlink:href="#m8b2cdebf84" y="162.862677"/>
     <use style="fill:#ffaaaa;stroke:#ffaaaa;" x="283.852924" xlink:href="#m8b2cdebf84" y="255.078912"/>
     <use style="fill:#ffaaaa;stroke:#ffaaaa;" x="145.931472" xlink:href="#m8b2cdebf84" y="374.307717"/>
    </g>
   </g>
   <g id="matplotlib.axis_3">
    <g id="xtick_6">
     <g id="line2d_21">
      <g>
       <use style="stroke:#000000;stroke-width:0.8;" x="310.252273" xlink:href="#m6c1125f973" y="244.317187"/>
      </g>
     </g>
     <g id="text_20">
      <!-- 0.0 -->
      <g transform="translate(302.30071 258.915625)scale(0.1 -0.1)">
       <use xlink:href="#DejaVuSans-48"/>
       <use x="63.623047" xlink:href="#DejaVuSans-46"/>
       <use x="95.410156" xlink:href="#DejaVuSans-48"/>
      </g>
     </g>
    </g>
    <g id="xtick_7">
     <g id="line2d_22">
      <g>
       <use style="stroke:#000000;stroke-width:0.8;" x="367.320455" xlink:href="#m6c1125f973" y="244.317187"/>
      </g>
     </g>
     <g id="text_21">
      <!-- 0.5 -->
      <g transform="translate(359.368892 258.915625)scale(0.1 -0.1)">
       <use xlink:href="#DejaVuSans-48"/>
       <use x="63.623047" xlink:href="#DejaVuSans-46"/>
       <use x="95.410156" xlink:href="#DejaVuSans-53"/>
      </g>
     </g>
    </g>
    <g id="xtick_8">
     <g id="line2d_23">
      <g>
       <use style="stroke:#000000;stroke-width:0.8;" x="424.388636" xlink:href="#m6c1125f973" y="244.317187"/>
      </g>
     </g>
     <g id="text_22">
      <!-- 1.0 -->
      <g transform="translate(416.437074 258.915625)scale(0.1 -0.1)">
       <use xlink:href="#DejaVuSans-49"/>
       <use x="63.623047" xlink:href="#DejaVuSans-46"/>
       <use x="95.410156" xlink:href="#DejaVuSans-48"/>
      </g>
     </g>
    </g>
    <g id="xtick_9">
     <g id="line2d_24">
      <g>
       <use style="stroke:#000000;stroke-width:0.8;" x="481.456818" xlink:href="#m6c1125f973" y="244.317187"/>
      </g>
     </g>
     <g id="text_23">
      <!-- 1.5 -->
      <g transform="translate(473.505256 258.915625)scale(0.1 -0.1)">
       <use xlink:href="#DejaVuSans-49"/>
       <use x="63.623047" xlink:href="#DejaVuSans-46"/>
       <use x="95.410156" xlink:href="#DejaVuSans-53"/>
      </g>
     </g>
    </g>
    <g id="xtick_10">
     <g id="line2d_25">
      <g>
       <use style="stroke:#000000;stroke-width:0.8;" x="538.525" xlink:href="#m6c1125f973" y="244.317187"/>
      </g>
     </g>
     <g id="text_24">
      <!-- 2.0 -->
      <g transform="translate(530.573437 258.915625)scale(0.1 -0.1)">
       <use xlink:href="#DejaVuSans-50"/>
       <use x="63.623047" xlink:href="#DejaVuSans-46"/>
       <use x="95.410156" xlink:href="#DejaVuSans-48"/>
      </g>
     </g>
    </g>
    <g id="text_25">
     <!-- $x_1$ -->
     <g transform="translate(414.758636 278.6725)scale(0.18 -0.18)">
      <use transform="translate(0 0.3125)" xlink:href="#DejaVuSans-Oblique-120"/>
      <use transform="translate(59.179688 -16.09375)scale(0.7)" xlink:href="#DejaVuSans-49"/>
     </g>
    </g>
   </g>
   <g id="matplotlib.axis_4">
    <g id="ytick_10">
     <g id="line2d_26">
      <g>
       <use style="stroke:#000000;stroke-width:0.8;" x="310.252273" xlink:href="#md7913322f9" y="244.317187"/>
      </g>
     </g>
     <g id="text_26">
      <!-- 3 -->
      <g transform="translate(296.889773 248.116406)scale(0.1 -0.1)">
       <use xlink:href="#DejaVuSans-51"/>
      </g>
     </g>
    </g>
    <g id="ytick_11">
     <g id="line2d_27">
      <g>
       <use style="stroke:#000000;stroke-width:0.8;" x="310.252273" xlink:href="#md7913322f9" y="217.137187"/>
      </g>
     </g>
     <g id="text_27">
      <!-- 4 -->
      <g transform="translate(296.889773 220.936406)scale(0.1 -0.1)">
       <use xlink:href="#DejaVuSans-52"/>
      </g>
     </g>
    </g>
    <g id="ytick_12">
     <g id="line2d_28">
      <g>
       <use style="stroke:#000000;stroke-width:0.8;" x="310.252273" xlink:href="#md7913322f9" y="189.957187"/>
      </g>
     </g>
     <g id="text_28">
      <!-- 5 -->
      <g transform="translate(296.889773 193.756406)scale(0.1 -0.1)">
       <use xlink:href="#DejaVuSans-53"/>
      </g>
     </g>
    </g>
    <g id="ytick_13">
     <g id="line2d_29">
      <g>
       <use style="stroke:#000000;stroke-width:0.8;" x="310.252273" xlink:href="#md7913322f9" y="162.777187"/>
      </g>
     </g>
     <g id="text_29">
      <!-- 6 -->
      <g transform="translate(296.889773 166.576406)scale(0.1 -0.1)">
       <use xlink:href="#DejaVuSans-54"/>
      </g>
     </g>
    </g>
    <g id="ytick_14">
     <g id="line2d_30">
      <g>
       <use style="stroke:#000000;stroke-width:0.8;" x="310.252273" xlink:href="#md7913322f9" y="135.597187"/>
      </g>
     </g>
     <g id="text_30">
      <!-- 7 -->
      <g transform="translate(296.889773 139.396406)scale(0.1 -0.1)">
       <use xlink:href="#DejaVuSans-55"/>
      </g>
     </g>
    </g>
    <g id="ytick_15">
     <g id="line2d_31">
      <g>
       <use style="stroke:#000000;stroke-width:0.8;" x="310.252273" xlink:href="#md7913322f9" y="108.417187"/>
      </g>
     </g>
     <g id="text_31">
      <!-- 8 -->
      <g transform="translate(296.889773 112.216406)scale(0.1 -0.1)">
       <use xlink:href="#DejaVuSans-56"/>
      </g>
     </g>
    </g>
    <g id="ytick_16">
     <g id="line2d_32">
      <g>
       <use style="stroke:#000000;stroke-width:0.8;" x="310.252273" xlink:href="#md7913322f9" y="81.237187"/>
      </g>
     </g>
     <g id="text_32">
      <!-- 9 -->
      <g transform="translate(296.889773 85.036406)scale(0.1 -0.1)">
       <use xlink:href="#DejaVuSans-57"/>
      </g>
     </g>
    </g>
    <g id="ytick_17">
     <g id="line2d_33">
      <g>
       <use style="stroke:#000000;stroke-width:0.8;" x="310.252273" xlink:href="#md7913322f9" y="54.057187"/>
      </g>
     </g>
     <g id="text_33">
      <!-- 10 -->
      <g transform="translate(290.527273 57.856406)scale(0.1 -0.1)">
       <use xlink:href="#DejaVuSans-49"/>
       <use x="63.623047" xlink:href="#DejaVuSans-48"/>
      </g>
     </g>
    </g>
    <g id="ytick_18">
     <g id="line2d_34">
      <g>
       <use style="stroke:#000000;stroke-width:0.8;" x="310.252273" xlink:href="#md7913322f9" y="26.877187"/>
      </g>
     </g>
     <g id="text_34">
      <!-- 11 -->
      <g transform="translate(290.527273 30.676406)scale(0.1 -0.1)">
       <use xlink:href="#DejaVuSans-49"/>
       <use x="63.623047" xlink:href="#DejaVuSans-49"/>
      </g>
     </g>
    </g>
    <g id="text_35">
     <!-- $y$ -->
     <g transform="translate(281.127273 131.817187)scale(0.18 -0.18)">
      <use transform="translate(0 0.3125)" xlink:href="#DejaVuSans-Oblique-121"/>
     </g>
    </g>
   </g>
   <g id="line2d_35">
    <path clip-path="url(#pc1697a6470)" d="M 310.252273 219.252325 
L 312.558058 217.614987 
L 314.863843 215.977648 
L 317.169628 214.34031 
L 319.475413 212.702971 
L 321.781198 211.065633 
L 324.086983 209.428294 
L 326.392769 207.790956 
L 328.698554 206.153617 
L 331.004339 204.516279 
L 333.310124 202.87894 
L 335.615909 201.241602 
L 337.921694 199.604263 
L 340.227479 197.966925 
L 342.533264 196.329586 
L 344.83905 194.692248 
L 347.144835 193.054909 
L 349.45062 191.417571 
L 351.756405 189.780232 
L 354.06219 188.142894 
L 356.367975 186.505555 
L 358.67376 184.868217 
L 360.979545 183.230878 
L 363.285331 181.59354 
L 365.591116 179.956201 
L 367.896901 178.318863 
L 370.202686 176.681524 
L 372.508471 175.044186 
L 374.814256 173.406847 
L 377.120041 171.769509 
L 379.425826 170.13217 
L 381.731612 168.494832 
L 384.037397 166.857493 
L 386.343182 165.220155 
L 388.648967 163.582816 
L 390.954752 161.945478 
L 393.260537 160.308139 
L 395.566322 158.670801 
L 397.872107 157.033462 
L 400.177893 155.396124 
L 402.483678 153.758785 
L 404.789463 152.121447 
L 407.095248 150.484108 
L 409.401033 148.84677 
L 411.706818 147.209431 
L 414.012603 145.572093 
L 416.318388 143.934754 
L 418.624174 142.297416 
L 420.929959 140.660077 
L 423.235744 139.022739 
L 425.541529 137.3854 
L 427.847314 135.748062 
L 430.153099 134.110723 
L 432.458884 132.473385 
L 434.764669 130.836046 
L 437.070455 129.198708 
L 439.37624 127.561369 
L 441.682025 125.924031 
L 443.98781 124.286692 
L 446.293595 122.649354 
L 448.59938 121.012015 
L 450.905165 119.374677 
L 453.21095 117.737338 
L 455.516736 116.1 
L 457.822521 114.462661 
L 460.128306 112.825323 
L 462.434091 111.187984 
L 464.739876 109.550646 
L 467.045661 107.913307 
L 469.351446 106.275969 
L 471.657231 104.63863 
L 473.963017 103.001292 
L 476.268802 101.363953 
L 478.574587 99.726615 
L 480.880372 98.089276 
L 483.186157 96.451938 
L 485.491942 94.814599 
L 487.797727 93.177261 
L 490.103512 91.539922 
L 492.409298 89.902584 
L 494.715083 88.265245 
L 497.020868 86.627907 
L 499.326653 84.990568 
L 501.632438 83.35323 
L 503.938223 81.715891 
L 506.244008 80.078553 
L 508.549793 78.441214 
L 510.855579 76.803876 
L 513.161364 75.166537 
L 515.467149 73.529199 
L 517.772934 71.89186 
L 520.078719 70.254522 
L 522.384504 68.617183 
L 524.690289 66.979845 
L 526.996074 65.342506 
L 529.30186 63.705168 
L 531.607645 62.067829 
L 533.91343 60.430491 
L 536.219215 58.793152 
L 538.525 57.155814 
" style="fill:none;stroke:#000000;stroke-linecap:square;stroke-width:2;"/>
   </g>
   <g id="line2d_36">
    <path clip-path="url(#pc1697a6470)" d="M 310.252273 205.662325 
L 312.558058 204.024987 
L 314.863843 202.387648 
L 317.169628 200.75031 
L 319.475413 199.112971 
L 321.781198 197.475633 
L 324.086983 195.838294 
L 326.392769 194.200956 
L 328.698554 192.563617 
L 331.004339 190.926279 
L 333.310124 189.28894 
L 335.615909 187.651602 
L 337.921694 186.014263 
L 340.227479 184.376925 
L 342.533264 182.739586 
L 344.83905 181.102248 
L 347.144835 179.464909 
L 349.45062 177.827571 
L 351.756405 176.190232 
L 354.06219 174.552894 
L 356.367975 172.915555 
L 358.67376 171.278217 
L 360.979545 169.640878 
L 363.285331 168.00354 
L 365.591116 166.366201 
L 367.896901 164.728863 
L 370.202686 163.091524 
L 372.508471 161.454186 
L 374.814256 159.816847 
L 377.120041 158.179509 
L 379.425826 156.54217 
L 381.731612 154.904832 
L 384.037397 153.267493 
L 386.343182 151.630155 
L 388.648967 149.992816 
L 390.954752 148.355478 
L 393.260537 146.718139 
L 395.566322 145.080801 
L 397.872107 143.443462 
L 400.177893 141.806124 
L 402.483678 140.168785 
L 404.789463 138.531447 
L 407.095248 136.894108 
L 409.401033 135.25677 
L 411.706818 133.619431 
L 414.012603 131.982093 
L 416.318388 130.344754 
L 418.624174 128.707416 
L 420.929959 127.070077 
L 423.235744 125.432739 
L 425.541529 123.7954 
L 427.847314 122.158062 
L 430.153099 120.520723 
L 432.458884 118.883385 
L 434.764669 117.246046 
L 437.070455 115.608708 
L 439.37624 113.971369 
L 441.682025 112.334031 
L 443.98781 110.696692 
L 446.293595 109.059354 
L 448.59938 107.422015 
L 450.905165 105.784677 
L 453.21095 104.147338 
L 455.516736 102.51 
L 457.822521 100.872661 
L 460.128306 99.235323 
L 462.434091 97.597984 
L 464.739876 95.960646 
L 467.045661 94.323307 
L 469.351446 92.685969 
L 471.657231 91.04863 
L 473.963017 89.411292 
L 476.268802 87.773953 
L 478.574587 86.136615 
L 480.880372 84.499276 
L 483.186157 82.861938 
L 485.491942 81.224599 
L 487.797727 79.587261 
L 490.103512 77.949922 
L 492.409298 76.312584 
L 494.715083 74.675245 
L 497.020868 73.037907 
L 499.326653 71.400568 
L 501.632438 69.76323 
L 503.938223 68.125891 
L 506.244008 66.488553 
L 508.549793 64.851214 
L 510.855579 63.213876 
L 513.161364 61.576537 
L 515.467149 59.939199 
L 517.772934 58.30186 
L 520.078719 56.664522 
L 522.384504 55.027183 
L 524.690289 53.389845 
L 526.996074 51.752506 
L 529.30186 50.115168 
L 531.607645 48.477829 
L 533.91343 46.840491 
L 536.219215 45.203152 
L 538.525 43.565814 
" style="fill:none;stroke:#000000;stroke-dasharray:5.55,2.4;stroke-dashoffset:0;stroke-width:1.5;"/>
   </g>
   <g id="line2d_37">
    <path clip-path="url(#pc1697a6470)" d="M 310.252273 232.842325 
L 312.558058 231.204987 
L 314.863843 229.567648 
L 317.169628 227.93031 
L 319.475413 226.292971 
L 321.781198 224.655633 
L 324.086983 223.018294 
L 326.392769 221.380956 
L 328.698554 219.743617 
L 331.004339 218.106279 
L 333.310124 216.46894 
L 335.615909 214.831602 
L 337.921694 213.194263 
L 340.227479 211.556925 
L 342.533264 209.919586 
L 344.83905 208.282248 
L 347.144835 206.644909 
L 349.45062 205.007571 
L 351.756405 203.370232 
L 354.06219 201.732894 
L 356.367975 200.095555 
L 358.67376 198.458217 
L 360.979545 196.820878 
L 363.285331 195.18354 
L 365.591116 193.546201 
L 367.896901 191.908863 
L 370.202686 190.271524 
L 372.508471 188.634186 
L 374.814256 186.996847 
L 377.120041 185.359509 
L 379.425826 183.72217 
L 381.731612 182.084832 
L 384.037397 180.447493 
L 386.343182 178.810155 
L 388.648967 177.172816 
L 390.954752 175.535478 
L 393.260537 173.898139 
L 395.566322 172.260801 
L 397.872107 170.623462 
L 400.177893 168.986124 
L 402.483678 167.348785 
L 404.789463 165.711447 
L 407.095248 164.074108 
L 409.401033 162.43677 
L 411.706818 160.799431 
L 414.012603 159.162093 
L 416.318388 157.524754 
L 418.624174 155.887416 
L 420.929959 154.250077 
L 423.235744 152.612739 
L 425.541529 150.9754 
L 427.847314 149.338062 
L 430.153099 147.700723 
L 432.458884 146.063385 
L 434.764669 144.426046 
L 437.070455 142.788708 
L 439.37624 141.151369 
L 441.682025 139.514031 
L 443.98781 137.876692 
L 446.293595 136.239354 
L 448.59938 134.602015 
L 450.905165 132.964677 
L 453.21095 131.327338 
L 455.516736 129.69 
L 457.822521 128.052661 
L 460.128306 126.415323 
L 462.434091 124.777984 
L 464.739876 123.140646 
L 467.045661 121.503307 
L 469.351446 119.865969 
L 471.657231 118.22863 
L 473.963017 116.591292 
L 476.268802 114.953953 
L 478.574587 113.316615 
L 480.880372 111.679276 
L 483.186157 110.041938 
L 485.491942 108.404599 
L 487.797727 106.767261 
L 490.103512 105.129922 
L 492.409298 103.492584 
L 494.715083 101.855245 
L 497.020868 100.217907 
L 499.326653 98.580568 
L 501.632438 96.94323 
L 503.938223 95.305891 
L 506.244008 93.668553 
L 508.549793 92.031214 
L 510.855579 90.393876 
L 513.161364 88.756537 
L 515.467149 87.119199 
L 517.772934 85.48186 
L 520.078719 83.844522 
L 522.384504 82.207183 
L 524.690289 80.569845 
L 526.996074 78.932506 
L 529.30186 77.295168 
L 531.607645 75.657829 
L 533.91343 74.020491 
L 536.219215 72.383152 
L 538.525 70.745814 
" style="fill:none;stroke:#000000;stroke-dasharray:5.55,2.4;stroke-dashoffset:0;stroke-width:1.5;"/>
   </g>
   <g id="line2d_38">
    <g clip-path="url(#pc1697a6470)">
     <use style="fill:#0000ff;stroke:#0000ff;" x="423.638567" xlink:href="#m972f727c04" y="127.324441"/>
     <use style="fill:#0000ff;stroke:#0000ff;" x="278.690304" xlink:href="#m972f727c04" y="250.151866"/>
     <use style="fill:#0000ff;stroke:#0000ff;" x="458.101902" xlink:href="#m972f727c04" y="129.910881"/>
     <use style="fill:#0000ff;stroke:#0000ff;" x="605.244049" xlink:href="#m972f727c04" y="-1"/>
     <use style="fill:#0000ff;stroke:#0000ff;" x="589.603249" xlink:href="#m972f727c04" y="-1"/>
     <use style="fill:#0000ff;stroke:#0000ff;" x="256.801443" xlink:href="#m972f727c04" y="227.300353"/>
     <use style="fill:#0000ff;stroke:#0000ff;" x="256.805191" xlink:href="#m972f727c04" y="230.008049"/>
     <use style="fill:#0000ff;stroke:#0000ff;" x="643.006654" xlink:href="#m972f727c04" y="-1"/>
     <use style="fill:#0000ff;stroke:#0000ff;" x="644.6846" xlink:href="#m972f727c04" y="-1"/>
     <use style="fill:#0000ff;stroke:#0000ff;" x="485.436691" xlink:href="#m972f727c04" y="100.388324"/>
     <use style="fill:#0000ff;stroke:#0000ff;" x="203.084074" xlink:href="#m972f727c04" y="284.69533"/>
     <use style="fill:#0000ff;stroke:#0000ff;" x="434.103934" xlink:href="#m972f727c04" y="102.141179"/>
     <use style="fill:#0000ff;stroke:#0000ff;" x="204.466652" xlink:href="#m972f727c04" y="305.735301"/>
     <use style="fill:#0000ff;stroke:#0000ff;" x="203.938872" xlink:href="#m972f727c04" y="298.134607"/>
     <use style="fill:#0000ff;stroke:#0000ff;" x="365.48566" xlink:href="#m972f727c04" y="207.748165"/>
     <use style="fill:#0000ff;stroke:#0000ff;" x="-1" xlink:href="#m972f727c04" y="471.388286"/>
     <use style="fill:#0000ff;stroke:#0000ff;" x="-1" xlink:href="#m972f727c04" y="412.820202"/>
     <use style="fill:#0000ff;stroke:#0000ff;" x="181.897365" xlink:href="#m972f727c04" y="271.972434"/>
     <use style="fill:#0000ff;stroke:#0000ff;" x="79.050551" xlink:href="#m972f727c04" y="384.266922"/>
     <use style="fill:#0000ff;stroke:#0000ff;" x="381.986368" xlink:href="#m972f727c04" y="138.613708"/>
     <use style="fill:#0000ff;stroke:#0000ff;" x="102.975141" xlink:href="#m972f727c04" y="355.388487"/>
     <use style="fill:#0000ff;stroke:#0000ff;" x="-1" xlink:href="#m972f727c04" y="454.385191"/>
     <use style="fill:#0000ff;stroke:#0000ff;" x="-1" xlink:href="#m972f727c04" y="456.569028"/>
     <use style="fill:#0000ff;stroke:#0000ff;" x="604.209479" xlink:href="#m972f727c04" y="-1"/>
     <use style="fill:#0000ff;stroke:#0000ff;" x="596.205955" xlink:href="#m972f727c04" y="-1"/>
     <use style="fill:#0000ff;stroke:#0000ff;" x="258.713701" xlink:href="#m972f727c04" y="212.152953"/>
     <use style="fill:#0000ff;stroke:#0000ff;" x="325.66712" xlink:href="#m972f727c04" y="207.09844"/>
     <use style="fill:#0000ff;stroke:#0000ff;" x="-1" xlink:href="#m972f727c04" y="398.756588"/>
     <use style="fill:#0000ff;stroke:#0000ff;" x="-1" xlink:href="#m972f727c04" y="404.882574"/>
     <use style="fill:#0000ff;stroke:#0000ff;" x="185.984544" xlink:href="#m972f727c04" y="377.119794"/>
     <use style="fill:#0000ff;stroke:#0000ff;" x="335.572875" xlink:href="#m972f727c04" y="176.708622"/>
     <use style="fill:#0000ff;stroke:#0000ff;" x="47.51183" xlink:href="#m972f727c04" y="402.475281"/>
     <use style="fill:#0000ff;stroke:#0000ff;" x="396.013884" xlink:href="#m972f727c04" y="163.995374"/>
     <use style="fill:#0000ff;stroke:#0000ff;" x="173.142841" xlink:href="#m972f727c04" y="312.595287"/>
     <use style="fill:#0000ff;stroke:#0000ff;" x="243.666545" xlink:href="#m972f727c04" y="318.728727"/>
     <use style="fill:#0000ff;stroke:#0000ff;" x="172.899063" xlink:href="#m972f727c04" y="321.234184"/>
     <use style="fill:#0000ff;stroke:#0000ff;" x="606.946249" xlink:href="#m972f727c04" y="-1"/>
     <use style="fill:#0000ff;stroke:#0000ff;" x="587.422757" xlink:href="#m972f727c04" y="-1"/>
     <use style="fill:#0000ff;stroke:#0000ff;" x="307.171224" xlink:href="#m972f727c04" y="179.169155"/>
     <use style="fill:#0000ff;stroke:#0000ff;" x="68.805714" xlink:href="#m972f727c04" y="403.71527"/>
     <use style="fill:#0000ff;stroke:#0000ff;" x="498.016843" xlink:href="#m972f727c04" y="104.971419"/>
     <use style="fill:#0000ff;stroke:#0000ff;" x="31.566963" xlink:href="#m972f727c04" y="429.870126"/>
     <use style="fill:#0000ff;stroke:#0000ff;" x="357.930135" xlink:href="#m972f727c04" y="158.195083"/>
     <use style="fill:#0000ff;stroke:#0000ff;" x="-1" xlink:href="#m972f727c04" y="426.179487"/>
     <use style="fill:#0000ff;stroke:#0000ff;" x="-1" xlink:href="#m972f727c04" y="452.592074"/>
     <use style="fill:#0000ff;stroke:#0000ff;" x="7.063621" xlink:href="#m972f727c04" y="448.136651"/>
     <use style="fill:#0000ff;stroke:#0000ff;" x="355.190324" xlink:href="#m972f727c04" y="171.082448"/>
     <use style="fill:#0000ff;stroke:#0000ff;" x="478.824053" xlink:href="#m972f727c04" y="94.06949"/>
     <use style="fill:#0000ff;stroke:#0000ff;" x="349.370978" xlink:href="#m972f727c04" y="162.862677"/>
     <use style="fill:#0000ff;stroke:#0000ff;" x="283.852924" xlink:href="#m972f727c04" y="255.078912"/>
     <use style="fill:#0000ff;stroke:#0000ff;" x="241.518511" xlink:href="#m972f727c04" y="275.147035"/>
     <use style="fill:#0000ff;stroke:#0000ff;" x="-1" xlink:href="#m972f727c04" y="449.984886"/>
     <use style="fill:#0000ff;stroke:#0000ff;" x="-1" xlink:href="#m972f727c04" y="454.570549"/>
     <use style="fill:#0000ff;stroke:#0000ff;" x="145.931472" xlink:href="#m972f727c04" y="374.307717"/>
     <use style="fill:#0000ff;stroke:#0000ff;" x="205.101004" xlink:href="#m972f727c04" y="284.209609"/>
     <use style="fill:#0000ff;stroke:#0000ff;" x="551.564446" xlink:href="#m972f727c04" y="37.646213"/>
     <use style="fill:#0000ff;stroke:#0000ff;" x="388.690957" xlink:href="#m972f727c04" y="160.960933"/>
     <use style="fill:#0000ff;stroke:#0000ff;" x="-1" xlink:href="#m972f727c04" y="444.63898"/>
    </g>
   </g>
   <g id="patch_10">
    <path d="M 310.252273 244.317187 
L 310.252273 26.877187 
" style="fill:none;stroke:#000000;stroke-linecap:square;stroke-linejoin:miter;stroke-width:0.8;"/>
   </g>
   <g id="patch_11">
    <path d="M 538.525 244.317187 
L 538.525 26.877187 
" style="fill:none;stroke:#000000;stroke-linecap:square;stroke-linejoin:miter;stroke-width:0.8;"/>
   </g>
   <g id="patch_12">
    <path d="M 310.252273 244.317187 
L 538.525 244.317187 
" style="fill:none;stroke:#000000;stroke-linecap:square;stroke-linejoin:miter;stroke-width:0.8;"/>
   </g>
   <g id="patch_13">
    <path d="M 310.252273 26.877187 
L 538.525 26.877187 
" style="fill:none;stroke:#000000;stroke-linecap:square;stroke-linejoin:miter;stroke-width:0.8;"/>
   </g>
   <g id="patch_14">
    <path d="M 424.388636 148.116342 
Q 424.388636 144.998933 424.388636 141.881524 
" style="fill:none;stroke:#000000;stroke-linecap:round;stroke-width:1.5;"/>
    <path d="M 426.388636 144.116342 
L 424.388636 148.116342 
L 422.388636 144.116342 
" style="fill:none;stroke:#000000;stroke-linecap:round;stroke-width:1.5;"/>
    <path d="M 422.388636 145.881524 
L 424.388636 141.881524 
L 426.388636 145.881524 
" style="fill:none;stroke:#000000;stroke-linecap:round;stroke-width:1.5;"/>
   </g>
   <g id="text_36">
    <!-- $\epsilon$ -->
    <g transform="translate(414.116364 173.649187)scale(0.2 -0.2)">
     <use transform="translate(0 0.9375)" xlink:href="#DejaVuSans-Oblique-949"/>
    </g>
   </g>
   <g id="text_37">
    <!-- $\epsilon=0.5$ -->
    <g transform="translate(394.148636 20.877187)scale(0.18 -0.18)">
     <use transform="translate(0 0.78125)" xlink:href="#DejaVuSans-Oblique-949"/>
     <use transform="translate(73.535156 0.78125)" xlink:href="#DejaVuSans-61"/>
     <use transform="translate(176.806641 0.78125)" xlink:href="#DejaVuSans-48"/>
     <use transform="translate(240.429688 0.78125)" xlink:href="#DejaVuSans-46"/>
     <use transform="translate(272.216797 0.78125)" xlink:href="#DejaVuSans-53"/>
    </g>
   </g>
   <g id="legend_2">
    <g id="patch_15">
     <path d="M 322.852273 70.617188 
L 391.252273 70.617188 
Q 394.852273 70.617188 394.852273 67.017188 
L 394.852273 39.477187 
Q 394.852273 35.877187 391.252273 35.877187 
L 322.852273 35.877187 
Q 319.252273 35.877187 319.252273 39.477187 
L 319.252273 67.017188 
Q 319.252273 70.617188 322.852273 70.617188 
z
" style="fill:#ffffff;opacity:0.8;stroke:#cccccc;stroke-linejoin:miter;"/>
    </g>
    <g id="line2d_39">
     <path d="M 326.452273 53.337188 
L 362.452273 53.337188 
" style="fill:none;stroke:#000000;stroke-linecap:square;stroke-width:2;"/>
    </g>
    <g id="line2d_40"/>
    <g id="text_38">
     <!-- $\hat{y}$ -->
     <g transform="translate(376.852273 59.637188)scale(0.18 -0.18)">
      <use transform="translate(62.373047 12.015625)" xlink:href="#DejaVuSans-770"/>
      <use transform="translate(0 0.828125)" xlink:href="#DejaVuSans-Oblique-121"/>
     </g>
    </g>
   </g>
  </g>
 </g>
 <defs>
  <clipPath id="pd1c26380b6">
   <rect height="217.44" width="228.272727" x="36.325" y="26.877187"/>
  </clipPath>
  <clipPath id="pc1697a6470">
   <rect height="217.44" width="228.272727" x="310.252273" y="26.877187"/>
  </clipPath>
 </defs>
</svg>
