<?xml version="1.0" encoding="utf-8" standalone="no"?>
<!DOCTYPE svg PUBLIC "-//W3C//DTD SVG 1.1//EN"
  "http://www.w3.org/Graphics/SVG/1.1/DTD/svg11.dtd">
<!-- Created with matplotlib (https://matplotlib.org/) -->
<svg height="357.238125pt" version="1.1" viewBox="0 0 592.125 357.238125" width="592.125pt" xmlns="http://www.w3.org/2000/svg" xmlns:xlink="http://www.w3.org/1999/xlink">
 <metadata>
  <rdf:RDF xmlns:cc="http://creativecommons.org/ns#" xmlns:dc="http://purl.org/dc/elements/1.1/" xmlns:rdf="http://www.w3.org/1999/02/22-rdf-syntax-ns#">
   <cc:Work>
    <dc:type rdf:resource="http://purl.org/dc/dcmitype/StillImage"/>
    <dc:date>2020-10-21T20:53:51.116714</dc:date>
    <dc:format>image/svg+xml</dc:format>
    <dc:creator>
     <cc:Agent>
      <dc:title>Matplotlib v3.3.2, https://matplotlib.org/</dc:title>
     </cc:Agent>
    </dc:creator>
   </cc:Work>
  </rdf:RDF>
 </metadata>
 <defs>
  <style type="text/css">*{stroke-linecap:butt;stroke-linejoin:round;}</style>
 </defs>
 <g id="figure_1">
  <g id="patch_1">
   <path d="M 0 357.238125 
L 592.125 357.238125 
L 592.125 0 
L 0 0 
z
" style="fill:none;"/>
  </g>
  <g id="axes_1">
   <g id="patch_2">
    <path d="M 26.925 333.36 
L 584.925 333.36 
L 584.925 7.2 
L 26.925 7.2 
z
" style="fill:#ffffff;"/>
   </g>
   <g id="PathCollection_1">
    <defs>
     <path d="M 0 3 
C 0.795609 3 1.55874 2.683901 2.12132 2.12132 
C 2.683901 1.55874 3 0.795609 3 0 
C 3 -0.795609 2.683901 -1.55874 2.12132 -2.12132 
C 1.55874 -2.683901 0.795609 -3 0 -3 
C -0.795609 -3 -1.55874 -2.683901 -2.12132 -2.12132 
C -2.683901 -1.55874 -3 -0.795609 -3 0 
C -3 0.795609 -2.683901 1.55874 -2.12132 2.12132 
C -1.55874 2.683901 -0.795609 3 0 3 
z
" id="m97bbcb3f9a" style="stroke:#1f77b4;"/>
    </defs>
    <g clip-path="url(#pddc8ee3893)">
     <use style="fill:#1f77b4;stroke:#1f77b4;" x="487.965563" xlink:href="#m97bbcb3f9a" y="122.553354"/>
     <use style="fill:#1f77b4;stroke:#1f77b4;" x="277.907802" xlink:href="#m97bbcb3f9a" y="192.220585"/>
     <use style="fill:#1f77b4;stroke:#1f77b4;" x="219.974351" xlink:href="#m97bbcb3f9a" y="206.297083"/>
     <use style="fill:#1f77b4;stroke:#1f77b4;" x="301.183036" xlink:href="#m97bbcb3f9a" y="157.979654"/>
     <use style="fill:#1f77b4;stroke:#1f77b4;" x="505.237659" xlink:href="#m97bbcb3f9a" y="186.636132"/>
     <use style="fill:#1f77b4;stroke:#1f77b4;" x="511.523504" xlink:href="#m97bbcb3f9a" y="93.609768"/>
     <use style="fill:#1f77b4;stroke:#1f77b4;" x="159.993861" xlink:href="#m97bbcb3f9a" y="183.479579"/>
     <use style="fill:#1f77b4;stroke:#1f77b4;" x="262.142513" xlink:href="#m97bbcb3f9a" y="170.590688"/>
     <use style="fill:#1f77b4;stroke:#1f77b4;" x="393.204941" xlink:href="#m97bbcb3f9a" y="95.38104"/>
     <use style="fill:#1f77b4;stroke:#1f77b4;" x="326.971541" xlink:href="#m97bbcb3f9a" y="201.070618"/>
     <use style="fill:#1f77b4;stroke:#1f77b4;" x="351.107151" xlink:href="#m97bbcb3f9a" y="110.736225"/>
     <use style="fill:#1f77b4;stroke:#1f77b4;" x="326.307442" xlink:href="#m97bbcb3f9a" y="112.343733"/>
     <use style="fill:#1f77b4;stroke:#1f77b4;" x="278.410113" xlink:href="#m97bbcb3f9a" y="215.055397"/>
     <use style="fill:#1f77b4;stroke:#1f77b4;" x="60.028976" xlink:href="#m97bbcb3f9a" y="254.09903"/>
     <use style="fill:#1f77b4;stroke:#1f77b4;" x="52.288636" xlink:href="#m97bbcb3f9a" y="238.372461"/>
     <use style="fill:#1f77b4;stroke:#1f77b4;" x="461.239641" xlink:href="#m97bbcb3f9a" y="35.987442"/>
     <use style="fill:#1f77b4;stroke:#1f77b4;" x="266.524424" xlink:href="#m97bbcb3f9a" y="203.176118"/>
     <use style="fill:#1f77b4;stroke:#1f77b4;" x="178.735305" xlink:href="#m97bbcb3f9a" y="288.067927"/>
     <use style="fill:#1f77b4;stroke:#1f77b4;" x="345.96764" xlink:href="#m97bbcb3f9a" y="145.169074"/>
     <use style="fill:#1f77b4;stroke:#1f77b4;" x="65.794171" xlink:href="#m97bbcb3f9a" y="318.534545"/>
     <use style="fill:#1f77b4;stroke:#1f77b4;" x="181.847096" xlink:href="#m97bbcb3f9a" y="184.05761"/>
     <use style="fill:#1f77b4;stroke:#1f77b4;" x="242.931935" xlink:href="#m97bbcb3f9a" y="191.832484"/>
     <use style="fill:#1f77b4;stroke:#1f77b4;" x="90.506859" xlink:href="#m97bbcb3f9a" y="277.488602"/>
     <use style="fill:#1f77b4;stroke:#1f77b4;" x="287.46819" xlink:href="#m97bbcb3f9a" y="195.441695"/>
     <use style="fill:#1f77b4;stroke:#1f77b4;" x="502.416946" xlink:href="#m97bbcb3f9a" y="56.87115"/>
     <use style="fill:#1f77b4;stroke:#1f77b4;" x="489.443654" xlink:href="#m97bbcb3f9a" y="59.278027"/>
     <use style="fill:#1f77b4;stroke:#1f77b4;" x="271.159946" xlink:href="#m97bbcb3f9a" y="224.103901"/>
     <use style="fill:#1f77b4;stroke:#1f77b4;" x="504.962126" xlink:href="#m97bbcb3f9a" y="126.106275"/>
     <use style="fill:#1f77b4;stroke:#1f77b4;" x="287.743933" xlink:href="#m97bbcb3f9a" y="215.60766"/>
     <use style="fill:#1f77b4;stroke:#1f77b4;" x="393.519531" xlink:href="#m97bbcb3f9a" y="166.086849"/>
     <use style="fill:#1f77b4;stroke:#1f77b4;" x="108.723308" xlink:href="#m97bbcb3f9a" y="210.914989"/>
     <use style="fill:#1f77b4;stroke:#1f77b4;" x="493.216106" xlink:href="#m97bbcb3f9a" y="54.751972"/>
     <use style="fill:#1f77b4;stroke:#1f77b4;" x="59.473524" xlink:href="#m97bbcb3f9a" y="256.826243"/>
     <use style="fill:#1f77b4;stroke:#1f77b4;" x="217.211617" xlink:href="#m97bbcb3f9a" y="166.878674"/>
     <use style="fill:#1f77b4;stroke:#1f77b4;" x="117.575116" xlink:href="#m97bbcb3f9a" y="223.21647"/>
     <use style="fill:#1f77b4;stroke:#1f77b4;" x="291.57171" xlink:href="#m97bbcb3f9a" y="201.033435"/>
     <use style="fill:#1f77b4;stroke:#1f77b4;" x="547.968175" xlink:href="#m97bbcb3f9a" y="33.35891"/>
     <use style="fill:#1f77b4;stroke:#1f77b4;" x="443.545673" xlink:href="#m97bbcb3f9a" y="61.637481"/>
     <use style="fill:#1f77b4;stroke:#1f77b4;" x="494.84461" xlink:href="#m97bbcb3f9a" y="131.279158"/>
     <use style="fill:#1f77b4;stroke:#1f77b4;" x="196.474735" xlink:href="#m97bbcb3f9a" y="176.981046"/>
     <use style="fill:#1f77b4;stroke:#1f77b4;" x="221.808325" xlink:href="#m97bbcb3f9a" y="142.426203"/>
     <use style="fill:#1f77b4;stroke:#1f77b4;" x="178.895378" xlink:href="#m97bbcb3f9a" y="209.845291"/>
     <use style="fill:#1f77b4;stroke:#1f77b4;" x="186.421696" xlink:href="#m97bbcb3f9a" y="165.076041"/>
     <use style="fill:#1f77b4;stroke:#1f77b4;" x="464.394639" xlink:href="#m97bbcb3f9a" y="126.428629"/>
     <use style="fill:#1f77b4;stroke:#1f77b4;" x="497.99777" xlink:href="#m97bbcb3f9a" y="86.577419"/>
     <use style="fill:#1f77b4;stroke:#1f77b4;" x="195.841523" xlink:href="#m97bbcb3f9a" y="132.046761"/>
     <use style="fill:#1f77b4;stroke:#1f77b4;" x="269.163691" xlink:href="#m97bbcb3f9a" y="157.510068"/>
     <use style="fill:#1f77b4;stroke:#1f77b4;" x="318.439861" xlink:href="#m97bbcb3f9a" y="134.711545"/>
     <use style="fill:#1f77b4;stroke:#1f77b4;" x="439.621437" xlink:href="#m97bbcb3f9a" y="147.52924"/>
     <use style="fill:#1f77b4;stroke:#1f77b4;" x="401.761222" xlink:href="#m97bbcb3f9a" y="144.748866"/>
     <use style="fill:#1f77b4;stroke:#1f77b4;" x="95.271019" xlink:href="#m97bbcb3f9a" y="189.614967"/>
     <use style="fill:#1f77b4;stroke:#1f77b4;" x="151.57713" xlink:href="#m97bbcb3f9a" y="199.596751"/>
     <use style="fill:#1f77b4;stroke:#1f77b4;" x="191.813145" xlink:href="#m97bbcb3f9a" y="178.376859"/>
     <use style="fill:#1f77b4;stroke:#1f77b4;" x="122.843321" xlink:href="#m97bbcb3f9a" y="287.965855"/>
     <use style="fill:#1f77b4;stroke:#1f77b4;" x="296.418745" xlink:href="#m97bbcb3f9a" y="253.434914"/>
     <use style="fill:#1f77b4;stroke:#1f77b4;" x="559.561364" xlink:href="#m97bbcb3f9a" y="31.590299"/>
     <use style="fill:#1f77b4;stroke:#1f77b4;" x="548.042357" xlink:href="#m97bbcb3f9a" y="22.025455"/>
     <use style="fill:#1f77b4;stroke:#1f77b4;" x="242.237116" xlink:href="#m97bbcb3f9a" y="132.193969"/>
     <use style="fill:#1f77b4;stroke:#1f77b4;" x="414.482703" xlink:href="#m97bbcb3f9a" y="168.293783"/>
     <use style="fill:#1f77b4;stroke:#1f77b4;" x="158.007214" xlink:href="#m97bbcb3f9a" y="270.342037"/>
     <use style="fill:#1f77b4;stroke:#1f77b4;" x="313.639974" xlink:href="#m97bbcb3f9a" y="141.740846"/>
     <use style="fill:#1f77b4;stroke:#1f77b4;" x="199.240312" xlink:href="#m97bbcb3f9a" y="206.561694"/>
     <use style="fill:#1f77b4;stroke:#1f77b4;" x="279.41809" xlink:href="#m97bbcb3f9a" y="137.971875"/>
     <use style="fill:#1f77b4;stroke:#1f77b4;" x="127.208139" xlink:href="#m97bbcb3f9a" y="234.690701"/>
     <use style="fill:#1f77b4;stroke:#1f77b4;" x="80.558521" xlink:href="#m97bbcb3f9a" y="234.145793"/>
     <use style="fill:#1f77b4;stroke:#1f77b4;" x="127.741994" xlink:href="#m97bbcb3f9a" y="218.757509"/>
     <use style="fill:#1f77b4;stroke:#1f77b4;" x="401.88096" xlink:href="#m97bbcb3f9a" y="148.838618"/>
     <use style="fill:#1f77b4;stroke:#1f77b4;" x="444.95063" xlink:href="#m97bbcb3f9a" y="117.657295"/>
     <use style="fill:#1f77b4;stroke:#1f77b4;" x="224.508653" xlink:href="#m97bbcb3f9a" y="209.130316"/>
     <use style="fill:#1f77b4;stroke:#1f77b4;" x="284.385038" xlink:href="#m97bbcb3f9a" y="188.830569"/>
     <use style="fill:#1f77b4;stroke:#1f77b4;" x="179.39733" xlink:href="#m97bbcb3f9a" y="211.087947"/>
     <use style="fill:#1f77b4;stroke:#1f77b4;" x="488.734011" xlink:href="#m97bbcb3f9a" y="72.158335"/>
     <use style="fill:#1f77b4;stroke:#1f77b4;" x="394.491825" xlink:href="#m97bbcb3f9a" y="176.245217"/>
     <use style="fill:#1f77b4;stroke:#1f77b4;" x="211.184246" xlink:href="#m97bbcb3f9a" y="269.466326"/>
     <use style="fill:#1f77b4;stroke:#1f77b4;" x="320.547353" xlink:href="#m97bbcb3f9a" y="126.502391"/>
     <use style="fill:#1f77b4;stroke:#1f77b4;" x="153.842009" xlink:href="#m97bbcb3f9a" y="216.339626"/>
     <use style="fill:#1f77b4;stroke:#1f77b4;" x="335.290397" xlink:href="#m97bbcb3f9a" y="185.666471"/>
     <use style="fill:#1f77b4;stroke:#1f77b4;" x="497.24424" xlink:href="#m97bbcb3f9a" y="76.90944"/>
     <use style="fill:#1f77b4;stroke:#1f77b4;" x="538.04679" xlink:href="#m97bbcb3f9a" y="94.771249"/>
     <use style="fill:#1f77b4;stroke:#1f77b4;" x="188.754555" xlink:href="#m97bbcb3f9a" y="253.45623"/>
     <use style="fill:#1f77b4;stroke:#1f77b4;" x="385.947379" xlink:href="#m97bbcb3f9a" y="113.580088"/>
     <use style="fill:#1f77b4;stroke:#1f77b4;" x="362.282968" xlink:href="#m97bbcb3f9a" y="114.162857"/>
     <use style="fill:#1f77b4;stroke:#1f77b4;" x="472.224593" xlink:href="#m97bbcb3f9a" y="98.498469"/>
     <use style="fill:#1f77b4;stroke:#1f77b4;" x="225.070641" xlink:href="#m97bbcb3f9a" y="200.216617"/>
     <use style="fill:#1f77b4;stroke:#1f77b4;" x="292.13004" xlink:href="#m97bbcb3f9a" y="102.248527"/>
     <use style="fill:#1f77b4;stroke:#1f77b4;" x="415.914981" xlink:href="#m97bbcb3f9a" y="131.870687"/>
     <use style="fill:#1f77b4;stroke:#1f77b4;" x="522.359448" xlink:href="#m97bbcb3f9a" y="54.16833"/>
     <use style="fill:#1f77b4;stroke:#1f77b4;" x="307.886796" xlink:href="#m97bbcb3f9a" y="190.407953"/>
     <use style="fill:#1f77b4;stroke:#1f77b4;" x="500.103637" xlink:href="#m97bbcb3f9a" y="34.374599"/>
     <use style="fill:#1f77b4;stroke:#1f77b4;" x="258.549649" xlink:href="#m97bbcb3f9a" y="152.331491"/>
     <use style="fill:#1f77b4;stroke:#1f77b4;" x="185.42601" xlink:href="#m97bbcb3f9a" y="205.732212"/>
     <use style="fill:#1f77b4;stroke:#1f77b4;" x="110.418165" xlink:href="#m97bbcb3f9a" y="239.067692"/>
     <use style="fill:#1f77b4;stroke:#1f77b4;" x="435.487876" xlink:href="#m97bbcb3f9a" y="143.279145"/>
     <use style="fill:#1f77b4;stroke:#1f77b4;" x="107.872038" xlink:href="#m97bbcb3f9a" y="217.213492"/>
     <use style="fill:#1f77b4;stroke:#1f77b4;" x="255.449334" xlink:href="#m97bbcb3f9a" y="102.189286"/>
     <use style="fill:#1f77b4;stroke:#1f77b4;" x="346.50832" xlink:href="#m97bbcb3f9a" y="163.829172"/>
     <use style="fill:#1f77b4;stroke:#1f77b4;" x="317.22402" xlink:href="#m97bbcb3f9a" y="237.320504"/>
     <use style="fill:#1f77b4;stroke:#1f77b4;" x="219.299653" xlink:href="#m97bbcb3f9a" y="193.179459"/>
     <use style="fill:#1f77b4;stroke:#1f77b4;" x="389.362179" xlink:href="#m97bbcb3f9a" y="156.662257"/>
     <use style="fill:#1f77b4;stroke:#1f77b4;" x="170.414863" xlink:href="#m97bbcb3f9a" y="198.558106"/>
    </g>
   </g>
   <g id="matplotlib.axis_1">
    <g id="xtick_1">
     <g id="line2d_1">
      <defs>
       <path d="M 0 0 
L 0 3.5 
" id="m1252c957d5" style="stroke:#000000;stroke-width:0.8;"/>
      </defs>
      <g>
       <use style="stroke:#000000;stroke-width:0.8;" x="35.519524" xlink:href="#m1252c957d5" y="333.36"/>
      </g>
     </g>
     <g id="text_1">
      <!-- 0.00 -->
      <g transform="translate(24.386711 347.958438)scale(0.1 -0.1)">
       <defs>
        <path d="M 31.78125 66.40625 
Q 24.171875 66.40625 20.328125 58.90625 
Q 16.5 51.421875 16.5 36.375 
Q 16.5 21.390625 20.328125 13.890625 
Q 24.171875 6.390625 31.78125 6.390625 
Q 39.453125 6.390625 43.28125 13.890625 
Q 47.125 21.390625 47.125 36.375 
Q 47.125 51.421875 43.28125 58.90625 
Q 39.453125 66.40625 31.78125 66.40625 
z
M 31.78125 74.21875 
Q 44.046875 74.21875 50.515625 64.515625 
Q 56.984375 54.828125 56.984375 36.375 
Q 56.984375 17.96875 50.515625 8.265625 
Q 44.046875 -1.421875 31.78125 -1.421875 
Q 19.53125 -1.421875 13.0625 8.265625 
Q 6.59375 17.96875 6.59375 36.375 
Q 6.59375 54.828125 13.0625 64.515625 
Q 19.53125 74.21875 31.78125 74.21875 
z
" id="DejaVuSans-48"/>
        <path d="M 10.6875 12.40625 
L 21 12.40625 
L 21 0 
L 10.6875 0 
z
" id="DejaVuSans-46"/>
       </defs>
       <use xlink:href="#DejaVuSans-48"/>
       <use x="63.623047" xlink:href="#DejaVuSans-46"/>
       <use x="95.410156" xlink:href="#DejaVuSans-48"/>
       <use x="159.033203" xlink:href="#DejaVuSans-48"/>
      </g>
     </g>
    </g>
    <g id="xtick_2">
     <g id="line2d_2">
      <g>
       <use style="stroke:#000000;stroke-width:0.8;" x="101.819955" xlink:href="#m1252c957d5" y="333.36"/>
      </g>
     </g>
     <g id="text_2">
      <!-- 0.25 -->
      <g transform="translate(90.687142 347.958438)scale(0.1 -0.1)">
       <defs>
        <path d="M 19.1875 8.296875 
L 53.609375 8.296875 
L 53.609375 0 
L 7.328125 0 
L 7.328125 8.296875 
Q 12.9375 14.109375 22.625 23.890625 
Q 32.328125 33.6875 34.8125 36.53125 
Q 39.546875 41.84375 41.421875 45.53125 
Q 43.3125 49.21875 43.3125 52.78125 
Q 43.3125 58.59375 39.234375 62.25 
Q 35.15625 65.921875 28.609375 65.921875 
Q 23.96875 65.921875 18.8125 64.3125 
Q 13.671875 62.703125 7.8125 59.421875 
L 7.8125 69.390625 
Q 13.765625 71.78125 18.9375 73 
Q 24.125 74.21875 28.421875 74.21875 
Q 39.75 74.21875 46.484375 68.546875 
Q 53.21875 62.890625 53.21875 53.421875 
Q 53.21875 48.921875 51.53125 44.890625 
Q 49.859375 40.875 45.40625 35.40625 
Q 44.1875 33.984375 37.640625 27.21875 
Q 31.109375 20.453125 19.1875 8.296875 
z
" id="DejaVuSans-50"/>
        <path d="M 10.796875 72.90625 
L 49.515625 72.90625 
L 49.515625 64.59375 
L 19.828125 64.59375 
L 19.828125 46.734375 
Q 21.96875 47.46875 24.109375 47.828125 
Q 26.265625 48.1875 28.421875 48.1875 
Q 40.625 48.1875 47.75 41.5 
Q 54.890625 34.8125 54.890625 23.390625 
Q 54.890625 11.625 47.5625 5.09375 
Q 40.234375 -1.421875 26.90625 -1.421875 
Q 22.3125 -1.421875 17.546875 -0.640625 
Q 12.796875 0.140625 7.71875 1.703125 
L 7.71875 11.625 
Q 12.109375 9.234375 16.796875 8.0625 
Q 21.484375 6.890625 26.703125 6.890625 
Q 35.15625 6.890625 40.078125 11.328125 
Q 45.015625 15.765625 45.015625 23.390625 
Q 45.015625 31 40.078125 35.4375 
Q 35.15625 39.890625 26.703125 39.890625 
Q 22.75 39.890625 18.8125 39.015625 
Q 14.890625 38.140625 10.796875 36.28125 
z
" id="DejaVuSans-53"/>
       </defs>
       <use xlink:href="#DejaVuSans-48"/>
       <use x="63.623047" xlink:href="#DejaVuSans-46"/>
       <use x="95.410156" xlink:href="#DejaVuSans-50"/>
       <use x="159.033203" xlink:href="#DejaVuSans-53"/>
      </g>
     </g>
    </g>
    <g id="xtick_3">
     <g id="line2d_3">
      <g>
       <use style="stroke:#000000;stroke-width:0.8;" x="168.120386" xlink:href="#m1252c957d5" y="333.36"/>
      </g>
     </g>
     <g id="text_3">
      <!-- 0.50 -->
      <g transform="translate(156.987573 347.958438)scale(0.1 -0.1)">
       <use xlink:href="#DejaVuSans-48"/>
       <use x="63.623047" xlink:href="#DejaVuSans-46"/>
       <use x="95.410156" xlink:href="#DejaVuSans-53"/>
       <use x="159.033203" xlink:href="#DejaVuSans-48"/>
      </g>
     </g>
    </g>
    <g id="xtick_4">
     <g id="line2d_4">
      <g>
       <use style="stroke:#000000;stroke-width:0.8;" x="234.420817" xlink:href="#m1252c957d5" y="333.36"/>
      </g>
     </g>
     <g id="text_4">
      <!-- 0.75 -->
      <g transform="translate(223.288004 347.958438)scale(0.1 -0.1)">
       <defs>
        <path d="M 8.203125 72.90625 
L 55.078125 72.90625 
L 55.078125 68.703125 
L 28.609375 0 
L 18.3125 0 
L 43.21875 64.59375 
L 8.203125 64.59375 
z
" id="DejaVuSans-55"/>
       </defs>
       <use xlink:href="#DejaVuSans-48"/>
       <use x="63.623047" xlink:href="#DejaVuSans-46"/>
       <use x="95.410156" xlink:href="#DejaVuSans-55"/>
       <use x="159.033203" xlink:href="#DejaVuSans-53"/>
      </g>
     </g>
    </g>
    <g id="xtick_5">
     <g id="line2d_5">
      <g>
       <use style="stroke:#000000;stroke-width:0.8;" x="300.721248" xlink:href="#m1252c957d5" y="333.36"/>
      </g>
     </g>
     <g id="text_5">
      <!-- 1.00 -->
      <g transform="translate(289.588435 347.958438)scale(0.1 -0.1)">
       <defs>
        <path d="M 12.40625 8.296875 
L 28.515625 8.296875 
L 28.515625 63.921875 
L 10.984375 60.40625 
L 10.984375 69.390625 
L 28.421875 72.90625 
L 38.28125 72.90625 
L 38.28125 8.296875 
L 54.390625 8.296875 
L 54.390625 0 
L 12.40625 0 
z
" id="DejaVuSans-49"/>
       </defs>
       <use xlink:href="#DejaVuSans-49"/>
       <use x="63.623047" xlink:href="#DejaVuSans-46"/>
       <use x="95.410156" xlink:href="#DejaVuSans-48"/>
       <use x="159.033203" xlink:href="#DejaVuSans-48"/>
      </g>
     </g>
    </g>
    <g id="xtick_6">
     <g id="line2d_6">
      <g>
       <use style="stroke:#000000;stroke-width:0.8;" x="367.021679" xlink:href="#m1252c957d5" y="333.36"/>
      </g>
     </g>
     <g id="text_6">
      <!-- 1.25 -->
      <g transform="translate(355.888866 347.958438)scale(0.1 -0.1)">
       <use xlink:href="#DejaVuSans-49"/>
       <use x="63.623047" xlink:href="#DejaVuSans-46"/>
       <use x="95.410156" xlink:href="#DejaVuSans-50"/>
       <use x="159.033203" xlink:href="#DejaVuSans-53"/>
      </g>
     </g>
    </g>
    <g id="xtick_7">
     <g id="line2d_7">
      <g>
       <use style="stroke:#000000;stroke-width:0.8;" x="433.32211" xlink:href="#m1252c957d5" y="333.36"/>
      </g>
     </g>
     <g id="text_7">
      <!-- 1.50 -->
      <g transform="translate(422.189297 347.958438)scale(0.1 -0.1)">
       <use xlink:href="#DejaVuSans-49"/>
       <use x="63.623047" xlink:href="#DejaVuSans-46"/>
       <use x="95.410156" xlink:href="#DejaVuSans-53"/>
       <use x="159.033203" xlink:href="#DejaVuSans-48"/>
      </g>
     </g>
    </g>
    <g id="xtick_8">
     <g id="line2d_8">
      <g>
       <use style="stroke:#000000;stroke-width:0.8;" x="499.622541" xlink:href="#m1252c957d5" y="333.36"/>
      </g>
     </g>
     <g id="text_8">
      <!-- 1.75 -->
      <g transform="translate(488.489728 347.958438)scale(0.1 -0.1)">
       <use xlink:href="#DejaVuSans-49"/>
       <use x="63.623047" xlink:href="#DejaVuSans-46"/>
       <use x="95.410156" xlink:href="#DejaVuSans-55"/>
       <use x="159.033203" xlink:href="#DejaVuSans-53"/>
      </g>
     </g>
    </g>
    <g id="xtick_9">
     <g id="line2d_9">
      <g>
       <use style="stroke:#000000;stroke-width:0.8;" x="565.922972" xlink:href="#m1252c957d5" y="333.36"/>
      </g>
     </g>
     <g id="text_9">
      <!-- 2.00 -->
      <g transform="translate(554.790159 347.958438)scale(0.1 -0.1)">
       <use xlink:href="#DejaVuSans-50"/>
       <use x="63.623047" xlink:href="#DejaVuSans-46"/>
       <use x="95.410156" xlink:href="#DejaVuSans-48"/>
       <use x="159.033203" xlink:href="#DejaVuSans-48"/>
      </g>
     </g>
    </g>
   </g>
   <g id="matplotlib.axis_2">
    <g id="ytick_1">
     <g id="line2d_10">
      <defs>
       <path d="M 0 0 
L -3.5 0 
" id="m6feb60ace9" style="stroke:#000000;stroke-width:0.8;"/>
      </defs>
      <g>
       <use style="stroke:#000000;stroke-width:0.8;" x="26.925" xlink:href="#m6feb60ace9" y="332.566527"/>
      </g>
     </g>
     <g id="text_10">
      <!-- 2 -->
      <g transform="translate(13.5625 336.365746)scale(0.1 -0.1)">
       <use xlink:href="#DejaVuSans-50"/>
      </g>
     </g>
    </g>
    <g id="ytick_2">
     <g id="line2d_11">
      <g>
       <use style="stroke:#000000;stroke-width:0.8;" x="26.925" xlink:href="#m6feb60ace9" y="266.514498"/>
      </g>
     </g>
     <g id="text_11">
      <!-- 4 -->
      <g transform="translate(13.5625 270.313717)scale(0.1 -0.1)">
       <defs>
        <path d="M 37.796875 64.3125 
L 12.890625 25.390625 
L 37.796875 25.390625 
z
M 35.203125 72.90625 
L 47.609375 72.90625 
L 47.609375 25.390625 
L 58.015625 25.390625 
L 58.015625 17.1875 
L 47.609375 17.1875 
L 47.609375 0 
L 37.796875 0 
L 37.796875 17.1875 
L 4.890625 17.1875 
L 4.890625 26.703125 
z
" id="DejaVuSans-52"/>
       </defs>
       <use xlink:href="#DejaVuSans-52"/>
      </g>
     </g>
    </g>
    <g id="ytick_3">
     <g id="line2d_12">
      <g>
       <use style="stroke:#000000;stroke-width:0.8;" x="26.925" xlink:href="#m6feb60ace9" y="200.46247"/>
      </g>
     </g>
     <g id="text_12">
      <!-- 6 -->
      <g transform="translate(13.5625 204.261689)scale(0.1 -0.1)">
       <defs>
        <path d="M 33.015625 40.375 
Q 26.375 40.375 22.484375 35.828125 
Q 18.609375 31.296875 18.609375 23.390625 
Q 18.609375 15.53125 22.484375 10.953125 
Q 26.375 6.390625 33.015625 6.390625 
Q 39.65625 6.390625 43.53125 10.953125 
Q 47.40625 15.53125 47.40625 23.390625 
Q 47.40625 31.296875 43.53125 35.828125 
Q 39.65625 40.375 33.015625 40.375 
z
M 52.59375 71.296875 
L 52.59375 62.3125 
Q 48.875 64.0625 45.09375 64.984375 
Q 41.3125 65.921875 37.59375 65.921875 
Q 27.828125 65.921875 22.671875 59.328125 
Q 17.53125 52.734375 16.796875 39.40625 
Q 19.671875 43.65625 24.015625 45.921875 
Q 28.375 48.1875 33.59375 48.1875 
Q 44.578125 48.1875 50.953125 41.515625 
Q 57.328125 34.859375 57.328125 23.390625 
Q 57.328125 12.15625 50.6875 5.359375 
Q 44.046875 -1.421875 33.015625 -1.421875 
Q 20.359375 -1.421875 13.671875 8.265625 
Q 6.984375 17.96875 6.984375 36.375 
Q 6.984375 53.65625 15.1875 63.9375 
Q 23.390625 74.21875 37.203125 74.21875 
Q 40.921875 74.21875 44.703125 73.484375 
Q 48.484375 72.75 52.59375 71.296875 
z
" id="DejaVuSans-54"/>
       </defs>
       <use xlink:href="#DejaVuSans-54"/>
      </g>
     </g>
    </g>
    <g id="ytick_4">
     <g id="line2d_13">
      <g>
       <use style="stroke:#000000;stroke-width:0.8;" x="26.925" xlink:href="#m6feb60ace9" y="134.410442"/>
      </g>
     </g>
     <g id="text_13">
      <!-- 8 -->
      <g transform="translate(13.5625 138.20966)scale(0.1 -0.1)">
       <defs>
        <path d="M 31.78125 34.625 
Q 24.75 34.625 20.71875 30.859375 
Q 16.703125 27.09375 16.703125 20.515625 
Q 16.703125 13.921875 20.71875 10.15625 
Q 24.75 6.390625 31.78125 6.390625 
Q 38.8125 6.390625 42.859375 10.171875 
Q 46.921875 13.96875 46.921875 20.515625 
Q 46.921875 27.09375 42.890625 30.859375 
Q 38.875 34.625 31.78125 34.625 
z
M 21.921875 38.8125 
Q 15.578125 40.375 12.03125 44.71875 
Q 8.5 49.078125 8.5 55.328125 
Q 8.5 64.0625 14.71875 69.140625 
Q 20.953125 74.21875 31.78125 74.21875 
Q 42.671875 74.21875 48.875 69.140625 
Q 55.078125 64.0625 55.078125 55.328125 
Q 55.078125 49.078125 51.53125 44.71875 
Q 48 40.375 41.703125 38.8125 
Q 48.828125 37.15625 52.796875 32.3125 
Q 56.78125 27.484375 56.78125 20.515625 
Q 56.78125 9.90625 50.3125 4.234375 
Q 43.84375 -1.421875 31.78125 -1.421875 
Q 19.734375 -1.421875 13.25 4.234375 
Q 6.78125 9.90625 6.78125 20.515625 
Q 6.78125 27.484375 10.78125 32.3125 
Q 14.796875 37.15625 21.921875 38.8125 
z
M 18.3125 54.390625 
Q 18.3125 48.734375 21.84375 45.5625 
Q 25.390625 42.390625 31.78125 42.390625 
Q 38.140625 42.390625 41.71875 45.5625 
Q 45.3125 48.734375 45.3125 54.390625 
Q 45.3125 60.0625 41.71875 63.234375 
Q 38.140625 66.40625 31.78125 66.40625 
Q 25.390625 66.40625 21.84375 63.234375 
Q 18.3125 60.0625 18.3125 54.390625 
z
" id="DejaVuSans-56"/>
       </defs>
       <use xlink:href="#DejaVuSans-56"/>
      </g>
     </g>
    </g>
    <g id="ytick_5">
     <g id="line2d_14">
      <g>
       <use style="stroke:#000000;stroke-width:0.8;" x="26.925" xlink:href="#m6feb60ace9" y="68.358413"/>
      </g>
     </g>
     <g id="text_14">
      <!-- 10 -->
      <g transform="translate(7.2 72.157632)scale(0.1 -0.1)">
       <use xlink:href="#DejaVuSans-49"/>
       <use x="63.623047" xlink:href="#DejaVuSans-48"/>
      </g>
     </g>
    </g>
   </g>
   <g id="patch_3">
    <path d="M 26.925 333.36 
L 26.925 7.2 
" style="fill:none;stroke:#000000;stroke-linecap:square;stroke-linejoin:miter;stroke-width:0.8;"/>
   </g>
   <g id="patch_4">
    <path d="M 584.925 333.36 
L 584.925 7.2 
" style="fill:none;stroke:#000000;stroke-linecap:square;stroke-linejoin:miter;stroke-width:0.8;"/>
   </g>
   <g id="patch_5">
    <path d="M 26.925 333.36 
L 584.925 333.36 
" style="fill:none;stroke:#000000;stroke-linecap:square;stroke-linejoin:miter;stroke-width:0.8;"/>
   </g>
   <g id="patch_6">
    <path d="M 26.925 7.2 
L 584.925 7.2 
" style="fill:none;stroke:#000000;stroke-linecap:square;stroke-linejoin:miter;stroke-width:0.8;"/>
   </g>
  </g>
 </g>
 <defs>
  <clipPath id="pddc8ee3893">
   <rect height="326.16" width="558" x="26.925" y="7.2"/>
  </clipPath>
 </defs>
</svg>
