<?xml version="1.0" encoding="utf-8" standalone="no"?>
<!DOCTYPE svg PUBLIC "-//W3C//DTD SVG 1.1//EN"
  "http://www.w3.org/Graphics/SVG/1.1/DTD/svg11.dtd">
<!-- Created with matplotlib (https://matplotlib.org/) -->
<svg height="205.801094pt" version="1.1" viewBox="0 0 912.8394 205.801094" width="912.8394pt" xmlns="http://www.w3.org/2000/svg" xmlns:xlink="http://www.w3.org/1999/xlink">
 <metadata>
  <rdf:RDF xmlns:cc="http://creativecommons.org/ns#" xmlns:dc="http://purl.org/dc/elements/1.1/" xmlns:rdf="http://www.w3.org/1999/02/22-rdf-syntax-ns#">
   <cc:Work>
    <dc:type rdf:resource="http://purl.org/dc/dcmitype/StillImage"/>
    <dc:date>2020-10-19T19:39:10.493096</dc:date>
    <dc:format>image/svg+xml</dc:format>
    <dc:creator>
     <cc:Agent>
      <dc:title>Matplotlib v3.3.2, https://matplotlib.org/</dc:title>
     </cc:Agent>
    </dc:creator>
   </cc:Work>
  </rdf:RDF>
 </metadata>
 <defs>
  <style type="text/css">*{stroke-linecap:butt;stroke-linejoin:round;}</style>
 </defs>
 <g id="figure_1">
  <g id="patch_1">
   <path d="M 0 205.801094 
L 912.8394 205.801094 
L 912.8394 0 
L 0 0 
z
" style="fill:#ffffff;"/>
  </g>
  <g id="axes_1">
   <g id="patch_2">
    <path d="M 31.99 163.78 
L 846.3939 163.78 
L 846.3939 7.2 
L 31.99 7.2 
z
" style="fill:#eaeaf2;"/>
   </g>
   <g id="matplotlib.axis_1">
    <g id="xtick_1">
     <g id="line2d_1">
      <path clip-path="url(#p8a63a5a6bd)" d="M 31.99 163.78 
L 31.99 7.2 
" style="fill:none;stroke:#ffffff;stroke-linecap:round;"/>
     </g>
     <g id="text_1">
      <!-- 0 -->
      <g style="fill:#262626;" transform="translate(28.931484 181.153594)scale(0.11 -0.11)">
       <defs>
        <path d="M 4.15625 35.296875 
Q 4.15625 48 6.765625 55.734375 
Q 9.375 63.484375 14.515625 67.671875 
Q 19.671875 71.875 27.484375 71.875 
Q 33.25 71.875 37.59375 69.546875 
Q 41.9375 67.234375 44.765625 62.859375 
Q 47.609375 58.5 49.21875 52.21875 
Q 50.828125 45.953125 50.828125 35.296875 
Q 50.828125 22.703125 48.234375 14.96875 
Q 45.65625 7.234375 40.5 3 
Q 35.359375 -1.21875 27.484375 -1.21875 
Q 17.140625 -1.21875 11.234375 6.203125 
Q 4.15625 15.140625 4.15625 35.296875 
z
M 13.1875 35.296875 
Q 13.1875 17.671875 17.3125 11.828125 
Q 21.4375 6 27.484375 6 
Q 33.546875 6 37.671875 11.859375 
Q 41.796875 17.71875 41.796875 35.296875 
Q 41.796875 52.984375 37.671875 58.78125 
Q 33.546875 64.59375 27.390625 64.59375 
Q 21.34375 64.59375 17.71875 59.46875 
Q 13.1875 52.9375 13.1875 35.296875 
z
" id="ArialMT-48"/>
       </defs>
       <use xlink:href="#ArialMT-48"/>
      </g>
     </g>
    </g>
    <g id="xtick_2">
     <g id="line2d_2">
      <path clip-path="url(#p8a63a5a6bd)" d="M 180.063436 163.78 
L 180.063436 7.2 
" style="fill:none;stroke:#ffffff;stroke-linecap:round;"/>
     </g>
     <g id="text_2">
      <!-- 2 -->
      <g style="fill:#262626;" transform="translate(177.004921 181.153594)scale(0.11 -0.11)">
       <defs>
        <path d="M 50.34375 8.453125 
L 50.34375 0 
L 3.03125 0 
Q 2.9375 3.171875 4.046875 6.109375 
Q 5.859375 10.9375 9.828125 15.625 
Q 13.8125 20.3125 21.34375 26.46875 
Q 33.015625 36.03125 37.109375 41.625 
Q 41.21875 47.21875 41.21875 52.203125 
Q 41.21875 57.421875 37.46875 61 
Q 33.734375 64.59375 27.734375 64.59375 
Q 21.390625 64.59375 17.578125 60.78125 
Q 13.765625 56.984375 13.71875 50.25 
L 4.6875 51.171875 
Q 5.609375 61.28125 11.65625 66.578125 
Q 17.71875 71.875 27.9375 71.875 
Q 38.234375 71.875 44.234375 66.15625 
Q 50.25 60.453125 50.25 52 
Q 50.25 47.703125 48.484375 43.546875 
Q 46.734375 39.40625 42.65625 34.8125 
Q 38.578125 30.21875 29.109375 22.21875 
Q 21.1875 15.578125 18.9375 13.203125 
Q 16.703125 10.84375 15.234375 8.453125 
z
" id="ArialMT-50"/>
       </defs>
       <use xlink:href="#ArialMT-50"/>
      </g>
     </g>
    </g>
    <g id="xtick_3">
     <g id="line2d_3">
      <path clip-path="url(#p8a63a5a6bd)" d="M 328.136873 163.78 
L 328.136873 7.2 
" style="fill:none;stroke:#ffffff;stroke-linecap:round;"/>
     </g>
     <g id="text_3">
      <!-- 4 -->
      <g style="fill:#262626;" transform="translate(325.078357 181.153594)scale(0.11 -0.11)">
       <defs>
        <path d="M 32.328125 0 
L 32.328125 17.140625 
L 1.265625 17.140625 
L 1.265625 25.203125 
L 33.9375 71.578125 
L 41.109375 71.578125 
L 41.109375 25.203125 
L 50.78125 25.203125 
L 50.78125 17.140625 
L 41.109375 17.140625 
L 41.109375 0 
z
M 32.328125 25.203125 
L 32.328125 57.46875 
L 9.90625 25.203125 
z
" id="ArialMT-52"/>
       </defs>
       <use xlink:href="#ArialMT-52"/>
      </g>
     </g>
    </g>
    <g id="xtick_4">
     <g id="line2d_4">
      <path clip-path="url(#p8a63a5a6bd)" d="M 476.210309 163.78 
L 476.210309 7.2 
" style="fill:none;stroke:#ffffff;stroke-linecap:round;"/>
     </g>
     <g id="text_4">
      <!-- 6 -->
      <g style="fill:#262626;" transform="translate(473.151794 181.153594)scale(0.11 -0.11)">
       <defs>
        <path d="M 49.75 54.046875 
L 41.015625 53.375 
Q 39.84375 58.546875 37.703125 60.890625 
Q 34.125 64.65625 28.90625 64.65625 
Q 24.703125 64.65625 21.53125 62.3125 
Q 17.390625 59.28125 14.984375 53.46875 
Q 12.59375 47.65625 12.5 36.921875 
Q 15.671875 41.75 20.265625 44.09375 
Q 24.859375 46.4375 29.890625 46.4375 
Q 38.671875 46.4375 44.84375 39.96875 
Q 51.03125 33.5 51.03125 23.25 
Q 51.03125 16.5 48.125 10.71875 
Q 45.21875 4.9375 40.140625 1.859375 
Q 35.0625 -1.21875 28.609375 -1.21875 
Q 17.625 -1.21875 10.6875 6.859375 
Q 3.765625 14.9375 3.765625 33.5 
Q 3.765625 54.25 11.421875 63.671875 
Q 18.109375 71.875 29.4375 71.875 
Q 37.890625 71.875 43.28125 67.140625 
Q 48.6875 62.40625 49.75 54.046875 
z
M 13.875 23.1875 
Q 13.875 18.65625 15.796875 14.5 
Q 17.71875 10.359375 21.1875 8.171875 
Q 24.65625 6 28.46875 6 
Q 34.03125 6 38.03125 10.484375 
Q 42.046875 14.984375 42.046875 22.703125 
Q 42.046875 30.125 38.078125 34.390625 
Q 34.125 38.671875 28.125 38.671875 
Q 22.171875 38.671875 18.015625 34.390625 
Q 13.875 30.125 13.875 23.1875 
z
" id="ArialMT-54"/>
       </defs>
       <use xlink:href="#ArialMT-54"/>
      </g>
     </g>
    </g>
    <g id="xtick_5">
     <g id="line2d_5">
      <path clip-path="url(#p8a63a5a6bd)" d="M 624.283746 163.78 
L 624.283746 7.2 
" style="fill:none;stroke:#ffffff;stroke-linecap:round;"/>
     </g>
     <g id="text_5">
      <!-- 8 -->
      <g style="fill:#262626;" transform="translate(621.22523 181.153594)scale(0.11 -0.11)">
       <defs>
        <path d="M 17.671875 38.8125 
Q 12.203125 40.828125 9.5625 44.53125 
Q 6.9375 48.25 6.9375 53.421875 
Q 6.9375 61.234375 12.546875 66.546875 
Q 18.171875 71.875 27.484375 71.875 
Q 36.859375 71.875 42.578125 66.421875 
Q 48.296875 60.984375 48.296875 53.171875 
Q 48.296875 48.1875 45.671875 44.5 
Q 43.0625 40.828125 37.75 38.8125 
Q 44.34375 36.671875 47.78125 31.875 
Q 51.21875 27.09375 51.21875 20.453125 
Q 51.21875 11.28125 44.71875 5.03125 
Q 38.234375 -1.21875 27.640625 -1.21875 
Q 17.046875 -1.21875 10.546875 5.046875 
Q 4.046875 11.328125 4.046875 20.703125 
Q 4.046875 27.6875 7.59375 32.390625 
Q 11.140625 37.109375 17.671875 38.8125 
z
M 15.921875 53.71875 
Q 15.921875 48.640625 19.1875 45.40625 
Q 22.46875 42.1875 27.6875 42.1875 
Q 32.765625 42.1875 36.015625 45.375 
Q 39.265625 48.578125 39.265625 53.21875 
Q 39.265625 58.0625 35.90625 61.359375 
Q 32.5625 64.65625 27.59375 64.65625 
Q 22.5625 64.65625 19.234375 61.421875 
Q 15.921875 58.203125 15.921875 53.71875 
z
M 13.09375 20.65625 
Q 13.09375 16.890625 14.875 13.375 
Q 16.65625 9.859375 20.171875 7.921875 
Q 23.6875 6 27.734375 6 
Q 34.03125 6 38.125 10.046875 
Q 42.234375 14.109375 42.234375 20.359375 
Q 42.234375 26.703125 38.015625 30.859375 
Q 33.796875 35.015625 27.4375 35.015625 
Q 21.234375 35.015625 17.15625 30.90625 
Q 13.09375 26.8125 13.09375 20.65625 
z
" id="ArialMT-56"/>
       </defs>
       <use xlink:href="#ArialMT-56"/>
      </g>
     </g>
    </g>
    <g id="xtick_6">
     <g id="line2d_6">
      <path clip-path="url(#p8a63a5a6bd)" d="M 772.357182 163.78 
L 772.357182 7.2 
" style="fill:none;stroke:#ffffff;stroke-linecap:round;"/>
     </g>
     <g id="text_6">
      <!-- 10 -->
      <g style="fill:#262626;" transform="translate(766.240151 181.153594)scale(0.11 -0.11)">
       <defs>
        <path d="M 37.25 0 
L 28.46875 0 
L 28.46875 56 
Q 25.296875 52.984375 20.140625 49.953125 
Q 14.984375 46.921875 10.890625 45.40625 
L 10.890625 53.90625 
Q 18.265625 57.375 23.78125 62.296875 
Q 29.296875 67.234375 31.59375 71.875 
L 37.25 71.875 
z
" id="ArialMT-49"/>
       </defs>
       <use xlink:href="#ArialMT-49"/>
       <use x="55.615234" xlink:href="#ArialMT-48"/>
      </g>
     </g>
    </g>
    <g id="text_7">
     <!-- FamilySize -->
     <g style="fill:#262626;" transform="translate(409.854763 196.075469)scale(0.12 -0.12)">
      <defs>
       <path d="M 8.203125 0 
L 8.203125 71.578125 
L 56.5 71.578125 
L 56.5 63.140625 
L 17.671875 63.140625 
L 17.671875 40.96875 
L 51.265625 40.96875 
L 51.265625 32.515625 
L 17.671875 32.515625 
L 17.671875 0 
z
" id="ArialMT-70"/>
       <path d="M 40.4375 6.390625 
Q 35.546875 2.25 31.03125 0.53125 
Q 26.515625 -1.171875 21.34375 -1.171875 
Q 12.796875 -1.171875 8.203125 3 
Q 3.609375 7.171875 3.609375 13.671875 
Q 3.609375 17.484375 5.34375 20.625 
Q 7.078125 23.78125 9.890625 25.6875 
Q 12.703125 27.59375 16.21875 28.5625 
Q 18.796875 29.25 24.03125 29.890625 
Q 34.671875 31.15625 39.703125 32.90625 
Q 39.75 34.71875 39.75 35.203125 
Q 39.75 40.578125 37.25 42.78125 
Q 33.890625 45.75 27.25 45.75 
Q 21.046875 45.75 18.09375 43.578125 
Q 15.140625 41.40625 13.71875 35.890625 
L 5.125 37.0625 
Q 6.296875 42.578125 8.984375 45.96875 
Q 11.671875 49.359375 16.75 51.1875 
Q 21.828125 53.03125 28.515625 53.03125 
Q 35.15625 53.03125 39.296875 51.46875 
Q 43.453125 49.90625 45.40625 47.53125 
Q 47.359375 45.171875 48.140625 41.546875 
Q 48.578125 39.3125 48.578125 33.453125 
L 48.578125 21.734375 
Q 48.578125 9.46875 49.140625 6.21875 
Q 49.703125 2.984375 51.375 0 
L 42.1875 0 
Q 40.828125 2.734375 40.4375 6.390625 
z
M 39.703125 26.03125 
Q 34.90625 24.078125 25.34375 22.703125 
Q 19.921875 21.921875 17.671875 20.9375 
Q 15.4375 19.96875 14.203125 18.09375 
Q 12.984375 16.21875 12.984375 13.921875 
Q 12.984375 10.40625 15.640625 8.0625 
Q 18.3125 5.71875 23.4375 5.71875 
Q 28.515625 5.71875 32.46875 7.9375 
Q 36.421875 10.15625 38.28125 14.015625 
Q 39.703125 17 39.703125 22.796875 
z
" id="ArialMT-97"/>
       <path d="M 6.59375 0 
L 6.59375 51.859375 
L 14.453125 51.859375 
L 14.453125 44.578125 
Q 16.890625 48.390625 20.9375 50.703125 
Q 25 53.03125 30.171875 53.03125 
Q 35.9375 53.03125 39.625 50.640625 
Q 43.3125 48.25 44.828125 43.953125 
Q 50.984375 53.03125 60.84375 53.03125 
Q 68.5625 53.03125 72.703125 48.75 
Q 76.859375 44.484375 76.859375 35.59375 
L 76.859375 0 
L 68.109375 0 
L 68.109375 32.671875 
Q 68.109375 37.9375 67.25 40.25 
Q 66.40625 42.578125 64.15625 43.984375 
Q 61.921875 45.40625 58.890625 45.40625 
Q 53.421875 45.40625 49.796875 41.765625 
Q 46.1875 38.140625 46.1875 30.125 
L 46.1875 0 
L 37.40625 0 
L 37.40625 33.6875 
Q 37.40625 39.546875 35.25 42.46875 
Q 33.109375 45.40625 28.21875 45.40625 
Q 24.515625 45.40625 21.359375 43.453125 
Q 18.21875 41.5 16.796875 37.734375 
Q 15.375 33.984375 15.375 26.90625 
L 15.375 0 
z
" id="ArialMT-109"/>
       <path d="M 6.640625 61.46875 
L 6.640625 71.578125 
L 15.4375 71.578125 
L 15.4375 61.46875 
z
M 6.640625 0 
L 6.640625 51.859375 
L 15.4375 51.859375 
L 15.4375 0 
z
" id="ArialMT-105"/>
       <path d="M 6.390625 0 
L 6.390625 71.578125 
L 15.1875 71.578125 
L 15.1875 0 
z
" id="ArialMT-108"/>
       <path d="M 6.203125 -19.96875 
L 5.21875 -11.71875 
Q 8.109375 -12.5 10.25 -12.5 
Q 13.1875 -12.5 14.9375 -11.515625 
Q 16.703125 -10.546875 17.828125 -8.796875 
Q 18.65625 -7.46875 20.515625 -2.25 
Q 20.75 -1.515625 21.296875 -0.09375 
L 1.609375 51.859375 
L 11.078125 51.859375 
L 21.875 21.828125 
Q 23.96875 16.109375 25.640625 9.8125 
Q 27.15625 15.875 29.25 21.625 
L 40.328125 51.859375 
L 49.125 51.859375 
L 29.390625 -0.875 
Q 26.21875 -9.421875 24.46875 -12.640625 
Q 22.125 -17 19.09375 -19.015625 
Q 16.0625 -21.046875 11.859375 -21.046875 
Q 9.328125 -21.046875 6.203125 -19.96875 
z
" id="ArialMT-121"/>
       <path d="M 4.5 23 
L 13.421875 23.78125 
Q 14.0625 18.40625 16.375 14.96875 
Q 18.703125 11.53125 23.578125 9.40625 
Q 28.46875 7.28125 34.578125 7.28125 
Q 39.984375 7.28125 44.140625 8.890625 
Q 48.296875 10.5 50.3125 13.296875 
Q 52.34375 16.109375 52.34375 19.4375 
Q 52.34375 22.796875 50.390625 25.3125 
Q 48.4375 27.828125 43.953125 29.546875 
Q 41.0625 30.671875 31.203125 33.03125 
Q 21.34375 35.40625 17.390625 37.5 
Q 12.25 40.1875 9.734375 44.15625 
Q 7.234375 48.140625 7.234375 53.078125 
Q 7.234375 58.5 10.296875 63.203125 
Q 13.375 67.921875 19.28125 70.359375 
Q 25.203125 72.796875 32.421875 72.796875 
Q 40.375 72.796875 46.453125 70.234375 
Q 52.546875 67.671875 55.8125 62.6875 
Q 59.078125 57.71875 59.328125 51.421875 
L 50.25 50.734375 
Q 49.515625 57.515625 45.28125 60.984375 
Q 41.0625 64.453125 32.8125 64.453125 
Q 24.21875 64.453125 20.28125 61.296875 
Q 16.359375 58.15625 16.359375 53.71875 
Q 16.359375 49.859375 19.140625 47.359375 
Q 21.875 44.875 33.421875 42.265625 
Q 44.96875 39.65625 49.265625 37.703125 
Q 55.515625 34.8125 58.484375 30.390625 
Q 61.46875 25.984375 61.46875 20.21875 
Q 61.46875 14.5 58.203125 9.4375 
Q 54.9375 4.390625 48.796875 1.578125 
Q 42.671875 -1.21875 35.015625 -1.21875 
Q 25.296875 -1.21875 18.71875 1.609375 
Q 12.15625 4.4375 8.421875 10.125 
Q 4.6875 15.828125 4.5 23 
z
" id="ArialMT-83"/>
       <path d="M 1.953125 0 
L 1.953125 7.125 
L 34.96875 45.015625 
Q 29.34375 44.734375 25.046875 44.734375 
L 3.90625 44.734375 
L 3.90625 51.859375 
L 46.296875 51.859375 
L 46.296875 46.046875 
L 18.21875 13.140625 
L 12.796875 7.125 
Q 18.703125 7.5625 23.875 7.5625 
L 47.859375 7.5625 
L 47.859375 0 
z
" id="ArialMT-122"/>
       <path d="M 42.09375 16.703125 
L 51.171875 15.578125 
Q 49.03125 7.625 43.21875 3.21875 
Q 37.40625 -1.171875 28.375 -1.171875 
Q 17 -1.171875 10.328125 5.828125 
Q 3.65625 12.84375 3.65625 25.484375 
Q 3.65625 38.578125 10.390625 45.796875 
Q 17.140625 53.03125 27.875 53.03125 
Q 38.28125 53.03125 44.875 45.953125 
Q 51.46875 38.875 51.46875 26.03125 
Q 51.46875 25.25 51.421875 23.6875 
L 12.75 23.6875 
Q 13.234375 15.140625 17.578125 10.59375 
Q 21.921875 6.0625 28.421875 6.0625 
Q 33.25 6.0625 36.671875 8.59375 
Q 40.09375 11.140625 42.09375 16.703125 
z
M 13.234375 30.90625 
L 42.1875 30.90625 
Q 41.609375 37.453125 38.875 40.71875 
Q 34.671875 45.796875 27.984375 45.796875 
Q 21.921875 45.796875 17.796875 41.75 
Q 13.671875 37.703125 13.234375 30.90625 
z
" id="ArialMT-101"/>
      </defs>
      <use xlink:href="#ArialMT-70"/>
      <use x="61.083984" xlink:href="#ArialMT-97"/>
      <use x="116.699219" xlink:href="#ArialMT-109"/>
      <use x="200" xlink:href="#ArialMT-105"/>
      <use x="222.216797" xlink:href="#ArialMT-108"/>
      <use x="244.433594" xlink:href="#ArialMT-121"/>
      <use x="294.433594" xlink:href="#ArialMT-83"/>
      <use x="361.132812" xlink:href="#ArialMT-105"/>
      <use x="383.349609" xlink:href="#ArialMT-122"/>
      <use x="433.349609" xlink:href="#ArialMT-101"/>
     </g>
    </g>
   </g>
   <g id="matplotlib.axis_2">
    <g id="ytick_1">
     <g id="line2d_7">
      <path clip-path="url(#p8a63a5a6bd)" d="M 31.99 163.78 
L 846.3939 163.78 
" style="fill:none;stroke:#ffffff;stroke-linecap:round;"/>
     </g>
     <g id="text_8">
      <!-- 0.0 -->
      <g style="fill:#262626;" transform="translate(7.2 167.716797)scale(0.11 -0.11)">
       <defs>
        <path d="M 9.078125 0 
L 9.078125 10.015625 
L 19.09375 10.015625 
L 19.09375 0 
z
" id="ArialMT-46"/>
       </defs>
       <use xlink:href="#ArialMT-48"/>
       <use x="55.615234" xlink:href="#ArialMT-46"/>
       <use x="83.398438" xlink:href="#ArialMT-48"/>
      </g>
     </g>
    </g>
    <g id="ytick_2">
     <g id="line2d_8">
      <path clip-path="url(#p8a63a5a6bd)" d="M 31.99 136.209527 
L 846.3939 136.209527 
" style="fill:none;stroke:#ffffff;stroke-linecap:round;"/>
     </g>
     <g id="text_9">
      <!-- 0.1 -->
      <g style="fill:#262626;" transform="translate(7.2 140.146324)scale(0.11 -0.11)">
       <use xlink:href="#ArialMT-48"/>
       <use x="55.615234" xlink:href="#ArialMT-46"/>
       <use x="83.398438" xlink:href="#ArialMT-49"/>
      </g>
     </g>
    </g>
    <g id="ytick_3">
     <g id="line2d_9">
      <path clip-path="url(#p8a63a5a6bd)" d="M 31.99 108.639055 
L 846.3939 108.639055 
" style="fill:none;stroke:#ffffff;stroke-linecap:round;"/>
     </g>
     <g id="text_10">
      <!-- 0.2 -->
      <g style="fill:#262626;" transform="translate(7.2 112.575852)scale(0.11 -0.11)">
       <use xlink:href="#ArialMT-48"/>
       <use x="55.615234" xlink:href="#ArialMT-46"/>
       <use x="83.398438" xlink:href="#ArialMT-50"/>
      </g>
     </g>
    </g>
    <g id="ytick_4">
     <g id="line2d_10">
      <path clip-path="url(#p8a63a5a6bd)" d="M 31.99 81.068582 
L 846.3939 81.068582 
" style="fill:none;stroke:#ffffff;stroke-linecap:round;"/>
     </g>
     <g id="text_11">
      <!-- 0.3 -->
      <g style="fill:#262626;" transform="translate(7.2 85.005379)scale(0.11 -0.11)">
       <defs>
        <path d="M 4.203125 18.890625 
L 12.984375 20.0625 
Q 14.5 12.59375 18.140625 9.296875 
Q 21.78125 6 27 6 
Q 33.203125 6 37.46875 10.296875 
Q 41.75 14.59375 41.75 20.953125 
Q 41.75 27 37.796875 30.921875 
Q 33.84375 34.859375 27.734375 34.859375 
Q 25.25 34.859375 21.53125 33.890625 
L 22.515625 41.609375 
Q 23.390625 41.5 23.921875 41.5 
Q 29.546875 41.5 34.03125 44.421875 
Q 38.53125 47.359375 38.53125 53.46875 
Q 38.53125 58.296875 35.25 61.46875 
Q 31.984375 64.65625 26.8125 64.65625 
Q 21.6875 64.65625 18.265625 61.421875 
Q 14.84375 58.203125 13.875 51.765625 
L 5.078125 53.328125 
Q 6.6875 62.15625 12.390625 67.015625 
Q 18.109375 71.875 26.609375 71.875 
Q 32.46875 71.875 37.390625 69.359375 
Q 42.328125 66.84375 44.9375 62.5 
Q 47.5625 58.15625 47.5625 53.265625 
Q 47.5625 48.640625 45.0625 44.828125 
Q 42.578125 41.015625 37.703125 38.765625 
Q 44.046875 37.3125 47.5625 32.6875 
Q 51.078125 28.078125 51.078125 21.140625 
Q 51.078125 11.765625 44.234375 5.25 
Q 37.40625 -1.265625 26.953125 -1.265625 
Q 17.53125 -1.265625 11.296875 4.34375 
Q 5.078125 9.96875 4.203125 18.890625 
z
" id="ArialMT-51"/>
       </defs>
       <use xlink:href="#ArialMT-48"/>
       <use x="55.615234" xlink:href="#ArialMT-46"/>
       <use x="83.398438" xlink:href="#ArialMT-51"/>
      </g>
     </g>
    </g>
    <g id="ytick_5">
     <g id="line2d_11">
      <path clip-path="url(#p8a63a5a6bd)" d="M 31.99 53.49811 
L 846.3939 53.49811 
" style="fill:none;stroke:#ffffff;stroke-linecap:round;"/>
     </g>
     <g id="text_12">
      <!-- 0.4 -->
      <g style="fill:#262626;" transform="translate(7.2 57.434907)scale(0.11 -0.11)">
       <use xlink:href="#ArialMT-48"/>
       <use x="55.615234" xlink:href="#ArialMT-46"/>
       <use x="83.398438" xlink:href="#ArialMT-52"/>
      </g>
     </g>
    </g>
    <g id="ytick_6">
     <g id="line2d_12">
      <path clip-path="url(#p8a63a5a6bd)" d="M 31.99 25.927637 
L 846.3939 25.927637 
" style="fill:none;stroke:#ffffff;stroke-linecap:round;"/>
     </g>
     <g id="text_13">
      <!-- 0.5 -->
      <g style="fill:#262626;" transform="translate(7.2 29.864434)scale(0.11 -0.11)">
       <defs>
        <path d="M 4.15625 18.75 
L 13.375 19.53125 
Q 14.40625 12.796875 18.140625 9.390625 
Q 21.875 6 27.15625 6 
Q 33.5 6 37.890625 10.78125 
Q 42.28125 15.578125 42.28125 23.484375 
Q 42.28125 31 38.0625 35.34375 
Q 33.84375 39.703125 27 39.703125 
Q 22.75 39.703125 19.328125 37.765625 
Q 15.921875 35.84375 13.96875 32.765625 
L 5.71875 33.84375 
L 12.640625 70.609375 
L 48.25 70.609375 
L 48.25 62.203125 
L 19.671875 62.203125 
L 15.828125 42.96875 
Q 22.265625 47.46875 29.34375 47.46875 
Q 38.71875 47.46875 45.15625 40.96875 
Q 51.609375 34.46875 51.609375 24.265625 
Q 51.609375 14.546875 45.953125 7.46875 
Q 39.0625 -1.21875 27.15625 -1.21875 
Q 17.390625 -1.21875 11.203125 4.25 
Q 5.03125 9.71875 4.15625 18.75 
z
" id="ArialMT-53"/>
       </defs>
       <use xlink:href="#ArialMT-48"/>
       <use x="55.615234" xlink:href="#ArialMT-46"/>
       <use x="83.398438" xlink:href="#ArialMT-53"/>
      </g>
     </g>
    </g>
   </g>
   <g id="PolyCollection_1">
    <path clip-path="url(#p8a63a5a6bd)" d="M -9.123234 162.174268 
L -9.123234 163.78 
L -4.24551 163.78 
L 0.632214 163.78 
L 5.509938 163.78 
L 10.387662 163.78 
L 15.265386 163.78 
L 20.14311 163.78 
L 25.020834 163.78 
L 29.898558 163.78 
L 34.776282 163.78 
L 39.654006 163.78 
L 44.53173 163.78 
L 49.409454 163.78 
L 54.287178 163.78 
L 59.164902 163.78 
L 64.042627 163.78 
L 68.920351 163.78 
L 73.798075 163.78 
L 78.675799 163.78 
L 83.553523 163.78 
L 88.431247 163.78 
L 93.308971 163.78 
L 98.186695 163.78 
L 103.064419 163.78 
L 107.942143 163.78 
L 112.819867 163.78 
L 117.697591 163.78 
L 122.575315 163.78 
L 127.453039 163.78 
L 132.330763 163.78 
L 137.208487 163.78 
L 142.086211 163.78 
L 146.963936 163.78 
L 151.84166 163.78 
L 156.719384 163.78 
L 161.597108 163.78 
L 166.474832 163.78 
L 171.352556 163.78 
L 176.23028 163.78 
L 181.108004 163.78 
L 185.985728 163.78 
L 190.863452 163.78 
L 195.741176 163.78 
L 200.6189 163.78 
L 205.496624 163.78 
L 210.374348 163.78 
L 215.252072 163.78 
L 220.129796 163.78 
L 225.00752 163.78 
L 229.885244 163.78 
L 234.762969 163.78 
L 239.640693 163.78 
L 244.518417 163.78 
L 249.396141 163.78 
L 254.273865 163.78 
L 259.151589 163.78 
L 264.029313 163.78 
L 268.907037 163.78 
L 273.784761 163.78 
L 278.662485 163.78 
L 283.540209 163.78 
L 288.417933 163.78 
L 293.295657 163.78 
L 298.173381 163.78 
L 303.051105 163.78 
L 307.928829 163.78 
L 312.806553 163.78 
L 317.684278 163.78 
L 322.562002 163.78 
L 327.439726 163.78 
L 332.31745 163.78 
L 337.195174 163.78 
L 342.072898 163.78 
L 346.950622 163.78 
L 351.828346 163.78 
L 356.70607 163.78 
L 361.583794 163.78 
L 366.461518 163.78 
L 371.339242 163.78 
L 376.216966 163.78 
L 381.09469 163.78 
L 385.972414 163.78 
L 390.850138 163.78 
L 395.727862 163.78 
L 400.605586 163.78 
L 405.483311 163.78 
L 410.361035 163.78 
L 415.238759 163.78 
L 420.116483 163.78 
L 424.994207 163.78 
L 429.871931 163.78 
L 434.749655 163.78 
L 439.627379 163.78 
L 444.505103 163.78 
L 449.382827 163.78 
L 454.260551 163.78 
L 459.138275 163.78 
L 464.015999 163.78 
L 468.893723 163.78 
L 473.771447 163.78 
L 478.649171 163.78 
L 483.526895 163.78 
L 488.404619 163.78 
L 493.282344 163.78 
L 498.160068 163.78 
L 503.037792 163.78 
L 507.915516 163.78 
L 512.79324 163.78 
L 517.670964 163.78 
L 522.548688 163.78 
L 527.426412 163.78 
L 532.304136 163.78 
L 537.18186 163.78 
L 542.059584 163.78 
L 546.937308 163.78 
L 551.815032 163.78 
L 556.692756 163.78 
L 561.57048 163.78 
L 566.448204 163.78 
L 571.325928 163.78 
L 576.203653 163.78 
L 581.081377 163.78 
L 585.959101 163.78 
L 590.836825 163.78 
L 595.714549 163.78 
L 600.592273 163.78 
L 605.469997 163.78 
L 610.347721 163.78 
L 615.225445 163.78 
L 620.103169 163.78 
L 624.980893 163.78 
L 629.858617 163.78 
L 634.736341 163.78 
L 639.614065 163.78 
L 644.491789 163.78 
L 649.369513 163.78 
L 654.247237 163.78 
L 659.124961 163.78 
L 664.002686 163.78 
L 668.88041 163.78 
L 673.758134 163.78 
L 678.635858 163.78 
L 683.513582 163.78 
L 688.391306 163.78 
L 693.26903 163.78 
L 698.146754 163.78 
L 703.024478 163.78 
L 707.902202 163.78 
L 712.779926 163.78 
L 717.65765 163.78 
L 722.535374 163.78 
L 727.413098 163.78 
L 732.290822 163.78 
L 737.168546 163.78 
L 742.04627 163.78 
L 746.923994 163.78 
L 751.801719 163.78 
L 756.679443 163.78 
L 761.557167 163.78 
L 766.434891 163.78 
L 771.312615 163.78 
L 776.190339 163.78 
L 781.068063 163.78 
L 785.945787 163.78 
L 790.823511 163.78 
L 795.701235 163.78 
L 800.578959 163.78 
L 805.456683 163.78 
L 810.334407 163.78 
L 815.212131 163.78 
L 820.089855 163.78 
L 824.967579 163.78 
L 829.845303 163.78 
L 834.723028 163.78 
L 839.600752 163.78 
L 844.478476 163.78 
L 849.3562 163.78 
L 854.233924 163.78 
L 859.111648 163.78 
L 863.989372 163.78 
L 868.867096 163.78 
L 873.74482 163.78 
L 878.622544 163.78 
L 883.500268 163.78 
L 888.377992 163.78 
L 893.255716 163.78 
L 898.13344 163.78 
L 903.011164 163.78 
L 907.888888 163.78 
L 912.766612 163.78 
L 917.644336 163.78 
L 922.522061 163.78 
L 927.399785 163.78 
L 932.277509 163.78 
L 937.155233 163.78 
L 942.032957 163.78 
L 946.910681 163.78 
L 951.788405 163.78 
L 956.666129 163.78 
L 961.543853 163.78 
L 961.543853 163.749949 
L 961.543853 163.749949 
L 956.666129 163.736356 
L 951.788405 163.717631 
L 946.910681 163.692298 
L 942.032957 163.658653 
L 937.155233 163.614789 
L 932.277509 163.558673 
L 927.399785 163.488247 
L 922.522061 163.401571 
L 917.644336 163.297009 
L 912.766612 163.173431 
L 907.888888 163.030437 
L 903.011164 162.868572 
L 898.13344 162.689506 
L 893.255716 162.49616 
L 888.377992 162.292747 
L 883.500268 162.084705 
L 878.622544 161.878518 
L 873.74482 161.681418 
L 868.867096 161.500992 
L 863.989372 161.3447 
L 859.111648 161.219378 
L 854.233924 161.130737 
L 849.3562 161.082936 
L 844.478476 161.078258 
L 839.600752 161.116927 
L 834.723028 161.197093 
L 829.845303 161.314976 
L 824.967579 161.465165 
L 820.089855 161.641024 
L 815.212131 161.835183 
L 810.334407 162.04004 
L 805.456683 162.248246 
L 800.578959 162.453123 
L 795.701235 162.64898 
L 790.823511 162.83132 
L 785.945787 162.996923 
L 781.068063 163.143822 
L 776.190339 163.271195 
L 771.312615 163.379175 
L 766.434891 163.468638 
L 761.557167 163.540962 
L 756.679443 163.597798 
L 751.801719 163.640863 
L 746.923994 163.671761 
L 742.04627 163.691842 
L 737.168546 163.702101 
L 732.290822 163.703115 
L 727.413098 163.695008 
L 722.535374 163.677458 
L 717.65765 163.649732 
L 712.779926 163.610751 
L 707.902202 163.559188 
L 703.024478 163.493601 
L 698.146754 163.412585 
L 693.26903 163.314948 
L 688.391306 163.199903 
L 683.513582 163.067244 
L 678.635858 162.917509 
L 673.758134 162.752089 
L 668.88041 162.573275 
L 664.002686 162.384223 
L 659.124961 162.188822 
L 654.247237 161.991473 
L 649.369513 161.796779 
L 644.491789 161.609192 
L 639.614065 161.432626 
L 634.736341 161.270102 
L 629.858617 161.123468 
L 624.980893 160.99321 
L 620.103169 160.878425 
L 615.225445 160.776925 
L 610.347721 160.685492 
L 605.469997 160.600235 
L 600.592273 160.517019 
L 595.714549 160.431878 
L 590.836825 160.341382 
L 585.959101 160.242873 
L 581.081377 160.134561 
L 576.203653 160.015441 
L 571.325928 159.88507 
L 566.448204 159.743245 
L 561.57048 159.589638 
L 556.692756 159.423481 
L 551.815032 159.24337 
L 546.937308 159.047256 
L 542.059584 158.832647 
L 537.18186 158.597023 
L 532.304136 158.33842 
L 527.426412 158.056094 
L 522.548688 157.751177 
L 517.670964 157.427181 
L 512.79324 157.090276 
L 507.915516 156.749228 
L 503.037792 156.414994 
L 498.160068 156.099963 
L 493.282344 155.816934 
L 488.404619 155.577931 
L 483.526895 155.393022 
L 478.649171 155.269283 
L 473.771447 155.210062 
L 468.893723 155.214645 
L 464.015999 155.278378 
L 459.138275 155.393229 
L 454.260551 155.548723 
L 449.382827 155.733121 
L 444.505103 155.934675 
L 439.627379 156.142803 
L 434.749655 156.349024 
L 429.871931 156.547545 
L 424.994207 156.73543 
L 420.116483 156.912366 
L 415.238759 157.080088 
L 410.361035 157.241556 
L 405.483311 157.400037 
L 400.605586 157.558217 
L 395.727862 157.717473 
L 390.850138 157.877389 
L 385.972414 158.035551 
L 381.09469 158.187613 
L 376.216966 158.32758 
L 371.339242 158.448223 
L 366.461518 158.541531 
L 361.583794 158.599101 
L 356.70607 158.612427 
L 351.828346 158.573041 
L 346.950622 158.472539 
L 342.072898 158.302542 
L 337.195174 158.054686 
L 332.31745 157.720725 
L 327.439726 157.292835 
L 322.562002 156.764152 
L 317.684278 156.129546 
L 312.806553 155.386556 
L 307.928829 154.536361 
L 303.051105 153.58462 
L 298.173381 152.541982 
L 293.295657 151.424109 
L 288.417933 150.251065 
L 283.540209 149.046049 
L 278.662485 147.833502 
L 273.784761 146.636761 
L 268.907037 145.475518 
L 264.029313 144.363375 
L 259.151589 143.305857 
L 254.273865 142.299127 
L 249.396141 141.329638 
L 244.518417 140.374741 
L 239.640693 139.404158 
L 234.762969 138.382046 
L 229.885244 137.26927 
L 225.00752 136.02543 
L 220.129796 134.610244 
L 215.252072 132.983954 
L 210.374348 131.106677 
L 205.496624 128.936833 
L 200.6189 126.429074 
L 195.741176 123.532359 
L 190.863452 120.188969 
L 185.985728 116.335294 
L 181.108004 111.905043 
L 176.23028 106.83529 
L 171.352556 101.075269 
L 166.474832 94.597386 
L 161.597108 87.409346 
L 156.719384 79.565889 
L 151.84166 71.17836 
L 146.963936 62.42032 
L 142.086211 53.527647 
L 137.208487 44.792135 
L 132.330763 36.54831 
L 127.453039 29.15408 
L 122.575315 22.966698 
L 117.697591 18.31626 
L 112.819867 15.479423 
L 107.942143 14.65619 
L 103.064419 15.952335 
L 98.186695 19.369456 
L 93.308971 24.803775 
L 88.431247 32.053776 
L 83.553523 40.835753 
L 78.675799 50.805484 
L 73.798075 61.583628 
L 68.920351 72.782186 
L 64.042627 84.029442 
L 59.164902 94.991205 
L 54.287178 105.386785 
L 49.409454 114.998885 
L 44.53173 123.677347 
L 39.654006 131.337324 
L 34.776282 137.952959 
L 29.898558 143.547897 
L 25.020834 148.184079 
L 20.14311 151.950104 
L 15.265386 154.950261 
L 10.387662 157.295007 
L 5.509938 159.093333 
L 0.632214 160.447193 
L -4.24551 161.447902 
L -9.123234 162.174268 
z
" style="fill:#4c72b0;fill-opacity:0.25;stroke:#4c72b0;"/>
   </g>
   <g id="PolyCollection_2">
    <defs>
     <path d="M 24.015053 -43.598288 
L 24.015053 -42.021094 
L 27.071554 -42.021094 
L 30.128055 -42.021094 
L 33.184556 -42.021094 
L 36.241056 -42.021094 
L 39.297557 -42.021094 
L 42.354058 -42.021094 
L 45.410558 -42.021094 
L 48.467059 -42.021094 
L 51.52356 -42.021094 
L 54.58006 -42.021094 
L 57.636561 -42.021094 
L 60.693062 -42.021094 
L 63.749562 -42.021094 
L 66.806063 -42.021094 
L 69.862564 -42.021094 
L 72.919065 -42.021094 
L 75.975565 -42.021094 
L 79.032066 -42.021094 
L 82.088567 -42.021094 
L 85.145067 -42.021094 
L 88.201568 -42.021094 
L 91.258069 -42.021094 
L 94.314569 -42.021094 
L 97.37107 -42.021094 
L 100.427571 -42.021094 
L 103.484072 -42.021094 
L 106.540572 -42.021094 
L 109.597073 -42.021094 
L 112.653574 -42.021094 
L 115.710074 -42.021094 
L 118.766575 -42.021094 
L 121.823076 -42.021094 
L 124.879576 -42.021094 
L 127.936077 -42.021094 
L 130.992578 -42.021094 
L 134.049079 -42.021094 
L 137.105579 -42.021094 
L 140.16208 -42.021094 
L 143.218581 -42.021094 
L 146.275081 -42.021094 
L 149.331582 -42.021094 
L 152.388083 -42.021094 
L 155.444583 -42.021094 
L 158.501084 -42.021094 
L 161.557585 -42.021094 
L 164.614086 -42.021094 
L 167.670586 -42.021094 
L 170.727087 -42.021094 
L 173.783588 -42.021094 
L 176.840088 -42.021094 
L 179.896589 -42.021094 
L 182.95309 -42.021094 
L 186.00959 -42.021094 
L 189.066091 -42.021094 
L 192.122592 -42.021094 
L 195.179093 -42.021094 
L 198.235593 -42.021094 
L 201.292094 -42.021094 
L 204.348595 -42.021094 
L 207.405095 -42.021094 
L 210.461596 -42.021094 
L 213.518097 -42.021094 
L 216.574597 -42.021094 
L 219.631098 -42.021094 
L 222.687599 -42.021094 
L 225.7441 -42.021094 
L 228.8006 -42.021094 
L 231.857101 -42.021094 
L 234.913602 -42.021094 
L 237.970102 -42.021094 
L 241.026603 -42.021094 
L 244.083104 -42.021094 
L 247.139604 -42.021094 
L 250.196105 -42.021094 
L 253.252606 -42.021094 
L 256.309106 -42.021094 
L 259.365607 -42.021094 
L 262.422108 -42.021094 
L 265.478609 -42.021094 
L 268.535109 -42.021094 
L 271.59161 -42.021094 
L 274.648111 -42.021094 
L 277.704611 -42.021094 
L 280.761112 -42.021094 
L 283.817613 -42.021094 
L 286.874113 -42.021094 
L 289.930614 -42.021094 
L 292.987115 -42.021094 
L 296.043616 -42.021094 
L 299.100116 -42.021094 
L 302.156617 -42.021094 
L 305.213118 -42.021094 
L 308.269618 -42.021094 
L 311.326119 -42.021094 
L 314.38262 -42.021094 
L 317.43912 -42.021094 
L 320.495621 -42.021094 
L 323.552122 -42.021094 
L 326.608623 -42.021094 
L 329.665123 -42.021094 
L 332.721624 -42.021094 
L 335.778125 -42.021094 
L 338.834625 -42.021094 
L 341.891126 -42.021094 
L 344.947627 -42.021094 
L 348.004127 -42.021094 
L 351.060628 -42.021094 
L 354.117129 -42.021094 
L 357.17363 -42.021094 
L 360.23013 -42.021094 
L 363.286631 -42.021094 
L 366.343132 -42.021094 
L 369.399632 -42.021094 
L 372.456133 -42.021094 
L 375.512634 -42.021094 
L 378.569134 -42.021094 
L 381.625635 -42.021094 
L 384.682136 -42.021094 
L 387.738637 -42.021094 
L 390.795137 -42.021094 
L 393.851638 -42.021094 
L 396.908139 -42.021094 
L 399.964639 -42.021094 
L 403.02114 -42.021094 
L 406.077641 -42.021094 
L 409.134141 -42.021094 
L 412.190642 -42.021094 
L 415.247143 -42.021094 
L 418.303643 -42.021094 
L 421.360144 -42.021094 
L 424.416645 -42.021094 
L 427.473146 -42.021094 
L 430.529646 -42.021094 
L 433.586147 -42.021094 
L 436.642648 -42.021094 
L 439.699148 -42.021094 
L 442.755649 -42.021094 
L 445.81215 -42.021094 
L 448.86865 -42.021094 
L 451.925151 -42.021094 
L 454.981652 -42.021094 
L 458.038153 -42.021094 
L 461.094653 -42.021094 
L 464.151154 -42.021094 
L 467.207655 -42.021094 
L 470.264155 -42.021094 
L 473.320656 -42.021094 
L 476.377157 -42.021094 
L 479.433657 -42.021094 
L 482.490158 -42.021094 
L 485.546659 -42.021094 
L 488.60316 -42.021094 
L 491.65966 -42.021094 
L 494.716161 -42.021094 
L 497.772662 -42.021094 
L 500.829162 -42.021094 
L 503.885663 -42.021094 
L 506.942164 -42.021094 
L 509.998664 -42.021094 
L 513.055165 -42.021094 
L 516.111666 -42.021094 
L 519.168167 -42.021094 
L 522.224667 -42.021094 
L 525.281168 -42.021094 
L 528.337669 -42.021094 
L 531.394169 -42.021094 
L 534.45067 -42.021094 
L 537.507171 -42.021094 
L 540.563671 -42.021094 
L 543.620172 -42.021094 
L 546.676673 -42.021094 
L 549.733174 -42.021094 
L 552.789674 -42.021094 
L 555.846175 -42.021094 
L 558.902676 -42.021094 
L 561.959176 -42.021094 
L 565.015677 -42.021094 
L 568.072178 -42.021094 
L 571.128678 -42.021094 
L 574.185179 -42.021094 
L 577.24168 -42.021094 
L 580.298181 -42.021094 
L 583.354681 -42.021094 
L 586.411182 -42.021094 
L 589.467683 -42.021094 
L 592.524183 -42.021094 
L 595.580684 -42.021094 
L 598.637185 -42.021094 
L 601.693685 -42.021094 
L 604.750186 -42.021094 
L 607.806687 -42.021094 
L 610.863187 -42.021094 
L 613.919688 -42.021094 
L 616.976189 -42.021094 
L 620.03269 -42.021094 
L 623.08919 -42.021094 
L 626.145691 -42.021094 
L 629.202192 -42.021094 
L 632.258692 -42.021094 
L 632.258692 -42.059798 
L 632.258692 -42.059798 
L 629.202192 -42.074886 
L 626.145691 -42.094926 
L 623.08919 -42.121174 
L 620.03269 -42.155067 
L 616.976189 -42.198212 
L 613.919688 -42.252342 
L 610.863187 -42.319266 
L 607.806687 -42.400783 
L 604.750186 -42.498583 
L 601.693685 -42.614118 
L 598.637185 -42.748467 
L 595.580684 -42.902182 
L 592.524183 -43.075143 
L 589.467683 -43.266425 
L 586.411182 -43.474195 
L 583.354681 -43.695648 
L 580.298181 -43.927003 
L 577.24168 -44.163566 
L 574.185179 -44.399861 
L 571.128678 -44.629837 
L 568.072178 -44.847133 
L 565.015677 -45.045405 
L 561.959176 -45.21868 
L 558.902676 -45.361712 
L 555.846175 -45.470332 
L 552.789674 -45.541738 
L 549.733174 -45.574721 
L 546.676673 -45.569791 
L 543.620172 -45.529206 
L 540.563671 -45.456874 
L 537.507171 -45.358157 
L 534.45067 -45.239575 
L 531.394169 -45.108427 
L 528.337669 -44.97237 
L 525.281168 -44.838963 
L 522.224667 -44.715232 
L 519.168167 -44.607263 
L 516.111666 -44.519863 
L 513.055165 -44.456307 
L 509.998664 -44.418185 
L 506.942164 -44.405356 
L 503.885663 -44.416017 
L 500.829162 -44.446873 
L 497.772662 -44.493399 
L 494.716161 -44.550177 
L 491.65966 -44.611284 
L 488.60316 -44.670706 
L 485.546659 -44.722753 
L 482.490158 -44.762435 
L 479.433657 -44.785802 
L 476.377157 -44.790195 
L 473.320656 -44.774407 
L 470.264155 -44.738756 
L 467.207655 -44.685033 
L 464.151154 -44.616369 
L 461.094653 -44.537002 
L 458.038153 -44.451976 
L 454.981652 -44.366789 
L 451.925151 -44.287012 
L 448.86865 -44.217922 
L 445.81215 -44.164141 
L 442.755649 -44.12935 
L 439.699148 -44.116054 
L 436.642648 -44.125451 
L 433.586147 -44.157396 
L 430.529646 -44.210466 
L 427.473146 -44.282139 
L 424.416645 -44.369062 
L 421.360144 -44.467411 
L 418.303643 -44.573309 
L 415.247143 -44.68329 
L 412.190642 -44.794774 
L 409.134141 -44.906517 
L 406.077641 -45.019016 
L 403.02114 -45.134814 
L 399.964639 -45.258698 
L 396.908139 -45.397735 
L 393.851638 -45.561148 
L 390.795137 -45.760003 
L 387.738637 -46.006711 
L 384.682136 -46.314346 
L 381.625635 -46.695818 
L 378.569134 -47.162917 
L 375.512634 -47.725302 
L 372.456133 -48.389484 
L 369.399632 -49.157884 
L 366.343132 -50.028056 
L 363.286631 -50.99215 
L 360.23013 -52.036695 
L 357.17363 -53.14277 
L 354.117129 -54.2866 
L 351.060628 -55.440592 
L 348.004127 -56.574798 
L 344.947627 -57.658727 
L 341.891126 -58.663434 
L 338.834625 -59.563739 
L 335.778125 -60.340429 
L 332.721624 -60.982275 
L 329.665123 -61.487682 
L 326.608623 -61.865821 
L 323.552122 -62.13711 
L 320.495621 -62.332931 
L 317.43912 -62.494554 
L 314.38262 -62.67126 
L 311.326119 -62.91773 
L 308.269618 -63.290816 
L 305.213118 -63.845869 
L 302.156617 -64.63284 
L 299.100116 -65.692397 
L 296.043616 -67.05233 
L 292.987115 -68.724522 
L 289.930614 -70.702738 
L 286.874113 -72.961457 
L 283.817613 -75.45593 
L 280.761112 -78.12355 
L 277.704611 -80.886569 
L 274.648111 -83.656057 
L 271.59161 -86.33694 
L 268.535109 -88.833818 
L 265.478609 -91.057219 
L 262.422108 -92.929846 
L 259.365607 -94.392369 
L 256.309106 -95.408326 
L 253.252606 -95.967704 
L 250.196105 -96.088893 
L 247.139604 -95.818778 
L 244.083104 -95.230891 
L 241.026603 -94.421664 
L 237.970102 -93.504976 
L 234.913602 -92.605309 
L 231.857101 -91.849938 
L 228.8006 -91.360647 
L 225.7441 -91.245527 
L 222.687599 -91.591404 
L 219.631098 -92.457423 
L 216.574597 -93.870266 
L 213.518097 -95.821381 
L 210.461596 -98.26649 
L 207.405095 -101.127498 
L 204.348595 -104.296794 
L 201.292094 -107.64374 
L 198.235593 -111.023026 
L 195.179093 -114.284389 
L 192.122592 -117.2831 
L 189.066091 -119.890519 
L 186.00959 -122.003977 
L 182.95309 -123.555276 
L 179.896589 -124.517138 
L 176.840088 -124.907053 
L 173.783588 -124.788164 
L 170.727087 -124.266978 
L 167.670586 -123.487961 
L 164.614086 -122.625227 
L 161.557585 -121.871805 
L 158.501084 -121.427085 
L 155.444583 -121.48324 
L 152.388083 -122.211451 
L 149.331582 -123.748871 
L 146.275081 -126.187191 
L 143.218581 -129.563645 
L 140.16208 -133.855126 
L 137.105579 -138.975951 
L 134.049079 -144.779561 
L 130.992578 -151.064215 
L 127.936077 -157.582441 
L 124.879576 -164.053759 
L 121.823076 -170.179902 
L 118.766575 -175.661584 
L 115.710074 -180.215672 
L 112.653574 -183.591585 
L 109.597073 -185.585754 
L 106.540572 -186.053108 
L 103.484072 -184.914789 
L 100.427571 -182.161569 
L 97.37107 -177.85282 
L 94.314569 -172.111227 
L 91.258069 -165.113785 
L 88.201568 -157.079892 
L 85.145067 -148.257553 
L 82.088567 -138.908814 
L 79.032066 -129.295504 
L 75.975565 -119.666285 
L 72.919065 -110.24579 
L 69.862564 -101.2264 
L 66.806063 -92.762926 
L 63.749562 -84.970195 
L 60.693062 -77.923326 
L 57.636561 -71.660263 
L 54.58006 -66.186059 
L 51.52356 -61.478309 
L 48.467059 -57.493173 
L 45.410558 -54.171463 
L 42.354058 -51.444384 
L 39.297557 -49.238608 
L 36.241056 -47.480487 
L 33.184556 -46.099333 
L 30.128055 -45.029748 
L 27.071554 -44.213107 
L 24.015053 -43.598288 
z
" id="m036df76102" style="stroke:#dd8452;"/>
    </defs>
    <g clip-path="url(#p8a63a5a6bd)">
     <use style="fill:#dd8452;fill-opacity:0.25;stroke:#dd8452;" x="0" xlink:href="#m036df76102" y="205.801094"/>
    </g>
   </g>
   <g id="patch_3">
    <path d="M 31.99 163.78 
L 31.99 7.2 
" style="fill:none;stroke:#ffffff;stroke-linecap:square;stroke-linejoin:miter;stroke-width:1.25;"/>
   </g>
   <g id="patch_4">
    <path d="M 31.99 163.78 
L 846.3939 163.78 
" style="fill:none;stroke:#ffffff;stroke-linecap:square;stroke-linejoin:miter;stroke-width:1.25;"/>
   </g>
  </g>
  <g id="legend_1">
   <g id="text_14">
    <!-- Survived -->
    <g style="fill:#262626;" transform="translate(856.253775 90.442891)scale(0.12 -0.12)">
     <defs>
      <path d="M 40.578125 0 
L 40.578125 7.625 
Q 34.515625 -1.171875 24.125 -1.171875 
Q 19.53125 -1.171875 15.546875 0.578125 
Q 11.578125 2.34375 9.640625 5 
Q 7.71875 7.671875 6.9375 11.53125 
Q 6.390625 14.109375 6.390625 19.734375 
L 6.390625 51.859375 
L 15.1875 51.859375 
L 15.1875 23.09375 
Q 15.1875 16.21875 15.71875 13.8125 
Q 16.546875 10.359375 19.234375 8.375 
Q 21.921875 6.390625 25.875 6.390625 
Q 29.828125 6.390625 33.296875 8.421875 
Q 36.765625 10.453125 38.203125 13.9375 
Q 39.65625 17.4375 39.65625 24.078125 
L 39.65625 51.859375 
L 48.4375 51.859375 
L 48.4375 0 
z
" id="ArialMT-117"/>
      <path d="M 6.5 0 
L 6.5 51.859375 
L 14.40625 51.859375 
L 14.40625 44 
Q 17.4375 49.515625 20 51.265625 
Q 22.5625 53.03125 25.640625 53.03125 
Q 30.078125 53.03125 34.671875 50.203125 
L 31.640625 42.046875 
Q 28.421875 43.953125 25.203125 43.953125 
Q 22.3125 43.953125 20.015625 42.21875 
Q 17.71875 40.484375 16.75 37.40625 
Q 15.28125 32.71875 15.28125 27.15625 
L 15.28125 0 
z
" id="ArialMT-114"/>
      <path d="M 21 0 
L 1.265625 51.859375 
L 10.546875 51.859375 
L 21.6875 20.796875 
Q 23.484375 15.765625 25 10.359375 
Q 26.171875 14.453125 28.265625 20.21875 
L 39.796875 51.859375 
L 48.828125 51.859375 
L 29.203125 0 
z
" id="ArialMT-118"/>
      <path d="M 40.234375 0 
L 40.234375 6.546875 
Q 35.296875 -1.171875 25.734375 -1.171875 
Q 19.53125 -1.171875 14.328125 2.25 
Q 9.125 5.671875 6.265625 11.796875 
Q 3.421875 17.921875 3.421875 25.875 
Q 3.421875 33.640625 6 39.96875 
Q 8.59375 46.296875 13.765625 49.65625 
Q 18.953125 53.03125 25.34375 53.03125 
Q 30.03125 53.03125 33.6875 51.046875 
Q 37.359375 49.078125 39.65625 45.90625 
L 39.65625 71.578125 
L 48.390625 71.578125 
L 48.390625 0 
z
M 12.453125 25.875 
Q 12.453125 15.921875 16.640625 10.984375 
Q 20.84375 6.0625 26.5625 6.0625 
Q 32.328125 6.0625 36.34375 10.765625 
Q 40.375 15.484375 40.375 25.140625 
Q 40.375 35.796875 36.265625 40.765625 
Q 32.171875 45.75 26.171875 45.75 
Q 20.3125 45.75 16.375 40.96875 
Q 12.453125 36.1875 12.453125 25.875 
z
" id="ArialMT-100"/>
     </defs>
     <use xlink:href="#ArialMT-83"/>
     <use x="66.699219" xlink:href="#ArialMT-117"/>
     <use x="122.314453" xlink:href="#ArialMT-114"/>
     <use x="155.615234" xlink:href="#ArialMT-118"/>
     <use x="205.615234" xlink:href="#ArialMT-105"/>
     <use x="227.832031" xlink:href="#ArialMT-118"/>
     <use x="277.832031" xlink:href="#ArialMT-101"/>
     <use x="333.447266" xlink:href="#ArialMT-100"/>
    </g>
   </g>
   <g id="patch_5">
    <path d="M 861.138072 106.201484 
L 883.138072 106.201484 
L 883.138072 98.501484 
L 861.138072 98.501484 
z
" style="fill:#4c72b0;fill-opacity:0.25;stroke:#4c72b0;stroke-linejoin:miter;"/>
   </g>
   <g id="text_15">
    <!-- 0 -->
    <g style="fill:#262626;" transform="translate(891.938072 106.201484)scale(0.11 -0.11)">
     <use xlink:href="#ArialMT-48"/>
    </g>
   </g>
   <g id="patch_6">
    <path d="M 861.138072 121.761328 
L 883.138072 121.761328 
L 883.138072 114.061328 
L 861.138072 114.061328 
z
" style="fill:#dd8452;fill-opacity:0.25;stroke:#dd8452;stroke-linejoin:miter;"/>
   </g>
   <g id="text_16">
    <!-- 1 -->
    <g style="fill:#262626;" transform="translate(891.938072 121.761328)scale(0.11 -0.11)">
     <use xlink:href="#ArialMT-49"/>
    </g>
   </g>
  </g>
 </g>
 <defs>
  <clipPath id="p8a63a5a6bd">
   <rect height="156.58" width="814.4039" x="31.99" y="7.2"/>
  </clipPath>
 </defs>
</svg>
