<?xml version="1.0" encoding="utf-8" standalone="no"?>
<!DOCTYPE svg PUBLIC "-//W3C//DTD SVG 1.1//EN"
  "http://www.w3.org/Graphics/SVG/1.1/DTD/svg11.dtd">
<!-- Created with matplotlib (https://matplotlib.org/) -->
<svg height="265.995469pt" version="1.1" viewBox="0 0 393.732813 265.995469" width="393.732813pt" xmlns="http://www.w3.org/2000/svg" xmlns:xlink="http://www.w3.org/1999/xlink">
 <metadata>
  <rdf:RDF xmlns:cc="http://creativecommons.org/ns#" xmlns:dc="http://purl.org/dc/elements/1.1/" xmlns:rdf="http://www.w3.org/1999/02/22-rdf-syntax-ns#">
   <cc:Work>
    <dc:type rdf:resource="http://purl.org/dc/dcmitype/StillImage"/>
    <dc:date>2020-10-06T18:12:32.080916</dc:date>
    <dc:format>image/svg+xml</dc:format>
    <dc:creator>
     <cc:Agent>
      <dc:title>Matplotlib v3.3.2, https://matplotlib.org/</dc:title>
     </cc:Agent>
    </dc:creator>
   </cc:Work>
  </rdf:RDF>
 </metadata>
 <defs>
  <style type="text/css">*{stroke-linecap:butt;stroke-linejoin:round;}</style>
 </defs>
 <g id="figure_1">
  <g id="patch_1">
   <path d="M 0 265.995469 
L 393.732813 265.995469 
L 393.732813 0 
L 0 0 
z
" style="fill:none;"/>
  </g>
  <g id="axes_1">
   <g id="patch_2">
    <path d="M 43.78125 228.439219 
L 378.58125 228.439219 
L 378.58125 10.999219 
L 43.78125 10.999219 
z
" style="fill:#ffffff;"/>
   </g>
   <g id="matplotlib.axis_1">
    <g id="xtick_1">
     <g id="line2d_1">
      <defs>
       <path d="M 0 0 
L 0 3.5 
" id="m6587144c6c" style="stroke:#000000;stroke-width:0.8;"/>
      </defs>
      <g>
       <use style="stroke:#000000;stroke-width:0.8;" x="43.78125" xlink:href="#m6587144c6c" y="228.439219"/>
      </g>
     </g>
     <g id="text_1">
      <!-- 0.0 -->
      <g transform="translate(35.829688 243.037656)scale(0.1 -0.1)">
       <defs>
        <path d="M 31.78125 66.40625 
Q 24.171875 66.40625 20.328125 58.90625 
Q 16.5 51.421875 16.5 36.375 
Q 16.5 21.390625 20.328125 13.890625 
Q 24.171875 6.390625 31.78125 6.390625 
Q 39.453125 6.390625 43.28125 13.890625 
Q 47.125 21.390625 47.125 36.375 
Q 47.125 51.421875 43.28125 58.90625 
Q 39.453125 66.40625 31.78125 66.40625 
z
M 31.78125 74.21875 
Q 44.046875 74.21875 50.515625 64.515625 
Q 56.984375 54.828125 56.984375 36.375 
Q 56.984375 17.96875 50.515625 8.265625 
Q 44.046875 -1.421875 31.78125 -1.421875 
Q 19.53125 -1.421875 13.0625 8.265625 
Q 6.59375 17.96875 6.59375 36.375 
Q 6.59375 54.828125 13.0625 64.515625 
Q 19.53125 74.21875 31.78125 74.21875 
z
" id="DejaVuSans-48"/>
        <path d="M 10.6875 12.40625 
L 21 12.40625 
L 21 0 
L 10.6875 0 
z
" id="DejaVuSans-46"/>
       </defs>
       <use xlink:href="#DejaVuSans-48"/>
       <use x="63.623047" xlink:href="#DejaVuSans-46"/>
       <use x="95.410156" xlink:href="#DejaVuSans-48"/>
      </g>
     </g>
    </g>
    <g id="xtick_2">
     <g id="line2d_2">
      <g>
       <use style="stroke:#000000;stroke-width:0.8;" x="110.74125" xlink:href="#m6587144c6c" y="228.439219"/>
      </g>
     </g>
     <g id="text_2">
      <!-- 0.2 -->
      <g transform="translate(102.789688 243.037656)scale(0.1 -0.1)">
       <defs>
        <path d="M 19.1875 8.296875 
L 53.609375 8.296875 
L 53.609375 0 
L 7.328125 0 
L 7.328125 8.296875 
Q 12.9375 14.109375 22.625 23.890625 
Q 32.328125 33.6875 34.8125 36.53125 
Q 39.546875 41.84375 41.421875 45.53125 
Q 43.3125 49.21875 43.3125 52.78125 
Q 43.3125 58.59375 39.234375 62.25 
Q 35.15625 65.921875 28.609375 65.921875 
Q 23.96875 65.921875 18.8125 64.3125 
Q 13.671875 62.703125 7.8125 59.421875 
L 7.8125 69.390625 
Q 13.765625 71.78125 18.9375 73 
Q 24.125 74.21875 28.421875 74.21875 
Q 39.75 74.21875 46.484375 68.546875 
Q 53.21875 62.890625 53.21875 53.421875 
Q 53.21875 48.921875 51.53125 44.890625 
Q 49.859375 40.875 45.40625 35.40625 
Q 44.1875 33.984375 37.640625 27.21875 
Q 31.109375 20.453125 19.1875 8.296875 
z
" id="DejaVuSans-50"/>
       </defs>
       <use xlink:href="#DejaVuSans-48"/>
       <use x="63.623047" xlink:href="#DejaVuSans-46"/>
       <use x="95.410156" xlink:href="#DejaVuSans-50"/>
      </g>
     </g>
    </g>
    <g id="xtick_3">
     <g id="line2d_3">
      <g>
       <use style="stroke:#000000;stroke-width:0.8;" x="177.70125" xlink:href="#m6587144c6c" y="228.439219"/>
      </g>
     </g>
     <g id="text_3">
      <!-- 0.4 -->
      <g transform="translate(169.749688 243.037656)scale(0.1 -0.1)">
       <defs>
        <path d="M 37.796875 64.3125 
L 12.890625 25.390625 
L 37.796875 25.390625 
z
M 35.203125 72.90625 
L 47.609375 72.90625 
L 47.609375 25.390625 
L 58.015625 25.390625 
L 58.015625 17.1875 
L 47.609375 17.1875 
L 47.609375 0 
L 37.796875 0 
L 37.796875 17.1875 
L 4.890625 17.1875 
L 4.890625 26.703125 
z
" id="DejaVuSans-52"/>
       </defs>
       <use xlink:href="#DejaVuSans-48"/>
       <use x="63.623047" xlink:href="#DejaVuSans-46"/>
       <use x="95.410156" xlink:href="#DejaVuSans-52"/>
      </g>
     </g>
    </g>
    <g id="xtick_4">
     <g id="line2d_4">
      <g>
       <use style="stroke:#000000;stroke-width:0.8;" x="244.66125" xlink:href="#m6587144c6c" y="228.439219"/>
      </g>
     </g>
     <g id="text_4">
      <!-- 0.6 -->
      <g transform="translate(236.709688 243.037656)scale(0.1 -0.1)">
       <defs>
        <path d="M 33.015625 40.375 
Q 26.375 40.375 22.484375 35.828125 
Q 18.609375 31.296875 18.609375 23.390625 
Q 18.609375 15.53125 22.484375 10.953125 
Q 26.375 6.390625 33.015625 6.390625 
Q 39.65625 6.390625 43.53125 10.953125 
Q 47.40625 15.53125 47.40625 23.390625 
Q 47.40625 31.296875 43.53125 35.828125 
Q 39.65625 40.375 33.015625 40.375 
z
M 52.59375 71.296875 
L 52.59375 62.3125 
Q 48.875 64.0625 45.09375 64.984375 
Q 41.3125 65.921875 37.59375 65.921875 
Q 27.828125 65.921875 22.671875 59.328125 
Q 17.53125 52.734375 16.796875 39.40625 
Q 19.671875 43.65625 24.015625 45.921875 
Q 28.375 48.1875 33.59375 48.1875 
Q 44.578125 48.1875 50.953125 41.515625 
Q 57.328125 34.859375 57.328125 23.390625 
Q 57.328125 12.15625 50.6875 5.359375 
Q 44.046875 -1.421875 33.015625 -1.421875 
Q 20.359375 -1.421875 13.671875 8.265625 
Q 6.984375 17.96875 6.984375 36.375 
Q 6.984375 53.65625 15.1875 63.9375 
Q 23.390625 74.21875 37.203125 74.21875 
Q 40.921875 74.21875 44.703125 73.484375 
Q 48.484375 72.75 52.59375 71.296875 
z
" id="DejaVuSans-54"/>
       </defs>
       <use xlink:href="#DejaVuSans-48"/>
       <use x="63.623047" xlink:href="#DejaVuSans-46"/>
       <use x="95.410156" xlink:href="#DejaVuSans-54"/>
      </g>
     </g>
    </g>
    <g id="xtick_5">
     <g id="line2d_5">
      <g>
       <use style="stroke:#000000;stroke-width:0.8;" x="311.62125" xlink:href="#m6587144c6c" y="228.439219"/>
      </g>
     </g>
     <g id="text_5">
      <!-- 0.8 -->
      <g transform="translate(303.669688 243.037656)scale(0.1 -0.1)">
       <defs>
        <path d="M 31.78125 34.625 
Q 24.75 34.625 20.71875 30.859375 
Q 16.703125 27.09375 16.703125 20.515625 
Q 16.703125 13.921875 20.71875 10.15625 
Q 24.75 6.390625 31.78125 6.390625 
Q 38.8125 6.390625 42.859375 10.171875 
Q 46.921875 13.96875 46.921875 20.515625 
Q 46.921875 27.09375 42.890625 30.859375 
Q 38.875 34.625 31.78125 34.625 
z
M 21.921875 38.8125 
Q 15.578125 40.375 12.03125 44.71875 
Q 8.5 49.078125 8.5 55.328125 
Q 8.5 64.0625 14.71875 69.140625 
Q 20.953125 74.21875 31.78125 74.21875 
Q 42.671875 74.21875 48.875 69.140625 
Q 55.078125 64.0625 55.078125 55.328125 
Q 55.078125 49.078125 51.53125 44.71875 
Q 48 40.375 41.703125 38.8125 
Q 48.828125 37.15625 52.796875 32.3125 
Q 56.78125 27.484375 56.78125 20.515625 
Q 56.78125 9.90625 50.3125 4.234375 
Q 43.84375 -1.421875 31.78125 -1.421875 
Q 19.734375 -1.421875 13.25 4.234375 
Q 6.78125 9.90625 6.78125 20.515625 
Q 6.78125 27.484375 10.78125 32.3125 
Q 14.796875 37.15625 21.921875 38.8125 
z
M 18.3125 54.390625 
Q 18.3125 48.734375 21.84375 45.5625 
Q 25.390625 42.390625 31.78125 42.390625 
Q 38.140625 42.390625 41.71875 45.5625 
Q 45.3125 48.734375 45.3125 54.390625 
Q 45.3125 60.0625 41.71875 63.234375 
Q 38.140625 66.40625 31.78125 66.40625 
Q 25.390625 66.40625 21.84375 63.234375 
Q 18.3125 60.0625 18.3125 54.390625 
z
" id="DejaVuSans-56"/>
       </defs>
       <use xlink:href="#DejaVuSans-48"/>
       <use x="63.623047" xlink:href="#DejaVuSans-46"/>
       <use x="95.410156" xlink:href="#DejaVuSans-56"/>
      </g>
     </g>
    </g>
    <g id="xtick_6">
     <g id="line2d_6">
      <g>
       <use style="stroke:#000000;stroke-width:0.8;" x="378.58125" xlink:href="#m6587144c6c" y="228.439219"/>
      </g>
     </g>
     <g id="text_6">
      <!-- 1.0 -->
      <g transform="translate(370.629687 243.037656)scale(0.1 -0.1)">
       <defs>
        <path d="M 12.40625 8.296875 
L 28.515625 8.296875 
L 28.515625 63.921875 
L 10.984375 60.40625 
L 10.984375 69.390625 
L 28.421875 72.90625 
L 38.28125 72.90625 
L 38.28125 8.296875 
L 54.390625 8.296875 
L 54.390625 0 
L 12.40625 0 
z
" id="DejaVuSans-49"/>
       </defs>
       <use xlink:href="#DejaVuSans-49"/>
       <use x="63.623047" xlink:href="#DejaVuSans-46"/>
       <use x="95.410156" xlink:href="#DejaVuSans-48"/>
      </g>
     </g>
    </g>
    <g id="text_7">
     <!-- False Positive Rate -->
     <g transform="translate(164.714844 256.715781)scale(0.1 -0.1)">
      <defs>
       <path d="M 9.8125 72.90625 
L 51.703125 72.90625 
L 51.703125 64.59375 
L 19.671875 64.59375 
L 19.671875 43.109375 
L 48.578125 43.109375 
L 48.578125 34.8125 
L 19.671875 34.8125 
L 19.671875 0 
L 9.8125 0 
z
" id="DejaVuSans-70"/>
       <path d="M 34.28125 27.484375 
Q 23.390625 27.484375 19.1875 25 
Q 14.984375 22.515625 14.984375 16.5 
Q 14.984375 11.71875 18.140625 8.90625 
Q 21.296875 6.109375 26.703125 6.109375 
Q 34.1875 6.109375 38.703125 11.40625 
Q 43.21875 16.703125 43.21875 25.484375 
L 43.21875 27.484375 
z
M 52.203125 31.203125 
L 52.203125 0 
L 43.21875 0 
L 43.21875 8.296875 
Q 40.140625 3.328125 35.546875 0.953125 
Q 30.953125 -1.421875 24.3125 -1.421875 
Q 15.921875 -1.421875 10.953125 3.296875 
Q 6 8.015625 6 15.921875 
Q 6 25.140625 12.171875 29.828125 
Q 18.359375 34.515625 30.609375 34.515625 
L 43.21875 34.515625 
L 43.21875 35.40625 
Q 43.21875 41.609375 39.140625 45 
Q 35.0625 48.390625 27.6875 48.390625 
Q 23 48.390625 18.546875 47.265625 
Q 14.109375 46.140625 10.015625 43.890625 
L 10.015625 52.203125 
Q 14.9375 54.109375 19.578125 55.046875 
Q 24.21875 56 28.609375 56 
Q 40.484375 56 46.34375 49.84375 
Q 52.203125 43.703125 52.203125 31.203125 
z
" id="DejaVuSans-97"/>
       <path d="M 9.421875 75.984375 
L 18.40625 75.984375 
L 18.40625 0 
L 9.421875 0 
z
" id="DejaVuSans-108"/>
       <path d="M 44.28125 53.078125 
L 44.28125 44.578125 
Q 40.484375 46.53125 36.375 47.5 
Q 32.28125 48.484375 27.875 48.484375 
Q 21.1875 48.484375 17.84375 46.4375 
Q 14.5 44.390625 14.5 40.28125 
Q 14.5 37.15625 16.890625 35.375 
Q 19.28125 33.59375 26.515625 31.984375 
L 29.59375 31.296875 
Q 39.15625 29.25 43.1875 25.515625 
Q 47.21875 21.78125 47.21875 15.09375 
Q 47.21875 7.46875 41.1875 3.015625 
Q 35.15625 -1.421875 24.609375 -1.421875 
Q 20.21875 -1.421875 15.453125 -0.5625 
Q 10.6875 0.296875 5.421875 2 
L 5.421875 11.28125 
Q 10.40625 8.6875 15.234375 7.390625 
Q 20.0625 6.109375 24.8125 6.109375 
Q 31.15625 6.109375 34.5625 8.28125 
Q 37.984375 10.453125 37.984375 14.40625 
Q 37.984375 18.0625 35.515625 20.015625 
Q 33.0625 21.96875 24.703125 23.78125 
L 21.578125 24.515625 
Q 13.234375 26.265625 9.515625 29.90625 
Q 5.8125 33.546875 5.8125 39.890625 
Q 5.8125 47.609375 11.28125 51.796875 
Q 16.75 56 26.8125 56 
Q 31.78125 56 36.171875 55.265625 
Q 40.578125 54.546875 44.28125 53.078125 
z
" id="DejaVuSans-115"/>
       <path d="M 56.203125 29.59375 
L 56.203125 25.203125 
L 14.890625 25.203125 
Q 15.484375 15.921875 20.484375 11.0625 
Q 25.484375 6.203125 34.421875 6.203125 
Q 39.59375 6.203125 44.453125 7.46875 
Q 49.3125 8.734375 54.109375 11.28125 
L 54.109375 2.78125 
Q 49.265625 0.734375 44.1875 -0.34375 
Q 39.109375 -1.421875 33.890625 -1.421875 
Q 20.796875 -1.421875 13.15625 6.1875 
Q 5.515625 13.8125 5.515625 26.8125 
Q 5.515625 40.234375 12.765625 48.109375 
Q 20.015625 56 32.328125 56 
Q 43.359375 56 49.78125 48.890625 
Q 56.203125 41.796875 56.203125 29.59375 
z
M 47.21875 32.234375 
Q 47.125 39.59375 43.09375 43.984375 
Q 39.0625 48.390625 32.421875 48.390625 
Q 24.90625 48.390625 20.390625 44.140625 
Q 15.875 39.890625 15.1875 32.171875 
z
" id="DejaVuSans-101"/>
       <path id="DejaVuSans-32"/>
       <path d="M 19.671875 64.796875 
L 19.671875 37.40625 
L 32.078125 37.40625 
Q 38.96875 37.40625 42.71875 40.96875 
Q 46.484375 44.53125 46.484375 51.125 
Q 46.484375 57.671875 42.71875 61.234375 
Q 38.96875 64.796875 32.078125 64.796875 
z
M 9.8125 72.90625 
L 32.078125 72.90625 
Q 44.34375 72.90625 50.609375 67.359375 
Q 56.890625 61.8125 56.890625 51.125 
Q 56.890625 40.328125 50.609375 34.8125 
Q 44.34375 29.296875 32.078125 29.296875 
L 19.671875 29.296875 
L 19.671875 0 
L 9.8125 0 
z
" id="DejaVuSans-80"/>
       <path d="M 30.609375 48.390625 
Q 23.390625 48.390625 19.1875 42.75 
Q 14.984375 37.109375 14.984375 27.296875 
Q 14.984375 17.484375 19.15625 11.84375 
Q 23.34375 6.203125 30.609375 6.203125 
Q 37.796875 6.203125 41.984375 11.859375 
Q 46.1875 17.53125 46.1875 27.296875 
Q 46.1875 37.015625 41.984375 42.703125 
Q 37.796875 48.390625 30.609375 48.390625 
z
M 30.609375 56 
Q 42.328125 56 49.015625 48.375 
Q 55.71875 40.765625 55.71875 27.296875 
Q 55.71875 13.875 49.015625 6.21875 
Q 42.328125 -1.421875 30.609375 -1.421875 
Q 18.84375 -1.421875 12.171875 6.21875 
Q 5.515625 13.875 5.515625 27.296875 
Q 5.515625 40.765625 12.171875 48.375 
Q 18.84375 56 30.609375 56 
z
" id="DejaVuSans-111"/>
       <path d="M 9.421875 54.6875 
L 18.40625 54.6875 
L 18.40625 0 
L 9.421875 0 
z
M 9.421875 75.984375 
L 18.40625 75.984375 
L 18.40625 64.59375 
L 9.421875 64.59375 
z
" id="DejaVuSans-105"/>
       <path d="M 18.3125 70.21875 
L 18.3125 54.6875 
L 36.8125 54.6875 
L 36.8125 47.703125 
L 18.3125 47.703125 
L 18.3125 18.015625 
Q 18.3125 11.328125 20.140625 9.421875 
Q 21.96875 7.515625 27.59375 7.515625 
L 36.8125 7.515625 
L 36.8125 0 
L 27.59375 0 
Q 17.1875 0 13.234375 3.875 
Q 9.28125 7.765625 9.28125 18.015625 
L 9.28125 47.703125 
L 2.6875 47.703125 
L 2.6875 54.6875 
L 9.28125 54.6875 
L 9.28125 70.21875 
z
" id="DejaVuSans-116"/>
       <path d="M 2.984375 54.6875 
L 12.5 54.6875 
L 29.59375 8.796875 
L 46.6875 54.6875 
L 56.203125 54.6875 
L 35.6875 0 
L 23.484375 0 
z
" id="DejaVuSans-118"/>
       <path d="M 44.390625 34.1875 
Q 47.5625 33.109375 50.5625 29.59375 
Q 53.5625 26.078125 56.59375 19.921875 
L 66.609375 0 
L 56 0 
L 46.6875 18.703125 
Q 43.0625 26.03125 39.671875 28.421875 
Q 36.28125 30.8125 30.421875 30.8125 
L 19.671875 30.8125 
L 19.671875 0 
L 9.8125 0 
L 9.8125 72.90625 
L 32.078125 72.90625 
Q 44.578125 72.90625 50.734375 67.671875 
Q 56.890625 62.453125 56.890625 51.90625 
Q 56.890625 45.015625 53.6875 40.46875 
Q 50.484375 35.9375 44.390625 34.1875 
z
M 19.671875 64.796875 
L 19.671875 38.921875 
L 32.078125 38.921875 
Q 39.203125 38.921875 42.84375 42.21875 
Q 46.484375 45.515625 46.484375 51.90625 
Q 46.484375 58.296875 42.84375 61.546875 
Q 39.203125 64.796875 32.078125 64.796875 
z
" id="DejaVuSans-82"/>
      </defs>
      <use xlink:href="#DejaVuSans-70"/>
      <use x="48.394531" xlink:href="#DejaVuSans-97"/>
      <use x="109.673828" xlink:href="#DejaVuSans-108"/>
      <use x="137.457031" xlink:href="#DejaVuSans-115"/>
      <use x="189.556641" xlink:href="#DejaVuSans-101"/>
      <use x="251.080078" xlink:href="#DejaVuSans-32"/>
      <use x="282.867188" xlink:href="#DejaVuSans-80"/>
      <use x="339.544922" xlink:href="#DejaVuSans-111"/>
      <use x="400.726562" xlink:href="#DejaVuSans-115"/>
      <use x="452.826172" xlink:href="#DejaVuSans-105"/>
      <use x="480.609375" xlink:href="#DejaVuSans-116"/>
      <use x="519.818359" xlink:href="#DejaVuSans-105"/>
      <use x="547.601562" xlink:href="#DejaVuSans-118"/>
      <use x="606.78125" xlink:href="#DejaVuSans-101"/>
      <use x="668.304688" xlink:href="#DejaVuSans-32"/>
      <use x="700.091797" xlink:href="#DejaVuSans-82"/>
      <use x="767.324219" xlink:href="#DejaVuSans-97"/>
      <use x="828.603516" xlink:href="#DejaVuSans-116"/>
      <use x="867.8125" xlink:href="#DejaVuSans-101"/>
     </g>
    </g>
   </g>
   <g id="matplotlib.axis_2">
    <g id="ytick_1">
     <g id="line2d_7">
      <defs>
       <path d="M 0 0 
L -3.5 0 
" id="m74a44c34a8" style="stroke:#000000;stroke-width:0.8;"/>
      </defs>
      <g>
       <use style="stroke:#000000;stroke-width:0.8;" x="43.78125" xlink:href="#m74a44c34a8" y="228.439219"/>
      </g>
     </g>
     <g id="text_8">
      <!-- 0.0 -->
      <g transform="translate(20.878125 232.238437)scale(0.1 -0.1)">
       <use xlink:href="#DejaVuSans-48"/>
       <use x="63.623047" xlink:href="#DejaVuSans-46"/>
       <use x="95.410156" xlink:href="#DejaVuSans-48"/>
      </g>
     </g>
    </g>
    <g id="ytick_2">
     <g id="line2d_8">
      <g>
       <use style="stroke:#000000;stroke-width:0.8;" x="43.78125" xlink:href="#m74a44c34a8" y="184.951219"/>
      </g>
     </g>
     <g id="text_9">
      <!-- 0.2 -->
      <g transform="translate(20.878125 188.750437)scale(0.1 -0.1)">
       <use xlink:href="#DejaVuSans-48"/>
       <use x="63.623047" xlink:href="#DejaVuSans-46"/>
       <use x="95.410156" xlink:href="#DejaVuSans-50"/>
      </g>
     </g>
    </g>
    <g id="ytick_3">
     <g id="line2d_9">
      <g>
       <use style="stroke:#000000;stroke-width:0.8;" x="43.78125" xlink:href="#m74a44c34a8" y="141.463219"/>
      </g>
     </g>
     <g id="text_10">
      <!-- 0.4 -->
      <g transform="translate(20.878125 145.262437)scale(0.1 -0.1)">
       <use xlink:href="#DejaVuSans-48"/>
       <use x="63.623047" xlink:href="#DejaVuSans-46"/>
       <use x="95.410156" xlink:href="#DejaVuSans-52"/>
      </g>
     </g>
    </g>
    <g id="ytick_4">
     <g id="line2d_10">
      <g>
       <use style="stroke:#000000;stroke-width:0.8;" x="43.78125" xlink:href="#m74a44c34a8" y="97.975219"/>
      </g>
     </g>
     <g id="text_11">
      <!-- 0.6 -->
      <g transform="translate(20.878125 101.774437)scale(0.1 -0.1)">
       <use xlink:href="#DejaVuSans-48"/>
       <use x="63.623047" xlink:href="#DejaVuSans-46"/>
       <use x="95.410156" xlink:href="#DejaVuSans-54"/>
      </g>
     </g>
    </g>
    <g id="ytick_5">
     <g id="line2d_11">
      <g>
       <use style="stroke:#000000;stroke-width:0.8;" x="43.78125" xlink:href="#m74a44c34a8" y="54.487219"/>
      </g>
     </g>
     <g id="text_12">
      <!-- 0.8 -->
      <g transform="translate(20.878125 58.286437)scale(0.1 -0.1)">
       <use xlink:href="#DejaVuSans-48"/>
       <use x="63.623047" xlink:href="#DejaVuSans-46"/>
       <use x="95.410156" xlink:href="#DejaVuSans-56"/>
      </g>
     </g>
    </g>
    <g id="ytick_6">
     <g id="line2d_12">
      <g>
       <use style="stroke:#000000;stroke-width:0.8;" x="43.78125" xlink:href="#m74a44c34a8" y="10.999219"/>
      </g>
     </g>
     <g id="text_13">
      <!-- 1.0 -->
      <g transform="translate(20.878125 14.798437)scale(0.1 -0.1)">
       <use xlink:href="#DejaVuSans-49"/>
       <use x="63.623047" xlink:href="#DejaVuSans-46"/>
       <use x="95.410156" xlink:href="#DejaVuSans-48"/>
      </g>
     </g>
    </g>
    <g id="text_14">
     <!-- True Positive Rate -->
     <g transform="translate(14.798438 164.248906)rotate(-90)scale(0.1 -0.1)">
      <defs>
       <path d="M -0.296875 72.90625 
L 61.375 72.90625 
L 61.375 64.59375 
L 35.5 64.59375 
L 35.5 0 
L 25.59375 0 
L 25.59375 64.59375 
L -0.296875 64.59375 
z
" id="DejaVuSans-84"/>
       <path d="M 41.109375 46.296875 
Q 39.59375 47.171875 37.8125 47.578125 
Q 36.03125 48 33.890625 48 
Q 26.265625 48 22.1875 43.046875 
Q 18.109375 38.09375 18.109375 28.8125 
L 18.109375 0 
L 9.078125 0 
L 9.078125 54.6875 
L 18.109375 54.6875 
L 18.109375 46.1875 
Q 20.953125 51.171875 25.484375 53.578125 
Q 30.03125 56 36.53125 56 
Q 37.453125 56 38.578125 55.875 
Q 39.703125 55.765625 41.0625 55.515625 
z
" id="DejaVuSans-114"/>
       <path d="M 8.5 21.578125 
L 8.5 54.6875 
L 17.484375 54.6875 
L 17.484375 21.921875 
Q 17.484375 14.15625 20.5 10.265625 
Q 23.53125 6.390625 29.59375 6.390625 
Q 36.859375 6.390625 41.078125 11.03125 
Q 45.3125 15.671875 45.3125 23.6875 
L 45.3125 54.6875 
L 54.296875 54.6875 
L 54.296875 0 
L 45.3125 0 
L 45.3125 8.40625 
Q 42.046875 3.421875 37.71875 1 
Q 33.40625 -1.421875 27.6875 -1.421875 
Q 18.265625 -1.421875 13.375 4.4375 
Q 8.5 10.296875 8.5 21.578125 
z
M 31.109375 56 
z
" id="DejaVuSans-117"/>
      </defs>
      <use xlink:href="#DejaVuSans-84"/>
      <use x="46.333984" xlink:href="#DejaVuSans-114"/>
      <use x="87.447266" xlink:href="#DejaVuSans-117"/>
      <use x="150.826172" xlink:href="#DejaVuSans-101"/>
      <use x="212.349609" xlink:href="#DejaVuSans-32"/>
      <use x="244.136719" xlink:href="#DejaVuSans-80"/>
      <use x="300.814453" xlink:href="#DejaVuSans-111"/>
      <use x="361.996094" xlink:href="#DejaVuSans-115"/>
      <use x="414.095703" xlink:href="#DejaVuSans-105"/>
      <use x="441.878906" xlink:href="#DejaVuSans-116"/>
      <use x="481.087891" xlink:href="#DejaVuSans-105"/>
      <use x="508.871094" xlink:href="#DejaVuSans-118"/>
      <use x="568.050781" xlink:href="#DejaVuSans-101"/>
      <use x="629.574219" xlink:href="#DejaVuSans-32"/>
      <use x="661.361328" xlink:href="#DejaVuSans-82"/>
      <use x="728.59375" xlink:href="#DejaVuSans-97"/>
      <use x="789.873047" xlink:href="#DejaVuSans-116"/>
      <use x="829.082031" xlink:href="#DejaVuSans-101"/>
     </g>
    </g>
   </g>
   <g id="line2d_13">
    <path clip-path="url(#p34fea13d93)" d="M 43.78125 228.439219 
L 43.886551 214.805815 
L 43.892745 214.805815 
L 43.998045 208.738402 
L 44.004239 208.738402 
L 44.10954 203.511654 
L 44.121928 203.475104 
L 44.227229 200.880005 
L 44.233423 200.880005 
L 44.338723 198.942819 
L 44.344918 198.942819 
L 44.450218 195.836011 
L 44.474995 195.76291 
L 44.574101 193.752623 
L 44.586489 193.752623 
L 44.69179 192.071291 
L 44.697984 192.071291 
L 44.803285 189.29344 
L 44.809479 189.29344 
L 44.914779 187.465906 
L 44.951944 187.356254 
L 45.057245 185.674922 
L 45.069633 185.56527 
L 45.174934 184.688054 
L 45.205904 184.651503 
L 45.305011 183.152925 
L 45.335982 183.079824 
L 45.441282 181.80055 
L 45.45367 181.80055 
L 45.558971 180.484726 
L 45.571359 180.411624 
L 45.67666 179.168901 
L 45.689048 179.168901 
L 45.788155 178.218583 
L 45.819125 178.145482 
L 45.924426 176.756556 
L 45.943008 176.683455 
L 46.048309 175.33108 
L 46.066891 175.221428 
L 46.172192 173.978704 
L 46.196968 173.905603 
L 46.296075 172.589779 
L 46.314657 172.480126 
L 46.419958 171.383606 
L 46.426152 171.383606 
L 46.531453 170.287086 
L 46.574812 170.177434 
L 46.680112 168.93471 
L 46.704889 168.825058 
L 46.810189 167.472683 
L 46.822578 167.399582 
L 46.927878 166.266511 
L 46.971237 166.156859 
L 47.076538 164.548629 
L 47.088926 164.548629 
L 47.194227 163.415558 
L 47.206615 163.415558 
L 47.293333 162.209385 
L 47.324304 162.136284 
L 47.429604 161.551473 
L 47.454381 161.514922 
L 47.559681 160.30875 
L 47.57207 160.235648 
L 47.671176 158.883273 
L 47.702147 158.773621 
L 47.807447 157.384695 
L 47.819836 157.384695 
L 47.925136 155.959219 
L 47.943719 155.849567 
L 48.042825 154.679945 
L 48.067602 154.606844 
L 48.166708 153.656526 
L 48.197679 153.583424 
L 48.302979 152.596556 
L 48.33395 152.486904 
L 48.439251 151.17108 
L 48.48261 151.061428 
L 48.58791 149.672502 
L 48.637464 149.56285 
L 48.742764 148.722184 
L 48.786123 148.649083 
L 48.891424 147.698765 
L 48.928589 147.589113 
L 49.033889 146.784998 
L 49.06486 146.675346 
L 49.17016 145.83468 
L 49.194937 145.725028 
L 49.300238 144.73816 
L 49.312626 144.628508 
L 49.417926 143.16648 
L 49.430315 143.056828 
L 49.535615 142.289264 
L 49.57278 142.179612 
L 49.678081 141.265845 
L 49.709052 141.192744 
L 49.814352 140.205875 
L 49.82674 140.096223 
L 49.913458 139.255558 
L 49.938235 139.255558 
L 50.043536 137.720429 
L 50.074506 137.610777 
L 50.173613 136.660459 
L 50.210778 136.550807 
L 50.316078 136.039098 
L 50.365631 135.965996 
L 50.464738 134.906027 
L 50.489514 134.869476 
L 50.594815 133.663303 
L 50.619592 133.663303 
L 50.724892 132.859188 
L 50.743475 132.786087 
L 50.848775 131.799219 
L 50.861163 131.799219 
L 50.966464 130.885452 
L 50.997435 130.7758 
L 51.096541 129.533077 
L 51.127512 129.459975 
L 51.232812 128.546208 
L 51.257589 128.509657 
L 51.36289 127.376586 
L 51.412443 127.303485 
L 51.517743 126.462819 
L 51.548714 126.426269 
L 51.654015 125.183546 
L 51.684985 125.110444 
L 51.790286 124.196677 
L 51.802674 124.196677 
L 51.907975 123.575316 
L 51.938946 123.465664 
L 52.019469 122.807751 
L 52.069023 122.771201 
L 52.130964 122.259491 
L 52.192906 122.149839 
L 52.298206 121.236072 
L 52.329177 121.12642 
L 52.434478 120.212653 
L 52.484031 120.103001 
L 52.589331 119.00648 
L 52.614108 119.00648 
L 52.719408 118.45822 
L 52.744185 118.348568 
L 52.837097 117.690656 
L 52.880456 117.581004 
L 52.985757 116.557585 
L 53.041504 116.447933 
L 53.146805 115.899673 
L 53.18397 115.790021 
L 53.270688 115.132108 
L 53.351212 115.022456 
L 53.456512 114.291443 
L 53.475095 114.181791 
L 53.574201 113.377676 
L 53.623754 113.268024 
L 53.716667 112.756314 
L 53.741443 112.719763 
L 53.84055 111.732895 
L 53.87152 111.623243 
L 53.952044 111.184635 
L 54.02018 111.111533 
L 54.119286 110.563273 
L 54.181228 110.453621 
L 54.280334 109.430202 
L 54.311305 109.357101 
L 54.404217 108.77229 
L 54.4228 108.77229 
L 54.521906 108.22403 
L 54.565265 108.150928 
L 54.639595 107.639219 
L 54.689148 107.529567 
L 54.757284 106.981306 
L 54.813031 106.908205 
L 54.918332 106.506148 
L 54.955497 106.433046 
L 55.060797 105.884786 
L 55.097962 105.775134 
L 55.203263 105.190323 
L 55.209457 105.190323 
L 55.296175 104.532411 
L 55.345728 104.422759 
L 55.451029 103.801397 
L 55.463417 103.764847 
L 55.562523 103.033833 
L 55.574912 103.033833 
L 55.674018 102.449022 
L 55.704989 102.375921 
L 55.797901 101.352502 
L 55.835066 101.24285 
L 55.934172 100.877343 
L 55.983725 100.767691 
L 56.082832 100.292532 
L 56.132385 100.18288 
L 56.219103 99.488417 
L 56.281045 99.378765 
L 56.386345 98.940157 
L 56.398733 98.867055 
L 56.504034 97.843636 
L 56.522616 97.770535 
L 56.627917 96.856768 
L 56.640305 96.820217 
L 56.733218 96.235406 
L 56.757994 96.198856 
L 56.863295 95.614045 
L 56.888071 95.577494 
L 56.962401 95.175437 
L 57.018148 95.102335 
L 57.123449 94.554075 
L 57.142031 94.517524 
L 57.22875 93.859612 
L 57.284497 93.74996 
L 57.371215 93.018946 
L 57.402186 92.945845 
L 57.495098 91.849325 
L 57.550845 91.739673 
L 57.656146 91.301064 
L 57.668534 91.264514 
L 57.767641 90.643152 
L 57.829582 90.5335 
L 57.934883 89.948689 
L 57.978242 89.839037 
L 58.077348 89.363878 
L 58.108319 89.327328 
L 58.213619 88.340459 
L 58.238396 88.340459 
L 58.331308 87.645996 
L 58.349891 87.645996 
L 58.436609 86.622577 
L 58.49855 86.512925 
L 58.597657 86.183969 
L 58.641016 86.074317 
L 58.746316 85.599158 
L 58.783481 85.526057 
L 58.876393 84.977797 
L 58.907364 84.868145 
L 59.006471 84.392986 
L 59.04983 84.283334 
L 59.130354 83.625421 
L 59.179907 83.55232 
L 59.279013 83.223364 
L 59.316178 83.113712 
L 59.421479 82.49235 
L 59.477226 82.382698 
L 59.570138 81.980641 
L 59.588721 81.980641 
L 59.687827 81.359279 
L 59.731186 81.249627 
L 59.836487 80.591715 
L 59.848875 80.518614 
L 59.935593 79.970353 
L 59.972758 79.860701 
L 60.078059 79.312441 
L 60.084253 79.312441 
L 60.164777 78.800732 
L 60.208136 78.72763 
L 60.294854 78.289022 
L 60.338213 78.289022 
L 60.431125 77.813863 
L 60.480678 77.704211 
L 60.585979 77.229052 
L 60.635532 77.1194 
L 60.740833 76.826995 
L 60.765609 76.717343 
L 60.864716 76.315285 
L 60.926657 76.205633 
L 61.019569 75.913228 
L 61.069123 75.840126 
L 61.137258 75.584272 
L 61.186811 75.47462 
L 61.254947 75.036011 
L 61.335471 74.96291 
L 61.428383 74.597403 
L 61.471742 74.487751 
L 61.570849 74.085694 
L 61.638984 74.049143 
L 61.744285 73.427782 
L 61.775256 73.318129 
L 61.868168 72.696768 
L 61.998245 72.587116 
L 62.078769 72.331261 
L 62.122128 72.25816 
L 62.221234 71.929204 
L 62.295564 71.856102 
L 62.394671 71.527146 
L 62.413253 71.417494 
L 62.518554 71.234741 
L 62.586689 71.125089 
L 62.630048 70.978886 
L 62.741543 70.869234 
L 62.846844 70.430626 
L 62.995503 70.320974 
L 63.088415 69.918916 
L 63.144163 69.882365 
L 63.249463 69.370656 
L 63.292822 69.261004 
L 63.391929 68.895497 
L 63.410511 68.785845 
L 63.497229 68.420338 
L 63.546783 68.310686 
L 63.652083 67.945179 
L 63.695442 67.908629 
L 63.794549 67.689325 
L 63.850296 67.579673 
L 63.918432 67.360369 
L 64.00515 67.250716 
L 64.091868 66.92176 
L 64.129033 66.812108 
L 64.203362 66.556254 
L 64.252916 66.446602 
L 64.345828 66.154196 
L 64.395381 66.044544 
L 64.494487 65.605936 
L 64.550235 65.496284 
L 64.649341 65.240429 
L 64.6927 65.203878 
L 64.798001 65.021125 
L 64.835166 64.948024 
L 64.928078 64.436314 
L 64.965243 64.326662 
L 65.045767 63.961155 
L 65.144873 63.851503 
L 65.213009 63.412895 
L 65.281145 63.303243 
L 65.380251 62.901185 
L 65.473163 62.864635 
L 65.566075 62.389476 
L 65.640405 62.316375 
L 65.689958 62.023969 
L 65.820036 61.950868 
L 65.925336 61.475709 
L 65.993472 61.366057 
L 66.098772 61.037101 
L 66.15452 60.927449 
L 66.253626 60.342638 
L 66.402286 60.232986 
L 66.495198 59.867479 
L 66.538557 59.830928 
L 66.643858 59.465421 
L 66.724381 59.355769 
L 66.823488 59.063364 
L 66.879235 58.953712 
L 66.959759 58.734408 
L 67.040283 58.624756 
L 67.083642 58.33235 
L 67.17036 58.259249 
L 67.257078 57.674438 
L 67.31902 57.564786 
L 67.39335 57.199279 
L 67.523427 57.089627 
L 67.628727 56.870323 
L 67.653504 56.833772 
L 67.758805 56.431715 
L 67.857911 56.322063 
L 67.926047 56.212411 
L 68.043735 56.13931 
L 68.149036 55.773803 
L 68.217172 55.664151 
L 68.30389 55.444847 
L 68.440161 55.335195 
L 68.545462 54.860036 
L 68.718898 54.786934 
L 68.805616 54.457978 
L 68.929499 54.348326 
L 69.034799 54.01937 
L 69.195847 53.909718 
L 69.282565 53.617313 
L 69.375478 53.507661 
L 69.462196 53.251806 
L 69.561302 53.142154 
L 69.666603 52.740096 
L 69.716156 52.666995 
L 69.802874 52.41114 
L 69.932951 52.301488 
L 70.025863 52.082184 
L 70.118776 51.972532 
L 70.224076 51.789779 
L 70.286018 51.680126 
L 70.37893 51.460822 
L 70.595725 51.35117 
L 70.670055 51.204968 
L 70.849685 51.095316 
L 70.880656 50.876011 
L 71.041704 50.766359 
L 71.128422 50.583606 
L 71.308052 50.473954 
L 71.320441 50.400853 
L 71.636342 50.291201 
L 71.741643 49.74294 
L 71.884108 49.633288 
L 71.890303 49.560187 
L 72.069933 49.487086 
L 72.169039 49.267782 
L 72.311505 49.231231 
L 72.404417 48.975376 
L 72.472553 48.865724 
L 72.484941 48.719521 
L 72.639795 48.609869 
L 72.738901 48.500217 
L 72.825619 48.390565 
L 72.93092 47.988508 
L 73.042414 47.878856 
L 73.141521 47.769204 
L 73.36451 47.659552 
L 73.469811 47.440247 
L 73.649441 47.330595 
L 73.717577 47.147842 
L 73.91579 47.03819 
L 74.014896 46.818886 
L 74.070643 46.709234 
L 74.132585 46.636133 
L 74.293633 46.563031 
L 74.380351 46.380278 
L 74.67767 46.270626 
L 74.758194 46.160974 
L 74.925436 46.051322 
L 75.00596 45.94167 
L 75.297085 45.832018 
L 75.315667 45.758916 
L 75.544851 45.649264 
L 75.619181 45.42996 
L 75.823588 45.320308 
L 75.904112 45.247207 
L 76.077548 45.137555 
L 76.17046 44.8817 
L 76.325314 44.772048 
L 76.430614 44.552744 
L 76.560692 44.479642 
L 76.64741 44.260338 
L 76.746516 44.150686 
L 76.82704 43.82173 
L 76.957117 43.712078 
L 77.031447 43.383122 
L 77.136748 43.346571 
L 77.223466 43.054166 
L 77.520785 42.944514 
L 77.613697 42.76176 
L 77.799522 42.652108 
L 77.799522 42.579007 
L 77.96057 42.469355 
L 77.96057 42.432804 
L 78.164976 42.323152 
L 78.270277 42.103848 
L 78.387966 41.994196 
L 78.456102 41.811443 
L 78.610955 41.701791 
L 78.710062 41.445936 
L 78.790586 41.336284 
L 78.883498 41.190081 
L 79.001187 41.080429 
L 79.100293 40.934226 
L 79.248953 40.824574 
L 79.335671 40.641821 
L 79.496719 40.532169 
L 79.589631 40.385966 
L 79.775455 40.276314 
L 79.874562 40.093561 
L 80.041804 39.983909 
L 80.091357 39.801155 
L 80.252405 39.691503 
L 80.351511 39.5453 
L 80.43823 39.472199 
L 80.537336 39.289446 
L 80.840849 39.179794 
L 80.927567 39.070142 
L 81.063839 38.96049 
L 81.156751 38.814287 
L 81.20011 38.741185 
L 81.286828 38.485331 
L 81.559371 38.375679 
L 81.658477 38.229476 
L 81.788554 38.156375 
L 81.869078 37.93707 
L 82.042514 37.827418 
L 82.123038 37.681216 
L 82.191174 37.571564 
L 82.246921 37.425361 
L 82.476105 37.315709 
L 82.575211 37.242608 
L 82.674318 37.132956 
L 82.680512 37.059854 
L 82.990219 36.950202 
L 83.089326 36.84055 
L 83.256568 36.730898 
L 83.355674 36.548145 
L 83.460975 36.438493 
L 83.560081 36.328841 
L 83.702547 36.219188 
L 83.795459 35.963334 
L 83.93173 35.853682 
L 84.030837 35.634378 
L 84.068001 35.524726 
L 84.129943 35.415074 
L 84.278603 35.305421 
L 84.383903 35.122668 
L 84.774134 35.013016 
L 84.84227 34.903364 
L 85.108619 34.793712 
L 85.195337 34.68406 
L 85.282055 34.574408 
L 85.337802 34.282002 
L 85.461685 34.17235 
L 85.566986 34.062698 
L 85.882887 33.953046 
L 85.988188 33.733742 
L 86.043935 33.62409 
L 86.124459 33.514438 
L 86.30409 33.404786 
L 86.316478 33.331685 
L 86.712903 33.222033 
L 86.81201 33.07583 
L 87.165076 32.966178 
L 87.165076 32.929627 
L 87.437619 32.819975 
L 87.474784 32.710323 
L 87.82785 32.600671 
L 87.865015 32.52757 
L 88.094199 32.417918 
L 88.143752 32.308266 
L 88.317188 32.198614 
L 88.385324 32.052411 
L 88.595925 31.942759 
L 88.595925 31.906208 
L 89.357805 31.796556 
L 89.419747 31.723455 
L 89.549824 31.613803 
L 89.599377 31.4676 
L 89.995803 31.357948 
L 89.995803 31.321397 
L 90.27454 31.211745 
L 90.317899 31.102093 
L 90.788654 30.992441 
L 90.788654 30.95589 
L 91.370904 30.846238 
L 91.463816 30.736586 
L 91.655835 30.626934 
L 91.754942 30.480732 
L 91.934572 30.40763 
L 92.02129 30.297978 
L 92.176144 30.261428 
L 92.213309 30.078674 
L 92.535404 29.969022 
L 92.535404 29.932471 
L 92.684064 29.85937 
L 92.758394 29.749718 
L 93.26012 29.640066 
L 93.303479 29.493863 
L 93.66274 29.384211 
L 93.66274 29.347661 
L 94.009612 29.238008 
L 94.034389 29.164907 
L 94.697163 29.055255 
L 94.728133 28.945603 
L 95.192695 28.835951 
L 95.192695 28.7994 
L 95.781139 28.689748 
L 95.880245 28.397343 
L 96.270477 28.287691 
L 96.313836 28.214589 
L 96.567796 28.104937 
L 96.635932 28.031836 
L 96.834144 27.922184 
L 96.914668 27.812532 
L 97.342065 27.70288 
L 97.342065 27.666329 
L 97.645578 27.556677 
L 97.645578 27.520126 
L 97.856179 27.447025 
L 97.856179 27.373924 
L 98.196857 27.264272 
L 98.227828 27.15462 
L 98.686195 27.044968 
L 98.791496 26.862214 
L 99.045456 26.752562 
L 99.12598 26.64291 
L 99.37994 26.533258 
L 99.37994 26.496707 
L 99.832113 26.387055 
L 99.832113 26.350505 
L 100.389587 26.240853 
L 100.389587 26.204302 
L 100.866536 26.09465 
L 100.928478 25.984998 
L 101.132885 25.875346 
L 101.132885 25.838795 
L 101.653193 25.729143 
L 101.721329 25.656042 
L 102.266414 25.54639 
L 102.33455 25.436738 
L 102.69381 25.327086 
L 102.69381 25.290535 
L 103.071654 25.180883 
L 103.127401 25.107782 
L 103.418526 24.998129 
L 103.418526 24.961579 
L 103.90167 24.851927 
L 103.969805 24.705724 
L 104.744074 24.596072 
L 104.744074 24.559521 
L 105.313936 24.449869 
L 105.357295 24.340217 
L 105.815662 24.230565 
L 105.908574 24.157464 
L 106.441271 24.047812 
L 106.540377 23.93816 
L 107.457112 23.828508 
L 107.457112 23.791957 
L 107.927867 23.682305 
L 108.002197 23.609204 
L 108.299516 23.499552 
L 108.398622 23.3899 
L 108.671165 23.280247 
L 108.671165 23.243697 
L 109.575511 23.134045 
L 109.612676 23.060943 
L 109.934772 22.951291 
L 110.027684 22.87819 
L 110.362168 22.768538 
L 110.362168 22.731987 
L 111.043525 22.622335 
L 111.055913 22.549234 
L 111.978841 22.439582 
L 112.071753 22.32993 
L 113.013264 22.220278 
L 113.087594 22.147176 
L 114.165376 22.037524 
L 114.264483 21.964423 
L 114.549413 21.854771 
L 114.623743 21.78167 
L 115.367041 21.672018 
L 115.398012 21.598916 
L 115.726302 21.489264 
L 115.726302 21.452713 
L 116.704978 21.343061 
L 116.704978 21.306511 
L 117.367752 21.196859 
L 117.367752 21.160308 
L 117.844701 21.050656 
L 117.844701 21.014105 
L 118.451728 20.904453 
L 118.451728 20.867903 
L 119.064949 20.758251 
L 119.064949 20.7217 
L 119.833023 20.648598 
L 119.876382 20.538946 
L 121.418726 20.429294 
L 121.511638 20.319642 
L 122.577032 20.20999 
L 122.651362 20.100338 
L 123.42563 19.990686 
L 123.42563 19.954136 
L 124.23087 19.844484 
L 124.317588 19.771382 
L 124.751178 19.66173 
L 124.775955 19.588629 
L 125.804184 19.478977 
L 125.859931 19.405875 
L 127.179285 19.296223 
L 127.179285 19.259673 
L 128.560581 19.150021 
L 128.560581 19.11347 
L 129.632169 19.003818 
L 129.737469 18.930716 
L 130.27636 18.821064 
L 130.27636 18.784514 
L 132.933651 18.674862 
L 133.020369 18.60176 
L 134.50077 18.492108 
L 134.50077 18.455558 
L 135.541388 18.345906 
L 135.541388 18.309355 
L 137.015595 18.199703 
L 137.015595 18.163152 
L 139.121606 18.0535 
L 139.121606 18.016949 
L 139.864904 17.907297 
L 139.926846 17.834196 
L 141.772703 17.724544 
L 141.772703 17.687993 
L 143.346017 17.578341 
L 143.370793 17.50524 
L 144.88836 17.395588 
L 144.88836 17.359037 
L 145.334339 17.249385 
L 145.334339 17.212834 
L 146.604139 17.103182 
L 146.604139 17.066632 
L 149.719797 16.95698 
L 149.719797 16.920429 
L 151.26214 16.810777 
L 151.26214 16.774226 
L 152.860231 16.664574 
L 152.860231 16.628024 
L 153.535393 16.518372 
L 153.535393 16.44527 
L 154.600787 16.335618 
L 154.600787 16.299067 
L 155.523715 16.189415 
L 155.523715 16.152865 
L 157.400543 16.043213 
L 157.400543 16.006662 
L 159.463195 15.89701 
L 159.475583 15.787358 
L 161.482488 15.677706 
L 161.513458 15.604605 
L 164.059254 15.494952 
L 164.059254 15.458402 
L 164.81494 15.34875 
L 164.914047 15.275648 
L 165.415773 15.165996 
L 165.415773 15.129446 
L 167.391707 15.019794 
L 167.391707 14.983243 
L 169.194204 14.873591 
L 169.268534 14.80049 
L 173.288538 14.690838 
L 173.288538 14.654287 
L 175.617538 14.544635 
L 175.716644 14.471533 
L 176.447554 14.361881 
L 176.540466 14.28878 
L 177.494365 14.179128 
L 177.494365 14.106027 
L 181.718776 13.996375 
L 181.718776 13.959824 
L 185.125558 13.850172 
L 185.125558 13.813621 
L 190.341032 13.703969 
L 190.421556 13.630868 
L 193.475272 13.521216 
L 193.475272 13.484665 
L 196.838696 13.375013 
L 196.838696 13.338462 
L 199.285385 13.22881 
L 199.285385 13.19226 
L 205.721107 13.082608 
L 205.721107 13.046057 
L 209.301325 12.936405 
L 209.301325 12.899854 
L 210.595903 12.790202 
L 210.595903 12.753651 
L 214.634489 12.643999 
L 214.634489 12.607449 
L 216.573258 12.497797 
L 216.647587 12.424695 
L 223.454958 12.315043 
L 223.529288 12.241942 
L 226.335238 12.13229 
L 226.335238 12.095739 
L 236.933428 11.986087 
L 236.933428 11.949536 
L 251.05609 11.839884 
L 251.05609 11.803334 
L 278.167885 11.693682 
L 278.167885 11.657131 
L 288.270543 11.547479 
L 288.270543 11.510928 
L 303.074562 11.401276 
L 303.074562 11.364726 
L 316.943264 11.255074 
L 316.943264 11.218523 
L 332.645434 11.108871 
L 332.645434 11.07232 
L 378.58125 10.999219 
L 378.58125 10.999219 
" style="fill:none;stroke:#1f77b4;stroke-linecap:square;stroke-width:2;"/>
   </g>
   <g id="line2d_14">
    <path clip-path="url(#p34fea13d93)" d="M 43.78125 228.439219 
L 378.58125 10.999219 
" style="fill:none;stroke:#000000;stroke-dasharray:5.55,2.4;stroke-dashoffset:0;stroke-width:1.5;"/>
   </g>
   <g id="patch_3">
    <path d="M 43.78125 228.439219 
L 43.78125 10.999219 
" style="fill:none;stroke:#000000;stroke-linecap:square;stroke-linejoin:miter;stroke-width:0.8;"/>
   </g>
   <g id="patch_4">
    <path d="M 378.58125 228.439219 
L 378.58125 10.999219 
" style="fill:none;stroke:#000000;stroke-linecap:square;stroke-linejoin:miter;stroke-width:0.8;"/>
   </g>
   <g id="patch_5">
    <path d="M 43.78125 228.439219 
L 378.58125 228.439219 
" style="fill:none;stroke:#000000;stroke-linecap:square;stroke-linejoin:miter;stroke-width:0.8;"/>
   </g>
   <g id="patch_6">
    <path d="M 43.78125 10.999219 
L 378.58125 10.999219 
" style="fill:none;stroke:#000000;stroke-linecap:square;stroke-linejoin:miter;stroke-width:0.8;"/>
   </g>
  </g>
 </g>
 <defs>
  <clipPath id="p34fea13d93">
   <rect height="217.44" width="334.8" x="43.78125" y="10.999219"/>
  </clipPath>
 </defs>
</svg>
