<?xml version="1.0" encoding="utf-8" standalone="no"?>
<!DOCTYPE svg PUBLIC "-//W3C//DTD SVG 1.1//EN"
  "http://www.w3.org/Graphics/SVG/1.1/DTD/svg11.dtd">
<!-- Created with matplotlib (https://matplotlib.org/) -->
<svg height="284.640938pt" version="1.1" viewBox="0 0 617.854162 284.640938" width="617.854162pt" xmlns="http://www.w3.org/2000/svg" xmlns:xlink="http://www.w3.org/1999/xlink">
 <metadata>
  <rdf:RDF xmlns:cc="http://creativecommons.org/ns#" xmlns:dc="http://purl.org/dc/elements/1.1/" xmlns:rdf="http://www.w3.org/1999/02/22-rdf-syntax-ns#">
   <cc:Work>
    <dc:type rdf:resource="http://purl.org/dc/dcmitype/StillImage"/>
    <dc:date>2021-02-19T18:23:02.889272</dc:date>
    <dc:format>image/svg+xml</dc:format>
    <dc:creator>
     <cc:Agent>
      <dc:title>Matplotlib v3.3.2, https://matplotlib.org/</dc:title>
     </cc:Agent>
    </dc:creator>
   </cc:Work>
  </rdf:RDF>
 </metadata>
 <defs>
  <style type="text/css">*{stroke-linecap:butt;stroke-linejoin:round;}</style>
 </defs>
 <g id="figure_1">
  <g id="patch_1">
   <path d="M 0 284.640938 
L 617.854162 284.640938 
L 617.854162 0 
L 0 0 
z
" style="fill:#ffffff;"/>
  </g>
  <g id="axes_1">
   <g id="patch_2">
    <path d="M 47.282813 241.277813 
L 300.919176 241.277813 
L 300.919176 23.837812 
L 47.282813 23.837812 
z
" style="fill:#e5e5e5;"/>
   </g>
   <g id="matplotlib.axis_1">
    <g id="xtick_1">
     <g id="line2d_1">
      <path clip-path="url(#p35aa993a93)" d="M 72.646449 241.277813 
L 72.646449 23.837812 
" style="fill:none;stroke:#ffffff;stroke-linecap:square;stroke-width:0.8;"/>
     </g>
     <g id="line2d_2">
      <defs>
       <path d="M 0 0 
L 0 3.5 
" id="m0528b7d9a7" style="stroke:#555555;stroke-width:0.8;"/>
      </defs>
      <g>
       <use style="fill:#555555;stroke:#555555;stroke-width:0.8;" x="72.646449" xlink:href="#m0528b7d9a7" y="241.277813"/>
      </g>
     </g>
     <g id="text_1">
      <!-- −0.4 -->
      <g style="fill:#555555;" transform="translate(60.505043 255.87625)scale(0.1 -0.1)">
       <defs>
        <path d="M 10.59375 35.5 
L 73.1875 35.5 
L 73.1875 27.203125 
L 10.59375 27.203125 
z
" id="DejaVuSans-8722"/>
        <path d="M 31.78125 66.40625 
Q 24.171875 66.40625 20.328125 58.90625 
Q 16.5 51.421875 16.5 36.375 
Q 16.5 21.390625 20.328125 13.890625 
Q 24.171875 6.390625 31.78125 6.390625 
Q 39.453125 6.390625 43.28125 13.890625 
Q 47.125 21.390625 47.125 36.375 
Q 47.125 51.421875 43.28125 58.90625 
Q 39.453125 66.40625 31.78125 66.40625 
z
M 31.78125 74.21875 
Q 44.046875 74.21875 50.515625 64.515625 
Q 56.984375 54.828125 56.984375 36.375 
Q 56.984375 17.96875 50.515625 8.265625 
Q 44.046875 -1.421875 31.78125 -1.421875 
Q 19.53125 -1.421875 13.0625 8.265625 
Q 6.59375 17.96875 6.59375 36.375 
Q 6.59375 54.828125 13.0625 64.515625 
Q 19.53125 74.21875 31.78125 74.21875 
z
" id="DejaVuSans-48"/>
        <path d="M 10.6875 12.40625 
L 21 12.40625 
L 21 0 
L 10.6875 0 
z
" id="DejaVuSans-46"/>
        <path d="M 37.796875 64.3125 
L 12.890625 25.390625 
L 37.796875 25.390625 
z
M 35.203125 72.90625 
L 47.609375 72.90625 
L 47.609375 25.390625 
L 58.015625 25.390625 
L 58.015625 17.1875 
L 47.609375 17.1875 
L 47.609375 0 
L 37.796875 0 
L 37.796875 17.1875 
L 4.890625 17.1875 
L 4.890625 26.703125 
z
" id="DejaVuSans-52"/>
       </defs>
       <use xlink:href="#DejaVuSans-8722"/>
       <use x="83.789062" xlink:href="#DejaVuSans-48"/>
       <use x="147.412109" xlink:href="#DejaVuSans-46"/>
       <use x="179.199219" xlink:href="#DejaVuSans-52"/>
      </g>
     </g>
    </g>
    <g id="xtick_2">
     <g id="line2d_3">
      <path clip-path="url(#p35aa993a93)" d="M 123.373722 241.277813 
L 123.373722 23.837812 
" style="fill:none;stroke:#ffffff;stroke-linecap:square;stroke-width:0.8;"/>
     </g>
     <g id="line2d_4">
      <g>
       <use style="fill:#555555;stroke:#555555;stroke-width:0.8;" x="123.373722" xlink:href="#m0528b7d9a7" y="241.277813"/>
      </g>
     </g>
     <g id="text_2">
      <!-- −0.2 -->
      <g style="fill:#555555;" transform="translate(111.232315 255.87625)scale(0.1 -0.1)">
       <defs>
        <path d="M 19.1875 8.296875 
L 53.609375 8.296875 
L 53.609375 0 
L 7.328125 0 
L 7.328125 8.296875 
Q 12.9375 14.109375 22.625 23.890625 
Q 32.328125 33.6875 34.8125 36.53125 
Q 39.546875 41.84375 41.421875 45.53125 
Q 43.3125 49.21875 43.3125 52.78125 
Q 43.3125 58.59375 39.234375 62.25 
Q 35.15625 65.921875 28.609375 65.921875 
Q 23.96875 65.921875 18.8125 64.3125 
Q 13.671875 62.703125 7.8125 59.421875 
L 7.8125 69.390625 
Q 13.765625 71.78125 18.9375 73 
Q 24.125 74.21875 28.421875 74.21875 
Q 39.75 74.21875 46.484375 68.546875 
Q 53.21875 62.890625 53.21875 53.421875 
Q 53.21875 48.921875 51.53125 44.890625 
Q 49.859375 40.875 45.40625 35.40625 
Q 44.1875 33.984375 37.640625 27.21875 
Q 31.109375 20.453125 19.1875 8.296875 
z
" id="DejaVuSans-50"/>
       </defs>
       <use xlink:href="#DejaVuSans-8722"/>
       <use x="83.789062" xlink:href="#DejaVuSans-48"/>
       <use x="147.412109" xlink:href="#DejaVuSans-46"/>
       <use x="179.199219" xlink:href="#DejaVuSans-50"/>
      </g>
     </g>
    </g>
    <g id="xtick_3">
     <g id="line2d_5">
      <path clip-path="url(#p35aa993a93)" d="M 174.100994 241.277813 
L 174.100994 23.837812 
" style="fill:none;stroke:#ffffff;stroke-linecap:square;stroke-width:0.8;"/>
     </g>
     <g id="line2d_6">
      <g>
       <use style="fill:#555555;stroke:#555555;stroke-width:0.8;" x="174.100994" xlink:href="#m0528b7d9a7" y="241.277813"/>
      </g>
     </g>
     <g id="text_3">
      <!-- 0.0 -->
      <g style="fill:#555555;" transform="translate(166.149432 255.87625)scale(0.1 -0.1)">
       <use xlink:href="#DejaVuSans-48"/>
       <use x="63.623047" xlink:href="#DejaVuSans-46"/>
       <use x="95.410156" xlink:href="#DejaVuSans-48"/>
      </g>
     </g>
    </g>
    <g id="xtick_4">
     <g id="line2d_7">
      <path clip-path="url(#p35aa993a93)" d="M 224.828267 241.277813 
L 224.828267 23.837812 
" style="fill:none;stroke:#ffffff;stroke-linecap:square;stroke-width:0.8;"/>
     </g>
     <g id="line2d_8">
      <g>
       <use style="fill:#555555;stroke:#555555;stroke-width:0.8;" x="224.828267" xlink:href="#m0528b7d9a7" y="241.277813"/>
      </g>
     </g>
     <g id="text_4">
      <!-- 0.2 -->
      <g style="fill:#555555;" transform="translate(216.876705 255.87625)scale(0.1 -0.1)">
       <use xlink:href="#DejaVuSans-48"/>
       <use x="63.623047" xlink:href="#DejaVuSans-46"/>
       <use x="95.410156" xlink:href="#DejaVuSans-50"/>
      </g>
     </g>
    </g>
    <g id="xtick_5">
     <g id="line2d_9">
      <path clip-path="url(#p35aa993a93)" d="M 275.55554 241.277813 
L 275.55554 23.837812 
" style="fill:none;stroke:#ffffff;stroke-linecap:square;stroke-width:0.8;"/>
     </g>
     <g id="line2d_10">
      <g>
       <use style="fill:#555555;stroke:#555555;stroke-width:0.8;" x="275.55554" xlink:href="#m0528b7d9a7" y="241.277813"/>
      </g>
     </g>
     <g id="text_5">
      <!-- 0.4 -->
      <g style="fill:#555555;" transform="translate(267.603977 255.87625)scale(0.1 -0.1)">
       <use xlink:href="#DejaVuSans-48"/>
       <use x="63.623047" xlink:href="#DejaVuSans-46"/>
       <use x="95.410156" xlink:href="#DejaVuSans-52"/>
      </g>
     </g>
    </g>
    <g id="text_6">
     <!-- $x_1$ -->
     <g style="fill:#555555;" transform="translate(165.540994 274.113438)scale(0.16 -0.16)">
      <defs>
       <path d="M 60.015625 54.6875 
L 34.90625 27.875 
L 50.296875 0 
L 39.984375 0 
L 28.421875 21.6875 
L 8.296875 0 
L -2.59375 0 
L 24.3125 28.8125 
L 10.015625 54.6875 
L 20.3125 54.6875 
L 30.8125 34.90625 
L 49.125 54.6875 
z
" id="DejaVuSans-Oblique-120"/>
       <path d="M 12.40625 8.296875 
L 28.515625 8.296875 
L 28.515625 63.921875 
L 10.984375 60.40625 
L 10.984375 69.390625 
L 28.421875 72.90625 
L 38.28125 72.90625 
L 38.28125 8.296875 
L 54.390625 8.296875 
L 54.390625 0 
L 12.40625 0 
z
" id="DejaVuSans-49"/>
      </defs>
      <use transform="translate(0 0.3125)" xlink:href="#DejaVuSans-Oblique-120"/>
      <use transform="translate(59.179688 -16.09375)scale(0.7)" xlink:href="#DejaVuSans-49"/>
     </g>
    </g>
   </g>
   <g id="matplotlib.axis_2">
    <g id="ytick_1">
     <g id="line2d_11">
      <path clip-path="url(#p35aa993a93)" d="M 47.282813 241.277813 
L 300.919176 241.277813 
" style="fill:none;stroke:#ffffff;stroke-linecap:square;stroke-width:0.8;"/>
     </g>
     <g id="line2d_12">
      <defs>
       <path d="M 0 0 
L -3.5 0 
" id="m854a0eedfe" style="stroke:#555555;stroke-width:0.8;"/>
      </defs>
      <g>
       <use style="fill:#555555;stroke:#555555;stroke-width:0.8;" x="47.282813" xlink:href="#m854a0eedfe" y="241.277813"/>
      </g>
     </g>
     <g id="text_7">
      <!-- −0.1 -->
      <g style="fill:#555555;" transform="translate(16 245.077031)scale(0.1 -0.1)">
       <use xlink:href="#DejaVuSans-8722"/>
       <use x="83.789062" xlink:href="#DejaVuSans-48"/>
       <use x="147.412109" xlink:href="#DejaVuSans-46"/>
       <use x="179.199219" xlink:href="#DejaVuSans-49"/>
      </g>
     </g>
    </g>
    <g id="ytick_2">
     <g id="line2d_13">
      <path clip-path="url(#p35aa993a93)" d="M 47.282813 217.117813 
L 300.919176 217.117813 
" style="fill:none;stroke:#ffffff;stroke-linecap:square;stroke-width:0.8;"/>
     </g>
     <g id="line2d_14">
      <g>
       <use style="fill:#555555;stroke:#555555;stroke-width:0.8;" x="47.282813" xlink:href="#m854a0eedfe" y="217.117813"/>
      </g>
     </g>
     <g id="text_8">
      <!-- 0.0 -->
      <g style="fill:#555555;" transform="translate(24.379688 220.917031)scale(0.1 -0.1)">
       <use xlink:href="#DejaVuSans-48"/>
       <use x="63.623047" xlink:href="#DejaVuSans-46"/>
       <use x="95.410156" xlink:href="#DejaVuSans-48"/>
      </g>
     </g>
    </g>
    <g id="ytick_3">
     <g id="line2d_15">
      <path clip-path="url(#p35aa993a93)" d="M 47.282813 192.957813 
L 300.919176 192.957813 
" style="fill:none;stroke:#ffffff;stroke-linecap:square;stroke-width:0.8;"/>
     </g>
     <g id="line2d_16">
      <g>
       <use style="fill:#555555;stroke:#555555;stroke-width:0.8;" x="47.282813" xlink:href="#m854a0eedfe" y="192.957813"/>
      </g>
     </g>
     <g id="text_9">
      <!-- 0.1 -->
      <g style="fill:#555555;" transform="translate(24.379688 196.757031)scale(0.1 -0.1)">
       <use xlink:href="#DejaVuSans-48"/>
       <use x="63.623047" xlink:href="#DejaVuSans-46"/>
       <use x="95.410156" xlink:href="#DejaVuSans-49"/>
      </g>
     </g>
    </g>
    <g id="ytick_4">
     <g id="line2d_17">
      <path clip-path="url(#p35aa993a93)" d="M 47.282813 168.797812 
L 300.919176 168.797812 
" style="fill:none;stroke:#ffffff;stroke-linecap:square;stroke-width:0.8;"/>
     </g>
     <g id="line2d_18">
      <g>
       <use style="fill:#555555;stroke:#555555;stroke-width:0.8;" x="47.282813" xlink:href="#m854a0eedfe" y="168.797812"/>
      </g>
     </g>
     <g id="text_10">
      <!-- 0.2 -->
      <g style="fill:#555555;" transform="translate(24.379688 172.597031)scale(0.1 -0.1)">
       <use xlink:href="#DejaVuSans-48"/>
       <use x="63.623047" xlink:href="#DejaVuSans-46"/>
       <use x="95.410156" xlink:href="#DejaVuSans-50"/>
      </g>
     </g>
    </g>
    <g id="ytick_5">
     <g id="line2d_19">
      <path clip-path="url(#p35aa993a93)" d="M 47.282813 144.637812 
L 300.919176 144.637812 
" style="fill:none;stroke:#ffffff;stroke-linecap:square;stroke-width:0.8;"/>
     </g>
     <g id="line2d_20">
      <g>
       <use style="fill:#555555;stroke:#555555;stroke-width:0.8;" x="47.282813" xlink:href="#m854a0eedfe" y="144.637812"/>
      </g>
     </g>
     <g id="text_11">
      <!-- 0.3 -->
      <g style="fill:#555555;" transform="translate(24.379688 148.437031)scale(0.1 -0.1)">
       <defs>
        <path d="M 40.578125 39.3125 
Q 47.65625 37.796875 51.625 33 
Q 55.609375 28.21875 55.609375 21.1875 
Q 55.609375 10.40625 48.1875 4.484375 
Q 40.765625 -1.421875 27.09375 -1.421875 
Q 22.515625 -1.421875 17.65625 -0.515625 
Q 12.796875 0.390625 7.625 2.203125 
L 7.625 11.71875 
Q 11.71875 9.328125 16.59375 8.109375 
Q 21.484375 6.890625 26.8125 6.890625 
Q 36.078125 6.890625 40.9375 10.546875 
Q 45.796875 14.203125 45.796875 21.1875 
Q 45.796875 27.640625 41.28125 31.265625 
Q 36.765625 34.90625 28.71875 34.90625 
L 20.21875 34.90625 
L 20.21875 43.015625 
L 29.109375 43.015625 
Q 36.375 43.015625 40.234375 45.921875 
Q 44.09375 48.828125 44.09375 54.296875 
Q 44.09375 59.90625 40.109375 62.90625 
Q 36.140625 65.921875 28.71875 65.921875 
Q 24.65625 65.921875 20.015625 65.03125 
Q 15.375 64.15625 9.8125 62.3125 
L 9.8125 71.09375 
Q 15.4375 72.65625 20.34375 73.4375 
Q 25.25 74.21875 29.59375 74.21875 
Q 40.828125 74.21875 47.359375 69.109375 
Q 53.90625 64.015625 53.90625 55.328125 
Q 53.90625 49.265625 50.4375 45.09375 
Q 46.96875 40.921875 40.578125 39.3125 
z
" id="DejaVuSans-51"/>
       </defs>
       <use xlink:href="#DejaVuSans-48"/>
       <use x="63.623047" xlink:href="#DejaVuSans-46"/>
       <use x="95.410156" xlink:href="#DejaVuSans-51"/>
      </g>
     </g>
    </g>
    <g id="ytick_6">
     <g id="line2d_21">
      <path clip-path="url(#p35aa993a93)" d="M 47.282813 120.477812 
L 300.919176 120.477812 
" style="fill:none;stroke:#ffffff;stroke-linecap:square;stroke-width:0.8;"/>
     </g>
     <g id="line2d_22">
      <g>
       <use style="fill:#555555;stroke:#555555;stroke-width:0.8;" x="47.282813" xlink:href="#m854a0eedfe" y="120.477812"/>
      </g>
     </g>
     <g id="text_12">
      <!-- 0.4 -->
      <g style="fill:#555555;" transform="translate(24.379688 124.277031)scale(0.1 -0.1)">
       <use xlink:href="#DejaVuSans-48"/>
       <use x="63.623047" xlink:href="#DejaVuSans-46"/>
       <use x="95.410156" xlink:href="#DejaVuSans-52"/>
      </g>
     </g>
    </g>
    <g id="ytick_7">
     <g id="line2d_23">
      <path clip-path="url(#p35aa993a93)" d="M 47.282813 96.317812 
L 300.919176 96.317812 
" style="fill:none;stroke:#ffffff;stroke-linecap:square;stroke-width:0.8;"/>
     </g>
     <g id="line2d_24">
      <g>
       <use style="fill:#555555;stroke:#555555;stroke-width:0.8;" x="47.282813" xlink:href="#m854a0eedfe" y="96.317812"/>
      </g>
     </g>
     <g id="text_13">
      <!-- 0.5 -->
      <g style="fill:#555555;" transform="translate(24.379688 100.117031)scale(0.1 -0.1)">
       <defs>
        <path d="M 10.796875 72.90625 
L 49.515625 72.90625 
L 49.515625 64.59375 
L 19.828125 64.59375 
L 19.828125 46.734375 
Q 21.96875 47.46875 24.109375 47.828125 
Q 26.265625 48.1875 28.421875 48.1875 
Q 40.625 48.1875 47.75 41.5 
Q 54.890625 34.8125 54.890625 23.390625 
Q 54.890625 11.625 47.5625 5.09375 
Q 40.234375 -1.421875 26.90625 -1.421875 
Q 22.3125 -1.421875 17.546875 -0.640625 
Q 12.796875 0.140625 7.71875 1.703125 
L 7.71875 11.625 
Q 12.109375 9.234375 16.796875 8.0625 
Q 21.484375 6.890625 26.703125 6.890625 
Q 35.15625 6.890625 40.078125 11.328125 
Q 45.015625 15.765625 45.015625 23.390625 
Q 45.015625 31 40.078125 35.4375 
Q 35.15625 39.890625 26.703125 39.890625 
Q 22.75 39.890625 18.8125 39.015625 
Q 14.890625 38.140625 10.796875 36.28125 
z
" id="DejaVuSans-53"/>
       </defs>
       <use xlink:href="#DejaVuSans-48"/>
       <use x="63.623047" xlink:href="#DejaVuSans-46"/>
       <use x="95.410156" xlink:href="#DejaVuSans-53"/>
      </g>
     </g>
    </g>
    <g id="ytick_8">
     <g id="line2d_25">
      <path clip-path="url(#p35aa993a93)" d="M 47.282813 72.157812 
L 300.919176 72.157812 
" style="fill:none;stroke:#ffffff;stroke-linecap:square;stroke-width:0.8;"/>
     </g>
     <g id="line2d_26">
      <g>
       <use style="fill:#555555;stroke:#555555;stroke-width:0.8;" x="47.282813" xlink:href="#m854a0eedfe" y="72.157812"/>
      </g>
     </g>
     <g id="text_14">
      <!-- 0.6 -->
      <g style="fill:#555555;" transform="translate(24.379688 75.957031)scale(0.1 -0.1)">
       <defs>
        <path d="M 33.015625 40.375 
Q 26.375 40.375 22.484375 35.828125 
Q 18.609375 31.296875 18.609375 23.390625 
Q 18.609375 15.53125 22.484375 10.953125 
Q 26.375 6.390625 33.015625 6.390625 
Q 39.65625 6.390625 43.53125 10.953125 
Q 47.40625 15.53125 47.40625 23.390625 
Q 47.40625 31.296875 43.53125 35.828125 
Q 39.65625 40.375 33.015625 40.375 
z
M 52.59375 71.296875 
L 52.59375 62.3125 
Q 48.875 64.0625 45.09375 64.984375 
Q 41.3125 65.921875 37.59375 65.921875 
Q 27.828125 65.921875 22.671875 59.328125 
Q 17.53125 52.734375 16.796875 39.40625 
Q 19.671875 43.65625 24.015625 45.921875 
Q 28.375 48.1875 33.59375 48.1875 
Q 44.578125 48.1875 50.953125 41.515625 
Q 57.328125 34.859375 57.328125 23.390625 
Q 57.328125 12.15625 50.6875 5.359375 
Q 44.046875 -1.421875 33.015625 -1.421875 
Q 20.359375 -1.421875 13.671875 8.265625 
Q 6.984375 17.96875 6.984375 36.375 
Q 6.984375 53.65625 15.1875 63.9375 
Q 23.390625 74.21875 37.203125 74.21875 
Q 40.921875 74.21875 44.703125 73.484375 
Q 48.484375 72.75 52.59375 71.296875 
z
" id="DejaVuSans-54"/>
       </defs>
       <use xlink:href="#DejaVuSans-48"/>
       <use x="63.623047" xlink:href="#DejaVuSans-46"/>
       <use x="95.410156" xlink:href="#DejaVuSans-54"/>
      </g>
     </g>
    </g>
    <g id="ytick_9">
     <g id="line2d_27">
      <path clip-path="url(#p35aa993a93)" d="M 47.282813 47.997812 
L 300.919176 47.997812 
" style="fill:none;stroke:#ffffff;stroke-linecap:square;stroke-width:0.8;"/>
     </g>
     <g id="line2d_28">
      <g>
       <use style="fill:#555555;stroke:#555555;stroke-width:0.8;" x="47.282813" xlink:href="#m854a0eedfe" y="47.997812"/>
      </g>
     </g>
     <g id="text_15">
      <!-- 0.7 -->
      <g style="fill:#555555;" transform="translate(24.379688 51.797031)scale(0.1 -0.1)">
       <defs>
        <path d="M 8.203125 72.90625 
L 55.078125 72.90625 
L 55.078125 68.703125 
L 28.609375 0 
L 18.3125 0 
L 43.21875 64.59375 
L 8.203125 64.59375 
z
" id="DejaVuSans-55"/>
       </defs>
       <use xlink:href="#DejaVuSans-48"/>
       <use x="63.623047" xlink:href="#DejaVuSans-46"/>
       <use x="95.410156" xlink:href="#DejaVuSans-55"/>
      </g>
     </g>
    </g>
    <g id="ytick_10">
     <g id="line2d_29">
      <path clip-path="url(#p35aa993a93)" d="M 47.282813 23.837812 
L 300.919176 23.837812 
" style="fill:none;stroke:#ffffff;stroke-linecap:square;stroke-width:0.8;"/>
     </g>
     <g id="line2d_30">
      <g>
       <use style="fill:#555555;stroke:#555555;stroke-width:0.8;" x="47.282813" xlink:href="#m854a0eedfe" y="23.837812"/>
      </g>
     </g>
     <g id="text_16">
      <!-- 0.8 -->
      <g style="fill:#555555;" transform="translate(24.379688 27.637031)scale(0.1 -0.1)">
       <defs>
        <path d="M 31.78125 34.625 
Q 24.75 34.625 20.71875 30.859375 
Q 16.703125 27.09375 16.703125 20.515625 
Q 16.703125 13.921875 20.71875 10.15625 
Q 24.75 6.390625 31.78125 6.390625 
Q 38.8125 6.390625 42.859375 10.171875 
Q 46.921875 13.96875 46.921875 20.515625 
Q 46.921875 27.09375 42.890625 30.859375 
Q 38.875 34.625 31.78125 34.625 
z
M 21.921875 38.8125 
Q 15.578125 40.375 12.03125 44.71875 
Q 8.5 49.078125 8.5 55.328125 
Q 8.5 64.0625 14.71875 69.140625 
Q 20.953125 74.21875 31.78125 74.21875 
Q 42.671875 74.21875 48.875 69.140625 
Q 55.078125 64.0625 55.078125 55.328125 
Q 55.078125 49.078125 51.53125 44.71875 
Q 48 40.375 41.703125 38.8125 
Q 48.828125 37.15625 52.796875 32.3125 
Q 56.78125 27.484375 56.78125 20.515625 
Q 56.78125 9.90625 50.3125 4.234375 
Q 43.84375 -1.421875 31.78125 -1.421875 
Q 19.734375 -1.421875 13.25 4.234375 
Q 6.78125 9.90625 6.78125 20.515625 
Q 6.78125 27.484375 10.78125 32.3125 
Q 14.796875 37.15625 21.921875 38.8125 
z
M 18.3125 54.390625 
Q 18.3125 48.734375 21.84375 45.5625 
Q 25.390625 42.390625 31.78125 42.390625 
Q 38.140625 42.390625 41.71875 45.5625 
Q 45.3125 48.734375 45.3125 54.390625 
Q 45.3125 60.0625 41.71875 63.234375 
Q 38.140625 66.40625 31.78125 66.40625 
Q 25.390625 66.40625 21.84375 63.234375 
Q 18.3125 60.0625 18.3125 54.390625 
z
" id="DejaVuSans-56"/>
       </defs>
       <use xlink:href="#DejaVuSans-48"/>
       <use x="63.623047" xlink:href="#DejaVuSans-46"/>
       <use x="95.410156" xlink:href="#DejaVuSans-56"/>
      </g>
     </g>
    </g>
    <g id="text_17">
     <!-- $y$ -->
     <g style="fill:#555555;" transform="translate(7.2 129.197812)scale(0.16 -0.16)">
      <defs>
       <path d="M 24.8125 -5.078125 
Q 18.5625 -15.578125 14.625 -18.1875 
Q 10.6875 -20.796875 4.59375 -20.796875 
L -2.484375 -20.796875 
L -0.984375 -13.28125 
L 4.203125 -13.28125 
Q 7.953125 -13.28125 10.59375 -11.234375 
Q 13.234375 -9.1875 16.5 -3.21875 
L 19.28125 2 
L 7.171875 54.6875 
L 16.703125 54.6875 
L 25.78125 12.796875 
L 50.875 54.6875 
L 60.296875 54.6875 
z
" id="DejaVuSans-Oblique-121"/>
      </defs>
      <use transform="translate(0 0.3125)" xlink:href="#DejaVuSans-Oblique-121"/>
     </g>
    </g>
   </g>
   <g id="line2d_31">
    <defs>
     <path d="M 0 1.5 
C 0.397805 1.5 0.77937 1.341951 1.06066 1.06066 
C 1.341951 0.77937 1.5 0.397805 1.5 0 
C 1.5 -0.397805 1.341951 -0.77937 1.06066 -1.06066 
C 0.77937 -1.341951 0.397805 -1.5 0 -1.5 
C -0.397805 -1.5 -0.77937 -1.341951 -1.06066 -1.06066 
C -1.341951 -0.77937 -1.5 -0.397805 -1.5 0 
C -1.5 0.397805 -1.341951 0.77937 -1.06066 1.06066 
C -0.77937 1.341951 -0.397805 1.5 0 1.5 
z
" id="me90d0f4b10" style="stroke:#0000ff;"/>
    </defs>
    <g clip-path="url(#p35aa993a93)">
     <use style="fill:#0000ff;stroke:#0000ff;" x="142.279806" xlink:href="#me90d0f4b10" y="204.6578"/>
     <use style="fill:#0000ff;stroke:#0000ff;" x="288.418532" xlink:href="#me90d0f4b10" y="73.491495"/>
     <use style="fill:#0000ff;stroke:#0000ff;" x="232.943094" xlink:href="#me90d0f4b10" y="176.999745"/>
     <use style="fill:#0000ff;stroke:#0000ff;" x="199.124373" xlink:href="#me90d0f4b10" y="234.072807"/>
     <use style="fill:#0000ff;stroke:#0000ff;" x="86.854813" xlink:href="#me90d0f4b10" y="134.010811"/>
     <use style="fill:#0000ff;stroke:#0000ff;" x="86.848695" xlink:href="#me90d0f4b10" y="127.031227"/>
     <use style="fill:#0000ff;stroke:#0000ff;" x="62.014929" xlink:href="#me90d0f4b10" y="57.718592"/>
     <use style="fill:#0000ff;stroke:#0000ff;" x="266.97658" xlink:href="#me90d0f4b10" y="126.193731"/>
     <use style="fill:#0000ff;stroke:#0000ff;" x="199.747438" xlink:href="#me90d0f4b10" y="219.473882"/>
     <use style="fill:#0000ff;stroke:#0000ff;" x="226.875766" xlink:href="#me90d0f4b10" y="191.799403"/>
     <use style="fill:#0000ff;stroke:#0000ff;" x="52.503789" xlink:href="#me90d0f4b10" y="39.472283"/>
     <use style="fill:#0000ff;stroke:#0000ff;" x="293.28722" xlink:href="#me90d0f4b10" y="53.099592"/>
     <use style="fill:#0000ff;stroke:#0000ff;" x="258.420537" xlink:href="#me90d0f4b10" y="143.41379"/>
     <use style="fill:#0000ff;stroke:#0000ff;" x="101.139732" xlink:href="#me90d0f4b10" y="150.941221"/>
     <use style="fill:#0000ff;stroke:#0000ff;" x="93.400236" xlink:href="#me90d0f4b10" y="142.569733"/>
     <use style="fill:#0000ff;stroke:#0000ff;" x="93.800865" xlink:href="#me90d0f4b10" y="132.767917"/>
     <use style="fill:#0000ff;stroke:#0000ff;" x="124.449709" xlink:href="#me90d0f4b10" y="197.823481"/>
     <use style="fill:#0000ff;stroke:#0000ff;" x="180.380126" xlink:href="#me90d0f4b10" y="220.631755"/>
     <use style="fill:#0000ff;stroke:#0000ff;" x="156.839776" xlink:href="#me90d0f4b10" y="218.497582"/>
     <use style="fill:#0000ff;stroke:#0000ff;" x="121.149113" xlink:href="#me90d0f4b10" y="203.206468"/>
     <use style="fill:#0000ff;stroke:#0000ff;" x="202.470956" xlink:href="#me90d0f4b10" y="204.472656"/>
     <use style="fill:#0000ff;stroke:#0000ff;" x="82.663528" xlink:href="#me90d0f4b10" y="119.765867"/>
     <use style="fill:#0000ff;stroke:#0000ff;" x="121.381319" xlink:href="#me90d0f4b10" y="185.741894"/>
     <use style="fill:#0000ff;stroke:#0000ff;" x="140.205498" xlink:href="#me90d0f4b10" y="207.007308"/>
     <use style="fill:#0000ff;stroke:#0000ff;" x="162.958745" xlink:href="#me90d0f4b10" y="232.816738"/>
     <use style="fill:#0000ff;stroke:#0000ff;" x="246.431988" xlink:href="#me90d0f4b10" y="163.25461"/>
     <use style="fill:#0000ff;stroke:#0000ff;" x="97.927345" xlink:href="#me90d0f4b10" y="155.883861"/>
     <use style="fill:#0000ff;stroke:#0000ff;" x="177.711366" xlink:href="#me90d0f4b10" y="226.662463"/>
     <use style="fill:#0000ff;stroke:#0000ff;" x="197.54069" xlink:href="#me90d0f4b10" y="212.876024"/>
     <use style="fill:#0000ff;stroke:#0000ff;" x="59.064326" xlink:href="#me90d0f4b10" y="63.140279"/>
     <use style="fill:#0000ff;stroke:#0000ff;" x="201.378279" xlink:href="#me90d0f4b10" y="185.949726"/>
     <use style="fill:#0000ff;stroke:#0000ff;" x="90.533931" xlink:href="#me90d0f4b10" y="136.328717"/>
     <use style="fill:#0000ff;stroke:#0000ff;" x="63.782262" xlink:href="#me90d0f4b10" y="76.888855"/>
     <use style="fill:#0000ff;stroke:#0000ff;" x="287.95469" xlink:href="#me90d0f4b10" y="71.971205"/>
     <use style="fill:#0000ff;stroke:#0000ff;" x="292.20221" xlink:href="#me90d0f4b10" y="83.150369"/>
     <use style="fill:#0000ff;stroke:#0000ff;" x="252.321776" xlink:href="#me90d0f4b10" y="148.503152"/>
     <use style="fill:#0000ff;stroke:#0000ff;" x="124.543941" xlink:href="#me90d0f4b10" y="188.720427"/>
     <use style="fill:#0000ff;stroke:#0000ff;" x="72.056012" xlink:href="#me90d0f4b10" y="70.040119"/>
     <use style="fill:#0000ff;stroke:#0000ff;" x="220.829189" xlink:href="#me90d0f4b10" y="194.84051"/>
     <use style="fill:#0000ff;stroke:#0000ff;" x="158.92149" xlink:href="#me90d0f4b10" y="210.879087"/>
     <use style="fill:#0000ff;stroke:#0000ff;" x="78.236147" xlink:href="#me90d0f4b10" y="113.995757"/>
     <use style="fill:#0000ff;stroke:#0000ff;" x="172.877683" xlink:href="#me90d0f4b10" y="231.218583"/>
     <use style="fill:#0000ff;stroke:#0000ff;" x="56.004992" xlink:href="#me90d0f4b10" y="46.180186"/>
     <use style="fill:#0000ff;stroke:#0000ff;" x="277.919533" xlink:href="#me90d0f4b10" y="86.599156"/>
     <use style="fill:#0000ff;stroke:#0000ff;" x="112.918826" xlink:href="#me90d0f4b10" y="165.388138"/>
     <use style="fill:#0000ff;stroke:#0000ff;" x="215.322556" xlink:href="#me90d0f4b10" y="208.958713"/>
     <use style="fill:#0000ff;stroke:#0000ff;" x="126.344076" xlink:href="#me90d0f4b10" y="174.475927"/>
     <use style="fill:#0000ff;stroke:#0000ff;" x="179.190974" xlink:href="#me90d0f4b10" y="233.760278"/>
     <use style="fill:#0000ff;stroke:#0000ff;" x="185.94842" xlink:href="#me90d0f4b10" y="208.447174"/>
     <use style="fill:#0000ff;stroke:#0000ff;" x="94.168624" xlink:href="#me90d0f4b10" y="118.672354"/>
     <use style="fill:#0000ff;stroke:#0000ff;" x="293.204732" xlink:href="#me90d0f4b10" y="69.258044"/>
     <use style="fill:#0000ff;stroke:#0000ff;" x="243.884683" xlink:href="#me90d0f4b10" y="169.092728"/>
     <use style="fill:#0000ff;stroke:#0000ff;" x="285.573908" xlink:href="#me90d0f4b10" y="75.912149"/>
     <use style="fill:#0000ff;stroke:#0000ff;" x="274.243568" xlink:href="#me90d0f4b10" y="110.211715"/>
     <use style="fill:#0000ff;stroke:#0000ff;" x="198.931989" xlink:href="#me90d0f4b10" y="228.903049"/>
     <use style="fill:#0000ff;stroke:#0000ff;" x="281.103641" xlink:href="#me90d0f4b10" y="87.291211"/>
     <use style="fill:#0000ff;stroke:#0000ff;" x="69.727729" xlink:href="#me90d0f4b10" y="107.213954"/>
     <use style="fill:#0000ff;stroke:#0000ff;" x="96.991193" xlink:href="#me90d0f4b10" y="144.406147"/>
     <use style="fill:#0000ff;stroke:#0000ff;" x="58.754098" xlink:href="#me90d0f4b10" y="78.322612"/>
     <use style="fill:#0000ff;stroke:#0000ff;" x="129.798415" xlink:href="#me90d0f4b10" y="176.281324"/>
     <use style="fill:#0000ff;stroke:#0000ff;" x="145.865507" xlink:href="#me90d0f4b10" y="217.59725"/>
     <use style="fill:#0000ff;stroke:#0000ff;" x="116.106794" xlink:href="#me90d0f4b10" y="183.114855"/>
     <use style="fill:#0000ff;stroke:#0000ff;" x="257.480781" xlink:href="#me90d0f4b10" y="128.962584"/>
     <use style="fill:#0000ff;stroke:#0000ff;" x="137.768429" xlink:href="#me90d0f4b10" y="217.114041"/>
     <use style="fill:#0000ff;stroke:#0000ff;" x="118.53802" xlink:href="#me90d0f4b10" y="179.58717"/>
     <use style="fill:#0000ff;stroke:#0000ff;" x="184.930274" xlink:href="#me90d0f4b10" y="200.00625"/>
     <use style="fill:#0000ff;stroke:#0000ff;" x="83.02632" xlink:href="#me90d0f4b10" y="143.083823"/>
     <use style="fill:#0000ff;stroke:#0000ff;" x="250.749138" xlink:href="#me90d0f4b10" y="148.696514"/>
     <use style="fill:#0000ff;stroke:#0000ff;" x="66.191567" xlink:href="#me90d0f4b10" y="82.784443"/>
     <use style="fill:#0000ff;stroke:#0000ff;" x="297.593226" xlink:href="#me90d0f4b10" y="35.853109"/>
     <use style="fill:#0000ff;stroke:#0000ff;" x="243.152168" xlink:href="#me90d0f4b10" y="178.34002"/>
     <use style="fill:#0000ff;stroke:#0000ff;" x="97.684335" xlink:href="#me90d0f4b10" y="167.277208"/>
     <use style="fill:#0000ff;stroke:#0000ff;" x="48.683422" xlink:href="#me90d0f4b10" y="33.593087"/>
     <use style="fill:#0000ff;stroke:#0000ff;" x="254.113484" xlink:href="#me90d0f4b10" y="141.401104"/>
     <use style="fill:#0000ff;stroke:#0000ff;" x="226.567539" xlink:href="#me90d0f4b10" y="183.077695"/>
     <use style="fill:#0000ff;stroke:#0000ff;" x="232.18554" xlink:href="#me90d0f4b10" y="174.921102"/>
     <use style="fill:#0000ff;stroke:#0000ff;" x="242.905019" xlink:href="#me90d0f4b10" y="171.996218"/>
     <use style="fill:#0000ff;stroke:#0000ff;" x="66.063229" xlink:href="#me90d0f4b10" y="82.805955"/>
     <use style="fill:#0000ff;stroke:#0000ff;" x="138.202756" xlink:href="#me90d0f4b10" y="199.05834"/>
     <use style="fill:#0000ff;stroke:#0000ff;" x="76.671419" xlink:href="#me90d0f4b10" y="118.798169"/>
     <use style="fill:#0000ff;stroke:#0000ff;" x="266.197227" xlink:href="#me90d0f4b10" y="99.018654"/>
     <use style="fill:#0000ff;stroke:#0000ff;" x="205.373883" xlink:href="#me90d0f4b10" y="200.375191"/>
     <use style="fill:#0000ff;stroke:#0000ff;" x="131.210584" xlink:href="#me90d0f4b10" y="210.782756"/>
     <use style="fill:#0000ff;stroke:#0000ff;" x="63.403521" xlink:href="#me90d0f4b10" y="71.125789"/>
     <use style="fill:#0000ff;stroke:#0000ff;" x="126.159238" xlink:href="#me90d0f4b10" y="202.996543"/>
     <use style="fill:#0000ff;stroke:#0000ff;" x="129.761128" xlink:href="#me90d0f4b10" y="185.459311"/>
     <use style="fill:#0000ff;stroke:#0000ff;" x="232.33747" xlink:href="#me90d0f4b10" y="164.911249"/>
     <use style="fill:#0000ff;stroke:#0000ff;" x="208.990571" xlink:href="#me90d0f4b10" y="213.316947"/>
     <use style="fill:#0000ff;stroke:#0000ff;" x="272.312226" xlink:href="#me90d0f4b10" y="96.808277"/>
     <use style="fill:#0000ff;stroke:#0000ff;" x="167.053689" xlink:href="#me90d0f4b10" y="211.571866"/>
     <use style="fill:#0000ff;stroke:#0000ff;" x="77.616262" xlink:href="#me90d0f4b10" y="102.302578"/>
     <use style="fill:#0000ff;stroke:#0000ff;" x="228.187627" xlink:href="#me90d0f4b10" y="161.245477"/>
     <use style="fill:#0000ff;stroke:#0000ff;" x="240.245566" xlink:href="#me90d0f4b10" y="170.789293"/>
     <use style="fill:#0000ff;stroke:#0000ff;" x="189.64312" xlink:href="#me90d0f4b10" y="223.501398"/>
     <use style="fill:#0000ff;stroke:#0000ff;" x="242.828125" xlink:href="#me90d0f4b10" y="174.646002"/>
     <use style="fill:#0000ff;stroke:#0000ff;" x="172.527332" xlink:href="#me90d0f4b10" y="226.9449"/>
     <use style="fill:#0000ff;stroke:#0000ff;" x="179.866866" xlink:href="#me90d0f4b10" y="217.674638"/>
     <use style="fill:#0000ff;stroke:#0000ff;" x="155.722762" xlink:href="#me90d0f4b10" y="209.191276"/>
     <use style="fill:#0000ff;stroke:#0000ff;" x="53.730027" xlink:href="#me90d0f4b10" y="50.530854"/>
     <use style="fill:#0000ff;stroke:#0000ff;" x="74.648002" xlink:href="#me90d0f4b10" y="95.688067"/>
    </g>
   </g>
   <g id="line2d_32">
    <path clip-path="url(#p35aa993a93)" d="M 47.282812 55.739692 
L 64.564649 55.739692 
L 65.072938 97.5644 
L 82.354775 97.5644 
L 82.863064 146.945669 
L 119.459894 146.945669 
L 119.968183 207.402677 
L 223.659202 207.402677 
L 224.167491 175.919561 
L 255.681428 175.919561 
L 256.189717 96.329414 
L 292.786547 96.329414 
L 293.294837 53.099592 
L 295.327994 53.099592 
L 295.836283 35.853109 
L 300.919176 35.853109 
L 300.919176 35.853109 
" style="fill:none;stroke:#ff0000;stroke-linecap:square;stroke-width:2;"/>
   </g>
   <g id="patch_3">
    <path d="M 47.282813 241.277813 
L 47.282813 23.837812 
" style="fill:none;stroke:#ffffff;stroke-linecap:square;stroke-linejoin:miter;"/>
   </g>
   <g id="patch_4">
    <path d="M 300.919176 241.277813 
L 300.919176 23.837812 
" style="fill:none;stroke:#ffffff;stroke-linecap:square;stroke-linejoin:miter;"/>
   </g>
   <g id="patch_5">
    <path d="M 47.282812 241.277813 
L 300.919176 241.277813 
" style="fill:none;stroke:#ffffff;stroke-linecap:square;stroke-linejoin:miter;"/>
   </g>
   <g id="patch_6">
    <path d="M 47.282812 23.837812 
L 300.919176 23.837812 
" style="fill:none;stroke:#ffffff;stroke-linecap:square;stroke-linejoin:miter;"/>
   </g>
   <g id="text_18">
    <!-- learning_rate=1.0, n_estimators=3 -->
    <g transform="translate(50.818963 17.837812)scale(0.14 -0.14)">
     <defs>
      <path d="M 9.421875 75.984375 
L 18.40625 75.984375 
L 18.40625 0 
L 9.421875 0 
z
" id="DejaVuSans-108"/>
      <path d="M 56.203125 29.59375 
L 56.203125 25.203125 
L 14.890625 25.203125 
Q 15.484375 15.921875 20.484375 11.0625 
Q 25.484375 6.203125 34.421875 6.203125 
Q 39.59375 6.203125 44.453125 7.46875 
Q 49.3125 8.734375 54.109375 11.28125 
L 54.109375 2.78125 
Q 49.265625 0.734375 44.1875 -0.34375 
Q 39.109375 -1.421875 33.890625 -1.421875 
Q 20.796875 -1.421875 13.15625 6.1875 
Q 5.515625 13.8125 5.515625 26.8125 
Q 5.515625 40.234375 12.765625 48.109375 
Q 20.015625 56 32.328125 56 
Q 43.359375 56 49.78125 48.890625 
Q 56.203125 41.796875 56.203125 29.59375 
z
M 47.21875 32.234375 
Q 47.125 39.59375 43.09375 43.984375 
Q 39.0625 48.390625 32.421875 48.390625 
Q 24.90625 48.390625 20.390625 44.140625 
Q 15.875 39.890625 15.1875 32.171875 
z
" id="DejaVuSans-101"/>
      <path d="M 34.28125 27.484375 
Q 23.390625 27.484375 19.1875 25 
Q 14.984375 22.515625 14.984375 16.5 
Q 14.984375 11.71875 18.140625 8.90625 
Q 21.296875 6.109375 26.703125 6.109375 
Q 34.1875 6.109375 38.703125 11.40625 
Q 43.21875 16.703125 43.21875 25.484375 
L 43.21875 27.484375 
z
M 52.203125 31.203125 
L 52.203125 0 
L 43.21875 0 
L 43.21875 8.296875 
Q 40.140625 3.328125 35.546875 0.953125 
Q 30.953125 -1.421875 24.3125 -1.421875 
Q 15.921875 -1.421875 10.953125 3.296875 
Q 6 8.015625 6 15.921875 
Q 6 25.140625 12.171875 29.828125 
Q 18.359375 34.515625 30.609375 34.515625 
L 43.21875 34.515625 
L 43.21875 35.40625 
Q 43.21875 41.609375 39.140625 45 
Q 35.0625 48.390625 27.6875 48.390625 
Q 23 48.390625 18.546875 47.265625 
Q 14.109375 46.140625 10.015625 43.890625 
L 10.015625 52.203125 
Q 14.9375 54.109375 19.578125 55.046875 
Q 24.21875 56 28.609375 56 
Q 40.484375 56 46.34375 49.84375 
Q 52.203125 43.703125 52.203125 31.203125 
z
" id="DejaVuSans-97"/>
      <path d="M 41.109375 46.296875 
Q 39.59375 47.171875 37.8125 47.578125 
Q 36.03125 48 33.890625 48 
Q 26.265625 48 22.1875 43.046875 
Q 18.109375 38.09375 18.109375 28.8125 
L 18.109375 0 
L 9.078125 0 
L 9.078125 54.6875 
L 18.109375 54.6875 
L 18.109375 46.1875 
Q 20.953125 51.171875 25.484375 53.578125 
Q 30.03125 56 36.53125 56 
Q 37.453125 56 38.578125 55.875 
Q 39.703125 55.765625 41.0625 55.515625 
z
" id="DejaVuSans-114"/>
      <path d="M 54.890625 33.015625 
L 54.890625 0 
L 45.90625 0 
L 45.90625 32.71875 
Q 45.90625 40.484375 42.875 44.328125 
Q 39.84375 48.1875 33.796875 48.1875 
Q 26.515625 48.1875 22.3125 43.546875 
Q 18.109375 38.921875 18.109375 30.90625 
L 18.109375 0 
L 9.078125 0 
L 9.078125 54.6875 
L 18.109375 54.6875 
L 18.109375 46.1875 
Q 21.34375 51.125 25.703125 53.5625 
Q 30.078125 56 35.796875 56 
Q 45.21875 56 50.046875 50.171875 
Q 54.890625 44.34375 54.890625 33.015625 
z
" id="DejaVuSans-110"/>
      <path d="M 9.421875 54.6875 
L 18.40625 54.6875 
L 18.40625 0 
L 9.421875 0 
z
M 9.421875 75.984375 
L 18.40625 75.984375 
L 18.40625 64.59375 
L 9.421875 64.59375 
z
" id="DejaVuSans-105"/>
      <path d="M 45.40625 27.984375 
Q 45.40625 37.75 41.375 43.109375 
Q 37.359375 48.484375 30.078125 48.484375 
Q 22.859375 48.484375 18.828125 43.109375 
Q 14.796875 37.75 14.796875 27.984375 
Q 14.796875 18.265625 18.828125 12.890625 
Q 22.859375 7.515625 30.078125 7.515625 
Q 37.359375 7.515625 41.375 12.890625 
Q 45.40625 18.265625 45.40625 27.984375 
z
M 54.390625 6.78125 
Q 54.390625 -7.171875 48.1875 -13.984375 
Q 42 -20.796875 29.203125 -20.796875 
Q 24.46875 -20.796875 20.265625 -20.09375 
Q 16.0625 -19.390625 12.109375 -17.921875 
L 12.109375 -9.1875 
Q 16.0625 -11.328125 19.921875 -12.34375 
Q 23.78125 -13.375 27.78125 -13.375 
Q 36.625 -13.375 41.015625 -8.765625 
Q 45.40625 -4.15625 45.40625 5.171875 
L 45.40625 9.625 
Q 42.625 4.78125 38.28125 2.390625 
Q 33.9375 0 27.875 0 
Q 17.828125 0 11.671875 7.65625 
Q 5.515625 15.328125 5.515625 27.984375 
Q 5.515625 40.671875 11.671875 48.328125 
Q 17.828125 56 27.875 56 
Q 33.9375 56 38.28125 53.609375 
Q 42.625 51.21875 45.40625 46.390625 
L 45.40625 54.6875 
L 54.390625 54.6875 
z
" id="DejaVuSans-103"/>
      <path d="M 50.984375 -16.609375 
L 50.984375 -23.578125 
L -0.984375 -23.578125 
L -0.984375 -16.609375 
z
" id="DejaVuSans-95"/>
      <path d="M 18.3125 70.21875 
L 18.3125 54.6875 
L 36.8125 54.6875 
L 36.8125 47.703125 
L 18.3125 47.703125 
L 18.3125 18.015625 
Q 18.3125 11.328125 20.140625 9.421875 
Q 21.96875 7.515625 27.59375 7.515625 
L 36.8125 7.515625 
L 36.8125 0 
L 27.59375 0 
Q 17.1875 0 13.234375 3.875 
Q 9.28125 7.765625 9.28125 18.015625 
L 9.28125 47.703125 
L 2.6875 47.703125 
L 2.6875 54.6875 
L 9.28125 54.6875 
L 9.28125 70.21875 
z
" id="DejaVuSans-116"/>
      <path d="M 10.59375 45.40625 
L 73.1875 45.40625 
L 73.1875 37.203125 
L 10.59375 37.203125 
z
M 10.59375 25.484375 
L 73.1875 25.484375 
L 73.1875 17.1875 
L 10.59375 17.1875 
z
" id="DejaVuSans-61"/>
      <path d="M 11.71875 12.40625 
L 22.015625 12.40625 
L 22.015625 4 
L 14.015625 -11.625 
L 7.71875 -11.625 
L 11.71875 4 
z
" id="DejaVuSans-44"/>
      <path id="DejaVuSans-32"/>
      <path d="M 44.28125 53.078125 
L 44.28125 44.578125 
Q 40.484375 46.53125 36.375 47.5 
Q 32.28125 48.484375 27.875 48.484375 
Q 21.1875 48.484375 17.84375 46.4375 
Q 14.5 44.390625 14.5 40.28125 
Q 14.5 37.15625 16.890625 35.375 
Q 19.28125 33.59375 26.515625 31.984375 
L 29.59375 31.296875 
Q 39.15625 29.25 43.1875 25.515625 
Q 47.21875 21.78125 47.21875 15.09375 
Q 47.21875 7.46875 41.1875 3.015625 
Q 35.15625 -1.421875 24.609375 -1.421875 
Q 20.21875 -1.421875 15.453125 -0.5625 
Q 10.6875 0.296875 5.421875 2 
L 5.421875 11.28125 
Q 10.40625 8.6875 15.234375 7.390625 
Q 20.0625 6.109375 24.8125 6.109375 
Q 31.15625 6.109375 34.5625 8.28125 
Q 37.984375 10.453125 37.984375 14.40625 
Q 37.984375 18.0625 35.515625 20.015625 
Q 33.0625 21.96875 24.703125 23.78125 
L 21.578125 24.515625 
Q 13.234375 26.265625 9.515625 29.90625 
Q 5.8125 33.546875 5.8125 39.890625 
Q 5.8125 47.609375 11.28125 51.796875 
Q 16.75 56 26.8125 56 
Q 31.78125 56 36.171875 55.265625 
Q 40.578125 54.546875 44.28125 53.078125 
z
" id="DejaVuSans-115"/>
      <path d="M 52 44.1875 
Q 55.375 50.25 60.0625 53.125 
Q 64.75 56 71.09375 56 
Q 79.640625 56 84.28125 50.015625 
Q 88.921875 44.046875 88.921875 33.015625 
L 88.921875 0 
L 79.890625 0 
L 79.890625 32.71875 
Q 79.890625 40.578125 77.09375 44.375 
Q 74.3125 48.1875 68.609375 48.1875 
Q 61.625 48.1875 57.5625 43.546875 
Q 53.515625 38.921875 53.515625 30.90625 
L 53.515625 0 
L 44.484375 0 
L 44.484375 32.71875 
Q 44.484375 40.625 41.703125 44.40625 
Q 38.921875 48.1875 33.109375 48.1875 
Q 26.21875 48.1875 22.15625 43.53125 
Q 18.109375 38.875 18.109375 30.90625 
L 18.109375 0 
L 9.078125 0 
L 9.078125 54.6875 
L 18.109375 54.6875 
L 18.109375 46.1875 
Q 21.1875 51.21875 25.484375 53.609375 
Q 29.78125 56 35.6875 56 
Q 41.65625 56 45.828125 52.96875 
Q 50 49.953125 52 44.1875 
z
" id="DejaVuSans-109"/>
      <path d="M 30.609375 48.390625 
Q 23.390625 48.390625 19.1875 42.75 
Q 14.984375 37.109375 14.984375 27.296875 
Q 14.984375 17.484375 19.15625 11.84375 
Q 23.34375 6.203125 30.609375 6.203125 
Q 37.796875 6.203125 41.984375 11.859375 
Q 46.1875 17.53125 46.1875 27.296875 
Q 46.1875 37.015625 41.984375 42.703125 
Q 37.796875 48.390625 30.609375 48.390625 
z
M 30.609375 56 
Q 42.328125 56 49.015625 48.375 
Q 55.71875 40.765625 55.71875 27.296875 
Q 55.71875 13.875 49.015625 6.21875 
Q 42.328125 -1.421875 30.609375 -1.421875 
Q 18.84375 -1.421875 12.171875 6.21875 
Q 5.515625 13.875 5.515625 27.296875 
Q 5.515625 40.765625 12.171875 48.375 
Q 18.84375 56 30.609375 56 
z
" id="DejaVuSans-111"/>
     </defs>
     <use xlink:href="#DejaVuSans-108"/>
     <use x="27.783203" xlink:href="#DejaVuSans-101"/>
     <use x="89.306641" xlink:href="#DejaVuSans-97"/>
     <use x="150.585938" xlink:href="#DejaVuSans-114"/>
     <use x="189.949219" xlink:href="#DejaVuSans-110"/>
     <use x="253.328125" xlink:href="#DejaVuSans-105"/>
     <use x="281.111328" xlink:href="#DejaVuSans-110"/>
     <use x="344.490234" xlink:href="#DejaVuSans-103"/>
     <use x="407.966797" xlink:href="#DejaVuSans-95"/>
     <use x="457.966797" xlink:href="#DejaVuSans-114"/>
     <use x="499.080078" xlink:href="#DejaVuSans-97"/>
     <use x="560.359375" xlink:href="#DejaVuSans-116"/>
     <use x="599.568359" xlink:href="#DejaVuSans-101"/>
     <use x="661.091797" xlink:href="#DejaVuSans-61"/>
     <use x="744.880859" xlink:href="#DejaVuSans-49"/>
     <use x="808.503906" xlink:href="#DejaVuSans-46"/>
     <use x="840.291016" xlink:href="#DejaVuSans-48"/>
     <use x="903.914062" xlink:href="#DejaVuSans-44"/>
     <use x="935.701172" xlink:href="#DejaVuSans-32"/>
     <use x="967.488281" xlink:href="#DejaVuSans-110"/>
     <use x="1030.867188" xlink:href="#DejaVuSans-95"/>
     <use x="1080.867188" xlink:href="#DejaVuSans-101"/>
     <use x="1142.390625" xlink:href="#DejaVuSans-115"/>
     <use x="1194.490234" xlink:href="#DejaVuSans-116"/>
     <use x="1233.699219" xlink:href="#DejaVuSans-105"/>
     <use x="1261.482422" xlink:href="#DejaVuSans-109"/>
     <use x="1358.894531" xlink:href="#DejaVuSans-97"/>
     <use x="1420.173828" xlink:href="#DejaVuSans-116"/>
     <use x="1459.382812" xlink:href="#DejaVuSans-111"/>
     <use x="1520.564453" xlink:href="#DejaVuSans-114"/>
     <use x="1561.677734" xlink:href="#DejaVuSans-115"/>
     <use x="1613.777344" xlink:href="#DejaVuSans-61"/>
     <use x="1697.566406" xlink:href="#DejaVuSans-51"/>
    </g>
   </g>
   <g id="legend_1">
    <g id="patch_7">
     <path d="M 62.425994 60.122812 
L 285.775994 60.122812 
Q 288.975994 60.122812 288.975994 56.922812 
L 288.975994 35.037812 
Q 288.975994 31.837812 285.775994 31.837812 
L 62.425994 31.837812 
Q 59.225994 31.837812 59.225994 35.037812 
L 59.225994 56.922812 
Q 59.225994 60.122812 62.425994 60.122812 
z
" style="fill:#e5e5e5;opacity:0.8;stroke:#cccccc;stroke-linejoin:miter;stroke-width:0.5;"/>
    </g>
    <g id="line2d_33">
     <path d="M 65.625994 44.795312 
L 97.625994 44.795312 
" style="fill:none;stroke:#ff0000;stroke-linecap:square;stroke-width:2;"/>
    </g>
    <g id="line2d_34"/>
    <g id="text_19">
     <!-- Ensemble predictions -->
     <g transform="translate(110.425994 50.395312)scale(0.16 -0.16)">
      <defs>
       <path d="M 9.8125 72.90625 
L 55.90625 72.90625 
L 55.90625 64.59375 
L 19.671875 64.59375 
L 19.671875 43.015625 
L 54.390625 43.015625 
L 54.390625 34.71875 
L 19.671875 34.71875 
L 19.671875 8.296875 
L 56.78125 8.296875 
L 56.78125 0 
L 9.8125 0 
z
" id="DejaVuSans-69"/>
       <path d="M 48.6875 27.296875 
Q 48.6875 37.203125 44.609375 42.84375 
Q 40.53125 48.484375 33.40625 48.484375 
Q 26.265625 48.484375 22.1875 42.84375 
Q 18.109375 37.203125 18.109375 27.296875 
Q 18.109375 17.390625 22.1875 11.75 
Q 26.265625 6.109375 33.40625 6.109375 
Q 40.53125 6.109375 44.609375 11.75 
Q 48.6875 17.390625 48.6875 27.296875 
z
M 18.109375 46.390625 
Q 20.953125 51.265625 25.265625 53.625 
Q 29.59375 56 35.59375 56 
Q 45.5625 56 51.78125 48.09375 
Q 58.015625 40.1875 58.015625 27.296875 
Q 58.015625 14.40625 51.78125 6.484375 
Q 45.5625 -1.421875 35.59375 -1.421875 
Q 29.59375 -1.421875 25.265625 0.953125 
Q 20.953125 3.328125 18.109375 8.203125 
L 18.109375 0 
L 9.078125 0 
L 9.078125 75.984375 
L 18.109375 75.984375 
z
" id="DejaVuSans-98"/>
       <path d="M 18.109375 8.203125 
L 18.109375 -20.796875 
L 9.078125 -20.796875 
L 9.078125 54.6875 
L 18.109375 54.6875 
L 18.109375 46.390625 
Q 20.953125 51.265625 25.265625 53.625 
Q 29.59375 56 35.59375 56 
Q 45.5625 56 51.78125 48.09375 
Q 58.015625 40.1875 58.015625 27.296875 
Q 58.015625 14.40625 51.78125 6.484375 
Q 45.5625 -1.421875 35.59375 -1.421875 
Q 29.59375 -1.421875 25.265625 0.953125 
Q 20.953125 3.328125 18.109375 8.203125 
z
M 48.6875 27.296875 
Q 48.6875 37.203125 44.609375 42.84375 
Q 40.53125 48.484375 33.40625 48.484375 
Q 26.265625 48.484375 22.1875 42.84375 
Q 18.109375 37.203125 18.109375 27.296875 
Q 18.109375 17.390625 22.1875 11.75 
Q 26.265625 6.109375 33.40625 6.109375 
Q 40.53125 6.109375 44.609375 11.75 
Q 48.6875 17.390625 48.6875 27.296875 
z
" id="DejaVuSans-112"/>
       <path d="M 45.40625 46.390625 
L 45.40625 75.984375 
L 54.390625 75.984375 
L 54.390625 0 
L 45.40625 0 
L 45.40625 8.203125 
Q 42.578125 3.328125 38.25 0.953125 
Q 33.9375 -1.421875 27.875 -1.421875 
Q 17.96875 -1.421875 11.734375 6.484375 
Q 5.515625 14.40625 5.515625 27.296875 
Q 5.515625 40.1875 11.734375 48.09375 
Q 17.96875 56 27.875 56 
Q 33.9375 56 38.25 53.625 
Q 42.578125 51.265625 45.40625 46.390625 
z
M 14.796875 27.296875 
Q 14.796875 17.390625 18.875 11.75 
Q 22.953125 6.109375 30.078125 6.109375 
Q 37.203125 6.109375 41.296875 11.75 
Q 45.40625 17.390625 45.40625 27.296875 
Q 45.40625 37.203125 41.296875 42.84375 
Q 37.203125 48.484375 30.078125 48.484375 
Q 22.953125 48.484375 18.875 42.84375 
Q 14.796875 37.203125 14.796875 27.296875 
z
" id="DejaVuSans-100"/>
       <path d="M 48.78125 52.59375 
L 48.78125 44.1875 
Q 44.96875 46.296875 41.140625 47.34375 
Q 37.3125 48.390625 33.40625 48.390625 
Q 24.65625 48.390625 19.8125 42.84375 
Q 14.984375 37.3125 14.984375 27.296875 
Q 14.984375 17.28125 19.8125 11.734375 
Q 24.65625 6.203125 33.40625 6.203125 
Q 37.3125 6.203125 41.140625 7.25 
Q 44.96875 8.296875 48.78125 10.40625 
L 48.78125 2.09375 
Q 45.015625 0.34375 40.984375 -0.53125 
Q 36.96875 -1.421875 32.421875 -1.421875 
Q 20.0625 -1.421875 12.78125 6.34375 
Q 5.515625 14.109375 5.515625 27.296875 
Q 5.515625 40.671875 12.859375 48.328125 
Q 20.21875 56 33.015625 56 
Q 37.15625 56 41.109375 55.140625 
Q 45.0625 54.296875 48.78125 52.59375 
z
" id="DejaVuSans-99"/>
      </defs>
      <use xlink:href="#DejaVuSans-69"/>
      <use x="63.183594" xlink:href="#DejaVuSans-110"/>
      <use x="126.5625" xlink:href="#DejaVuSans-115"/>
      <use x="178.662109" xlink:href="#DejaVuSans-101"/>
      <use x="240.185547" xlink:href="#DejaVuSans-109"/>
      <use x="337.597656" xlink:href="#DejaVuSans-98"/>
      <use x="401.074219" xlink:href="#DejaVuSans-108"/>
      <use x="428.857422" xlink:href="#DejaVuSans-101"/>
      <use x="490.380859" xlink:href="#DejaVuSans-32"/>
      <use x="522.167969" xlink:href="#DejaVuSans-112"/>
      <use x="585.644531" xlink:href="#DejaVuSans-114"/>
      <use x="624.507812" xlink:href="#DejaVuSans-101"/>
      <use x="686.03125" xlink:href="#DejaVuSans-100"/>
      <use x="749.507812" xlink:href="#DejaVuSans-105"/>
      <use x="777.291016" xlink:href="#DejaVuSans-99"/>
      <use x="832.271484" xlink:href="#DejaVuSans-116"/>
      <use x="871.480469" xlink:href="#DejaVuSans-105"/>
      <use x="899.263672" xlink:href="#DejaVuSans-111"/>
      <use x="960.445312" xlink:href="#DejaVuSans-110"/>
      <use x="1023.824219" xlink:href="#DejaVuSans-115"/>
     </g>
    </g>
   </g>
  </g>
  <g id="axes_2">
   <g id="patch_8">
    <path d="M 351.646449 241.277813 
L 605.282812 241.277813 
L 605.282812 23.837812 
L 351.646449 23.837812 
z
" style="fill:#e5e5e5;"/>
   </g>
   <g id="matplotlib.axis_3">
    <g id="xtick_6">
     <g id="line2d_35">
      <path clip-path="url(#p04516a09f4)" d="M 377.010085 241.277813 
L 377.010085 23.837812 
" style="fill:none;stroke:#ffffff;stroke-linecap:square;stroke-width:0.8;"/>
     </g>
     <g id="line2d_36">
      <g>
       <use style="fill:#555555;stroke:#555555;stroke-width:0.8;" x="377.010085" xlink:href="#m0528b7d9a7" y="241.277813"/>
      </g>
     </g>
     <g id="text_20">
      <!-- −0.4 -->
      <g style="fill:#555555;" transform="translate(364.868679 255.87625)scale(0.1 -0.1)">
       <use xlink:href="#DejaVuSans-8722"/>
       <use x="83.789062" xlink:href="#DejaVuSans-48"/>
       <use x="147.412109" xlink:href="#DejaVuSans-46"/>
       <use x="179.199219" xlink:href="#DejaVuSans-52"/>
      </g>
     </g>
    </g>
    <g id="xtick_7">
     <g id="line2d_37">
      <path clip-path="url(#p04516a09f4)" d="M 427.737358 241.277813 
L 427.737358 23.837812 
" style="fill:none;stroke:#ffffff;stroke-linecap:square;stroke-width:0.8;"/>
     </g>
     <g id="line2d_38">
      <g>
       <use style="fill:#555555;stroke:#555555;stroke-width:0.8;" x="427.737358" xlink:href="#m0528b7d9a7" y="241.277813"/>
      </g>
     </g>
     <g id="text_21">
      <!-- −0.2 -->
      <g style="fill:#555555;" transform="translate(415.595952 255.87625)scale(0.1 -0.1)">
       <use xlink:href="#DejaVuSans-8722"/>
       <use x="83.789062" xlink:href="#DejaVuSans-48"/>
       <use x="147.412109" xlink:href="#DejaVuSans-46"/>
       <use x="179.199219" xlink:href="#DejaVuSans-50"/>
      </g>
     </g>
    </g>
    <g id="xtick_8">
     <g id="line2d_39">
      <path clip-path="url(#p04516a09f4)" d="M 478.464631 241.277813 
L 478.464631 23.837812 
" style="fill:none;stroke:#ffffff;stroke-linecap:square;stroke-width:0.8;"/>
     </g>
     <g id="line2d_40">
      <g>
       <use style="fill:#555555;stroke:#555555;stroke-width:0.8;" x="478.464631" xlink:href="#m0528b7d9a7" y="241.277813"/>
      </g>
     </g>
     <g id="text_22">
      <!-- 0.0 -->
      <g style="fill:#555555;" transform="translate(470.513068 255.87625)scale(0.1 -0.1)">
       <use xlink:href="#DejaVuSans-48"/>
       <use x="63.623047" xlink:href="#DejaVuSans-46"/>
       <use x="95.410156" xlink:href="#DejaVuSans-48"/>
      </g>
     </g>
    </g>
    <g id="xtick_9">
     <g id="line2d_41">
      <path clip-path="url(#p04516a09f4)" d="M 529.191903 241.277813 
L 529.191903 23.837812 
" style="fill:none;stroke:#ffffff;stroke-linecap:square;stroke-width:0.8;"/>
     </g>
     <g id="line2d_42">
      <g>
       <use style="fill:#555555;stroke:#555555;stroke-width:0.8;" x="529.191903" xlink:href="#m0528b7d9a7" y="241.277813"/>
      </g>
     </g>
     <g id="text_23">
      <!-- 0.2 -->
      <g style="fill:#555555;" transform="translate(521.240341 255.87625)scale(0.1 -0.1)">
       <use xlink:href="#DejaVuSans-48"/>
       <use x="63.623047" xlink:href="#DejaVuSans-46"/>
       <use x="95.410156" xlink:href="#DejaVuSans-50"/>
      </g>
     </g>
    </g>
    <g id="xtick_10">
     <g id="line2d_43">
      <path clip-path="url(#p04516a09f4)" d="M 579.919176 241.277813 
L 579.919176 23.837812 
" style="fill:none;stroke:#ffffff;stroke-linecap:square;stroke-width:0.8;"/>
     </g>
     <g id="line2d_44">
      <g>
       <use style="fill:#555555;stroke:#555555;stroke-width:0.8;" x="579.919176" xlink:href="#m0528b7d9a7" y="241.277813"/>
      </g>
     </g>
     <g id="text_24">
      <!-- 0.4 -->
      <g style="fill:#555555;" transform="translate(571.967614 255.87625)scale(0.1 -0.1)">
       <use xlink:href="#DejaVuSans-48"/>
       <use x="63.623047" xlink:href="#DejaVuSans-46"/>
       <use x="95.410156" xlink:href="#DejaVuSans-52"/>
      </g>
     </g>
    </g>
    <g id="text_25">
     <!-- $x_1$ -->
     <g style="fill:#555555;" transform="translate(469.904631 274.113438)scale(0.16 -0.16)">
      <use transform="translate(0 0.3125)" xlink:href="#DejaVuSans-Oblique-120"/>
      <use transform="translate(59.179688 -16.09375)scale(0.7)" xlink:href="#DejaVuSans-49"/>
     </g>
    </g>
   </g>
   <g id="matplotlib.axis_4">
    <g id="ytick_11">
     <g id="line2d_45">
      <path clip-path="url(#p04516a09f4)" d="M 351.646449 241.277813 
L 605.282812 241.277813 
" style="fill:none;stroke:#ffffff;stroke-linecap:square;stroke-width:0.8;"/>
     </g>
     <g id="line2d_46">
      <g>
       <use style="fill:#555555;stroke:#555555;stroke-width:0.8;" x="351.646449" xlink:href="#m854a0eedfe" y="241.277813"/>
      </g>
     </g>
    </g>
    <g id="ytick_12">
     <g id="line2d_47">
      <path clip-path="url(#p04516a09f4)" d="M 351.646449 217.117813 
L 605.282812 217.117813 
" style="fill:none;stroke:#ffffff;stroke-linecap:square;stroke-width:0.8;"/>
     </g>
     <g id="line2d_48">
      <g>
       <use style="fill:#555555;stroke:#555555;stroke-width:0.8;" x="351.646449" xlink:href="#m854a0eedfe" y="217.117813"/>
      </g>
     </g>
    </g>
    <g id="ytick_13">
     <g id="line2d_49">
      <path clip-path="url(#p04516a09f4)" d="M 351.646449 192.957813 
L 605.282812 192.957813 
" style="fill:none;stroke:#ffffff;stroke-linecap:square;stroke-width:0.8;"/>
     </g>
     <g id="line2d_50">
      <g>
       <use style="fill:#555555;stroke:#555555;stroke-width:0.8;" x="351.646449" xlink:href="#m854a0eedfe" y="192.957813"/>
      </g>
     </g>
    </g>
    <g id="ytick_14">
     <g id="line2d_51">
      <path clip-path="url(#p04516a09f4)" d="M 351.646449 168.797812 
L 605.282812 168.797812 
" style="fill:none;stroke:#ffffff;stroke-linecap:square;stroke-width:0.8;"/>
     </g>
     <g id="line2d_52">
      <g>
       <use style="fill:#555555;stroke:#555555;stroke-width:0.8;" x="351.646449" xlink:href="#m854a0eedfe" y="168.797812"/>
      </g>
     </g>
    </g>
    <g id="ytick_15">
     <g id="line2d_53">
      <path clip-path="url(#p04516a09f4)" d="M 351.646449 144.637812 
L 605.282812 144.637812 
" style="fill:none;stroke:#ffffff;stroke-linecap:square;stroke-width:0.8;"/>
     </g>
     <g id="line2d_54">
      <g>
       <use style="fill:#555555;stroke:#555555;stroke-width:0.8;" x="351.646449" xlink:href="#m854a0eedfe" y="144.637812"/>
      </g>
     </g>
    </g>
    <g id="ytick_16">
     <g id="line2d_55">
      <path clip-path="url(#p04516a09f4)" d="M 351.646449 120.477812 
L 605.282812 120.477812 
" style="fill:none;stroke:#ffffff;stroke-linecap:square;stroke-width:0.8;"/>
     </g>
     <g id="line2d_56">
      <g>
       <use style="fill:#555555;stroke:#555555;stroke-width:0.8;" x="351.646449" xlink:href="#m854a0eedfe" y="120.477812"/>
      </g>
     </g>
    </g>
    <g id="ytick_17">
     <g id="line2d_57">
      <path clip-path="url(#p04516a09f4)" d="M 351.646449 96.317812 
L 605.282812 96.317812 
" style="fill:none;stroke:#ffffff;stroke-linecap:square;stroke-width:0.8;"/>
     </g>
     <g id="line2d_58">
      <g>
       <use style="fill:#555555;stroke:#555555;stroke-width:0.8;" x="351.646449" xlink:href="#m854a0eedfe" y="96.317812"/>
      </g>
     </g>
    </g>
    <g id="ytick_18">
     <g id="line2d_59">
      <path clip-path="url(#p04516a09f4)" d="M 351.646449 72.157812 
L 605.282812 72.157812 
" style="fill:none;stroke:#ffffff;stroke-linecap:square;stroke-width:0.8;"/>
     </g>
     <g id="line2d_60">
      <g>
       <use style="fill:#555555;stroke:#555555;stroke-width:0.8;" x="351.646449" xlink:href="#m854a0eedfe" y="72.157812"/>
      </g>
     </g>
    </g>
    <g id="ytick_19">
     <g id="line2d_61">
      <path clip-path="url(#p04516a09f4)" d="M 351.646449 47.997812 
L 605.282812 47.997812 
" style="fill:none;stroke:#ffffff;stroke-linecap:square;stroke-width:0.8;"/>
     </g>
     <g id="line2d_62">
      <g>
       <use style="fill:#555555;stroke:#555555;stroke-width:0.8;" x="351.646449" xlink:href="#m854a0eedfe" y="47.997812"/>
      </g>
     </g>
    </g>
    <g id="ytick_20">
     <g id="line2d_63">
      <path clip-path="url(#p04516a09f4)" d="M 351.646449 23.837812 
L 605.282812 23.837812 
" style="fill:none;stroke:#ffffff;stroke-linecap:square;stroke-width:0.8;"/>
     </g>
     <g id="line2d_64">
      <g>
       <use style="fill:#555555;stroke:#555555;stroke-width:0.8;" x="351.646449" xlink:href="#m854a0eedfe" y="23.837812"/>
      </g>
     </g>
    </g>
   </g>
   <g id="line2d_65">
    <g clip-path="url(#p04516a09f4)">
     <use style="fill:#0000ff;stroke:#0000ff;" x="446.643443" xlink:href="#me90d0f4b10" y="204.6578"/>
     <use style="fill:#0000ff;stroke:#0000ff;" x="592.782168" xlink:href="#me90d0f4b10" y="73.491495"/>
     <use style="fill:#0000ff;stroke:#0000ff;" x="537.30673" xlink:href="#me90d0f4b10" y="176.999745"/>
     <use style="fill:#0000ff;stroke:#0000ff;" x="503.48801" xlink:href="#me90d0f4b10" y="234.072807"/>
     <use style="fill:#0000ff;stroke:#0000ff;" x="391.218449" xlink:href="#me90d0f4b10" y="134.010811"/>
     <use style="fill:#0000ff;stroke:#0000ff;" x="391.212332" xlink:href="#me90d0f4b10" y="127.031227"/>
     <use style="fill:#0000ff;stroke:#0000ff;" x="366.378565" xlink:href="#me90d0f4b10" y="57.718592"/>
     <use style="fill:#0000ff;stroke:#0000ff;" x="571.340217" xlink:href="#me90d0f4b10" y="126.193731"/>
     <use style="fill:#0000ff;stroke:#0000ff;" x="504.111075" xlink:href="#me90d0f4b10" y="219.473882"/>
     <use style="fill:#0000ff;stroke:#0000ff;" x="531.239403" xlink:href="#me90d0f4b10" y="191.799403"/>
     <use style="fill:#0000ff;stroke:#0000ff;" x="356.867425" xlink:href="#me90d0f4b10" y="39.472283"/>
     <use style="fill:#0000ff;stroke:#0000ff;" x="597.650857" xlink:href="#me90d0f4b10" y="53.099592"/>
     <use style="fill:#0000ff;stroke:#0000ff;" x="562.784173" xlink:href="#me90d0f4b10" y="143.41379"/>
     <use style="fill:#0000ff;stroke:#0000ff;" x="405.503369" xlink:href="#me90d0f4b10" y="150.941221"/>
     <use style="fill:#0000ff;stroke:#0000ff;" x="397.763872" xlink:href="#me90d0f4b10" y="142.569733"/>
     <use style="fill:#0000ff;stroke:#0000ff;" x="398.164502" xlink:href="#me90d0f4b10" y="132.767917"/>
     <use style="fill:#0000ff;stroke:#0000ff;" x="428.813345" xlink:href="#me90d0f4b10" y="197.823481"/>
     <use style="fill:#0000ff;stroke:#0000ff;" x="484.743762" xlink:href="#me90d0f4b10" y="220.631755"/>
     <use style="fill:#0000ff;stroke:#0000ff;" x="461.203413" xlink:href="#me90d0f4b10" y="218.497582"/>
     <use style="fill:#0000ff;stroke:#0000ff;" x="425.512749" xlink:href="#me90d0f4b10" y="203.206468"/>
     <use style="fill:#0000ff;stroke:#0000ff;" x="506.834592" xlink:href="#me90d0f4b10" y="204.472656"/>
     <use style="fill:#0000ff;stroke:#0000ff;" x="387.027164" xlink:href="#me90d0f4b10" y="119.765867"/>
     <use style="fill:#0000ff;stroke:#0000ff;" x="425.744955" xlink:href="#me90d0f4b10" y="185.741894"/>
     <use style="fill:#0000ff;stroke:#0000ff;" x="444.569135" xlink:href="#me90d0f4b10" y="207.007308"/>
     <use style="fill:#0000ff;stroke:#0000ff;" x="467.322381" xlink:href="#me90d0f4b10" y="232.816738"/>
     <use style="fill:#0000ff;stroke:#0000ff;" x="550.795625" xlink:href="#me90d0f4b10" y="163.25461"/>
     <use style="fill:#0000ff;stroke:#0000ff;" x="402.290981" xlink:href="#me90d0f4b10" y="155.883861"/>
     <use style="fill:#0000ff;stroke:#0000ff;" x="482.075002" xlink:href="#me90d0f4b10" y="226.662463"/>
     <use style="fill:#0000ff;stroke:#0000ff;" x="501.904326" xlink:href="#me90d0f4b10" y="212.876024"/>
     <use style="fill:#0000ff;stroke:#0000ff;" x="363.427963" xlink:href="#me90d0f4b10" y="63.140279"/>
     <use style="fill:#0000ff;stroke:#0000ff;" x="505.741916" xlink:href="#me90d0f4b10" y="185.949726"/>
     <use style="fill:#0000ff;stroke:#0000ff;" x="394.897568" xlink:href="#me90d0f4b10" y="136.328717"/>
     <use style="fill:#0000ff;stroke:#0000ff;" x="368.145898" xlink:href="#me90d0f4b10" y="76.888855"/>
     <use style="fill:#0000ff;stroke:#0000ff;" x="592.318326" xlink:href="#me90d0f4b10" y="71.971205"/>
     <use style="fill:#0000ff;stroke:#0000ff;" x="596.565846" xlink:href="#me90d0f4b10" y="83.150369"/>
     <use style="fill:#0000ff;stroke:#0000ff;" x="556.685413" xlink:href="#me90d0f4b10" y="148.503152"/>
     <use style="fill:#0000ff;stroke:#0000ff;" x="428.907578" xlink:href="#me90d0f4b10" y="188.720427"/>
     <use style="fill:#0000ff;stroke:#0000ff;" x="376.419649" xlink:href="#me90d0f4b10" y="70.040119"/>
     <use style="fill:#0000ff;stroke:#0000ff;" x="525.192826" xlink:href="#me90d0f4b10" y="194.84051"/>
     <use style="fill:#0000ff;stroke:#0000ff;" x="463.285127" xlink:href="#me90d0f4b10" y="210.879087"/>
     <use style="fill:#0000ff;stroke:#0000ff;" x="382.599783" xlink:href="#me90d0f4b10" y="113.995757"/>
     <use style="fill:#0000ff;stroke:#0000ff;" x="477.24132" xlink:href="#me90d0f4b10" y="231.218583"/>
     <use style="fill:#0000ff;stroke:#0000ff;" x="360.368628" xlink:href="#me90d0f4b10" y="46.180186"/>
     <use style="fill:#0000ff;stroke:#0000ff;" x="582.283169" xlink:href="#me90d0f4b10" y="86.599156"/>
     <use style="fill:#0000ff;stroke:#0000ff;" x="417.282462" xlink:href="#me90d0f4b10" y="165.388138"/>
     <use style="fill:#0000ff;stroke:#0000ff;" x="519.686192" xlink:href="#me90d0f4b10" y="208.958713"/>
     <use style="fill:#0000ff;stroke:#0000ff;" x="430.707713" xlink:href="#me90d0f4b10" y="174.475927"/>
     <use style="fill:#0000ff;stroke:#0000ff;" x="483.554611" xlink:href="#me90d0f4b10" y="233.760278"/>
     <use style="fill:#0000ff;stroke:#0000ff;" x="490.312056" xlink:href="#me90d0f4b10" y="208.447174"/>
     <use style="fill:#0000ff;stroke:#0000ff;" x="398.532261" xlink:href="#me90d0f4b10" y="118.672354"/>
     <use style="fill:#0000ff;stroke:#0000ff;" x="597.568368" xlink:href="#me90d0f4b10" y="69.258044"/>
     <use style="fill:#0000ff;stroke:#0000ff;" x="548.24832" xlink:href="#me90d0f4b10" y="169.092728"/>
     <use style="fill:#0000ff;stroke:#0000ff;" x="589.937544" xlink:href="#me90d0f4b10" y="75.912149"/>
     <use style="fill:#0000ff;stroke:#0000ff;" x="578.607204" xlink:href="#me90d0f4b10" y="110.211715"/>
     <use style="fill:#0000ff;stroke:#0000ff;" x="503.295625" xlink:href="#me90d0f4b10" y="228.903049"/>
     <use style="fill:#0000ff;stroke:#0000ff;" x="585.467278" xlink:href="#me90d0f4b10" y="87.291211"/>
     <use style="fill:#0000ff;stroke:#0000ff;" x="374.091365" xlink:href="#me90d0f4b10" y="107.213954"/>
     <use style="fill:#0000ff;stroke:#0000ff;" x="401.354829" xlink:href="#me90d0f4b10" y="144.406147"/>
     <use style="fill:#0000ff;stroke:#0000ff;" x="363.117734" xlink:href="#me90d0f4b10" y="78.322612"/>
     <use style="fill:#0000ff;stroke:#0000ff;" x="434.162051" xlink:href="#me90d0f4b10" y="176.281324"/>
     <use style="fill:#0000ff;stroke:#0000ff;" x="450.229143" xlink:href="#me90d0f4b10" y="217.59725"/>
     <use style="fill:#0000ff;stroke:#0000ff;" x="420.470431" xlink:href="#me90d0f4b10" y="183.114855"/>
     <use style="fill:#0000ff;stroke:#0000ff;" x="561.844417" xlink:href="#me90d0f4b10" y="128.962584"/>
     <use style="fill:#0000ff;stroke:#0000ff;" x="442.132065" xlink:href="#me90d0f4b10" y="217.114041"/>
     <use style="fill:#0000ff;stroke:#0000ff;" x="422.901656" xlink:href="#me90d0f4b10" y="179.58717"/>
     <use style="fill:#0000ff;stroke:#0000ff;" x="489.29391" xlink:href="#me90d0f4b10" y="200.00625"/>
     <use style="fill:#0000ff;stroke:#0000ff;" x="387.389957" xlink:href="#me90d0f4b10" y="143.083823"/>
     <use style="fill:#0000ff;stroke:#0000ff;" x="555.112774" xlink:href="#me90d0f4b10" y="148.696514"/>
     <use style="fill:#0000ff;stroke:#0000ff;" x="370.555203" xlink:href="#me90d0f4b10" y="82.784443"/>
     <use style="fill:#0000ff;stroke:#0000ff;" x="601.956863" xlink:href="#me90d0f4b10" y="35.853109"/>
     <use style="fill:#0000ff;stroke:#0000ff;" x="547.515804" xlink:href="#me90d0f4b10" y="178.34002"/>
     <use style="fill:#0000ff;stroke:#0000ff;" x="402.047972" xlink:href="#me90d0f4b10" y="167.277208"/>
     <use style="fill:#0000ff;stroke:#0000ff;" x="353.047059" xlink:href="#me90d0f4b10" y="33.593087"/>
     <use style="fill:#0000ff;stroke:#0000ff;" x="558.47712" xlink:href="#me90d0f4b10" y="141.401104"/>
     <use style="fill:#0000ff;stroke:#0000ff;" x="530.931175" xlink:href="#me90d0f4b10" y="183.077695"/>
     <use style="fill:#0000ff;stroke:#0000ff;" x="536.549176" xlink:href="#me90d0f4b10" y="174.921102"/>
     <use style="fill:#0000ff;stroke:#0000ff;" x="547.268655" xlink:href="#me90d0f4b10" y="171.996218"/>
     <use style="fill:#0000ff;stroke:#0000ff;" x="370.426865" xlink:href="#me90d0f4b10" y="82.805955"/>
     <use style="fill:#0000ff;stroke:#0000ff;" x="442.566393" xlink:href="#me90d0f4b10" y="199.05834"/>
     <use style="fill:#0000ff;stroke:#0000ff;" x="381.035056" xlink:href="#me90d0f4b10" y="118.798169"/>
     <use style="fill:#0000ff;stroke:#0000ff;" x="570.560863" xlink:href="#me90d0f4b10" y="99.018654"/>
     <use style="fill:#0000ff;stroke:#0000ff;" x="509.737519" xlink:href="#me90d0f4b10" y="200.375191"/>
     <use style="fill:#0000ff;stroke:#0000ff;" x="435.574221" xlink:href="#me90d0f4b10" y="210.782756"/>
     <use style="fill:#0000ff;stroke:#0000ff;" x="367.767158" xlink:href="#me90d0f4b10" y="71.125789"/>
     <use style="fill:#0000ff;stroke:#0000ff;" x="430.522874" xlink:href="#me90d0f4b10" y="202.996543"/>
     <use style="fill:#0000ff;stroke:#0000ff;" x="434.124764" xlink:href="#me90d0f4b10" y="185.459311"/>
     <use style="fill:#0000ff;stroke:#0000ff;" x="536.701107" xlink:href="#me90d0f4b10" y="164.911249"/>
     <use style="fill:#0000ff;stroke:#0000ff;" x="513.354208" xlink:href="#me90d0f4b10" y="213.316947"/>
     <use style="fill:#0000ff;stroke:#0000ff;" x="576.675863" xlink:href="#me90d0f4b10" y="96.808277"/>
     <use style="fill:#0000ff;stroke:#0000ff;" x="471.417325" xlink:href="#me90d0f4b10" y="211.571866"/>
     <use style="fill:#0000ff;stroke:#0000ff;" x="381.979899" xlink:href="#me90d0f4b10" y="102.302578"/>
     <use style="fill:#0000ff;stroke:#0000ff;" x="532.551263" xlink:href="#me90d0f4b10" y="161.245477"/>
     <use style="fill:#0000ff;stroke:#0000ff;" x="544.609202" xlink:href="#me90d0f4b10" y="170.789293"/>
     <use style="fill:#0000ff;stroke:#0000ff;" x="494.006756" xlink:href="#me90d0f4b10" y="223.501398"/>
     <use style="fill:#0000ff;stroke:#0000ff;" x="547.191761" xlink:href="#me90d0f4b10" y="174.646002"/>
     <use style="fill:#0000ff;stroke:#0000ff;" x="476.890968" xlink:href="#me90d0f4b10" y="226.9449"/>
     <use style="fill:#0000ff;stroke:#0000ff;" x="484.230503" xlink:href="#me90d0f4b10" y="217.674638"/>
     <use style="fill:#0000ff;stroke:#0000ff;" x="460.086398" xlink:href="#me90d0f4b10" y="209.191276"/>
     <use style="fill:#0000ff;stroke:#0000ff;" x="358.093664" xlink:href="#me90d0f4b10" y="50.530854"/>
     <use style="fill:#0000ff;stroke:#0000ff;" x="379.011638" xlink:href="#me90d0f4b10" y="95.688067"/>
    </g>
   </g>
   <g id="line2d_66">
    <path clip-path="url(#p04516a09f4)" d="M 351.646449 35.265076 
L 354.696185 35.265076 
L 355.204474 40.139078 
L 357.237631 40.139078 
L 357.745921 49.427324 
L 358.762499 49.427324 
L 359.270788 48.242457 
L 361.303946 48.242457 
L 361.812235 74.352457 
L 362.828814 74.352457 
L 363.337103 64.583904 
L 364.861971 64.583904 
L 365.37026 61.466863 
L 366.895128 61.466863 
L 367.403417 70.959382 
L 367.911707 70.959382 
L 368.419996 77.438637 
L 368.928285 77.438637 
L 369.436575 82.950847 
L 371.978021 82.950847 
L 372.48631 101.448318 
L 375.027757 101.448318 
L 375.536046 76.074837 
L 377.569203 76.074837 
L 378.077493 96.075416 
L 379.602361 96.075416 
L 380.11065 114.333901 
L 381.127229 114.333901 
L 381.635518 106.872633 
L 382.143807 106.872633 
L 382.652097 114.128471 
L 384.685254 114.128471 
L 385.193543 120.013814 
L 386.718411 120.013814 
L 387.2267 137.785206 
L 389.259857 137.785206 
L 389.768147 132.915158 
L 390.784725 132.915158 
L 391.293015 133.916156 
L 392.817883 133.916156 
L 393.326172 135.562465 
L 397.900776 135.562465 
L 398.409065 126.192241 
L 399.933933 126.192241 
L 400.442222 144.510575 
L 401.458801 144.510575 
L 401.96709 161.139559 
L 402.475379 157.085778 
L 403.491958 157.085778 
L 404.000247 156.426804 
L 411.116298 156.426804 
L 411.624587 165.323047 
L 418.740637 165.323047 
L 419.248927 181.514695 
L 423.82353 181.514695 
L 424.33182 196.335517 
L 425.348398 196.335517 
L 425.856688 191.315937 
L 429.414713 191.315937 
L 429.923002 194.650385 
L 430.431291 194.650385 
L 430.939581 183.250595 
L 434.497606 183.250595 
L 435.005895 209.182529 
L 442.121945 209.182529 
L 442.630235 207.031489 
L 448.221417 207.031489 
L 448.729706 213.286368 
L 460.42036 213.286368 
L 460.92865 214.720425 
L 464.994964 214.720425 
L 465.503253 221.245513 
L 474.144172 221.245513 
L 474.652461 225.430238 
L 476.685618 225.430238 
L 477.193907 226.451924 
L 483.801668 226.451924 
L 484.309958 218.881635 
L 486.851404 218.881635 
L 487.359694 209.12854 
L 489.392851 209.12854 
L 489.90114 211.612522 
L 491.934297 211.612522 
L 492.442587 218.447501 
L 502.100083 218.447501 
L 502.608373 225.07 
L 503.624951 225.07 
L 504.133241 219.243302 
L 504.64153 219.243302 
L 505.149819 193.829879 
L 506.166398 193.829879 
L 506.674687 203.776771 
L 511.249291 203.776771 
L 511.75758 206.17656 
L 522.431656 206.17656 
L 522.939945 195.086857 
L 528.022838 195.086857 
L 528.531127 187.41721 
L 531.580863 187.41721 
L 532.089152 169.25909 
L 534.12231 169.25909 
L 534.630599 171.179048 
L 536.663756 171.179048 
L 537.172046 172.28996 
L 547.337832 172.28996 
L 547.846121 173.431031 
L 548.35441 169.217536 
L 549.370989 169.217536 
L 549.879278 164.411603 
L 552.929014 164.411603 
L 553.437303 148.073502 
L 557.503618 148.073502 
L 558.011907 143.232833 
L 560.045064 143.232833 
L 560.553354 133.447977 
L 562.078221 133.447977 
L 562.586511 137.854642 
L 566.652825 137.854642 
L 567.161115 106.162658 
L 570.71914 106.162658 
L 571.227429 119.438595 
L 573.768876 119.438595 
L 574.277165 101.297471 
L 577.326901 101.297471 
L 577.83519 106.306388 
L 580.376637 106.306388 
L 580.884926 87.295345 
L 587.492687 87.295345 
L 588.000976 75.99357 
L 591.050712 75.99357 
L 591.559001 74.858163 
L 594.608737 74.858163 
L 595.117026 79.879629 
L 596.641894 79.879629 
L 597.150184 69.912669 
L 597.658473 53.779289 
L 599.69163 53.779289 
L 600.199919 37.369965 
L 605.282812 37.369965 
L 605.282812 37.369965 
" style="fill:none;stroke:#ff0000;stroke-linecap:square;stroke-width:2;"/>
   </g>
   <g id="patch_9">
    <path d="M 351.646449 241.277813 
L 351.646449 23.837812 
" style="fill:none;stroke:#ffffff;stroke-linecap:square;stroke-linejoin:miter;"/>
   </g>
   <g id="patch_10">
    <path d="M 605.282812 241.277813 
L 605.282812 23.837812 
" style="fill:none;stroke:#ffffff;stroke-linecap:square;stroke-linejoin:miter;"/>
   </g>
   <g id="patch_11">
    <path d="M 351.646449 241.277813 
L 605.282812 241.277813 
" style="fill:none;stroke:#ffffff;stroke-linecap:square;stroke-linejoin:miter;"/>
   </g>
   <g id="patch_12">
    <path d="M 351.646449 23.837812 
L 605.282812 23.837812 
" style="fill:none;stroke:#ffffff;stroke-linecap:square;stroke-linejoin:miter;"/>
   </g>
   <g id="text_26">
    <!-- learning_rate=0.1, n_estimators=200 -->
    <g transform="translate(346.275099 17.837812)scale(0.14 -0.14)">
     <use xlink:href="#DejaVuSans-108"/>
     <use x="27.783203" xlink:href="#DejaVuSans-101"/>
     <use x="89.306641" xlink:href="#DejaVuSans-97"/>
     <use x="150.585938" xlink:href="#DejaVuSans-114"/>
     <use x="189.949219" xlink:href="#DejaVuSans-110"/>
     <use x="253.328125" xlink:href="#DejaVuSans-105"/>
     <use x="281.111328" xlink:href="#DejaVuSans-110"/>
     <use x="344.490234" xlink:href="#DejaVuSans-103"/>
     <use x="407.966797" xlink:href="#DejaVuSans-95"/>
     <use x="457.966797" xlink:href="#DejaVuSans-114"/>
     <use x="499.080078" xlink:href="#DejaVuSans-97"/>
     <use x="560.359375" xlink:href="#DejaVuSans-116"/>
     <use x="599.568359" xlink:href="#DejaVuSans-101"/>
     <use x="661.091797" xlink:href="#DejaVuSans-61"/>
     <use x="744.880859" xlink:href="#DejaVuSans-48"/>
     <use x="808.503906" xlink:href="#DejaVuSans-46"/>
     <use x="840.291016" xlink:href="#DejaVuSans-49"/>
     <use x="903.914062" xlink:href="#DejaVuSans-44"/>
     <use x="935.701172" xlink:href="#DejaVuSans-32"/>
     <use x="967.488281" xlink:href="#DejaVuSans-110"/>
     <use x="1030.867188" xlink:href="#DejaVuSans-95"/>
     <use x="1080.867188" xlink:href="#DejaVuSans-101"/>
     <use x="1142.390625" xlink:href="#DejaVuSans-115"/>
     <use x="1194.490234" xlink:href="#DejaVuSans-116"/>
     <use x="1233.699219" xlink:href="#DejaVuSans-105"/>
     <use x="1261.482422" xlink:href="#DejaVuSans-109"/>
     <use x="1358.894531" xlink:href="#DejaVuSans-97"/>
     <use x="1420.173828" xlink:href="#DejaVuSans-116"/>
     <use x="1459.382812" xlink:href="#DejaVuSans-111"/>
     <use x="1520.564453" xlink:href="#DejaVuSans-114"/>
     <use x="1561.677734" xlink:href="#DejaVuSans-115"/>
     <use x="1613.777344" xlink:href="#DejaVuSans-61"/>
     <use x="1697.566406" xlink:href="#DejaVuSans-50"/>
     <use x="1761.189453" xlink:href="#DejaVuSans-48"/>
     <use x="1824.8125" xlink:href="#DejaVuSans-48"/>
    </g>
   </g>
  </g>
 </g>
 <defs>
  <clipPath id="p35aa993a93">
   <rect height="217.44" width="253.636364" x="47.282813" y="23.837812"/>
  </clipPath>
  <clipPath id="p04516a09f4">
   <rect height="217.44" width="253.636364" x="351.646449" y="23.837812"/>
  </clipPath>
 </defs>
</svg>
