<?xml version="1.0" encoding="utf-8" standalone="no"?>
<!DOCTYPE svg PUBLIC "-//W3C//DTD SVG 1.1//EN"
  "http://www.w3.org/Graphics/SVG/1.1/DTD/svg11.dtd">
<!-- Created with matplotlib (https://matplotlib.org/) -->
<svg height="289.61875pt" version="1.1" viewBox="0 0 565.896761 289.61875" width="565.896761pt" xmlns="http://www.w3.org/2000/svg" xmlns:xlink="http://www.w3.org/1999/xlink">
 <metadata>
  <rdf:RDF xmlns:cc="http://creativecommons.org/ns#" xmlns:dc="http://purl.org/dc/elements/1.1/" xmlns:rdf="http://www.w3.org/1999/02/22-rdf-syntax-ns#">
   <cc:Work>
    <dc:type rdf:resource="http://purl.org/dc/dcmitype/StillImage"/>
    <dc:date>2020-11-11T23:32:40.918309</dc:date>
    <dc:format>image/svg+xml</dc:format>
    <dc:creator>
     <cc:Agent>
      <dc:title>Matplotlib v3.3.2, https://matplotlib.org/</dc:title>
     </cc:Agent>
    </dc:creator>
   </cc:Work>
  </rdf:RDF>
 </metadata>
 <defs>
  <style type="text/css">*{stroke-linecap:butt;stroke-linejoin:round;}</style>
 </defs>
 <g id="figure_1">
  <g id="patch_1">
   <path d="M 0 289.61875 
L 565.896761 289.61875 
L 565.896761 0 
L 0 0 
z
" style="fill:none;"/>
  </g>
  <g id="axes_1">
   <g id="patch_2">
    <path d="M 39.503125 244.32 
L 267.775852 244.32 
L 267.775852 26.88 
L 39.503125 26.88 
z
" style="fill:#ffffff;"/>
   </g>
   <g id="PathCollection_1">
    <defs>
     <path d="M 0 5.477226 
C 1.452577 5.477226 2.845856 4.900111 3.872983 3.872983 
C 4.900111 2.845856 5.477226 1.452577 5.477226 0 
C 5.477226 -1.452577 4.900111 -2.845856 3.872983 -3.872983 
C 2.845856 -4.900111 1.452577 -5.477226 0 -5.477226 
C -1.452577 -5.477226 -2.845856 -4.900111 -3.872983 -3.872983 
C -4.900111 -2.845856 -5.477226 -1.452577 -5.477226 0 
C -5.477226 1.452577 -4.900111 2.845856 -3.872983 3.872983 
C -2.845856 4.900111 -1.452577 5.477226 0 5.477226 
z
" id="m3766dafdce" style="stroke:#ffaaaa;"/>
    </defs>
    <g clip-path="url(#p10bf73f64a)">
     <use style="fill:#ffaaaa;stroke:#ffaaaa;" x="2.685996" xlink:href="#m3766dafdce" y="69.373537"/>
     <use style="fill:#ffaaaa;stroke:#ffaaaa;" x="45.090855" xlink:href="#m3766dafdce" y="-1"/>
     <use style="fill:#ffaaaa;stroke:#ffaaaa;" x="71.208048" xlink:href="#m3766dafdce" y="-1"/>
     <use style="fill:#ffaaaa;stroke:#ffaaaa;" x="31.579375" xlink:href="#m3766dafdce" y="116.550413"/>
     <use style="fill:#ffaaaa;stroke:#ffaaaa;" x="300.378406" xlink:href="#m3766dafdce" y="3.729044"/>
     <use style="fill:#ffaaaa;stroke:#ffaaaa;" x="211.148929" xlink:href="#m3766dafdce" y="160.493721"/>
     <use style="fill:#ffaaaa;stroke:#ffaaaa;" x="220.074145" xlink:href="#m3766dafdce" y="101.011507"/>
     <use style="fill:#ffaaaa;stroke:#ffaaaa;" x="160.271217" xlink:href="#m3766dafdce" y="-1"/>
     <use style="fill:#ffaaaa;stroke:#ffaaaa;" x="-1" xlink:href="#m3766dafdce" y="2.694037"/>
     <use style="fill:#ffaaaa;stroke:#ffaaaa;" x="62.250814" xlink:href="#m3766dafdce" y="164.093781"/>
     <use style="fill:#ffaaaa;stroke:#ffaaaa;" x="25.383223" xlink:href="#m3766dafdce" y="-1"/>
     <use style="fill:#ffaaaa;stroke:#ffaaaa;" x="254.579582" xlink:href="#m3766dafdce" y="-1"/>
     <use style="fill:#ffaaaa;stroke:#ffaaaa;" x="98.827279" xlink:href="#m3766dafdce" y="212.299902"/>
     <use style="fill:#ffaaaa;stroke:#ffaaaa;" x="39.939499" xlink:href="#m3766dafdce" y="-1"/>
     <use style="fill:#ffaaaa;stroke:#ffaaaa;" x="106.480855" xlink:href="#m3766dafdce" y="-1"/>
     <use style="fill:#ffaaaa;stroke:#ffaaaa;" x="158.64815" xlink:href="#m3766dafdce" y="161.280403"/>
     <use style="fill:#ffaaaa;stroke:#ffaaaa;" x="96.683811" xlink:href="#m3766dafdce" y="212.026287"/>
     <use style="fill:#ffaaaa;stroke:#ffaaaa;" x="118.587803" xlink:href="#m3766dafdce" y="177.298003"/>
     <use style="fill:#ffaaaa;stroke:#ffaaaa;" x="46.162808" xlink:href="#m3766dafdce" y="-1"/>
     <use style="fill:#ffaaaa;stroke:#ffaaaa;" x="26.193748" xlink:href="#m3766dafdce" y="-1"/>
     <use style="fill:#ffaaaa;stroke:#ffaaaa;" x="106.403578" xlink:href="#m3766dafdce" y="224.246918"/>
     <use style="fill:#ffaaaa;stroke:#ffaaaa;" x="20.268061" xlink:href="#m3766dafdce" y="-1"/>
     <use style="fill:#ffaaaa;stroke:#ffaaaa;" x="242.906963" xlink:href="#m3766dafdce" y="-1"/>
     <use style="fill:#ffaaaa;stroke:#ffaaaa;" x="189.376408" xlink:href="#m3766dafdce" y="166.521666"/>
     <use style="fill:#ffaaaa;stroke:#ffaaaa;" x="113.959743" xlink:href="#m3766dafdce" y="-1"/>
     <use style="fill:#ffaaaa;stroke:#ffaaaa;" x="266.473651" xlink:href="#m3766dafdce" y="-1"/>
     <use style="fill:#ffaaaa;stroke:#ffaaaa;" x="303.978898" xlink:href="#m3766dafdce" y="54.040723"/>
     <use style="fill:#ffaaaa;stroke:#ffaaaa;" x="257.235775" xlink:href="#m3766dafdce" y="-1"/>
     <use style="fill:#ffaaaa;stroke:#ffaaaa;" x="192.491323" xlink:href="#m3766dafdce" y="-1"/>
     <use style="fill:#ffaaaa;stroke:#ffaaaa;" x="259.415621" xlink:href="#m3766dafdce" y="92.796222"/>
     <use style="fill:#ffaaaa;stroke:#ffaaaa;" x="133.729753" xlink:href="#m3766dafdce" y="228.448576"/>
     <use style="fill:#ffaaaa;stroke:#ffaaaa;" x="227.15704" xlink:href="#m3766dafdce" y="106.224148"/>
     <use style="fill:#ffaaaa;stroke:#ffaaaa;" x="260.731298" xlink:href="#m3766dafdce" y="-1"/>
     <use style="fill:#ffaaaa;stroke:#ffaaaa;" x="24.501187" xlink:href="#m3766dafdce" y="-1"/>
     <use style="fill:#ffaaaa;stroke:#ffaaaa;" x="102.664088" xlink:href="#m3766dafdce" y="210.199034"/>
     <use style="fill:#ffaaaa;stroke:#ffaaaa;" x="228.326501" xlink:href="#m3766dafdce" y="130.002061"/>
     <use style="fill:#ffaaaa;stroke:#ffaaaa;" x="281.388818" xlink:href="#m3766dafdce" y="-1"/>
     <use style="fill:#ffaaaa;stroke:#ffaaaa;" x="22.548931" xlink:href="#m3766dafdce" y="-1"/>
     <use style="fill:#ffaaaa;stroke:#ffaaaa;" x="202.489965" xlink:href="#m3766dafdce" y="214.055887"/>
     <use style="fill:#ffaaaa;stroke:#ffaaaa;" x="42.96958" xlink:href="#m3766dafdce" y="-1"/>
    </g>
   </g>
   <g id="matplotlib.axis_1">
    <g id="xtick_1">
     <g id="line2d_1">
      <defs>
       <path d="M 0 0 
L 0 3.5 
" id="m96173fe560" style="stroke:#000000;stroke-width:0.8;"/>
      </defs>
      <g>
       <use style="stroke:#000000;stroke-width:0.8;" x="39.503125" xlink:href="#m96173fe560" y="244.32"/>
      </g>
     </g>
     <g id="text_1">
      <!-- −1.0 -->
      <g transform="translate(27.361719 258.918437)scale(0.1 -0.1)">
       <defs>
        <path d="M 10.59375 35.5 
L 73.1875 35.5 
L 73.1875 27.203125 
L 10.59375 27.203125 
z
" id="DejaVuSans-8722"/>
        <path d="M 12.40625 8.296875 
L 28.515625 8.296875 
L 28.515625 63.921875 
L 10.984375 60.40625 
L 10.984375 69.390625 
L 28.421875 72.90625 
L 38.28125 72.90625 
L 38.28125 8.296875 
L 54.390625 8.296875 
L 54.390625 0 
L 12.40625 0 
z
" id="DejaVuSans-49"/>
        <path d="M 10.6875 12.40625 
L 21 12.40625 
L 21 0 
L 10.6875 0 
z
" id="DejaVuSans-46"/>
        <path d="M 31.78125 66.40625 
Q 24.171875 66.40625 20.328125 58.90625 
Q 16.5 51.421875 16.5 36.375 
Q 16.5 21.390625 20.328125 13.890625 
Q 24.171875 6.390625 31.78125 6.390625 
Q 39.453125 6.390625 43.28125 13.890625 
Q 47.125 21.390625 47.125 36.375 
Q 47.125 51.421875 43.28125 58.90625 
Q 39.453125 66.40625 31.78125 66.40625 
z
M 31.78125 74.21875 
Q 44.046875 74.21875 50.515625 64.515625 
Q 56.984375 54.828125 56.984375 36.375 
Q 56.984375 17.96875 50.515625 8.265625 
Q 44.046875 -1.421875 31.78125 -1.421875 
Q 19.53125 -1.421875 13.0625 8.265625 
Q 6.59375 17.96875 6.59375 36.375 
Q 6.59375 54.828125 13.0625 64.515625 
Q 19.53125 74.21875 31.78125 74.21875 
z
" id="DejaVuSans-48"/>
       </defs>
       <use xlink:href="#DejaVuSans-8722"/>
       <use x="83.789062" xlink:href="#DejaVuSans-49"/>
       <use x="147.412109" xlink:href="#DejaVuSans-46"/>
       <use x="179.199219" xlink:href="#DejaVuSans-48"/>
      </g>
     </g>
    </g>
    <g id="xtick_2">
     <g id="line2d_2">
      <g>
       <use style="stroke:#000000;stroke-width:0.8;" x="96.571307" xlink:href="#m96173fe560" y="244.32"/>
      </g>
     </g>
     <g id="text_2">
      <!-- −0.5 -->
      <g transform="translate(84.429901 258.918437)scale(0.1 -0.1)">
       <defs>
        <path d="M 10.796875 72.90625 
L 49.515625 72.90625 
L 49.515625 64.59375 
L 19.828125 64.59375 
L 19.828125 46.734375 
Q 21.96875 47.46875 24.109375 47.828125 
Q 26.265625 48.1875 28.421875 48.1875 
Q 40.625 48.1875 47.75 41.5 
Q 54.890625 34.8125 54.890625 23.390625 
Q 54.890625 11.625 47.5625 5.09375 
Q 40.234375 -1.421875 26.90625 -1.421875 
Q 22.3125 -1.421875 17.546875 -0.640625 
Q 12.796875 0.140625 7.71875 1.703125 
L 7.71875 11.625 
Q 12.109375 9.234375 16.796875 8.0625 
Q 21.484375 6.890625 26.703125 6.890625 
Q 35.15625 6.890625 40.078125 11.328125 
Q 45.015625 15.765625 45.015625 23.390625 
Q 45.015625 31 40.078125 35.4375 
Q 35.15625 39.890625 26.703125 39.890625 
Q 22.75 39.890625 18.8125 39.015625 
Q 14.890625 38.140625 10.796875 36.28125 
z
" id="DejaVuSans-53"/>
       </defs>
       <use xlink:href="#DejaVuSans-8722"/>
       <use x="83.789062" xlink:href="#DejaVuSans-48"/>
       <use x="147.412109" xlink:href="#DejaVuSans-46"/>
       <use x="179.199219" xlink:href="#DejaVuSans-53"/>
      </g>
     </g>
    </g>
    <g id="xtick_3">
     <g id="line2d_3">
      <g>
       <use style="stroke:#000000;stroke-width:0.8;" x="153.639489" xlink:href="#m96173fe560" y="244.32"/>
      </g>
     </g>
     <g id="text_3">
      <!-- 0.0 -->
      <g transform="translate(145.687926 258.918437)scale(0.1 -0.1)">
       <use xlink:href="#DejaVuSans-48"/>
       <use x="63.623047" xlink:href="#DejaVuSans-46"/>
       <use x="95.410156" xlink:href="#DejaVuSans-48"/>
      </g>
     </g>
    </g>
    <g id="xtick_4">
     <g id="line2d_4">
      <g>
       <use style="stroke:#000000;stroke-width:0.8;" x="210.70767" xlink:href="#m96173fe560" y="244.32"/>
      </g>
     </g>
     <g id="text_4">
      <!-- 0.5 -->
      <g transform="translate(202.756108 258.918437)scale(0.1 -0.1)">
       <use xlink:href="#DejaVuSans-48"/>
       <use x="63.623047" xlink:href="#DejaVuSans-46"/>
       <use x="95.410156" xlink:href="#DejaVuSans-53"/>
      </g>
     </g>
    </g>
    <g id="xtick_5">
     <g id="line2d_5">
      <g>
       <use style="stroke:#000000;stroke-width:0.8;" x="267.775852" xlink:href="#m96173fe560" y="244.32"/>
      </g>
     </g>
     <g id="text_5">
      <!-- 1.0 -->
      <g transform="translate(259.82429 258.918437)scale(0.1 -0.1)">
       <use xlink:href="#DejaVuSans-49"/>
       <use x="63.623047" xlink:href="#DejaVuSans-46"/>
       <use x="95.410156" xlink:href="#DejaVuSans-48"/>
      </g>
     </g>
    </g>
    <g id="text_6">
     <!-- $x_1$ -->
     <g transform="translate(144.009489 278.675312)scale(0.18 -0.18)">
      <defs>
       <path d="M 60.015625 54.6875 
L 34.90625 27.875 
L 50.296875 0 
L 39.984375 0 
L 28.421875 21.6875 
L 8.296875 0 
L -2.59375 0 
L 24.3125 28.8125 
L 10.015625 54.6875 
L 20.3125 54.6875 
L 30.8125 34.90625 
L 49.125 54.6875 
z
" id="DejaVuSans-Oblique-120"/>
      </defs>
      <use transform="translate(0 0.3125)" xlink:href="#DejaVuSans-Oblique-120"/>
      <use transform="translate(59.179688 -16.09375)scale(0.7)" xlink:href="#DejaVuSans-49"/>
     </g>
    </g>
   </g>
   <g id="matplotlib.axis_2">
    <g id="ytick_1">
     <g id="line2d_6">
      <defs>
       <path d="M 0 0 
L -3.5 0 
" id="m0e50aec81f" style="stroke:#000000;stroke-width:0.8;"/>
      </defs>
      <g>
       <use style="stroke:#000000;stroke-width:0.8;" x="39.503125" xlink:href="#m0e50aec81f" y="244.32"/>
      </g>
     </g>
     <g id="text_7">
      <!-- 0.0 -->
      <g transform="translate(16.6 248.119219)scale(0.1 -0.1)">
       <use xlink:href="#DejaVuSans-48"/>
       <use x="63.623047" xlink:href="#DejaVuSans-46"/>
       <use x="95.410156" xlink:href="#DejaVuSans-48"/>
      </g>
     </g>
    </g>
    <g id="ytick_2">
     <g id="line2d_7">
      <g>
       <use style="stroke:#000000;stroke-width:0.8;" x="39.503125" xlink:href="#m0e50aec81f" y="200.832"/>
      </g>
     </g>
     <g id="text_8">
      <!-- 0.2 -->
      <g transform="translate(16.6 204.631219)scale(0.1 -0.1)">
       <defs>
        <path d="M 19.1875 8.296875 
L 53.609375 8.296875 
L 53.609375 0 
L 7.328125 0 
L 7.328125 8.296875 
Q 12.9375 14.109375 22.625 23.890625 
Q 32.328125 33.6875 34.8125 36.53125 
Q 39.546875 41.84375 41.421875 45.53125 
Q 43.3125 49.21875 43.3125 52.78125 
Q 43.3125 58.59375 39.234375 62.25 
Q 35.15625 65.921875 28.609375 65.921875 
Q 23.96875 65.921875 18.8125 64.3125 
Q 13.671875 62.703125 7.8125 59.421875 
L 7.8125 69.390625 
Q 13.765625 71.78125 18.9375 73 
Q 24.125 74.21875 28.421875 74.21875 
Q 39.75 74.21875 46.484375 68.546875 
Q 53.21875 62.890625 53.21875 53.421875 
Q 53.21875 48.921875 51.53125 44.890625 
Q 49.859375 40.875 45.40625 35.40625 
Q 44.1875 33.984375 37.640625 27.21875 
Q 31.109375 20.453125 19.1875 8.296875 
z
" id="DejaVuSans-50"/>
       </defs>
       <use xlink:href="#DejaVuSans-48"/>
       <use x="63.623047" xlink:href="#DejaVuSans-46"/>
       <use x="95.410156" xlink:href="#DejaVuSans-50"/>
      </g>
     </g>
    </g>
    <g id="ytick_3">
     <g id="line2d_8">
      <g>
       <use style="stroke:#000000;stroke-width:0.8;" x="39.503125" xlink:href="#m0e50aec81f" y="157.344"/>
      </g>
     </g>
     <g id="text_9">
      <!-- 0.4 -->
      <g transform="translate(16.6 161.143219)scale(0.1 -0.1)">
       <defs>
        <path d="M 37.796875 64.3125 
L 12.890625 25.390625 
L 37.796875 25.390625 
z
M 35.203125 72.90625 
L 47.609375 72.90625 
L 47.609375 25.390625 
L 58.015625 25.390625 
L 58.015625 17.1875 
L 47.609375 17.1875 
L 47.609375 0 
L 37.796875 0 
L 37.796875 17.1875 
L 4.890625 17.1875 
L 4.890625 26.703125 
z
" id="DejaVuSans-52"/>
       </defs>
       <use xlink:href="#DejaVuSans-48"/>
       <use x="63.623047" xlink:href="#DejaVuSans-46"/>
       <use x="95.410156" xlink:href="#DejaVuSans-52"/>
      </g>
     </g>
    </g>
    <g id="ytick_4">
     <g id="line2d_9">
      <g>
       <use style="stroke:#000000;stroke-width:0.8;" x="39.503125" xlink:href="#m0e50aec81f" y="113.856"/>
      </g>
     </g>
     <g id="text_10">
      <!-- 0.6 -->
      <g transform="translate(16.6 117.655219)scale(0.1 -0.1)">
       <defs>
        <path d="M 33.015625 40.375 
Q 26.375 40.375 22.484375 35.828125 
Q 18.609375 31.296875 18.609375 23.390625 
Q 18.609375 15.53125 22.484375 10.953125 
Q 26.375 6.390625 33.015625 6.390625 
Q 39.65625 6.390625 43.53125 10.953125 
Q 47.40625 15.53125 47.40625 23.390625 
Q 47.40625 31.296875 43.53125 35.828125 
Q 39.65625 40.375 33.015625 40.375 
z
M 52.59375 71.296875 
L 52.59375 62.3125 
Q 48.875 64.0625 45.09375 64.984375 
Q 41.3125 65.921875 37.59375 65.921875 
Q 27.828125 65.921875 22.671875 59.328125 
Q 17.53125 52.734375 16.796875 39.40625 
Q 19.671875 43.65625 24.015625 45.921875 
Q 28.375 48.1875 33.59375 48.1875 
Q 44.578125 48.1875 50.953125 41.515625 
Q 57.328125 34.859375 57.328125 23.390625 
Q 57.328125 12.15625 50.6875 5.359375 
Q 44.046875 -1.421875 33.015625 -1.421875 
Q 20.359375 -1.421875 13.671875 8.265625 
Q 6.984375 17.96875 6.984375 36.375 
Q 6.984375 53.65625 15.1875 63.9375 
Q 23.390625 74.21875 37.203125 74.21875 
Q 40.921875 74.21875 44.703125 73.484375 
Q 48.484375 72.75 52.59375 71.296875 
z
" id="DejaVuSans-54"/>
       </defs>
       <use xlink:href="#DejaVuSans-48"/>
       <use x="63.623047" xlink:href="#DejaVuSans-46"/>
       <use x="95.410156" xlink:href="#DejaVuSans-54"/>
      </g>
     </g>
    </g>
    <g id="ytick_5">
     <g id="line2d_10">
      <g>
       <use style="stroke:#000000;stroke-width:0.8;" x="39.503125" xlink:href="#m0e50aec81f" y="70.368"/>
      </g>
     </g>
     <g id="text_11">
      <!-- 0.8 -->
      <g transform="translate(16.6 74.167219)scale(0.1 -0.1)">
       <defs>
        <path d="M 31.78125 34.625 
Q 24.75 34.625 20.71875 30.859375 
Q 16.703125 27.09375 16.703125 20.515625 
Q 16.703125 13.921875 20.71875 10.15625 
Q 24.75 6.390625 31.78125 6.390625 
Q 38.8125 6.390625 42.859375 10.171875 
Q 46.921875 13.96875 46.921875 20.515625 
Q 46.921875 27.09375 42.890625 30.859375 
Q 38.875 34.625 31.78125 34.625 
z
M 21.921875 38.8125 
Q 15.578125 40.375 12.03125 44.71875 
Q 8.5 49.078125 8.5 55.328125 
Q 8.5 64.0625 14.71875 69.140625 
Q 20.953125 74.21875 31.78125 74.21875 
Q 42.671875 74.21875 48.875 69.140625 
Q 55.078125 64.0625 55.078125 55.328125 
Q 55.078125 49.078125 51.53125 44.71875 
Q 48 40.375 41.703125 38.8125 
Q 48.828125 37.15625 52.796875 32.3125 
Q 56.78125 27.484375 56.78125 20.515625 
Q 56.78125 9.90625 50.3125 4.234375 
Q 43.84375 -1.421875 31.78125 -1.421875 
Q 19.734375 -1.421875 13.25 4.234375 
Q 6.78125 9.90625 6.78125 20.515625 
Q 6.78125 27.484375 10.78125 32.3125 
Q 14.796875 37.15625 21.921875 38.8125 
z
M 18.3125 54.390625 
Q 18.3125 48.734375 21.84375 45.5625 
Q 25.390625 42.390625 31.78125 42.390625 
Q 38.140625 42.390625 41.71875 45.5625 
Q 45.3125 48.734375 45.3125 54.390625 
Q 45.3125 60.0625 41.71875 63.234375 
Q 38.140625 66.40625 31.78125 66.40625 
Q 25.390625 66.40625 21.84375 63.234375 
Q 18.3125 60.0625 18.3125 54.390625 
z
" id="DejaVuSans-56"/>
       </defs>
       <use xlink:href="#DejaVuSans-48"/>
       <use x="63.623047" xlink:href="#DejaVuSans-46"/>
       <use x="95.410156" xlink:href="#DejaVuSans-56"/>
      </g>
     </g>
    </g>
    <g id="ytick_6">
     <g id="line2d_11">
      <g>
       <use style="stroke:#000000;stroke-width:0.8;" x="39.503125" xlink:href="#m0e50aec81f" y="26.88"/>
      </g>
     </g>
     <g id="text_12">
      <!-- 1.0 -->
      <g transform="translate(16.6 30.679219)scale(0.1 -0.1)">
       <use xlink:href="#DejaVuSans-49"/>
       <use x="63.623047" xlink:href="#DejaVuSans-46"/>
       <use x="95.410156" xlink:href="#DejaVuSans-48"/>
      </g>
     </g>
    </g>
    <g id="text_13">
     <!-- $y$ -->
     <g transform="translate(7.2 131.82)scale(0.18 -0.18)">
      <defs>
       <path d="M 24.8125 -5.078125 
Q 18.5625 -15.578125 14.625 -18.1875 
Q 10.6875 -20.796875 4.59375 -20.796875 
L -2.484375 -20.796875 
L -0.984375 -13.28125 
L 4.203125 -13.28125 
Q 7.953125 -13.28125 10.59375 -11.234375 
Q 13.234375 -9.1875 16.5 -3.21875 
L 19.28125 2 
L 7.171875 54.6875 
L 16.703125 54.6875 
L 25.78125 12.796875 
L 50.875 54.6875 
L 60.296875 54.6875 
z
" id="DejaVuSans-Oblique-121"/>
      </defs>
      <use transform="translate(0 0.3125)" xlink:href="#DejaVuSans-Oblique-121"/>
     </g>
    </g>
   </g>
   <g id="line2d_12">
    <path clip-path="url(#p10bf73f64a)" d="M 39.503125 104.631371 
L 41.80891 108.800616 
L 44.114695 112.884774 
L 46.42048 116.883846 
L 48.726265 120.797831 
L 51.032051 124.626729 
L 53.337836 128.370541 
L 55.643621 132.029266 
L 57.949406 135.602905 
L 60.255191 139.091456 
L 62.560976 142.494922 
L 64.866761 145.8133 
L 67.172546 149.046592 
L 69.478332 152.194797 
L 71.784117 155.257916 
L 74.089902 158.235948 
L 76.395687 161.128893 
L 78.701472 163.936752 
L 81.007257 166.659524 
L 83.313042 169.29721 
L 85.618827 171.849809 
L 87.924613 174.317321 
L 90.230398 176.699747 
L 92.536183 178.997086 
L 94.841968 181.209338 
L 97.147753 183.336504 
L 99.453538 185.378583 
L 101.759323 187.335575 
L 104.065108 189.207481 
L 106.370894 190.9943 
L 108.676679 192.696033 
L 110.982464 194.312679 
L 113.288249 195.844238 
L 115.594034 197.290711 
L 117.899819 198.652097 
L 120.205604 199.928397 
L 122.511389 201.119609 
L 124.817175 202.225736 
L 127.12296 203.246775 
L 129.428745 204.182728 
L 131.73453 205.033594 
L 134.040315 205.799374 
L 136.3461 206.480067 
L 138.651885 207.075673 
L 140.95767 207.586193 
L 143.263456 208.011626 
L 145.569241 208.351973 
L 147.875026 208.607233 
L 150.180811 208.777406 
L 152.486596 208.862493 
L 154.792381 208.862493 
L 157.098166 208.777406 
L 159.403951 208.607233 
L 161.709737 208.351973 
L 164.015522 208.011626 
L 166.321307 207.586193 
L 168.627092 207.075673 
L 170.932877 206.480067 
L 173.238662 205.799374 
L 175.544447 205.033594 
L 177.850232 204.182728 
L 180.156018 203.246775 
L 182.461803 202.225736 
L 184.767588 201.119609 
L 187.073373 199.928397 
L 189.379158 198.652097 
L 191.684943 197.290711 
L 193.990728 195.844238 
L 196.296513 194.312679 
L 198.602299 192.696033 
L 200.908084 190.9943 
L 203.213869 189.207481 
L 205.519654 187.335575 
L 207.825439 185.378583 
L 210.131224 183.336504 
L 212.437009 181.209338 
L 214.742794 178.997086 
L 217.04858 176.699747 
L 219.354365 174.317321 
L 221.66015 171.849809 
L 223.965935 169.29721 
L 226.27172 166.659524 
L 228.577505 163.936752 
L 230.88329 161.128893 
L 233.189075 158.235948 
L 235.494861 155.257916 
L 237.800646 152.194797 
L 240.106431 149.046592 
L 242.412216 145.8133 
L 244.718001 142.494922 
L 247.023786 139.091456 
L 249.329571 135.602905 
L 251.635356 132.029266 
L 253.941142 128.370541 
L 256.246927 124.626729 
L 258.552712 120.797831 
L 260.858497 116.883846 
L 263.164282 112.884774 
L 265.470067 108.800616 
L 267.775852 104.631371 
" style="fill:none;stroke:#000000;stroke-linecap:square;stroke-width:2;"/>
   </g>
   <g id="line2d_13">
    <path clip-path="url(#p10bf73f64a)" d="M 39.503125 82.887371 
L 41.80891 87.056616 
L 44.114695 91.140774 
L 46.42048 95.139846 
L 48.726265 99.053831 
L 51.032051 102.882729 
L 53.337836 106.626541 
L 55.643621 110.285266 
L 57.949406 113.858905 
L 60.255191 117.347456 
L 62.560976 120.750922 
L 64.866761 124.0693 
L 67.172546 127.302592 
L 69.478332 130.450797 
L 71.784117 133.513916 
L 74.089902 136.491948 
L 76.395687 139.384893 
L 78.701472 142.192752 
L 81.007257 144.915524 
L 83.313042 147.55321 
L 85.618827 150.105809 
L 87.924613 152.573321 
L 90.230398 154.955747 
L 92.536183 157.253086 
L 94.841968 159.465338 
L 97.147753 161.592504 
L 99.453538 163.634583 
L 101.759323 165.591575 
L 104.065108 167.463481 
L 106.370894 169.2503 
L 108.676679 170.952033 
L 110.982464 172.568679 
L 113.288249 174.100238 
L 115.594034 175.546711 
L 117.899819 176.908097 
L 120.205604 178.184397 
L 122.511389 179.375609 
L 124.817175 180.481736 
L 127.12296 181.502775 
L 129.428745 182.438728 
L 131.73453 183.289594 
L 134.040315 184.055374 
L 136.3461 184.736067 
L 138.651885 185.331673 
L 140.95767 185.842193 
L 143.263456 186.267626 
L 145.569241 186.607973 
L 147.875026 186.863233 
L 150.180811 187.033406 
L 152.486596 187.118493 
L 154.792381 187.118493 
L 157.098166 187.033406 
L 159.403951 186.863233 
L 161.709737 186.607973 
L 164.015522 186.267626 
L 166.321307 185.842193 
L 168.627092 185.331673 
L 170.932877 184.736067 
L 173.238662 184.055374 
L 175.544447 183.289594 
L 177.850232 182.438728 
L 180.156018 181.502775 
L 182.461803 180.481736 
L 184.767588 179.375609 
L 187.073373 178.184397 
L 189.379158 176.908097 
L 191.684943 175.546711 
L 193.990728 174.100238 
L 196.296513 172.568679 
L 198.602299 170.952033 
L 200.908084 169.2503 
L 203.213869 167.463481 
L 205.519654 165.591575 
L 207.825439 163.634583 
L 210.131224 161.592504 
L 212.437009 159.465338 
L 214.742794 157.253086 
L 217.04858 154.955747 
L 219.354365 152.573321 
L 221.66015 150.105809 
L 223.965935 147.55321 
L 226.27172 144.915524 
L 228.577505 142.192752 
L 230.88329 139.384893 
L 233.189075 136.491948 
L 235.494861 133.513916 
L 237.800646 130.450797 
L 240.106431 127.302592 
L 242.412216 124.0693 
L 244.718001 120.750922 
L 247.023786 117.347456 
L 249.329571 113.858905 
L 251.635356 110.285266 
L 253.941142 106.626541 
L 256.246927 102.882729 
L 258.552712 99.053831 
L 260.858497 95.139846 
L 263.164282 91.140774 
L 265.470067 87.056616 
L 267.775852 82.887371 
" style="fill:none;stroke:#000000;stroke-dasharray:5.55,2.4;stroke-dashoffset:0;stroke-width:1.5;"/>
   </g>
   <g id="line2d_14">
    <path clip-path="url(#p10bf73f64a)" d="M 39.503125 126.375371 
L 41.80891 130.544616 
L 44.114695 134.628774 
L 46.42048 138.627846 
L 48.726265 142.541831 
L 51.032051 146.370729 
L 53.337836 150.114541 
L 55.643621 153.773266 
L 57.949406 157.346905 
L 60.255191 160.835456 
L 62.560976 164.238922 
L 64.866761 167.5573 
L 67.172546 170.790592 
L 69.478332 173.938797 
L 71.784117 177.001916 
L 74.089902 179.979948 
L 76.395687 182.872893 
L 78.701472 185.680752 
L 81.007257 188.403524 
L 83.313042 191.04121 
L 85.618827 193.593809 
L 87.924613 196.061321 
L 90.230398 198.443747 
L 92.536183 200.741086 
L 94.841968 202.953338 
L 97.147753 205.080504 
L 99.453538 207.122583 
L 101.759323 209.079575 
L 104.065108 210.951481 
L 106.370894 212.7383 
L 108.676679 214.440033 
L 110.982464 216.056679 
L 113.288249 217.588238 
L 115.594034 219.034711 
L 117.899819 220.396097 
L 120.205604 221.672397 
L 122.511389 222.863609 
L 124.817175 223.969736 
L 127.12296 224.990775 
L 129.428745 225.926728 
L 131.73453 226.777594 
L 134.040315 227.543374 
L 136.3461 228.224067 
L 138.651885 228.819673 
L 140.95767 229.330193 
L 143.263456 229.755626 
L 145.569241 230.095973 
L 147.875026 230.351233 
L 150.180811 230.521406 
L 152.486596 230.606493 
L 154.792381 230.606493 
L 157.098166 230.521406 
L 159.403951 230.351233 
L 161.709737 230.095973 
L 164.015522 229.755626 
L 166.321307 229.330193 
L 168.627092 228.819673 
L 170.932877 228.224067 
L 173.238662 227.543374 
L 175.544447 226.777594 
L 177.850232 225.926728 
L 180.156018 224.990775 
L 182.461803 223.969736 
L 184.767588 222.863609 
L 187.073373 221.672397 
L 189.379158 220.396097 
L 191.684943 219.034711 
L 193.990728 217.588238 
L 196.296513 216.056679 
L 198.602299 214.440033 
L 200.908084 212.7383 
L 203.213869 210.951481 
L 205.519654 209.079575 
L 207.825439 207.122583 
L 210.131224 205.080504 
L 212.437009 202.953338 
L 214.742794 200.741086 
L 217.04858 198.443747 
L 219.354365 196.061321 
L 221.66015 193.593809 
L 223.965935 191.04121 
L 226.27172 188.403524 
L 228.577505 185.680752 
L 230.88329 182.872893 
L 233.189075 179.979948 
L 235.494861 177.001916 
L 237.800646 173.938797 
L 240.106431 170.790592 
L 242.412216 167.5573 
L 244.718001 164.238922 
L 247.023786 160.835456 
L 249.329571 157.346905 
L 251.635356 153.773266 
L 253.941142 150.114541 
L 256.246927 146.370729 
L 258.552712 142.541831 
L 260.858497 138.627846 
L 263.164282 134.628774 
L 265.470067 130.544616 
L 267.775852 126.375371 
" style="fill:none;stroke:#000000;stroke-dasharray:5.55,2.4;stroke-dashoffset:0;stroke-width:1.5;"/>
   </g>
   <g id="line2d_15">
    <defs>
     <path d="M 0 3 
C 0.795609 3 1.55874 2.683901 2.12132 2.12132 
C 2.683901 1.55874 3 0.795609 3 0 
C 3 -0.795609 2.683901 -1.55874 2.12132 -2.12132 
C 1.55874 -2.683901 0.795609 -3 0 -3 
C -0.795609 -3 -1.55874 -2.683901 -2.12132 -2.12132 
C -2.683901 -1.55874 -3 -0.795609 -3 0 
C -3 0.795609 -2.683901 1.55874 -2.12132 2.12132 
C -1.55874 2.683901 -0.795609 3 0 3 
z
" id="m048343c270" style="stroke:#0000ff;"/>
    </defs>
    <g clip-path="url(#p10bf73f64a)">
     <use style="fill:#0000ff;stroke:#0000ff;" x="-1" xlink:href="#m048343c270" y="54.955459"/>
     <use style="fill:#0000ff;stroke:#0000ff;" x="2.685996" xlink:href="#m048343c270" y="69.373537"/>
     <use style="fill:#0000ff;stroke:#0000ff;" x="131.736916" xlink:href="#m048343c270" y="221.393095"/>
     <use style="fill:#0000ff;stroke:#0000ff;" x="212.846076" xlink:href="#m048343c270" y="-1"/>
     <use style="fill:#0000ff;stroke:#0000ff;" x="151.144539" xlink:href="#m048343c270" y="-1"/>
     <use style="fill:#0000ff;stroke:#0000ff;" x="79.354478" xlink:href="#m048343c270" y="157.75858"/>
     <use style="fill:#0000ff;stroke:#0000ff;" x="98.294855" xlink:href="#m048343c270" y="174.613417"/>
     <use style="fill:#0000ff;stroke:#0000ff;" x="22.709516" xlink:href="#m048343c270" y="-1"/>
     <use style="fill:#0000ff;stroke:#0000ff;" x="18.710414" xlink:href="#m048343c270" y="-1"/>
     <use style="fill:#0000ff;stroke:#0000ff;" x="33.45073" xlink:href="#m048343c270" y="78.481228"/>
     <use style="fill:#0000ff;stroke:#0000ff;" x="53.252039" xlink:href="#m048343c270" y="115.108203"/>
     <use style="fill:#0000ff;stroke:#0000ff;" x="90.938925" xlink:href="#m048343c270" y="-1"/>
     <use style="fill:#0000ff;stroke:#0000ff;" x="7.053889" xlink:href="#m048343c270" y="-1"/>
     <use style="fill:#0000ff;stroke:#0000ff;" x="-1" xlink:href="#m048343c270" y="20.313205"/>
     <use style="fill:#0000ff;stroke:#0000ff;" x="-1" xlink:href="#m048343c270" y="33.758785"/>
     <use style="fill:#0000ff;stroke:#0000ff;" x="108.338159" xlink:href="#m048343c270" y="175.832205"/>
     <use style="fill:#0000ff;stroke:#0000ff;" x="31.579375" xlink:href="#m048343c270" y="116.550413"/>
     <use style="fill:#0000ff;stroke:#0000ff;" x="2.570134" xlink:href="#m048343c270" y="-1"/>
     <use style="fill:#0000ff;stroke:#0000ff;" x="297.712773" xlink:href="#m048343c270" y="-1"/>
     <use style="fill:#0000ff;stroke:#0000ff;" x="300.378406" xlink:href="#m048343c270" y="3.729044"/>
     <use style="fill:#0000ff;stroke:#0000ff;" x="211.148929" xlink:href="#m048343c270" y="160.493721"/>
     <use style="fill:#0000ff;stroke:#0000ff;" x="220.074145" xlink:href="#m048343c270" y="101.011507"/>
     <use style="fill:#0000ff;stroke:#0000ff;" x="160.271217" xlink:href="#m048343c270" y="-1"/>
     <use style="fill:#0000ff;stroke:#0000ff;" x="109.643785" xlink:href="#m048343c270" y="-1"/>
     <use style="fill:#0000ff;stroke:#0000ff;" x="173.466594" xlink:href="#m048343c270" y="204.035643"/>
     <use style="fill:#0000ff;stroke:#0000ff;" x="229.347315" xlink:href="#m048343c270" y="-1"/>
     <use style="fill:#0000ff;stroke:#0000ff;" x="-1" xlink:href="#m048343c270" y="2.694037"/>
     <use style="fill:#0000ff;stroke:#0000ff;" x="62.250814" xlink:href="#m048343c270" y="164.093781"/>
     <use style="fill:#0000ff;stroke:#0000ff;" x="1.200049" xlink:href="#m048343c270" y="-1"/>
     <use style="fill:#0000ff;stroke:#0000ff;" x="25.049879" xlink:href="#m048343c270" y="-1"/>
     <use style="fill:#0000ff;stroke:#0000ff;" x="55.154182" xlink:href="#m048343c270" y="133.940005"/>
     <use style="fill:#0000ff;stroke:#0000ff;" x="17.601498" xlink:href="#m048343c270" y="-1"/>
     <use style="fill:#0000ff;stroke:#0000ff;" x="72.301196" xlink:href="#m048343c270" y="-1"/>
     <use style="fill:#0000ff;stroke:#0000ff;" x="147.611361" xlink:href="#m048343c270" y="215.845543"/>
     <use style="fill:#0000ff;stroke:#0000ff;" x="68.904102" xlink:href="#m048343c270" y="-1"/>
     <use style="fill:#0000ff;stroke:#0000ff;" x="37.039226" xlink:href="#m048343c270" y="-1"/>
     <use style="fill:#0000ff;stroke:#0000ff;" x="225.206919" xlink:href="#m048343c270" y="158.841968"/>
     <use style="fill:#0000ff;stroke:#0000ff;" x="163.257872" xlink:href="#m048343c270" y="-1"/>
     <use style="fill:#0000ff;stroke:#0000ff;" x="38.229457" xlink:href="#m048343c270" y="-1"/>
     <use style="fill:#0000ff;stroke:#0000ff;" x="91.426025" xlink:href="#m048343c270" y="197.614739"/>
     <use style="fill:#0000ff;stroke:#0000ff;" x="247.966926" xlink:href="#m048343c270" y="-1"/>
     <use style="fill:#0000ff;stroke:#0000ff;" x="46.818359" xlink:href="#m048343c270" y="-1"/>
     <use style="fill:#0000ff;stroke:#0000ff;" x="81.649999" xlink:href="#m048343c270" y="152.470322"/>
     <use style="fill:#0000ff;stroke:#0000ff;" x="98.827279" xlink:href="#m048343c270" y="212.299902"/>
     <use style="fill:#0000ff;stroke:#0000ff;" x="217.971964" xlink:href="#m048343c270" y="161.309516"/>
     <use style="fill:#0000ff;stroke:#0000ff;" x="154.939466" xlink:href="#m048343c270" y="-1"/>
     <use style="fill:#0000ff;stroke:#0000ff;" x="106.480855" xlink:href="#m048343c270" y="-1"/>
     <use style="fill:#0000ff;stroke:#0000ff;" x="158.64815" xlink:href="#m048343c270" y="161.280403"/>
     <use style="fill:#0000ff;stroke:#0000ff;" x="107.296626" xlink:href="#m048343c270" y="182.931132"/>
     <use style="fill:#0000ff;stroke:#0000ff;" x="96.683811" xlink:href="#m048343c270" y="212.026287"/>
     <use style="fill:#0000ff;stroke:#0000ff;" x="118.587803" xlink:href="#m048343c270" y="177.298003"/>
     <use style="fill:#0000ff;stroke:#0000ff;" x="46.162808" xlink:href="#m048343c270" y="-1"/>
     <use style="fill:#0000ff;stroke:#0000ff;" x="32.905962" xlink:href="#m048343c270" y="-1"/>
     <use style="fill:#0000ff;stroke:#0000ff;" x="92.52031" xlink:href="#m048343c270" y="158.850113"/>
     <use style="fill:#0000ff;stroke:#0000ff;" x="106.403578" xlink:href="#m048343c270" y="224.246918"/>
     <use style="fill:#0000ff;stroke:#0000ff;" x="20.268061" xlink:href="#m048343c270" y="-1"/>
     <use style="fill:#0000ff;stroke:#0000ff;" x="223.441773" xlink:href="#m048343c270" y="-1"/>
     <use style="fill:#0000ff;stroke:#0000ff;" x="147.666258" xlink:href="#m048343c270" y="217.059749"/>
     <use style="fill:#0000ff;stroke:#0000ff;" x="78.3815" xlink:href="#m048343c270" y="-1"/>
     <use style="fill:#0000ff;stroke:#0000ff;" x="127.703078" xlink:href="#m048343c270" y="-1"/>
     <use style="fill:#0000ff;stroke:#0000ff;" x="189.376408" xlink:href="#m048343c270" y="166.521666"/>
     <use style="fill:#0000ff;stroke:#0000ff;" x="113.959743" xlink:href="#m048343c270" y="-1"/>
     <use style="fill:#0000ff;stroke:#0000ff;" x="142.731406" xlink:href="#m048343c270" y="-1"/>
     <use style="fill:#0000ff;stroke:#0000ff;" x="219.173074" xlink:href="#m048343c270" y="153.799831"/>
     <use style="fill:#0000ff;stroke:#0000ff;" x="303.978898" xlink:href="#m048343c270" y="54.040723"/>
     <use style="fill:#0000ff;stroke:#0000ff;" x="257.235775" xlink:href="#m048343c270" y="-1"/>
     <use style="fill:#0000ff;stroke:#0000ff;" x="192.491323" xlink:href="#m048343c270" y="-1"/>
     <use style="fill:#0000ff;stroke:#0000ff;" x="259.415621" xlink:href="#m048343c270" y="92.796222"/>
     <use style="fill:#0000ff;stroke:#0000ff;" x="133.729753" xlink:href="#m048343c270" y="228.448576"/>
     <use style="fill:#0000ff;stroke:#0000ff;" x="227.15704" xlink:href="#m048343c270" y="106.224148"/>
     <use style="fill:#0000ff;stroke:#0000ff;" x="260.731298" xlink:href="#m048343c270" y="-1"/>
     <use style="fill:#0000ff;stroke:#0000ff;" x="3.463831" xlink:href="#m048343c270" y="-1"/>
     <use style="fill:#0000ff;stroke:#0000ff;" x="21.902908" xlink:href="#m048343c270" y="55.801955"/>
     <use style="fill:#0000ff;stroke:#0000ff;" x="117.378817" xlink:href="#m048343c270" y="196.544281"/>
     <use style="fill:#0000ff;stroke:#0000ff;" x="102.664088" xlink:href="#m048343c270" y="210.199034"/>
     <use style="fill:#0000ff;stroke:#0000ff;" x="228.326501" xlink:href="#m048343c270" y="130.002061"/>
     <use style="fill:#0000ff;stroke:#0000ff;" x="42.471102" xlink:href="#m048343c270" y="114.542966"/>
     <use style="fill:#0000ff;stroke:#0000ff;" x="155.036707" xlink:href="#m048343c270" y="-1"/>
     <use style="fill:#0000ff;stroke:#0000ff;" x="222.661671" xlink:href="#m048343c270" y="-1"/>
     <use style="fill:#0000ff;stroke:#0000ff;" x="182.325917" xlink:href="#m048343c270" y="186.03091"/>
     <use style="fill:#0000ff;stroke:#0000ff;" x="96.956121" xlink:href="#m048343c270" y="-1"/>
     <use style="fill:#0000ff;stroke:#0000ff;" x="73.401827" xlink:href="#m048343c270" y="-1"/>
     <use style="fill:#0000ff;stroke:#0000ff;" x="149.638419" xlink:href="#m048343c270" y="228.375698"/>
     <use style="fill:#0000ff;stroke:#0000ff;" x="12.778215" xlink:href="#m048343c270" y="-1"/>
     <use style="fill:#0000ff;stroke:#0000ff;" x="22.548931" xlink:href="#m048343c270" y="-1"/>
     <use style="fill:#0000ff;stroke:#0000ff;" x="202.489965" xlink:href="#m048343c270" y="214.055887"/>
     <use style="fill:#0000ff;stroke:#0000ff;" x="147.530368" xlink:href="#m048343c270" y="204.984785"/>
     <use style="fill:#0000ff;stroke:#0000ff;" x="22.87827" xlink:href="#m048343c270" y="70.252351"/>
     <use style="fill:#0000ff;stroke:#0000ff;" x="2.097239" xlink:href="#m048343c270" y="-1"/>
     <use style="fill:#0000ff;stroke:#0000ff;" x="86.42783" xlink:href="#m048343c270" y="-1"/>
     <use style="fill:#0000ff;stroke:#0000ff;" x="234.995613" xlink:href="#m048343c270" y="140.81424"/>
     <use style="fill:#0000ff;stroke:#0000ff;" x="88.374888" xlink:href="#m048343c270" y="190.532509"/>
     <use style="fill:#0000ff;stroke:#0000ff;" x="37.622337" xlink:href="#m048343c270" y="-1"/>
     <use style="fill:#0000ff;stroke:#0000ff;" x="36.34679" xlink:href="#m048343c270" y="-1"/>
     <use style="fill:#0000ff;stroke:#0000ff;" x="79.035607" xlink:href="#m048343c270" y="160.831923"/>
     <use style="fill:#0000ff;stroke:#0000ff;" x="127.460574" xlink:href="#m048343c270" y="215.166357"/>
     <use style="fill:#0000ff;stroke:#0000ff;" x="49.810864" xlink:href="#m048343c270" y="-1"/>
     <use style="fill:#0000ff;stroke:#0000ff;" x="24.572906" xlink:href="#m048343c270" y="-1"/>
     <use style="fill:#0000ff;stroke:#0000ff;" x="74.594374" xlink:href="#m048343c270" y="157.064029"/>
     <use style="fill:#0000ff;stroke:#0000ff;" x="52.790588" xlink:href="#m048343c270" y="117.490069"/>
     <use style="fill:#0000ff;stroke:#0000ff;" x="21.332642" xlink:href="#m048343c270" y="-1"/>
    </g>
   </g>
   <g id="patch_3">
    <path d="M 39.503125 244.32 
L 39.503125 26.88 
" style="fill:none;stroke:#000000;stroke-linecap:square;stroke-linejoin:miter;stroke-width:0.8;"/>
   </g>
   <g id="patch_4">
    <path d="M 267.775852 244.32 
L 267.775852 26.88 
" style="fill:none;stroke:#000000;stroke-linecap:square;stroke-linejoin:miter;stroke-width:0.8;"/>
   </g>
   <g id="patch_5">
    <path d="M 39.503125 244.32 
L 267.775852 244.32 
" style="fill:none;stroke:#000000;stroke-linecap:square;stroke-linejoin:miter;stroke-width:0.8;"/>
   </g>
   <g id="patch_6">
    <path d="M 39.503125 26.88 
L 267.775852 26.88 
" style="fill:none;stroke:#000000;stroke-linecap:square;stroke-linejoin:miter;stroke-width:0.8;"/>
   </g>
   <g id="text_14">
    <!-- $degree=2, C=100, \epsilon=0.1$ -->
    <g transform="translate(31.149489 20.88)scale(0.18 -0.18)">
     <defs>
      <path d="M 41.796875 8.203125 
Q 38.1875 3.46875 33.25 1.015625 
Q 28.328125 -1.421875 22.3125 -1.421875 
Q 14.109375 -1.421875 9.34375 4.171875 
Q 4.59375 9.765625 4.59375 19.484375 
Q 4.59375 27.59375 7.46875 34.9375 
Q 10.359375 42.28125 15.828125 48.09375 
Q 19.4375 51.953125 23.96875 53.96875 
Q 28.515625 56 33.5 56 
Q 38.765625 56 42.796875 53.453125 
Q 46.828125 50.921875 49.03125 46.1875 
L 54.890625 75.984375 
L 63.921875 75.984375 
L 49.125 0 
L 40.09375 0 
z
M 13.921875 21.09375 
Q 13.921875 14.015625 17.109375 10.0625 
Q 20.3125 6.109375 25.984375 6.109375 
Q 30.171875 6.109375 33.765625 8.125 
Q 37.359375 10.15625 40.09375 14.109375 
Q 42.96875 18.21875 44.625 23.578125 
Q 46.296875 28.953125 46.296875 34.1875 
Q 46.296875 40.96875 43.09375 44.765625 
Q 39.890625 48.578125 34.28125 48.578125 
Q 30.03125 48.578125 26.359375 46.578125 
Q 22.703125 44.578125 20.125 40.828125 
Q 17.28125 36.765625 15.59375 31.390625 
Q 13.921875 26.03125 13.921875 21.09375 
z
" id="DejaVuSans-Oblique-100"/>
      <path d="M 48.09375 32.234375 
Q 48.25 33.015625 48.3125 33.84375 
Q 48.390625 34.671875 48.390625 35.5 
Q 48.390625 41.453125 44.890625 44.921875 
Q 41.40625 48.390625 35.40625 48.390625 
Q 28.71875 48.390625 23.578125 44.15625 
Q 18.453125 39.9375 15.828125 32.171875 
z
M 55.90625 25.203125 
L 14.109375 25.203125 
Q 13.8125 23.34375 13.71875 22.265625 
Q 13.625 21.1875 13.625 20.40625 
Q 13.625 13.625 17.796875 9.90625 
Q 21.96875 6.203125 29.59375 6.203125 
Q 35.453125 6.203125 40.671875 7.515625 
Q 45.90625 8.84375 50.390625 11.375 
L 48.6875 2.484375 
Q 43.84375 0.53125 38.6875 -0.4375 
Q 33.546875 -1.421875 28.21875 -1.421875 
Q 16.84375 -1.421875 10.71875 4.015625 
Q 4.59375 9.46875 4.59375 19.484375 
Q 4.59375 28.03125 7.640625 35.375 
Q 10.6875 42.71875 16.609375 48.484375 
Q 20.40625 52.09375 25.65625 54.046875 
Q 30.90625 56 36.8125 56 
Q 46.09375 56 51.578125 50.4375 
Q 57.078125 44.875 57.078125 35.5 
Q 57.078125 33.25 56.78125 30.6875 
Q 56.5 28.125 55.90625 25.203125 
z
" id="DejaVuSans-Oblique-101"/>
      <path d="M 59.625 54.6875 
L 50.296875 6.78125 
Q 47.609375 -7.125 40.015625 -13.953125 
Q 32.421875 -20.796875 19.578125 -20.796875 
Q 14.84375 -20.796875 10.78125 -20.09375 
Q 6.734375 -19.390625 3.21875 -17.921875 
L 4.890625 -9.1875 
Q 8.203125 -11.328125 11.90625 -12.34375 
Q 15.625 -13.375 19.828125 -13.375 
Q 28.375 -13.375 33.859375 -8.703125 
Q 39.359375 -4.046875 41.109375 4.6875 
L 41.890625 8.796875 
Q 38.140625 4.5 33.15625 2.25 
Q 28.171875 0 22.40625 0 
Q 14.109375 0 9.34375 5.484375 
Q 4.59375 10.984375 4.59375 20.609375 
Q 4.59375 28.171875 7.46875 35.421875 
Q 10.359375 42.671875 15.578125 48.296875 
Q 19.046875 52 23.65625 54 
Q 28.265625 56 33.296875 56 
Q 38.8125 56 42.90625 53.4375 
Q 47.015625 50.875 49.03125 46.1875 
L 50.59375 54.6875 
z
M 46.09375 34.625 
Q 46.09375 41.265625 42.96875 44.875 
Q 39.84375 48.484375 34.078125 48.484375 
Q 30.515625 48.484375 27.296875 47.0625 
Q 24.078125 45.65625 21.78125 43.109375 
Q 18.0625 38.921875 15.984375 33.234375 
Q 13.921875 27.546875 13.921875 21.484375 
Q 13.921875 14.75 17.0625 11.125 
Q 20.21875 7.515625 26.125 7.515625 
Q 34.671875 7.515625 40.375 15.25 
Q 46.09375 23 46.09375 34.625 
z
" id="DejaVuSans-Oblique-103"/>
      <path d="M 44.578125 46.390625 
Q 43.21875 47.125 41.453125 47.515625 
Q 39.703125 47.90625 37.703125 47.90625 
Q 30.515625 47.90625 25.140625 42.453125 
Q 19.78125 37.015625 18.015625 27.875 
L 12.5 0 
L 3.515625 0 
L 14.203125 54.6875 
L 23.1875 54.6875 
L 21.484375 46.1875 
Q 25.046875 50.921875 30 53.453125 
Q 34.96875 56 40.578125 56 
Q 42.046875 56 43.453125 55.828125 
Q 44.875 55.671875 46.296875 55.28125 
z
" id="DejaVuSans-Oblique-114"/>
      <path d="M 10.59375 45.40625 
L 73.1875 45.40625 
L 73.1875 37.203125 
L 10.59375 37.203125 
z
M 10.59375 25.484375 
L 73.1875 25.484375 
L 73.1875 17.1875 
L 10.59375 17.1875 
z
" id="DejaVuSans-61"/>
      <path d="M 11.71875 12.40625 
L 22.015625 12.40625 
L 22.015625 4 
L 14.015625 -11.625 
L 7.71875 -11.625 
L 11.71875 4 
z
" id="DejaVuSans-44"/>
      <path d="M 69.484375 67.28125 
L 67.484375 56.890625 
Q 62.796875 61.625 57.546875 63.921875 
Q 52.296875 66.21875 46.1875 66.21875 
Q 37.84375 66.21875 31.515625 62.203125 
Q 25.203125 58.203125 20.609375 50 
Q 17.671875 44.734375 16.125 38.84375 
Q 14.59375 32.953125 14.59375 27 
Q 14.59375 17.046875 19.75 11.8125 
Q 24.90625 6.59375 34.71875 6.59375 
Q 41.5 6.59375 47.75 8.765625 
Q 54 10.9375 59.90625 15.28125 
L 57.625 3.609375 
Q 51.8125 1.125 45.875 -0.140625 
Q 39.9375 -1.421875 33.984375 -1.421875 
Q 19.96875 -1.421875 12.078125 6.1875 
Q 4.203125 13.8125 4.203125 27.390625 
Q 4.203125 36.078125 7.203125 44.46875 
Q 10.203125 52.875 15.828125 59.8125 
Q 21.78125 67.1875 29.421875 70.703125 
Q 37.0625 74.21875 47.21875 74.21875 
Q 53.46875 74.21875 59.0625 72.484375 
Q 64.65625 70.75 69.484375 67.28125 
z
" id="DejaVuSans-Oblique-67"/>
      <path d="M 19.734375 29.5 
Q 14.453125 30.671875 12.15625 33.84375 
Q 10.453125 36.078125 10.453125 39.109375 
Q 10.453125 47.40625 18.359375 52.25 
Q 24.609375 56.0625 34.1875 56.0625 
Q 37.890625 56.0625 41.9375 55.46875 
Q 46 54.890625 50.53125 53.71875 
L 48.96875 45.5625 
Q 44.484375 46.96875 40.71875 47.609375 
Q 36.859375 48.25 33.40625 48.25 
Q 27.59375 48.25 23.78125 46 
Q 19.1875 43.3125 19.1875 39.40625 
Q 19.1875 36.8125 21.578125 35.015625 
Q 24.421875 32.859375 30.078125 32.859375 
L 37.640625 32.859375 
L 36.234375 25.4375 
L 29 25.4375 
Q 22.265625 25.4375 18.3125 22.953125 
Q 12.9375 19.578125 12.9375 14.3125 
Q 12.9375 10.984375 15.828125 8.796875 
Q 19.4375 6.0625 26.8125 6.0625 
Q 31.34375 6.0625 35.6875 6.9375 
Q 40.046875 7.859375 43.84375 9.671875 
L 42.1875 1.3125 
Q 37.546875 -0.046875 33.296875 -0.734375 
Q 29.046875 -1.421875 25.140625 -1.421875 
Q 13.53125 -1.421875 8.0625 3.03125 
Q 3.90625 6.453125 3.90625 12.203125 
Q 3.90625 19.96875 9.375 24.75 
Q 13.421875 28.328125 19.734375 29.5 
z
" id="DejaVuSans-Oblique-949"/>
     </defs>
     <use transform="translate(0 0.015625)" xlink:href="#DejaVuSans-Oblique-100"/>
     <use transform="translate(63.476562 0.015625)" xlink:href="#DejaVuSans-Oblique-101"/>
     <use transform="translate(125 0.015625)" xlink:href="#DejaVuSans-Oblique-103"/>
     <use transform="translate(188.476562 0.015625)" xlink:href="#DejaVuSans-Oblique-114"/>
     <use transform="translate(229.589844 0.015625)" xlink:href="#DejaVuSans-Oblique-101"/>
     <use transform="translate(291.113281 0.015625)" xlink:href="#DejaVuSans-Oblique-101"/>
     <use transform="translate(372.119141 0.015625)" xlink:href="#DejaVuSans-61"/>
     <use transform="translate(475.390625 0.015625)" xlink:href="#DejaVuSans-50"/>
     <use transform="translate(539.013672 0.015625)" xlink:href="#DejaVuSans-44"/>
     <use transform="translate(590.283203 0.015625)" xlink:href="#DejaVuSans-Oblique-67"/>
     <use transform="translate(679.589844 0.015625)" xlink:href="#DejaVuSans-61"/>
     <use transform="translate(782.861328 0.015625)" xlink:href="#DejaVuSans-49"/>
     <use transform="translate(846.484375 0.015625)" xlink:href="#DejaVuSans-48"/>
     <use transform="translate(910.107422 0.015625)" xlink:href="#DejaVuSans-48"/>
     <use transform="translate(973.730469 0.015625)" xlink:href="#DejaVuSans-44"/>
     <use transform="translate(1025 0.015625)" xlink:href="#DejaVuSans-Oblique-949"/>
     <use transform="translate(1098.535156 0.015625)" xlink:href="#DejaVuSans-61"/>
     <use transform="translate(1201.806641 0.015625)" xlink:href="#DejaVuSans-48"/>
     <use transform="translate(1265.429688 0.015625)" xlink:href="#DejaVuSans-46"/>
     <use transform="translate(1297.216797 0.015625)" xlink:href="#DejaVuSans-49"/>
    </g>
   </g>
   <g id="legend_1">
    <g id="patch_7">
     <path d="M 52.103125 70.62 
L 120.503125 70.62 
Q 124.103125 70.62 124.103125 67.02 
L 124.103125 39.48 
Q 124.103125 35.88 120.503125 35.88 
L 52.103125 35.88 
Q 48.503125 35.88 48.503125 39.48 
L 48.503125 67.02 
Q 48.503125 70.62 52.103125 70.62 
z
" style="fill:#ffffff;opacity:0.8;stroke:#cccccc;stroke-linejoin:miter;"/>
    </g>
    <g id="line2d_16">
     <path d="M 55.703125 53.34 
L 91.703125 53.34 
" style="fill:none;stroke:#000000;stroke-linecap:square;stroke-width:2;"/>
    </g>
    <g id="line2d_17"/>
    <g id="text_15">
     <!-- $\hat{y}$ -->
     <g transform="translate(106.103125 59.64)scale(0.18 -0.18)">
      <defs>
       <path d="M -28.609375 79.984375 
L -21.390625 79.984375 
L -9.421875 61.625 
L -16.21875 61.625 
L -25 73.578125 
L -33.796875 61.625 
L -40.578125 61.625 
z
M -25 56 
z
" id="DejaVuSans-770"/>
      </defs>
      <use transform="translate(62.373047 12.015625)" xlink:href="#DejaVuSans-770"/>
      <use transform="translate(0 0.828125)" xlink:href="#DejaVuSans-Oblique-121"/>
     </g>
    </g>
   </g>
  </g>
  <g id="axes_2">
   <g id="patch_8">
    <path d="M 313.430398 244.32 
L 541.703125 244.32 
L 541.703125 26.88 
L 313.430398 26.88 
z
" style="fill:#ffffff;"/>
   </g>
   <g id="PathCollection_2">
    <g clip-path="url(#p38a9249766)">
     <use style="fill:#ffaaaa;stroke:#ffaaaa;" x="276.613268" xlink:href="#m3766dafdce" y="69.373537"/>
     <use style="fill:#ffaaaa;stroke:#ffaaaa;" x="405.664189" xlink:href="#m3766dafdce" y="221.393095"/>
     <use style="fill:#ffaaaa;stroke:#ffaaaa;" x="486.773349" xlink:href="#m3766dafdce" y="-1"/>
     <use style="fill:#ffaaaa;stroke:#ffaaaa;" x="280.981161" xlink:href="#m3766dafdce" y="-1"/>
     <use style="fill:#ffaaaa;stroke:#ffaaaa;" x="269.519636" xlink:href="#m3766dafdce" y="29.33092"/>
     <use style="fill:#ffaaaa;stroke:#ffaaaa;" x="305.506647" xlink:href="#m3766dafdce" y="116.550413"/>
     <use style="fill:#ffaaaa;stroke:#ffaaaa;" x="574.305678" xlink:href="#m3766dafdce" y="3.729044"/>
     <use style="fill:#ffaaaa;stroke:#ffaaaa;" x="494.001418" xlink:href="#m3766dafdce" y="101.011507"/>
     <use style="fill:#ffaaaa;stroke:#ffaaaa;" x="434.19849" xlink:href="#m3766dafdce" y="-1"/>
     <use style="fill:#ffaaaa;stroke:#ffaaaa;" x="271.47962" xlink:href="#m3766dafdce" y="-1"/>
     <use style="fill:#ffaaaa;stroke:#ffaaaa;" x="336.178087" xlink:href="#m3766dafdce" y="164.093781"/>
     <use style="fill:#ffaaaa;stroke:#ffaaaa;" x="289.588534" xlink:href="#m3766dafdce" y="-1"/>
     <use style="fill:#ffaaaa;stroke:#ffaaaa;" x="312.15673" xlink:href="#m3766dafdce" y="-1"/>
     <use style="fill:#ffaaaa;stroke:#ffaaaa;" x="365.353297" xlink:href="#m3766dafdce" y="197.614739"/>
     <use style="fill:#ffaaaa;stroke:#ffaaaa;" x="521.894198" xlink:href="#m3766dafdce" y="-1"/>
     <use style="fill:#ffaaaa;stroke:#ffaaaa;" x="323.931846" xlink:href="#m3766dafdce" y="-1"/>
     <use style="fill:#ffaaaa;stroke:#ffaaaa;" x="372.754552" xlink:href="#m3766dafdce" y="212.299902"/>
     <use style="fill:#ffaaaa;stroke:#ffaaaa;" x="432.575422" xlink:href="#m3766dafdce" y="161.280403"/>
     <use style="fill:#ffaaaa;stroke:#ffaaaa;" x="370.611084" xlink:href="#m3766dafdce" y="212.026287"/>
     <use style="fill:#ffaaaa;stroke:#ffaaaa;" x="296.622806" xlink:href="#m3766dafdce" y="-1"/>
     <use style="fill:#ffaaaa;stroke:#ffaaaa;" x="300.12102" xlink:href="#m3766dafdce" y="-1"/>
     <use style="fill:#ffaaaa;stroke:#ffaaaa;" x="380.33085" xlink:href="#m3766dafdce" y="224.246918"/>
     <use style="fill:#ffaaaa;stroke:#ffaaaa;" x="294.195334" xlink:href="#m3766dafdce" y="-1"/>
     <use style="fill:#ffaaaa;stroke:#ffaaaa;" x="516.834235" xlink:href="#m3766dafdce" y="-1"/>
     <use style="fill:#ffaaaa;stroke:#ffaaaa;" x="463.303681" xlink:href="#m3766dafdce" y="166.521666"/>
     <use style="fill:#ffaaaa;stroke:#ffaaaa;" x="387.887016" xlink:href="#m3766dafdce" y="-1"/>
     <use style="fill:#ffaaaa;stroke:#ffaaaa;" x="540.400923" xlink:href="#m3766dafdce" y="-1"/>
     <use style="fill:#ffaaaa;stroke:#ffaaaa;" x="577.90617" xlink:href="#m3766dafdce" y="54.040723"/>
     <use style="fill:#ffaaaa;stroke:#ffaaaa;" x="531.163047" xlink:href="#m3766dafdce" y="-1"/>
     <use style="fill:#ffaaaa;stroke:#ffaaaa;" x="316.203941" xlink:href="#m3766dafdce" y="-1"/>
     <use style="fill:#ffaaaa;stroke:#ffaaaa;" x="407.657026" xlink:href="#m3766dafdce" y="228.448576"/>
     <use style="fill:#ffaaaa;stroke:#ffaaaa;" x="501.084312" xlink:href="#m3766dafdce" y="106.224148"/>
     <use style="fill:#ffaaaa;stroke:#ffaaaa;" x="534.658571" xlink:href="#m3766dafdce" y="-1"/>
     <use style="fill:#ffaaaa;stroke:#ffaaaa;" x="258.996959" xlink:href="#m3766dafdce" y="-1"/>
     <use style="fill:#ffaaaa;stroke:#ffaaaa;" x="257.414983" xlink:href="#m3766dafdce" y="1.19494"/>
     <use style="fill:#ffaaaa;stroke:#ffaaaa;" x="256.800148" xlink:href="#m3766dafdce" y="-1"/>
     <use style="fill:#ffaaaa;stroke:#ffaaaa;" x="298.42846" xlink:href="#m3766dafdce" y="-1"/>
     <use style="fill:#ffaaaa;stroke:#ffaaaa;" x="376.591361" xlink:href="#m3766dafdce" y="210.199034"/>
     <use style="fill:#ffaaaa;stroke:#ffaaaa;" x="502.253774" xlink:href="#m3766dafdce" y="130.002061"/>
     <use style="fill:#ffaaaa;stroke:#ffaaaa;" x="555.316091" xlink:href="#m3766dafdce" y="-1"/>
     <use style="fill:#ffaaaa;stroke:#ffaaaa;" x="347.3291" xlink:href="#m3766dafdce" y="-1"/>
     <use style="fill:#ffaaaa;stroke:#ffaaaa;" x="423.565692" xlink:href="#m3766dafdce" y="228.375698"/>
     <use style="fill:#ffaaaa;stroke:#ffaaaa;" x="286.705488" xlink:href="#m3766dafdce" y="-1"/>
     <use style="fill:#ffaaaa;stroke:#ffaaaa;" x="296.476204" xlink:href="#m3766dafdce" y="-1"/>
     <use style="fill:#ffaaaa;stroke:#ffaaaa;" x="476.417238" xlink:href="#m3766dafdce" y="214.055887"/>
     <use style="fill:#ffaaaa;stroke:#ffaaaa;" x="316.896852" xlink:href="#m3766dafdce" y="-1"/>
     <use style="fill:#ffaaaa;stroke:#ffaaaa;" x="275.727377" xlink:href="#m3766dafdce" y="-1"/>
     <use style="fill:#ffaaaa;stroke:#ffaaaa;" x="362.302161" xlink:href="#m3766dafdce" y="190.532509"/>
     <use style="fill:#ffaaaa;stroke:#ffaaaa;" x="311.549609" xlink:href="#m3766dafdce" y="-1"/>
    </g>
   </g>
   <g id="matplotlib.axis_3">
    <g id="xtick_6">
     <g id="line2d_18">
      <g>
       <use style="stroke:#000000;stroke-width:0.8;" x="313.430398" xlink:href="#m96173fe560" y="244.32"/>
      </g>
     </g>
     <g id="text_16">
      <!-- −1.0 -->
      <g transform="translate(301.288991 258.918437)scale(0.1 -0.1)">
       <use xlink:href="#DejaVuSans-8722"/>
       <use x="83.789062" xlink:href="#DejaVuSans-49"/>
       <use x="147.412109" xlink:href="#DejaVuSans-46"/>
       <use x="179.199219" xlink:href="#DejaVuSans-48"/>
      </g>
     </g>
    </g>
    <g id="xtick_7">
     <g id="line2d_19">
      <g>
       <use style="stroke:#000000;stroke-width:0.8;" x="370.49858" xlink:href="#m96173fe560" y="244.32"/>
      </g>
     </g>
     <g id="text_17">
      <!-- −0.5 -->
      <g transform="translate(358.357173 258.918437)scale(0.1 -0.1)">
       <use xlink:href="#DejaVuSans-8722"/>
       <use x="83.789062" xlink:href="#DejaVuSans-48"/>
       <use x="147.412109" xlink:href="#DejaVuSans-46"/>
       <use x="179.199219" xlink:href="#DejaVuSans-53"/>
      </g>
     </g>
    </g>
    <g id="xtick_8">
     <g id="line2d_20">
      <g>
       <use style="stroke:#000000;stroke-width:0.8;" x="427.566761" xlink:href="#m96173fe560" y="244.32"/>
      </g>
     </g>
     <g id="text_18">
      <!-- 0.0 -->
      <g transform="translate(419.615199 258.918437)scale(0.1 -0.1)">
       <use xlink:href="#DejaVuSans-48"/>
       <use x="63.623047" xlink:href="#DejaVuSans-46"/>
       <use x="95.410156" xlink:href="#DejaVuSans-48"/>
      </g>
     </g>
    </g>
    <g id="xtick_9">
     <g id="line2d_21">
      <g>
       <use style="stroke:#000000;stroke-width:0.8;" x="484.634943" xlink:href="#m96173fe560" y="244.32"/>
      </g>
     </g>
     <g id="text_19">
      <!-- 0.5 -->
      <g transform="translate(476.683381 258.918437)scale(0.1 -0.1)">
       <use xlink:href="#DejaVuSans-48"/>
       <use x="63.623047" xlink:href="#DejaVuSans-46"/>
       <use x="95.410156" xlink:href="#DejaVuSans-53"/>
      </g>
     </g>
    </g>
    <g id="xtick_10">
     <g id="line2d_22">
      <g>
       <use style="stroke:#000000;stroke-width:0.8;" x="541.703125" xlink:href="#m96173fe560" y="244.32"/>
      </g>
     </g>
     <g id="text_20">
      <!-- 1.0 -->
      <g transform="translate(533.751562 258.918437)scale(0.1 -0.1)">
       <use xlink:href="#DejaVuSans-49"/>
       <use x="63.623047" xlink:href="#DejaVuSans-46"/>
       <use x="95.410156" xlink:href="#DejaVuSans-48"/>
      </g>
     </g>
    </g>
    <g id="text_21">
     <!-- $x_1$ -->
     <g transform="translate(417.936761 278.675312)scale(0.18 -0.18)">
      <use transform="translate(0 0.3125)" xlink:href="#DejaVuSans-Oblique-120"/>
      <use transform="translate(59.179688 -16.09375)scale(0.7)" xlink:href="#DejaVuSans-49"/>
     </g>
    </g>
   </g>
   <g id="matplotlib.axis_4">
    <g id="ytick_7">
     <g id="line2d_23">
      <g>
       <use style="stroke:#000000;stroke-width:0.8;" x="313.430398" xlink:href="#m0e50aec81f" y="244.32"/>
      </g>
     </g>
     <g id="text_22">
      <!-- 0.0 -->
      <g transform="translate(290.527273 248.119219)scale(0.1 -0.1)">
       <use xlink:href="#DejaVuSans-48"/>
       <use x="63.623047" xlink:href="#DejaVuSans-46"/>
       <use x="95.410156" xlink:href="#DejaVuSans-48"/>
      </g>
     </g>
    </g>
    <g id="ytick_8">
     <g id="line2d_24">
      <g>
       <use style="stroke:#000000;stroke-width:0.8;" x="313.430398" xlink:href="#m0e50aec81f" y="200.832"/>
      </g>
     </g>
     <g id="text_23">
      <!-- 0.2 -->
      <g transform="translate(290.527273 204.631219)scale(0.1 -0.1)">
       <use xlink:href="#DejaVuSans-48"/>
       <use x="63.623047" xlink:href="#DejaVuSans-46"/>
       <use x="95.410156" xlink:href="#DejaVuSans-50"/>
      </g>
     </g>
    </g>
    <g id="ytick_9">
     <g id="line2d_25">
      <g>
       <use style="stroke:#000000;stroke-width:0.8;" x="313.430398" xlink:href="#m0e50aec81f" y="157.344"/>
      </g>
     </g>
     <g id="text_24">
      <!-- 0.4 -->
      <g transform="translate(290.527273 161.143219)scale(0.1 -0.1)">
       <use xlink:href="#DejaVuSans-48"/>
       <use x="63.623047" xlink:href="#DejaVuSans-46"/>
       <use x="95.410156" xlink:href="#DejaVuSans-52"/>
      </g>
     </g>
    </g>
    <g id="ytick_10">
     <g id="line2d_26">
      <g>
       <use style="stroke:#000000;stroke-width:0.8;" x="313.430398" xlink:href="#m0e50aec81f" y="113.856"/>
      </g>
     </g>
     <g id="text_25">
      <!-- 0.6 -->
      <g transform="translate(290.527273 117.655219)scale(0.1 -0.1)">
       <use xlink:href="#DejaVuSans-48"/>
       <use x="63.623047" xlink:href="#DejaVuSans-46"/>
       <use x="95.410156" xlink:href="#DejaVuSans-54"/>
      </g>
     </g>
    </g>
    <g id="ytick_11">
     <g id="line2d_27">
      <g>
       <use style="stroke:#000000;stroke-width:0.8;" x="313.430398" xlink:href="#m0e50aec81f" y="70.368"/>
      </g>
     </g>
     <g id="text_26">
      <!-- 0.8 -->
      <g transform="translate(290.527273 74.167219)scale(0.1 -0.1)">
       <use xlink:href="#DejaVuSans-48"/>
       <use x="63.623047" xlink:href="#DejaVuSans-46"/>
       <use x="95.410156" xlink:href="#DejaVuSans-56"/>
      </g>
     </g>
    </g>
    <g id="ytick_12">
     <g id="line2d_28">
      <g>
       <use style="stroke:#000000;stroke-width:0.8;" x="313.430398" xlink:href="#m0e50aec81f" y="26.88"/>
      </g>
     </g>
     <g id="text_27">
      <!-- 1.0 -->
      <g transform="translate(290.527273 30.679219)scale(0.1 -0.1)">
       <use xlink:href="#DejaVuSans-49"/>
       <use x="63.623047" xlink:href="#DejaVuSans-46"/>
       <use x="95.410156" xlink:href="#DejaVuSans-48"/>
      </g>
     </g>
    </g>
    <g id="text_28">
     <!-- $y$ -->
     <g transform="translate(281.127273 131.82)scale(0.18 -0.18)">
      <use transform="translate(0 0.3125)" xlink:href="#DejaVuSans-Oblique-121"/>
     </g>
    </g>
   </g>
   <g id="line2d_29">
    <path clip-path="url(#p38a9249766)" d="M 313.430398 99.281677 
L 315.736183 103.37036 
L 318.041968 107.3756 
L 320.347753 111.297398 
L 322.653538 115.135753 
L 324.959323 118.890666 
L 327.265108 122.562136 
L 329.570894 126.150164 
L 331.876679 129.654749 
L 334.182464 133.075892 
L 336.488249 136.413592 
L 338.794034 139.66785 
L 341.099819 142.838665 
L 343.405604 145.926038 
L 345.711389 148.929968 
L 348.017175 151.850456 
L 350.32296 154.687501 
L 352.628745 157.441104 
L 354.93453 160.111264 
L 357.240315 162.697982 
L 359.5461 165.201257 
L 361.851885 167.621089 
L 364.15767 169.95748 
L 366.463456 172.210427 
L 368.769241 174.379932 
L 371.075026 176.465995 
L 373.380811 178.468615 
L 375.686596 180.387793 
L 377.992381 182.223528 
L 380.298166 183.975821 
L 382.603951 185.644671 
L 384.909737 187.230078 
L 387.215522 188.732043 
L 389.521307 190.150566 
L 391.827092 191.485646 
L 394.132877 192.737284 
L 396.438662 193.905479 
L 398.744447 194.990231 
L 401.050232 195.991541 
L 403.356018 196.909409 
L 405.661803 197.743834 
L 407.967588 198.494817 
L 410.273373 199.162357 
L 412.579158 199.746454 
L 414.884943 200.247109 
L 417.190728 200.664322 
L 419.496513 200.998092 
L 421.802299 201.248419 
L 424.108084 201.415304 
L 426.413869 201.498747 
L 428.719654 201.498747 
L 431.025439 201.415304 
L 433.331224 201.248419 
L 435.637009 200.998092 
L 437.942794 200.664322 
L 440.24858 200.247109 
L 442.554365 199.746454 
L 444.86015 199.162357 
L 447.165935 198.494817 
L 449.47172 197.743834 
L 451.777505 196.909409 
L 454.08329 195.991541 
L 456.389075 194.990231 
L 458.694861 193.905479 
L 461.000646 192.737284 
L 463.306431 191.485646 
L 465.612216 190.150566 
L 467.918001 188.732043 
L 470.223786 187.230078 
L 472.529571 185.644671 
L 474.835356 183.975821 
L 477.141142 182.223528 
L 479.446927 180.387793 
L 481.752712 178.468615 
L 484.058497 176.465995 
L 486.364282 174.379932 
L 488.670067 172.210427 
L 490.975852 169.95748 
L 493.281637 167.621089 
L 495.587423 165.201257 
L 497.893208 162.697982 
L 500.198993 160.111264 
L 502.504778 157.441104 
L 504.810563 154.687501 
L 507.116348 151.850456 
L 509.422133 148.929968 
L 511.727918 145.926038 
L 514.033704 142.838665 
L 516.339489 139.66785 
L 518.645274 136.413592 
L 520.951059 133.075892 
L 523.256844 129.654749 
L 525.562629 126.150164 
L 527.868414 122.562136 
L 530.174199 118.890666 
L 532.479985 115.135753 
L 534.78577 111.297398 
L 537.091555 107.3756 
L 539.39734 103.37036 
L 541.703125 99.281677 
" style="fill:none;stroke:#000000;stroke-linecap:square;stroke-width:2;"/>
   </g>
   <g id="line2d_30">
    <path clip-path="url(#p38a9249766)" d="M 313.430398 77.537677 
L 315.736183 81.62636 
L 318.041968 85.6316 
L 320.347753 89.553398 
L 322.653538 93.391753 
L 324.959323 97.146666 
L 327.265108 100.818136 
L 329.570894 104.406164 
L 331.876679 107.910749 
L 334.182464 111.331892 
L 336.488249 114.669592 
L 338.794034 117.92385 
L 341.099819 121.094665 
L 343.405604 124.182038 
L 345.711389 127.185968 
L 348.017175 130.106456 
L 350.32296 132.943501 
L 352.628745 135.697104 
L 354.93453 138.367264 
L 357.240315 140.953982 
L 359.5461 143.457257 
L 361.851885 145.877089 
L 364.15767 148.21348 
L 366.463456 150.466427 
L 368.769241 152.635932 
L 371.075026 154.721995 
L 373.380811 156.724615 
L 375.686596 158.643793 
L 377.992381 160.479528 
L 380.298166 162.231821 
L 382.603951 163.900671 
L 384.909737 165.486078 
L 387.215522 166.988043 
L 389.521307 168.406566 
L 391.827092 169.741646 
L 394.132877 170.993284 
L 396.438662 172.161479 
L 398.744447 173.246231 
L 401.050232 174.247541 
L 403.356018 175.165409 
L 405.661803 175.999834 
L 407.967588 176.750817 
L 410.273373 177.418357 
L 412.579158 178.002454 
L 414.884943 178.503109 
L 417.190728 178.920322 
L 419.496513 179.254092 
L 421.802299 179.504419 
L 424.108084 179.671304 
L 426.413869 179.754747 
L 428.719654 179.754747 
L 431.025439 179.671304 
L 433.331224 179.504419 
L 435.637009 179.254092 
L 437.942794 178.920322 
L 440.24858 178.503109 
L 442.554365 178.002454 
L 444.86015 177.418357 
L 447.165935 176.750817 
L 449.47172 175.999834 
L 451.777505 175.165409 
L 454.08329 174.247541 
L 456.389075 173.246231 
L 458.694861 172.161479 
L 461.000646 170.993284 
L 463.306431 169.741646 
L 465.612216 168.406566 
L 467.918001 166.988043 
L 470.223786 165.486078 
L 472.529571 163.900671 
L 474.835356 162.231821 
L 477.141142 160.479528 
L 479.446927 158.643793 
L 481.752712 156.724615 
L 484.058497 154.721995 
L 486.364282 152.635932 
L 488.670067 150.466427 
L 490.975852 148.21348 
L 493.281637 145.877089 
L 495.587423 143.457257 
L 497.893208 140.953982 
L 500.198993 138.367264 
L 502.504778 135.697104 
L 504.810563 132.943501 
L 507.116348 130.106456 
L 509.422133 127.185968 
L 511.727918 124.182038 
L 514.033704 121.094665 
L 516.339489 117.92385 
L 518.645274 114.669592 
L 520.951059 111.331892 
L 523.256844 107.910749 
L 525.562629 104.406164 
L 527.868414 100.818136 
L 530.174199 97.146666 
L 532.479985 93.391753 
L 534.78577 89.553398 
L 537.091555 85.6316 
L 539.39734 81.62636 
L 541.703125 77.537677 
" style="fill:none;stroke:#000000;stroke-dasharray:5.55,2.4;stroke-dashoffset:0;stroke-width:1.5;"/>
   </g>
   <g id="line2d_31">
    <path clip-path="url(#p38a9249766)" d="M 313.430398 121.025677 
L 315.736183 125.11436 
L 318.041968 129.1196 
L 320.347753 133.041398 
L 322.653538 136.879753 
L 324.959323 140.634666 
L 327.265108 144.306136 
L 329.570894 147.894164 
L 331.876679 151.398749 
L 334.182464 154.819892 
L 336.488249 158.157592 
L 338.794034 161.41185 
L 341.099819 164.582665 
L 343.405604 167.670038 
L 345.711389 170.673968 
L 348.017175 173.594456 
L 350.32296 176.431501 
L 352.628745 179.185104 
L 354.93453 181.855264 
L 357.240315 184.441982 
L 359.5461 186.945257 
L 361.851885 189.365089 
L 364.15767 191.70148 
L 366.463456 193.954427 
L 368.769241 196.123932 
L 371.075026 198.209995 
L 373.380811 200.212615 
L 375.686596 202.131793 
L 377.992381 203.967528 
L 380.298166 205.719821 
L 382.603951 207.388671 
L 384.909737 208.974078 
L 387.215522 210.476043 
L 389.521307 211.894566 
L 391.827092 213.229646 
L 394.132877 214.481284 
L 396.438662 215.649479 
L 398.744447 216.734231 
L 401.050232 217.735541 
L 403.356018 218.653409 
L 405.661803 219.487834 
L 407.967588 220.238817 
L 410.273373 220.906357 
L 412.579158 221.490454 
L 414.884943 221.991109 
L 417.190728 222.408322 
L 419.496513 222.742092 
L 421.802299 222.992419 
L 424.108084 223.159304 
L 426.413869 223.242747 
L 428.719654 223.242747 
L 431.025439 223.159304 
L 433.331224 222.992419 
L 435.637009 222.742092 
L 437.942794 222.408322 
L 440.24858 221.991109 
L 442.554365 221.490454 
L 444.86015 220.906357 
L 447.165935 220.238817 
L 449.47172 219.487834 
L 451.777505 218.653409 
L 454.08329 217.735541 
L 456.389075 216.734231 
L 458.694861 215.649479 
L 461.000646 214.481284 
L 463.306431 213.229646 
L 465.612216 211.894566 
L 467.918001 210.476043 
L 470.223786 208.974078 
L 472.529571 207.388671 
L 474.835356 205.719821 
L 477.141142 203.967528 
L 479.446927 202.131793 
L 481.752712 200.212615 
L 484.058497 198.209995 
L 486.364282 196.123932 
L 488.670067 193.954427 
L 490.975852 191.70148 
L 493.281637 189.365089 
L 495.587423 186.945257 
L 497.893208 184.441982 
L 500.198993 181.855264 
L 502.504778 179.185104 
L 504.810563 176.431501 
L 507.116348 173.594456 
L 509.422133 170.673968 
L 511.727918 167.670038 
L 514.033704 164.582665 
L 516.339489 161.41185 
L 518.645274 158.157592 
L 520.951059 154.819892 
L 523.256844 151.398749 
L 525.562629 147.894164 
L 527.868414 144.306136 
L 530.174199 140.634666 
L 532.479985 136.879753 
L 534.78577 133.041398 
L 537.091555 129.1196 
L 539.39734 125.11436 
L 541.703125 121.025677 
" style="fill:none;stroke:#000000;stroke-dasharray:5.55,2.4;stroke-dashoffset:0;stroke-width:1.5;"/>
   </g>
   <g id="line2d_32">
    <g clip-path="url(#p38a9249766)">
     <use style="fill:#0000ff;stroke:#0000ff;" x="258.622205" xlink:href="#m048343c270" y="-1"/>
     <use style="fill:#0000ff;stroke:#0000ff;" x="276.613268" xlink:href="#m048343c270" y="69.373537"/>
     <use style="fill:#0000ff;stroke:#0000ff;" x="405.664189" xlink:href="#m048343c270" y="221.393095"/>
     <use style="fill:#0000ff;stroke:#0000ff;" x="486.773349" xlink:href="#m048343c270" y="-1"/>
     <use style="fill:#0000ff;stroke:#0000ff;" x="425.071812" xlink:href="#m048343c270" y="-1"/>
     <use style="fill:#0000ff;stroke:#0000ff;" x="353.281751" xlink:href="#m048343c270" y="157.75858"/>
     <use style="fill:#0000ff;stroke:#0000ff;" x="372.222128" xlink:href="#m048343c270" y="174.613417"/>
     <use style="fill:#0000ff;stroke:#0000ff;" x="296.636788" xlink:href="#m048343c270" y="-1"/>
     <use style="fill:#0000ff;stroke:#0000ff;" x="292.637687" xlink:href="#m048343c270" y="-1"/>
     <use style="fill:#0000ff;stroke:#0000ff;" x="307.378003" xlink:href="#m048343c270" y="78.481228"/>
     <use style="fill:#0000ff;stroke:#0000ff;" x="327.179312" xlink:href="#m048343c270" y="115.108203"/>
     <use style="fill:#0000ff;stroke:#0000ff;" x="364.866198" xlink:href="#m048343c270" y="-1"/>
     <use style="fill:#0000ff;stroke:#0000ff;" x="280.981161" xlink:href="#m048343c270" y="-1"/>
     <use style="fill:#0000ff;stroke:#0000ff;" x="269.519636" xlink:href="#m048343c270" y="29.33092"/>
     <use style="fill:#0000ff;stroke:#0000ff;" x="382.265432" xlink:href="#m048343c270" y="175.832205"/>
     <use style="fill:#0000ff;stroke:#0000ff;" x="305.506647" xlink:href="#m048343c270" y="116.550413"/>
     <use style="fill:#0000ff;stroke:#0000ff;" x="276.497406" xlink:href="#m048343c270" y="-1"/>
     <use style="fill:#0000ff;stroke:#0000ff;" x="571.640046" xlink:href="#m048343c270" y="-1"/>
     <use style="fill:#0000ff;stroke:#0000ff;" x="574.305678" xlink:href="#m048343c270" y="3.729044"/>
     <use style="fill:#0000ff;stroke:#0000ff;" x="485.076202" xlink:href="#m048343c270" y="160.493721"/>
     <use style="fill:#0000ff;stroke:#0000ff;" x="494.001418" xlink:href="#m048343c270" y="101.011507"/>
     <use style="fill:#0000ff;stroke:#0000ff;" x="434.19849" xlink:href="#m048343c270" y="-1"/>
     <use style="fill:#0000ff;stroke:#0000ff;" x="383.571058" xlink:href="#m048343c270" y="-1"/>
     <use style="fill:#0000ff;stroke:#0000ff;" x="447.393867" xlink:href="#m048343c270" y="204.035643"/>
     <use style="fill:#0000ff;stroke:#0000ff;" x="503.274587" xlink:href="#m048343c270" y="-1"/>
     <use style="fill:#0000ff;stroke:#0000ff;" x="271.47962" xlink:href="#m048343c270" y="-1"/>
     <use style="fill:#0000ff;stroke:#0000ff;" x="336.178087" xlink:href="#m048343c270" y="164.093781"/>
     <use style="fill:#0000ff;stroke:#0000ff;" x="275.127322" xlink:href="#m048343c270" y="-1"/>
     <use style="fill:#0000ff;stroke:#0000ff;" x="298.977152" xlink:href="#m048343c270" y="-1"/>
     <use style="fill:#0000ff;stroke:#0000ff;" x="329.081455" xlink:href="#m048343c270" y="133.940005"/>
     <use style="fill:#0000ff;stroke:#0000ff;" x="291.528771" xlink:href="#m048343c270" y="-1"/>
     <use style="fill:#0000ff;stroke:#0000ff;" x="346.228469" xlink:href="#m048343c270" y="-1"/>
     <use style="fill:#0000ff;stroke:#0000ff;" x="421.538633" xlink:href="#m048343c270" y="215.845543"/>
     <use style="fill:#0000ff;stroke:#0000ff;" x="342.831375" xlink:href="#m048343c270" y="-1"/>
     <use style="fill:#0000ff;stroke:#0000ff;" x="310.966499" xlink:href="#m048343c270" y="-1"/>
     <use style="fill:#0000ff;stroke:#0000ff;" x="499.134192" xlink:href="#m048343c270" y="158.841968"/>
     <use style="fill:#0000ff;stroke:#0000ff;" x="437.185145" xlink:href="#m048343c270" y="-1"/>
     <use style="fill:#0000ff;stroke:#0000ff;" x="312.15673" xlink:href="#m048343c270" y="-1"/>
     <use style="fill:#0000ff;stroke:#0000ff;" x="365.353297" xlink:href="#m048343c270" y="197.614739"/>
     <use style="fill:#0000ff;stroke:#0000ff;" x="521.894198" xlink:href="#m048343c270" y="-1"/>
     <use style="fill:#0000ff;stroke:#0000ff;" x="320.745632" xlink:href="#m048343c270" y="-1"/>
     <use style="fill:#0000ff;stroke:#0000ff;" x="355.577272" xlink:href="#m048343c270" y="152.470322"/>
     <use style="fill:#0000ff;stroke:#0000ff;" x="372.754552" xlink:href="#m048343c270" y="212.299902"/>
     <use style="fill:#0000ff;stroke:#0000ff;" x="491.899237" xlink:href="#m048343c270" y="161.309516"/>
     <use style="fill:#0000ff;stroke:#0000ff;" x="428.866738" xlink:href="#m048343c270" y="-1"/>
     <use style="fill:#0000ff;stroke:#0000ff;" x="380.408127" xlink:href="#m048343c270" y="-1"/>
     <use style="fill:#0000ff;stroke:#0000ff;" x="432.575422" xlink:href="#m048343c270" y="161.280403"/>
     <use style="fill:#0000ff;stroke:#0000ff;" x="381.223899" xlink:href="#m048343c270" y="182.931132"/>
     <use style="fill:#0000ff;stroke:#0000ff;" x="370.611084" xlink:href="#m048343c270" y="212.026287"/>
     <use style="fill:#0000ff;stroke:#0000ff;" x="392.515075" xlink:href="#m048343c270" y="177.298003"/>
     <use style="fill:#0000ff;stroke:#0000ff;" x="320.090081" xlink:href="#m048343c270" y="-1"/>
     <use style="fill:#0000ff;stroke:#0000ff;" x="306.833235" xlink:href="#m048343c270" y="-1"/>
     <use style="fill:#0000ff;stroke:#0000ff;" x="366.447583" xlink:href="#m048343c270" y="158.850113"/>
     <use style="fill:#0000ff;stroke:#0000ff;" x="380.33085" xlink:href="#m048343c270" y="224.246918"/>
     <use style="fill:#0000ff;stroke:#0000ff;" x="294.195334" xlink:href="#m048343c270" y="-1"/>
     <use style="fill:#0000ff;stroke:#0000ff;" x="497.369046" xlink:href="#m048343c270" y="-1"/>
     <use style="fill:#0000ff;stroke:#0000ff;" x="421.593531" xlink:href="#m048343c270" y="217.059749"/>
     <use style="fill:#0000ff;stroke:#0000ff;" x="352.308773" xlink:href="#m048343c270" y="-1"/>
     <use style="fill:#0000ff;stroke:#0000ff;" x="401.630351" xlink:href="#m048343c270" y="-1"/>
     <use style="fill:#0000ff;stroke:#0000ff;" x="463.303681" xlink:href="#m048343c270" y="166.521666"/>
     <use style="fill:#0000ff;stroke:#0000ff;" x="387.887016" xlink:href="#m048343c270" y="-1"/>
     <use style="fill:#0000ff;stroke:#0000ff;" x="416.658679" xlink:href="#m048343c270" y="-1"/>
     <use style="fill:#0000ff;stroke:#0000ff;" x="493.100347" xlink:href="#m048343c270" y="153.799831"/>
     <use style="fill:#0000ff;stroke:#0000ff;" x="577.90617" xlink:href="#m048343c270" y="54.040723"/>
     <use style="fill:#0000ff;stroke:#0000ff;" x="531.163047" xlink:href="#m048343c270" y="-1"/>
     <use style="fill:#0000ff;stroke:#0000ff;" x="466.418595" xlink:href="#m048343c270" y="-1"/>
     <use style="fill:#0000ff;stroke:#0000ff;" x="533.342894" xlink:href="#m048343c270" y="92.796222"/>
     <use style="fill:#0000ff;stroke:#0000ff;" x="407.657026" xlink:href="#m048343c270" y="228.448576"/>
     <use style="fill:#0000ff;stroke:#0000ff;" x="501.084312" xlink:href="#m048343c270" y="106.224148"/>
     <use style="fill:#0000ff;stroke:#0000ff;" x="534.658571" xlink:href="#m048343c270" y="-1"/>
     <use style="fill:#0000ff;stroke:#0000ff;" x="258.996959" xlink:href="#m048343c270" y="-1"/>
     <use style="fill:#0000ff;stroke:#0000ff;" x="257.414983" xlink:href="#m048343c270" y="1.19494"/>
     <use style="fill:#0000ff;stroke:#0000ff;" x="256.825731" xlink:href="#m048343c270" y="-1"/>
     <use style="fill:#0000ff;stroke:#0000ff;" x="277.391104" xlink:href="#m048343c270" y="-1"/>
     <use style="fill:#0000ff;stroke:#0000ff;" x="295.83018" xlink:href="#m048343c270" y="55.801955"/>
     <use style="fill:#0000ff;stroke:#0000ff;" x="391.306089" xlink:href="#m048343c270" y="196.544281"/>
     <use style="fill:#0000ff;stroke:#0000ff;" x="376.591361" xlink:href="#m048343c270" y="210.199034"/>
     <use style="fill:#0000ff;stroke:#0000ff;" x="502.253774" xlink:href="#m048343c270" y="130.002061"/>
     <use style="fill:#0000ff;stroke:#0000ff;" x="316.398375" xlink:href="#m048343c270" y="114.542966"/>
     <use style="fill:#0000ff;stroke:#0000ff;" x="428.963979" xlink:href="#m048343c270" y="-1"/>
     <use style="fill:#0000ff;stroke:#0000ff;" x="496.588943" xlink:href="#m048343c270" y="-1"/>
     <use style="fill:#0000ff;stroke:#0000ff;" x="456.25319" xlink:href="#m048343c270" y="186.03091"/>
     <use style="fill:#0000ff;stroke:#0000ff;" x="370.883394" xlink:href="#m048343c270" y="-1"/>
     <use style="fill:#0000ff;stroke:#0000ff;" x="347.3291" xlink:href="#m048343c270" y="-1"/>
     <use style="fill:#0000ff;stroke:#0000ff;" x="423.565692" xlink:href="#m048343c270" y="228.375698"/>
     <use style="fill:#0000ff;stroke:#0000ff;" x="286.705488" xlink:href="#m048343c270" y="-1"/>
     <use style="fill:#0000ff;stroke:#0000ff;" x="296.476204" xlink:href="#m048343c270" y="-1"/>
     <use style="fill:#0000ff;stroke:#0000ff;" x="476.417238" xlink:href="#m048343c270" y="214.055887"/>
     <use style="fill:#0000ff;stroke:#0000ff;" x="421.457641" xlink:href="#m048343c270" y="204.984785"/>
     <use style="fill:#0000ff;stroke:#0000ff;" x="296.805543" xlink:href="#m048343c270" y="70.252351"/>
     <use style="fill:#0000ff;stroke:#0000ff;" x="276.024511" xlink:href="#m048343c270" y="-1"/>
     <use style="fill:#0000ff;stroke:#0000ff;" x="360.355102" xlink:href="#m048343c270" y="-1"/>
     <use style="fill:#0000ff;stroke:#0000ff;" x="508.922886" xlink:href="#m048343c270" y="140.81424"/>
     <use style="fill:#0000ff;stroke:#0000ff;" x="362.302161" xlink:href="#m048343c270" y="190.532509"/>
     <use style="fill:#0000ff;stroke:#0000ff;" x="311.549609" xlink:href="#m048343c270" y="-1"/>
     <use style="fill:#0000ff;stroke:#0000ff;" x="310.274063" xlink:href="#m048343c270" y="-1"/>
     <use style="fill:#0000ff;stroke:#0000ff;" x="352.96288" xlink:href="#m048343c270" y="160.831923"/>
     <use style="fill:#0000ff;stroke:#0000ff;" x="401.387847" xlink:href="#m048343c270" y="215.166357"/>
     <use style="fill:#0000ff;stroke:#0000ff;" x="323.738137" xlink:href="#m048343c270" y="-1"/>
     <use style="fill:#0000ff;stroke:#0000ff;" x="298.500179" xlink:href="#m048343c270" y="-1"/>
     <use style="fill:#0000ff;stroke:#0000ff;" x="348.521647" xlink:href="#m048343c270" y="157.064029"/>
     <use style="fill:#0000ff;stroke:#0000ff;" x="326.717861" xlink:href="#m048343c270" y="117.490069"/>
     <use style="fill:#0000ff;stroke:#0000ff;" x="295.259915" xlink:href="#m048343c270" y="-1"/>
    </g>
   </g>
   <g id="patch_9">
    <path d="M 313.430398 244.32 
L 313.430398 26.88 
" style="fill:none;stroke:#000000;stroke-linecap:square;stroke-linejoin:miter;stroke-width:0.8;"/>
   </g>
   <g id="patch_10">
    <path d="M 541.703125 244.32 
L 541.703125 26.88 
" style="fill:none;stroke:#000000;stroke-linecap:square;stroke-linejoin:miter;stroke-width:0.8;"/>
   </g>
   <g id="patch_11">
    <path d="M 313.430398 244.32 
L 541.703125 244.32 
" style="fill:none;stroke:#000000;stroke-linecap:square;stroke-linejoin:miter;stroke-width:0.8;"/>
   </g>
   <g id="patch_12">
    <path d="M 313.430398 26.88 
L 541.703125 26.88 
" style="fill:none;stroke:#000000;stroke-linecap:square;stroke-linejoin:miter;stroke-width:0.8;"/>
   </g>
   <g id="text_29">
    <!-- $degree=2, C=0.005, \epsilon=0.1$ -->
    <g transform="translate(296.436761 20.88)scale(0.18 -0.18)">
     <use transform="translate(0 0.015625)" xlink:href="#DejaVuSans-Oblique-100"/>
     <use transform="translate(63.476562 0.015625)" xlink:href="#DejaVuSans-Oblique-101"/>
     <use transform="translate(125 0.015625)" xlink:href="#DejaVuSans-Oblique-103"/>
     <use transform="translate(188.476562 0.015625)" xlink:href="#DejaVuSans-Oblique-114"/>
     <use transform="translate(229.589844 0.015625)" xlink:href="#DejaVuSans-Oblique-101"/>
     <use transform="translate(291.113281 0.015625)" xlink:href="#DejaVuSans-Oblique-101"/>
     <use transform="translate(372.119141 0.015625)" xlink:href="#DejaVuSans-61"/>
     <use transform="translate(475.390625 0.015625)" xlink:href="#DejaVuSans-50"/>
     <use transform="translate(539.013672 0.015625)" xlink:href="#DejaVuSans-44"/>
     <use transform="translate(590.283203 0.015625)" xlink:href="#DejaVuSans-Oblique-67"/>
     <use transform="translate(679.589844 0.015625)" xlink:href="#DejaVuSans-61"/>
     <use transform="translate(782.861328 0.015625)" xlink:href="#DejaVuSans-48"/>
     <use transform="translate(846.484375 0.015625)" xlink:href="#DejaVuSans-46"/>
     <use transform="translate(878.271484 0.015625)" xlink:href="#DejaVuSans-48"/>
     <use transform="translate(941.894531 0.015625)" xlink:href="#DejaVuSans-48"/>
     <use transform="translate(1005.517578 0.015625)" xlink:href="#DejaVuSans-53"/>
     <use transform="translate(1069.140625 0.015625)" xlink:href="#DejaVuSans-44"/>
     <use transform="translate(1120.410156 0.015625)" xlink:href="#DejaVuSans-Oblique-949"/>
     <use transform="translate(1193.945312 0.015625)" xlink:href="#DejaVuSans-61"/>
     <use transform="translate(1297.216797 0.015625)" xlink:href="#DejaVuSans-48"/>
     <use transform="translate(1360.839844 0.015625)" xlink:href="#DejaVuSans-46"/>
     <use transform="translate(1392.626953 0.015625)" xlink:href="#DejaVuSans-49"/>
    </g>
   </g>
   <g id="legend_2">
    <g id="patch_13">
     <path d="M 326.030398 70.62 
L 394.430398 70.62 
Q 398.030398 70.62 398.030398 67.02 
L 398.030398 39.48 
Q 398.030398 35.88 394.430398 35.88 
L 326.030398 35.88 
Q 322.430398 35.88 322.430398 39.48 
L 322.430398 67.02 
Q 322.430398 70.62 326.030398 70.62 
z
" style="fill:#ffffff;opacity:0.8;stroke:#cccccc;stroke-linejoin:miter;"/>
    </g>
    <g id="line2d_33">
     <path d="M 329.630398 53.34 
L 365.630398 53.34 
" style="fill:none;stroke:#000000;stroke-linecap:square;stroke-width:2;"/>
    </g>
    <g id="line2d_34"/>
    <g id="text_30">
     <!-- $\hat{y}$ -->
     <g transform="translate(380.030398 59.64)scale(0.18 -0.18)">
      <use transform="translate(62.373047 12.015625)" xlink:href="#DejaVuSans-770"/>
      <use transform="translate(0 0.828125)" xlink:href="#DejaVuSans-Oblique-121"/>
     </g>
    </g>
   </g>
  </g>
 </g>
 <defs>
  <clipPath id="p10bf73f64a">
   <rect height="217.44" width="228.272727" x="39.503125" y="26.88"/>
  </clipPath>
  <clipPath id="p38a9249766">
   <rect height="217.44" width="228.272727" x="313.430398" y="26.88"/>
  </clipPath>
 </defs>
</svg>
